<?xml version="1.0" encoding="utf-8" standalone="no"?>
<!DOCTYPE svg PUBLIC "-//W3C//DTD SVG 1.1//EN"
  "http://www.w3.org/Graphics/SVG/1.1/DTD/svg11.dtd">
<svg xmlns:xlink="http://www.w3.org/1999/xlink" width="785.066719pt" height="352.465pt" viewBox="0 0 785.066719 352.465" xmlns="http://www.w3.org/2000/svg" version="1.1">
 <metadata>
  <rdf:RDF xmlns:dc="http://purl.org/dc/elements/1.1/" xmlns:cc="http://creativecommons.org/ns#" xmlns:rdf="http://www.w3.org/1999/02/22-rdf-syntax-ns#">
   <cc:Work>
    <dc:type rdf:resource="http://purl.org/dc/dcmitype/StillImage"/>
    <dc:date>2025-04-01T19:13:21.107367</dc:date>
    <dc:format>image/svg+xml</dc:format>
    <dc:creator>
     <cc:Agent>
      <dc:title>Matplotlib v3.8.4, https://matplotlib.org/</dc:title>
     </cc:Agent>
    </dc:creator>
   </cc:Work>
  </rdf:RDF>
 </metadata>
 <defs>
  <style type="text/css">*{stroke-linejoin: round; stroke-linecap: butt}</style>
 </defs>
 <g id="figure_1">
  <g id="patch_1">
   <path d="M -0 352.465 
L 785.066719 352.465 
L 785.066719 0 
L -0 0 
z
" style="fill: #ffffff"/>
  </g>
  <g id="axes_1">
   <g id="patch_2">
    <path d="M 56.571875 306.198437 
L 693.901875 306.198437 
L 693.901875 17.798437 
L 56.571875 17.798437 
z
" style="fill: #ffffff"/>
   </g>
   <g id="matplotlib.axis_1">
    <g id="xtick_1">
     <g id="line2d_1">
      <defs>
       <path id="mac6a737236" d="M 0 0 
L 0 3.5 
" style="stroke: #000000; stroke-width: 0.8"/>
      </defs>
      <g>
       <use xlink:href="#mac6a737236" x="149.918188" y="306.198437" style="stroke: #000000; stroke-width: 0.8"/>
      </g>
     </g>
     <g id="text_1">
      <!-- 12000 -->
      <g transform="translate(126.058813 324.596094) scale(0.15 -0.15)">
       <defs>
        <path id="DejaVuSans-31" d="M 794 531 
L 1825 531 
L 1825 4091 
L 703 3866 
L 703 4441 
L 1819 4666 
L 2450 4666 
L 2450 531 
L 3481 531 
L 3481 0 
L 794 0 
L 794 531 
z
" transform="scale(0.015625)"/>
        <path id="DejaVuSans-32" d="M 1228 531 
L 3431 531 
L 3431 0 
L 469 0 
L 469 531 
Q 828 903 1448 1529 
Q 2069 2156 2228 2338 
Q 2531 2678 2651 2914 
Q 2772 3150 2772 3378 
Q 2772 3750 2511 3984 
Q 2250 4219 1831 4219 
Q 1534 4219 1204 4116 
Q 875 4013 500 3803 
L 500 4441 
Q 881 4594 1212 4672 
Q 1544 4750 1819 4750 
Q 2544 4750 2975 4387 
Q 3406 4025 3406 3419 
Q 3406 3131 3298 2873 
Q 3191 2616 2906 2266 
Q 2828 2175 2409 1742 
Q 1991 1309 1228 531 
z
" transform="scale(0.015625)"/>
        <path id="DejaVuSans-30" d="M 2034 4250 
Q 1547 4250 1301 3770 
Q 1056 3291 1056 2328 
Q 1056 1369 1301 889 
Q 1547 409 2034 409 
Q 2525 409 2770 889 
Q 3016 1369 3016 2328 
Q 3016 3291 2770 3770 
Q 2525 4250 2034 4250 
z
M 2034 4750 
Q 2819 4750 3233 4129 
Q 3647 3509 3647 2328 
Q 3647 1150 3233 529 
Q 2819 -91 2034 -91 
Q 1250 -91 836 529 
Q 422 1150 422 2328 
Q 422 3509 836 4129 
Q 1250 4750 2034 4750 
z
" transform="scale(0.015625)"/>
       </defs>
       <use xlink:href="#DejaVuSans-31"/>
       <use xlink:href="#DejaVuSans-32" x="63.623047"/>
       <use xlink:href="#DejaVuSans-30" x="127.246094"/>
       <use xlink:href="#DejaVuSans-30" x="190.869141"/>
       <use xlink:href="#DejaVuSans-30" x="254.492188"/>
      </g>
     </g>
    </g>
    <g id="xtick_2">
     <g id="line2d_2">
      <g>
       <use xlink:href="#mac6a737236" x="278.671723" y="306.198437" style="stroke: #000000; stroke-width: 0.8"/>
      </g>
     </g>
     <g id="text_2">
      <!-- 14000 -->
      <g transform="translate(254.812348 324.596094) scale(0.15 -0.15)">
       <defs>
        <path id="DejaVuSans-34" d="M 2419 4116 
L 825 1625 
L 2419 1625 
L 2419 4116 
z
M 2253 4666 
L 3047 4666 
L 3047 1625 
L 3713 1625 
L 3713 1100 
L 3047 1100 
L 3047 0 
L 2419 0 
L 2419 1100 
L 313 1100 
L 313 1709 
L 2253 4666 
z
" transform="scale(0.015625)"/>
       </defs>
       <use xlink:href="#DejaVuSans-31"/>
       <use xlink:href="#DejaVuSans-34" x="63.623047"/>
       <use xlink:href="#DejaVuSans-30" x="127.246094"/>
       <use xlink:href="#DejaVuSans-30" x="190.869141"/>
       <use xlink:href="#DejaVuSans-30" x="254.492188"/>
      </g>
     </g>
    </g>
    <g id="xtick_3">
     <g id="line2d_3">
      <g>
       <use xlink:href="#mac6a737236" x="407.425259" y="306.198437" style="stroke: #000000; stroke-width: 0.8"/>
      </g>
     </g>
     <g id="text_3">
      <!-- 16000 -->
      <g transform="translate(383.565884 324.596094) scale(0.15 -0.15)">
       <defs>
        <path id="DejaVuSans-36" d="M 2113 2584 
Q 1688 2584 1439 2293 
Q 1191 2003 1191 1497 
Q 1191 994 1439 701 
Q 1688 409 2113 409 
Q 2538 409 2786 701 
Q 3034 994 3034 1497 
Q 3034 2003 2786 2293 
Q 2538 2584 2113 2584 
z
M 3366 4563 
L 3366 3988 
Q 3128 4100 2886 4159 
Q 2644 4219 2406 4219 
Q 1781 4219 1451 3797 
Q 1122 3375 1075 2522 
Q 1259 2794 1537 2939 
Q 1816 3084 2150 3084 
Q 2853 3084 3261 2657 
Q 3669 2231 3669 1497 
Q 3669 778 3244 343 
Q 2819 -91 2113 -91 
Q 1303 -91 875 529 
Q 447 1150 447 2328 
Q 447 3434 972 4092 
Q 1497 4750 2381 4750 
Q 2619 4750 2861 4703 
Q 3103 4656 3366 4563 
z
" transform="scale(0.015625)"/>
       </defs>
       <use xlink:href="#DejaVuSans-31"/>
       <use xlink:href="#DejaVuSans-36" x="63.623047"/>
       <use xlink:href="#DejaVuSans-30" x="127.246094"/>
       <use xlink:href="#DejaVuSans-30" x="190.869141"/>
       <use xlink:href="#DejaVuSans-30" x="254.492188"/>
      </g>
     </g>
    </g>
    <g id="xtick_4">
     <g id="line2d_4">
      <g>
       <use xlink:href="#mac6a737236" x="536.178794" y="306.198437" style="stroke: #000000; stroke-width: 0.8"/>
      </g>
     </g>
     <g id="text_4">
      <!-- 18000 -->
      <g transform="translate(512.319419 324.596094) scale(0.15 -0.15)">
       <defs>
        <path id="DejaVuSans-38" d="M 2034 2216 
Q 1584 2216 1326 1975 
Q 1069 1734 1069 1313 
Q 1069 891 1326 650 
Q 1584 409 2034 409 
Q 2484 409 2743 651 
Q 3003 894 3003 1313 
Q 3003 1734 2745 1975 
Q 2488 2216 2034 2216 
z
M 1403 2484 
Q 997 2584 770 2862 
Q 544 3141 544 3541 
Q 544 4100 942 4425 
Q 1341 4750 2034 4750 
Q 2731 4750 3128 4425 
Q 3525 4100 3525 3541 
Q 3525 3141 3298 2862 
Q 3072 2584 2669 2484 
Q 3125 2378 3379 2068 
Q 3634 1759 3634 1313 
Q 3634 634 3220 271 
Q 2806 -91 2034 -91 
Q 1263 -91 848 271 
Q 434 634 434 1313 
Q 434 1759 690 2068 
Q 947 2378 1403 2484 
z
M 1172 3481 
Q 1172 3119 1398 2916 
Q 1625 2713 2034 2713 
Q 2441 2713 2670 2916 
Q 2900 3119 2900 3481 
Q 2900 3844 2670 4047 
Q 2441 4250 2034 4250 
Q 1625 4250 1398 4047 
Q 1172 3844 1172 3481 
z
" transform="scale(0.015625)"/>
       </defs>
       <use xlink:href="#DejaVuSans-31"/>
       <use xlink:href="#DejaVuSans-38" x="63.623047"/>
       <use xlink:href="#DejaVuSans-30" x="127.246094"/>
       <use xlink:href="#DejaVuSans-30" x="190.869141"/>
       <use xlink:href="#DejaVuSans-30" x="254.492188"/>
      </g>
     </g>
    </g>
    <g id="xtick_5">
     <g id="line2d_5">
      <g>
       <use xlink:href="#mac6a737236" x="664.93233" y="306.198437" style="stroke: #000000; stroke-width: 0.8"/>
      </g>
     </g>
     <g id="text_5">
      <!-- 20000 -->
      <g transform="translate(641.072955 324.596094) scale(0.15 -0.15)">
       <use xlink:href="#DejaVuSans-32"/>
       <use xlink:href="#DejaVuSans-30" x="63.623047"/>
       <use xlink:href="#DejaVuSans-30" x="127.246094"/>
       <use xlink:href="#DejaVuSans-30" x="190.869141"/>
       <use xlink:href="#DejaVuSans-30" x="254.492188"/>
      </g>
     </g>
    </g>
    <g id="text_6">
     <!-- Last Interaction Velocity (km/s) -->
     <g transform="translate(266.204219 342.353437) scale(0.14 -0.14)">
      <defs>
       <path id="DejaVuSans-4c" d="M 628 4666 
L 1259 4666 
L 1259 531 
L 3531 531 
L 3531 0 
L 628 0 
L 628 4666 
z
" transform="scale(0.015625)"/>
       <path id="DejaVuSans-61" d="M 2194 1759 
Q 1497 1759 1228 1600 
Q 959 1441 959 1056 
Q 959 750 1161 570 
Q 1363 391 1709 391 
Q 2188 391 2477 730 
Q 2766 1069 2766 1631 
L 2766 1759 
L 2194 1759 
z
M 3341 1997 
L 3341 0 
L 2766 0 
L 2766 531 
Q 2569 213 2275 61 
Q 1981 -91 1556 -91 
Q 1019 -91 701 211 
Q 384 513 384 1019 
Q 384 1609 779 1909 
Q 1175 2209 1959 2209 
L 2766 2209 
L 2766 2266 
Q 2766 2663 2505 2880 
Q 2244 3097 1772 3097 
Q 1472 3097 1187 3025 
Q 903 2953 641 2809 
L 641 3341 
Q 956 3463 1253 3523 
Q 1550 3584 1831 3584 
Q 2591 3584 2966 3190 
Q 3341 2797 3341 1997 
z
" transform="scale(0.015625)"/>
       <path id="DejaVuSans-73" d="M 2834 3397 
L 2834 2853 
Q 2591 2978 2328 3040 
Q 2066 3103 1784 3103 
Q 1356 3103 1142 2972 
Q 928 2841 928 2578 
Q 928 2378 1081 2264 
Q 1234 2150 1697 2047 
L 1894 2003 
Q 2506 1872 2764 1633 
Q 3022 1394 3022 966 
Q 3022 478 2636 193 
Q 2250 -91 1575 -91 
Q 1294 -91 989 -36 
Q 684 19 347 128 
L 347 722 
Q 666 556 975 473 
Q 1284 391 1588 391 
Q 1994 391 2212 530 
Q 2431 669 2431 922 
Q 2431 1156 2273 1281 
Q 2116 1406 1581 1522 
L 1381 1569 
Q 847 1681 609 1914 
Q 372 2147 372 2553 
Q 372 3047 722 3315 
Q 1072 3584 1716 3584 
Q 2034 3584 2315 3537 
Q 2597 3491 2834 3397 
z
" transform="scale(0.015625)"/>
       <path id="DejaVuSans-74" d="M 1172 4494 
L 1172 3500 
L 2356 3500 
L 2356 3053 
L 1172 3053 
L 1172 1153 
Q 1172 725 1289 603 
Q 1406 481 1766 481 
L 2356 481 
L 2356 0 
L 1766 0 
Q 1100 0 847 248 
Q 594 497 594 1153 
L 594 3053 
L 172 3053 
L 172 3500 
L 594 3500 
L 594 4494 
L 1172 4494 
z
" transform="scale(0.015625)"/>
       <path id="DejaVuSans-20" transform="scale(0.015625)"/>
       <path id="DejaVuSans-49" d="M 628 4666 
L 1259 4666 
L 1259 0 
L 628 0 
L 628 4666 
z
" transform="scale(0.015625)"/>
       <path id="DejaVuSans-6e" d="M 3513 2113 
L 3513 0 
L 2938 0 
L 2938 2094 
Q 2938 2591 2744 2837 
Q 2550 3084 2163 3084 
Q 1697 3084 1428 2787 
Q 1159 2491 1159 1978 
L 1159 0 
L 581 0 
L 581 3500 
L 1159 3500 
L 1159 2956 
Q 1366 3272 1645 3428 
Q 1925 3584 2291 3584 
Q 2894 3584 3203 3211 
Q 3513 2838 3513 2113 
z
" transform="scale(0.015625)"/>
       <path id="DejaVuSans-65" d="M 3597 1894 
L 3597 1613 
L 953 1613 
Q 991 1019 1311 708 
Q 1631 397 2203 397 
Q 2534 397 2845 478 
Q 3156 559 3463 722 
L 3463 178 
Q 3153 47 2828 -22 
Q 2503 -91 2169 -91 
Q 1331 -91 842 396 
Q 353 884 353 1716 
Q 353 2575 817 3079 
Q 1281 3584 2069 3584 
Q 2775 3584 3186 3129 
Q 3597 2675 3597 1894 
z
M 3022 2063 
Q 3016 2534 2758 2815 
Q 2500 3097 2075 3097 
Q 1594 3097 1305 2825 
Q 1016 2553 972 2059 
L 3022 2063 
z
" transform="scale(0.015625)"/>
       <path id="DejaVuSans-72" d="M 2631 2963 
Q 2534 3019 2420 3045 
Q 2306 3072 2169 3072 
Q 1681 3072 1420 2755 
Q 1159 2438 1159 1844 
L 1159 0 
L 581 0 
L 581 3500 
L 1159 3500 
L 1159 2956 
Q 1341 3275 1631 3429 
Q 1922 3584 2338 3584 
Q 2397 3584 2469 3576 
Q 2541 3569 2628 3553 
L 2631 2963 
z
" transform="scale(0.015625)"/>
       <path id="DejaVuSans-63" d="M 3122 3366 
L 3122 2828 
Q 2878 2963 2633 3030 
Q 2388 3097 2138 3097 
Q 1578 3097 1268 2742 
Q 959 2388 959 1747 
Q 959 1106 1268 751 
Q 1578 397 2138 397 
Q 2388 397 2633 464 
Q 2878 531 3122 666 
L 3122 134 
Q 2881 22 2623 -34 
Q 2366 -91 2075 -91 
Q 1284 -91 818 406 
Q 353 903 353 1747 
Q 353 2603 823 3093 
Q 1294 3584 2113 3584 
Q 2378 3584 2631 3529 
Q 2884 3475 3122 3366 
z
" transform="scale(0.015625)"/>
       <path id="DejaVuSans-69" d="M 603 3500 
L 1178 3500 
L 1178 0 
L 603 0 
L 603 3500 
z
M 603 4863 
L 1178 4863 
L 1178 4134 
L 603 4134 
L 603 4863 
z
" transform="scale(0.015625)"/>
       <path id="DejaVuSans-6f" d="M 1959 3097 
Q 1497 3097 1228 2736 
Q 959 2375 959 1747 
Q 959 1119 1226 758 
Q 1494 397 1959 397 
Q 2419 397 2687 759 
Q 2956 1122 2956 1747 
Q 2956 2369 2687 2733 
Q 2419 3097 1959 3097 
z
M 1959 3584 
Q 2709 3584 3137 3096 
Q 3566 2609 3566 1747 
Q 3566 888 3137 398 
Q 2709 -91 1959 -91 
Q 1206 -91 779 398 
Q 353 888 353 1747 
Q 353 2609 779 3096 
Q 1206 3584 1959 3584 
z
" transform="scale(0.015625)"/>
       <path id="DejaVuSans-56" d="M 1831 0 
L 50 4666 
L 709 4666 
L 2188 738 
L 3669 4666 
L 4325 4666 
L 2547 0 
L 1831 0 
z
" transform="scale(0.015625)"/>
       <path id="DejaVuSans-6c" d="M 603 4863 
L 1178 4863 
L 1178 0 
L 603 0 
L 603 4863 
z
" transform="scale(0.015625)"/>
       <path id="DejaVuSans-79" d="M 2059 -325 
Q 1816 -950 1584 -1140 
Q 1353 -1331 966 -1331 
L 506 -1331 
L 506 -850 
L 844 -850 
Q 1081 -850 1212 -737 
Q 1344 -625 1503 -206 
L 1606 56 
L 191 3500 
L 800 3500 
L 1894 763 
L 2988 3500 
L 3597 3500 
L 2059 -325 
z
" transform="scale(0.015625)"/>
       <path id="DejaVuSans-28" d="M 1984 4856 
Q 1566 4138 1362 3434 
Q 1159 2731 1159 2009 
Q 1159 1288 1364 580 
Q 1569 -128 1984 -844 
L 1484 -844 
Q 1016 -109 783 600 
Q 550 1309 550 2009 
Q 550 2706 781 3412 
Q 1013 4119 1484 4856 
L 1984 4856 
z
" transform="scale(0.015625)"/>
       <path id="DejaVuSans-6b" d="M 581 4863 
L 1159 4863 
L 1159 1991 
L 2875 3500 
L 3609 3500 
L 1753 1863 
L 3688 0 
L 2938 0 
L 1159 1709 
L 1159 0 
L 581 0 
L 581 4863 
z
" transform="scale(0.015625)"/>
       <path id="DejaVuSans-6d" d="M 3328 2828 
Q 3544 3216 3844 3400 
Q 4144 3584 4550 3584 
Q 5097 3584 5394 3201 
Q 5691 2819 5691 2113 
L 5691 0 
L 5113 0 
L 5113 2094 
Q 5113 2597 4934 2840 
Q 4756 3084 4391 3084 
Q 3944 3084 3684 2787 
Q 3425 2491 3425 1978 
L 3425 0 
L 2847 0 
L 2847 2094 
Q 2847 2600 2669 2842 
Q 2491 3084 2119 3084 
Q 1678 3084 1418 2786 
Q 1159 2488 1159 1978 
L 1159 0 
L 581 0 
L 581 3500 
L 1159 3500 
L 1159 2956 
Q 1356 3278 1631 3431 
Q 1906 3584 2284 3584 
Q 2666 3584 2933 3390 
Q 3200 3197 3328 2828 
z
" transform="scale(0.015625)"/>
       <path id="DejaVuSans-2f" d="M 1625 4666 
L 2156 4666 
L 531 -594 
L 0 -594 
L 1625 4666 
z
" transform="scale(0.015625)"/>
       <path id="DejaVuSans-29" d="M 513 4856 
L 1013 4856 
Q 1481 4119 1714 3412 
Q 1947 2706 1947 2009 
Q 1947 1309 1714 600 
Q 1481 -109 1013 -844 
L 513 -844 
Q 928 -128 1133 580 
Q 1338 1288 1338 2009 
Q 1338 2731 1133 3434 
Q 928 4138 513 4856 
z
" transform="scale(0.015625)"/>
      </defs>
      <use xlink:href="#DejaVuSans-4c"/>
      <use xlink:href="#DejaVuSans-61" x="55.712891"/>
      <use xlink:href="#DejaVuSans-73" x="116.992188"/>
      <use xlink:href="#DejaVuSans-74" x="169.091797"/>
      <use xlink:href="#DejaVuSans-20" x="208.300781"/>
      <use xlink:href="#DejaVuSans-49" x="240.087891"/>
      <use xlink:href="#DejaVuSans-6e" x="269.580078"/>
      <use xlink:href="#DejaVuSans-74" x="332.958984"/>
      <use xlink:href="#DejaVuSans-65" x="372.167969"/>
      <use xlink:href="#DejaVuSans-72" x="433.691406"/>
      <use xlink:href="#DejaVuSans-61" x="474.804688"/>
      <use xlink:href="#DejaVuSans-63" x="536.083984"/>
      <use xlink:href="#DejaVuSans-74" x="591.064453"/>
      <use xlink:href="#DejaVuSans-69" x="630.273438"/>
      <use xlink:href="#DejaVuSans-6f" x="658.056641"/>
      <use xlink:href="#DejaVuSans-6e" x="719.238281"/>
      <use xlink:href="#DejaVuSans-20" x="782.617188"/>
      <use xlink:href="#DejaVuSans-56" x="814.404297"/>
      <use xlink:href="#DejaVuSans-65" x="875.0625"/>
      <use xlink:href="#DejaVuSans-6c" x="936.585938"/>
      <use xlink:href="#DejaVuSans-6f" x="964.369141"/>
      <use xlink:href="#DejaVuSans-63" x="1025.550781"/>
      <use xlink:href="#DejaVuSans-69" x="1080.53125"/>
      <use xlink:href="#DejaVuSans-74" x="1108.314453"/>
      <use xlink:href="#DejaVuSans-79" x="1147.523438"/>
      <use xlink:href="#DejaVuSans-20" x="1206.703125"/>
      <use xlink:href="#DejaVuSans-28" x="1238.490234"/>
      <use xlink:href="#DejaVuSans-6b" x="1277.503906"/>
      <use xlink:href="#DejaVuSans-6d" x="1335.414062"/>
      <use xlink:href="#DejaVuSans-2f" x="1432.826172"/>
      <use xlink:href="#DejaVuSans-73" x="1466.517578"/>
      <use xlink:href="#DejaVuSans-29" x="1518.617188"/>
     </g>
    </g>
   </g>
   <g id="matplotlib.axis_2">
    <g id="ytick_1">
     <g id="line2d_6">
      <defs>
       <path id="m577681961b" d="M 0 0 
L -3.5 0 
" style="stroke: #000000; stroke-width: 0.8"/>
      </defs>
      <g>
       <use xlink:href="#m577681961b" x="56.571875" y="293.089347" style="stroke: #000000; stroke-width: 0.8"/>
      </g>
     </g>
     <g id="text_7">
      <!-- 0.0 -->
      <g transform="translate(25.717188 298.788175) scale(0.15 -0.15)">
       <defs>
        <path id="DejaVuSans-2e" d="M 684 794 
L 1344 794 
L 1344 0 
L 684 0 
L 684 794 
z
" transform="scale(0.015625)"/>
       </defs>
       <use xlink:href="#DejaVuSans-30"/>
       <use xlink:href="#DejaVuSans-2e" x="63.623047"/>
       <use xlink:href="#DejaVuSans-30" x="95.410156"/>
      </g>
     </g>
    </g>
    <g id="ytick_2">
     <g id="line2d_7">
      <g>
       <use xlink:href="#m577681961b" x="56.571875" y="249.82502" style="stroke: #000000; stroke-width: 0.8"/>
      </g>
     </g>
     <g id="text_8">
      <!-- 0.2 -->
      <g transform="translate(25.717188 255.523848) scale(0.15 -0.15)">
       <use xlink:href="#DejaVuSans-30"/>
       <use xlink:href="#DejaVuSans-2e" x="63.623047"/>
       <use xlink:href="#DejaVuSans-32" x="95.410156"/>
      </g>
     </g>
    </g>
    <g id="ytick_3">
     <g id="line2d_8">
      <g>
       <use xlink:href="#m577681961b" x="56.571875" y="206.560694" style="stroke: #000000; stroke-width: 0.8"/>
      </g>
     </g>
     <g id="text_9">
      <!-- 0.4 -->
      <g transform="translate(25.717188 212.259522) scale(0.15 -0.15)">
       <use xlink:href="#DejaVuSans-30"/>
       <use xlink:href="#DejaVuSans-2e" x="63.623047"/>
       <use xlink:href="#DejaVuSans-34" x="95.410156"/>
      </g>
     </g>
    </g>
    <g id="ytick_4">
     <g id="line2d_9">
      <g>
       <use xlink:href="#m577681961b" x="56.571875" y="163.296367" style="stroke: #000000; stroke-width: 0.8"/>
      </g>
     </g>
     <g id="text_10">
      <!-- 0.6 -->
      <g transform="translate(25.717188 168.995195) scale(0.15 -0.15)">
       <use xlink:href="#DejaVuSans-30"/>
       <use xlink:href="#DejaVuSans-2e" x="63.623047"/>
       <use xlink:href="#DejaVuSans-36" x="95.410156"/>
      </g>
     </g>
    </g>
    <g id="ytick_5">
     <g id="line2d_10">
      <g>
       <use xlink:href="#m577681961b" x="56.571875" y="120.032041" style="stroke: #000000; stroke-width: 0.8"/>
      </g>
     </g>
     <g id="text_11">
      <!-- 0.8 -->
      <g transform="translate(25.717188 125.730869) scale(0.15 -0.15)">
       <use xlink:href="#DejaVuSans-30"/>
       <use xlink:href="#DejaVuSans-2e" x="63.623047"/>
       <use xlink:href="#DejaVuSans-38" x="95.410156"/>
      </g>
     </g>
    </g>
    <g id="ytick_6">
     <g id="line2d_11">
      <g>
       <use xlink:href="#m577681961b" x="56.571875" y="76.767714" style="stroke: #000000; stroke-width: 0.8"/>
      </g>
     </g>
     <g id="text_12">
      <!-- 1.0 -->
      <g transform="translate(25.717188 82.466543) scale(0.15 -0.15)">
       <use xlink:href="#DejaVuSans-31"/>
       <use xlink:href="#DejaVuSans-2e" x="63.623047"/>
       <use xlink:href="#DejaVuSans-30" x="95.410156"/>
      </g>
     </g>
    </g>
    <g id="ytick_7">
     <g id="line2d_12">
      <g>
       <use xlink:href="#m577681961b" x="56.571875" y="33.503388" style="stroke: #000000; stroke-width: 0.8"/>
      </g>
     </g>
     <g id="text_13">
      <!-- 1.2 -->
      <g transform="translate(25.717188 39.202216) scale(0.15 -0.15)">
       <use xlink:href="#DejaVuSans-31"/>
       <use xlink:href="#DejaVuSans-2e" x="63.623047"/>
       <use xlink:href="#DejaVuSans-32" x="95.410156"/>
      </g>
     </g>
    </g>
    <g id="text_14">
     <!-- Packet Count -->
     <g transform="translate(18.597656 211.185547) rotate(-90) scale(0.15 -0.15)">
      <defs>
       <path id="DejaVuSans-50" d="M 1259 4147 
L 1259 2394 
L 2053 2394 
Q 2494 2394 2734 2622 
Q 2975 2850 2975 3272 
Q 2975 3691 2734 3919 
Q 2494 4147 2053 4147 
L 1259 4147 
z
M 628 4666 
L 2053 4666 
Q 2838 4666 3239 4311 
Q 3641 3956 3641 3272 
Q 3641 2581 3239 2228 
Q 2838 1875 2053 1875 
L 1259 1875 
L 1259 0 
L 628 0 
L 628 4666 
z
" transform="scale(0.015625)"/>
       <path id="DejaVuSans-43" d="M 4122 4306 
L 4122 3641 
Q 3803 3938 3442 4084 
Q 3081 4231 2675 4231 
Q 1875 4231 1450 3742 
Q 1025 3253 1025 2328 
Q 1025 1406 1450 917 
Q 1875 428 2675 428 
Q 3081 428 3442 575 
Q 3803 722 4122 1019 
L 4122 359 
Q 3791 134 3420 21 
Q 3050 -91 2638 -91 
Q 1578 -91 968 557 
Q 359 1206 359 2328 
Q 359 3453 968 4101 
Q 1578 4750 2638 4750 
Q 3056 4750 3426 4639 
Q 3797 4528 4122 4306 
z
" transform="scale(0.015625)"/>
       <path id="DejaVuSans-75" d="M 544 1381 
L 544 3500 
L 1119 3500 
L 1119 1403 
Q 1119 906 1312 657 
Q 1506 409 1894 409 
Q 2359 409 2629 706 
Q 2900 1003 2900 1516 
L 2900 3500 
L 3475 3500 
L 3475 0 
L 2900 0 
L 2900 538 
Q 2691 219 2414 64 
Q 2138 -91 1772 -91 
Q 1169 -91 856 284 
Q 544 659 544 1381 
z
M 1991 3584 
L 1991 3584 
z
" transform="scale(0.015625)"/>
      </defs>
      <use xlink:href="#DejaVuSans-50"/>
      <use xlink:href="#DejaVuSans-61" x="55.802734"/>
      <use xlink:href="#DejaVuSans-63" x="117.082031"/>
      <use xlink:href="#DejaVuSans-6b" x="172.0625"/>
      <use xlink:href="#DejaVuSans-65" x="226.347656"/>
      <use xlink:href="#DejaVuSans-74" x="287.871094"/>
      <use xlink:href="#DejaVuSans-20" x="327.080078"/>
      <use xlink:href="#DejaVuSans-43" x="358.867188"/>
      <use xlink:href="#DejaVuSans-6f" x="428.691406"/>
      <use xlink:href="#DejaVuSans-75" x="489.873047"/>
      <use xlink:href="#DejaVuSans-6e" x="553.251953"/>
      <use xlink:href="#DejaVuSans-74" x="616.630859"/>
     </g>
    </g>
    <g id="text_15">
     <!-- 1e5 -->
     <g transform="translate(56.571875 14.798437) scale(0.1 -0.1)">
      <defs>
       <path id="DejaVuSans-35" d="M 691 4666 
L 3169 4666 
L 3169 4134 
L 1269 4134 
L 1269 2991 
Q 1406 3038 1543 3061 
Q 1681 3084 1819 3084 
Q 2600 3084 3056 2656 
Q 3513 2228 3513 1497 
Q 3513 744 3044 326 
Q 2575 -91 1722 -91 
Q 1428 -91 1123 -41 
Q 819 9 494 109 
L 494 744 
Q 775 591 1075 516 
Q 1375 441 1709 441 
Q 2250 441 2565 725 
Q 2881 1009 2881 1497 
Q 2881 1984 2565 2268 
Q 2250 2553 1709 2553 
Q 1456 2553 1204 2497 
Q 953 2441 691 2322 
L 691 4666 
z
" transform="scale(0.015625)"/>
      </defs>
      <use xlink:href="#DejaVuSans-31"/>
      <use xlink:href="#DejaVuSans-65" x="63.623047"/>
      <use xlink:href="#DejaVuSans-35" x="125.146484"/>
     </g>
    </g>
   </g>
   <g id="line2d_13">
    <path d="M 85.54142 281.343082 
L 114.510966 281.343082 
L 114.510966 281.343082 
L 114.510966 281.343082 
L 114.510966 283.506298 
L 143.480511 283.506298 
L 143.480511 283.506298 
L 143.480511 283.506298 
L 143.480511 284.631171 
L 172.450057 284.631171 
L 172.450057 284.631171 
L 172.450057 284.631171 
L 172.450057 285.864204 
L 201.419602 285.864204 
L 201.419602 285.864204 
L 201.419602 285.864204 
L 201.419602 286.534801 
L 230.389148 286.534801 
L 230.389148 286.534801 
L 230.389148 286.534801 
L 230.389148 287.854363 
L 259.358693 287.854363 
L 259.358693 287.854363 
L 259.358693 287.854363 
L 259.358693 288.676385 
L 288.328239 288.676385 
L 288.328239 288.676385 
L 288.328239 288.676385 
L 288.328239 289.087396 
L 317.297784 289.087396 
L 317.297784 289.087396 
L 317.297784 289.087396 
L 317.297784 289.757993 
L 346.26733 289.757993 
L 346.26733 289.757993 
L 346.26733 289.757993 
L 346.26733 290.212269 
L 375.236875 290.212269 
L 375.236875 290.212269 
L 375.236875 290.212269 
L 375.236875 289.801258 
L 404.20642 289.801258 
L 404.20642 289.801258 
L 404.20642 289.801258 
L 404.20642 290.342062 
L 433.175966 290.342062 
L 433.175966 290.342062 
L 433.175966 290.342062 
L 433.175966 290.796337 
L 462.145511 290.796337 
L 462.145511 290.796337 
L 462.145511 290.796337 
L 462.145511 291.228981 
L 491.115057 291.228981 
L 491.115057 291.228981 
L 491.115057 291.228981 
L 491.115057 290.644912 
L 520.084602 290.644912 
L 520.084602 290.644912 
L 520.084602 290.644912 
L 520.084602 290.882866 
L 549.054148 290.882866 
L 549.054148 290.882866 
L 549.054148 290.882866 
L 549.054148 291.164084 
L 578.023693 291.164084 
L 578.023693 291.164084 
L 578.023693 291.164084 
L 578.023693 291.639992 
L 606.993239 291.639992 
L 606.993239 291.639992 
L 606.993239 291.639992 
L 606.993239 291.402038 
L 635.962784 291.402038 
L 635.962784 291.402038 
L 635.962784 291.402038 
L 635.962784 291.185716 
L 664.93233 291.185716 
L 664.93233 291.185716 
" clip-path="url(#ped20fbc4c9)" style="fill: none; stroke: #000080; stroke-opacity: 0.75; stroke-width: 2.5; stroke-linecap: square"/>
   </g>
   <g id="line2d_14">
    <path d="M 85.54142 251.92334 
L 114.510966 251.92334 
L 114.510966 251.92334 
L 114.510966 251.92334 
L 114.510966 270.41884 
L 143.480511 270.41884 
L 143.480511 270.41884 
L 143.480511 270.41884 
L 143.480511 275.870145 
L 172.450057 275.870145 
L 172.450057 275.870145 
L 172.450057 275.870145 
L 172.450057 279.634141 
L 201.419602 279.634141 
L 201.419602 279.634141 
L 201.419602 279.634141 
L 201.419602 281.883886 
L 230.389148 281.883886 
L 230.389148 281.883886 
L 230.389148 281.883886 
L 230.389148 283.700988 
L 259.358693 283.700988 
L 259.358693 283.700988 
L 259.358693 283.700988 
L 259.358693 285.431561 
L 288.328239 285.431561 
L 288.328239 285.431561 
L 288.328239 285.431561 
L 288.328239 286.62133 
L 317.297784 286.62133 
L 317.297784 286.62133 
L 317.297784 286.62133 
L 317.297784 285.907468 
L 346.26733 285.907468 
L 346.26733 285.907468 
L 346.26733 285.907468 
L 346.26733 287.486616 
L 375.236875 287.486616 
L 375.236875 287.486616 
L 375.236875 287.486616 
L 375.236875 288.914339 
L 404.20642 288.914339 
L 404.20642 288.914339 
L 404.20642 288.914339 
L 404.20642 289.52004 
L 433.175966 289.52004 
L 433.175966 289.52004 
L 433.175966 289.52004 
L 433.175966 290.12574 
L 462.145511 290.12574 
L 462.145511 290.12574 
L 462.145511 290.12574 
L 462.145511 290.774705 
L 491.115057 290.774705 
L 491.115057 290.774705 
L 491.115057 290.774705 
L 491.115057 290.969395 
L 520.084602 290.969395 
L 520.084602 290.969395 
L 520.084602 290.969395 
L 520.084602 291.034291 
L 549.054148 291.034291 
L 549.054148 291.034291 
L 549.054148 291.034291 
L 549.054148 291.42367 
L 578.023693 291.42367 
L 578.023693 291.42367 
L 578.023693 291.42367 
L 578.023693 291.964474 
L 606.993239 291.964474 
L 606.993239 291.964474 
L 606.993239 291.964474 
L 606.993239 292.202428 
L 635.962784 292.202428 
L 635.962784 292.202428 
L 635.962784 292.202428 
L 635.962784 292.007738 
L 664.93233 292.007738 
L 664.93233 292.007738 
" clip-path="url(#ped20fbc4c9)" style="fill: none; stroke: #004cff; stroke-opacity: 0.75; stroke-width: 2.5; stroke-linecap: square"/>
   </g>
   <g id="line2d_15">
    <path d="M 85.54142 30.907528 
L 114.510966 30.907528 
L 114.510966 30.907528 
L 114.510966 30.907528 
L 114.510966 80.531711 
L 143.480511 80.531711 
L 143.480511 80.531711 
L 143.480511 80.531711 
L 143.480511 115.554183 
L 172.450057 115.554183 
L 172.450057 115.554183 
L 172.450057 115.554183 
L 172.450057 150.42523 
L 201.419602 150.42523 
L 201.419602 150.42523 
L 201.419602 150.42523 
L 201.419602 177.595227 
L 230.389148 177.595227 
L 230.389148 177.595227 
L 230.389148 177.595227 
L 230.389148 198.989437 
L 259.358693 198.989437 
L 259.358693 198.989437 
L 259.358693 198.989437 
L 259.358693 220.275485 
L 288.328239 220.275485 
L 288.328239 220.275485 
L 288.328239 220.275485 
L 288.328239 229.577315 
L 317.297784 229.577315 
L 317.297784 229.577315 
L 317.297784 229.577315 
L 317.297784 240.306868 
L 346.26733 240.306868 
L 346.26733 240.306868 
L 346.26733 240.306868 
L 346.26733 249.500538 
L 375.236875 249.500538 
L 375.236875 249.500538 
L 375.236875 249.500538 
L 375.236875 257.050163 
L 404.20642 257.050163 
L 404.20642 257.050163 
L 404.20642 257.050163 
L 404.20642 261.138642 
L 433.175966 261.138642 
L 433.175966 261.138642 
L 433.175966 261.138642 
L 433.175966 264.556523 
L 462.145511 264.556523 
L 462.145511 264.556523 
L 462.145511 264.556523 
L 462.145511 267.671555 
L 491.115057 267.671555 
L 491.115057 267.671555 
L 491.115057 267.671555 
L 491.115057 272.171045 
L 520.084602 272.171045 
L 520.084602 272.171045 
L 520.084602 272.171045 
L 520.084602 276.216259 
L 549.054148 276.216259 
L 549.054148 276.216259 
L 549.054148 276.216259 
L 549.054148 278.855383 
L 578.023693 278.855383 
L 578.023693 278.855383 
L 578.023693 278.855383 
L 578.023693 280.499428 
L 606.993239 280.499428 
L 606.993239 280.499428 
L 606.993239 280.499428 
L 606.993239 283.830781 
L 635.962784 283.830781 
L 635.962784 283.830781 
L 635.962784 283.830781 
L 635.962784 286.253583 
L 664.93233 286.253583 
L 664.93233 286.253583 
" clip-path="url(#ped20fbc4c9)" style="fill: none; stroke: #29ffce; stroke-opacity: 0.75; stroke-width: 2.5; stroke-linecap: square"/>
   </g>
   <g id="line2d_16">
    <path d="M 85.54142 154.751663 
L 114.510966 154.751663 
L 114.510966 154.751663 
L 114.510966 154.751663 
L 114.510966 210.973655 
L 143.480511 210.973655 
L 143.480511 210.973655 
L 143.480511 210.973655 
L 143.480511 235.612689 
L 172.450057 235.612689 
L 172.450057 235.612689 
L 172.450057 235.612689 
L 172.450057 251.512329 
L 201.419602 251.512329 
L 201.419602 251.512329 
L 201.419602 251.512329 
L 201.419602 263.085536 
L 230.389148 263.085536 
L 230.389148 263.085536 
L 230.389148 263.085536 
L 230.389148 272.279206 
L 259.358693 272.279206 
L 259.358693 272.279206 
L 259.358693 272.279206 
L 259.358693 275.177915 
L 288.328239 275.177915 
L 288.328239 275.177915 
L 288.328239 275.177915 
L 288.328239 278.855383 
L 317.297784 278.855383 
L 317.297784 278.855383 
L 317.297784 278.855383 
L 317.297784 280.542692 
L 346.26733 280.542692 
L 346.26733 280.542692 
L 346.26733 280.542692 
L 346.26733 282.878966 
L 375.236875 282.878966 
L 375.236875 282.878966 
L 375.236875 282.878966 
L 375.236875 283.917309 
L 404.20642 283.917309 
L 404.20642 283.917309 
L 404.20642 283.917309 
L 404.20642 285.907468 
L 433.175966 285.907468 
L 433.175966 285.907468 
L 433.175966 285.907468 
L 433.175966 286.62133 
L 462.145511 286.62133 
L 462.145511 286.62133 
L 462.145511 286.62133 
L 462.145511 287.746202 
L 491.115057 287.746202 
L 491.115057 287.746202 
L 491.115057 287.746202 
L 491.115057 287.573145 
L 520.084602 287.573145 
L 520.084602 287.573145 
L 520.084602 287.573145 
L 520.084602 289.065764 
L 549.054148 289.065764 
L 549.054148 289.065764 
L 549.054148 289.065764 
L 549.054148 289.238822 
L 578.023693 289.238822 
L 578.023693 289.238822 
L 578.023693 289.238822 
L 578.023693 289.909419 
L 606.993239 289.909419 
L 606.993239 289.909419 
L 606.993239 289.909419 
L 606.993239 290.298798 
L 635.962784 290.298798 
L 635.962784 290.298798 
L 635.962784 290.298798 
L 635.962784 291.207348 
L 664.93233 291.207348 
L 664.93233 291.207348 
" clip-path="url(#ped20fbc4c9)" style="fill: none; stroke: #ceff29; stroke-opacity: 0.75; stroke-width: 2.5; stroke-linecap: square"/>
   </g>
   <g id="line2d_17">
    <path d="M 85.54142 263.885926 
L 114.510966 263.885926 
L 114.510966 263.885926 
L 114.510966 263.885926 
L 114.510966 277.9252 
L 143.480511 277.9252 
L 143.480511 277.9252 
L 143.480511 277.9252 
L 143.480511 283.181816 
L 172.450057 283.181816 
L 172.450057 283.181816 
L 172.450057 283.181816 
L 172.450057 287.897627 
L 201.419602 287.897627 
L 201.419602 287.897627 
L 201.419602 287.897627 
L 201.419602 289.152293 
L 230.389148 289.152293 
L 230.389148 289.152293 
L 230.389148 289.152293 
L 230.389148 290.471855 
L 259.358693 290.471855 
L 259.358693 290.471855 
L 259.358693 290.471855 
L 259.358693 291.683256 
L 288.328239 291.683256 
L 288.328239 291.683256 
L 288.328239 291.683256 
L 288.328239 291.986106 
L 317.297784 291.986106 
L 317.297784 291.986106 
L 317.297784 291.986106 
L 317.297784 292.462014 
L 346.26733 292.462014 
L 346.26733 292.462014 
L 346.26733 292.462014 
L 346.26733 292.52691 
L 375.236875 292.52691 
L 375.236875 292.52691 
L 375.236875 292.52691 
L 375.236875 292.570175 
L 404.20642 292.570175 
L 404.20642 292.570175 
L 404.20642 292.570175 
L 404.20642 292.656703 
L 433.175966 292.656703 
L 433.175966 292.656703 
L 433.175966 292.656703 
L 433.175966 292.699968 
L 462.145511 292.699968 
L 462.145511 292.699968 
L 462.145511 292.699968 
L 462.145511 292.851393 
L 491.115057 292.851393 
L 491.115057 292.851393 
L 491.115057 292.851393 
L 491.115057 292.808128 
L 520.084602 292.808128 
L 520.084602 292.808128 
L 520.084602 292.808128 
L 520.084602 292.937921 
L 549.054148 292.937921 
L 549.054148 292.937921 
L 549.054148 292.937921 
L 549.054148 292.786496 
L 578.023693 292.786496 
L 578.023693 292.786496 
L 578.023693 292.786496 
L 578.023693 292.916289 
L 606.993239 292.916289 
L 606.993239 292.916289 
L 606.993239 292.916289 
L 606.993239 292.851393 
L 635.962784 292.851393 
L 635.962784 292.851393 
L 635.962784 292.851393 
L 635.962784 292.959554 
L 664.93233 292.959554 
L 664.93233 292.959554 
" clip-path="url(#ped20fbc4c9)" style="fill: none; stroke: #ff6800; stroke-opacity: 0.75; stroke-width: 2.5; stroke-linecap: square"/>
   </g>
   <g id="line2d_18">
    <path d="M 85.54142 263.388386 
L 114.510966 263.388386 
L 114.510966 263.388386 
L 114.510966 263.388386 
L 114.510966 273.6204 
L 143.480511 273.6204 
L 143.480511 273.6204 
L 143.480511 273.6204 
L 143.480511 280.953703 
L 172.450057 280.953703 
L 172.450057 280.953703 
L 172.450057 280.953703 
L 172.450057 285.345032 
L 201.419602 285.345032 
L 201.419602 285.345032 
L 201.419602 285.345032 
L 201.419602 288.200478 
L 230.389148 288.200478 
L 230.389148 288.200478 
L 230.389148 288.200478 
L 230.389148 290.212269 
L 259.358693 290.212269 
L 259.358693 290.212269 
L 259.358693 290.212269 
L 259.358693 291.748152 
L 288.328239 291.748152 
L 288.328239 291.748152 
L 288.328239 291.748152 
L 288.328239 291.856313 
L 317.297784 291.856313 
L 317.297784 291.856313 
L 317.297784 291.856313 
L 317.297784 292.462014 
L 346.26733 292.462014 
L 346.26733 292.462014 
L 346.26733 292.462014 
L 346.26733 292.591807 
L 375.236875 292.591807 
L 375.236875 292.591807 
L 375.236875 292.591807 
L 375.236875 292.635071 
L 404.20642 292.635071 
L 404.20642 292.635071 
L 404.20642 292.635071 
L 404.20642 292.829761 
L 433.175966 292.829761 
L 433.175966 292.829761 
L 433.175966 292.829761 
L 433.175966 293.046082 
L 462.145511 293.046082 
L 462.145511 293.046082 
L 462.145511 293.046082 
L 462.145511 293.02445 
L 491.115057 293.02445 
L 491.115057 293.02445 
L 491.115057 293.02445 
L 491.115057 293.089347 
L 520.084602 293.089347 
L 520.084602 293.089347 
L 520.084602 293.089347 
L 520.084602 293.067714 
L 549.054148 293.067714 
L 549.054148 293.067714 
L 549.054148 293.067714 
L 549.054148 293.02445 
L 578.023693 293.02445 
L 578.023693 293.02445 
L 578.023693 293.02445 
L 578.023693 293.067714 
L 606.993239 293.067714 
L 606.993239 293.067714 
L 606.993239 293.067714 
L 606.993239 293.089347 
L 635.962784 293.089347 
L 635.962784 293.089347 
L 635.962784 293.089347 
L 635.962784 293.089347 
L 664.93233 293.089347 
L 664.93233 293.089347 
" clip-path="url(#ped20fbc4c9)" style="fill: none; stroke: #800000; stroke-opacity: 0.75; stroke-width: 2.5; stroke-linecap: square"/>
   </g>
   <g id="patch_3">
    <path d="M 56.571875 306.198437 
L 56.571875 17.798437 
" style="fill: none; stroke: #000000; stroke-width: 0.8; stroke-linejoin: miter; stroke-linecap: square"/>
   </g>
   <g id="patch_4">
    <path d="M 693.901875 306.198437 
L 693.901875 17.798437 
" style="fill: none; stroke: #000000; stroke-width: 0.8; stroke-linejoin: miter; stroke-linecap: square"/>
   </g>
   <g id="patch_5">
    <path d="M 56.571875 306.198437 
L 693.901875 306.198437 
" style="fill: none; stroke: #000000; stroke-width: 0.8; stroke-linejoin: miter; stroke-linecap: square"/>
   </g>
   <g id="patch_6">
    <path d="M 56.571875 17.798437 
L 693.901875 17.798437 
" style="fill: none; stroke: #000000; stroke-width: 0.8; stroke-linejoin: miter; stroke-linecap: square"/>
   </g>
   <g id="legend_1">
    <g id="patch_7">
     <path d="M 704.401875 161.901562 
L 774.866719 161.901562 
Q 777.866719 161.901562 777.866719 158.901562 
L 777.866719 28.298437 
Q 777.866719 25.298437 774.866719 25.298437 
L 704.401875 25.298437 
Q 701.401875 25.298437 701.401875 28.298437 
L 701.401875 158.901562 
Q 701.401875 161.901562 704.401875 161.901562 
z
" style="fill: #ffffff; opacity: 0.8; stroke: #cccccc; stroke-linejoin: miter"/>
    </g>
    <g id="line2d_19">
     <path d="M 707.401875 37.446094 
L 722.401875 37.446094 
L 722.401875 37.446094 
L 737.401875 37.446094 
L 737.401875 37.446094 
" style="fill: none; stroke: #000080; stroke-opacity: 0.75; stroke-width: 2.5; stroke-linecap: square"/>
    </g>
    <g id="text_16">
     <!-- O -->
     <g transform="translate(749.401875 42.696094) scale(0.15 -0.15)">
      <defs>
       <path id="DejaVuSans-4f" d="M 2522 4238 
Q 1834 4238 1429 3725 
Q 1025 3213 1025 2328 
Q 1025 1447 1429 934 
Q 1834 422 2522 422 
Q 3209 422 3611 934 
Q 4013 1447 4013 2328 
Q 4013 3213 3611 3725 
Q 3209 4238 2522 4238 
z
M 2522 4750 
Q 3503 4750 4090 4092 
Q 4678 3434 4678 2328 
Q 4678 1225 4090 567 
Q 3503 -91 2522 -91 
Q 1538 -91 948 565 
Q 359 1222 359 2328 
Q 359 3434 948 4092 
Q 1538 4750 2522 4750 
z
" transform="scale(0.015625)"/>
      </defs>
      <use xlink:href="#DejaVuSans-4f"/>
     </g>
    </g>
    <g id="line2d_20">
     <path d="M 707.401875 59.463281 
L 722.401875 59.463281 
L 722.401875 59.463281 
L 737.401875 59.463281 
L 737.401875 59.463281 
" style="fill: none; stroke: #004cff; stroke-opacity: 0.75; stroke-width: 2.5; stroke-linecap: square"/>
    </g>
    <g id="text_17">
     <!-- Mg -->
     <g transform="translate(749.401875 64.713281) scale(0.15 -0.15)">
      <defs>
       <path id="DejaVuSans-4d" d="M 628 4666 
L 1569 4666 
L 2759 1491 
L 3956 4666 
L 4897 4666 
L 4897 0 
L 4281 0 
L 4281 4097 
L 3078 897 
L 2444 897 
L 1241 4097 
L 1241 0 
L 628 0 
L 628 4666 
z
" transform="scale(0.015625)"/>
       <path id="DejaVuSans-67" d="M 2906 1791 
Q 2906 2416 2648 2759 
Q 2391 3103 1925 3103 
Q 1463 3103 1205 2759 
Q 947 2416 947 1791 
Q 947 1169 1205 825 
Q 1463 481 1925 481 
Q 2391 481 2648 825 
Q 2906 1169 2906 1791 
z
M 3481 434 
Q 3481 -459 3084 -895 
Q 2688 -1331 1869 -1331 
Q 1566 -1331 1297 -1286 
Q 1028 -1241 775 -1147 
L 775 -588 
Q 1028 -725 1275 -790 
Q 1522 -856 1778 -856 
Q 2344 -856 2625 -561 
Q 2906 -266 2906 331 
L 2906 616 
Q 2728 306 2450 153 
Q 2172 0 1784 0 
Q 1141 0 747 490 
Q 353 981 353 1791 
Q 353 2603 747 3093 
Q 1141 3584 1784 3584 
Q 2172 3584 2450 3431 
Q 2728 3278 2906 2969 
L 2906 3500 
L 3481 3500 
L 3481 434 
z
" transform="scale(0.015625)"/>
      </defs>
      <use xlink:href="#DejaVuSans-4d"/>
      <use xlink:href="#DejaVuSans-67" x="86.279297"/>
     </g>
    </g>
    <g id="line2d_21">
     <path d="M 707.401875 81.480469 
L 722.401875 81.480469 
L 722.401875 81.480469 
L 737.401875 81.480469 
L 737.401875 81.480469 
" style="fill: none; stroke: #29ffce; stroke-opacity: 0.75; stroke-width: 2.5; stroke-linecap: square"/>
    </g>
    <g id="text_18">
     <!-- Si -->
     <g transform="translate(749.401875 86.730469) scale(0.15 -0.15)">
      <defs>
       <path id="DejaVuSans-53" d="M 3425 4513 
L 3425 3897 
Q 3066 4069 2747 4153 
Q 2428 4238 2131 4238 
Q 1616 4238 1336 4038 
Q 1056 3838 1056 3469 
Q 1056 3159 1242 3001 
Q 1428 2844 1947 2747 
L 2328 2669 
Q 3034 2534 3370 2195 
Q 3706 1856 3706 1288 
Q 3706 609 3251 259 
Q 2797 -91 1919 -91 
Q 1588 -91 1214 -16 
Q 841 59 441 206 
L 441 856 
Q 825 641 1194 531 
Q 1563 422 1919 422 
Q 2459 422 2753 634 
Q 3047 847 3047 1241 
Q 3047 1584 2836 1778 
Q 2625 1972 2144 2069 
L 1759 2144 
Q 1053 2284 737 2584 
Q 422 2884 422 3419 
Q 422 4038 858 4394 
Q 1294 4750 2059 4750 
Q 2388 4750 2728 4690 
Q 3069 4631 3425 4513 
z
" transform="scale(0.015625)"/>
      </defs>
      <use xlink:href="#DejaVuSans-53"/>
      <use xlink:href="#DejaVuSans-69" x="63.476562"/>
     </g>
    </g>
    <g id="line2d_22">
     <path d="M 707.401875 103.497656 
L 722.401875 103.497656 
L 722.401875 103.497656 
L 737.401875 103.497656 
L 737.401875 103.497656 
" style="fill: none; stroke: #ceff29; stroke-opacity: 0.75; stroke-width: 2.5; stroke-linecap: square"/>
    </g>
    <g id="text_19">
     <!-- S -->
     <g transform="translate(749.401875 108.747656) scale(0.15 -0.15)">
      <use xlink:href="#DejaVuSans-53"/>
     </g>
    </g>
    <g id="line2d_23">
     <path d="M 707.401875 125.514844 
L 722.401875 125.514844 
L 722.401875 125.514844 
L 737.401875 125.514844 
L 737.401875 125.514844 
" style="fill: none; stroke: #ff6800; stroke-opacity: 0.75; stroke-width: 2.5; stroke-linecap: square"/>
    </g>
    <g id="text_20">
     <!-- Ar -->
     <g transform="translate(749.401875 130.764844) scale(0.15 -0.15)">
      <defs>
       <path id="DejaVuSans-41" d="M 2188 4044 
L 1331 1722 
L 3047 1722 
L 2188 4044 
z
M 1831 4666 
L 2547 4666 
L 4325 0 
L 3669 0 
L 3244 1197 
L 1141 1197 
L 716 0 
L 50 0 
L 1831 4666 
z
" transform="scale(0.015625)"/>
      </defs>
      <use xlink:href="#DejaVuSans-41"/>
      <use xlink:href="#DejaVuSans-72" x="68.408203"/>
     </g>
    </g>
    <g id="line2d_24">
     <path d="M 707.401875 147.532031 
L 722.401875 147.532031 
L 722.401875 147.532031 
L 737.401875 147.532031 
L 737.401875 147.532031 
" style="fill: none; stroke: #800000; stroke-opacity: 0.75; stroke-width: 2.5; stroke-linecap: square"/>
    </g>
    <g id="text_21">
     <!-- Ca -->
     <g transform="translate(749.401875 152.782031) scale(0.15 -0.15)">
      <use xlink:href="#DejaVuSans-43"/>
      <use xlink:href="#DejaVuSans-61" x="69.824219"/>
     </g>
    </g>
   </g>
  </g>
 </g>
 <defs>
  <clipPath id="ped20fbc4c9">
   <rect x="56.571875" y="17.798437" width="637.33" height="288.4"/>
  </clipPath>
 </defs>
</svg>
