<?xml version="1.0" encoding="utf-8" standalone="no"?>
<!DOCTYPE svg PUBLIC "-//W3C//DTD SVG 1.1//EN"
  "http://www.w3.org/Graphics/SVG/1.1/DTD/svg11.dtd">
<svg xmlns:xlink="http://www.w3.org/1999/xlink" width="409.823125pt" height="323.988562pt" viewBox="0 0 409.823125 323.988562" xmlns="http://www.w3.org/2000/svg" version="1.1">
 <metadata>
  <rdf:RDF xmlns:dc="http://purl.org/dc/elements/1.1/" xmlns:cc="http://creativecommons.org/ns#" xmlns:rdf="http://www.w3.org/1999/02/22-rdf-syntax-ns#">
   <cc:Work>
    <dc:type rdf:resource="http://purl.org/dc/dcmitype/StillImage"/>
    <dc:date>2025-08-06T15:29:28.065627</dc:date>
    <dc:format>image/svg+xml</dc:format>
    <dc:creator>
     <cc:Agent>
      <dc:title>Matplotlib v3.10.3, https://matplotlib.org/</dc:title>
     </cc:Agent>
    </dc:creator>
   </cc:Work>
  </rdf:RDF>
 </metadata>
 <defs>
  <style type="text/css">*{stroke-linejoin: round; stroke-linecap: butt}</style>
 </defs>
 <g id="figure_1">
  <g id="patch_1">
   <path d="M 0 323.988562 
L 409.823125 323.988562 
L 409.823125 0 
L 0 0 
z
" style="fill: #ffffff"/>
  </g>
  <g id="axes_1">
   <g id="patch_2">
    <path d="M 45.503125 283.910437 
L 402.623125 283.910437 
L 402.623125 17.798437 
L 45.503125 17.798437 
z
" style="fill: #ffffff"/>
   </g>
   <g id="matplotlib.axis_1">
    <g id="xtick_1">
     <g id="line2d_1">
      <defs>
       <path id="m7ab0224c26" d="M 0 0 
L 0 3.5 
" style="stroke: #000000; stroke-width: 0.8"/>
      </defs>
      <g>
       <use xlink:href="#m7ab0224c26" x="87.366088" y="283.910437" style="stroke: #000000; stroke-width: 0.8"/>
      </g>
     </g>
     <g id="text_1">
      <!-- 2500 -->
      <g transform="translate(74.641088 298.508875) scale(0.1 -0.1)">
       <defs>
        <path id="DejaVuSans-32" d="M 1228 531 
L 3431 531 
L 3431 0 
L 469 0 
L 469 531 
Q 828 903 1448 1529 
Q 2069 2156 2228 2338 
Q 2531 2678 2651 2914 
Q 2772 3150 2772 3378 
Q 2772 3750 2511 3984 
Q 2250 4219 1831 4219 
Q 1534 4219 1204 4116 
Q 875 4013 500 3803 
L 500 4441 
Q 881 4594 1212 4672 
Q 1544 4750 1819 4750 
Q 2544 4750 2975 4387 
Q 3406 4025 3406 3419 
Q 3406 3131 3298 2873 
Q 3191 2616 2906 2266 
Q 2828 2175 2409 1742 
Q 1991 1309 1228 531 
z
" transform="scale(0.015625)"/>
        <path id="DejaVuSans-35" d="M 691 4666 
L 3169 4666 
L 3169 4134 
L 1269 4134 
L 1269 2991 
Q 1406 3038 1543 3061 
Q 1681 3084 1819 3084 
Q 2600 3084 3056 2656 
Q 3513 2228 3513 1497 
Q 3513 744 3044 326 
Q 2575 -91 1722 -91 
Q 1428 -91 1123 -41 
Q 819 9 494 109 
L 494 744 
Q 775 591 1075 516 
Q 1375 441 1709 441 
Q 2250 441 2565 725 
Q 2881 1009 2881 1497 
Q 2881 1984 2565 2268 
Q 2250 2553 1709 2553 
Q 1456 2553 1204 2497 
Q 953 2441 691 2322 
L 691 4666 
z
" transform="scale(0.015625)"/>
        <path id="DejaVuSans-30" d="M 2034 4250 
Q 1547 4250 1301 3770 
Q 1056 3291 1056 2328 
Q 1056 1369 1301 889 
Q 1547 409 2034 409 
Q 2525 409 2770 889 
Q 3016 1369 3016 2328 
Q 3016 3291 2770 3770 
Q 2525 4250 2034 4250 
z
M 2034 4750 
Q 2819 4750 3233 4129 
Q 3647 3509 3647 2328 
Q 3647 1150 3233 529 
Q 2819 -91 2034 -91 
Q 1250 -91 836 529 
Q 422 1150 422 2328 
Q 422 3509 836 4129 
Q 1250 4750 2034 4750 
z
" transform="scale(0.015625)"/>
       </defs>
       <use xlink:href="#DejaVuSans-32"/>
       <use xlink:href="#DejaVuSans-35" transform="translate(63.623047 0)"/>
       <use xlink:href="#DejaVuSans-30" transform="translate(127.246094 0)"/>
       <use xlink:href="#DejaVuSans-30" transform="translate(190.869141 0)"/>
      </g>
     </g>
    </g>
    <g id="xtick_2">
     <g id="line2d_2">
      <g>
       <use xlink:href="#m7ab0224c26" x="130.117647" y="283.910437" style="stroke: #000000; stroke-width: 0.8"/>
      </g>
     </g>
     <g id="text_2">
      <!-- 5000 -->
      <g transform="translate(117.392647 298.508875) scale(0.1 -0.1)">
       <use xlink:href="#DejaVuSans-35"/>
       <use xlink:href="#DejaVuSans-30" transform="translate(63.623047 0)"/>
       <use xlink:href="#DejaVuSans-30" transform="translate(127.246094 0)"/>
       <use xlink:href="#DejaVuSans-30" transform="translate(190.869141 0)"/>
      </g>
     </g>
    </g>
    <g id="xtick_3">
     <g id="line2d_3">
      <g>
       <use xlink:href="#m7ab0224c26" x="172.869207" y="283.910437" style="stroke: #000000; stroke-width: 0.8"/>
      </g>
     </g>
     <g id="text_3">
      <!-- 7500 -->
      <g transform="translate(160.144207 298.508875) scale(0.1 -0.1)">
       <defs>
        <path id="DejaVuSans-37" d="M 525 4666 
L 3525 4666 
L 3525 4397 
L 1831 0 
L 1172 0 
L 2766 4134 
L 525 4134 
L 525 4666 
z
" transform="scale(0.015625)"/>
       </defs>
       <use xlink:href="#DejaVuSans-37"/>
       <use xlink:href="#DejaVuSans-35" transform="translate(63.623047 0)"/>
       <use xlink:href="#DejaVuSans-30" transform="translate(127.246094 0)"/>
       <use xlink:href="#DejaVuSans-30" transform="translate(190.869141 0)"/>
      </g>
     </g>
    </g>
    <g id="xtick_4">
     <g id="line2d_4">
      <g>
       <use xlink:href="#m7ab0224c26" x="215.620766" y="283.910437" style="stroke: #000000; stroke-width: 0.8"/>
      </g>
     </g>
     <g id="text_4">
      <!-- 10000 -->
      <g transform="translate(199.714516 298.508875) scale(0.1 -0.1)">
       <defs>
        <path id="DejaVuSans-31" d="M 794 531 
L 1825 531 
L 1825 4091 
L 703 3866 
L 703 4441 
L 1819 4666 
L 2450 4666 
L 2450 531 
L 3481 531 
L 3481 0 
L 794 0 
L 794 531 
z
" transform="scale(0.015625)"/>
       </defs>
       <use xlink:href="#DejaVuSans-31"/>
       <use xlink:href="#DejaVuSans-30" transform="translate(63.623047 0)"/>
       <use xlink:href="#DejaVuSans-30" transform="translate(127.246094 0)"/>
       <use xlink:href="#DejaVuSans-30" transform="translate(190.869141 0)"/>
       <use xlink:href="#DejaVuSans-30" transform="translate(254.492188 0)"/>
      </g>
     </g>
    </g>
    <g id="xtick_5">
     <g id="line2d_5">
      <g>
       <use xlink:href="#m7ab0224c26" x="258.372326" y="283.910437" style="stroke: #000000; stroke-width: 0.8"/>
      </g>
     </g>
     <g id="text_5">
      <!-- 12500 -->
      <g transform="translate(242.466076 298.508875) scale(0.1 -0.1)">
       <use xlink:href="#DejaVuSans-31"/>
       <use xlink:href="#DejaVuSans-32" transform="translate(63.623047 0)"/>
       <use xlink:href="#DejaVuSans-35" transform="translate(127.246094 0)"/>
       <use xlink:href="#DejaVuSans-30" transform="translate(190.869141 0)"/>
       <use xlink:href="#DejaVuSans-30" transform="translate(254.492188 0)"/>
      </g>
     </g>
    </g>
    <g id="xtick_6">
     <g id="line2d_6">
      <g>
       <use xlink:href="#m7ab0224c26" x="301.123885" y="283.910437" style="stroke: #000000; stroke-width: 0.8"/>
      </g>
     </g>
     <g id="text_6">
      <!-- 15000 -->
      <g transform="translate(285.217635 298.508875) scale(0.1 -0.1)">
       <use xlink:href="#DejaVuSans-31"/>
       <use xlink:href="#DejaVuSans-35" transform="translate(63.623047 0)"/>
       <use xlink:href="#DejaVuSans-30" transform="translate(127.246094 0)"/>
       <use xlink:href="#DejaVuSans-30" transform="translate(190.869141 0)"/>
       <use xlink:href="#DejaVuSans-30" transform="translate(254.492188 0)"/>
      </g>
     </g>
    </g>
    <g id="xtick_7">
     <g id="line2d_7">
      <g>
       <use xlink:href="#m7ab0224c26" x="343.875445" y="283.910437" style="stroke: #000000; stroke-width: 0.8"/>
      </g>
     </g>
     <g id="text_7">
      <!-- 17500 -->
      <g transform="translate(327.969195 298.508875) scale(0.1 -0.1)">
       <use xlink:href="#DejaVuSans-31"/>
       <use xlink:href="#DejaVuSans-37" transform="translate(63.623047 0)"/>
       <use xlink:href="#DejaVuSans-35" transform="translate(127.246094 0)"/>
       <use xlink:href="#DejaVuSans-30" transform="translate(190.869141 0)"/>
       <use xlink:href="#DejaVuSans-30" transform="translate(254.492188 0)"/>
      </g>
     </g>
    </g>
    <g id="xtick_8">
     <g id="line2d_8">
      <g>
       <use xlink:href="#m7ab0224c26" x="386.627004" y="283.910437" style="stroke: #000000; stroke-width: 0.8"/>
      </g>
     </g>
     <g id="text_8">
      <!-- 20000 -->
      <g transform="translate(370.720754 298.508875) scale(0.1 -0.1)">
       <use xlink:href="#DejaVuSans-32"/>
       <use xlink:href="#DejaVuSans-30" transform="translate(63.623047 0)"/>
       <use xlink:href="#DejaVuSans-30" transform="translate(127.246094 0)"/>
       <use xlink:href="#DejaVuSans-30" transform="translate(190.869141 0)"/>
       <use xlink:href="#DejaVuSans-30" transform="translate(254.492188 0)"/>
      </g>
     </g>
    </g>
    <g id="text_9">
     <!-- Wavelength [$\mathrm{\mathring{A}}$] -->
     <g transform="translate(185.163125 314.688562) scale(0.1 -0.1)">
      <defs>
       <path id="DejaVuSans-57" d="M 213 4666 
L 850 4666 
L 1831 722 
L 2809 4666 
L 3519 4666 
L 4500 722 
L 5478 4666 
L 6119 4666 
L 4947 0 
L 4153 0 
L 3169 4050 
L 2175 0 
L 1381 0 
L 213 4666 
z
" transform="scale(0.015625)"/>
       <path id="DejaVuSans-61" d="M 2194 1759 
Q 1497 1759 1228 1600 
Q 959 1441 959 1056 
Q 959 750 1161 570 
Q 1363 391 1709 391 
Q 2188 391 2477 730 
Q 2766 1069 2766 1631 
L 2766 1759 
L 2194 1759 
z
M 3341 1997 
L 3341 0 
L 2766 0 
L 2766 531 
Q 2569 213 2275 61 
Q 1981 -91 1556 -91 
Q 1019 -91 701 211 
Q 384 513 384 1019 
Q 384 1609 779 1909 
Q 1175 2209 1959 2209 
L 2766 2209 
L 2766 2266 
Q 2766 2663 2505 2880 
Q 2244 3097 1772 3097 
Q 1472 3097 1187 3025 
Q 903 2953 641 2809 
L 641 3341 
Q 956 3463 1253 3523 
Q 1550 3584 1831 3584 
Q 2591 3584 2966 3190 
Q 3341 2797 3341 1997 
z
" transform="scale(0.015625)"/>
       <path id="DejaVuSans-76" d="M 191 3500 
L 800 3500 
L 1894 563 
L 2988 3500 
L 3597 3500 
L 2284 0 
L 1503 0 
L 191 3500 
z
" transform="scale(0.015625)"/>
       <path id="DejaVuSans-65" d="M 3597 1894 
L 3597 1613 
L 953 1613 
Q 991 1019 1311 708 
Q 1631 397 2203 397 
Q 2534 397 2845 478 
Q 3156 559 3463 722 
L 3463 178 
Q 3153 47 2828 -22 
Q 2503 -91 2169 -91 
Q 1331 -91 842 396 
Q 353 884 353 1716 
Q 353 2575 817 3079 
Q 1281 3584 2069 3584 
Q 2775 3584 3186 3129 
Q 3597 2675 3597 1894 
z
M 3022 2063 
Q 3016 2534 2758 2815 
Q 2500 3097 2075 3097 
Q 1594 3097 1305 2825 
Q 1016 2553 972 2059 
L 3022 2063 
z
" transform="scale(0.015625)"/>
       <path id="DejaVuSans-6c" d="M 603 4863 
L 1178 4863 
L 1178 0 
L 603 0 
L 603 4863 
z
" transform="scale(0.015625)"/>
       <path id="DejaVuSans-6e" d="M 3513 2113 
L 3513 0 
L 2938 0 
L 2938 2094 
Q 2938 2591 2744 2837 
Q 2550 3084 2163 3084 
Q 1697 3084 1428 2787 
Q 1159 2491 1159 1978 
L 1159 0 
L 581 0 
L 581 3500 
L 1159 3500 
L 1159 2956 
Q 1366 3272 1645 3428 
Q 1925 3584 2291 3584 
Q 2894 3584 3203 3211 
Q 3513 2838 3513 2113 
z
" transform="scale(0.015625)"/>
       <path id="DejaVuSans-67" d="M 2906 1791 
Q 2906 2416 2648 2759 
Q 2391 3103 1925 3103 
Q 1463 3103 1205 2759 
Q 947 2416 947 1791 
Q 947 1169 1205 825 
Q 1463 481 1925 481 
Q 2391 481 2648 825 
Q 2906 1169 2906 1791 
z
M 3481 434 
Q 3481 -459 3084 -895 
Q 2688 -1331 1869 -1331 
Q 1566 -1331 1297 -1286 
Q 1028 -1241 775 -1147 
L 775 -588 
Q 1028 -725 1275 -790 
Q 1522 -856 1778 -856 
Q 2344 -856 2625 -561 
Q 2906 -266 2906 331 
L 2906 616 
Q 2728 306 2450 153 
Q 2172 0 1784 0 
Q 1141 0 747 490 
Q 353 981 353 1791 
Q 353 2603 747 3093 
Q 1141 3584 1784 3584 
Q 2172 3584 2450 3431 
Q 2728 3278 2906 2969 
L 2906 3500 
L 3481 3500 
L 3481 434 
z
" transform="scale(0.015625)"/>
       <path id="DejaVuSans-74" d="M 1172 4494 
L 1172 3500 
L 2356 3500 
L 2356 3053 
L 1172 3053 
L 1172 1153 
Q 1172 725 1289 603 
Q 1406 481 1766 481 
L 2356 481 
L 2356 0 
L 1766 0 
Q 1100 0 847 248 
Q 594 497 594 1153 
L 594 3053 
L 172 3053 
L 172 3500 
L 594 3500 
L 594 4494 
L 1172 4494 
z
" transform="scale(0.015625)"/>
       <path id="DejaVuSans-68" d="M 3513 2113 
L 3513 0 
L 2938 0 
L 2938 2094 
Q 2938 2591 2744 2837 
Q 2550 3084 2163 3084 
Q 1697 3084 1428 2787 
Q 1159 2491 1159 1978 
L 1159 0 
L 581 0 
L 581 4863 
L 1159 4863 
L 1159 2956 
Q 1366 3272 1645 3428 
Q 1925 3584 2291 3584 
Q 2894 3584 3203 3211 
Q 3513 2838 3513 2113 
z
" transform="scale(0.015625)"/>
       <path id="DejaVuSans-20" transform="scale(0.015625)"/>
       <path id="DejaVuSans-5b" d="M 550 4863 
L 1875 4863 
L 1875 4416 
L 1125 4416 
L 1125 -397 
L 1875 -397 
L 1875 -844 
L 550 -844 
L 550 4863 
z
" transform="scale(0.015625)"/>
       <path id="DejaVuSans-2218" d="M 2003 2603 
Q 1753 2603 1581 2429 
Q 1409 2256 1409 2006 
Q 1409 1759 1581 1589 
Q 1753 1419 2003 1419 
Q 2253 1419 2425 1589 
Q 2597 1759 2597 2006 
Q 2597 2253 2423 2428 
Q 2250 2603 2003 2603 
z
M 2003 3006 
Q 2203 3006 2387 2929 
Q 2572 2853 2706 2709 
Q 2850 2569 2922 2390 
Q 2994 2212 2994 2006 
Q 2994 1594 2705 1308 
Q 2416 1022 1997 1022 
Q 1575 1022 1294 1303 
Q 1013 1584 1013 2006 
Q 1013 2425 1300 2715 
Q 1588 3006 2003 3006 
z
" transform="scale(0.015625)"/>
       <path id="DejaVuSans-41" d="M 2188 4044 
L 1331 1722 
L 3047 1722 
L 2188 4044 
z
M 1831 4666 
L 2547 4666 
L 4325 0 
L 3669 0 
L 3244 1197 
L 1141 1197 
L 716 0 
L 50 0 
L 1831 4666 
z
" transform="scale(0.015625)"/>
       <path id="DejaVuSans-5d" d="M 1947 4863 
L 1947 -844 
L 622 -844 
L 622 -397 
L 1369 -397 
L 1369 4416 
L 622 4416 
L 622 4863 
L 1947 4863 
z
" transform="scale(0.015625)"/>
      </defs>
      <use xlink:href="#DejaVuSans-57" transform="translate(0 0.390625)"/>
      <use xlink:href="#DejaVuSans-61" transform="translate(98.876953 0.390625)"/>
      <use xlink:href="#DejaVuSans-76" transform="translate(160.15625 0.390625)"/>
      <use xlink:href="#DejaVuSans-65" transform="translate(219.335938 0.390625)"/>
      <use xlink:href="#DejaVuSans-6c" transform="translate(280.859375 0.390625)"/>
      <use xlink:href="#DejaVuSans-65" transform="translate(308.642578 0.390625)"/>
      <use xlink:href="#DejaVuSans-6e" transform="translate(370.166016 0.390625)"/>
      <use xlink:href="#DejaVuSans-67" transform="translate(433.544922 0.390625)"/>
      <use xlink:href="#DejaVuSans-74" transform="translate(497.021484 0.390625)"/>
      <use xlink:href="#DejaVuSans-68" transform="translate(536.230469 0.390625)"/>
      <use xlink:href="#DejaVuSans-20" transform="translate(599.609375 0.390625)"/>
      <use xlink:href="#DejaVuSans-5b" transform="translate(631.396484 0.390625)"/>
      <use xlink:href="#DejaVuSans-2218" transform="translate(697.762207 77.96875) scale(0.49)"/>
      <use xlink:href="#DejaVuSans-41" transform="translate(670.410156 0.390625)"/>
      <use xlink:href="#DejaVuSans-5d" transform="translate(738.818359 0.390625)"/>
     </g>
    </g>
   </g>
   <g id="matplotlib.axis_2">
    <g id="ytick_1">
     <g id="line2d_9">
      <defs>
       <path id="mc5efa825af" d="M 0 0 
L -3.5 0 
" style="stroke: #000000; stroke-width: 0.8"/>
      </defs>
      <g>
       <use xlink:href="#mc5efa825af" x="45.503125" y="271.814437" style="stroke: #000000; stroke-width: 0.8"/>
      </g>
     </g>
     <g id="text_10">
      <!-- 0.0 -->
      <g transform="translate(22.6 275.613656) scale(0.1 -0.1)">
       <defs>
        <path id="DejaVuSans-2e" d="M 684 794 
L 1344 794 
L 1344 0 
L 684 0 
L 684 794 
z
" transform="scale(0.015625)"/>
       </defs>
       <use xlink:href="#DejaVuSans-30"/>
       <use xlink:href="#DejaVuSans-2e" transform="translate(63.623047 0)"/>
       <use xlink:href="#DejaVuSans-30" transform="translate(95.410156 0)"/>
      </g>
     </g>
    </g>
    <g id="ytick_2">
     <g id="line2d_10">
      <g>
       <use xlink:href="#mc5efa825af" x="45.503125" y="234.9475" style="stroke: #000000; stroke-width: 0.8"/>
      </g>
     </g>
     <g id="text_11">
      <!-- 0.5 -->
      <g transform="translate(22.6 238.746718) scale(0.1 -0.1)">
       <use xlink:href="#DejaVuSans-30"/>
       <use xlink:href="#DejaVuSans-2e" transform="translate(63.623047 0)"/>
       <use xlink:href="#DejaVuSans-35" transform="translate(95.410156 0)"/>
      </g>
     </g>
    </g>
    <g id="ytick_3">
     <g id="line2d_11">
      <g>
       <use xlink:href="#mc5efa825af" x="45.503125" y="198.080562" style="stroke: #000000; stroke-width: 0.8"/>
      </g>
     </g>
     <g id="text_12">
      <!-- 1.0 -->
      <g transform="translate(22.6 201.87978) scale(0.1 -0.1)">
       <use xlink:href="#DejaVuSans-31"/>
       <use xlink:href="#DejaVuSans-2e" transform="translate(63.623047 0)"/>
       <use xlink:href="#DejaVuSans-30" transform="translate(95.410156 0)"/>
      </g>
     </g>
    </g>
    <g id="ytick_4">
     <g id="line2d_12">
      <g>
       <use xlink:href="#mc5efa825af" x="45.503125" y="161.213624" style="stroke: #000000; stroke-width: 0.8"/>
      </g>
     </g>
     <g id="text_13">
      <!-- 1.5 -->
      <g transform="translate(22.6 165.012843) scale(0.1 -0.1)">
       <use xlink:href="#DejaVuSans-31"/>
       <use xlink:href="#DejaVuSans-2e" transform="translate(63.623047 0)"/>
       <use xlink:href="#DejaVuSans-35" transform="translate(95.410156 0)"/>
      </g>
     </g>
    </g>
    <g id="ytick_5">
     <g id="line2d_13">
      <g>
       <use xlink:href="#mc5efa825af" x="45.503125" y="124.346686" style="stroke: #000000; stroke-width: 0.8"/>
      </g>
     </g>
     <g id="text_14">
      <!-- 2.0 -->
      <g transform="translate(22.6 128.145905) scale(0.1 -0.1)">
       <use xlink:href="#DejaVuSans-32"/>
       <use xlink:href="#DejaVuSans-2e" transform="translate(63.623047 0)"/>
       <use xlink:href="#DejaVuSans-30" transform="translate(95.410156 0)"/>
      </g>
     </g>
    </g>
    <g id="ytick_6">
     <g id="line2d_14">
      <g>
       <use xlink:href="#mc5efa825af" x="45.503125" y="87.479748" style="stroke: #000000; stroke-width: 0.8"/>
      </g>
     </g>
     <g id="text_15">
      <!-- 2.5 -->
      <g transform="translate(22.6 91.278967) scale(0.1 -0.1)">
       <use xlink:href="#DejaVuSans-32"/>
       <use xlink:href="#DejaVuSans-2e" transform="translate(63.623047 0)"/>
       <use xlink:href="#DejaVuSans-35" transform="translate(95.410156 0)"/>
      </g>
     </g>
    </g>
    <g id="ytick_7">
     <g id="line2d_15">
      <g>
       <use xlink:href="#mc5efa825af" x="45.503125" y="50.61281" style="stroke: #000000; stroke-width: 0.8"/>
      </g>
     </g>
     <g id="text_16">
      <!-- 3.0 -->
      <g transform="translate(22.6 54.412029) scale(0.1 -0.1)">
       <defs>
        <path id="DejaVuSans-33" d="M 2597 2516 
Q 3050 2419 3304 2112 
Q 3559 1806 3559 1356 
Q 3559 666 3084 287 
Q 2609 -91 1734 -91 
Q 1441 -91 1130 -33 
Q 819 25 488 141 
L 488 750 
Q 750 597 1062 519 
Q 1375 441 1716 441 
Q 2309 441 2620 675 
Q 2931 909 2931 1356 
Q 2931 1769 2642 2001 
Q 2353 2234 1838 2234 
L 1294 2234 
L 1294 2753 
L 1863 2753 
Q 2328 2753 2575 2939 
Q 2822 3125 2822 3475 
Q 2822 3834 2567 4026 
Q 2313 4219 1838 4219 
Q 1578 4219 1281 4162 
Q 984 4106 628 3988 
L 628 4550 
Q 988 4650 1302 4700 
Q 1616 4750 1894 4750 
Q 2613 4750 3031 4423 
Q 3450 4097 3450 3541 
Q 3450 3153 3228 2886 
Q 3006 2619 2597 2516 
z
" transform="scale(0.015625)"/>
       </defs>
       <use xlink:href="#DejaVuSans-33"/>
       <use xlink:href="#DejaVuSans-2e" transform="translate(63.623047 0)"/>
       <use xlink:href="#DejaVuSans-30" transform="translate(95.410156 0)"/>
      </g>
     </g>
    </g>
    <g id="text_17">
     <!-- $L_\lambda$ [$\mathrm{erg s^{-1} \AA^{-1}}$] -->
     <g transform="translate(16.5 186.404437) rotate(-90) scale(0.1 -0.1)">
      <defs>
       <path id="DejaVuSans-Oblique-4c" d="M 1075 4666 
L 1709 4666 
L 909 525 
L 3181 525 
L 3078 0 
L 172 0 
L 1075 4666 
z
" transform="scale(0.015625)"/>
       <path id="DejaVuSans-Oblique-3bb" d="M 2350 4316 
L 3125 0 
L 2516 0 
L 2038 2588 
L 328 0 
L -281 0 
L 1903 3356 
L 1794 3975 
Q 1725 4369 1391 4369 
L 1091 4369 
L 1184 4863 
L 1550 4856 
Q 2253 4847 2350 4316 
z
" transform="scale(0.015625)"/>
       <path id="DejaVuSans-72" d="M 2631 2963 
Q 2534 3019 2420 3045 
Q 2306 3072 2169 3072 
Q 1681 3072 1420 2755 
Q 1159 2438 1159 1844 
L 1159 0 
L 581 0 
L 581 3500 
L 1159 3500 
L 1159 2956 
Q 1341 3275 1631 3429 
Q 1922 3584 2338 3584 
Q 2397 3584 2469 3576 
Q 2541 3569 2628 3553 
L 2631 2963 
z
" transform="scale(0.015625)"/>
       <path id="DejaVuSans-73" d="M 2834 3397 
L 2834 2853 
Q 2591 2978 2328 3040 
Q 2066 3103 1784 3103 
Q 1356 3103 1142 2972 
Q 928 2841 928 2578 
Q 928 2378 1081 2264 
Q 1234 2150 1697 2047 
L 1894 2003 
Q 2506 1872 2764 1633 
Q 3022 1394 3022 966 
Q 3022 478 2636 193 
Q 2250 -91 1575 -91 
Q 1294 -91 989 -36 
Q 684 19 347 128 
L 347 722 
Q 666 556 975 473 
Q 1284 391 1588 391 
Q 1994 391 2212 530 
Q 2431 669 2431 922 
Q 2431 1156 2273 1281 
Q 2116 1406 1581 1522 
L 1381 1569 
Q 847 1681 609 1914 
Q 372 2147 372 2553 
Q 372 3047 722 3315 
Q 1072 3584 1716 3584 
Q 2034 3584 2315 3537 
Q 2597 3491 2834 3397 
z
" transform="scale(0.015625)"/>
       <path id="DejaVuSans-2212" d="M 678 2272 
L 4684 2272 
L 4684 1741 
L 678 1741 
L 678 2272 
z
" transform="scale(0.015625)"/>
       <path id="DejaVuSans-c5" d="M 2663 5081 
Q 2663 5278 2523 5417 
Q 2384 5556 2188 5556 
Q 1988 5556 1852 5420 
Q 1716 5284 1716 5081 
Q 1716 4884 1853 4746 
Q 1991 4609 2188 4609 
Q 2384 4609 2523 4746 
Q 2663 4884 2663 5081 
z
M 2188 4044 
L 1338 1722 
L 3041 1722 
L 2188 4044 
z
M 1716 4366 
Q 1525 4494 1428 4673 
Q 1331 4853 1331 5081 
Q 1331 5441 1579 5691 
Q 1828 5941 2188 5941 
Q 2544 5941 2795 5689 
Q 3047 5438 3047 5081 
Q 3047 4863 2948 4678 
Q 2850 4494 2663 4366 
L 4325 0 
L 3669 0 
L 3244 1197 
L 1141 1197 
L 716 0 
L 50 0 
L 1716 4366 
z
" transform="scale(0.015625)"/>
      </defs>
      <use xlink:href="#DejaVuSans-Oblique-4c" transform="translate(0 0.171875)"/>
      <use xlink:href="#DejaVuSans-Oblique-3bb" transform="translate(55.712891 -16.234375) scale(0.7)"/>
      <use xlink:href="#DejaVuSans-20" transform="translate(99.873047 0.171875)"/>
      <use xlink:href="#DejaVuSans-5b" transform="translate(131.660156 0.171875)"/>
      <use xlink:href="#DejaVuSans-65" transform="translate(170.673828 0.171875)"/>
      <use xlink:href="#DejaVuSans-72" transform="translate(232.197266 0.171875)"/>
      <use xlink:href="#DejaVuSans-67" transform="translate(273.310547 0.171875)"/>
      <use xlink:href="#DejaVuSans-73" transform="translate(336.787109 0.171875)"/>
      <use xlink:href="#DejaVuSans-2212" transform="translate(389.84375 38.453125) scale(0.7)"/>
      <use xlink:href="#DejaVuSans-31" transform="translate(448.496094 38.453125) scale(0.7)"/>
      <use xlink:href="#DejaVuSans-c5" transform="translate(495.766602 0.171875)"/>
      <use xlink:href="#DejaVuSans-2212" transform="translate(565.131836 38.453125) scale(0.7)"/>
      <use xlink:href="#DejaVuSans-31" transform="translate(623.78418 38.453125) scale(0.7)"/>
      <use xlink:href="#DejaVuSans-5d" transform="translate(671.054688 0.171875)"/>
     </g>
    </g>
    <g id="text_18">
     <!-- 1e39 -->
     <g transform="translate(45.503125 14.798437) scale(0.1 -0.1)">
      <defs>
       <path id="DejaVuSans-39" d="M 703 97 
L 703 672 
Q 941 559 1184 500 
Q 1428 441 1663 441 
Q 2288 441 2617 861 
Q 2947 1281 2994 2138 
Q 2813 1869 2534 1725 
Q 2256 1581 1919 1581 
Q 1219 1581 811 2004 
Q 403 2428 403 3163 
Q 403 3881 828 4315 
Q 1253 4750 1959 4750 
Q 2769 4750 3195 4129 
Q 3622 3509 3622 2328 
Q 3622 1225 3098 567 
Q 2575 -91 1691 -91 
Q 1453 -91 1209 -44 
Q 966 3 703 97 
z
M 1959 2075 
Q 2384 2075 2632 2365 
Q 2881 2656 2881 3163 
Q 2881 3666 2632 3958 
Q 2384 4250 1959 4250 
Q 1534 4250 1286 3958 
Q 1038 3666 1038 3163 
Q 1038 2656 1286 2365 
Q 1534 2075 1959 2075 
z
" transform="scale(0.015625)"/>
      </defs>
      <use xlink:href="#DejaVuSans-31"/>
      <use xlink:href="#DejaVuSans-65" transform="translate(63.623047 0)"/>
      <use xlink:href="#DejaVuSans-33" transform="translate(125.146484 0)"/>
      <use xlink:href="#DejaVuSans-39" transform="translate(188.769531 0)"/>
     </g>
    </g>
   </g>
   <g id="line2d_16">
    <path d="M 386.390398 270.972583 
L 373.878372 270.460132 
L 362.250095 270.125901 
L 341.294971 270.414738 
L 331.821141 269.169124 
L 322.93364 268.653076 
L 314.57967 267.108964 
L 306.712588 267.557099 
L 299.291033 269.180304 
L 292.278202 267.425283 
L 285.641235 265.498007 
L 279.350702 264.719552 
L 273.38017 264.817049 
L 267.705827 268.349647 
L 262.306165 266.149119 
L 257.161711 267.508621 
L 252.254789 264.449763 
L 247.56932 265.293855 
L 243.090643 260.64783 
L 238.805363 259.448227 
L 234.701219 262.283536 
L 230.766963 263.386325 
L 226.99226 263.68169 
L 223.367598 261.074812 
L 219.884205 259.066224 
L 216.53398 254.39979 
L 213.309429 252.8286 
L 210.203612 257.524206 
L 207.210089 257.023214 
L 204.322878 259.301509 
L 201.536415 256.932015 
L 198.845516 258.338442 
L 196.245349 252.664585 
L 193.7314 253.398628 
L 191.299451 249.1029 
L 188.945554 249.460988 
L 186.666012 251.412682 
L 184.457355 242.875108 
L 182.316329 247.323384 
L 180.239873 250.515781 
L 178.225111 247.22224 
L 176.269332 254.929549 
L 174.369984 247.059965 
L 172.524659 243.505212 
L 170.731085 238.068043 
L 168.987115 241.899228 
L 167.29072 242.588105 
L 165.639978 240.280763 
L 164.033071 229.251176 
L 162.468276 233.114469 
L 160.94396 221.641427 
L 159.45857 232.730429 
L 158.010636 239.339561 
L 156.598758 211.692075 
L 155.221606 208.345262 
L 153.877914 235.101437 
L 152.566477 219.368339 
L 151.286148 233.33619 
L 150.035833 241.160558 
L 148.814488 240.669971 
L 147.621119 221.478508 
L 146.454775 226.962898 
L 145.314549 230.956307 
L 144.199572 239.996843 
L 143.109015 216.630168 
L 142.042085 179.127393 
L 140.998022 206.333721 
L 139.976099 196.780809 
L 138.975619 236.140609 
L 137.036343 220.254242 
L 136.096292 240.128538 
L 135.175172 227.030585 
L 134.272416 211.741479 
L 133.387481 222.917112 
L 132.519844 214.768857 
L 131.669003 188.206978 
L 130.834475 186.730989 
L 130.015795 218.940379 
L 129.212516 206.980442 
L 128.424207 230.789493 
L 126.890857 207.152687 
L 126.145031 172.924504 
L 125.412606 215.587358 
L 124.693223 210.855023 
L 123.986537 198.263884 
L 122.609934 158.488921 
L 121.939386 153.148036 
L 121.280268 205.945758 
L 120.632293 161.75705 
L 119.995179 186.211889 
L 119.368655 176.333888 
L 118.752461 191.561285 
L 118.146342 121.873888 
L 117.550053 188.925743 
L 116.963358 179.720285 
L 116.386025 190.655815 
L 115.817834 218.701055 
L 115.258569 188.555451 
L 114.708021 152.286867 
L 114.165987 150.537222 
L 113.632273 200.450684 
L 113.106686 209.797803 
L 112.589045 188.211036 
L 112.079169 138.073626 
L 111.082025 172.868667 
L 110.594426 221.460766 
L 110.113928 198.125704 
L 109.173627 219.309659 
L 108.713529 200.993681 
L 108.259942 193.825298 
L 107.812729 173.77378 
L 107.371757 72.821756 
L 106.936897 153.389903 
L 106.508021 183.054764 
L 105.667738 127.845701 
L 105.256095 125.782365 
L 104.849965 129.671461 
L 104.449239 107.884359 
L 104.05381 161.386429 
L 103.663573 124.090617 
L 103.278426 207.399072 
L 102.898271 135.220955 
L 102.523012 119.00841 
L 102.152553 123.509451 
L 101.786805 85.924694 
L 101.425677 165.765088 
L 101.069082 109.782872 
L 100.716936 179.080956 
L 100.025661 88.951559 
L 99.686373 158.981344 
L 99.351215 92.880341 
L 99.020111 172.956917 
L 98.692989 163.896537 
L 98.369777 127.245834 
L 97.734806 159.080857 
L 97.422914 167.514209 
L 97.114662 129.55345 
L 96.809988 119.531775 
L 96.50883 116.744525 
L 96.211127 116.211378 
L 95.91682 122.934652 
L 95.625852 196.683572 
L 95.338166 139.950613 
L 95.053706 138.818103 
L 94.772419 144.968043 
L 94.494252 116.548972 
L 94.219154 73.395422 
L 93.947073 185.310024 
L 93.677961 108.97507 
L 93.411768 131.287563 
L 93.148449 110.202527 
L 92.887956 104.991091 
L 92.630245 76.170045 
L 92.37527 111.64291 
L 92.122989 111.478545 
L 91.87336 88.311191 
L 91.62634 128.412079 
L 91.381889 82.321296 
L 91.139967 169.983772 
L 90.900534 182.172749 
L 90.663554 214.13878 
L 90.428988 213.071331 
L 90.196799 213.259999 
L 89.966953 214.04348 
L 89.739412 130.827874 
L 89.514143 164.371041 
L 89.291113 89.822899 
L 89.070287 100.652396 
L 88.851633 174.115607 
L 88.635119 135.526103 
L 88.420715 157.97281 
L 88.208389 29.894437 
L 87.998112 54.361144 
L 87.789853 116.834142 
L 87.583584 47.285455 
L 87.176903 99.264322 
L 86.976436 165.894056 
L 86.777848 136.01766 
L 86.581113 133.91482 
L 86.386206 175.005452 
L 86.193101 257.801035 
L 86.001773 229.580374 
L 85.812198 228.946582 
L 85.624352 271.814437 
L 85.253752 213.487343 
L 85.070952 226.80977 
L 84.88979 211.945159 
L 84.710243 226.43123 
L 84.532289 226.381049 
L 84.355908 162.637158 
L 84.18108 193.290091 
L 84.007782 160.240744 
L 83.835996 192.621544 
L 83.665702 142.931281 
L 83.49688 142.26206 
L 83.329511 126.056456 
L 83.163577 172.99561 
L 82.99906 122.476018 
L 82.674202 152.528362 
L 82.354797 236.977188 
L 82.197096 153.226709 
L 82.040708 202.351955 
L 81.885615 77.9375 
L 81.731803 164.306706 
L 81.579256 182.449423 
L 81.427957 164.578916 
L 81.277891 71.73375 
L 81.129044 161.611572 
L 80.981401 161.055516 
L 80.834947 84.832051 
L 80.545549 158.362506 
L 80.402577 119.406328 
L 80.260739 214.424751 
L 80.120021 119.023131 
L 79.980409 192.866036 
L 79.841891 115.226383 
L 79.704453 151.215572 
L 79.568084 94.677597 
L 79.432771 171.078704 
L 79.298501 91.149172 
L 78.901835 250.652237 
L 78.771621 251.627537 
L 78.642393 250.640996 
L 78.514138 165.761128 
L 78.386847 164.821146 
L 78.260509 163.018736 
L 78.135112 185.475009 
L 78.010646 161.747372 
L 77.887101 183.170598 
L 77.764467 137.941034 
L 77.401929 250.243942 
L 77.282839 86.706809 
L 77.164611 112.110103 
L 77.047236 227.141185 
L 76.930704 156.775113 
L 76.815006 177.550087 
L 76.700134 223.693 
L 76.472831 175.488012 
L 76.360383 223.569192 
L 76.248726 149.254014 
L 76.027752 222.031109 
L 75.918418 121.02132 
L 75.702019 246.140184 
L 75.594937 172.591993 
L 75.488591 194.861902 
L 75.382972 247.063184 
L 75.278073 221.51672 
L 75.173887 245.767136 
L 75.070407 194.978004 
L 74.967625 221.076285 
L 74.865535 165.410699 
L 74.764129 271.814437 
L 74.6634 165.082387 
L 74.563343 271.814437 
L 74.267128 216.163948 
L 73.976716 271.814437 
L 73.881172 132.056573 
L 73.691938 271.814437 
L 73.598235 156.933194 
L 73.229387 241.407533 
L 73.138637 181.137704 
L 72.958853 271.814437 
L 72.869808 241.897865 
L 72.693387 271.814437 
L 72.606 271.814437 
L 72.432847 177.228169 
L 72.261824 271.814437 
L 72.177098 207.800562 
L 72.092891 271.814437 
L 72.009196 107.644149 
L 71.926009 239.323744 
L 71.843326 105.52298 
L 71.598254 271.814437 
L 71.517541 172.652487 
L 71.437309 238.992243 
L 71.357554 237.236604 
L 71.199459 202.431675 
L 71.12111 236.591847 
L 70.96579 167.354608 
L 70.888811 235.69138 
L 70.736194 129.568034 
L 70.660548 271.814437 
L 70.585339 237.487009 
L 70.510563 167.311283 
L 70.436217 271.814437 
L 70.362296 234.916008 
L 70.288797 198.790629 
L 70.215717 235.373067 
L 70.143052 233.830257 
L 70.070797 158.572483 
L 69.998951 233.275031 
L 69.927509 195.985125 
L 69.856468 194.145424 
L 69.715576 271.814437 
L 69.645718 233.638506 
L 69.507163 271.814437 
L 69.438458 271.814437 
L 69.370132 235.632327 
L 69.302181 271.814437 
L 69.234602 234.478031 
L 69.167392 234.91103 
L 69.100548 271.814437 
L 69.034067 234.274042 
L 68.902182 271.814437 
L 68.836773 150.066899 
L 68.771714 230.901818 
L 68.642641 271.814437 
L 68.57862 189.726058 
L 68.514939 228.693771 
L 68.451595 185.445658 
L 68.388587 271.814437 
L 68.325911 229.12924 
L 68.263564 229.766375 
L 68.13985 271.814437 
L 68.078476 226.940563 
L 67.956686 271.814437 
L 67.896263 225.915603 
L 67.776352 271.814437 
L 67.25169 271.814437 
L 67.194858 225.851559 
L 67.082045 271.814437 
L 66.970354 271.814437 
L 66.859768 177.192469 
L 66.695926 271.814437 
L 66.641847 182.130535 
L 66.588032 271.814437 
L 66.534479 221.511568 
L 66.481187 271.814437 
L 66.063999 271.814437 
L 66.012967 222.248165 
L 65.962178 271.814437 
L 65.613291 271.814437 
L 65.564379 217.593734 
L 65.515694 271.814437 
L 64.411555 271.814437 
L 64.368075 209.870876 
L 64.324786 271.814437 
L 63.697491 271.814437 
L 63.657088 205.057419 
L 63.616856 271.814437 
L 63.418218 271.814437 
L 63.378988 204.290166 
L 63.339921 271.814437 
L 61.735852 271.814437 
L 61.735852 271.814437 
" clip-path="url(#pe59d229185)" style="fill: none; stroke: #1f77b4; stroke-width: 1.5; stroke-linecap: square"/>
   </g>
   <g id="patch_3">
    <path d="M 45.503125 283.910437 
L 45.503125 17.798437 
" style="fill: none; stroke: #000000; stroke-width: 0.8; stroke-linejoin: miter; stroke-linecap: square"/>
   </g>
   <g id="patch_4">
    <path d="M 402.623125 283.910437 
L 402.623125 17.798437 
" style="fill: none; stroke: #000000; stroke-width: 0.8; stroke-linejoin: miter; stroke-linecap: square"/>
   </g>
   <g id="patch_5">
    <path d="M 45.503125 283.910437 
L 402.623125 283.910437 
" style="fill: none; stroke: #000000; stroke-width: 0.8; stroke-linejoin: miter; stroke-linecap: square"/>
   </g>
   <g id="patch_6">
    <path d="M 45.503125 17.798437 
L 402.623125 17.798437 
" style="fill: none; stroke: #000000; stroke-width: 0.8; stroke-linejoin: miter; stroke-linecap: square"/>
   </g>
  </g>
 </g>
 <defs>
  <clipPath id="pe59d229185">
   <rect x="45.503125" y="17.798437" width="357.12" height="266.112"/>
  </clipPath>
 </defs>
</svg>
