<?xml version="1.0" encoding="utf-8" standalone="no"?>
<!DOCTYPE svg PUBLIC "-//W3C//DTD SVG 1.1//EN"
  "http://www.w3.org/Graphics/SVG/1.1/DTD/svg11.dtd">
<svg xmlns:xlink="http://www.w3.org/1999/xlink" width="614.6875pt" height="422.75625pt" viewBox="0 0 614.6875 422.75625" xmlns="http://www.w3.org/2000/svg" version="1.1">
 <metadata>
  <rdf:RDF xmlns:dc="http://purl.org/dc/elements/1.1/" xmlns:cc="http://creativecommons.org/ns#" xmlns:rdf="http://www.w3.org/1999/02/22-rdf-syntax-ns#">
   <cc:Work>
    <dc:type rdf:resource="http://purl.org/dc/dcmitype/StillImage"/>
    <dc:date>2026-01-28T05:05:08.256847</dc:date>
    <dc:format>image/svg+xml</dc:format>
    <dc:creator>
     <cc:Agent>
      <dc:title>Matplotlib v3.10.3, https://matplotlib.org/</dc:title>
     </cc:Agent>
    </dc:creator>
   </cc:Work>
  </rdf:RDF>
 </metadata>
 <defs>
  <style type="text/css">*{stroke-linejoin: round; stroke-linecap: butt}</style>
 </defs>
 <g id="figure_1">
  <g id="patch_1">
   <path d="M 0 422.75625 
L 614.6875 422.75625 
L 614.6875 0 
L 0 0 
z
" style="fill: #ffffff"/>
  </g>
  <g id="axes_1">
   <g id="patch_2">
    <path d="M 36.7625 382.678125 
L 594.7625 382.678125 
L 594.7625 22.318125 
L 36.7625 22.318125 
z
" style="fill: #ffffff"/>
   </g>
   <g id="matplotlib.axis_1">
    <g id="xtick_1">
     <g id="line2d_1">
      <defs>
       <path id="m8cf57a5123" d="M 0 0 
L 0 3.5 
" style="stroke: #000000; stroke-width: 0.8"/>
      </defs>
      <g>
       <use xlink:href="#m8cf57a5123" x="69.586029" y="382.678125" style="stroke: #000000; stroke-width: 0.8"/>
      </g>
     </g>
     <g id="text_1">
      <!-- 1000 -->
      <g transform="translate(56.861029 397.276562) scale(0.1 -0.1)">
       <defs>
        <path id="DejaVuSans-31" d="M 794 531 
L 1825 531 
L 1825 4091 
L 703 3866 
L 703 4441 
L 1819 4666 
L 2450 4666 
L 2450 531 
L 3481 531 
L 3481 0 
L 794 0 
L 794 531 
z
" transform="scale(0.015625)"/>
        <path id="DejaVuSans-30" d="M 2034 4250 
Q 1547 4250 1301 3770 
Q 1056 3291 1056 2328 
Q 1056 1369 1301 889 
Q 1547 409 2034 409 
Q 2525 409 2770 889 
Q 3016 1369 3016 2328 
Q 3016 3291 2770 3770 
Q 2525 4250 2034 4250 
z
M 2034 4750 
Q 2819 4750 3233 4129 
Q 3647 3509 3647 2328 
Q 3647 1150 3233 529 
Q 2819 -91 2034 -91 
Q 1250 -91 836 529 
Q 422 1150 422 2328 
Q 422 3509 836 4129 
Q 1250 4750 2034 4750 
z
" transform="scale(0.015625)"/>
       </defs>
       <use xlink:href="#DejaVuSans-31"/>
       <use xlink:href="#DejaVuSans-30" transform="translate(63.623047 0)"/>
       <use xlink:href="#DejaVuSans-30" transform="translate(127.246094 0)"/>
       <use xlink:href="#DejaVuSans-30" transform="translate(190.869141 0)"/>
      </g>
     </g>
    </g>
    <g id="xtick_2">
     <g id="line2d_2">
      <g>
       <use xlink:href="#m8cf57a5123" x="135.233088" y="382.678125" style="stroke: #000000; stroke-width: 0.8"/>
      </g>
     </g>
     <g id="text_2">
      <!-- 2000 -->
      <g transform="translate(122.508088 397.276562) scale(0.1 -0.1)">
       <defs>
        <path id="DejaVuSans-32" d="M 1228 531 
L 3431 531 
L 3431 0 
L 469 0 
L 469 531 
Q 828 903 1448 1529 
Q 2069 2156 2228 2338 
Q 2531 2678 2651 2914 
Q 2772 3150 2772 3378 
Q 2772 3750 2511 3984 
Q 2250 4219 1831 4219 
Q 1534 4219 1204 4116 
Q 875 4013 500 3803 
L 500 4441 
Q 881 4594 1212 4672 
Q 1544 4750 1819 4750 
Q 2544 4750 2975 4387 
Q 3406 4025 3406 3419 
Q 3406 3131 3298 2873 
Q 3191 2616 2906 2266 
Q 2828 2175 2409 1742 
Q 1991 1309 1228 531 
z
" transform="scale(0.015625)"/>
       </defs>
       <use xlink:href="#DejaVuSans-32"/>
       <use xlink:href="#DejaVuSans-30" transform="translate(63.623047 0)"/>
       <use xlink:href="#DejaVuSans-30" transform="translate(127.246094 0)"/>
       <use xlink:href="#DejaVuSans-30" transform="translate(190.869141 0)"/>
      </g>
     </g>
    </g>
    <g id="xtick_3">
     <g id="line2d_3">
      <g>
       <use xlink:href="#m8cf57a5123" x="200.880147" y="382.678125" style="stroke: #000000; stroke-width: 0.8"/>
      </g>
     </g>
     <g id="text_3">
      <!-- 3000 -->
      <g transform="translate(188.155147 397.276562) scale(0.1 -0.1)">
       <defs>
        <path id="DejaVuSans-33" d="M 2597 2516 
Q 3050 2419 3304 2112 
Q 3559 1806 3559 1356 
Q 3559 666 3084 287 
Q 2609 -91 1734 -91 
Q 1441 -91 1130 -33 
Q 819 25 488 141 
L 488 750 
Q 750 597 1062 519 
Q 1375 441 1716 441 
Q 2309 441 2620 675 
Q 2931 909 2931 1356 
Q 2931 1769 2642 2001 
Q 2353 2234 1838 2234 
L 1294 2234 
L 1294 2753 
L 1863 2753 
Q 2328 2753 2575 2939 
Q 2822 3125 2822 3475 
Q 2822 3834 2567 4026 
Q 2313 4219 1838 4219 
Q 1578 4219 1281 4162 
Q 984 4106 628 3988 
L 628 4550 
Q 988 4650 1302 4700 
Q 1616 4750 1894 4750 
Q 2613 4750 3031 4423 
Q 3450 4097 3450 3541 
Q 3450 3153 3228 2886 
Q 3006 2619 2597 2516 
z
" transform="scale(0.015625)"/>
       </defs>
       <use xlink:href="#DejaVuSans-33"/>
       <use xlink:href="#DejaVuSans-30" transform="translate(63.623047 0)"/>
       <use xlink:href="#DejaVuSans-30" transform="translate(127.246094 0)"/>
       <use xlink:href="#DejaVuSans-30" transform="translate(190.869141 0)"/>
      </g>
     </g>
    </g>
    <g id="xtick_4">
     <g id="line2d_4">
      <g>
       <use xlink:href="#m8cf57a5123" x="266.527206" y="382.678125" style="stroke: #000000; stroke-width: 0.8"/>
      </g>
     </g>
     <g id="text_4">
      <!-- 4000 -->
      <g transform="translate(253.802206 397.276562) scale(0.1 -0.1)">
       <defs>
        <path id="DejaVuSans-34" d="M 2419 4116 
L 825 1625 
L 2419 1625 
L 2419 4116 
z
M 2253 4666 
L 3047 4666 
L 3047 1625 
L 3713 1625 
L 3713 1100 
L 3047 1100 
L 3047 0 
L 2419 0 
L 2419 1100 
L 313 1100 
L 313 1709 
L 2253 4666 
z
" transform="scale(0.015625)"/>
       </defs>
       <use xlink:href="#DejaVuSans-34"/>
       <use xlink:href="#DejaVuSans-30" transform="translate(63.623047 0)"/>
       <use xlink:href="#DejaVuSans-30" transform="translate(127.246094 0)"/>
       <use xlink:href="#DejaVuSans-30" transform="translate(190.869141 0)"/>
      </g>
     </g>
    </g>
    <g id="xtick_5">
     <g id="line2d_5">
      <g>
       <use xlink:href="#m8cf57a5123" x="332.174265" y="382.678125" style="stroke: #000000; stroke-width: 0.8"/>
      </g>
     </g>
     <g id="text_5">
      <!-- 5000 -->
      <g transform="translate(319.449265 397.276562) scale(0.1 -0.1)">
       <defs>
        <path id="DejaVuSans-35" d="M 691 4666 
L 3169 4666 
L 3169 4134 
L 1269 4134 
L 1269 2991 
Q 1406 3038 1543 3061 
Q 1681 3084 1819 3084 
Q 2600 3084 3056 2656 
Q 3513 2228 3513 1497 
Q 3513 744 3044 326 
Q 2575 -91 1722 -91 
Q 1428 -91 1123 -41 
Q 819 9 494 109 
L 494 744 
Q 775 591 1075 516 
Q 1375 441 1709 441 
Q 2250 441 2565 725 
Q 2881 1009 2881 1497 
Q 2881 1984 2565 2268 
Q 2250 2553 1709 2553 
Q 1456 2553 1204 2497 
Q 953 2441 691 2322 
L 691 4666 
z
" transform="scale(0.015625)"/>
       </defs>
       <use xlink:href="#DejaVuSans-35"/>
       <use xlink:href="#DejaVuSans-30" transform="translate(63.623047 0)"/>
       <use xlink:href="#DejaVuSans-30" transform="translate(127.246094 0)"/>
       <use xlink:href="#DejaVuSans-30" transform="translate(190.869141 0)"/>
      </g>
     </g>
    </g>
    <g id="xtick_6">
     <g id="line2d_6">
      <g>
       <use xlink:href="#m8cf57a5123" x="397.821324" y="382.678125" style="stroke: #000000; stroke-width: 0.8"/>
      </g>
     </g>
     <g id="text_6">
      <!-- 6000 -->
      <g transform="translate(385.096324 397.276562) scale(0.1 -0.1)">
       <defs>
        <path id="DejaVuSans-36" d="M 2113 2584 
Q 1688 2584 1439 2293 
Q 1191 2003 1191 1497 
Q 1191 994 1439 701 
Q 1688 409 2113 409 
Q 2538 409 2786 701 
Q 3034 994 3034 1497 
Q 3034 2003 2786 2293 
Q 2538 2584 2113 2584 
z
M 3366 4563 
L 3366 3988 
Q 3128 4100 2886 4159 
Q 2644 4219 2406 4219 
Q 1781 4219 1451 3797 
Q 1122 3375 1075 2522 
Q 1259 2794 1537 2939 
Q 1816 3084 2150 3084 
Q 2853 3084 3261 2657 
Q 3669 2231 3669 1497 
Q 3669 778 3244 343 
Q 2819 -91 2113 -91 
Q 1303 -91 875 529 
Q 447 1150 447 2328 
Q 447 3434 972 4092 
Q 1497 4750 2381 4750 
Q 2619 4750 2861 4703 
Q 3103 4656 3366 4563 
z
" transform="scale(0.015625)"/>
       </defs>
       <use xlink:href="#DejaVuSans-36"/>
       <use xlink:href="#DejaVuSans-30" transform="translate(63.623047 0)"/>
       <use xlink:href="#DejaVuSans-30" transform="translate(127.246094 0)"/>
       <use xlink:href="#DejaVuSans-30" transform="translate(190.869141 0)"/>
      </g>
     </g>
    </g>
    <g id="xtick_7">
     <g id="line2d_7">
      <g>
       <use xlink:href="#m8cf57a5123" x="463.468382" y="382.678125" style="stroke: #000000; stroke-width: 0.8"/>
      </g>
     </g>
     <g id="text_7">
      <!-- 7000 -->
      <g transform="translate(450.743382 397.276562) scale(0.1 -0.1)">
       <defs>
        <path id="DejaVuSans-37" d="M 525 4666 
L 3525 4666 
L 3525 4397 
L 1831 0 
L 1172 0 
L 2766 4134 
L 525 4134 
L 525 4666 
z
" transform="scale(0.015625)"/>
       </defs>
       <use xlink:href="#DejaVuSans-37"/>
       <use xlink:href="#DejaVuSans-30" transform="translate(63.623047 0)"/>
       <use xlink:href="#DejaVuSans-30" transform="translate(127.246094 0)"/>
       <use xlink:href="#DejaVuSans-30" transform="translate(190.869141 0)"/>
      </g>
     </g>
    </g>
    <g id="xtick_8">
     <g id="line2d_8">
      <g>
       <use xlink:href="#m8cf57a5123" x="529.115441" y="382.678125" style="stroke: #000000; stroke-width: 0.8"/>
      </g>
     </g>
     <g id="text_8">
      <!-- 8000 -->
      <g transform="translate(516.390441 397.276562) scale(0.1 -0.1)">
       <defs>
        <path id="DejaVuSans-38" d="M 2034 2216 
Q 1584 2216 1326 1975 
Q 1069 1734 1069 1313 
Q 1069 891 1326 650 
Q 1584 409 2034 409 
Q 2484 409 2743 651 
Q 3003 894 3003 1313 
Q 3003 1734 2745 1975 
Q 2488 2216 2034 2216 
z
M 1403 2484 
Q 997 2584 770 2862 
Q 544 3141 544 3541 
Q 544 4100 942 4425 
Q 1341 4750 2034 4750 
Q 2731 4750 3128 4425 
Q 3525 4100 3525 3541 
Q 3525 3141 3298 2862 
Q 3072 2584 2669 2484 
Q 3125 2378 3379 2068 
Q 3634 1759 3634 1313 
Q 3634 634 3220 271 
Q 2806 -91 2034 -91 
Q 1263 -91 848 271 
Q 434 634 434 1313 
Q 434 1759 690 2068 
Q 947 2378 1403 2484 
z
M 1172 3481 
Q 1172 3119 1398 2916 
Q 1625 2713 2034 2713 
Q 2441 2713 2670 2916 
Q 2900 3119 2900 3481 
Q 2900 3844 2670 4047 
Q 2441 4250 2034 4250 
Q 1625 4250 1398 4047 
Q 1172 3844 1172 3481 
z
" transform="scale(0.015625)"/>
       </defs>
       <use xlink:href="#DejaVuSans-38"/>
       <use xlink:href="#DejaVuSans-30" transform="translate(63.623047 0)"/>
       <use xlink:href="#DejaVuSans-30" transform="translate(127.246094 0)"/>
       <use xlink:href="#DejaVuSans-30" transform="translate(190.869141 0)"/>
      </g>
     </g>
    </g>
    <g id="xtick_9">
     <g id="line2d_9">
      <g>
       <use xlink:href="#m8cf57a5123" x="594.7625" y="382.678125" style="stroke: #000000; stroke-width: 0.8"/>
      </g>
     </g>
     <g id="text_9">
      <!-- 9000 -->
      <g transform="translate(582.0375 397.276562) scale(0.1 -0.1)">
       <defs>
        <path id="DejaVuSans-39" d="M 703 97 
L 703 672 
Q 941 559 1184 500 
Q 1428 441 1663 441 
Q 2288 441 2617 861 
Q 2947 1281 2994 2138 
Q 2813 1869 2534 1725 
Q 2256 1581 1919 1581 
Q 1219 1581 811 2004 
Q 403 2428 403 3163 
Q 403 3881 828 4315 
Q 1253 4750 1959 4750 
Q 2769 4750 3195 4129 
Q 3622 3509 3622 2328 
Q 3622 1225 3098 567 
Q 2575 -91 1691 -91 
Q 1453 -91 1209 -44 
Q 966 3 703 97 
z
M 1959 2075 
Q 2384 2075 2632 2365 
Q 2881 2656 2881 3163 
Q 2881 3666 2632 3958 
Q 2384 4250 1959 4250 
Q 1534 4250 1286 3958 
Q 1038 3666 1038 3163 
Q 1038 2656 1286 2365 
Q 1534 2075 1959 2075 
z
" transform="scale(0.015625)"/>
       </defs>
       <use xlink:href="#DejaVuSans-39"/>
       <use xlink:href="#DejaVuSans-30" transform="translate(63.623047 0)"/>
       <use xlink:href="#DejaVuSans-30" transform="translate(127.246094 0)"/>
       <use xlink:href="#DejaVuSans-30" transform="translate(190.869141 0)"/>
      </g>
     </g>
    </g>
    <g id="text_10">
     <!-- $\text{Wavelength}\,[\mathrm{\mathring{A}}]$ -->
     <g transform="translate(277.6125 413.45625) scale(0.1 -0.1)">
      <defs>
       <path id="DejaVuSans-57" d="M 213 4666 
L 850 4666 
L 1831 722 
L 2809 4666 
L 3519 4666 
L 4500 722 
L 5478 4666 
L 6119 4666 
L 4947 0 
L 4153 0 
L 3169 4050 
L 2175 0 
L 1381 0 
L 213 4666 
z
" transform="scale(0.015625)"/>
       <path id="DejaVuSans-61" d="M 2194 1759 
Q 1497 1759 1228 1600 
Q 959 1441 959 1056 
Q 959 750 1161 570 
Q 1363 391 1709 391 
Q 2188 391 2477 730 
Q 2766 1069 2766 1631 
L 2766 1759 
L 2194 1759 
z
M 3341 1997 
L 3341 0 
L 2766 0 
L 2766 531 
Q 2569 213 2275 61 
Q 1981 -91 1556 -91 
Q 1019 -91 701 211 
Q 384 513 384 1019 
Q 384 1609 779 1909 
Q 1175 2209 1959 2209 
L 2766 2209 
L 2766 2266 
Q 2766 2663 2505 2880 
Q 2244 3097 1772 3097 
Q 1472 3097 1187 3025 
Q 903 2953 641 2809 
L 641 3341 
Q 956 3463 1253 3523 
Q 1550 3584 1831 3584 
Q 2591 3584 2966 3190 
Q 3341 2797 3341 1997 
z
" transform="scale(0.015625)"/>
       <path id="DejaVuSans-76" d="M 191 3500 
L 800 3500 
L 1894 563 
L 2988 3500 
L 3597 3500 
L 2284 0 
L 1503 0 
L 191 3500 
z
" transform="scale(0.015625)"/>
       <path id="DejaVuSans-65" d="M 3597 1894 
L 3597 1613 
L 953 1613 
Q 991 1019 1311 708 
Q 1631 397 2203 397 
Q 2534 397 2845 478 
Q 3156 559 3463 722 
L 3463 178 
Q 3153 47 2828 -22 
Q 2503 -91 2169 -91 
Q 1331 -91 842 396 
Q 353 884 353 1716 
Q 353 2575 817 3079 
Q 1281 3584 2069 3584 
Q 2775 3584 3186 3129 
Q 3597 2675 3597 1894 
z
M 3022 2063 
Q 3016 2534 2758 2815 
Q 2500 3097 2075 3097 
Q 1594 3097 1305 2825 
Q 1016 2553 972 2059 
L 3022 2063 
z
" transform="scale(0.015625)"/>
       <path id="DejaVuSans-6c" d="M 603 4863 
L 1178 4863 
L 1178 0 
L 603 0 
L 603 4863 
z
" transform="scale(0.015625)"/>
       <path id="DejaVuSans-6e" d="M 3513 2113 
L 3513 0 
L 2938 0 
L 2938 2094 
Q 2938 2591 2744 2837 
Q 2550 3084 2163 3084 
Q 1697 3084 1428 2787 
Q 1159 2491 1159 1978 
L 1159 0 
L 581 0 
L 581 3500 
L 1159 3500 
L 1159 2956 
Q 1366 3272 1645 3428 
Q 1925 3584 2291 3584 
Q 2894 3584 3203 3211 
Q 3513 2838 3513 2113 
z
" transform="scale(0.015625)"/>
       <path id="DejaVuSans-67" d="M 2906 1791 
Q 2906 2416 2648 2759 
Q 2391 3103 1925 3103 
Q 1463 3103 1205 2759 
Q 947 2416 947 1791 
Q 947 1169 1205 825 
Q 1463 481 1925 481 
Q 2391 481 2648 825 
Q 2906 1169 2906 1791 
z
M 3481 434 
Q 3481 -459 3084 -895 
Q 2688 -1331 1869 -1331 
Q 1566 -1331 1297 -1286 
Q 1028 -1241 775 -1147 
L 775 -588 
Q 1028 -725 1275 -790 
Q 1522 -856 1778 -856 
Q 2344 -856 2625 -561 
Q 2906 -266 2906 331 
L 2906 616 
Q 2728 306 2450 153 
Q 2172 0 1784 0 
Q 1141 0 747 490 
Q 353 981 353 1791 
Q 353 2603 747 3093 
Q 1141 3584 1784 3584 
Q 2172 3584 2450 3431 
Q 2728 3278 2906 2969 
L 2906 3500 
L 3481 3500 
L 3481 434 
z
" transform="scale(0.015625)"/>
       <path id="DejaVuSans-74" d="M 1172 4494 
L 1172 3500 
L 2356 3500 
L 2356 3053 
L 1172 3053 
L 1172 1153 
Q 1172 725 1289 603 
Q 1406 481 1766 481 
L 2356 481 
L 2356 0 
L 1766 0 
Q 1100 0 847 248 
Q 594 497 594 1153 
L 594 3053 
L 172 3053 
L 172 3500 
L 594 3500 
L 594 4494 
L 1172 4494 
z
" transform="scale(0.015625)"/>
       <path id="DejaVuSans-68" d="M 3513 2113 
L 3513 0 
L 2938 0 
L 2938 2094 
Q 2938 2591 2744 2837 
Q 2550 3084 2163 3084 
Q 1697 3084 1428 2787 
Q 1159 2491 1159 1978 
L 1159 0 
L 581 0 
L 581 4863 
L 1159 4863 
L 1159 2956 
Q 1366 3272 1645 3428 
Q 1925 3584 2291 3584 
Q 2894 3584 3203 3211 
Q 3513 2838 3513 2113 
z
" transform="scale(0.015625)"/>
       <path id="DejaVuSans-5b" d="M 550 4863 
L 1875 4863 
L 1875 4416 
L 1125 4416 
L 1125 -397 
L 1875 -397 
L 1875 -844 
L 550 -844 
L 550 4863 
z
" transform="scale(0.015625)"/>
       <path id="DejaVuSans-2218" d="M 2003 2603 
Q 1753 2603 1581 2429 
Q 1409 2256 1409 2006 
Q 1409 1759 1581 1589 
Q 1753 1419 2003 1419 
Q 2253 1419 2425 1589 
Q 2597 1759 2597 2006 
Q 2597 2253 2423 2428 
Q 2250 2603 2003 2603 
z
M 2003 3006 
Q 2203 3006 2387 2929 
Q 2572 2853 2706 2709 
Q 2850 2569 2922 2390 
Q 2994 2212 2994 2006 
Q 2994 1594 2705 1308 
Q 2416 1022 1997 1022 
Q 1575 1022 1294 1303 
Q 1013 1584 1013 2006 
Q 1013 2425 1300 2715 
Q 1588 3006 2003 3006 
z
" transform="scale(0.015625)"/>
       <path id="DejaVuSans-41" d="M 2188 4044 
L 1331 1722 
L 3047 1722 
L 2188 4044 
z
M 1831 4666 
L 2547 4666 
L 4325 0 
L 3669 0 
L 3244 1197 
L 1141 1197 
L 716 0 
L 50 0 
L 1831 4666 
z
" transform="scale(0.015625)"/>
       <path id="DejaVuSans-5d" d="M 1947 4863 
L 1947 -844 
L 622 -844 
L 622 -397 
L 1369 -397 
L 1369 4416 
L 622 4416 
L 622 4863 
L 1947 4863 
z
" transform="scale(0.015625)"/>
      </defs>
      <use xlink:href="#DejaVuSans-57" transform="translate(0 0.390625)"/>
      <use xlink:href="#DejaVuSans-61" transform="translate(98.876953 0.390625)"/>
      <use xlink:href="#DejaVuSans-76" transform="translate(160.15625 0.390625)"/>
      <use xlink:href="#DejaVuSans-65" transform="translate(219.335938 0.390625)"/>
      <use xlink:href="#DejaVuSans-6c" transform="translate(280.859375 0.390625)"/>
      <use xlink:href="#DejaVuSans-65" transform="translate(308.642578 0.390625)"/>
      <use xlink:href="#DejaVuSans-6e" transform="translate(370.166016 0.390625)"/>
      <use xlink:href="#DejaVuSans-67" transform="translate(433.544922 0.390625)"/>
      <use xlink:href="#DejaVuSans-74" transform="translate(497.021484 0.390625)"/>
      <use xlink:href="#DejaVuSans-68" transform="translate(536.230469 0.390625)"/>
      <use xlink:href="#DejaVuSans-5b" transform="translate(615.845051 0.390625)"/>
      <use xlink:href="#DejaVuSans-2218" transform="translate(682.210774 77.96875) scale(0.49)"/>
      <use xlink:href="#DejaVuSans-41" transform="translate(654.858723 0.390625)"/>
      <use xlink:href="#DejaVuSans-5d" transform="translate(723.266926 0.390625)"/>
     </g>
    </g>
   </g>
   <g id="matplotlib.axis_2">
    <g id="ytick_1">
     <g id="line2d_10">
      <defs>
       <path id="m4180a14de3" d="M 0 0 
L -3.5 0 
" style="stroke: #000000; stroke-width: 0.8"/>
      </defs>
      <g>
       <use xlink:href="#m4180a14de3" x="36.7625" y="366.298151" style="stroke: #000000; stroke-width: 0.8"/>
      </g>
     </g>
     <g id="text_11">
      <!-- 0 -->
      <g transform="translate(23.4 370.09737) scale(0.1 -0.1)">
       <use xlink:href="#DejaVuSans-30"/>
      </g>
     </g>
    </g>
    <g id="ytick_2">
     <g id="line2d_11">
      <g>
       <use xlink:href="#m4180a14de3" x="36.7625" y="289.920333" style="stroke: #000000; stroke-width: 0.8"/>
      </g>
     </g>
     <g id="text_12">
      <!-- 1 -->
      <g transform="translate(23.4 293.719552) scale(0.1 -0.1)">
       <use xlink:href="#DejaVuSans-31"/>
      </g>
     </g>
    </g>
    <g id="ytick_3">
     <g id="line2d_12">
      <g>
       <use xlink:href="#m4180a14de3" x="36.7625" y="213.542516" style="stroke: #000000; stroke-width: 0.8"/>
      </g>
     </g>
     <g id="text_13">
      <!-- 2 -->
      <g transform="translate(23.4 217.341735) scale(0.1 -0.1)">
       <use xlink:href="#DejaVuSans-32"/>
      </g>
     </g>
    </g>
    <g id="ytick_4">
     <g id="line2d_13">
      <g>
       <use xlink:href="#m4180a14de3" x="36.7625" y="137.164698" style="stroke: #000000; stroke-width: 0.8"/>
      </g>
     </g>
     <g id="text_14">
      <!-- 3 -->
      <g transform="translate(23.4 140.963917) scale(0.1 -0.1)">
       <use xlink:href="#DejaVuSans-33"/>
      </g>
     </g>
    </g>
    <g id="ytick_5">
     <g id="line2d_14">
      <g>
       <use xlink:href="#m4180a14de3" x="36.7625" y="60.786881" style="stroke: #000000; stroke-width: 0.8"/>
      </g>
     </g>
     <g id="text_15">
      <!-- 4 -->
      <g transform="translate(23.4 64.586099) scale(0.1 -0.1)">
       <use xlink:href="#DejaVuSans-34"/>
      </g>
     </g>
    </g>
    <g id="text_16">
     <!-- $\text{Luminosity density}\,[\mathrm{erg\,s^{-1}\,\mathring{A}^{-1}}]$ -->
     <g transform="translate(17.3 281.148125) rotate(-90) scale(0.1 -0.1)">
      <defs>
       <path id="DejaVuSans-4c" d="M 628 4666 
L 1259 4666 
L 1259 531 
L 3531 531 
L 3531 0 
L 628 0 
L 628 4666 
z
" transform="scale(0.015625)"/>
       <path id="DejaVuSans-75" d="M 544 1381 
L 544 3500 
L 1119 3500 
L 1119 1403 
Q 1119 906 1312 657 
Q 1506 409 1894 409 
Q 2359 409 2629 706 
Q 2900 1003 2900 1516 
L 2900 3500 
L 3475 3500 
L 3475 0 
L 2900 0 
L 2900 538 
Q 2691 219 2414 64 
Q 2138 -91 1772 -91 
Q 1169 -91 856 284 
Q 544 659 544 1381 
z
M 1991 3584 
L 1991 3584 
z
" transform="scale(0.015625)"/>
       <path id="DejaVuSans-6d" d="M 3328 2828 
Q 3544 3216 3844 3400 
Q 4144 3584 4550 3584 
Q 5097 3584 5394 3201 
Q 5691 2819 5691 2113 
L 5691 0 
L 5113 0 
L 5113 2094 
Q 5113 2597 4934 2840 
Q 4756 3084 4391 3084 
Q 3944 3084 3684 2787 
Q 3425 2491 3425 1978 
L 3425 0 
L 2847 0 
L 2847 2094 
Q 2847 2600 2669 2842 
Q 2491 3084 2119 3084 
Q 1678 3084 1418 2786 
Q 1159 2488 1159 1978 
L 1159 0 
L 581 0 
L 581 3500 
L 1159 3500 
L 1159 2956 
Q 1356 3278 1631 3431 
Q 1906 3584 2284 3584 
Q 2666 3584 2933 3390 
Q 3200 3197 3328 2828 
z
" transform="scale(0.015625)"/>
       <path id="DejaVuSans-69" d="M 603 3500 
L 1178 3500 
L 1178 0 
L 603 0 
L 603 3500 
z
M 603 4863 
L 1178 4863 
L 1178 4134 
L 603 4134 
L 603 4863 
z
" transform="scale(0.015625)"/>
       <path id="DejaVuSans-6f" d="M 1959 3097 
Q 1497 3097 1228 2736 
Q 959 2375 959 1747 
Q 959 1119 1226 758 
Q 1494 397 1959 397 
Q 2419 397 2687 759 
Q 2956 1122 2956 1747 
Q 2956 2369 2687 2733 
Q 2419 3097 1959 3097 
z
M 1959 3584 
Q 2709 3584 3137 3096 
Q 3566 2609 3566 1747 
Q 3566 888 3137 398 
Q 2709 -91 1959 -91 
Q 1206 -91 779 398 
Q 353 888 353 1747 
Q 353 2609 779 3096 
Q 1206 3584 1959 3584 
z
" transform="scale(0.015625)"/>
       <path id="DejaVuSans-73" d="M 2834 3397 
L 2834 2853 
Q 2591 2978 2328 3040 
Q 2066 3103 1784 3103 
Q 1356 3103 1142 2972 
Q 928 2841 928 2578 
Q 928 2378 1081 2264 
Q 1234 2150 1697 2047 
L 1894 2003 
Q 2506 1872 2764 1633 
Q 3022 1394 3022 966 
Q 3022 478 2636 193 
Q 2250 -91 1575 -91 
Q 1294 -91 989 -36 
Q 684 19 347 128 
L 347 722 
Q 666 556 975 473 
Q 1284 391 1588 391 
Q 1994 391 2212 530 
Q 2431 669 2431 922 
Q 2431 1156 2273 1281 
Q 2116 1406 1581 1522 
L 1381 1569 
Q 847 1681 609 1914 
Q 372 2147 372 2553 
Q 372 3047 722 3315 
Q 1072 3584 1716 3584 
Q 2034 3584 2315 3537 
Q 2597 3491 2834 3397 
z
" transform="scale(0.015625)"/>
       <path id="DejaVuSans-79" d="M 2059 -325 
Q 1816 -950 1584 -1140 
Q 1353 -1331 966 -1331 
L 506 -1331 
L 506 -850 
L 844 -850 
Q 1081 -850 1212 -737 
Q 1344 -625 1503 -206 
L 1606 56 
L 191 3500 
L 800 3500 
L 1894 763 
L 2988 3500 
L 3597 3500 
L 2059 -325 
z
" transform="scale(0.015625)"/>
       <path id="DejaVuSans-20" transform="scale(0.015625)"/>
       <path id="DejaVuSans-64" d="M 2906 2969 
L 2906 4863 
L 3481 4863 
L 3481 0 
L 2906 0 
L 2906 525 
Q 2725 213 2448 61 
Q 2172 -91 1784 -91 
Q 1150 -91 751 415 
Q 353 922 353 1747 
Q 353 2572 751 3078 
Q 1150 3584 1784 3584 
Q 2172 3584 2448 3432 
Q 2725 3281 2906 2969 
z
M 947 1747 
Q 947 1113 1208 752 
Q 1469 391 1925 391 
Q 2381 391 2643 752 
Q 2906 1113 2906 1747 
Q 2906 2381 2643 2742 
Q 2381 3103 1925 3103 
Q 1469 3103 1208 2742 
Q 947 2381 947 1747 
z
" transform="scale(0.015625)"/>
       <path id="DejaVuSans-72" d="M 2631 2963 
Q 2534 3019 2420 3045 
Q 2306 3072 2169 3072 
Q 1681 3072 1420 2755 
Q 1159 2438 1159 1844 
L 1159 0 
L 581 0 
L 581 3500 
L 1159 3500 
L 1159 2956 
Q 1341 3275 1631 3429 
Q 1922 3584 2338 3584 
Q 2397 3584 2469 3576 
Q 2541 3569 2628 3553 
L 2631 2963 
z
" transform="scale(0.015625)"/>
       <path id="DejaVuSans-2212" d="M 678 2272 
L 4684 2272 
L 4684 1741 
L 678 1741 
L 678 2272 
z
" transform="scale(0.015625)"/>
      </defs>
      <use xlink:href="#DejaVuSans-4c" transform="translate(0 0.390625)"/>
      <use xlink:href="#DejaVuSans-75" transform="translate(55.712891 0.390625)"/>
      <use xlink:href="#DejaVuSans-6d" transform="translate(119.091797 0.390625)"/>
      <use xlink:href="#DejaVuSans-69" transform="translate(216.503906 0.390625)"/>
      <use xlink:href="#DejaVuSans-6e" transform="translate(244.287109 0.390625)"/>
      <use xlink:href="#DejaVuSans-6f" transform="translate(307.666016 0.390625)"/>
      <use xlink:href="#DejaVuSans-73" transform="translate(368.847656 0.390625)"/>
      <use xlink:href="#DejaVuSans-69" transform="translate(420.947266 0.390625)"/>
      <use xlink:href="#DejaVuSans-74" transform="translate(448.730469 0.390625)"/>
      <use xlink:href="#DejaVuSans-79" transform="translate(487.939453 0.390625)"/>
      <use xlink:href="#DejaVuSans-20" transform="translate(547.119141 0.390625)"/>
      <use xlink:href="#DejaVuSans-64" transform="translate(578.90625 0.390625)"/>
      <use xlink:href="#DejaVuSans-65" transform="translate(642.382812 0.390625)"/>
      <use xlink:href="#DejaVuSans-6e" transform="translate(703.90625 0.390625)"/>
      <use xlink:href="#DejaVuSans-73" transform="translate(767.285156 0.390625)"/>
      <use xlink:href="#DejaVuSans-69" transform="translate(819.384766 0.390625)"/>
      <use xlink:href="#DejaVuSans-74" transform="translate(847.167969 0.390625)"/>
      <use xlink:href="#DejaVuSans-79" transform="translate(886.376953 0.390625)"/>
      <use xlink:href="#DejaVuSans-5b" transform="translate(961.792317 0.390625)"/>
      <use xlink:href="#DejaVuSans-65" transform="translate(1000.805989 0.390625)"/>
      <use xlink:href="#DejaVuSans-72" transform="translate(1062.329426 0.390625)"/>
      <use xlink:href="#DejaVuSans-67" transform="translate(1103.442708 0.390625)"/>
      <use xlink:href="#DejaVuSans-73" transform="translate(1183.154946 0.390625)"/>
      <use xlink:href="#DejaVuSans-2212" transform="translate(1236.211587 38.671875) scale(0.7)"/>
      <use xlink:href="#DejaVuSans-31" transform="translate(1294.863931 38.671875) scale(0.7)"/>
      <use xlink:href="#DejaVuSans-2218" transform="translate(1385.722166 77.96875) scale(0.49)"/>
      <use xlink:href="#DejaVuSans-41" transform="translate(1358.370115 0.390625)"/>
      <use xlink:href="#DejaVuSans-2212" transform="translate(1427.735349 38.671875) scale(0.7)"/>
      <use xlink:href="#DejaVuSans-31" transform="translate(1486.387693 38.671875) scale(0.7)"/>
      <use xlink:href="#DejaVuSans-5d" transform="translate(1533.658201 0.390625)"/>
     </g>
    </g>
    <g id="text_17">
     <!-- 1e39 -->
     <g transform="translate(36.7625 19.318125) scale(0.1 -0.1)">
      <use xlink:href="#DejaVuSans-31"/>
      <use xlink:href="#DejaVuSans-65" transform="translate(63.623047 0)"/>
      <use xlink:href="#DejaVuSans-33" transform="translate(125.146484 0)"/>
      <use xlink:href="#DejaVuSans-39" transform="translate(188.769531 0)"/>
     </g>
    </g>
   </g>
   <g id="line2d_15">
    <path d="M 615.6875 347.189248 
L 613.362094 347.178333 
L 610.070348 347.34037 
L 606.813971 347.687393 
L 603.592397 348.262117 
L 599.350143 349.058265 
L 596.207636 348.418407 
L 593.098125 348.234153 
L 591.043195 347.255952 
L 586.97604 345.002899 
L 584.963521 344.115455 
L 582.964848 343.510134 
L 572.213372 341.639288 
L 564.641557 340.459459 
L 560.010792 340.108963 
L 557.268866 340.138341 
L 554.553849 340.272153 
L 551.865344 340.305528 
L 547.442376 339.642417 
L 543.955084 339.363108 
L 542.228166 338.562663 
L 539.6584 337.784055 
L 534.591778 336.846942 
L 531.266939 336.434065 
L 529.620095 336.197095 
L 527.983505 335.72139 
L 523.936268 334.694259 
L 519.951066 333.672403 
L 515.248721 332.968788 
L 508.35373 332.385791 
L 506.846687 332.215062 
L 500.907507 331.0973 
L 500.174958 330.867997 
L 499.444566 330.414699 
L 497.990213 329.838142 
L 495.106969 329.050879 
L 492.257183 328.339874 
L 488.043973 327.331711 
L 483.902844 326.751235 
L 481.858735 326.231308 
L 477.822309 325.258923 
L 473.198478 324.009265 
L 451.965306 317.3941 
L 449.592946 316.793589 
L 444.922807 315.449241 
L 442.053351 314.377052 
L 439.784534 313.738896 
L 436.425029 312.834667 
L 434.213984 312.353103 
L 432.025432 311.53184 
L 429.320852 310.419537 
L 421.926674 306.376576 
L 420.375527 305.751882 
L 419.861034 305.690177 
L 418.83585 305.94574 
L 418.325152 306.158327 
L 417.307517 306.958639 
L 416.294868 308.090953 
L 415.287168 309.622673 
L 414.284381 311.391489 
L 412.789335 314.545385 
L 409.342903 322.674391 
L 408.368855 324.655846 
L 407.399476 326.156701 
L 406.916527 326.811544 
L 406.434733 326.597512 
L 405.954089 325.700365 
L 404.996238 322.916684 
L 404.04294 318.833353 
L 402.149876 309.734251 
L 401.210046 306.294703 
L 400.274641 303.608301 
L 399.343631 301.72644 
L 397.955289 299.555249 
L 397.035131 298.393485 
L 396.119261 297.558897 
L 394.75343 296.716795 
L 393.848149 296.446949 
L 392.947052 296.41127 
L 389.383933 296.99346 
L 388.503329 296.865823 
L 385.45265 296.264557 
L 384.589897 296.050531 
L 382.876045 295.428083 
L 382.024894 295.07816 
L 379.494227 289.733993 
L 378.658183 288.658767 
L 377.825853 288.283462 
L 376.997212 288.245869 
L 376.172237 288.582429 
L 375.350902 289.239177 
L 374.533183 290.071923 
L 373.313334 291.824714 
L 372.10149 294.06008 
L 370.498013 297.798856 
L 369.304541 301.339986 
L 366.940761 308.727915 
L 366.549768 309.104926 
L 366.159617 308.953628 
L 365.770304 308.52558 
L 364.994184 307.183704 
L 363.451889 304.149696 
L 362.685672 303.296252 
L 361.922714 302.854747 
L 360.784342 300.880655 
L 358.903061 295.095576 
L 357.412257 292.614291 
L 357.041511 292.425066 
L 356.671542 292.364148 
L 355.933924 292.553188 
L 354.833264 293.003725 
L 354.103306 293.504499 
L 353.739465 293.827927 
L 352.652465 294.350765 
L 352.291631 294.638826 
L 351.572199 294.564995 
L 351.213596 294.610092 
L 350.498605 295.35733 
L 350.142213 295.811656 
L 349.786553 295.942182 
L 349.431623 295.734454 
L 348.723943 295.573597 
L 347.317247 290.873115 
L 346.269734 285.761048 
L 345.574935 283.184016 
L 344.882952 281.472731 
L 344.53801 280.785062 
L 343.850216 280.084216 
L 343.50736 279.919243 
L 343.165194 279.915084 
L 342.482928 280.162291 
L 342.142823 280.415803 
L 341.803401 280.291223 
L 341.464659 279.471751 
L 340.116458 277.759039 
L 339.781089 277.060109 
L 338.778984 275.949713 
L 337.782842 275.831219 
L 337.122033 275.991987 
L 336.135711 276.512795 
L 334.504753 278.117589 
L 334.180482 278.444499 
L 333.533844 279.431905 
L 332.889733 278.18902 
L 331.928273 275.630519 
L 331.609034 275.171107 
L 331.290416 274.919133 
L 330.972417 274.980924 
L 330.655035 275.164362 
L 330.338269 275.509599 
L 329.706575 276.690987 
L 328.450495 280.105617 
L 326.584432 285.356918 
L 325.967171 286.080595 
L 325.659425 286.309287 
L 324.739708 287.897773 
L 323.825233 290.055022 
L 323.521566 290.045052 
L 322.614013 285.016781 
L 321.112826 275.337751 
L 320.516304 272.378962 
L 319.922022 269.544753 
L 319.03477 266.337812 
L 318.446031 265.056296 
L 317.859489 264.481642 
L 317.567037 264.34691 
L 316.983766 264.489197 
L 316.692943 264.661083 
L 316.40266 264.97282 
L 315.246896 265.297173 
L 314.672215 263.750343 
L 314.099651 262.115031 
L 313.529194 260.983191 
L 312.960831 260.253694 
L 312.394551 259.47352 
L 311.549011 257.960835 
L 310.987889 257.257666 
L 310.428811 256.838182 
L 309.316739 255.184832 
L 308.763724 254.007921 
L 308.487967 253.183403 
L 307.937946 250.04158 
L 306.028423 239.626557 
L 305.217379 237.061937 
L 304.679099 235.735261 
L 303.875274 234.388879 
L 303.075736 233.356165 
L 302.280449 232.286444 
L 301.489379 231.68848 
L 301.22662 231.790448 
L 300.702493 232.790302 
L 300.180211 234.504823 
L 299.659764 236.848668 
L 298.882512 241.320536 
L 297.340203 252.496117 
L 296.320927 262.306146 
L 294.805223 279.807881 
L 293.056644 300.915716 
L 292.560904 304.068324 
L 292.313672 304.595354 
L 292.066862 304.608131 
L 291.820475 304.15172 
L 291.574509 303.198036 
L 291.083835 299.883742 
L 290.350955 292.274787 
L 289.379581 278.387606 
L 287.934812 256.101156 
L 286.979731 245.188756 
L 286.504596 241.363089 
L 285.794876 238.089186 
L 285.559094 237.308643 
L 285.088712 236.860277 
L 284.619898 237.06602 
L 284.152646 237.813888 
L 283.686947 238.539617 
L 283.222793 239.12133 
L 282.760176 240.14748 
L 281.610313 244.057466 
L 280.469895 249.248613 
L 278.888957 256.217407 
L 278.664583 256.684265 
L 278.216933 257.058947 
L 277.770738 256.555785 
L 275.780698 250.64167 
L 275.342389 250.022857 
L 274.035901 247.668639 
L 272.527473 244.611472 
L 271.247881 241.357537 
L 270.612647 240.043517 
L 269.980424 239.233499 
L 269.560605 239.181017 
L 268.933355 239.356909 
L 267.894496 238.96068 
L 267.27508 238.250369 
L 267.069254 237.785358 
L 265.028552 227.463264 
L 263.618792 208.944265 
L 263.019259 204.486648 
L 262.621106 203.101898 
L 262.224174 202.407348 
L 261.828459 202.243718 
L 261.040656 202.599748 
L 260.844457 202.850607 
L 260.452955 203.98133 
L 259.479401 208.391134 
L 257.363379 222.067463 
L 254.720415 244.433652 
L 254.53374 244.589463 
L 254.347343 244.915478 
L 254.161222 244.824451 
L 253.604517 245.647702 
L 252.866086 249.519673 
L 252.68216 250.879676 
L 252.498506 250.998416 
L 252.315122 250.93842 
L 252.13201 250.309248 
L 251.038977 244.675689 
L 250.67677 244.417057 
L 249.95553 245.744906 
L 249.417362 248.242734 
L 248.881543 251.872347 
L 247.99369 258.5308 
L 247.640349 258.326335 
L 247.112251 255.058914 
L 246.411671 250.283687 
L 245.888879 247.252509 
L 245.022551 244.070817 
L 244.677754 243.228141 
L 244.333942 240.95288 
L 243.820062 236.115371 
L 242.968459 224.137637 
L 241.786324 207.219891 
L 241.116053 200.832028 
L 240.615824 197.672577 
L 239.456788 192.944305 
L 237.010968 186.665711 
L 236.688692 186.228935 
L 236.367305 186.00177 
L 235.727188 186.010626 
L 235.408449 186.065559 
L 234.615425 185.531865 
L 233.201591 184.500475 
L 232.423591 184.109823 
L 231.496933 182.717902 
L 230.883325 182.297433 
L 230.425287 181.122388 
L 228.761515 176.524724 
L 227.864265 174.890802 
L 225.214976 170.876094 
L 224.490151 169.914078 
L 223.626605 168.403721 
L 221.356533 165.124214 
L 220.796327 164.713303 
L 220.100115 164.385965 
L 219.27054 164.27225 
L 218.721018 164.153319 
L 218.310713 164.023518 
L 216.954282 164.164906 
L 216.550694 163.800145 
L 215.881435 162.960099 
L 215.349053 162.365748 
L 214.423793 161.634824 
L 214.160919 161.605467 
L 213.115955 160.672575 
L 212.081328 160.555909 
L 211.567843 160.603649 
L 210.929539 161.174083 
L 210.295148 161.961145 
L 208.913083 163.446654 
L 208.539363 162.69207 
L 208.290972 161.604221 
L 206.813204 149.43231 
L 206.082306 143.339436 
L 205.839842 142.665506 
L 205.597959 142.834713 
L 205.356655 143.451589 
L 204.875775 145.068339 
L 204.636196 144.761052 
L 204.277895 146.166751 
L 203.920872 149.121783 
L 203.092745 159.583935 
L 202.505413 171.813014 
L 201.688944 194.699233 
L 200.649013 230.987407 
L 199.392744 274.191765 
L 199.052905 277.992429 
L 198.939888 278.368283 
L 198.827002 278.334435 
L 198.714246 277.975462 
L 198.489126 276.036438 
L 198.152419 270.643595 
L 197.705286 259.059083 
L 197.149256 238.802018 
L 195.391211 167.238918 
L 194.848365 154.785785 
L 194.200999 146.119088 
L 193.558008 140.886738 
L 193.025493 139.536769 
L 192.813323 139.576812 
L 192.60163 139.528133 
L 192.495961 139.479624 
L 192.39041 139.608391 
L 192.179662 139.405317 
L 191.550239 138.381985 
L 190.92501 136.302959 
L 189.789516 131.436107 
L 189.584542 129.949099 
L 188.870682 115.065733 
L 188.465221 108.078502 
L 187.960888 103.372215 
L 187.559403 100.715051 
L 186.960449 94.107831 
L 186.761665 93.464205 
L 186.563312 93.654157 
L 186.464297 93.83192 
L 186.167895 95.542003 
L 185.774186 99.455818 
L 185.186803 108.459165 
L 184.409504 124.543293 
L 183.638843 145.593282 
L 182.969894 169.059068 
L 182.117099 206.062666 
L 180.528234 277.625239 
L 180.158493 282.322892 
L 179.882202 283.790411 
L 179.698489 283.929887 
L 179.515159 283.243112 
L 179.332211 281.806366 
L 178.967456 276.323751 
L 178.604215 267.228776 
L 178.062172 247.140426 
L 177.166205 201.444015 
L 175.489024 110.501098 
L 175.140063 100.033726 
L 172.062152 51.973922 
L 171.143634 42.015006 
L 170.81211 40.105535 
L 170.317283 38.910575 
L 170.152992 38.698125 
L 169.907163 38.780336 
L 169.66206 40.279149 
L 169.25516 44.842439 
L 168.850253 50.612494 
L 168.286704 61.708054 
L 167.408868 87.606396 
L 166.618933 120.360614 
L 164.370699 218.664948 
L 162.183758 299.074849 
L 161.590917 309.847989 
L 161.075813 315.035974 
L 160.782977 316.305444 
L 160.49123 316.661109 
L 160.345763 316.647477 
L 160.128069 316.174627 
L 159.83875 314.254843 
L 159.694493 313.077094 
L 159.478607 313.983398 
L 159.335015 313.962999 
L 159.263318 313.909332 
L 159.120123 313.471807 
L 158.905825 310.88933 
L 158.692118 305.145287 
L 158.195753 272.365656 
L 157.562229 220.909653 
L 156.864389 155.801744 
L 156.794953 155.90188 
L 156.035304 156.917735 
L 155.692499 157.280565 
L 154.471094 159.120859 
L 153.53462 160.506919 
L 153.070739 160.134588 
L 152.413021 160.580359 
L 151.891008 160.945083 
L 150.729796 161.438714 
L 150.029096 162.124492 
L 149.902414 162.180475 
L 149.397876 161.819653 
L 149.146913 161.98759 
L 148.399193 163.417789 
L 147.904976 164.919391 
L 147.475302 166.232865 
L 146.684103 168.336444 
L 145.127586 172.580468 
L 144.655465 172.969242 
L 144.537927 172.89686 
L 144.30344 172.696177 
L 144.069734 172.632235 
L 143.778694 172.690277 
L 142.912781 172.9266 
L 142.569411 172.71283 
L 141.887737 172.627719 
L 140.544304 171.723025 
L 139.937269 172.133349 
L 139.663125 172.619671 
L 139.226785 174.097812 
L 138.739243 178.029495 
L 138.148111 184.936988 
L 136.718896 208.501037 
L 136.093414 219.362194 
L 135.012884 235.158041 
L 134.910897 234.33791 
L 134.55519 226.868687 
L 133.399921 205.181697 
L 133.1019 203.175076 
L 132.805248 202.620326 
L 132.657432 202.56242 
L 132.559076 202.550624 
L 132.509955 202.494272 
L 132.460871 202.537235 
L 132.167152 202.863278 
L 131.583725 204.058707 
L 131.438696 204.155768 
L 131.293997 202.943483 
L 130.909734 199.521184 
L 130.623054 198.255965 
L 130.100824 197.054869 
L 129.770731 196.764091 
L 129.022682 196.555053 
L 128.6058 196.628698 
L 128.283474 196.231818 
L 127.643797 195.326287 
L 126.87584 193.685859 
L 126.02874 192.816246 
L 125.675549 193.838083 
L 125.324396 195.901017 
L 124.49847 203.653227 
L 123.982599 210.421739 
L 123.174772 227.207655 
L 122.461139 246.539206 
L 122.003912 258.13572 
L 121.83852 259.212653 
L 121.797245 259.19344 
L 121.673592 259.850608 
L 121.550198 260.523817 
L 121.263282 264.824146 
L 120.937088 273.966719 
L 119.969299 305.108804 
L 119.531059 310.601091 
L 119.293412 311.797541 
L 119.174954 311.91189 
L 118.430336 309.417616 
L 118.391412 309.688349 
L 118.119683 311.602646 
L 117.92638 314.127667 
L 116.89375 326.12889 
L 116.553685 327.287125 
L 116.440785 327.160623 
L 116.328111 326.783905 
L 116.103438 325.01828 
L 115.879662 321.765784 
L 115.471716 311.3201 
L 114.84707 288.968867 
L 114.301694 272.594965 
L 113.94108 268.355759 
L 113.72584 267.593236 
L 113.333415 266.248562 
L 113.226876 266.298408 
L 113.049771 267.052483 
L 112.312159 272.54128 
L 112.138004 273.748996 
L 112.103241 273.719249 
L 111.791369 267.562284 
L 111.275561 258.179042 
L 110.968438 255.754296 
L 110.663067 254.540212 
L 110.292194 253.904629 
L 109.823885 253.740567 
L 109.326681 253.482368 
L 108.768798 252.892255 
L 107.734531 251.505289 
L 107.415494 251.080682 
L 107.03523 250.320447 
L 106.220837 248.2385 
L 105.756821 246.784722 
L 105.266488 245.205934 
L 104.419675 241.954984 
L 104.299856 241.241905 
L 103.675464 237.282953 
L 103.41024 237.287396 
L 103.234206 237.743238 
L 102.942196 240.066159 
L 102.594044 242.310659 
L 102.565142 242.307398 
L 102.190948 244.621696 
L 101.962083 248.271566 
L 101.64913 256.349852 
L 101.141311 275.283295 
L 100.722144 298.421127 
L 100.113864 333.280747 
L 99.730742 342.702386 
L 99.458947 344.999855 
L 99.377709 345.031948 
L 99.35066 344.990091 
L 99.215646 344.388231 
L 98.919957 341.122586 
L 98.572864 334.608873 
L 98.043801 318.216191 
L 96.440656 263.534835 
L 96.187186 260.80436 
L 95.960248 260.122729 
L 95.909968 260.160756 
L 95.7094 261.498166 
L 95.261303 267.020329 
L 93.894791 289.046193 
L 93.488012 299.107524 
L 92.872946 324.208982 
L 92.428792 339.075151 
L 91.966029 347.352518 
L 91.667819 349.411757 
L 91.371624 350.239436 
L 91.258234 350.036597 
L 90.987295 349.072128 
L 90.606331 347.045615 
L 90.561731 346.989722 
L 90.405991 346.216244 
L 89.920148 340.917383 
L 88.94319 325.61764 
L 88.28299 313.637687 
L 87.946238 308.717401 
L 87.157127 301.44884 
L 87.054399 301.412892 
L 86.951924 301.786793 
L 86.849702 302.816314 
L 86.585098 308.346148 
L 86.181297 323.569573 
L 85.642384 340.56815 
L 85.18885 349.327583 
L 84.876306 351.886632 
L 84.585472 352.594424 
L 84.546852 352.528229 
L 84.488992 352.317925 
L 84.105366 350.978248 
L 84.086281 350.986157 
L 83.99099 350.677123 
L 83.91492 350.320483 
L 83.255428 346.38592 
L 83.236745 346.595107 
L 82.772517 350.931843 
L 82.551612 351.208534 
L 82.514915 351.256819 
L 82.313692 350.894854 
L 82.204368 350.733449 
L 82.186177 350.750376 
L 82.113497 350.634984 
L 81.447556 347.774314 
L 81.109976 345.719033 
L 80.70524 343.399994 
L 80.548018 342.418433 
L 80.478348 342.625244 
L 80.097418 343.233359 
L 80.045767 343.318666 
L 80.028565 343.272934 
L 79.891232 343.412917 
L 79.856976 343.366363 
L 79.805651 343.480351 
L 79.499147 344.247561 
L 78.248264 357.231191 
L 77.872916 359.698238 
L 77.856682 359.77844 
L 77.775622 359.683131 
L 76.895549 357.629641 
L 76.863942 357.485497 
L 76.816582 357.79153 
L 76.393094 359.799086 
L 76.051652 360.639137 
L 75.882135 360.721967 
L 75.652256 360.728571 
L 75.48461 360.682964 
L 75.227056 360.601965 
L 75.151657 360.587736 
L 75.121542 360.551343 
L 74.89649 360.464792 
L 74.4654 360.206602 
L 74.068723 359.787178 
L 73.966608 359.921554 
L 73.792244 360.130201 
L 73.777753 360.121408 
L 73.403082 359.920208 
L 72.792179 358.84675 
L 72.7781 358.858405 
L 72.693745 359.073281 
L 72.400125 360.617655 
L 71.834035 361.524575 
L 71.574863 361.590394 
L 71.344643 361.634222 
L 71.062409 362.258011 
L 70.610436 363.219487 
L 70.597235 363.212695 
L 70.373612 363.148899 
L 69.930837 363.147071 
L 69.596206 362.731473 
L 69.391961 362.597199 
L 69.06276 362.131491 
L 69.037574 362.118247 
L 68.98726 362.203853 
L 68.662107 362.500348 
L 68.340188 362.504943 
L 68.204953 362.475384 
L 67.948349 362.473322 
L 67.717943 363.002054 
L 67.333618 363.818991 
L 67.119463 364.03424 
L 66.567043 364.254677 
L 66.311769 364.216604 
L 66.196422 364.173113 
L 65.967004 363.994076 
L 65.693924 364.063741 
L 65.423237 364.111898 
L 65.177184 364.241266 
L 65.010547 364.330081 
L 64.093886 364.076033 
L 63.751878 363.985384 
L 63.235651 363.390426 
L 63.204335 363.467356 
L 62.95499 363.945291 
L 62.656482 364.347802 
L 62.421874 364.554417 
L 62.239571 364.529734 
L 62.018294 364.45289 
L 61.838494 364.439482 
L 61.669703 364.446622 
L 61.393828 364.268328 
L 61.033299 364.26687 
L 60.753869 364.853249 
L 60.562747 364.961352 
L 59.178374 365.473416 
L 58.225265 365.632999 
L 57.981259 365.573883 
L 56.851557 365.390694 
L 56.619717 365.456676 
L 56.153979 365.854084 
L 55.688448 366.090326 
L 55.411519 366.145356 
L 55.067556 366.192526 
L 52.867969 365.944356 
L 52.662606 365.966738 
L 50.661027 365.661144 
L 50.467304 365.782141 
L 50.313479 366.003728 
L 50.097293 366.155209 
L 46.97028 366.255351 
L 46.197852 366.292804 
L 41.929716 366.284123 
L 36.765701 366.298125 
L 36.765701 366.298125 
" clip-path="url(#p12e4926284)" style="fill: none; stroke: #1f77b4; stroke-width: 1.5; stroke-linecap: square"/>
   </g>
   <g id="patch_3">
    <path d="M 36.7625 382.678125 
L 36.7625 22.318125 
" style="fill: none; stroke: #000000; stroke-width: 0.8; stroke-linejoin: miter; stroke-linecap: square"/>
   </g>
   <g id="patch_4">
    <path d="M 594.7625 382.678125 
L 594.7625 22.318125 
" style="fill: none; stroke: #000000; stroke-width: 0.8; stroke-linejoin: miter; stroke-linecap: square"/>
   </g>
   <g id="patch_5">
    <path d="M 36.7625 382.678125 
L 594.7625 382.678125 
" style="fill: none; stroke: #000000; stroke-width: 0.8; stroke-linejoin: miter; stroke-linecap: square"/>
   </g>
   <g id="patch_6">
    <path d="M 36.7625 22.318125 
L 594.7625 22.318125 
" style="fill: none; stroke: #000000; stroke-width: 0.8; stroke-linejoin: miter; stroke-linecap: square"/>
   </g>
   <g id="text_18">
    <!-- TARDIS example model spectrum -->
    <g transform="translate(215.467812 16.318125) scale(0.12 -0.12)">
     <defs>
      <path id="DejaVuSans-54" d="M -19 4666 
L 3928 4666 
L 3928 4134 
L 2272 4134 
L 2272 0 
L 1638 0 
L 1638 4134 
L -19 4134 
L -19 4666 
z
" transform="scale(0.015625)"/>
      <path id="DejaVuSans-52" d="M 2841 2188 
Q 3044 2119 3236 1894 
Q 3428 1669 3622 1275 
L 4263 0 
L 3584 0 
L 2988 1197 
Q 2756 1666 2539 1819 
Q 2322 1972 1947 1972 
L 1259 1972 
L 1259 0 
L 628 0 
L 628 4666 
L 2053 4666 
Q 2853 4666 3247 4331 
Q 3641 3997 3641 3322 
Q 3641 2881 3436 2590 
Q 3231 2300 2841 2188 
z
M 1259 4147 
L 1259 2491 
L 2053 2491 
Q 2509 2491 2742 2702 
Q 2975 2913 2975 3322 
Q 2975 3731 2742 3939 
Q 2509 4147 2053 4147 
L 1259 4147 
z
" transform="scale(0.015625)"/>
      <path id="DejaVuSans-44" d="M 1259 4147 
L 1259 519 
L 2022 519 
Q 2988 519 3436 956 
Q 3884 1394 3884 2338 
Q 3884 3275 3436 3711 
Q 2988 4147 2022 4147 
L 1259 4147 
z
M 628 4666 
L 1925 4666 
Q 3281 4666 3915 4102 
Q 4550 3538 4550 2338 
Q 4550 1131 3912 565 
Q 3275 0 1925 0 
L 628 0 
L 628 4666 
z
" transform="scale(0.015625)"/>
      <path id="DejaVuSans-49" d="M 628 4666 
L 1259 4666 
L 1259 0 
L 628 0 
L 628 4666 
z
" transform="scale(0.015625)"/>
      <path id="DejaVuSans-53" d="M 3425 4513 
L 3425 3897 
Q 3066 4069 2747 4153 
Q 2428 4238 2131 4238 
Q 1616 4238 1336 4038 
Q 1056 3838 1056 3469 
Q 1056 3159 1242 3001 
Q 1428 2844 1947 2747 
L 2328 2669 
Q 3034 2534 3370 2195 
Q 3706 1856 3706 1288 
Q 3706 609 3251 259 
Q 2797 -91 1919 -91 
Q 1588 -91 1214 -16 
Q 841 59 441 206 
L 441 856 
Q 825 641 1194 531 
Q 1563 422 1919 422 
Q 2459 422 2753 634 
Q 3047 847 3047 1241 
Q 3047 1584 2836 1778 
Q 2625 1972 2144 2069 
L 1759 2144 
Q 1053 2284 737 2584 
Q 422 2884 422 3419 
Q 422 4038 858 4394 
Q 1294 4750 2059 4750 
Q 2388 4750 2728 4690 
Q 3069 4631 3425 4513 
z
" transform="scale(0.015625)"/>
      <path id="DejaVuSans-78" d="M 3513 3500 
L 2247 1797 
L 3578 0 
L 2900 0 
L 1881 1375 
L 863 0 
L 184 0 
L 1544 1831 
L 300 3500 
L 978 3500 
L 1906 2253 
L 2834 3500 
L 3513 3500 
z
" transform="scale(0.015625)"/>
      <path id="DejaVuSans-70" d="M 1159 525 
L 1159 -1331 
L 581 -1331 
L 581 3500 
L 1159 3500 
L 1159 2969 
Q 1341 3281 1617 3432 
Q 1894 3584 2278 3584 
Q 2916 3584 3314 3078 
Q 3713 2572 3713 1747 
Q 3713 922 3314 415 
Q 2916 -91 2278 -91 
Q 1894 -91 1617 61 
Q 1341 213 1159 525 
z
M 3116 1747 
Q 3116 2381 2855 2742 
Q 2594 3103 2138 3103 
Q 1681 3103 1420 2742 
Q 1159 2381 1159 1747 
Q 1159 1113 1420 752 
Q 1681 391 2138 391 
Q 2594 391 2855 752 
Q 3116 1113 3116 1747 
z
" transform="scale(0.015625)"/>
      <path id="DejaVuSans-63" d="M 3122 3366 
L 3122 2828 
Q 2878 2963 2633 3030 
Q 2388 3097 2138 3097 
Q 1578 3097 1268 2742 
Q 959 2388 959 1747 
Q 959 1106 1268 751 
Q 1578 397 2138 397 
Q 2388 397 2633 464 
Q 2878 531 3122 666 
L 3122 134 
Q 2881 22 2623 -34 
Q 2366 -91 2075 -91 
Q 1284 -91 818 406 
Q 353 903 353 1747 
Q 353 2603 823 3093 
Q 1294 3584 2113 3584 
Q 2378 3584 2631 3529 
Q 2884 3475 3122 3366 
z
" transform="scale(0.015625)"/>
     </defs>
     <use xlink:href="#DejaVuSans-54"/>
     <use xlink:href="#DejaVuSans-41" transform="translate(53.333984 0)"/>
     <use xlink:href="#DejaVuSans-52" transform="translate(121.742188 0)"/>
     <use xlink:href="#DejaVuSans-44" transform="translate(191.224609 0)"/>
     <use xlink:href="#DejaVuSans-49" transform="translate(268.226562 0)"/>
     <use xlink:href="#DejaVuSans-53" transform="translate(297.71875 0)"/>
     <use xlink:href="#DejaVuSans-20" transform="translate(361.195312 0)"/>
     <use xlink:href="#DejaVuSans-65" transform="translate(392.982422 0)"/>
     <use xlink:href="#DejaVuSans-78" transform="translate(452.755859 0)"/>
     <use xlink:href="#DejaVuSans-61" transform="translate(511.935547 0)"/>
     <use xlink:href="#DejaVuSans-6d" transform="translate(573.214844 0)"/>
     <use xlink:href="#DejaVuSans-70" transform="translate(670.626953 0)"/>
     <use xlink:href="#DejaVuSans-6c" transform="translate(734.103516 0)"/>
     <use xlink:href="#DejaVuSans-65" transform="translate(761.886719 0)"/>
     <use xlink:href="#DejaVuSans-20" transform="translate(823.410156 0)"/>
     <use xlink:href="#DejaVuSans-6d" transform="translate(855.197266 0)"/>
     <use xlink:href="#DejaVuSans-6f" transform="translate(952.609375 0)"/>
     <use xlink:href="#DejaVuSans-64" transform="translate(1013.791016 0)"/>
     <use xlink:href="#DejaVuSans-65" transform="translate(1077.267578 0)"/>
     <use xlink:href="#DejaVuSans-6c" transform="translate(1138.791016 0)"/>
     <use xlink:href="#DejaVuSans-20" transform="translate(1166.574219 0)"/>
     <use xlink:href="#DejaVuSans-73" transform="translate(1198.361328 0)"/>
     <use xlink:href="#DejaVuSans-70" transform="translate(1250.460938 0)"/>
     <use xlink:href="#DejaVuSans-65" transform="translate(1313.9375 0)"/>
     <use xlink:href="#DejaVuSans-63" transform="translate(1375.460938 0)"/>
     <use xlink:href="#DejaVuSans-74" transform="translate(1430.441406 0)"/>
     <use xlink:href="#DejaVuSans-72" transform="translate(1469.650391 0)"/>
     <use xlink:href="#DejaVuSans-75" transform="translate(1510.763672 0)"/>
     <use xlink:href="#DejaVuSans-6d" transform="translate(1574.142578 0)"/>
    </g>
   </g>
   <g id="legend_1">
    <g id="patch_7">
     <path d="M 479.939062 44.99625 
L 587.7625 44.99625 
Q 589.7625 44.99625 589.7625 42.99625 
L 589.7625 29.318125 
Q 589.7625 27.318125 587.7625 27.318125 
L 479.939062 27.318125 
Q 477.939062 27.318125 477.939062 29.318125 
L 477.939062 42.99625 
Q 477.939062 44.99625 479.939062 44.99625 
z
" style="fill: #ffffff; opacity: 0.8; stroke: #cccccc; stroke-linejoin: miter"/>
    </g>
    <g id="line2d_16">
     <path d="M 481.939062 35.416563 
L 491.939062 35.416563 
L 501.939062 35.416563 
" style="fill: none; stroke: #1f77b4; stroke-width: 1.5; stroke-linecap: square"/>
    </g>
    <g id="text_19">
     <!-- Formal integral -->
     <g transform="translate(509.939062 38.916563) scale(0.1 -0.1)">
      <defs>
       <path id="DejaVuSans-46" d="M 628 4666 
L 3309 4666 
L 3309 4134 
L 1259 4134 
L 1259 2759 
L 3109 2759 
L 3109 2228 
L 1259 2228 
L 1259 0 
L 628 0 
L 628 4666 
z
" transform="scale(0.015625)"/>
      </defs>
      <use xlink:href="#DejaVuSans-46"/>
      <use xlink:href="#DejaVuSans-6f" transform="translate(53.894531 0)"/>
      <use xlink:href="#DejaVuSans-72" transform="translate(115.076172 0)"/>
      <use xlink:href="#DejaVuSans-6d" transform="translate(154.439453 0)"/>
      <use xlink:href="#DejaVuSans-61" transform="translate(251.851562 0)"/>
      <use xlink:href="#DejaVuSans-6c" transform="translate(313.130859 0)"/>
      <use xlink:href="#DejaVuSans-20" transform="translate(340.914062 0)"/>
      <use xlink:href="#DejaVuSans-69" transform="translate(372.701172 0)"/>
      <use xlink:href="#DejaVuSans-6e" transform="translate(400.484375 0)"/>
      <use xlink:href="#DejaVuSans-74" transform="translate(463.863281 0)"/>
      <use xlink:href="#DejaVuSans-65" transform="translate(503.072266 0)"/>
      <use xlink:href="#DejaVuSans-67" transform="translate(564.595703 0)"/>
      <use xlink:href="#DejaVuSans-72" transform="translate(628.072266 0)"/>
      <use xlink:href="#DejaVuSans-61" transform="translate(669.185547 0)"/>
      <use xlink:href="#DejaVuSans-6c" transform="translate(730.464844 0)"/>
     </g>
    </g>
   </g>
  </g>
 </g>
 <defs>
  <clipPath id="p12e4926284">
   <rect x="36.7625" y="22.318125" width="558" height="360.36"/>
  </clipPath>
 </defs>
</svg>
