<?xml version="1.0" encoding="utf-8" standalone="no"?>
<!DOCTYPE svg PUBLIC "-//W3C//DTD SVG 1.1//EN"
  "http://www.w3.org/Graphics/SVG/1.1/DTD/svg11.dtd">
<svg xmlns:xlink="http://www.w3.org/1999/xlink" width="614.6875pt" height="422.75625pt" viewBox="0 0 614.6875 422.75625" xmlns="http://www.w3.org/2000/svg" version="1.1">
 <metadata>
  <rdf:RDF xmlns:dc="http://purl.org/dc/elements/1.1/" xmlns:cc="http://creativecommons.org/ns#" xmlns:rdf="http://www.w3.org/1999/02/22-rdf-syntax-ns#">
   <cc:Work>
    <dc:type rdf:resource="http://purl.org/dc/dcmitype/StillImage"/>
    <dc:date>2025-08-05T20:34:42.084629</dc:date>
    <dc:format>image/svg+xml</dc:format>
    <dc:creator>
     <cc:Agent>
      <dc:title>Matplotlib v3.10.3, https://matplotlib.org/</dc:title>
     </cc:Agent>
    </dc:creator>
   </cc:Work>
  </rdf:RDF>
 </metadata>
 <defs>
  <style type="text/css">*{stroke-linejoin: round; stroke-linecap: butt}</style>
 </defs>
 <g id="figure_1">
  <g id="patch_1">
   <path d="M 0 422.75625 
L 614.6875 422.75625 
L 614.6875 0 
L 0 0 
z
" style="fill: #ffffff"/>
  </g>
  <g id="axes_1">
   <g id="patch_2">
    <path d="M 36.7625 382.678125 
L 594.7625 382.678125 
L 594.7625 22.318125 
L 36.7625 22.318125 
z
" style="fill: #ffffff"/>
   </g>
   <g id="matplotlib.axis_1">
    <g id="xtick_1">
     <g id="line2d_1">
      <defs>
       <path id="m29e4cdcffc" d="M 0 0 
L 0 3.5 
" style="stroke: #000000; stroke-width: 0.8"/>
      </defs>
      <g>
       <use xlink:href="#m29e4cdcffc" x="69.586029" y="382.678125" style="stroke: #000000; stroke-width: 0.8"/>
      </g>
     </g>
     <g id="text_1">
      <!-- 1000 -->
      <g transform="translate(56.861029 397.276562) scale(0.1 -0.1)">
       <defs>
        <path id="DejaVuSans-31" d="M 794 531 
L 1825 531 
L 1825 4091 
L 703 3866 
L 703 4441 
L 1819 4666 
L 2450 4666 
L 2450 531 
L 3481 531 
L 3481 0 
L 794 0 
L 794 531 
z
" transform="scale(0.015625)"/>
        <path id="DejaVuSans-30" d="M 2034 4250 
Q 1547 4250 1301 3770 
Q 1056 3291 1056 2328 
Q 1056 1369 1301 889 
Q 1547 409 2034 409 
Q 2525 409 2770 889 
Q 3016 1369 3016 2328 
Q 3016 3291 2770 3770 
Q 2525 4250 2034 4250 
z
M 2034 4750 
Q 2819 4750 3233 4129 
Q 3647 3509 3647 2328 
Q 3647 1150 3233 529 
Q 2819 -91 2034 -91 
Q 1250 -91 836 529 
Q 422 1150 422 2328 
Q 422 3509 836 4129 
Q 1250 4750 2034 4750 
z
" transform="scale(0.015625)"/>
       </defs>
       <use xlink:href="#DejaVuSans-31"/>
       <use xlink:href="#DejaVuSans-30" transform="translate(63.623047 0)"/>
       <use xlink:href="#DejaVuSans-30" transform="translate(127.246094 0)"/>
       <use xlink:href="#DejaVuSans-30" transform="translate(190.869141 0)"/>
      </g>
     </g>
    </g>
    <g id="xtick_2">
     <g id="line2d_2">
      <g>
       <use xlink:href="#m29e4cdcffc" x="135.233088" y="382.678125" style="stroke: #000000; stroke-width: 0.8"/>
      </g>
     </g>
     <g id="text_2">
      <!-- 2000 -->
      <g transform="translate(122.508088 397.276562) scale(0.1 -0.1)">
       <defs>
        <path id="DejaVuSans-32" d="M 1228 531 
L 3431 531 
L 3431 0 
L 469 0 
L 469 531 
Q 828 903 1448 1529 
Q 2069 2156 2228 2338 
Q 2531 2678 2651 2914 
Q 2772 3150 2772 3378 
Q 2772 3750 2511 3984 
Q 2250 4219 1831 4219 
Q 1534 4219 1204 4116 
Q 875 4013 500 3803 
L 500 4441 
Q 881 4594 1212 4672 
Q 1544 4750 1819 4750 
Q 2544 4750 2975 4387 
Q 3406 4025 3406 3419 
Q 3406 3131 3298 2873 
Q 3191 2616 2906 2266 
Q 2828 2175 2409 1742 
Q 1991 1309 1228 531 
z
" transform="scale(0.015625)"/>
       </defs>
       <use xlink:href="#DejaVuSans-32"/>
       <use xlink:href="#DejaVuSans-30" transform="translate(63.623047 0)"/>
       <use xlink:href="#DejaVuSans-30" transform="translate(127.246094 0)"/>
       <use xlink:href="#DejaVuSans-30" transform="translate(190.869141 0)"/>
      </g>
     </g>
    </g>
    <g id="xtick_3">
     <g id="line2d_3">
      <g>
       <use xlink:href="#m29e4cdcffc" x="200.880147" y="382.678125" style="stroke: #000000; stroke-width: 0.8"/>
      </g>
     </g>
     <g id="text_3">
      <!-- 3000 -->
      <g transform="translate(188.155147 397.276562) scale(0.1 -0.1)">
       <defs>
        <path id="DejaVuSans-33" d="M 2597 2516 
Q 3050 2419 3304 2112 
Q 3559 1806 3559 1356 
Q 3559 666 3084 287 
Q 2609 -91 1734 -91 
Q 1441 -91 1130 -33 
Q 819 25 488 141 
L 488 750 
Q 750 597 1062 519 
Q 1375 441 1716 441 
Q 2309 441 2620 675 
Q 2931 909 2931 1356 
Q 2931 1769 2642 2001 
Q 2353 2234 1838 2234 
L 1294 2234 
L 1294 2753 
L 1863 2753 
Q 2328 2753 2575 2939 
Q 2822 3125 2822 3475 
Q 2822 3834 2567 4026 
Q 2313 4219 1838 4219 
Q 1578 4219 1281 4162 
Q 984 4106 628 3988 
L 628 4550 
Q 988 4650 1302 4700 
Q 1616 4750 1894 4750 
Q 2613 4750 3031 4423 
Q 3450 4097 3450 3541 
Q 3450 3153 3228 2886 
Q 3006 2619 2597 2516 
z
" transform="scale(0.015625)"/>
       </defs>
       <use xlink:href="#DejaVuSans-33"/>
       <use xlink:href="#DejaVuSans-30" transform="translate(63.623047 0)"/>
       <use xlink:href="#DejaVuSans-30" transform="translate(127.246094 0)"/>
       <use xlink:href="#DejaVuSans-30" transform="translate(190.869141 0)"/>
      </g>
     </g>
    </g>
    <g id="xtick_4">
     <g id="line2d_4">
      <g>
       <use xlink:href="#m29e4cdcffc" x="266.527206" y="382.678125" style="stroke: #000000; stroke-width: 0.8"/>
      </g>
     </g>
     <g id="text_4">
      <!-- 4000 -->
      <g transform="translate(253.802206 397.276562) scale(0.1 -0.1)">
       <defs>
        <path id="DejaVuSans-34" d="M 2419 4116 
L 825 1625 
L 2419 1625 
L 2419 4116 
z
M 2253 4666 
L 3047 4666 
L 3047 1625 
L 3713 1625 
L 3713 1100 
L 3047 1100 
L 3047 0 
L 2419 0 
L 2419 1100 
L 313 1100 
L 313 1709 
L 2253 4666 
z
" transform="scale(0.015625)"/>
       </defs>
       <use xlink:href="#DejaVuSans-34"/>
       <use xlink:href="#DejaVuSans-30" transform="translate(63.623047 0)"/>
       <use xlink:href="#DejaVuSans-30" transform="translate(127.246094 0)"/>
       <use xlink:href="#DejaVuSans-30" transform="translate(190.869141 0)"/>
      </g>
     </g>
    </g>
    <g id="xtick_5">
     <g id="line2d_5">
      <g>
       <use xlink:href="#m29e4cdcffc" x="332.174265" y="382.678125" style="stroke: #000000; stroke-width: 0.8"/>
      </g>
     </g>
     <g id="text_5">
      <!-- 5000 -->
      <g transform="translate(319.449265 397.276562) scale(0.1 -0.1)">
       <defs>
        <path id="DejaVuSans-35" d="M 691 4666 
L 3169 4666 
L 3169 4134 
L 1269 4134 
L 1269 2991 
Q 1406 3038 1543 3061 
Q 1681 3084 1819 3084 
Q 2600 3084 3056 2656 
Q 3513 2228 3513 1497 
Q 3513 744 3044 326 
Q 2575 -91 1722 -91 
Q 1428 -91 1123 -41 
Q 819 9 494 109 
L 494 744 
Q 775 591 1075 516 
Q 1375 441 1709 441 
Q 2250 441 2565 725 
Q 2881 1009 2881 1497 
Q 2881 1984 2565 2268 
Q 2250 2553 1709 2553 
Q 1456 2553 1204 2497 
Q 953 2441 691 2322 
L 691 4666 
z
" transform="scale(0.015625)"/>
       </defs>
       <use xlink:href="#DejaVuSans-35"/>
       <use xlink:href="#DejaVuSans-30" transform="translate(63.623047 0)"/>
       <use xlink:href="#DejaVuSans-30" transform="translate(127.246094 0)"/>
       <use xlink:href="#DejaVuSans-30" transform="translate(190.869141 0)"/>
      </g>
     </g>
    </g>
    <g id="xtick_6">
     <g id="line2d_6">
      <g>
       <use xlink:href="#m29e4cdcffc" x="397.821324" y="382.678125" style="stroke: #000000; stroke-width: 0.8"/>
      </g>
     </g>
     <g id="text_6">
      <!-- 6000 -->
      <g transform="translate(385.096324 397.276562) scale(0.1 -0.1)">
       <defs>
        <path id="DejaVuSans-36" d="M 2113 2584 
Q 1688 2584 1439 2293 
Q 1191 2003 1191 1497 
Q 1191 994 1439 701 
Q 1688 409 2113 409 
Q 2538 409 2786 701 
Q 3034 994 3034 1497 
Q 3034 2003 2786 2293 
Q 2538 2584 2113 2584 
z
M 3366 4563 
L 3366 3988 
Q 3128 4100 2886 4159 
Q 2644 4219 2406 4219 
Q 1781 4219 1451 3797 
Q 1122 3375 1075 2522 
Q 1259 2794 1537 2939 
Q 1816 3084 2150 3084 
Q 2853 3084 3261 2657 
Q 3669 2231 3669 1497 
Q 3669 778 3244 343 
Q 2819 -91 2113 -91 
Q 1303 -91 875 529 
Q 447 1150 447 2328 
Q 447 3434 972 4092 
Q 1497 4750 2381 4750 
Q 2619 4750 2861 4703 
Q 3103 4656 3366 4563 
z
" transform="scale(0.015625)"/>
       </defs>
       <use xlink:href="#DejaVuSans-36"/>
       <use xlink:href="#DejaVuSans-30" transform="translate(63.623047 0)"/>
       <use xlink:href="#DejaVuSans-30" transform="translate(127.246094 0)"/>
       <use xlink:href="#DejaVuSans-30" transform="translate(190.869141 0)"/>
      </g>
     </g>
    </g>
    <g id="xtick_7">
     <g id="line2d_7">
      <g>
       <use xlink:href="#m29e4cdcffc" x="463.468382" y="382.678125" style="stroke: #000000; stroke-width: 0.8"/>
      </g>
     </g>
     <g id="text_7">
      <!-- 7000 -->
      <g transform="translate(450.743382 397.276562) scale(0.1 -0.1)">
       <defs>
        <path id="DejaVuSans-37" d="M 525 4666 
L 3525 4666 
L 3525 4397 
L 1831 0 
L 1172 0 
L 2766 4134 
L 525 4134 
L 525 4666 
z
" transform="scale(0.015625)"/>
       </defs>
       <use xlink:href="#DejaVuSans-37"/>
       <use xlink:href="#DejaVuSans-30" transform="translate(63.623047 0)"/>
       <use xlink:href="#DejaVuSans-30" transform="translate(127.246094 0)"/>
       <use xlink:href="#DejaVuSans-30" transform="translate(190.869141 0)"/>
      </g>
     </g>
    </g>
    <g id="xtick_8">
     <g id="line2d_8">
      <g>
       <use xlink:href="#m29e4cdcffc" x="529.115441" y="382.678125" style="stroke: #000000; stroke-width: 0.8"/>
      </g>
     </g>
     <g id="text_8">
      <!-- 8000 -->
      <g transform="translate(516.390441 397.276562) scale(0.1 -0.1)">
       <defs>
        <path id="DejaVuSans-38" d="M 2034 2216 
Q 1584 2216 1326 1975 
Q 1069 1734 1069 1313 
Q 1069 891 1326 650 
Q 1584 409 2034 409 
Q 2484 409 2743 651 
Q 3003 894 3003 1313 
Q 3003 1734 2745 1975 
Q 2488 2216 2034 2216 
z
M 1403 2484 
Q 997 2584 770 2862 
Q 544 3141 544 3541 
Q 544 4100 942 4425 
Q 1341 4750 2034 4750 
Q 2731 4750 3128 4425 
Q 3525 4100 3525 3541 
Q 3525 3141 3298 2862 
Q 3072 2584 2669 2484 
Q 3125 2378 3379 2068 
Q 3634 1759 3634 1313 
Q 3634 634 3220 271 
Q 2806 -91 2034 -91 
Q 1263 -91 848 271 
Q 434 634 434 1313 
Q 434 1759 690 2068 
Q 947 2378 1403 2484 
z
M 1172 3481 
Q 1172 3119 1398 2916 
Q 1625 2713 2034 2713 
Q 2441 2713 2670 2916 
Q 2900 3119 2900 3481 
Q 2900 3844 2670 4047 
Q 2441 4250 2034 4250 
Q 1625 4250 1398 4047 
Q 1172 3844 1172 3481 
z
" transform="scale(0.015625)"/>
       </defs>
       <use xlink:href="#DejaVuSans-38"/>
       <use xlink:href="#DejaVuSans-30" transform="translate(63.623047 0)"/>
       <use xlink:href="#DejaVuSans-30" transform="translate(127.246094 0)"/>
       <use xlink:href="#DejaVuSans-30" transform="translate(190.869141 0)"/>
      </g>
     </g>
    </g>
    <g id="xtick_9">
     <g id="line2d_9">
      <g>
       <use xlink:href="#m29e4cdcffc" x="594.7625" y="382.678125" style="stroke: #000000; stroke-width: 0.8"/>
      </g>
     </g>
     <g id="text_9">
      <!-- 9000 -->
      <g transform="translate(582.0375 397.276562) scale(0.1 -0.1)">
       <defs>
        <path id="DejaVuSans-39" d="M 703 97 
L 703 672 
Q 941 559 1184 500 
Q 1428 441 1663 441 
Q 2288 441 2617 861 
Q 2947 1281 2994 2138 
Q 2813 1869 2534 1725 
Q 2256 1581 1919 1581 
Q 1219 1581 811 2004 
Q 403 2428 403 3163 
Q 403 3881 828 4315 
Q 1253 4750 1959 4750 
Q 2769 4750 3195 4129 
Q 3622 3509 3622 2328 
Q 3622 1225 3098 567 
Q 2575 -91 1691 -91 
Q 1453 -91 1209 -44 
Q 966 3 703 97 
z
M 1959 2075 
Q 2384 2075 2632 2365 
Q 2881 2656 2881 3163 
Q 2881 3666 2632 3958 
Q 2384 4250 1959 4250 
Q 1534 4250 1286 3958 
Q 1038 3666 1038 3163 
Q 1038 2656 1286 2365 
Q 1534 2075 1959 2075 
z
" transform="scale(0.015625)"/>
       </defs>
       <use xlink:href="#DejaVuSans-39"/>
       <use xlink:href="#DejaVuSans-30" transform="translate(63.623047 0)"/>
       <use xlink:href="#DejaVuSans-30" transform="translate(127.246094 0)"/>
       <use xlink:href="#DejaVuSans-30" transform="translate(190.869141 0)"/>
      </g>
     </g>
    </g>
    <g id="text_10">
     <!-- $\text{Wavelength}\,[\mathrm{\mathring{A}}]$ -->
     <g transform="translate(277.6125 413.45625) scale(0.1 -0.1)">
      <defs>
       <path id="DejaVuSans-57" d="M 213 4666 
L 850 4666 
L 1831 722 
L 2809 4666 
L 3519 4666 
L 4500 722 
L 5478 4666 
L 6119 4666 
L 4947 0 
L 4153 0 
L 3169 4050 
L 2175 0 
L 1381 0 
L 213 4666 
z
" transform="scale(0.015625)"/>
       <path id="DejaVuSans-61" d="M 2194 1759 
Q 1497 1759 1228 1600 
Q 959 1441 959 1056 
Q 959 750 1161 570 
Q 1363 391 1709 391 
Q 2188 391 2477 730 
Q 2766 1069 2766 1631 
L 2766 1759 
L 2194 1759 
z
M 3341 1997 
L 3341 0 
L 2766 0 
L 2766 531 
Q 2569 213 2275 61 
Q 1981 -91 1556 -91 
Q 1019 -91 701 211 
Q 384 513 384 1019 
Q 384 1609 779 1909 
Q 1175 2209 1959 2209 
L 2766 2209 
L 2766 2266 
Q 2766 2663 2505 2880 
Q 2244 3097 1772 3097 
Q 1472 3097 1187 3025 
Q 903 2953 641 2809 
L 641 3341 
Q 956 3463 1253 3523 
Q 1550 3584 1831 3584 
Q 2591 3584 2966 3190 
Q 3341 2797 3341 1997 
z
" transform="scale(0.015625)"/>
       <path id="DejaVuSans-76" d="M 191 3500 
L 800 3500 
L 1894 563 
L 2988 3500 
L 3597 3500 
L 2284 0 
L 1503 0 
L 191 3500 
z
" transform="scale(0.015625)"/>
       <path id="DejaVuSans-65" d="M 3597 1894 
L 3597 1613 
L 953 1613 
Q 991 1019 1311 708 
Q 1631 397 2203 397 
Q 2534 397 2845 478 
Q 3156 559 3463 722 
L 3463 178 
Q 3153 47 2828 -22 
Q 2503 -91 2169 -91 
Q 1331 -91 842 396 
Q 353 884 353 1716 
Q 353 2575 817 3079 
Q 1281 3584 2069 3584 
Q 2775 3584 3186 3129 
Q 3597 2675 3597 1894 
z
M 3022 2063 
Q 3016 2534 2758 2815 
Q 2500 3097 2075 3097 
Q 1594 3097 1305 2825 
Q 1016 2553 972 2059 
L 3022 2063 
z
" transform="scale(0.015625)"/>
       <path id="DejaVuSans-6c" d="M 603 4863 
L 1178 4863 
L 1178 0 
L 603 0 
L 603 4863 
z
" transform="scale(0.015625)"/>
       <path id="DejaVuSans-6e" d="M 3513 2113 
L 3513 0 
L 2938 0 
L 2938 2094 
Q 2938 2591 2744 2837 
Q 2550 3084 2163 3084 
Q 1697 3084 1428 2787 
Q 1159 2491 1159 1978 
L 1159 0 
L 581 0 
L 581 3500 
L 1159 3500 
L 1159 2956 
Q 1366 3272 1645 3428 
Q 1925 3584 2291 3584 
Q 2894 3584 3203 3211 
Q 3513 2838 3513 2113 
z
" transform="scale(0.015625)"/>
       <path id="DejaVuSans-67" d="M 2906 1791 
Q 2906 2416 2648 2759 
Q 2391 3103 1925 3103 
Q 1463 3103 1205 2759 
Q 947 2416 947 1791 
Q 947 1169 1205 825 
Q 1463 481 1925 481 
Q 2391 481 2648 825 
Q 2906 1169 2906 1791 
z
M 3481 434 
Q 3481 -459 3084 -895 
Q 2688 -1331 1869 -1331 
Q 1566 -1331 1297 -1286 
Q 1028 -1241 775 -1147 
L 775 -588 
Q 1028 -725 1275 -790 
Q 1522 -856 1778 -856 
Q 2344 -856 2625 -561 
Q 2906 -266 2906 331 
L 2906 616 
Q 2728 306 2450 153 
Q 2172 0 1784 0 
Q 1141 0 747 490 
Q 353 981 353 1791 
Q 353 2603 747 3093 
Q 1141 3584 1784 3584 
Q 2172 3584 2450 3431 
Q 2728 3278 2906 2969 
L 2906 3500 
L 3481 3500 
L 3481 434 
z
" transform="scale(0.015625)"/>
       <path id="DejaVuSans-74" d="M 1172 4494 
L 1172 3500 
L 2356 3500 
L 2356 3053 
L 1172 3053 
L 1172 1153 
Q 1172 725 1289 603 
Q 1406 481 1766 481 
L 2356 481 
L 2356 0 
L 1766 0 
Q 1100 0 847 248 
Q 594 497 594 1153 
L 594 3053 
L 172 3053 
L 172 3500 
L 594 3500 
L 594 4494 
L 1172 4494 
z
" transform="scale(0.015625)"/>
       <path id="DejaVuSans-68" d="M 3513 2113 
L 3513 0 
L 2938 0 
L 2938 2094 
Q 2938 2591 2744 2837 
Q 2550 3084 2163 3084 
Q 1697 3084 1428 2787 
Q 1159 2491 1159 1978 
L 1159 0 
L 581 0 
L 581 4863 
L 1159 4863 
L 1159 2956 
Q 1366 3272 1645 3428 
Q 1925 3584 2291 3584 
Q 2894 3584 3203 3211 
Q 3513 2838 3513 2113 
z
" transform="scale(0.015625)"/>
       <path id="DejaVuSans-5b" d="M 550 4863 
L 1875 4863 
L 1875 4416 
L 1125 4416 
L 1125 -397 
L 1875 -397 
L 1875 -844 
L 550 -844 
L 550 4863 
z
" transform="scale(0.015625)"/>
       <path id="DejaVuSans-2218" d="M 2003 2603 
Q 1753 2603 1581 2429 
Q 1409 2256 1409 2006 
Q 1409 1759 1581 1589 
Q 1753 1419 2003 1419 
Q 2253 1419 2425 1589 
Q 2597 1759 2597 2006 
Q 2597 2253 2423 2428 
Q 2250 2603 2003 2603 
z
M 2003 3006 
Q 2203 3006 2387 2929 
Q 2572 2853 2706 2709 
Q 2850 2569 2922 2390 
Q 2994 2212 2994 2006 
Q 2994 1594 2705 1308 
Q 2416 1022 1997 1022 
Q 1575 1022 1294 1303 
Q 1013 1584 1013 2006 
Q 1013 2425 1300 2715 
Q 1588 3006 2003 3006 
z
" transform="scale(0.015625)"/>
       <path id="DejaVuSans-41" d="M 2188 4044 
L 1331 1722 
L 3047 1722 
L 2188 4044 
z
M 1831 4666 
L 2547 4666 
L 4325 0 
L 3669 0 
L 3244 1197 
L 1141 1197 
L 716 0 
L 50 0 
L 1831 4666 
z
" transform="scale(0.015625)"/>
       <path id="DejaVuSans-5d" d="M 1947 4863 
L 1947 -844 
L 622 -844 
L 622 -397 
L 1369 -397 
L 1369 4416 
L 622 4416 
L 622 4863 
L 1947 4863 
z
" transform="scale(0.015625)"/>
      </defs>
      <use xlink:href="#DejaVuSans-57" transform="translate(0 0.390625)"/>
      <use xlink:href="#DejaVuSans-61" transform="translate(98.876953 0.390625)"/>
      <use xlink:href="#DejaVuSans-76" transform="translate(160.15625 0.390625)"/>
      <use xlink:href="#DejaVuSans-65" transform="translate(219.335938 0.390625)"/>
      <use xlink:href="#DejaVuSans-6c" transform="translate(280.859375 0.390625)"/>
      <use xlink:href="#DejaVuSans-65" transform="translate(308.642578 0.390625)"/>
      <use xlink:href="#DejaVuSans-6e" transform="translate(370.166016 0.390625)"/>
      <use xlink:href="#DejaVuSans-67" transform="translate(433.544922 0.390625)"/>
      <use xlink:href="#DejaVuSans-74" transform="translate(497.021484 0.390625)"/>
      <use xlink:href="#DejaVuSans-68" transform="translate(536.230469 0.390625)"/>
      <use xlink:href="#DejaVuSans-5b" transform="translate(615.845051 0.390625)"/>
      <use xlink:href="#DejaVuSans-2218" transform="translate(682.210774 77.96875) scale(0.49)"/>
      <use xlink:href="#DejaVuSans-41" transform="translate(654.858723 0.390625)"/>
      <use xlink:href="#DejaVuSans-5d" transform="translate(723.266926 0.390625)"/>
     </g>
    </g>
   </g>
   <g id="matplotlib.axis_2">
    <g id="ytick_1">
     <g id="line2d_10">
      <defs>
       <path id="m0bcce99d13" d="M 0 0 
L -3.5 0 
" style="stroke: #000000; stroke-width: 0.8"/>
      </defs>
      <g>
       <use xlink:href="#m0bcce99d13" x="36.7625" y="366.298149" style="stroke: #000000; stroke-width: 0.8"/>
      </g>
     </g>
     <g id="text_11">
      <!-- 0 -->
      <g transform="translate(23.4 370.097367) scale(0.1 -0.1)">
       <use xlink:href="#DejaVuSans-30"/>
      </g>
     </g>
    </g>
    <g id="ytick_2">
     <g id="line2d_11">
      <g>
       <use xlink:href="#m0bcce99d13" x="36.7625" y="289.460081" style="stroke: #000000; stroke-width: 0.8"/>
      </g>
     </g>
     <g id="text_12">
      <!-- 1 -->
      <g transform="translate(23.4 293.2593) scale(0.1 -0.1)">
       <use xlink:href="#DejaVuSans-31"/>
      </g>
     </g>
    </g>
    <g id="ytick_3">
     <g id="line2d_12">
      <g>
       <use xlink:href="#m0bcce99d13" x="36.7625" y="212.622013" style="stroke: #000000; stroke-width: 0.8"/>
      </g>
     </g>
     <g id="text_13">
      <!-- 2 -->
      <g transform="translate(23.4 216.421232) scale(0.1 -0.1)">
       <use xlink:href="#DejaVuSans-32"/>
      </g>
     </g>
    </g>
    <g id="ytick_4">
     <g id="line2d_13">
      <g>
       <use xlink:href="#m0bcce99d13" x="36.7625" y="135.783945" style="stroke: #000000; stroke-width: 0.8"/>
      </g>
     </g>
     <g id="text_14">
      <!-- 3 -->
      <g transform="translate(23.4 139.583164) scale(0.1 -0.1)">
       <use xlink:href="#DejaVuSans-33"/>
      </g>
     </g>
    </g>
    <g id="ytick_5">
     <g id="line2d_14">
      <g>
       <use xlink:href="#m0bcce99d13" x="36.7625" y="58.945877" style="stroke: #000000; stroke-width: 0.8"/>
      </g>
     </g>
     <g id="text_15">
      <!-- 4 -->
      <g transform="translate(23.4 62.745096) scale(0.1 -0.1)">
       <use xlink:href="#DejaVuSans-34"/>
      </g>
     </g>
    </g>
    <g id="text_16">
     <!-- $\text{Luminosity density}\,[\mathrm{erg\,s^{-1}\,\mathring{A}^{-1}}]$ -->
     <g transform="translate(17.3 281.148125) rotate(-90) scale(0.1 -0.1)">
      <defs>
       <path id="DejaVuSans-4c" d="M 628 4666 
L 1259 4666 
L 1259 531 
L 3531 531 
L 3531 0 
L 628 0 
L 628 4666 
z
" transform="scale(0.015625)"/>
       <path id="DejaVuSans-75" d="M 544 1381 
L 544 3500 
L 1119 3500 
L 1119 1403 
Q 1119 906 1312 657 
Q 1506 409 1894 409 
Q 2359 409 2629 706 
Q 2900 1003 2900 1516 
L 2900 3500 
L 3475 3500 
L 3475 0 
L 2900 0 
L 2900 538 
Q 2691 219 2414 64 
Q 2138 -91 1772 -91 
Q 1169 -91 856 284 
Q 544 659 544 1381 
z
M 1991 3584 
L 1991 3584 
z
" transform="scale(0.015625)"/>
       <path id="DejaVuSans-6d" d="M 3328 2828 
Q 3544 3216 3844 3400 
Q 4144 3584 4550 3584 
Q 5097 3584 5394 3201 
Q 5691 2819 5691 2113 
L 5691 0 
L 5113 0 
L 5113 2094 
Q 5113 2597 4934 2840 
Q 4756 3084 4391 3084 
Q 3944 3084 3684 2787 
Q 3425 2491 3425 1978 
L 3425 0 
L 2847 0 
L 2847 2094 
Q 2847 2600 2669 2842 
Q 2491 3084 2119 3084 
Q 1678 3084 1418 2786 
Q 1159 2488 1159 1978 
L 1159 0 
L 581 0 
L 581 3500 
L 1159 3500 
L 1159 2956 
Q 1356 3278 1631 3431 
Q 1906 3584 2284 3584 
Q 2666 3584 2933 3390 
Q 3200 3197 3328 2828 
z
" transform="scale(0.015625)"/>
       <path id="DejaVuSans-69" d="M 603 3500 
L 1178 3500 
L 1178 0 
L 603 0 
L 603 3500 
z
M 603 4863 
L 1178 4863 
L 1178 4134 
L 603 4134 
L 603 4863 
z
" transform="scale(0.015625)"/>
       <path id="DejaVuSans-6f" d="M 1959 3097 
Q 1497 3097 1228 2736 
Q 959 2375 959 1747 
Q 959 1119 1226 758 
Q 1494 397 1959 397 
Q 2419 397 2687 759 
Q 2956 1122 2956 1747 
Q 2956 2369 2687 2733 
Q 2419 3097 1959 3097 
z
M 1959 3584 
Q 2709 3584 3137 3096 
Q 3566 2609 3566 1747 
Q 3566 888 3137 398 
Q 2709 -91 1959 -91 
Q 1206 -91 779 398 
Q 353 888 353 1747 
Q 353 2609 779 3096 
Q 1206 3584 1959 3584 
z
" transform="scale(0.015625)"/>
       <path id="DejaVuSans-73" d="M 2834 3397 
L 2834 2853 
Q 2591 2978 2328 3040 
Q 2066 3103 1784 3103 
Q 1356 3103 1142 2972 
Q 928 2841 928 2578 
Q 928 2378 1081 2264 
Q 1234 2150 1697 2047 
L 1894 2003 
Q 2506 1872 2764 1633 
Q 3022 1394 3022 966 
Q 3022 478 2636 193 
Q 2250 -91 1575 -91 
Q 1294 -91 989 -36 
Q 684 19 347 128 
L 347 722 
Q 666 556 975 473 
Q 1284 391 1588 391 
Q 1994 391 2212 530 
Q 2431 669 2431 922 
Q 2431 1156 2273 1281 
Q 2116 1406 1581 1522 
L 1381 1569 
Q 847 1681 609 1914 
Q 372 2147 372 2553 
Q 372 3047 722 3315 
Q 1072 3584 1716 3584 
Q 2034 3584 2315 3537 
Q 2597 3491 2834 3397 
z
" transform="scale(0.015625)"/>
       <path id="DejaVuSans-79" d="M 2059 -325 
Q 1816 -950 1584 -1140 
Q 1353 -1331 966 -1331 
L 506 -1331 
L 506 -850 
L 844 -850 
Q 1081 -850 1212 -737 
Q 1344 -625 1503 -206 
L 1606 56 
L 191 3500 
L 800 3500 
L 1894 763 
L 2988 3500 
L 3597 3500 
L 2059 -325 
z
" transform="scale(0.015625)"/>
       <path id="DejaVuSans-20" transform="scale(0.015625)"/>
       <path id="DejaVuSans-64" d="M 2906 2969 
L 2906 4863 
L 3481 4863 
L 3481 0 
L 2906 0 
L 2906 525 
Q 2725 213 2448 61 
Q 2172 -91 1784 -91 
Q 1150 -91 751 415 
Q 353 922 353 1747 
Q 353 2572 751 3078 
Q 1150 3584 1784 3584 
Q 2172 3584 2448 3432 
Q 2725 3281 2906 2969 
z
M 947 1747 
Q 947 1113 1208 752 
Q 1469 391 1925 391 
Q 2381 391 2643 752 
Q 2906 1113 2906 1747 
Q 2906 2381 2643 2742 
Q 2381 3103 1925 3103 
Q 1469 3103 1208 2742 
Q 947 2381 947 1747 
z
" transform="scale(0.015625)"/>
       <path id="DejaVuSans-72" d="M 2631 2963 
Q 2534 3019 2420 3045 
Q 2306 3072 2169 3072 
Q 1681 3072 1420 2755 
Q 1159 2438 1159 1844 
L 1159 0 
L 581 0 
L 581 3500 
L 1159 3500 
L 1159 2956 
Q 1341 3275 1631 3429 
Q 1922 3584 2338 3584 
Q 2397 3584 2469 3576 
Q 2541 3569 2628 3553 
L 2631 2963 
z
" transform="scale(0.015625)"/>
       <path id="DejaVuSans-2212" d="M 678 2272 
L 4684 2272 
L 4684 1741 
L 678 1741 
L 678 2272 
z
" transform="scale(0.015625)"/>
      </defs>
      <use xlink:href="#DejaVuSans-4c" transform="translate(0 0.390625)"/>
      <use xlink:href="#DejaVuSans-75" transform="translate(55.712891 0.390625)"/>
      <use xlink:href="#DejaVuSans-6d" transform="translate(119.091797 0.390625)"/>
      <use xlink:href="#DejaVuSans-69" transform="translate(216.503906 0.390625)"/>
      <use xlink:href="#DejaVuSans-6e" transform="translate(244.287109 0.390625)"/>
      <use xlink:href="#DejaVuSans-6f" transform="translate(307.666016 0.390625)"/>
      <use xlink:href="#DejaVuSans-73" transform="translate(368.847656 0.390625)"/>
      <use xlink:href="#DejaVuSans-69" transform="translate(420.947266 0.390625)"/>
      <use xlink:href="#DejaVuSans-74" transform="translate(448.730469 0.390625)"/>
      <use xlink:href="#DejaVuSans-79" transform="translate(487.939453 0.390625)"/>
      <use xlink:href="#DejaVuSans-20" transform="translate(547.119141 0.390625)"/>
      <use xlink:href="#DejaVuSans-64" transform="translate(578.90625 0.390625)"/>
      <use xlink:href="#DejaVuSans-65" transform="translate(642.382812 0.390625)"/>
      <use xlink:href="#DejaVuSans-6e" transform="translate(703.90625 0.390625)"/>
      <use xlink:href="#DejaVuSans-73" transform="translate(767.285156 0.390625)"/>
      <use xlink:href="#DejaVuSans-69" transform="translate(819.384766 0.390625)"/>
      <use xlink:href="#DejaVuSans-74" transform="translate(847.167969 0.390625)"/>
      <use xlink:href="#DejaVuSans-79" transform="translate(886.376953 0.390625)"/>
      <use xlink:href="#DejaVuSans-5b" transform="translate(961.792317 0.390625)"/>
      <use xlink:href="#DejaVuSans-65" transform="translate(1000.805989 0.390625)"/>
      <use xlink:href="#DejaVuSans-72" transform="translate(1062.329426 0.390625)"/>
      <use xlink:href="#DejaVuSans-67" transform="translate(1103.442708 0.390625)"/>
      <use xlink:href="#DejaVuSans-73" transform="translate(1183.154946 0.390625)"/>
      <use xlink:href="#DejaVuSans-2212" transform="translate(1236.211587 38.671875) scale(0.7)"/>
      <use xlink:href="#DejaVuSans-31" transform="translate(1294.863931 38.671875) scale(0.7)"/>
      <use xlink:href="#DejaVuSans-2218" transform="translate(1385.722166 77.96875) scale(0.49)"/>
      <use xlink:href="#DejaVuSans-41" transform="translate(1358.370115 0.390625)"/>
      <use xlink:href="#DejaVuSans-2212" transform="translate(1427.735349 38.671875) scale(0.7)"/>
      <use xlink:href="#DejaVuSans-31" transform="translate(1486.387693 38.671875) scale(0.7)"/>
      <use xlink:href="#DejaVuSans-5d" transform="translate(1533.658201 0.390625)"/>
     </g>
    </g>
    <g id="text_17">
     <!-- 1e39 -->
     <g transform="translate(36.7625 19.318125) scale(0.1 -0.1)">
      <use xlink:href="#DejaVuSans-31"/>
      <use xlink:href="#DejaVuSans-65" transform="translate(63.623047 0)"/>
      <use xlink:href="#DejaVuSans-33" transform="translate(125.146484 0)"/>
      <use xlink:href="#DejaVuSans-39" transform="translate(188.769531 0)"/>
     </g>
    </g>
   </g>
   <g id="line2d_15">
    <path d="M 615.6875 347.087206 
L 613.362094 347.092198 
L 610.070348 347.266714 
L 606.813971 347.618781 
L 603.592397 348.192158 
L 599.350143 348.955069 
L 596.207636 348.275131 
L 593.098125 348.062801 
L 591.043195 347.111661 
L 587.987537 345.421387 
L 584.963521 344.06238 
L 582.964848 343.457493 
L 570.301311 341.157272 
L 563.709244 340.172458 
L 560.010792 339.899633 
L 557.268866 339.937454 
L 554.553849 340.087273 
L 551.865344 340.139334 
L 547.442376 339.488159 
L 543.955084 339.215789 
L 542.228166 338.400981 
L 539.6584 337.603149 
L 534.591778 336.643255 
L 531.266939 336.194904 
L 529.620095 335.950791 
L 527.169025 335.260613 
L 523.936268 334.417413 
L 519.951066 333.4065 
L 515.248721 332.690148 
L 509.110643 332.177104 
L 506.846687 331.961643 
L 500.907507 330.812815 
L 500.174958 330.593427 
L 498.716321 329.845455 
L 496.544372 329.154207 
L 488.043973 327.096767 
L 483.902844 326.559881 
L 481.181229 325.890359 
L 475.829556 324.611403 
L 466.112012 321.533951 
L 464.216333 320.882358 
L 449.592946 316.601869 
L 444.922807 315.262656 
L 442.053351 314.169078 
L 440.349533 313.667712 
L 434.213984 312.096039 
L 432.025432 311.209522 
L 429.320852 310.025117 
L 421.408343 305.456981 
L 420.375527 305.025035 
L 419.861034 304.954486 
L 418.83585 305.206718 
L 418.325152 305.422986 
L 417.307517 306.238181 
L 416.294868 307.390923 
L 415.287168 308.929678 
L 414.284381 310.729679 
L 413.286472 312.829857 
L 411.798676 316.428052 
L 409.342903 322.488236 
L 408.368855 324.566498 
L 406.916527 326.842132 
L 406.434733 326.631412 
L 405.954089 325.749832 
L 404.996238 323.020941 
L 404.04294 318.960228 
L 402.149876 309.688226 
L 401.210046 306.16501 
L 400.274641 303.397725 
L 399.343631 301.491207 
L 397.955289 299.314328 
L 397.035131 298.16475 
L 396.119261 297.345932 
L 394.75343 296.51239 
L 393.848149 296.263611 
L 392.947052 296.249625 
L 388.943128 296.94907 
L 385.885495 296.53511 
L 384.589897 296.307524 
L 382.024894 295.512588 
L 379.075739 289.538117 
L 378.658183 289.071403 
L 377.825853 288.655275 
L 376.997212 288.592258 
L 376.172237 288.880121 
L 375.350902 289.47713 
L 374.533183 290.229938 
L 373.313334 291.865315 
L 372.10149 293.982099 
L 370.498013 297.516818 
L 369.304541 300.885509 
L 366.940761 307.887206 
L 366.549768 308.11835 
L 366.159617 307.881993 
L 365.770304 307.49307 
L 364.994184 306.165434 
L 364.221386 304.625342 
L 363.451889 303.301903 
L 362.685672 302.654493 
L 361.922714 302.271119 
L 360.784342 300.351641 
L 360.029442 297.701306 
L 358.903061 294.425094 
L 357.412257 291.781554 
L 357.041511 291.575045 
L 356.671542 291.496522 
L 355.566271 291.837676 
L 354.103306 292.710726 
L 353.739465 293.06224 
L 352.652465 293.673651 
L 352.291631 294.003251 
L 351.572199 294.013727 
L 351.213596 294.092096 
L 350.498605 294.965557 
L 350.142213 295.483537 
L 349.786553 295.681032 
L 349.431623 295.543678 
L 348.723943 295.431577 
L 347.317247 291.057622 
L 345.921982 284.571315 
L 345.228593 282.480969 
L 344.53801 280.989315 
L 343.850216 280.329645 
L 343.50736 280.188662 
L 342.823718 280.356595 
L 342.142823 280.76881 
L 341.803401 280.654792 
L 341.464659 279.848082 
L 340.116458 278.154706 
L 339.446388 277.005759 
L 338.778984 276.298888 
L 337.782842 276.135741 
L 336.792609 276.391295 
L 336.135711 276.722901 
L 333.856846 279.111761 
L 333.533844 279.621291 
L 332.889733 278.315478 
L 331.928273 275.574008 
L 331.609034 275.061929 
L 331.290416 274.762743 
L 330.972417 274.782051 
L 330.655035 274.950604 
L 330.338269 275.276058 
L 329.706575 276.454285 
L 328.450495 279.917945 
L 326.584432 285.324227 
L 325.967171 286.119967 
L 325.659425 286.376131 
L 324.739708 287.983464 
L 323.825233 289.99509 
L 323.521566 289.892729 
L 322.614013 284.727147 
L 321.112826 274.968399 
L 320.516304 272.087222 
L 319.922022 269.259968 
L 319.03477 266.045105 
L 318.446031 264.685135 
L 318.152487 264.279381 
L 317.567037 263.945687 
L 316.983766 264.103279 
L 316.692943 264.307892 
L 316.40266 264.662577 
L 315.535035 265.094786 
L 315.246896 265.098926 
L 314.672215 263.591696 
L 314.099651 261.910216 
L 313.529194 260.732192 
L 310.987889 256.80038 
L 310.428811 256.325507 
L 309.316739 254.462549 
L 308.763724 253.187382 
L 308.487967 252.332915 
L 307.937946 249.220278 
L 306.028423 238.66567 
L 305.217379 236.020544 
L 304.679099 234.631055 
L 303.875274 233.272056 
L 303.075736 232.299557 
L 302.280449 231.222783 
L 301.489379 230.692609 
L 301.22662 230.791108 
L 300.702493 231.779447 
L 300.180211 233.489625 
L 299.400225 237.167126 
L 298.624336 241.979623 
L 297.340203 251.365251 
L 296.575082 258.544523 
L 295.056748 275.697364 
L 292.808561 301.683784 
L 292.560904 302.775595 
L 292.313672 303.280285 
L 292.066862 303.352476 
L 291.820475 302.984316 
L 291.574509 302.121408 
L 291.083835 299.094232 
L 290.350955 291.979488 
L 289.379581 278.645213 
L 287.934812 256.851995 
L 286.979731 245.921171 
L 286.267625 240.539244 
L 285.794876 238.277186 
L 285.559094 237.384321 
L 285.088712 236.608587 
L 284.619898 236.656244 
L 284.152646 237.289197 
L 283.686947 237.859504 
L 283.222793 238.298363 
L 282.760176 239.167784 
L 281.610313 242.709857 
L 280.697229 246.607824 
L 278.888957 254.09326 
L 278.664583 254.463276 
L 278.216933 254.688735 
L 277.548185 253.310818 
L 276.882691 251.176752 
L 276.440823 249.570437 
L 275.780698 248.047945 
L 275.342389 247.529661 
L 274.687569 246.631441 
L 273.603195 244.317501 
L 273.171874 243.572272 
L 272.95673 243.332898 
L 272.313358 241.468774 
L 271.247881 238.842514 
L 270.612647 237.730721 
L 270.190831 237.141604 
L 269.770349 236.991713 
L 269.142109 237.02895 
L 268.933355 237.091573 
L 267.894496 236.666751 
L 267.27508 235.861509 
L 267.069254 235.359631 
L 265.028552 225.135515 
L 263.418639 204.952861 
L 263.019259 202.121187 
L 262.621106 200.710156 
L 262.224174 199.99572 
L 261.828459 199.84093 
L 261.040656 200.226607 
L 260.844457 200.502711 
L 260.452955 201.680798 
L 259.479401 206.231415 
L 257.554296 219.030105 
L 256.03497 231.660279 
L 254.720415 243.764621 
L 253.78981 245.133669 
L 253.604517 245.559475 
L 252.498506 250.900191 
L 252.315122 250.801434 
L 251.949167 249.043949 
L 251.038977 244.280306 
L 250.67677 243.786107 
L 249.95553 244.801498 
L 249.417362 247.297938 
L 248.881543 250.869923 
L 247.99369 257.409454 
L 247.640349 257.042619 
L 247.112251 253.684775 
L 246.237156 247.094762 
L 245.368336 242.748489 
L 244.850029 241.191686 
L 244.677754 240.785127 
L 244.333942 238.455683 
L 243.820062 233.72215 
L 242.968459 221.920954 
L 241.786324 205.9021 
L 241.116053 199.760356 
L 240.615824 196.661169 
L 239.292137 191.482027 
L 237.010968 185.522144 
L 236.688692 185.131222 
L 236.367305 184.963248 
L 235.727188 185.004253 
L 235.408449 185.05887 
L 234.457472 184.444353 
L 233.67094 183.914398 
L 232.423591 183.396494 
L 231.496933 182.042965 
L 230.883325 181.572601 
L 230.120954 179.433833 
L 229.062198 176.487002 
L 227.715419 173.91216 
L 226.974148 172.551595 
L 226.384657 171.69651 
L 225.798275 170.815756 
L 224.924475 169.66857 
L 224.490151 168.980972 
L 223.626605 167.369057 
L 222.912132 166.37385 
L 222.485674 165.70544 
L 221.637723 164.26111 
L 221.076069 163.657588 
L 220.239 163.129534 
L 219.40836 162.868147 
L 218.038047 162.578263 
L 216.954282 162.575903 
L 216.416504 162.050038 
L 215.881435 161.339194 
L 215.481898 160.927605 
L 214.292274 160.333974 
L 214.029728 160.172546 
L 213.376221 159.474583 
L 212.597359 159.11604 
L 211.567843 159.076364 
L 210.929539 159.532174 
L 210.421715 160.042675 
L 209.538992 160.902764 
L 209.162988 161.144232 
L 208.913083 161.34098 
L 208.539363 160.562233 
L 208.415092 160.200495 
L 208.043184 157.546592 
L 205.961001 141.514362 
L 205.839842 141.254651 
L 205.597959 141.427402 
L 205.356655 142.062449 
L 204.875775 143.739256 
L 204.636196 143.442654 
L 204.277895 144.799432 
L 203.920872 147.741061 
L 203.092745 158.206738 
L 202.505413 170.485544 
L 201.688944 193.686365 
L 200.649013 230.402053 
L 199.506287 271.52881 
L 199.166053 276.393054 
L 198.939888 277.781736 
L 198.827002 277.854978 
L 198.714246 277.593138 
L 198.489126 275.933402 
L 198.152419 271.155055 
L 197.705286 260.197167 
L 197.149256 240.51082 
L 195.282395 166.207606 
L 194.740165 154.117644 
L 194.200999 146.394807 
L 193.558008 140.871543 
L 193.025493 139.53276 
L 192.707417 139.677168 
L 192.495961 139.597518 
L 192.39041 139.751098 
L 192.179662 139.591634 
L 191.550239 138.673774 
L 190.82121 136.241397 
L 190.407161 134.844479 
L 189.584542 130.487039 
L 188.870682 115.795541 
L 188.364133 107.582411 
L 187.960888 103.849804 
L 187.559403 100.96076 
L 186.960449 94.184603 
L 186.761665 93.516442 
L 186.563312 93.705177 
L 186.464297 93.885841 
L 186.167895 95.607351 
L 185.774186 99.523393 
L 185.186803 108.532619 
L 184.506301 122.520592 
L 183.83089 140.384722 
L 183.255975 158.703064 
L 182.40046 193.278894 
L 181.365852 244.80865 
L 180.80656 270.703922 
L 180.34317 279.979779 
L 179.974203 283.068987 
L 179.790297 283.446436 
L 179.698489 283.367055 
L 179.515159 282.432082 
L 179.240879 279.460781 
L 178.876504 272.024949 
L 178.42316 257.400495 
L 177.79241 229.612877 
L 176.103141 137.23351 
L 175.489024 109.466028 
L 175.140063 99.400271 
L 172.062152 51.73631 
L 171.143634 41.856376 
L 170.81211 39.993034 
L 170.317283 38.87579 
L 170.152992 38.698125 
L 169.907163 38.741877 
L 169.66206 40.256606 
L 169.25516 44.822857 
L 168.850253 50.559434 
L 168.286704 61.778823 
L 167.408868 87.837262 
L 166.618933 120.407262 
L 164.523752 211.723863 
L 162.183758 298.803391 
L 161.517124 310.831381 
L 161.075813 314.730331 
L 160.782977 315.853426 
L 160.49123 316.265412 
L 160.345763 316.263767 
L 160.055638 315.289153 
L 159.83875 313.678575 
L 159.694493 312.476387 
L 159.406778 313.488755 
L 159.263318 313.462614 
L 159.048624 312.346111 
L 158.834524 308.707871 
L 158.692118 304.514683 
L 158.195753 271.826012 
L 157.562229 220.124407 
L 156.864389 154.576873 
L 156.794953 154.678968 
L 156.104051 155.555106 
L 155.760936 155.904105 
L 154.269435 158.232974 
L 153.53462 159.432095 
L 153.070739 159.109334 
L 151.114836 160.003138 
L 150.793829 160.157843 
L 150.346765 160.568595 
L 149.839156 160.904642 
L 149.586669 160.640934 
L 149.272287 160.717107 
L 149.021756 161.048957 
L 148.523278 162.002708 
L 147.966568 163.638576 
L 147.353009 165.446413 
L 146.563153 167.75104 
L 145.483762 170.974432 
L 145.068398 171.778856 
L 144.714307 171.986033 
L 144.596671 172.00636 
L 144.128088 171.522262 
L 143.662616 171.522904 
L 143.200225 171.623442 
L 142.855435 171.409216 
L 142.569411 171.187614 
L 141.831233 170.867838 
L 141.212733 170.262555 
L 140.766389 169.713507 
L 140.433531 169.626142 
L 140.102288 169.733374 
L 139.717865 170.203311 
L 139.281174 171.43994 
L 139.009665 173.202954 
L 138.148111 182.32413 
L 137.033862 200.535558 
L 136.301252 213.232862 
L 135.012884 232.580606 
L 134.961871 232.530382 
L 134.758214 229.568628 
L 134.403335 221.321574 
L 133.649325 206.203283 
L 133.250739 201.871035 
L 132.90398 200.590672 
L 132.805248 200.561895 
L 132.657432 200.527889 
L 132.167152 201.05618 
L 131.583725 202.600198 
L 131.438696 202.785013 
L 131.293997 201.638423 
L 130.861864 197.974146 
L 130.337667 196.236747 
L 129.959144 195.5677 
L 129.536007 195.295898 
L 129.115701 195.250152 
L 128.651983 195.410203 
L 128.421409 195.149462 
L 127.643797 193.947419 
L 126.92075 192.168454 
L 126.073034 191.22653 
L 125.98448 191.31549 
L 125.763655 191.98447 
L 125.455841 193.629462 
L 124.888293 198.435046 
L 124.068271 208.352348 
L 123.259294 224.684796 
L 122.294466 250.937863 
L 121.96252 258.214598 
L 121.714781 259.368605 
L 121.345115 263.062006 
L 121.018467 271.046918 
L 120.572281 287.540814 
L 120.169599 301.107636 
L 119.690035 308.896163 
L 119.332952 311.155908 
L 119.096117 311.432719 
L 119.017388 311.387015 
L 118.860253 310.984492 
L 118.430336 309.697111 
L 118.003623 312.929504 
L 117.197759 322.660172 
L 116.855864 324.389923 
L 116.629078 325.591123 
L 116.478393 325.855822 
L 116.365644 325.801327 
L 116.103438 324.286918 
L 115.879662 321.465334 
L 115.508679 312.857821 
L 114.810544 289.02972 
L 114.337886 274.787773 
L 114.013014 270.030319 
L 113.72584 268.173844 
L 113.333415 266.612513 
L 113.226876 266.617231 
L 113.049771 267.324037 
L 112.486875 271.662285 
L 112.138004 274.239471 
L 112.103241 274.20985 
L 111.791369 268.063716 
L 111.241349 257.990466 
L 110.866453 255.39622 
L 110.494168 254.383782 
L 110.225039 254.146247 
L 109.2278 254.179731 
L 108.02335 253.846353 
L 107.351922 253.049619 
L 107.098413 252.63423 
L 106.189771 250.399475 
L 104.962421 246.193312 
L 104.509728 244.504671 
L 104.299856 243.342041 
L 103.734595 239.441702 
L 103.439639 239.448089 
L 103.322145 239.617679 
L 103.175666 240.212658 
L 102.767813 244.197048 
L 102.622963 244.68121 
L 102.594044 244.646964 
L 102.478537 244.753213 
L 102.305782 245.50272 
L 102.190948 246.584263 
L 101.962083 249.797401 
L 101.705881 255.890631 
L 101.197475 273.806333 
L 100.722144 298.806954 
L 100.113864 333.531261 
L 99.758007 342.407959 
L 99.486057 345.111433 
L 99.296609 345.922628 
L 99.269606 345.851478 
L 99.161748 345.570038 
L 99.000418 344.156353 
L 98.679392 338.689186 
L 98.254715 326.663027 
L 97.62479 302.183045 
L 96.721087 269.667123 
L 96.263081 260.419172 
L 95.960248 258.851367 
L 95.935101 258.831316 
L 95.909968 258.868474 
L 95.734423 259.948393 
L 95.435042 263.169053 
L 94.548502 277.598376 
L 93.726847 292.146141 
L 93.321582 304.824976 
L 92.150552 344.587971 
L 91.736457 348.870518 
L 91.50808 349.690961 
L 91.439799 349.715298 
L 91.394337 349.648726 
L 91.032335 348.322229 
L 90.830023 346.695681 
L 90.762794 346.220031 
L 90.718033 346.420111 
L 90.584025 346.643739 
L 90.405991 345.819726 
L 90.096185 342.929907 
L 89.526682 334.329321 
L 87.757994 306.345071 
L 87.218886 301.633576 
L 87.054399 301.350818 
L 87.033884 301.379288 
L 86.992884 301.507313 
L 86.890561 302.055793 
L 86.666335 305.900858 
L 86.382703 314.593786 
L 85.306677 346.409327 
L 84.856852 350.231362 
L 84.624129 351.02086 
L 84.527556 350.913808 
L 84.143564 349.032279 
L 84.124461 349.072172 
L 83.725378 347.000224 
L 83.255428 342.028578 
L 83.218071 342.782725 
L 82.883435 347.329248 
L 82.643505 348.848553 
L 82.569974 348.771538 
L 82.53326 348.793704 
L 82.386745 349.024101 
L 82.368469 349.005089 
L 82.313692 348.961182 
L 82.204368 348.89477 
L 82.186177 348.908915 
L 82.077208 348.911715 
L 81.878218 348.754451 
L 81.734133 348.573543 
L 81.680238 348.350733 
L 81.59058 348.068641 
L 80.986344 344.536909 
L 80.951093 344.407541 
L 80.880689 344.177989 
L 80.548018 342.012347 
L 80.270097 342.772964 
L 80.252794 342.742126 
L 80.200932 342.871263 
L 79.703207 343.389481 
L 79.296183 346.744857 
L 78.610876 354.568922 
L 77.856682 360.193888 
L 77.840456 360.187725 
L 77.133481 358.952533 
L 76.863942 358.037101 
L 76.816582 358.35776 
L 76.502414 359.732889 
L 76.237494 360.347569 
L 75.836042 360.524031 
L 75.530254 360.309175 
L 75.378333 360.182507 
L 75.091453 359.951877 
L 75.01634 359.94965 
L 74.98634 359.911478 
L 73.705387 359.001388 
L 73.403082 358.889281 
L 73.046594 357.957732 
L 72.975735 357.983628 
L 72.933289 357.944135 
L 72.72184 357.659218 
L 72.693745 357.816198 
L 72.275054 360.495652 
L 71.971241 361.120369 
L 71.957495 361.115395 
L 71.371647 361.139685 
L 70.650071 362.802176 
L 70.504973 362.877028 
L 70.373612 362.935097 
L 70.203616 362.902231 
L 69.956719 362.762675 
L 69.353807 362.82742 
L 69.188983 362.885327 
L 69.037574 362.724048 
L 69.012407 362.768907 
L 68.811773 362.913378 
L 68.377169 362.947353 
L 68.00926 362.685675 
L 67.960522 362.835446 
L 67.657586 363.411591 
L 66.80093 364.539497 
L 66.196422 364.122472 
L 66.001309 363.962802 
L 65.967004 363.948596 
L 65.921323 364.036883 
L 65.693924 364.231148 
L 65.558283 364.18106 
L 65.232932 364.028724 
L 65.199471 364.097467 
L 65.010547 364.247489 
L 64.988397 364.226216 
L 64.811775 364.206706 
L 63.858337 363.785891 
L 63.666983 363.670828 
L 63.225209 363.308497 
L 63.141801 363.491798 
L 62.759074 364.153783 
L 62.249669 364.59648 
L 62.03834 364.578863 
L 61.828538 364.680997 
L 61.570873 364.750473 
L 61.393828 364.720724 
L 61.276402 364.694916 
L 61.042984 364.757198 
L 60.91734 365.089865 
L 60.696397 365.346423 
L 60.467668 365.413022 
L 60.316203 365.507844 
L 60.165548 365.525066 
L 59.727618 365.49965 
L 59.241894 365.451771 
L 58.042054 365.660174 
L 57.152653 365.599571 
L 55.5694 366.027213 
L 54.122482 365.961561 
L 53.906476 365.950563 
L 53.699676 366.050453 
L 53.44357 366.006921 
L 52.867969 365.946069 
L 52.655555 365.962853 
L 52.319502 365.989208 
L 51.899066 365.987754 
L 51.152465 366.106487 
L 50.589808 366.122822 
L 50.268805 366.267575 
L 48.835365 366.181751 
L 48.579372 366.164079 
L 48.267835 366.144775 
L 47.20254 366.032858 
L 47.091628 366.146307 
L 46.740499 366.293197 
L 36.765701 366.298125 
L 36.765701 366.298125 
" clip-path="url(#p4e221e1fb6)" style="fill: none; stroke: #1f77b4; stroke-width: 1.5; stroke-linecap: square"/>
   </g>
   <g id="patch_3">
    <path d="M 36.7625 382.678125 
L 36.7625 22.318125 
" style="fill: none; stroke: #000000; stroke-width: 0.8; stroke-linejoin: miter; stroke-linecap: square"/>
   </g>
   <g id="patch_4">
    <path d="M 594.7625 382.678125 
L 594.7625 22.318125 
" style="fill: none; stroke: #000000; stroke-width: 0.8; stroke-linejoin: miter; stroke-linecap: square"/>
   </g>
   <g id="patch_5">
    <path d="M 36.7625 382.678125 
L 594.7625 382.678125 
" style="fill: none; stroke: #000000; stroke-width: 0.8; stroke-linejoin: miter; stroke-linecap: square"/>
   </g>
   <g id="patch_6">
    <path d="M 36.7625 22.318125 
L 594.7625 22.318125 
" style="fill: none; stroke: #000000; stroke-width: 0.8; stroke-linejoin: miter; stroke-linecap: square"/>
   </g>
   <g id="text_18">
    <!-- TARDIS example model spectrum -->
    <g transform="translate(215.467812 16.318125) scale(0.12 -0.12)">
     <defs>
      <path id="DejaVuSans-54" d="M -19 4666 
L 3928 4666 
L 3928 4134 
L 2272 4134 
L 2272 0 
L 1638 0 
L 1638 4134 
L -19 4134 
L -19 4666 
z
" transform="scale(0.015625)"/>
      <path id="DejaVuSans-52" d="M 2841 2188 
Q 3044 2119 3236 1894 
Q 3428 1669 3622 1275 
L 4263 0 
L 3584 0 
L 2988 1197 
Q 2756 1666 2539 1819 
Q 2322 1972 1947 1972 
L 1259 1972 
L 1259 0 
L 628 0 
L 628 4666 
L 2053 4666 
Q 2853 4666 3247 4331 
Q 3641 3997 3641 3322 
Q 3641 2881 3436 2590 
Q 3231 2300 2841 2188 
z
M 1259 4147 
L 1259 2491 
L 2053 2491 
Q 2509 2491 2742 2702 
Q 2975 2913 2975 3322 
Q 2975 3731 2742 3939 
Q 2509 4147 2053 4147 
L 1259 4147 
z
" transform="scale(0.015625)"/>
      <path id="DejaVuSans-44" d="M 1259 4147 
L 1259 519 
L 2022 519 
Q 2988 519 3436 956 
Q 3884 1394 3884 2338 
Q 3884 3275 3436 3711 
Q 2988 4147 2022 4147 
L 1259 4147 
z
M 628 4666 
L 1925 4666 
Q 3281 4666 3915 4102 
Q 4550 3538 4550 2338 
Q 4550 1131 3912 565 
Q 3275 0 1925 0 
L 628 0 
L 628 4666 
z
" transform="scale(0.015625)"/>
      <path id="DejaVuSans-49" d="M 628 4666 
L 1259 4666 
L 1259 0 
L 628 0 
L 628 4666 
z
" transform="scale(0.015625)"/>
      <path id="DejaVuSans-53" d="M 3425 4513 
L 3425 3897 
Q 3066 4069 2747 4153 
Q 2428 4238 2131 4238 
Q 1616 4238 1336 4038 
Q 1056 3838 1056 3469 
Q 1056 3159 1242 3001 
Q 1428 2844 1947 2747 
L 2328 2669 
Q 3034 2534 3370 2195 
Q 3706 1856 3706 1288 
Q 3706 609 3251 259 
Q 2797 -91 1919 -91 
Q 1588 -91 1214 -16 
Q 841 59 441 206 
L 441 856 
Q 825 641 1194 531 
Q 1563 422 1919 422 
Q 2459 422 2753 634 
Q 3047 847 3047 1241 
Q 3047 1584 2836 1778 
Q 2625 1972 2144 2069 
L 1759 2144 
Q 1053 2284 737 2584 
Q 422 2884 422 3419 
Q 422 4038 858 4394 
Q 1294 4750 2059 4750 
Q 2388 4750 2728 4690 
Q 3069 4631 3425 4513 
z
" transform="scale(0.015625)"/>
      <path id="DejaVuSans-78" d="M 3513 3500 
L 2247 1797 
L 3578 0 
L 2900 0 
L 1881 1375 
L 863 0 
L 184 0 
L 1544 1831 
L 300 3500 
L 978 3500 
L 1906 2253 
L 2834 3500 
L 3513 3500 
z
" transform="scale(0.015625)"/>
      <path id="DejaVuSans-70" d="M 1159 525 
L 1159 -1331 
L 581 -1331 
L 581 3500 
L 1159 3500 
L 1159 2969 
Q 1341 3281 1617 3432 
Q 1894 3584 2278 3584 
Q 2916 3584 3314 3078 
Q 3713 2572 3713 1747 
Q 3713 922 3314 415 
Q 2916 -91 2278 -91 
Q 1894 -91 1617 61 
Q 1341 213 1159 525 
z
M 3116 1747 
Q 3116 2381 2855 2742 
Q 2594 3103 2138 3103 
Q 1681 3103 1420 2742 
Q 1159 2381 1159 1747 
Q 1159 1113 1420 752 
Q 1681 391 2138 391 
Q 2594 391 2855 752 
Q 3116 1113 3116 1747 
z
" transform="scale(0.015625)"/>
      <path id="DejaVuSans-63" d="M 3122 3366 
L 3122 2828 
Q 2878 2963 2633 3030 
Q 2388 3097 2138 3097 
Q 1578 3097 1268 2742 
Q 959 2388 959 1747 
Q 959 1106 1268 751 
Q 1578 397 2138 397 
Q 2388 397 2633 464 
Q 2878 531 3122 666 
L 3122 134 
Q 2881 22 2623 -34 
Q 2366 -91 2075 -91 
Q 1284 -91 818 406 
Q 353 903 353 1747 
Q 353 2603 823 3093 
Q 1294 3584 2113 3584 
Q 2378 3584 2631 3529 
Q 2884 3475 3122 3366 
z
" transform="scale(0.015625)"/>
     </defs>
     <use xlink:href="#DejaVuSans-54"/>
     <use xlink:href="#DejaVuSans-41" transform="translate(53.333984 0)"/>
     <use xlink:href="#DejaVuSans-52" transform="translate(121.742188 0)"/>
     <use xlink:href="#DejaVuSans-44" transform="translate(191.224609 0)"/>
     <use xlink:href="#DejaVuSans-49" transform="translate(268.226562 0)"/>
     <use xlink:href="#DejaVuSans-53" transform="translate(297.71875 0)"/>
     <use xlink:href="#DejaVuSans-20" transform="translate(361.195312 0)"/>
     <use xlink:href="#DejaVuSans-65" transform="translate(392.982422 0)"/>
     <use xlink:href="#DejaVuSans-78" transform="translate(452.755859 0)"/>
     <use xlink:href="#DejaVuSans-61" transform="translate(511.935547 0)"/>
     <use xlink:href="#DejaVuSans-6d" transform="translate(573.214844 0)"/>
     <use xlink:href="#DejaVuSans-70" transform="translate(670.626953 0)"/>
     <use xlink:href="#DejaVuSans-6c" transform="translate(734.103516 0)"/>
     <use xlink:href="#DejaVuSans-65" transform="translate(761.886719 0)"/>
     <use xlink:href="#DejaVuSans-20" transform="translate(823.410156 0)"/>
     <use xlink:href="#DejaVuSans-6d" transform="translate(855.197266 0)"/>
     <use xlink:href="#DejaVuSans-6f" transform="translate(952.609375 0)"/>
     <use xlink:href="#DejaVuSans-64" transform="translate(1013.791016 0)"/>
     <use xlink:href="#DejaVuSans-65" transform="translate(1077.267578 0)"/>
     <use xlink:href="#DejaVuSans-6c" transform="translate(1138.791016 0)"/>
     <use xlink:href="#DejaVuSans-20" transform="translate(1166.574219 0)"/>
     <use xlink:href="#DejaVuSans-73" transform="translate(1198.361328 0)"/>
     <use xlink:href="#DejaVuSans-70" transform="translate(1250.460938 0)"/>
     <use xlink:href="#DejaVuSans-65" transform="translate(1313.9375 0)"/>
     <use xlink:href="#DejaVuSans-63" transform="translate(1375.460938 0)"/>
     <use xlink:href="#DejaVuSans-74" transform="translate(1430.441406 0)"/>
     <use xlink:href="#DejaVuSans-72" transform="translate(1469.650391 0)"/>
     <use xlink:href="#DejaVuSans-75" transform="translate(1510.763672 0)"/>
     <use xlink:href="#DejaVuSans-6d" transform="translate(1574.142578 0)"/>
    </g>
   </g>
   <g id="legend_1">
    <g id="patch_7">
     <path d="M 479.939062 44.99625 
L 587.7625 44.99625 
Q 589.7625 44.99625 589.7625 42.99625 
L 589.7625 29.318125 
Q 589.7625 27.318125 587.7625 27.318125 
L 479.939062 27.318125 
Q 477.939062 27.318125 477.939062 29.318125 
L 477.939062 42.99625 
Q 477.939062 44.99625 479.939062 44.99625 
z
" style="fill: #ffffff; opacity: 0.8; stroke: #cccccc; stroke-linejoin: miter"/>
    </g>
    <g id="line2d_16">
     <path d="M 481.939062 35.416563 
L 491.939062 35.416563 
L 501.939062 35.416563 
" style="fill: none; stroke: #1f77b4; stroke-width: 1.5; stroke-linecap: square"/>
    </g>
    <g id="text_19">
     <!-- Formal integral -->
     <g transform="translate(509.939062 38.916563) scale(0.1 -0.1)">
      <defs>
       <path id="DejaVuSans-46" d="M 628 4666 
L 3309 4666 
L 3309 4134 
L 1259 4134 
L 1259 2759 
L 3109 2759 
L 3109 2228 
L 1259 2228 
L 1259 0 
L 628 0 
L 628 4666 
z
" transform="scale(0.015625)"/>
      </defs>
      <use xlink:href="#DejaVuSans-46"/>
      <use xlink:href="#DejaVuSans-6f" transform="translate(53.894531 0)"/>
      <use xlink:href="#DejaVuSans-72" transform="translate(115.076172 0)"/>
      <use xlink:href="#DejaVuSans-6d" transform="translate(154.439453 0)"/>
      <use xlink:href="#DejaVuSans-61" transform="translate(251.851562 0)"/>
      <use xlink:href="#DejaVuSans-6c" transform="translate(313.130859 0)"/>
      <use xlink:href="#DejaVuSans-20" transform="translate(340.914062 0)"/>
      <use xlink:href="#DejaVuSans-69" transform="translate(372.701172 0)"/>
      <use xlink:href="#DejaVuSans-6e" transform="translate(400.484375 0)"/>
      <use xlink:href="#DejaVuSans-74" transform="translate(463.863281 0)"/>
      <use xlink:href="#DejaVuSans-65" transform="translate(503.072266 0)"/>
      <use xlink:href="#DejaVuSans-67" transform="translate(564.595703 0)"/>
      <use xlink:href="#DejaVuSans-72" transform="translate(628.072266 0)"/>
      <use xlink:href="#DejaVuSans-61" transform="translate(669.185547 0)"/>
      <use xlink:href="#DejaVuSans-6c" transform="translate(730.464844 0)"/>
     </g>
    </g>
   </g>
  </g>
 </g>
 <defs>
  <clipPath id="p4e221e1fb6">
   <rect x="36.7625" y="22.318125" width="558" height="360.36"/>
  </clipPath>
 </defs>
</svg>
