<?xml version="1.0" encoding="utf-8" standalone="no"?>
<!DOCTYPE svg PUBLIC "-//W3C//DTD SVG 1.1//EN"
  "http://www.w3.org/Graphics/SVG/1.1/DTD/svg11.dtd">
<svg xmlns:xlink="http://www.w3.org/1999/xlink" width="409.523125pt" height="321.488562pt" viewBox="0 0 409.523125 321.488562" xmlns="http://www.w3.org/2000/svg" version="1.1">
 <metadata>
  <rdf:RDF xmlns:dc="http://purl.org/dc/elements/1.1/" xmlns:cc="http://creativecommons.org/ns#" xmlns:rdf="http://www.w3.org/1999/02/22-rdf-syntax-ns#">
   <cc:Work>
    <dc:type rdf:resource="http://purl.org/dc/dcmitype/StillImage"/>
    <dc:date>2025-08-04T16:50:49.872613</dc:date>
    <dc:format>image/svg+xml</dc:format>
    <dc:creator>
     <cc:Agent>
      <dc:title>Matplotlib v3.10.3, https://matplotlib.org/</dc:title>
     </cc:Agent>
    </dc:creator>
   </cc:Work>
  </rdf:RDF>
 </metadata>
 <defs>
  <style type="text/css">*{stroke-linejoin: round; stroke-linecap: butt}</style>
 </defs>
 <g id="figure_1">
  <g id="patch_1">
   <path d="M 0 321.488562 
L 409.523125 321.488562 
L 409.523125 0 
L 0 0 
z
" style="fill: #ffffff"/>
  </g>
  <g id="axes_1">
   <g id="patch_2">
    <path d="M 45.203125 283.910437 
L 402.323125 283.910437 
L 402.323125 17.798437 
L 45.203125 17.798437 
z
" style="fill: #ffffff"/>
   </g>
   <g id="matplotlib.axis_1">
    <g id="xtick_1">
     <g id="line2d_1">
      <defs>
       <path id="mfb75c8a961" d="M 0 0 
L 0 3.5 
" style="stroke: #000000; stroke-width: 0.8"/>
      </defs>
      <g>
       <use xlink:href="#mfb75c8a961" x="101.385608" y="283.910437" style="stroke: #000000; stroke-width: 0.8"/>
      </g>
     </g>
     <g id="text_1">
      <!-- 0.5 -->
      <g transform="translate(93.434046 298.508875) scale(0.1 -0.1)">
       <defs>
        <path id="DejaVuSans-30" d="M 2034 4250 
Q 1547 4250 1301 3770 
Q 1056 3291 1056 2328 
Q 1056 1369 1301 889 
Q 1547 409 2034 409 
Q 2525 409 2770 889 
Q 3016 1369 3016 2328 
Q 3016 3291 2770 3770 
Q 2525 4250 2034 4250 
z
M 2034 4750 
Q 2819 4750 3233 4129 
Q 3647 3509 3647 2328 
Q 3647 1150 3233 529 
Q 2819 -91 2034 -91 
Q 1250 -91 836 529 
Q 422 1150 422 2328 
Q 422 3509 836 4129 
Q 1250 4750 2034 4750 
z
" transform="scale(0.015625)"/>
        <path id="DejaVuSans-2e" d="M 684 794 
L 1344 794 
L 1344 0 
L 684 0 
L 684 794 
z
" transform="scale(0.015625)"/>
        <path id="DejaVuSans-35" d="M 691 4666 
L 3169 4666 
L 3169 4134 
L 1269 4134 
L 1269 2991 
Q 1406 3038 1543 3061 
Q 1681 3084 1819 3084 
Q 2600 3084 3056 2656 
Q 3513 2228 3513 1497 
Q 3513 744 3044 326 
Q 2575 -91 1722 -91 
Q 1428 -91 1123 -41 
Q 819 9 494 109 
L 494 744 
Q 775 591 1075 516 
Q 1375 441 1709 441 
Q 2250 441 2565 725 
Q 2881 1009 2881 1497 
Q 2881 1984 2565 2268 
Q 2250 2553 1709 2553 
Q 1456 2553 1204 2497 
Q 953 2441 691 2322 
L 691 4666 
z
" transform="scale(0.015625)"/>
       </defs>
       <use xlink:href="#DejaVuSans-30"/>
       <use xlink:href="#DejaVuSans-2e" transform="translate(63.623047 0)"/>
       <use xlink:href="#DejaVuSans-35" transform="translate(95.410156 0)"/>
      </g>
     </g>
    </g>
    <g id="xtick_2">
     <g id="line2d_2">
      <g>
       <use xlink:href="#mfb75c8a961" x="158.456688" y="283.910437" style="stroke: #000000; stroke-width: 0.8"/>
      </g>
     </g>
     <g id="text_2">
      <!-- 1.0 -->
      <g transform="translate(150.505126 298.508875) scale(0.1 -0.1)">
       <defs>
        <path id="DejaVuSans-31" d="M 794 531 
L 1825 531 
L 1825 4091 
L 703 3866 
L 703 4441 
L 1819 4666 
L 2450 4666 
L 2450 531 
L 3481 531 
L 3481 0 
L 794 0 
L 794 531 
z
" transform="scale(0.015625)"/>
       </defs>
       <use xlink:href="#DejaVuSans-31"/>
       <use xlink:href="#DejaVuSans-2e" transform="translate(63.623047 0)"/>
       <use xlink:href="#DejaVuSans-30" transform="translate(95.410156 0)"/>
      </g>
     </g>
    </g>
    <g id="xtick_3">
     <g id="line2d_3">
      <g>
       <use xlink:href="#mfb75c8a961" x="215.527768" y="283.910437" style="stroke: #000000; stroke-width: 0.8"/>
      </g>
     </g>
     <g id="text_3">
      <!-- 1.5 -->
      <g transform="translate(207.576206 298.508875) scale(0.1 -0.1)">
       <use xlink:href="#DejaVuSans-31"/>
       <use xlink:href="#DejaVuSans-2e" transform="translate(63.623047 0)"/>
       <use xlink:href="#DejaVuSans-35" transform="translate(95.410156 0)"/>
      </g>
     </g>
    </g>
    <g id="xtick_4">
     <g id="line2d_4">
      <g>
       <use xlink:href="#mfb75c8a961" x="272.598848" y="283.910437" style="stroke: #000000; stroke-width: 0.8"/>
      </g>
     </g>
     <g id="text_4">
      <!-- 2.0 -->
      <g transform="translate(264.647286 298.508875) scale(0.1 -0.1)">
       <defs>
        <path id="DejaVuSans-32" d="M 1228 531 
L 3431 531 
L 3431 0 
L 469 0 
L 469 531 
Q 828 903 1448 1529 
Q 2069 2156 2228 2338 
Q 2531 2678 2651 2914 
Q 2772 3150 2772 3378 
Q 2772 3750 2511 3984 
Q 2250 4219 1831 4219 
Q 1534 4219 1204 4116 
Q 875 4013 500 3803 
L 500 4441 
Q 881 4594 1212 4672 
Q 1544 4750 1819 4750 
Q 2544 4750 2975 4387 
Q 3406 4025 3406 3419 
Q 3406 3131 3298 2873 
Q 3191 2616 2906 2266 
Q 2828 2175 2409 1742 
Q 1991 1309 1228 531 
z
" transform="scale(0.015625)"/>
       </defs>
       <use xlink:href="#DejaVuSans-32"/>
       <use xlink:href="#DejaVuSans-2e" transform="translate(63.623047 0)"/>
       <use xlink:href="#DejaVuSans-30" transform="translate(95.410156 0)"/>
      </g>
     </g>
    </g>
    <g id="xtick_5">
     <g id="line2d_5">
      <g>
       <use xlink:href="#mfb75c8a961" x="329.669928" y="283.910437" style="stroke: #000000; stroke-width: 0.8"/>
      </g>
     </g>
     <g id="text_5">
      <!-- 2.5 -->
      <g transform="translate(321.718366 298.508875) scale(0.1 -0.1)">
       <use xlink:href="#DejaVuSans-32"/>
       <use xlink:href="#DejaVuSans-2e" transform="translate(63.623047 0)"/>
       <use xlink:href="#DejaVuSans-35" transform="translate(95.410156 0)"/>
      </g>
     </g>
    </g>
    <g id="xtick_6">
     <g id="line2d_6">
      <g>
       <use xlink:href="#mfb75c8a961" x="386.741008" y="283.910437" style="stroke: #000000; stroke-width: 0.8"/>
      </g>
     </g>
     <g id="text_6">
      <!-- 3.0 -->
      <g transform="translate(378.789446 298.508875) scale(0.1 -0.1)">
       <defs>
        <path id="DejaVuSans-33" d="M 2597 2516 
Q 3050 2419 3304 2112 
Q 3559 1806 3559 1356 
Q 3559 666 3084 287 
Q 2609 -91 1734 -91 
Q 1441 -91 1130 -33 
Q 819 25 488 141 
L 488 750 
Q 750 597 1062 519 
Q 1375 441 1716 441 
Q 2309 441 2620 675 
Q 2931 909 2931 1356 
Q 2931 1769 2642 2001 
Q 2353 2234 1838 2234 
L 1294 2234 
L 1294 2753 
L 1863 2753 
Q 2328 2753 2575 2939 
Q 2822 3125 2822 3475 
Q 2822 3834 2567 4026 
Q 2313 4219 1838 4219 
Q 1578 4219 1281 4162 
Q 984 4106 628 3988 
L 628 4550 
Q 988 4650 1302 4700 
Q 1616 4750 1894 4750 
Q 2613 4750 3031 4423 
Q 3450 4097 3450 3541 
Q 3450 3153 3228 2886 
Q 3006 2619 2597 2516 
z
" transform="scale(0.015625)"/>
       </defs>
       <use xlink:href="#DejaVuSans-33"/>
       <use xlink:href="#DejaVuSans-2e" transform="translate(63.623047 0)"/>
       <use xlink:href="#DejaVuSans-30" transform="translate(95.410156 0)"/>
      </g>
     </g>
    </g>
    <g id="text_7">
     <!-- Frequency [$\mathrm{Hz}$] -->
     <g transform="translate(185.563125 312.188562) scale(0.1 -0.1)">
      <defs>
       <path id="DejaVuSans-46" d="M 628 4666 
L 3309 4666 
L 3309 4134 
L 1259 4134 
L 1259 2759 
L 3109 2759 
L 3109 2228 
L 1259 2228 
L 1259 0 
L 628 0 
L 628 4666 
z
" transform="scale(0.015625)"/>
       <path id="DejaVuSans-72" d="M 2631 2963 
Q 2534 3019 2420 3045 
Q 2306 3072 2169 3072 
Q 1681 3072 1420 2755 
Q 1159 2438 1159 1844 
L 1159 0 
L 581 0 
L 581 3500 
L 1159 3500 
L 1159 2956 
Q 1341 3275 1631 3429 
Q 1922 3584 2338 3584 
Q 2397 3584 2469 3576 
Q 2541 3569 2628 3553 
L 2631 2963 
z
" transform="scale(0.015625)"/>
       <path id="DejaVuSans-65" d="M 3597 1894 
L 3597 1613 
L 953 1613 
Q 991 1019 1311 708 
Q 1631 397 2203 397 
Q 2534 397 2845 478 
Q 3156 559 3463 722 
L 3463 178 
Q 3153 47 2828 -22 
Q 2503 -91 2169 -91 
Q 1331 -91 842 396 
Q 353 884 353 1716 
Q 353 2575 817 3079 
Q 1281 3584 2069 3584 
Q 2775 3584 3186 3129 
Q 3597 2675 3597 1894 
z
M 3022 2063 
Q 3016 2534 2758 2815 
Q 2500 3097 2075 3097 
Q 1594 3097 1305 2825 
Q 1016 2553 972 2059 
L 3022 2063 
z
" transform="scale(0.015625)"/>
       <path id="DejaVuSans-71" d="M 947 1747 
Q 947 1113 1208 752 
Q 1469 391 1925 391 
Q 2381 391 2643 752 
Q 2906 1113 2906 1747 
Q 2906 2381 2643 2742 
Q 2381 3103 1925 3103 
Q 1469 3103 1208 2742 
Q 947 2381 947 1747 
z
M 2906 525 
Q 2725 213 2448 61 
Q 2172 -91 1784 -91 
Q 1150 -91 751 415 
Q 353 922 353 1747 
Q 353 2572 751 3078 
Q 1150 3584 1784 3584 
Q 2172 3584 2448 3432 
Q 2725 3281 2906 2969 
L 2906 3500 
L 3481 3500 
L 3481 -1331 
L 2906 -1331 
L 2906 525 
z
" transform="scale(0.015625)"/>
       <path id="DejaVuSans-75" d="M 544 1381 
L 544 3500 
L 1119 3500 
L 1119 1403 
Q 1119 906 1312 657 
Q 1506 409 1894 409 
Q 2359 409 2629 706 
Q 2900 1003 2900 1516 
L 2900 3500 
L 3475 3500 
L 3475 0 
L 2900 0 
L 2900 538 
Q 2691 219 2414 64 
Q 2138 -91 1772 -91 
Q 1169 -91 856 284 
Q 544 659 544 1381 
z
M 1991 3584 
L 1991 3584 
z
" transform="scale(0.015625)"/>
       <path id="DejaVuSans-6e" d="M 3513 2113 
L 3513 0 
L 2938 0 
L 2938 2094 
Q 2938 2591 2744 2837 
Q 2550 3084 2163 3084 
Q 1697 3084 1428 2787 
Q 1159 2491 1159 1978 
L 1159 0 
L 581 0 
L 581 3500 
L 1159 3500 
L 1159 2956 
Q 1366 3272 1645 3428 
Q 1925 3584 2291 3584 
Q 2894 3584 3203 3211 
Q 3513 2838 3513 2113 
z
" transform="scale(0.015625)"/>
       <path id="DejaVuSans-63" d="M 3122 3366 
L 3122 2828 
Q 2878 2963 2633 3030 
Q 2388 3097 2138 3097 
Q 1578 3097 1268 2742 
Q 959 2388 959 1747 
Q 959 1106 1268 751 
Q 1578 397 2138 397 
Q 2388 397 2633 464 
Q 2878 531 3122 666 
L 3122 134 
Q 2881 22 2623 -34 
Q 2366 -91 2075 -91 
Q 1284 -91 818 406 
Q 353 903 353 1747 
Q 353 2603 823 3093 
Q 1294 3584 2113 3584 
Q 2378 3584 2631 3529 
Q 2884 3475 3122 3366 
z
" transform="scale(0.015625)"/>
       <path id="DejaVuSans-79" d="M 2059 -325 
Q 1816 -950 1584 -1140 
Q 1353 -1331 966 -1331 
L 506 -1331 
L 506 -850 
L 844 -850 
Q 1081 -850 1212 -737 
Q 1344 -625 1503 -206 
L 1606 56 
L 191 3500 
L 800 3500 
L 1894 763 
L 2988 3500 
L 3597 3500 
L 2059 -325 
z
" transform="scale(0.015625)"/>
       <path id="DejaVuSans-20" transform="scale(0.015625)"/>
       <path id="DejaVuSans-5b" d="M 550 4863 
L 1875 4863 
L 1875 4416 
L 1125 4416 
L 1125 -397 
L 1875 -397 
L 1875 -844 
L 550 -844 
L 550 4863 
z
" transform="scale(0.015625)"/>
       <path id="DejaVuSans-48" d="M 628 4666 
L 1259 4666 
L 1259 2753 
L 3553 2753 
L 3553 4666 
L 4184 4666 
L 4184 0 
L 3553 0 
L 3553 2222 
L 1259 2222 
L 1259 0 
L 628 0 
L 628 4666 
z
" transform="scale(0.015625)"/>
       <path id="DejaVuSans-7a" d="M 353 3500 
L 3084 3500 
L 3084 2975 
L 922 459 
L 3084 459 
L 3084 0 
L 275 0 
L 275 525 
L 2438 3041 
L 353 3041 
L 353 3500 
z
" transform="scale(0.015625)"/>
       <path id="DejaVuSans-5d" d="M 1947 4863 
L 1947 -844 
L 622 -844 
L 622 -397 
L 1369 -397 
L 1369 4416 
L 622 4416 
L 622 4863 
L 1947 4863 
z
" transform="scale(0.015625)"/>
      </defs>
      <use xlink:href="#DejaVuSans-46" transform="translate(0 0.015625)"/>
      <use xlink:href="#DejaVuSans-72" transform="translate(57.519531 0.015625)"/>
      <use xlink:href="#DejaVuSans-65" transform="translate(98.632812 0.015625)"/>
      <use xlink:href="#DejaVuSans-71" transform="translate(160.15625 0.015625)"/>
      <use xlink:href="#DejaVuSans-75" transform="translate(223.632812 0.015625)"/>
      <use xlink:href="#DejaVuSans-65" transform="translate(287.011719 0.015625)"/>
      <use xlink:href="#DejaVuSans-6e" transform="translate(348.535156 0.015625)"/>
      <use xlink:href="#DejaVuSans-63" transform="translate(411.914062 0.015625)"/>
      <use xlink:href="#DejaVuSans-79" transform="translate(466.894531 0.015625)"/>
      <use xlink:href="#DejaVuSans-20" transform="translate(526.074219 0.015625)"/>
      <use xlink:href="#DejaVuSans-5b" transform="translate(557.861328 0.015625)"/>
      <use xlink:href="#DejaVuSans-48" transform="translate(596.875 0.015625)"/>
      <use xlink:href="#DejaVuSans-7a" transform="translate(672.070312 0.015625)"/>
      <use xlink:href="#DejaVuSans-5d" transform="translate(724.560547 0.015625)"/>
     </g>
    </g>
    <g id="text_8">
     <!-- 1e15 -->
     <g transform="translate(377.0825 311.187) scale(0.1 -0.1)">
      <use xlink:href="#DejaVuSans-31"/>
      <use xlink:href="#DejaVuSans-65" transform="translate(63.623047 0)"/>
      <use xlink:href="#DejaVuSans-31" transform="translate(125.146484 0)"/>
      <use xlink:href="#DejaVuSans-35" transform="translate(188.769531 0)"/>
     </g>
    </g>
   </g>
   <g id="matplotlib.axis_2">
    <g id="ytick_1">
     <g id="line2d_7">
      <defs>
       <path id="mff9a3e280d" d="M 0 0 
L -3.5 0 
" style="stroke: #000000; stroke-width: 0.8"/>
      </defs>
      <g>
       <use xlink:href="#mff9a3e280d" x="45.203125" y="271.814437" style="stroke: #000000; stroke-width: 0.8"/>
      </g>
     </g>
     <g id="text_9">
      <!-- 0.0 -->
      <g transform="translate(22.3 275.613656) scale(0.1 -0.1)">
       <use xlink:href="#DejaVuSans-30"/>
       <use xlink:href="#DejaVuSans-2e" transform="translate(63.623047 0)"/>
       <use xlink:href="#DejaVuSans-30" transform="translate(95.410156 0)"/>
      </g>
     </g>
    </g>
    <g id="ytick_2">
     <g id="line2d_8">
      <g>
       <use xlink:href="#mff9a3e280d" x="45.203125" y="236.26516" style="stroke: #000000; stroke-width: 0.8"/>
      </g>
     </g>
     <g id="text_10">
      <!-- 0.2 -->
      <g transform="translate(22.3 240.064378) scale(0.1 -0.1)">
       <use xlink:href="#DejaVuSans-30"/>
       <use xlink:href="#DejaVuSans-2e" transform="translate(63.623047 0)"/>
       <use xlink:href="#DejaVuSans-32" transform="translate(95.410156 0)"/>
      </g>
     </g>
    </g>
    <g id="ytick_3">
     <g id="line2d_9">
      <g>
       <use xlink:href="#mff9a3e280d" x="45.203125" y="200.715882" style="stroke: #000000; stroke-width: 0.8"/>
      </g>
     </g>
     <g id="text_11">
      <!-- 0.4 -->
      <g transform="translate(22.3 204.515101) scale(0.1 -0.1)">
       <defs>
        <path id="DejaVuSans-34" d="M 2419 4116 
L 825 1625 
L 2419 1625 
L 2419 4116 
z
M 2253 4666 
L 3047 4666 
L 3047 1625 
L 3713 1625 
L 3713 1100 
L 3047 1100 
L 3047 0 
L 2419 0 
L 2419 1100 
L 313 1100 
L 313 1709 
L 2253 4666 
z
" transform="scale(0.015625)"/>
       </defs>
       <use xlink:href="#DejaVuSans-30"/>
       <use xlink:href="#DejaVuSans-2e" transform="translate(63.623047 0)"/>
       <use xlink:href="#DejaVuSans-34" transform="translate(95.410156 0)"/>
      </g>
     </g>
    </g>
    <g id="ytick_4">
     <g id="line2d_10">
      <g>
       <use xlink:href="#mff9a3e280d" x="45.203125" y="165.166604" style="stroke: #000000; stroke-width: 0.8"/>
      </g>
     </g>
     <g id="text_12">
      <!-- 0.6 -->
      <g transform="translate(22.3 168.965823) scale(0.1 -0.1)">
       <defs>
        <path id="DejaVuSans-36" d="M 2113 2584 
Q 1688 2584 1439 2293 
Q 1191 2003 1191 1497 
Q 1191 994 1439 701 
Q 1688 409 2113 409 
Q 2538 409 2786 701 
Q 3034 994 3034 1497 
Q 3034 2003 2786 2293 
Q 2538 2584 2113 2584 
z
M 3366 4563 
L 3366 3988 
Q 3128 4100 2886 4159 
Q 2644 4219 2406 4219 
Q 1781 4219 1451 3797 
Q 1122 3375 1075 2522 
Q 1259 2794 1537 2939 
Q 1816 3084 2150 3084 
Q 2853 3084 3261 2657 
Q 3669 2231 3669 1497 
Q 3669 778 3244 343 
Q 2819 -91 2113 -91 
Q 1303 -91 875 529 
Q 447 1150 447 2328 
Q 447 3434 972 4092 
Q 1497 4750 2381 4750 
Q 2619 4750 2861 4703 
Q 3103 4656 3366 4563 
z
" transform="scale(0.015625)"/>
       </defs>
       <use xlink:href="#DejaVuSans-30"/>
       <use xlink:href="#DejaVuSans-2e" transform="translate(63.623047 0)"/>
       <use xlink:href="#DejaVuSans-36" transform="translate(95.410156 0)"/>
      </g>
     </g>
    </g>
    <g id="ytick_5">
     <g id="line2d_11">
      <g>
       <use xlink:href="#mff9a3e280d" x="45.203125" y="129.617326" style="stroke: #000000; stroke-width: 0.8"/>
      </g>
     </g>
     <g id="text_13">
      <!-- 0.8 -->
      <g transform="translate(22.3 133.416545) scale(0.1 -0.1)">
       <defs>
        <path id="DejaVuSans-38" d="M 2034 2216 
Q 1584 2216 1326 1975 
Q 1069 1734 1069 1313 
Q 1069 891 1326 650 
Q 1584 409 2034 409 
Q 2484 409 2743 651 
Q 3003 894 3003 1313 
Q 3003 1734 2745 1975 
Q 2488 2216 2034 2216 
z
M 1403 2484 
Q 997 2584 770 2862 
Q 544 3141 544 3541 
Q 544 4100 942 4425 
Q 1341 4750 2034 4750 
Q 2731 4750 3128 4425 
Q 3525 4100 3525 3541 
Q 3525 3141 3298 2862 
Q 3072 2584 2669 2484 
Q 3125 2378 3379 2068 
Q 3634 1759 3634 1313 
Q 3634 634 3220 271 
Q 2806 -91 2034 -91 
Q 1263 -91 848 271 
Q 434 634 434 1313 
Q 434 1759 690 2068 
Q 947 2378 1403 2484 
z
M 1172 3481 
Q 1172 3119 1398 2916 
Q 1625 2713 2034 2713 
Q 2441 2713 2670 2916 
Q 2900 3119 2900 3481 
Q 2900 3844 2670 4047 
Q 2441 4250 2034 4250 
Q 1625 4250 1398 4047 
Q 1172 3844 1172 3481 
z
" transform="scale(0.015625)"/>
       </defs>
       <use xlink:href="#DejaVuSans-30"/>
       <use xlink:href="#DejaVuSans-2e" transform="translate(63.623047 0)"/>
       <use xlink:href="#DejaVuSans-38" transform="translate(95.410156 0)"/>
      </g>
     </g>
    </g>
    <g id="ytick_6">
     <g id="line2d_12">
      <g>
       <use xlink:href="#mff9a3e280d" x="45.203125" y="94.068048" style="stroke: #000000; stroke-width: 0.8"/>
      </g>
     </g>
     <g id="text_14">
      <!-- 1.0 -->
      <g transform="translate(22.3 97.867267) scale(0.1 -0.1)">
       <use xlink:href="#DejaVuSans-31"/>
       <use xlink:href="#DejaVuSans-2e" transform="translate(63.623047 0)"/>
       <use xlink:href="#DejaVuSans-30" transform="translate(95.410156 0)"/>
      </g>
     </g>
    </g>
    <g id="ytick_7">
     <g id="line2d_13">
      <g>
       <use xlink:href="#mff9a3e280d" x="45.203125" y="58.51877" style="stroke: #000000; stroke-width: 0.8"/>
      </g>
     </g>
     <g id="text_15">
      <!-- 1.2 -->
      <g transform="translate(22.3 62.317989) scale(0.1 -0.1)">
       <use xlink:href="#DejaVuSans-31"/>
       <use xlink:href="#DejaVuSans-2e" transform="translate(63.623047 0)"/>
       <use xlink:href="#DejaVuSans-32" transform="translate(95.410156 0)"/>
      </g>
     </g>
    </g>
    <g id="ytick_8">
     <g id="line2d_14">
      <g>
       <use xlink:href="#mff9a3e280d" x="45.203125" y="22.969492" style="stroke: #000000; stroke-width: 0.8"/>
      </g>
     </g>
     <g id="text_16">
      <!-- 1.4 -->
      <g transform="translate(22.3 26.768711) scale(0.1 -0.1)">
       <use xlink:href="#DejaVuSans-31"/>
       <use xlink:href="#DejaVuSans-2e" transform="translate(63.623047 0)"/>
       <use xlink:href="#DejaVuSans-34" transform="translate(95.410156 0)"/>
      </g>
     </g>
    </g>
    <g id="text_17">
     <!-- $L_\nu$ [$\mathrm{erg s^{-1} Hz^{-1}}$] -->
     <g transform="translate(16.2 189.254437) rotate(-90) scale(0.1 -0.1)">
      <defs>
       <path id="DejaVuSans-Oblique-4c" d="M 1075 4666 
L 1709 4666 
L 909 525 
L 3181 525 
L 3078 0 
L 172 0 
L 1075 4666 
z
" transform="scale(0.015625)"/>
       <path id="DejaVuSans-Oblique-3bd" d="M 959 0 
L 572 3500 
L 1191 3500 
L 1522 563 
Q 1972 950 2391 1488 
Q 2706 1891 2788 2241 
Q 2825 2406 2809 2719 
Q 2794 3091 2544 3500 
L 3125 3500 
L 3125 3500 
Q 3288 3222 3353 2834 
Q 3416 2478 3369 2234 
Q 3250 1622 2719 1075 
Q 2025 363 1572 0 
L 959 0 
z
" transform="scale(0.015625)"/>
       <path id="DejaVuSans-67" d="M 2906 1791 
Q 2906 2416 2648 2759 
Q 2391 3103 1925 3103 
Q 1463 3103 1205 2759 
Q 947 2416 947 1791 
Q 947 1169 1205 825 
Q 1463 481 1925 481 
Q 2391 481 2648 825 
Q 2906 1169 2906 1791 
z
M 3481 434 
Q 3481 -459 3084 -895 
Q 2688 -1331 1869 -1331 
Q 1566 -1331 1297 -1286 
Q 1028 -1241 775 -1147 
L 775 -588 
Q 1028 -725 1275 -790 
Q 1522 -856 1778 -856 
Q 2344 -856 2625 -561 
Q 2906 -266 2906 331 
L 2906 616 
Q 2728 306 2450 153 
Q 2172 0 1784 0 
Q 1141 0 747 490 
Q 353 981 353 1791 
Q 353 2603 747 3093 
Q 1141 3584 1784 3584 
Q 2172 3584 2450 3431 
Q 2728 3278 2906 2969 
L 2906 3500 
L 3481 3500 
L 3481 434 
z
" transform="scale(0.015625)"/>
       <path id="DejaVuSans-73" d="M 2834 3397 
L 2834 2853 
Q 2591 2978 2328 3040 
Q 2066 3103 1784 3103 
Q 1356 3103 1142 2972 
Q 928 2841 928 2578 
Q 928 2378 1081 2264 
Q 1234 2150 1697 2047 
L 1894 2003 
Q 2506 1872 2764 1633 
Q 3022 1394 3022 966 
Q 3022 478 2636 193 
Q 2250 -91 1575 -91 
Q 1294 -91 989 -36 
Q 684 19 347 128 
L 347 722 
Q 666 556 975 473 
Q 1284 391 1588 391 
Q 1994 391 2212 530 
Q 2431 669 2431 922 
Q 2431 1156 2273 1281 
Q 2116 1406 1581 1522 
L 1381 1569 
Q 847 1681 609 1914 
Q 372 2147 372 2553 
Q 372 3047 722 3315 
Q 1072 3584 1716 3584 
Q 2034 3584 2315 3537 
Q 2597 3491 2834 3397 
z
" transform="scale(0.015625)"/>
       <path id="DejaVuSans-2212" d="M 678 2272 
L 4684 2272 
L 4684 1741 
L 678 1741 
L 678 2272 
z
" transform="scale(0.015625)"/>
      </defs>
      <use xlink:href="#DejaVuSans-Oblique-4c" transform="translate(0 0.684375)"/>
      <use xlink:href="#DejaVuSans-Oblique-3bd" transform="translate(55.712891 -15.721875) scale(0.7)"/>
      <use xlink:href="#DejaVuSans-20" transform="translate(97.548828 0.684375)"/>
      <use xlink:href="#DejaVuSans-5b" transform="translate(129.335938 0.684375)"/>
      <use xlink:href="#DejaVuSans-65" transform="translate(168.349609 0.684375)"/>
      <use xlink:href="#DejaVuSans-72" transform="translate(229.873047 0.684375)"/>
      <use xlink:href="#DejaVuSans-67" transform="translate(270.986328 0.684375)"/>
      <use xlink:href="#DejaVuSans-73" transform="translate(334.462891 0.684375)"/>
      <use xlink:href="#DejaVuSans-2212" transform="translate(387.519531 38.965625) scale(0.7)"/>
      <use xlink:href="#DejaVuSans-31" transform="translate(446.171875 38.965625) scale(0.7)"/>
      <use xlink:href="#DejaVuSans-48" transform="translate(493.442383 0.684375)"/>
      <use xlink:href="#DejaVuSans-7a" transform="translate(568.637695 0.684375)"/>
      <use xlink:href="#DejaVuSans-2212" transform="translate(622.084961 38.965625) scale(0.7)"/>
      <use xlink:href="#DejaVuSans-31" transform="translate(680.737305 38.965625) scale(0.7)"/>
      <use xlink:href="#DejaVuSans-5d" transform="translate(728.007812 0.684375)"/>
     </g>
    </g>
    <g id="text_18">
     <!-- 1e28 -->
     <g transform="translate(45.203125 14.798437) scale(0.1 -0.1)">
      <use xlink:href="#DejaVuSans-31"/>
      <use xlink:href="#DejaVuSans-65" transform="translate(63.623047 0)"/>
      <use xlink:href="#DejaVuSans-32" transform="translate(125.146484 0)"/>
      <use xlink:href="#DejaVuSans-38" transform="translate(188.769531 0)"/>
     </g>
    </g>
   </g>
   <g id="line2d_15">
    <path d="M 61.435852 244.774293 
L 62.086463 231.44119 
L 62.737073 224.970022 
L 64.038294 237.937681 
L 64.688904 211.813902 
L 65.339514 204.478117 
L 65.990124 177.51528 
L 66.640735 191.396142 
L 67.291345 224.83534 
L 68.592566 170.914438 
L 69.243176 164.317886 
L 69.893786 171.119713 
L 70.544397 224.397727 
L 71.195007 197.99055 
L 71.845617 218.32656 
L 72.496228 184.504069 
L 73.146838 197.960421 
L 73.797448 150.858588 
L 74.448059 143.586337 
L 75.098669 177.119555 
L 75.749279 191.506793 
L 76.399889 197.432062 
L 77.0505 177.455016 
L 77.70111 164.130228 
L 78.35172 130.282697 
L 79.002331 123.247288 
L 79.652941 164.070761 
L 80.303551 164.289156 
L 80.954162 184.053083 
L 81.604772 171.044777 
L 82.255382 183.670338 
L 82.905993 150.746398 
L 83.556603 159.215706 
L 84.207213 137.443111 
L 84.857823 143.772258 
L 85.508434 158.613977 
L 86.159044 116.197106 
L 86.809654 144.118872 
L 87.460265 164.087817 
L 88.110875 151.09751 
L 88.761485 191.339485 
L 89.412096 157.211948 
L 90.062706 144.456213 
L 90.713316 124.223157 
L 91.363927 144.572434 
L 92.014537 150.870528 
L 92.665147 144.810524 
L 93.315758 104.910129 
L 93.966368 124.010322 
L 94.616978 85.116943 
L 95.267588 130.070286 
L 95.918199 156.99037 
L 96.568809 64.495539 
L 97.219419 58.304641 
L 97.87003 151.294665 
L 98.52064 103.754858 
L 99.17125 151.421178 
L 99.821861 178.137792 
L 100.472471 178.831104 
L 101.123081 124.956564 
L 101.773692 143.904185 
L 102.424302 157.88742 
L 103.074912 185.049412 
L 103.725523 124.607506 
L 104.376133 29.894437 
L 105.026743 104.548362 
L 105.677353 84.18894 
L 106.327964 184.472115 
L 107.629184 150.712066 
L 108.279795 198.898206 
L 109.581015 139.030621 
L 110.231626 165.855997 
L 110.882236 150.603615 
L 111.532846 97.587081 
L 112.183457 97.894367 
L 112.834067 165.776716 
L 113.484677 144.22581 
L 114.135288 192.577904 
L 115.436508 151.453274 
L 116.087118 91.063131 
L 116.737729 170.88062 
L 117.388339 164.325475 
L 118.038949 144.402594 
L 119.34017 82.250872 
L 119.99078 76.715392 
L 120.641391 165.358292 
L 121.292001 96.935098 
L 121.942611 138.063889 
L 122.593222 125.099486 
L 123.243832 150.522438 
L 123.894442 48.889441 
L 124.545052 150.569771 
L 125.195663 139.263078 
L 125.846273 156.859457 
L 126.496883 197.769837 
L 127.147494 157.560467 
L 127.798104 110.336718 
L 128.448714 110.497183 
L 129.099325 178.340977 
L 129.749935 191.816459 
L 130.400545 165.594677 
L 131.051156 104.433695 
L 131.701766 130.748572 
L 132.352376 151.614291 
L 133.002987 211.538561 
L 133.653597 184.885403 
L 134.954817 211.641271 
L 135.605428 191.802978 
L 136.256038 184.946909 
L 136.906648 164.141947 
L 137.557259 56.311229 
L 138.207869 145.335355 
L 138.858479 178.318056 
L 140.1597 124.252512 
L 140.81031 124.149227 
L 141.460921 130.000587 
L 142.111531 110.432785 
L 142.762141 164.535254 
L 143.412752 130.181131 
L 144.063362 210.857881 
L 144.713972 144.225223 
L 145.364582 130.913467 
L 146.015193 136.807908 
L 146.665803 104.737881 
L 147.316413 177.698264 
L 147.967024 129.814974 
L 148.617634 191.556373 
L 149.268244 157.520919 
L 149.918855 117.428147 
L 150.569465 177.715469 
L 151.220075 124.40027 
L 151.870686 191.353376 
L 152.521296 185.03212 
L 153.171906 156.944906 
L 154.473127 184.343638 
L 155.123737 191.834667 
L 155.774347 163.995325 
L 156.424958 157.735615 
L 157.075568 156.98427 
L 157.726178 157.907705 
L 158.376789 164.069125 
L 159.027399 218.056735 
L 159.678009 178.524337 
L 160.32862 178.775491 
L 160.97923 184.06471 
L 161.62984 165.593026 
L 162.280451 137.563677 
L 162.931061 213.925655 
L 163.581671 164.027936 
L 164.232281 179.803592 
L 164.882892 167.136964 
L 165.533502 164.918248 
L 166.184112 147.785408 
L 166.834723 171.349027 
L 167.485333 172.305567 
L 168.135943 159.120948 
L 168.786554 184.666045 
L 169.437164 157.850269 
L 170.087774 211.203829 
L 170.738385 219.006579 
L 171.388995 238.184771 
L 172.039605 237.91042 
L 172.690216 238.360991 
L 173.340826 239.140634 
L 173.991436 192.87409 
L 174.642046 212.254521 
L 175.292657 171.929446 
L 175.943267 178.799518 
L 176.593877 219.242756 
L 177.244488 199.193886 
L 177.895098 211.743956 
L 178.545708 145.395668 
L 179.196319 159.274687 
L 179.846929 192.374879 
L 180.497539 157.82276 
L 181.79876 185.862421 
L 182.44937 219.548389 
L 183.099981 205.432768 
L 183.750591 205.032435 
L 184.401201 225.366265 
L 185.051811 265.15294 
L 185.702422 251.922136 
L 186.353032 251.808165 
L 187.003642 271.814437 
L 188.304863 245.326371 
L 188.955473 251.559931 
L 189.606084 245.110834 
L 190.256694 251.752161 
L 190.907304 251.907861 
L 191.557915 224.400363 
L 192.208525 238.011858 
L 192.859135 224.204827 
L 193.509746 238.316119 
L 194.160356 217.769695 
L 194.810966 217.957761 
L 195.461576 211.741398 
L 196.112187 231.435382 
L 196.762797 211.31196 
L 197.413407 218.505268 
L 198.064018 224.301817 
L 198.714628 244.544936 
L 199.365238 258.170399 
L 200.015849 225.756789 
L 200.666459 245.060334 
L 201.317069 197.758584 
L 201.96768 231.087572 
L 202.61829 238.238229 
L 203.2689 231.853072 
L 203.91951 197.860912 
L 204.570121 231.411485 
L 205.220731 231.535339 
L 205.871341 204.362141 
L 207.172562 231.539013 
L 207.823172 218.139291 
L 208.473783 251.762806 
L 209.124393 218.850674 
L 209.775003 244.662463 
L 210.425614 218.381629 
L 211.076224 230.982761 
L 211.726834 212.3057 
L 212.377445 238.233999 
L 213.028055 212.052942 
L 213.678665 231.683547 
L 214.329275 258.52106 
L 214.979886 264.973483 
L 215.630496 265.338233 
L 216.281106 265.07304 
L 216.931717 238.302252 
L 217.582327 238.25865 
L 218.232937 237.948178 
L 218.883548 245.138394 
L 219.534158 238.05941 
L 220.184768 244.830181 
L 220.835379 231.36161 
L 221.485989 244.76266 
L 222.136599 251.481153 
L 222.78721 265.438219 
L 223.43782 217.493558 
L 224.08843 225.286906 
L 224.73904 258.89323 
L 225.389651 238.779359 
L 226.040261 244.938649 
L 226.690871 258.192208 
L 227.992092 244.931308 
L 228.642702 258.44486 
L 229.293313 238.089356 
L 229.943923 245.828804 
L 230.594533 258.30622 
L 231.245144 231.182526 
L 231.895754 252.058298 
L 232.546364 264.991706 
L 233.196975 245.628187 
L 233.847585 251.64473 
L 234.498195 265.3713 
L 235.148805 258.810283 
L 235.799416 265.125759 
L 236.450026 252.217032 
L 237.100636 258.96069 
L 237.751247 245.039673 
L 238.401857 271.814437 
L 239.052467 245.314777 
L 239.703078 271.814437 
L 241.004298 258.281626 
L 241.654909 258.359439 
L 242.305519 265.598664 
L 242.956129 265.1354 
L 243.60674 271.814437 
L 244.25735 238.898121 
L 244.90796 271.814437 
L 245.55857 271.814437 
L 246.209181 245.277787 
L 246.859791 251.707067 
L 247.510401 251.756051 
L 248.811622 264.968317 
L 249.462232 251.527843 
L 250.112843 271.814437 
L 250.763453 271.814437 
L 251.414063 265.246936 
L 252.064674 271.814437 
L 253.365894 271.814437 
L 254.016504 251.854788 
L 254.667115 251.687441 
L 255.317725 258.218515 
L 255.968335 271.814437 
L 256.618946 258.442244 
L 257.269556 271.814437 
L 257.920166 237.936595 
L 258.570777 265.150382 
L 259.221387 237.913166 
L 259.871997 258.341587 
L 260.522608 271.814437 
L 261.173218 271.814437 
L 261.823828 252.079489 
L 262.474439 265.321155 
L 263.125049 265.014452 
L 263.775659 258.263415 
L 264.426269 258.330654 
L 265.07688 265.009598 
L 265.72749 259.098316 
L 266.3781 251.869106 
L 267.028711 264.957418 
L 267.679321 244.99888 
L 268.329931 245.125448 
L 268.980542 271.814437 
L 269.631152 265.447928 
L 270.281762 252.544289 
L 270.932373 271.814437 
L 272.233593 258.578651 
L 272.884204 265.246877 
L 273.534814 265.007633 
L 274.185424 251.636072 
L 274.836034 264.985884 
L 275.486645 258.454242 
L 276.137255 258.206811 
L 276.787865 271.814437 
L 277.438476 271.814437 
L 278.089086 265.237227 
L 278.739696 271.814437 
L 280.040917 271.814437 
L 280.691527 265.717243 
L 281.342138 271.814437 
L 281.992748 265.59143 
L 282.643358 265.697136 
L 283.293969 271.814437 
L 283.944579 265.658944 
L 284.595189 271.814437 
L 285.245799 271.814437 
L 285.89641 252.172783 
L 286.54702 265.249372 
L 287.19763 271.814437 
L 287.848241 271.814437 
L 288.498851 258.851819 
L 289.149461 265.041372 
L 289.800072 258.320101 
L 290.450682 271.814437 
L 291.101292 265.215407 
L 291.751903 265.348046 
L 292.402513 271.814437 
L 293.053123 271.814437 
L 293.703733 265.021074 
L 294.354344 271.814437 
L 295.004954 271.814437 
L 295.655564 264.973408 
L 296.306175 271.814437 
L 302.812278 271.814437 
L 303.462888 265.370417 
L 304.113498 271.814437 
L 306.065329 271.814437 
L 307.36655 258.939199 
L 308.01716 271.814437 
L 309.318381 271.814437 
L 309.968991 259.849047 
L 310.619602 271.814437 
L 311.270212 265.168427 
L 311.920822 271.814437 
L 317.125705 271.814437 
L 317.776315 265.573648 
L 318.426925 271.814437 
L 322.981198 271.814437 
L 323.631808 265.270847 
L 324.282418 271.814437 
L 339.897066 271.814437 
L 340.547676 265.168206 
L 341.198286 271.814437 
L 350.957441 271.814437 
L 351.608051 265.158079 
L 352.258662 271.814437 
L 355.511713 271.814437 
L 356.162323 265.276795 
L 356.812934 271.814437 
L 386.090398 271.814437 
L 386.090398 271.814437 
" clip-path="url(#p4f50ae5271)" style="fill: none; stroke: #1f77b4; stroke-width: 1.5; stroke-linecap: square"/>
   </g>
   <g id="patch_3">
    <path d="M 45.203125 283.910437 
L 45.203125 17.798437 
" style="fill: none; stroke: #000000; stroke-width: 0.8; stroke-linejoin: miter; stroke-linecap: square"/>
   </g>
   <g id="patch_4">
    <path d="M 402.323125 283.910437 
L 402.323125 17.798437 
" style="fill: none; stroke: #000000; stroke-width: 0.8; stroke-linejoin: miter; stroke-linecap: square"/>
   </g>
   <g id="patch_5">
    <path d="M 45.203125 283.910437 
L 402.323125 283.910437 
" style="fill: none; stroke: #000000; stroke-width: 0.8; stroke-linejoin: miter; stroke-linecap: square"/>
   </g>
   <g id="patch_6">
    <path d="M 45.203125 17.798437 
L 402.323125 17.798437 
" style="fill: none; stroke: #000000; stroke-width: 0.8; stroke-linejoin: miter; stroke-linecap: square"/>
   </g>
  </g>
 </g>
 <defs>
  <clipPath id="p4f50ae5271">
   <rect x="45.203125" y="17.798437" width="357.12" height="266.112"/>
  </clipPath>
 </defs>
</svg>
