<?xml version="1.0" encoding="utf-8" standalone="no"?>
<!DOCTYPE svg PUBLIC "-//W3C//DTD SVG 1.1//EN"
  "http://www.w3.org/Graphics/SVG/1.1/DTD/svg11.dtd">
<svg xmlns:xlink="http://www.w3.org/1999/xlink" width="614.6875pt" height="422.75625pt" viewBox="0 0 614.6875 422.75625" xmlns="http://www.w3.org/2000/svg" version="1.1">
 <metadata>
  <rdf:RDF xmlns:dc="http://purl.org/dc/elements/1.1/" xmlns:cc="http://creativecommons.org/ns#" xmlns:rdf="http://www.w3.org/1999/02/22-rdf-syntax-ns#">
   <cc:Work>
    <dc:type rdf:resource="http://purl.org/dc/dcmitype/StillImage"/>
    <dc:date>2025-12-12T20:14:33.248717</dc:date>
    <dc:format>image/svg+xml</dc:format>
    <dc:creator>
     <cc:Agent>
      <dc:title>Matplotlib v3.10.3, https://matplotlib.org/</dc:title>
     </cc:Agent>
    </dc:creator>
   </cc:Work>
  </rdf:RDF>
 </metadata>
 <defs>
  <style type="text/css">*{stroke-linejoin: round; stroke-linecap: butt}</style>
 </defs>
 <g id="figure_1">
  <g id="patch_1">
   <path d="M 0 422.75625 
L 614.6875 422.75625 
L 614.6875 0 
L 0 0 
z
" style="fill: #ffffff"/>
  </g>
  <g id="axes_1">
   <g id="patch_2">
    <path d="M 36.7625 382.678125 
L 594.7625 382.678125 
L 594.7625 22.318125 
L 36.7625 22.318125 
z
" style="fill: #ffffff"/>
   </g>
   <g id="matplotlib.axis_1">
    <g id="xtick_1">
     <g id="line2d_1">
      <defs>
       <path id="m1e5f90ccab" d="M 0 0 
L 0 3.5 
" style="stroke: #000000; stroke-width: 0.8"/>
      </defs>
      <g>
       <use xlink:href="#m1e5f90ccab" x="69.586029" y="382.678125" style="stroke: #000000; stroke-width: 0.8"/>
      </g>
     </g>
     <g id="text_1">
      <!-- 1000 -->
      <g transform="translate(56.861029 397.276562) scale(0.1 -0.1)">
       <defs>
        <path id="DejaVuSans-31" d="M 794 531 
L 1825 531 
L 1825 4091 
L 703 3866 
L 703 4441 
L 1819 4666 
L 2450 4666 
L 2450 531 
L 3481 531 
L 3481 0 
L 794 0 
L 794 531 
z
" transform="scale(0.015625)"/>
        <path id="DejaVuSans-30" d="M 2034 4250 
Q 1547 4250 1301 3770 
Q 1056 3291 1056 2328 
Q 1056 1369 1301 889 
Q 1547 409 2034 409 
Q 2525 409 2770 889 
Q 3016 1369 3016 2328 
Q 3016 3291 2770 3770 
Q 2525 4250 2034 4250 
z
M 2034 4750 
Q 2819 4750 3233 4129 
Q 3647 3509 3647 2328 
Q 3647 1150 3233 529 
Q 2819 -91 2034 -91 
Q 1250 -91 836 529 
Q 422 1150 422 2328 
Q 422 3509 836 4129 
Q 1250 4750 2034 4750 
z
" transform="scale(0.015625)"/>
       </defs>
       <use xlink:href="#DejaVuSans-31"/>
       <use xlink:href="#DejaVuSans-30" transform="translate(63.623047 0)"/>
       <use xlink:href="#DejaVuSans-30" transform="translate(127.246094 0)"/>
       <use xlink:href="#DejaVuSans-30" transform="translate(190.869141 0)"/>
      </g>
     </g>
    </g>
    <g id="xtick_2">
     <g id="line2d_2">
      <g>
       <use xlink:href="#m1e5f90ccab" x="135.233088" y="382.678125" style="stroke: #000000; stroke-width: 0.8"/>
      </g>
     </g>
     <g id="text_2">
      <!-- 2000 -->
      <g transform="translate(122.508088 397.276562) scale(0.1 -0.1)">
       <defs>
        <path id="DejaVuSans-32" d="M 1228 531 
L 3431 531 
L 3431 0 
L 469 0 
L 469 531 
Q 828 903 1448 1529 
Q 2069 2156 2228 2338 
Q 2531 2678 2651 2914 
Q 2772 3150 2772 3378 
Q 2772 3750 2511 3984 
Q 2250 4219 1831 4219 
Q 1534 4219 1204 4116 
Q 875 4013 500 3803 
L 500 4441 
Q 881 4594 1212 4672 
Q 1544 4750 1819 4750 
Q 2544 4750 2975 4387 
Q 3406 4025 3406 3419 
Q 3406 3131 3298 2873 
Q 3191 2616 2906 2266 
Q 2828 2175 2409 1742 
Q 1991 1309 1228 531 
z
" transform="scale(0.015625)"/>
       </defs>
       <use xlink:href="#DejaVuSans-32"/>
       <use xlink:href="#DejaVuSans-30" transform="translate(63.623047 0)"/>
       <use xlink:href="#DejaVuSans-30" transform="translate(127.246094 0)"/>
       <use xlink:href="#DejaVuSans-30" transform="translate(190.869141 0)"/>
      </g>
     </g>
    </g>
    <g id="xtick_3">
     <g id="line2d_3">
      <g>
       <use xlink:href="#m1e5f90ccab" x="200.880147" y="382.678125" style="stroke: #000000; stroke-width: 0.8"/>
      </g>
     </g>
     <g id="text_3">
      <!-- 3000 -->
      <g transform="translate(188.155147 397.276562) scale(0.1 -0.1)">
       <defs>
        <path id="DejaVuSans-33" d="M 2597 2516 
Q 3050 2419 3304 2112 
Q 3559 1806 3559 1356 
Q 3559 666 3084 287 
Q 2609 -91 1734 -91 
Q 1441 -91 1130 -33 
Q 819 25 488 141 
L 488 750 
Q 750 597 1062 519 
Q 1375 441 1716 441 
Q 2309 441 2620 675 
Q 2931 909 2931 1356 
Q 2931 1769 2642 2001 
Q 2353 2234 1838 2234 
L 1294 2234 
L 1294 2753 
L 1863 2753 
Q 2328 2753 2575 2939 
Q 2822 3125 2822 3475 
Q 2822 3834 2567 4026 
Q 2313 4219 1838 4219 
Q 1578 4219 1281 4162 
Q 984 4106 628 3988 
L 628 4550 
Q 988 4650 1302 4700 
Q 1616 4750 1894 4750 
Q 2613 4750 3031 4423 
Q 3450 4097 3450 3541 
Q 3450 3153 3228 2886 
Q 3006 2619 2597 2516 
z
" transform="scale(0.015625)"/>
       </defs>
       <use xlink:href="#DejaVuSans-33"/>
       <use xlink:href="#DejaVuSans-30" transform="translate(63.623047 0)"/>
       <use xlink:href="#DejaVuSans-30" transform="translate(127.246094 0)"/>
       <use xlink:href="#DejaVuSans-30" transform="translate(190.869141 0)"/>
      </g>
     </g>
    </g>
    <g id="xtick_4">
     <g id="line2d_4">
      <g>
       <use xlink:href="#m1e5f90ccab" x="266.527206" y="382.678125" style="stroke: #000000; stroke-width: 0.8"/>
      </g>
     </g>
     <g id="text_4">
      <!-- 4000 -->
      <g transform="translate(253.802206 397.276562) scale(0.1 -0.1)">
       <defs>
        <path id="DejaVuSans-34" d="M 2419 4116 
L 825 1625 
L 2419 1625 
L 2419 4116 
z
M 2253 4666 
L 3047 4666 
L 3047 1625 
L 3713 1625 
L 3713 1100 
L 3047 1100 
L 3047 0 
L 2419 0 
L 2419 1100 
L 313 1100 
L 313 1709 
L 2253 4666 
z
" transform="scale(0.015625)"/>
       </defs>
       <use xlink:href="#DejaVuSans-34"/>
       <use xlink:href="#DejaVuSans-30" transform="translate(63.623047 0)"/>
       <use xlink:href="#DejaVuSans-30" transform="translate(127.246094 0)"/>
       <use xlink:href="#DejaVuSans-30" transform="translate(190.869141 0)"/>
      </g>
     </g>
    </g>
    <g id="xtick_5">
     <g id="line2d_5">
      <g>
       <use xlink:href="#m1e5f90ccab" x="332.174265" y="382.678125" style="stroke: #000000; stroke-width: 0.8"/>
      </g>
     </g>
     <g id="text_5">
      <!-- 5000 -->
      <g transform="translate(319.449265 397.276562) scale(0.1 -0.1)">
       <defs>
        <path id="DejaVuSans-35" d="M 691 4666 
L 3169 4666 
L 3169 4134 
L 1269 4134 
L 1269 2991 
Q 1406 3038 1543 3061 
Q 1681 3084 1819 3084 
Q 2600 3084 3056 2656 
Q 3513 2228 3513 1497 
Q 3513 744 3044 326 
Q 2575 -91 1722 -91 
Q 1428 -91 1123 -41 
Q 819 9 494 109 
L 494 744 
Q 775 591 1075 516 
Q 1375 441 1709 441 
Q 2250 441 2565 725 
Q 2881 1009 2881 1497 
Q 2881 1984 2565 2268 
Q 2250 2553 1709 2553 
Q 1456 2553 1204 2497 
Q 953 2441 691 2322 
L 691 4666 
z
" transform="scale(0.015625)"/>
       </defs>
       <use xlink:href="#DejaVuSans-35"/>
       <use xlink:href="#DejaVuSans-30" transform="translate(63.623047 0)"/>
       <use xlink:href="#DejaVuSans-30" transform="translate(127.246094 0)"/>
       <use xlink:href="#DejaVuSans-30" transform="translate(190.869141 0)"/>
      </g>
     </g>
    </g>
    <g id="xtick_6">
     <g id="line2d_6">
      <g>
       <use xlink:href="#m1e5f90ccab" x="397.821324" y="382.678125" style="stroke: #000000; stroke-width: 0.8"/>
      </g>
     </g>
     <g id="text_6">
      <!-- 6000 -->
      <g transform="translate(385.096324 397.276562) scale(0.1 -0.1)">
       <defs>
        <path id="DejaVuSans-36" d="M 2113 2584 
Q 1688 2584 1439 2293 
Q 1191 2003 1191 1497 
Q 1191 994 1439 701 
Q 1688 409 2113 409 
Q 2538 409 2786 701 
Q 3034 994 3034 1497 
Q 3034 2003 2786 2293 
Q 2538 2584 2113 2584 
z
M 3366 4563 
L 3366 3988 
Q 3128 4100 2886 4159 
Q 2644 4219 2406 4219 
Q 1781 4219 1451 3797 
Q 1122 3375 1075 2522 
Q 1259 2794 1537 2939 
Q 1816 3084 2150 3084 
Q 2853 3084 3261 2657 
Q 3669 2231 3669 1497 
Q 3669 778 3244 343 
Q 2819 -91 2113 -91 
Q 1303 -91 875 529 
Q 447 1150 447 2328 
Q 447 3434 972 4092 
Q 1497 4750 2381 4750 
Q 2619 4750 2861 4703 
Q 3103 4656 3366 4563 
z
" transform="scale(0.015625)"/>
       </defs>
       <use xlink:href="#DejaVuSans-36"/>
       <use xlink:href="#DejaVuSans-30" transform="translate(63.623047 0)"/>
       <use xlink:href="#DejaVuSans-30" transform="translate(127.246094 0)"/>
       <use xlink:href="#DejaVuSans-30" transform="translate(190.869141 0)"/>
      </g>
     </g>
    </g>
    <g id="xtick_7">
     <g id="line2d_7">
      <g>
       <use xlink:href="#m1e5f90ccab" x="463.468382" y="382.678125" style="stroke: #000000; stroke-width: 0.8"/>
      </g>
     </g>
     <g id="text_7">
      <!-- 7000 -->
      <g transform="translate(450.743382 397.276562) scale(0.1 -0.1)">
       <defs>
        <path id="DejaVuSans-37" d="M 525 4666 
L 3525 4666 
L 3525 4397 
L 1831 0 
L 1172 0 
L 2766 4134 
L 525 4134 
L 525 4666 
z
" transform="scale(0.015625)"/>
       </defs>
       <use xlink:href="#DejaVuSans-37"/>
       <use xlink:href="#DejaVuSans-30" transform="translate(63.623047 0)"/>
       <use xlink:href="#DejaVuSans-30" transform="translate(127.246094 0)"/>
       <use xlink:href="#DejaVuSans-30" transform="translate(190.869141 0)"/>
      </g>
     </g>
    </g>
    <g id="xtick_8">
     <g id="line2d_8">
      <g>
       <use xlink:href="#m1e5f90ccab" x="529.115441" y="382.678125" style="stroke: #000000; stroke-width: 0.8"/>
      </g>
     </g>
     <g id="text_8">
      <!-- 8000 -->
      <g transform="translate(516.390441 397.276562) scale(0.1 -0.1)">
       <defs>
        <path id="DejaVuSans-38" d="M 2034 2216 
Q 1584 2216 1326 1975 
Q 1069 1734 1069 1313 
Q 1069 891 1326 650 
Q 1584 409 2034 409 
Q 2484 409 2743 651 
Q 3003 894 3003 1313 
Q 3003 1734 2745 1975 
Q 2488 2216 2034 2216 
z
M 1403 2484 
Q 997 2584 770 2862 
Q 544 3141 544 3541 
Q 544 4100 942 4425 
Q 1341 4750 2034 4750 
Q 2731 4750 3128 4425 
Q 3525 4100 3525 3541 
Q 3525 3141 3298 2862 
Q 3072 2584 2669 2484 
Q 3125 2378 3379 2068 
Q 3634 1759 3634 1313 
Q 3634 634 3220 271 
Q 2806 -91 2034 -91 
Q 1263 -91 848 271 
Q 434 634 434 1313 
Q 434 1759 690 2068 
Q 947 2378 1403 2484 
z
M 1172 3481 
Q 1172 3119 1398 2916 
Q 1625 2713 2034 2713 
Q 2441 2713 2670 2916 
Q 2900 3119 2900 3481 
Q 2900 3844 2670 4047 
Q 2441 4250 2034 4250 
Q 1625 4250 1398 4047 
Q 1172 3844 1172 3481 
z
" transform="scale(0.015625)"/>
       </defs>
       <use xlink:href="#DejaVuSans-38"/>
       <use xlink:href="#DejaVuSans-30" transform="translate(63.623047 0)"/>
       <use xlink:href="#DejaVuSans-30" transform="translate(127.246094 0)"/>
       <use xlink:href="#DejaVuSans-30" transform="translate(190.869141 0)"/>
      </g>
     </g>
    </g>
    <g id="xtick_9">
     <g id="line2d_9">
      <g>
       <use xlink:href="#m1e5f90ccab" x="594.7625" y="382.678125" style="stroke: #000000; stroke-width: 0.8"/>
      </g>
     </g>
     <g id="text_9">
      <!-- 9000 -->
      <g transform="translate(582.0375 397.276562) scale(0.1 -0.1)">
       <defs>
        <path id="DejaVuSans-39" d="M 703 97 
L 703 672 
Q 941 559 1184 500 
Q 1428 441 1663 441 
Q 2288 441 2617 861 
Q 2947 1281 2994 2138 
Q 2813 1869 2534 1725 
Q 2256 1581 1919 1581 
Q 1219 1581 811 2004 
Q 403 2428 403 3163 
Q 403 3881 828 4315 
Q 1253 4750 1959 4750 
Q 2769 4750 3195 4129 
Q 3622 3509 3622 2328 
Q 3622 1225 3098 567 
Q 2575 -91 1691 -91 
Q 1453 -91 1209 -44 
Q 966 3 703 97 
z
M 1959 2075 
Q 2384 2075 2632 2365 
Q 2881 2656 2881 3163 
Q 2881 3666 2632 3958 
Q 2384 4250 1959 4250 
Q 1534 4250 1286 3958 
Q 1038 3666 1038 3163 
Q 1038 2656 1286 2365 
Q 1534 2075 1959 2075 
z
" transform="scale(0.015625)"/>
       </defs>
       <use xlink:href="#DejaVuSans-39"/>
       <use xlink:href="#DejaVuSans-30" transform="translate(63.623047 0)"/>
       <use xlink:href="#DejaVuSans-30" transform="translate(127.246094 0)"/>
       <use xlink:href="#DejaVuSans-30" transform="translate(190.869141 0)"/>
      </g>
     </g>
    </g>
    <g id="text_10">
     <!-- $\text{Wavelength}\,[\mathrm{\mathring{A}}]$ -->
     <g transform="translate(277.6125 413.45625) scale(0.1 -0.1)">
      <defs>
       <path id="DejaVuSans-57" d="M 213 4666 
L 850 4666 
L 1831 722 
L 2809 4666 
L 3519 4666 
L 4500 722 
L 5478 4666 
L 6119 4666 
L 4947 0 
L 4153 0 
L 3169 4050 
L 2175 0 
L 1381 0 
L 213 4666 
z
" transform="scale(0.015625)"/>
       <path id="DejaVuSans-61" d="M 2194 1759 
Q 1497 1759 1228 1600 
Q 959 1441 959 1056 
Q 959 750 1161 570 
Q 1363 391 1709 391 
Q 2188 391 2477 730 
Q 2766 1069 2766 1631 
L 2766 1759 
L 2194 1759 
z
M 3341 1997 
L 3341 0 
L 2766 0 
L 2766 531 
Q 2569 213 2275 61 
Q 1981 -91 1556 -91 
Q 1019 -91 701 211 
Q 384 513 384 1019 
Q 384 1609 779 1909 
Q 1175 2209 1959 2209 
L 2766 2209 
L 2766 2266 
Q 2766 2663 2505 2880 
Q 2244 3097 1772 3097 
Q 1472 3097 1187 3025 
Q 903 2953 641 2809 
L 641 3341 
Q 956 3463 1253 3523 
Q 1550 3584 1831 3584 
Q 2591 3584 2966 3190 
Q 3341 2797 3341 1997 
z
" transform="scale(0.015625)"/>
       <path id="DejaVuSans-76" d="M 191 3500 
L 800 3500 
L 1894 563 
L 2988 3500 
L 3597 3500 
L 2284 0 
L 1503 0 
L 191 3500 
z
" transform="scale(0.015625)"/>
       <path id="DejaVuSans-65" d="M 3597 1894 
L 3597 1613 
L 953 1613 
Q 991 1019 1311 708 
Q 1631 397 2203 397 
Q 2534 397 2845 478 
Q 3156 559 3463 722 
L 3463 178 
Q 3153 47 2828 -22 
Q 2503 -91 2169 -91 
Q 1331 -91 842 396 
Q 353 884 353 1716 
Q 353 2575 817 3079 
Q 1281 3584 2069 3584 
Q 2775 3584 3186 3129 
Q 3597 2675 3597 1894 
z
M 3022 2063 
Q 3016 2534 2758 2815 
Q 2500 3097 2075 3097 
Q 1594 3097 1305 2825 
Q 1016 2553 972 2059 
L 3022 2063 
z
" transform="scale(0.015625)"/>
       <path id="DejaVuSans-6c" d="M 603 4863 
L 1178 4863 
L 1178 0 
L 603 0 
L 603 4863 
z
" transform="scale(0.015625)"/>
       <path id="DejaVuSans-6e" d="M 3513 2113 
L 3513 0 
L 2938 0 
L 2938 2094 
Q 2938 2591 2744 2837 
Q 2550 3084 2163 3084 
Q 1697 3084 1428 2787 
Q 1159 2491 1159 1978 
L 1159 0 
L 581 0 
L 581 3500 
L 1159 3500 
L 1159 2956 
Q 1366 3272 1645 3428 
Q 1925 3584 2291 3584 
Q 2894 3584 3203 3211 
Q 3513 2838 3513 2113 
z
" transform="scale(0.015625)"/>
       <path id="DejaVuSans-67" d="M 2906 1791 
Q 2906 2416 2648 2759 
Q 2391 3103 1925 3103 
Q 1463 3103 1205 2759 
Q 947 2416 947 1791 
Q 947 1169 1205 825 
Q 1463 481 1925 481 
Q 2391 481 2648 825 
Q 2906 1169 2906 1791 
z
M 3481 434 
Q 3481 -459 3084 -895 
Q 2688 -1331 1869 -1331 
Q 1566 -1331 1297 -1286 
Q 1028 -1241 775 -1147 
L 775 -588 
Q 1028 -725 1275 -790 
Q 1522 -856 1778 -856 
Q 2344 -856 2625 -561 
Q 2906 -266 2906 331 
L 2906 616 
Q 2728 306 2450 153 
Q 2172 0 1784 0 
Q 1141 0 747 490 
Q 353 981 353 1791 
Q 353 2603 747 3093 
Q 1141 3584 1784 3584 
Q 2172 3584 2450 3431 
Q 2728 3278 2906 2969 
L 2906 3500 
L 3481 3500 
L 3481 434 
z
" transform="scale(0.015625)"/>
       <path id="DejaVuSans-74" d="M 1172 4494 
L 1172 3500 
L 2356 3500 
L 2356 3053 
L 1172 3053 
L 1172 1153 
Q 1172 725 1289 603 
Q 1406 481 1766 481 
L 2356 481 
L 2356 0 
L 1766 0 
Q 1100 0 847 248 
Q 594 497 594 1153 
L 594 3053 
L 172 3053 
L 172 3500 
L 594 3500 
L 594 4494 
L 1172 4494 
z
" transform="scale(0.015625)"/>
       <path id="DejaVuSans-68" d="M 3513 2113 
L 3513 0 
L 2938 0 
L 2938 2094 
Q 2938 2591 2744 2837 
Q 2550 3084 2163 3084 
Q 1697 3084 1428 2787 
Q 1159 2491 1159 1978 
L 1159 0 
L 581 0 
L 581 4863 
L 1159 4863 
L 1159 2956 
Q 1366 3272 1645 3428 
Q 1925 3584 2291 3584 
Q 2894 3584 3203 3211 
Q 3513 2838 3513 2113 
z
" transform="scale(0.015625)"/>
       <path id="DejaVuSans-5b" d="M 550 4863 
L 1875 4863 
L 1875 4416 
L 1125 4416 
L 1125 -397 
L 1875 -397 
L 1875 -844 
L 550 -844 
L 550 4863 
z
" transform="scale(0.015625)"/>
       <path id="DejaVuSans-2218" d="M 2003 2603 
Q 1753 2603 1581 2429 
Q 1409 2256 1409 2006 
Q 1409 1759 1581 1589 
Q 1753 1419 2003 1419 
Q 2253 1419 2425 1589 
Q 2597 1759 2597 2006 
Q 2597 2253 2423 2428 
Q 2250 2603 2003 2603 
z
M 2003 3006 
Q 2203 3006 2387 2929 
Q 2572 2853 2706 2709 
Q 2850 2569 2922 2390 
Q 2994 2212 2994 2006 
Q 2994 1594 2705 1308 
Q 2416 1022 1997 1022 
Q 1575 1022 1294 1303 
Q 1013 1584 1013 2006 
Q 1013 2425 1300 2715 
Q 1588 3006 2003 3006 
z
" transform="scale(0.015625)"/>
       <path id="DejaVuSans-41" d="M 2188 4044 
L 1331 1722 
L 3047 1722 
L 2188 4044 
z
M 1831 4666 
L 2547 4666 
L 4325 0 
L 3669 0 
L 3244 1197 
L 1141 1197 
L 716 0 
L 50 0 
L 1831 4666 
z
" transform="scale(0.015625)"/>
       <path id="DejaVuSans-5d" d="M 1947 4863 
L 1947 -844 
L 622 -844 
L 622 -397 
L 1369 -397 
L 1369 4416 
L 622 4416 
L 622 4863 
L 1947 4863 
z
" transform="scale(0.015625)"/>
      </defs>
      <use xlink:href="#DejaVuSans-57" transform="translate(0 0.390625)"/>
      <use xlink:href="#DejaVuSans-61" transform="translate(98.876953 0.390625)"/>
      <use xlink:href="#DejaVuSans-76" transform="translate(160.15625 0.390625)"/>
      <use xlink:href="#DejaVuSans-65" transform="translate(219.335938 0.390625)"/>
      <use xlink:href="#DejaVuSans-6c" transform="translate(280.859375 0.390625)"/>
      <use xlink:href="#DejaVuSans-65" transform="translate(308.642578 0.390625)"/>
      <use xlink:href="#DejaVuSans-6e" transform="translate(370.166016 0.390625)"/>
      <use xlink:href="#DejaVuSans-67" transform="translate(433.544922 0.390625)"/>
      <use xlink:href="#DejaVuSans-74" transform="translate(497.021484 0.390625)"/>
      <use xlink:href="#DejaVuSans-68" transform="translate(536.230469 0.390625)"/>
      <use xlink:href="#DejaVuSans-5b" transform="translate(615.845051 0.390625)"/>
      <use xlink:href="#DejaVuSans-2218" transform="translate(682.210774 77.96875) scale(0.49)"/>
      <use xlink:href="#DejaVuSans-41" transform="translate(654.858723 0.390625)"/>
      <use xlink:href="#DejaVuSans-5d" transform="translate(723.266926 0.390625)"/>
     </g>
    </g>
   </g>
   <g id="matplotlib.axis_2">
    <g id="ytick_1">
     <g id="line2d_10">
      <defs>
       <path id="m96884329a9" d="M 0 0 
L -3.5 0 
" style="stroke: #000000; stroke-width: 0.8"/>
      </defs>
      <g>
       <use xlink:href="#m96884329a9" x="36.7625" y="366.298292" style="stroke: #000000; stroke-width: 0.8"/>
      </g>
     </g>
     <g id="text_11">
      <!-- 0 -->
      <g transform="translate(23.4 370.09751) scale(0.1 -0.1)">
       <use xlink:href="#DejaVuSans-30"/>
      </g>
     </g>
    </g>
    <g id="ytick_2">
     <g id="line2d_11">
      <g>
       <use xlink:href="#m96884329a9" x="36.7625" y="290.28244" style="stroke: #000000; stroke-width: 0.8"/>
      </g>
     </g>
     <g id="text_12">
      <!-- 1 -->
      <g transform="translate(23.4 294.081658) scale(0.1 -0.1)">
       <use xlink:href="#DejaVuSans-31"/>
      </g>
     </g>
    </g>
    <g id="ytick_3">
     <g id="line2d_12">
      <g>
       <use xlink:href="#m96884329a9" x="36.7625" y="214.266588" style="stroke: #000000; stroke-width: 0.8"/>
      </g>
     </g>
     <g id="text_13">
      <!-- 2 -->
      <g transform="translate(23.4 218.065807) scale(0.1 -0.1)">
       <use xlink:href="#DejaVuSans-32"/>
      </g>
     </g>
    </g>
    <g id="ytick_4">
     <g id="line2d_13">
      <g>
       <use xlink:href="#m96884329a9" x="36.7625" y="138.250736" style="stroke: #000000; stroke-width: 0.8"/>
      </g>
     </g>
     <g id="text_14">
      <!-- 3 -->
      <g transform="translate(23.4 142.049955) scale(0.1 -0.1)">
       <use xlink:href="#DejaVuSans-33"/>
      </g>
     </g>
    </g>
    <g id="ytick_5">
     <g id="line2d_14">
      <g>
       <use xlink:href="#m96884329a9" x="36.7625" y="62.234884" style="stroke: #000000; stroke-width: 0.8"/>
      </g>
     </g>
     <g id="text_15">
      <!-- 4 -->
      <g transform="translate(23.4 66.034103) scale(0.1 -0.1)">
       <use xlink:href="#DejaVuSans-34"/>
      </g>
     </g>
    </g>
    <g id="text_16">
     <!-- $\text{Luminosity density}\,[\mathrm{erg\,s^{-1}\,\mathring{A}^{-1}}]$ -->
     <g transform="translate(17.3 281.148125) rotate(-90) scale(0.1 -0.1)">
      <defs>
       <path id="DejaVuSans-4c" d="M 628 4666 
L 1259 4666 
L 1259 531 
L 3531 531 
L 3531 0 
L 628 0 
L 628 4666 
z
" transform="scale(0.015625)"/>
       <path id="DejaVuSans-75" d="M 544 1381 
L 544 3500 
L 1119 3500 
L 1119 1403 
Q 1119 906 1312 657 
Q 1506 409 1894 409 
Q 2359 409 2629 706 
Q 2900 1003 2900 1516 
L 2900 3500 
L 3475 3500 
L 3475 0 
L 2900 0 
L 2900 538 
Q 2691 219 2414 64 
Q 2138 -91 1772 -91 
Q 1169 -91 856 284 
Q 544 659 544 1381 
z
M 1991 3584 
L 1991 3584 
z
" transform="scale(0.015625)"/>
       <path id="DejaVuSans-6d" d="M 3328 2828 
Q 3544 3216 3844 3400 
Q 4144 3584 4550 3584 
Q 5097 3584 5394 3201 
Q 5691 2819 5691 2113 
L 5691 0 
L 5113 0 
L 5113 2094 
Q 5113 2597 4934 2840 
Q 4756 3084 4391 3084 
Q 3944 3084 3684 2787 
Q 3425 2491 3425 1978 
L 3425 0 
L 2847 0 
L 2847 2094 
Q 2847 2600 2669 2842 
Q 2491 3084 2119 3084 
Q 1678 3084 1418 2786 
Q 1159 2488 1159 1978 
L 1159 0 
L 581 0 
L 581 3500 
L 1159 3500 
L 1159 2956 
Q 1356 3278 1631 3431 
Q 1906 3584 2284 3584 
Q 2666 3584 2933 3390 
Q 3200 3197 3328 2828 
z
" transform="scale(0.015625)"/>
       <path id="DejaVuSans-69" d="M 603 3500 
L 1178 3500 
L 1178 0 
L 603 0 
L 603 3500 
z
M 603 4863 
L 1178 4863 
L 1178 4134 
L 603 4134 
L 603 4863 
z
" transform="scale(0.015625)"/>
       <path id="DejaVuSans-6f" d="M 1959 3097 
Q 1497 3097 1228 2736 
Q 959 2375 959 1747 
Q 959 1119 1226 758 
Q 1494 397 1959 397 
Q 2419 397 2687 759 
Q 2956 1122 2956 1747 
Q 2956 2369 2687 2733 
Q 2419 3097 1959 3097 
z
M 1959 3584 
Q 2709 3584 3137 3096 
Q 3566 2609 3566 1747 
Q 3566 888 3137 398 
Q 2709 -91 1959 -91 
Q 1206 -91 779 398 
Q 353 888 353 1747 
Q 353 2609 779 3096 
Q 1206 3584 1959 3584 
z
" transform="scale(0.015625)"/>
       <path id="DejaVuSans-73" d="M 2834 3397 
L 2834 2853 
Q 2591 2978 2328 3040 
Q 2066 3103 1784 3103 
Q 1356 3103 1142 2972 
Q 928 2841 928 2578 
Q 928 2378 1081 2264 
Q 1234 2150 1697 2047 
L 1894 2003 
Q 2506 1872 2764 1633 
Q 3022 1394 3022 966 
Q 3022 478 2636 193 
Q 2250 -91 1575 -91 
Q 1294 -91 989 -36 
Q 684 19 347 128 
L 347 722 
Q 666 556 975 473 
Q 1284 391 1588 391 
Q 1994 391 2212 530 
Q 2431 669 2431 922 
Q 2431 1156 2273 1281 
Q 2116 1406 1581 1522 
L 1381 1569 
Q 847 1681 609 1914 
Q 372 2147 372 2553 
Q 372 3047 722 3315 
Q 1072 3584 1716 3584 
Q 2034 3584 2315 3537 
Q 2597 3491 2834 3397 
z
" transform="scale(0.015625)"/>
       <path id="DejaVuSans-79" d="M 2059 -325 
Q 1816 -950 1584 -1140 
Q 1353 -1331 966 -1331 
L 506 -1331 
L 506 -850 
L 844 -850 
Q 1081 -850 1212 -737 
Q 1344 -625 1503 -206 
L 1606 56 
L 191 3500 
L 800 3500 
L 1894 763 
L 2988 3500 
L 3597 3500 
L 2059 -325 
z
" transform="scale(0.015625)"/>
       <path id="DejaVuSans-20" transform="scale(0.015625)"/>
       <path id="DejaVuSans-64" d="M 2906 2969 
L 2906 4863 
L 3481 4863 
L 3481 0 
L 2906 0 
L 2906 525 
Q 2725 213 2448 61 
Q 2172 -91 1784 -91 
Q 1150 -91 751 415 
Q 353 922 353 1747 
Q 353 2572 751 3078 
Q 1150 3584 1784 3584 
Q 2172 3584 2448 3432 
Q 2725 3281 2906 2969 
z
M 947 1747 
Q 947 1113 1208 752 
Q 1469 391 1925 391 
Q 2381 391 2643 752 
Q 2906 1113 2906 1747 
Q 2906 2381 2643 2742 
Q 2381 3103 1925 3103 
Q 1469 3103 1208 2742 
Q 947 2381 947 1747 
z
" transform="scale(0.015625)"/>
       <path id="DejaVuSans-72" d="M 2631 2963 
Q 2534 3019 2420 3045 
Q 2306 3072 2169 3072 
Q 1681 3072 1420 2755 
Q 1159 2438 1159 1844 
L 1159 0 
L 581 0 
L 581 3500 
L 1159 3500 
L 1159 2956 
Q 1341 3275 1631 3429 
Q 1922 3584 2338 3584 
Q 2397 3584 2469 3576 
Q 2541 3569 2628 3553 
L 2631 2963 
z
" transform="scale(0.015625)"/>
       <path id="DejaVuSans-2212" d="M 678 2272 
L 4684 2272 
L 4684 1741 
L 678 1741 
L 678 2272 
z
" transform="scale(0.015625)"/>
      </defs>
      <use xlink:href="#DejaVuSans-4c" transform="translate(0 0.390625)"/>
      <use xlink:href="#DejaVuSans-75" transform="translate(55.712891 0.390625)"/>
      <use xlink:href="#DejaVuSans-6d" transform="translate(119.091797 0.390625)"/>
      <use xlink:href="#DejaVuSans-69" transform="translate(216.503906 0.390625)"/>
      <use xlink:href="#DejaVuSans-6e" transform="translate(244.287109 0.390625)"/>
      <use xlink:href="#DejaVuSans-6f" transform="translate(307.666016 0.390625)"/>
      <use xlink:href="#DejaVuSans-73" transform="translate(368.847656 0.390625)"/>
      <use xlink:href="#DejaVuSans-69" transform="translate(420.947266 0.390625)"/>
      <use xlink:href="#DejaVuSans-74" transform="translate(448.730469 0.390625)"/>
      <use xlink:href="#DejaVuSans-79" transform="translate(487.939453 0.390625)"/>
      <use xlink:href="#DejaVuSans-20" transform="translate(547.119141 0.390625)"/>
      <use xlink:href="#DejaVuSans-64" transform="translate(578.90625 0.390625)"/>
      <use xlink:href="#DejaVuSans-65" transform="translate(642.382812 0.390625)"/>
      <use xlink:href="#DejaVuSans-6e" transform="translate(703.90625 0.390625)"/>
      <use xlink:href="#DejaVuSans-73" transform="translate(767.285156 0.390625)"/>
      <use xlink:href="#DejaVuSans-69" transform="translate(819.384766 0.390625)"/>
      <use xlink:href="#DejaVuSans-74" transform="translate(847.167969 0.390625)"/>
      <use xlink:href="#DejaVuSans-79" transform="translate(886.376953 0.390625)"/>
      <use xlink:href="#DejaVuSans-5b" transform="translate(961.792317 0.390625)"/>
      <use xlink:href="#DejaVuSans-65" transform="translate(1000.805989 0.390625)"/>
      <use xlink:href="#DejaVuSans-72" transform="translate(1062.329426 0.390625)"/>
      <use xlink:href="#DejaVuSans-67" transform="translate(1103.442708 0.390625)"/>
      <use xlink:href="#DejaVuSans-73" transform="translate(1183.154946 0.390625)"/>
      <use xlink:href="#DejaVuSans-2212" transform="translate(1236.211587 38.671875) scale(0.7)"/>
      <use xlink:href="#DejaVuSans-31" transform="translate(1294.863931 38.671875) scale(0.7)"/>
      <use xlink:href="#DejaVuSans-2218" transform="translate(1385.722166 77.96875) scale(0.49)"/>
      <use xlink:href="#DejaVuSans-41" transform="translate(1358.370115 0.390625)"/>
      <use xlink:href="#DejaVuSans-2212" transform="translate(1427.735349 38.671875) scale(0.7)"/>
      <use xlink:href="#DejaVuSans-31" transform="translate(1486.387693 38.671875) scale(0.7)"/>
      <use xlink:href="#DejaVuSans-5d" transform="translate(1533.658201 0.390625)"/>
     </g>
    </g>
    <g id="text_17">
     <!-- 1e39 -->
     <g transform="translate(36.7625 19.318125) scale(0.1 -0.1)">
      <use xlink:href="#DejaVuSans-31"/>
      <use xlink:href="#DejaVuSans-65" transform="translate(63.623047 0)"/>
      <use xlink:href="#DejaVuSans-33" transform="translate(125.146484 0)"/>
      <use xlink:href="#DejaVuSans-39" transform="translate(188.769531 0)"/>
     </g>
    </g>
   </g>
   <g id="line2d_15">
    <path d="M 615.6875 347.186334 
L 613.362094 347.160986 
L 610.070348 347.337507 
L 606.813971 347.717783 
L 603.592397 348.332452 
L 599.350143 349.228944 
L 596.207636 348.651534 
L 593.098125 348.54301 
L 591.043195 347.592783 
L 585.968041 344.746937 
L 583.962463 343.94013 
L 581.970659 343.463436 
L 578.02781 342.816564 
L 570.301311 341.474982 
L 561.853889 340.321541 
L 559.093802 340.229819 
L 556.36089 340.314463 
L 551.865344 340.393576 
L 547.442376 339.753443 
L 543.955084 339.520658 
L 542.228166 338.74201 
L 539.6584 337.95454 
L 534.591778 337.004848 
L 530.442229 336.457002 
L 529.620095 336.322376 
L 527.983505 335.836489 
L 523.936268 334.823903 
L 519.951066 333.783219 
L 516.026484 333.140024 
L 508.35373 332.492659 
L 506.846687 332.326623 
L 501.642222 331.338975 
L 500.174958 330.914786 
L 499.444566 330.461514 
L 497.990213 329.899571 
L 495.82462 329.301975 
L 487.348829 327.328994 
L 483.219534 326.67742 
L 476.491942 325.066685 
L 475.169025 324.726312 
L 453.761218 317.938983 
L 443.196641 314.992563 
L 440.915998 314.251769 
L 433.116918 312.27834 
L 428.784032 310.404279 
L 422.446294 306.682688 
L 420.375527 305.80542 
L 419.861034 305.725753 
L 418.83585 305.943657 
L 418.325152 306.127425 
L 417.307517 306.893937 
L 416.294868 307.969216 
L 415.287168 309.450602 
L 414.284381 311.177938 
L 412.789335 314.256207 
L 409.342903 322.199302 
L 407.883584 324.913052 
L 406.916527 326.286668 
L 406.434733 326.094138 
L 405.954089 325.21351 
L 404.996238 322.471094 
L 404.04294 318.430768 
L 402.149876 309.405662 
L 401.210046 306.076334 
L 400.274641 303.451519 
L 399.343631 301.684873 
L 397.955289 299.579049 
L 397.035131 298.456054 
L 396.119261 297.616212 
L 394.75343 296.772567 
L 393.848149 296.469415 
L 392.947052 296.415134 
L 389.383933 296.946866 
L 388.503329 296.832323 
L 385.45265 296.185785 
L 384.589897 295.969904 
L 382.024894 295.027042 
L 379.494227 289.818105 
L 378.658183 288.795034 
L 377.825853 288.469626 
L 376.997212 288.461646 
L 376.172237 288.830163 
L 375.350902 289.533504 
L 374.533183 290.431341 
L 373.313334 292.296253 
L 372.504554 293.821847 
L 371.298001 296.461741 
L 370.099323 299.714184 
L 368.513201 304.83104 
L 366.940761 309.768969 
L 366.549768 310.098082 
L 366.159617 309.921647 
L 365.770304 309.506923 
L 364.994184 308.064738 
L 363.068371 303.822034 
L 362.685672 303.352577 
L 361.922714 302.767248 
L 360.784342 300.588406 
L 358.903061 294.793326 
L 357.412257 292.293187 
L 357.041511 292.093961 
L 356.671542 292.035392 
L 355.566271 292.318613 
L 354.103306 293.064666 
L 353.739465 293.378458 
L 352.652465 293.856004 
L 352.291631 294.117698 
L 351.572199 294.023606 
L 351.213596 294.065007 
L 350.498605 294.805341 
L 350.142213 295.258649 
L 349.786553 295.389051 
L 349.431623 295.164401 
L 348.723943 294.997511 
L 347.317247 290.395882 
L 345.921982 283.997567 
L 345.228593 281.992631 
L 344.53801 280.574276 
L 343.850216 279.943783 
L 343.50736 279.780891 
L 343.165194 279.766406 
L 342.482928 280.028559 
L 342.142823 280.291349 
L 341.803401 280.188803 
L 341.464659 279.383403 
L 340.116458 277.738948 
L 339.781089 277.062966 
L 338.778984 276.016953 
L 337.782842 275.865706 
L 337.122033 276.026144 
L 336.135711 276.53713 
L 333.856846 278.887775 
L 333.533844 279.342111 
L 332.889733 278.038519 
L 331.928273 275.496951 
L 331.609034 275.060826 
L 331.290416 274.820878 
L 330.972417 274.896439 
L 330.655035 275.109861 
L 330.338269 275.478161 
L 329.706575 276.680218 
L 328.137987 280.97521 
L 327.204064 283.79873 
L 326.584432 285.236357 
L 325.967171 285.967861 
L 325.659425 286.202702 
L 324.739708 287.758658 
L 323.825233 289.782106 
L 323.521566 289.745324 
L 322.614013 284.63684 
L 321.112826 274.939946 
L 320.516304 272.096459 
L 319.922022 269.346001 
L 319.03477 266.285813 
L 318.446031 265.025906 
L 318.152487 264.666016 
L 317.567037 264.365013 
L 316.983766 264.497143 
L 316.692943 264.669224 
L 316.40266 264.97826 
L 315.246896 265.340581 
L 314.672215 263.830034 
L 314.385669 262.798598 
L 313.529194 261.101712 
L 312.960831 260.359427 
L 312.394551 259.625787 
L 311.549011 258.174358 
L 310.987889 257.466881 
L 310.428811 257.059011 
L 309.316739 255.422087 
L 308.763724 254.220415 
L 308.487967 253.377063 
L 307.937946 250.264979 
L 306.028423 239.746732 
L 305.217379 237.114251 
L 304.679099 235.719364 
L 303.875274 234.368346 
L 303.075736 233.318648 
L 302.545074 232.452932 
L 301.752602 231.695007 
L 301.489379 231.612796 
L 301.22662 231.720779 
L 300.702493 232.750617 
L 300.180211 234.500789 
L 299.659764 236.859765 
L 298.882512 241.381714 
L 297.340203 252.770064 
L 296.575082 260.108587 
L 295.308709 274.564079 
L 292.808561 304.52794 
L 292.313672 306.42866 
L 292.066862 306.614218 
L 291.820475 306.34923 
L 291.574509 305.56395 
L 291.083835 302.638248 
L 290.594832 298.2321 
L 289.864443 289.022251 
L 288.414774 266.091714 
L 287.456468 252.533692 
L 286.741964 244.726429 
L 286.267625 241.373913 
L 285.794876 239.091373 
L 285.559094 238.208889 
L 285.088712 237.483076 
L 284.619898 237.546537 
L 284.152646 238.20818 
L 283.686947 238.908505 
L 283.222793 239.471065 
L 282.760176 240.53305 
L 281.610313 244.565723 
L 280.469895 249.908083 
L 278.888957 257.400932 
L 278.664583 257.870623 
L 278.216933 258.322638 
L 277.770738 257.927491 
L 276.882691 255.402201 
L 276.220426 253.292776 
L 275.561367 251.975489 
L 275.123764 251.313278 
L 274.905491 251.152393 
L 274.469997 250.338078 
L 273.387362 248.157547 
L 272.95673 247.602443 
L 272.313358 245.724155 
L 271.460299 243.436286 
L 270.190831 240.354952 
L 269.770349 240.029973 
L 268.516831 239.669138 
L 267.894496 239.332359 
L 267.27508 238.53027 
L 267.069254 238.042832 
L 265.028552 227.75156 
L 263.618792 209.486438 
L 263.019259 205.147857 
L 262.621106 203.927784 
L 262.026165 203.191787 
L 261.631056 203.247032 
L 260.844457 203.910173 
L 260.452955 205.108735 
L 259.479401 209.593244 
L 257.363379 223.052443 
L 256.22389 231.947044 
L 255.282114 240.125592 
L 254.907369 243.878468 
L 254.720415 244.640101 
L 254.53374 244.690009 
L 254.347343 245.000503 
L 254.161222 244.934609 
L 253.604517 245.600103 
L 253.050284 248.433107 
L 252.68216 250.916516 
L 252.498506 250.841306 
L 252.315122 250.642419 
L 251.949167 249.246582 
L 251.038977 244.75831 
L 250.67677 244.436671 
L 249.95553 246.122006 
L 249.417362 248.68239 
L 248.881543 252.625711 
L 247.99369 259.504331 
L 247.640349 259.61851 
L 247.288029 258.01574 
L 246.237156 251.636634 
L 245.368336 248.479964 
L 244.677754 246.840728 
L 244.333942 244.623005 
L 243.820062 239.953132 
L 243.138296 230.372348 
L 241.450716 205.846003 
L 240.949075 201.296967 
L 240.283508 197.436264 
L 239.456788 193.789825 
L 237.334138 187.977374 
L 236.849718 186.918261 
L 236.367305 186.486596 
L 235.727188 186.530293 
L 235.408449 186.601337 
L 234.615425 186.126743 
L 233.514277 185.334229 
L 232.889756 185.001628 
L 232.423591 184.829798 
L 231.496933 183.497904 
L 230.883325 183.084146 
L 230.425287 181.936124 
L 228.611474 176.759017 
L 227.864265 175.378233 
L 226.384657 173.092952 
L 225.798275 172.289397 
L 225.06963 171.316885 
L 224.634736 170.815716 
L 223.197362 168.359125 
L 222.485674 167.466539 
L 221.637723 166.101036 
L 220.936107 165.43253 
L 219.961409 165.009727 
L 218.721018 164.825957 
L 218.310713 164.671776 
L 216.685054 164.710607 
L 216.014949 163.989336 
L 215.349053 163.252883 
L 214.423793 162.685549 
L 214.160919 162.730761 
L 213.767836 162.407126 
L 213.246007 161.983327 
L 212.210096 161.938386 
L 211.31205 162.479786 
L 210.929539 162.920229 
L 210.168736 164.066793 
L 209.037959 165.343886 
L 208.913083 165.456943 
L 208.539363 164.692886 
L 208.290972 163.577629 
L 207.303413 155.004417 
L 205.839842 143.375117 
L 205.597959 143.417732 
L 205.356655 143.920988 
L 205.115928 144.802833 
L 204.99578 145.380277 
L 204.875775 145.305551 
L 204.636196 144.851271 
L 204.277895 146.233434 
L 203.920872 149.114471 
L 203.092745 159.296062 
L 202.505413 171.484187 
L 201.688944 194.397216 
L 200.649013 231.197244 
L 199.392744 275.731819 
L 199.052905 280.384983 
L 198.827002 281.331577 
L 198.714246 281.276803 
L 198.489126 279.971214 
L 198.264525 277.415096 
L 197.928595 270.688054 
L 197.482491 257.630264 
L 196.706725 225.817643 
L 195.500151 174.691716 
L 194.848365 157.908918 
L 194.200999 148.03751 
L 193.558008 142.318692 
L 193.025493 140.818481 
L 192.813323 140.877352 
L 192.60163 140.829372 
L 192.495961 140.76919 
L 192.39041 140.884607 
L 192.074465 140.542227 
L 191.759578 140.040871 
L 191.341365 139.145089 
L 190.613956 136.471519 
L 190.097826 134.460581 
L 189.584542 131.276363 
L 188.972326 119.112633 
L 188.465221 109.980018 
L 187.960888 105.494353 
L 187.559403 103.004559 
L 186.960449 96.48003 
L 186.761665 95.87364 
L 186.563312 96.081309 
L 186.464297 96.268474 
L 186.167895 97.965661 
L 185.774186 101.814324 
L 185.186803 110.653925 
L 184.506301 124.390719 
L 183.83089 142.002702 
L 183.255975 159.985771 
L 182.40046 194.144694 
L 181.272391 250.399461 
L 180.80656 271.118467 
L 180.435654 278.812626 
L 180.158493 281.643768 
L 179.882202 282.424445 
L 179.698489 282.155029 
L 179.515159 281.085098 
L 179.240879 277.674026 
L 178.876504 269.803148 
L 178.332772 251.919398 
L 177.613033 219.608953 
L 176.633037 165.611783 
L 175.576486 113.235301 
L 175.140063 99.620869 
L 172.062152 51.764443 
L 171.060629 41.241873 
L 170.729435 39.734064 
L 170.39955 38.940436 
L 170.235097 38.777916 
L 170.070968 38.756355 
L 169.825382 39.182006 
L 169.66206 40.330937 
L 169.25516 44.848313 
L 168.850253 50.471756 
L 168.286704 61.57455 
L 167.408868 87.8622 
L 166.618933 120.661156 
L 165.836596 160.495352 
L 165.370796 181.159263 
L 163.232029 264.126214 
L 162.258177 297.070809 
L 161.812711 305.988512 
L 161.222642 313.834228 
L 160.929259 315.685297 
L 160.49123 316.873521 
L 160.345763 316.949758 
L 160.055638 316.120689 
L 159.83875 314.57131 
L 159.694493 313.389534 
L 159.478607 314.305497 
L 159.335015 314.317132 
L 159.263318 314.251551 
L 159.048624 313.22591 
L 158.834524 309.807641 
L 158.692118 305.626494 
L 158.195753 272.877848 
L 157.492158 215.09321 
L 156.864389 156.528777 
L 156.794953 156.627078 
L 156.035304 157.683054 
L 155.692499 158.011467 
L 155.011504 159.030816 
L 153.53462 161.297179 
L 153.070739 160.928622 
L 152.347568 161.380472 
L 151.891008 161.701354 
L 150.729796 162.162377 
L 150.283121 162.535269 
L 149.839156 162.743324 
L 149.523684 162.401494 
L 149.335054 162.4321 
L 149.146913 162.570578 
L 148.523278 163.680427 
L 147.904976 165.392111 
L 147.414129 166.892046 
L 146.805257 168.444632 
L 145.424275 172.464275 
L 145.009259 173.190484 
L 144.537927 173.332611 
L 144.30344 173.105395 
L 144.069734 173.047717 
L 143.836805 173.128389 
L 143.315535 173.400021 
L 143.027616 173.50979 
L 142.912781 173.465705 
L 142.626522 173.230396 
L 141.60568 172.883617 
L 141.212733 172.574945 
L 140.599757 171.943295 
L 140.212524 171.982191 
L 139.717865 172.415012 
L 139.335606 173.361557 
L 139.063879 174.97525 
L 138.631378 178.749629 
L 138.308814 182.094944 
L 136.509745 211.063477 
L 135.731263 223.25228 
L 135.012884 233.861858 
L 134.961871 233.695966 
L 134.656623 228.317605 
L 134.20141 218.528527 
L 133.300428 204.07132 
L 132.90398 202.814411 
L 132.805248 202.841793 
L 132.657432 202.849761 
L 132.11833 203.43281 
L 131.487003 204.899945 
L 131.438696 204.856171 
L 131.293997 203.533566 
L 130.95764 200.441956 
L 130.623054 198.8562 
L 130.100824 197.691809 
L 129.770731 197.340426 
L 129.022682 197.076222 
L 128.6058 197.147933 
L 128.421409 196.949912 
L 128.05426 196.508529 
L 127.871496 196.308955 
L 127.1909 194.626437 
L 126.87584 193.9546 
L 126.02874 192.883479 
L 125.675549 193.883321 
L 125.324396 195.86799 
L 124.455312 203.709652 
L 123.89705 211.316036 
L 122.712032 237.823691 
L 121.96252 257.357271 
L 121.632432 259.307999 
L 121.509124 260.411891 
L 121.181563 266.427639 
L 120.734136 281.550537 
L 120.009303 305.06806 
L 119.610492 310.704369 
L 119.253899 312.812261 
L 119.056739 312.913607 
L 118.821036 312.116524 
L 118.430336 310.438565 
L 118.391412 310.626029 
L 118.158422 311.634029 
L 118.003623 312.98606 
L 116.89375 324.575178 
L 116.742357 325.428967 
L 116.478393 326.574183 
L 116.365644 326.698562 
L 116.140821 325.993896 
L 115.916896 323.836353 
L 115.619716 317.544711 
L 115.140148 303.129642 
L 114.229382 274.043531 
L 113.833355 269.56875 
L 113.690049 268.752988 
L 113.368974 267.176465 
L 113.226876 267.121759 
L 113.120544 267.494744 
L 112.838002 269.114279 
L 112.172791 273.941583 
L 112.138004 274.185346 
L 112.103241 274.150225 
L 111.825933 268.734306 
L 111.412627 260.274821 
L 111.036535 256.807082 
L 110.595443 255.246426 
L 110.292194 254.871325 
L 109.957266 254.806742 
L 109.129105 254.809211 
L 108.410952 254.627656 
L 107.830625 254.100669 
L 107.44731 253.698609 
L 107.288428 253.553976 
L 107.03523 253.107403 
L 106.065696 251.12376 
L 105.633793 250.174411 
L 105.358065 249.594603 
L 105.05345 248.394812 
L 104.569852 246.746095 
L 104.389694 246.06883 
L 103.764187 241.707321 
L 103.616403 241.559965 
L 103.586899 241.576458 
L 103.41024 241.514786 
L 103.234206 241.904769 
L 102.91309 244.219015 
L 102.709822 245.884096 
L 102.680852 245.794699 
L 102.536256 245.898769 
L 102.363299 246.438509 
L 102.076382 249.279701 
L 101.762699 255.689406 
L 101.309997 270.633838 
L 100.833568 292.527773 
L 100.113864 335.162514 
L 99.730742 344.088532 
L 99.486057 346.135045 
L 99.377709 346.196606 
L 99.35066 346.167943 
L 99.215646 345.749117 
L 98.946762 343.435542 
L 98.599474 337.121591 
L 98.175511 324.461852 
L 96.288407 260.848178 
L 96.03577 259.268824 
L 95.935101 259.090919 
L 95.909968 259.120036 
L 95.734423 260.163116 
L 95.360502 264.196227 
L 93.60727 294.783777 
L 93.274144 305.82733 
L 92.243104 343.234222 
L 91.874056 348.645843 
L 91.599288 350.224557 
L 91.439799 350.35785 
L 91.280888 350.222055 
L 91.032335 349.478548 
L 90.8749 348.552978 
L 90.673318 347.452469 
L 90.584025 347.35829 
L 90.339417 346.415389 
L 90.030087 343.12097 
L 89.396326 333.440348 
L 87.363347 300.781862 
L 87.09546 299.496507 
L 87.074924 299.504937 
L 87.013379 299.486483 
L 86.808883 301.128073 
L 86.564814 306.560798 
L 85.247721 347.211235 
L 84.934725 350.174646 
L 84.585472 351.503042 
L 84.566158 351.49886 
L 83.857963 349.252434 
L 83.42397 346.065772 
L 83.255428 344.121716 
L 83.218071 344.867403 
L 82.939011 348.669299 
L 82.698744 349.772222 
L 82.680323 349.733377 
L 82.606722 349.789744 
L 82.459934 349.964953 
L 82.441624 349.949135 
L 82.186177 349.811556 
L 82.113497 349.762104 
L 81.59058 347.5679 
L 81.198527 345.317829 
L 80.600354 341.508271 
L 80.548018 341.140909 
L 80.478348 341.323972 
L 80.114651 341.734181 
L 80.097418 341.716177 
L 80.045767 341.800045 
L 80.028565 341.78075 
L 79.83986 342.12575 
L 79.822751 342.102647 
L 79.788557 342.196999 
L 79.771472 342.173323 
L 79.465244 343.507656 
L 78.445614 355.487422 
L 77.856682 359.992049 
L 76.863942 357.464223 
L 76.832361 357.700026 
L 76.549366 359.292223 
L 76.26856 360.240645 
L 75.8514 360.719236 
L 75.667536 360.577456 
L 75.499818 360.459161 
L 75.136596 360.205651 
L 74.836716 360.075795 
L 74.628299 359.995114 
L 74.185791 359.695176 
L 74.010335 359.603473 
L 73.995754 359.616486 
L 73.575507 359.546499 
L 73.074978 358.776816 
L 72.72184 358.117024 
L 72.693745 358.276995 
L 72.400125 359.967977 
L 72.109002 360.829105 
L 71.73832 361.447952 
L 71.412192 361.502969 
L 71.142806 361.976358 
L 70.557663 363.2502 
L 70.321213 363.35953 
L 69.583404 363.076478 
L 69.391961 363.16843 
L 68.874338 363.035881 
L 68.488367 363.215177 
L 68.204953 363.031799 
L 68.00926 362.84774 
L 67.948349 362.977815 
L 67.645528 363.386259 
L 67.405325 363.560914 
L 67.012927 363.947432 
L 66.742295 363.975661 
L 66.473975 363.893198 
L 65.98987 363.666021 
L 65.852927 363.684952 
L 65.088198 363.865597 
L 64.712874 363.984814 
L 64.472463 363.946533 
L 64.126149 364.107212 
L 63.582329 364.110912 
L 63.235651 363.704016 
L 63.204335 363.787499 
L 62.810505 364.552604 
L 61.928255 365.045892 
L 61.64991 365.144632 
L 61.169182 365.216175 
L 60.907698 365.239918 
L 60.610407 365.398129 
L 59.987687 365.410321 
L 59.68143 365.447473 
L 59.369375 365.488717 
L 58.746704 365.830481 
L 58.348097 365.899124 
L 57.169481 365.381939 
L 56.901503 365.404424 
L 56.479946 365.684651 
L 56.194504 365.979906 
L 55.688448 366.023884 
L 54.605858 366.127417 
L 54.325277 366.175466 
L 53.626232 366.053913 
L 53.45085 366.019043 
L 53.312882 366.008609 
L 53.103775 365.987052 
L 52.896431 365.976507 
L 52.712018 365.966588 
L 52.09803 365.991758 
L 50.415916 366.1006 
L 49.833007 366.228401 
L 40.585667 366.287079 
L 40.257525 366.297744 
L 36.765701 366.293336 
L 36.765701 366.293336 
" clip-path="url(#p9da6a21026)" style="fill: none; stroke: #1f77b4; stroke-width: 1.5; stroke-linecap: square"/>
   </g>
   <g id="patch_3">
    <path d="M 36.7625 382.678125 
L 36.7625 22.318125 
" style="fill: none; stroke: #000000; stroke-width: 0.8; stroke-linejoin: miter; stroke-linecap: square"/>
   </g>
   <g id="patch_4">
    <path d="M 594.7625 382.678125 
L 594.7625 22.318125 
" style="fill: none; stroke: #000000; stroke-width: 0.8; stroke-linejoin: miter; stroke-linecap: square"/>
   </g>
   <g id="patch_5">
    <path d="M 36.7625 382.678125 
L 594.7625 382.678125 
" style="fill: none; stroke: #000000; stroke-width: 0.8; stroke-linejoin: miter; stroke-linecap: square"/>
   </g>
   <g id="patch_6">
    <path d="M 36.7625 22.318125 
L 594.7625 22.318125 
" style="fill: none; stroke: #000000; stroke-width: 0.8; stroke-linejoin: miter; stroke-linecap: square"/>
   </g>
   <g id="text_18">
    <!-- TARDIS example model spectrum -->
    <g transform="translate(215.467812 16.318125) scale(0.12 -0.12)">
     <defs>
      <path id="DejaVuSans-54" d="M -19 4666 
L 3928 4666 
L 3928 4134 
L 2272 4134 
L 2272 0 
L 1638 0 
L 1638 4134 
L -19 4134 
L -19 4666 
z
" transform="scale(0.015625)"/>
      <path id="DejaVuSans-52" d="M 2841 2188 
Q 3044 2119 3236 1894 
Q 3428 1669 3622 1275 
L 4263 0 
L 3584 0 
L 2988 1197 
Q 2756 1666 2539 1819 
Q 2322 1972 1947 1972 
L 1259 1972 
L 1259 0 
L 628 0 
L 628 4666 
L 2053 4666 
Q 2853 4666 3247 4331 
Q 3641 3997 3641 3322 
Q 3641 2881 3436 2590 
Q 3231 2300 2841 2188 
z
M 1259 4147 
L 1259 2491 
L 2053 2491 
Q 2509 2491 2742 2702 
Q 2975 2913 2975 3322 
Q 2975 3731 2742 3939 
Q 2509 4147 2053 4147 
L 1259 4147 
z
" transform="scale(0.015625)"/>
      <path id="DejaVuSans-44" d="M 1259 4147 
L 1259 519 
L 2022 519 
Q 2988 519 3436 956 
Q 3884 1394 3884 2338 
Q 3884 3275 3436 3711 
Q 2988 4147 2022 4147 
L 1259 4147 
z
M 628 4666 
L 1925 4666 
Q 3281 4666 3915 4102 
Q 4550 3538 4550 2338 
Q 4550 1131 3912 565 
Q 3275 0 1925 0 
L 628 0 
L 628 4666 
z
" transform="scale(0.015625)"/>
      <path id="DejaVuSans-49" d="M 628 4666 
L 1259 4666 
L 1259 0 
L 628 0 
L 628 4666 
z
" transform="scale(0.015625)"/>
      <path id="DejaVuSans-53" d="M 3425 4513 
L 3425 3897 
Q 3066 4069 2747 4153 
Q 2428 4238 2131 4238 
Q 1616 4238 1336 4038 
Q 1056 3838 1056 3469 
Q 1056 3159 1242 3001 
Q 1428 2844 1947 2747 
L 2328 2669 
Q 3034 2534 3370 2195 
Q 3706 1856 3706 1288 
Q 3706 609 3251 259 
Q 2797 -91 1919 -91 
Q 1588 -91 1214 -16 
Q 841 59 441 206 
L 441 856 
Q 825 641 1194 531 
Q 1563 422 1919 422 
Q 2459 422 2753 634 
Q 3047 847 3047 1241 
Q 3047 1584 2836 1778 
Q 2625 1972 2144 2069 
L 1759 2144 
Q 1053 2284 737 2584 
Q 422 2884 422 3419 
Q 422 4038 858 4394 
Q 1294 4750 2059 4750 
Q 2388 4750 2728 4690 
Q 3069 4631 3425 4513 
z
" transform="scale(0.015625)"/>
      <path id="DejaVuSans-78" d="M 3513 3500 
L 2247 1797 
L 3578 0 
L 2900 0 
L 1881 1375 
L 863 0 
L 184 0 
L 1544 1831 
L 300 3500 
L 978 3500 
L 1906 2253 
L 2834 3500 
L 3513 3500 
z
" transform="scale(0.015625)"/>
      <path id="DejaVuSans-70" d="M 1159 525 
L 1159 -1331 
L 581 -1331 
L 581 3500 
L 1159 3500 
L 1159 2969 
Q 1341 3281 1617 3432 
Q 1894 3584 2278 3584 
Q 2916 3584 3314 3078 
Q 3713 2572 3713 1747 
Q 3713 922 3314 415 
Q 2916 -91 2278 -91 
Q 1894 -91 1617 61 
Q 1341 213 1159 525 
z
M 3116 1747 
Q 3116 2381 2855 2742 
Q 2594 3103 2138 3103 
Q 1681 3103 1420 2742 
Q 1159 2381 1159 1747 
Q 1159 1113 1420 752 
Q 1681 391 2138 391 
Q 2594 391 2855 752 
Q 3116 1113 3116 1747 
z
" transform="scale(0.015625)"/>
      <path id="DejaVuSans-63" d="M 3122 3366 
L 3122 2828 
Q 2878 2963 2633 3030 
Q 2388 3097 2138 3097 
Q 1578 3097 1268 2742 
Q 959 2388 959 1747 
Q 959 1106 1268 751 
Q 1578 397 2138 397 
Q 2388 397 2633 464 
Q 2878 531 3122 666 
L 3122 134 
Q 2881 22 2623 -34 
Q 2366 -91 2075 -91 
Q 1284 -91 818 406 
Q 353 903 353 1747 
Q 353 2603 823 3093 
Q 1294 3584 2113 3584 
Q 2378 3584 2631 3529 
Q 2884 3475 3122 3366 
z
" transform="scale(0.015625)"/>
     </defs>
     <use xlink:href="#DejaVuSans-54"/>
     <use xlink:href="#DejaVuSans-41" transform="translate(53.333984 0)"/>
     <use xlink:href="#DejaVuSans-52" transform="translate(121.742188 0)"/>
     <use xlink:href="#DejaVuSans-44" transform="translate(191.224609 0)"/>
     <use xlink:href="#DejaVuSans-49" transform="translate(268.226562 0)"/>
     <use xlink:href="#DejaVuSans-53" transform="translate(297.71875 0)"/>
     <use xlink:href="#DejaVuSans-20" transform="translate(361.195312 0)"/>
     <use xlink:href="#DejaVuSans-65" transform="translate(392.982422 0)"/>
     <use xlink:href="#DejaVuSans-78" transform="translate(452.755859 0)"/>
     <use xlink:href="#DejaVuSans-61" transform="translate(511.935547 0)"/>
     <use xlink:href="#DejaVuSans-6d" transform="translate(573.214844 0)"/>
     <use xlink:href="#DejaVuSans-70" transform="translate(670.626953 0)"/>
     <use xlink:href="#DejaVuSans-6c" transform="translate(734.103516 0)"/>
     <use xlink:href="#DejaVuSans-65" transform="translate(761.886719 0)"/>
     <use xlink:href="#DejaVuSans-20" transform="translate(823.410156 0)"/>
     <use xlink:href="#DejaVuSans-6d" transform="translate(855.197266 0)"/>
     <use xlink:href="#DejaVuSans-6f" transform="translate(952.609375 0)"/>
     <use xlink:href="#DejaVuSans-64" transform="translate(1013.791016 0)"/>
     <use xlink:href="#DejaVuSans-65" transform="translate(1077.267578 0)"/>
     <use xlink:href="#DejaVuSans-6c" transform="translate(1138.791016 0)"/>
     <use xlink:href="#DejaVuSans-20" transform="translate(1166.574219 0)"/>
     <use xlink:href="#DejaVuSans-73" transform="translate(1198.361328 0)"/>
     <use xlink:href="#DejaVuSans-70" transform="translate(1250.460938 0)"/>
     <use xlink:href="#DejaVuSans-65" transform="translate(1313.9375 0)"/>
     <use xlink:href="#DejaVuSans-63" transform="translate(1375.460938 0)"/>
     <use xlink:href="#DejaVuSans-74" transform="translate(1430.441406 0)"/>
     <use xlink:href="#DejaVuSans-72" transform="translate(1469.650391 0)"/>
     <use xlink:href="#DejaVuSans-75" transform="translate(1510.763672 0)"/>
     <use xlink:href="#DejaVuSans-6d" transform="translate(1574.142578 0)"/>
    </g>
   </g>
   <g id="legend_1">
    <g id="patch_7">
     <path d="M 479.939062 44.99625 
L 587.7625 44.99625 
Q 589.7625 44.99625 589.7625 42.99625 
L 589.7625 29.318125 
Q 589.7625 27.318125 587.7625 27.318125 
L 479.939062 27.318125 
Q 477.939062 27.318125 477.939062 29.318125 
L 477.939062 42.99625 
Q 477.939062 44.99625 479.939062 44.99625 
z
" style="fill: #ffffff; opacity: 0.8; stroke: #cccccc; stroke-linejoin: miter"/>
    </g>
    <g id="line2d_16">
     <path d="M 481.939062 35.416563 
L 491.939062 35.416563 
L 501.939062 35.416563 
" style="fill: none; stroke: #1f77b4; stroke-width: 1.5; stroke-linecap: square"/>
    </g>
    <g id="text_19">
     <!-- Formal integral -->
     <g transform="translate(509.939062 38.916563) scale(0.1 -0.1)">
      <defs>
       <path id="DejaVuSans-46" d="M 628 4666 
L 3309 4666 
L 3309 4134 
L 1259 4134 
L 1259 2759 
L 3109 2759 
L 3109 2228 
L 1259 2228 
L 1259 0 
L 628 0 
L 628 4666 
z
" transform="scale(0.015625)"/>
      </defs>
      <use xlink:href="#DejaVuSans-46"/>
      <use xlink:href="#DejaVuSans-6f" transform="translate(53.894531 0)"/>
      <use xlink:href="#DejaVuSans-72" transform="translate(115.076172 0)"/>
      <use xlink:href="#DejaVuSans-6d" transform="translate(154.439453 0)"/>
      <use xlink:href="#DejaVuSans-61" transform="translate(251.851562 0)"/>
      <use xlink:href="#DejaVuSans-6c" transform="translate(313.130859 0)"/>
      <use xlink:href="#DejaVuSans-20" transform="translate(340.914062 0)"/>
      <use xlink:href="#DejaVuSans-69" transform="translate(372.701172 0)"/>
      <use xlink:href="#DejaVuSans-6e" transform="translate(400.484375 0)"/>
      <use xlink:href="#DejaVuSans-74" transform="translate(463.863281 0)"/>
      <use xlink:href="#DejaVuSans-65" transform="translate(503.072266 0)"/>
      <use xlink:href="#DejaVuSans-67" transform="translate(564.595703 0)"/>
      <use xlink:href="#DejaVuSans-72" transform="translate(628.072266 0)"/>
      <use xlink:href="#DejaVuSans-61" transform="translate(669.185547 0)"/>
      <use xlink:href="#DejaVuSans-6c" transform="translate(730.464844 0)"/>
     </g>
    </g>
   </g>
  </g>
 </g>
 <defs>
  <clipPath id="p9da6a21026">
   <rect x="36.7625" y="22.318125" width="558" height="360.36"/>
  </clipPath>
 </defs>
</svg>
