<?xml version="1.0" encoding="utf-8" standalone="no"?>
<!DOCTYPE svg PUBLIC "-//W3C//DTD SVG 1.1//EN"
  "http://www.w3.org/Graphics/SVG/1.1/DTD/svg11.dtd">
<svg xmlns:xlink="http://www.w3.org/1999/xlink" width="409.523125pt" height="321.488562pt" viewBox="0 0 409.523125 321.488562" xmlns="http://www.w3.org/2000/svg" version="1.1">
 <metadata>
  <rdf:RDF xmlns:dc="http://purl.org/dc/elements/1.1/" xmlns:cc="http://creativecommons.org/ns#" xmlns:rdf="http://www.w3.org/1999/02/22-rdf-syntax-ns#">
   <cc:Work>
    <dc:type rdf:resource="http://purl.org/dc/dcmitype/StillImage"/>
    <dc:date>2025-12-13T17:46:16.234582</dc:date>
    <dc:format>image/svg+xml</dc:format>
    <dc:creator>
     <cc:Agent>
      <dc:title>Matplotlib v3.10.3, https://matplotlib.org/</dc:title>
     </cc:Agent>
    </dc:creator>
   </cc:Work>
  </rdf:RDF>
 </metadata>
 <defs>
  <style type="text/css">*{stroke-linejoin: round; stroke-linecap: butt}</style>
 </defs>
 <g id="figure_1">
  <g id="patch_1">
   <path d="M 0 321.488562 
L 409.523125 321.488562 
L 409.523125 0 
L 0 0 
z
" style="fill: #ffffff"/>
  </g>
  <g id="axes_1">
   <g id="patch_2">
    <path d="M 45.203125 283.910437 
L 402.323125 283.910437 
L 402.323125 17.798437 
L 45.203125 17.798437 
z
" style="fill: #ffffff"/>
   </g>
   <g id="matplotlib.axis_1">
    <g id="xtick_1">
     <g id="line2d_1">
      <defs>
       <path id="m36ae2b8eca" d="M 0 0 
L 0 3.5 
" style="stroke: #000000; stroke-width: 0.8"/>
      </defs>
      <g>
       <use xlink:href="#m36ae2b8eca" x="101.385608" y="283.910437" style="stroke: #000000; stroke-width: 0.8"/>
      </g>
     </g>
     <g id="text_1">
      <!-- 0.5 -->
      <g transform="translate(93.434046 298.508875) scale(0.1 -0.1)">
       <defs>
        <path id="DejaVuSans-30" d="M 2034 4250 
Q 1547 4250 1301 3770 
Q 1056 3291 1056 2328 
Q 1056 1369 1301 889 
Q 1547 409 2034 409 
Q 2525 409 2770 889 
Q 3016 1369 3016 2328 
Q 3016 3291 2770 3770 
Q 2525 4250 2034 4250 
z
M 2034 4750 
Q 2819 4750 3233 4129 
Q 3647 3509 3647 2328 
Q 3647 1150 3233 529 
Q 2819 -91 2034 -91 
Q 1250 -91 836 529 
Q 422 1150 422 2328 
Q 422 3509 836 4129 
Q 1250 4750 2034 4750 
z
" transform="scale(0.015625)"/>
        <path id="DejaVuSans-2e" d="M 684 794 
L 1344 794 
L 1344 0 
L 684 0 
L 684 794 
z
" transform="scale(0.015625)"/>
        <path id="DejaVuSans-35" d="M 691 4666 
L 3169 4666 
L 3169 4134 
L 1269 4134 
L 1269 2991 
Q 1406 3038 1543 3061 
Q 1681 3084 1819 3084 
Q 2600 3084 3056 2656 
Q 3513 2228 3513 1497 
Q 3513 744 3044 326 
Q 2575 -91 1722 -91 
Q 1428 -91 1123 -41 
Q 819 9 494 109 
L 494 744 
Q 775 591 1075 516 
Q 1375 441 1709 441 
Q 2250 441 2565 725 
Q 2881 1009 2881 1497 
Q 2881 1984 2565 2268 
Q 2250 2553 1709 2553 
Q 1456 2553 1204 2497 
Q 953 2441 691 2322 
L 691 4666 
z
" transform="scale(0.015625)"/>
       </defs>
       <use xlink:href="#DejaVuSans-30"/>
       <use xlink:href="#DejaVuSans-2e" transform="translate(63.623047 0)"/>
       <use xlink:href="#DejaVuSans-35" transform="translate(95.410156 0)"/>
      </g>
     </g>
    </g>
    <g id="xtick_2">
     <g id="line2d_2">
      <g>
       <use xlink:href="#m36ae2b8eca" x="158.456688" y="283.910437" style="stroke: #000000; stroke-width: 0.8"/>
      </g>
     </g>
     <g id="text_2">
      <!-- 1.0 -->
      <g transform="translate(150.505126 298.508875) scale(0.1 -0.1)">
       <defs>
        <path id="DejaVuSans-31" d="M 794 531 
L 1825 531 
L 1825 4091 
L 703 3866 
L 703 4441 
L 1819 4666 
L 2450 4666 
L 2450 531 
L 3481 531 
L 3481 0 
L 794 0 
L 794 531 
z
" transform="scale(0.015625)"/>
       </defs>
       <use xlink:href="#DejaVuSans-31"/>
       <use xlink:href="#DejaVuSans-2e" transform="translate(63.623047 0)"/>
       <use xlink:href="#DejaVuSans-30" transform="translate(95.410156 0)"/>
      </g>
     </g>
    </g>
    <g id="xtick_3">
     <g id="line2d_3">
      <g>
       <use xlink:href="#m36ae2b8eca" x="215.527768" y="283.910437" style="stroke: #000000; stroke-width: 0.8"/>
      </g>
     </g>
     <g id="text_3">
      <!-- 1.5 -->
      <g transform="translate(207.576206 298.508875) scale(0.1 -0.1)">
       <use xlink:href="#DejaVuSans-31"/>
       <use xlink:href="#DejaVuSans-2e" transform="translate(63.623047 0)"/>
       <use xlink:href="#DejaVuSans-35" transform="translate(95.410156 0)"/>
      </g>
     </g>
    </g>
    <g id="xtick_4">
     <g id="line2d_4">
      <g>
       <use xlink:href="#m36ae2b8eca" x="272.598848" y="283.910437" style="stroke: #000000; stroke-width: 0.8"/>
      </g>
     </g>
     <g id="text_4">
      <!-- 2.0 -->
      <g transform="translate(264.647286 298.508875) scale(0.1 -0.1)">
       <defs>
        <path id="DejaVuSans-32" d="M 1228 531 
L 3431 531 
L 3431 0 
L 469 0 
L 469 531 
Q 828 903 1448 1529 
Q 2069 2156 2228 2338 
Q 2531 2678 2651 2914 
Q 2772 3150 2772 3378 
Q 2772 3750 2511 3984 
Q 2250 4219 1831 4219 
Q 1534 4219 1204 4116 
Q 875 4013 500 3803 
L 500 4441 
Q 881 4594 1212 4672 
Q 1544 4750 1819 4750 
Q 2544 4750 2975 4387 
Q 3406 4025 3406 3419 
Q 3406 3131 3298 2873 
Q 3191 2616 2906 2266 
Q 2828 2175 2409 1742 
Q 1991 1309 1228 531 
z
" transform="scale(0.015625)"/>
       </defs>
       <use xlink:href="#DejaVuSans-32"/>
       <use xlink:href="#DejaVuSans-2e" transform="translate(63.623047 0)"/>
       <use xlink:href="#DejaVuSans-30" transform="translate(95.410156 0)"/>
      </g>
     </g>
    </g>
    <g id="xtick_5">
     <g id="line2d_5">
      <g>
       <use xlink:href="#m36ae2b8eca" x="329.669928" y="283.910437" style="stroke: #000000; stroke-width: 0.8"/>
      </g>
     </g>
     <g id="text_5">
      <!-- 2.5 -->
      <g transform="translate(321.718366 298.508875) scale(0.1 -0.1)">
       <use xlink:href="#DejaVuSans-32"/>
       <use xlink:href="#DejaVuSans-2e" transform="translate(63.623047 0)"/>
       <use xlink:href="#DejaVuSans-35" transform="translate(95.410156 0)"/>
      </g>
     </g>
    </g>
    <g id="xtick_6">
     <g id="line2d_6">
      <g>
       <use xlink:href="#m36ae2b8eca" x="386.741008" y="283.910437" style="stroke: #000000; stroke-width: 0.8"/>
      </g>
     </g>
     <g id="text_6">
      <!-- 3.0 -->
      <g transform="translate(378.789446 298.508875) scale(0.1 -0.1)">
       <defs>
        <path id="DejaVuSans-33" d="M 2597 2516 
Q 3050 2419 3304 2112 
Q 3559 1806 3559 1356 
Q 3559 666 3084 287 
Q 2609 -91 1734 -91 
Q 1441 -91 1130 -33 
Q 819 25 488 141 
L 488 750 
Q 750 597 1062 519 
Q 1375 441 1716 441 
Q 2309 441 2620 675 
Q 2931 909 2931 1356 
Q 2931 1769 2642 2001 
Q 2353 2234 1838 2234 
L 1294 2234 
L 1294 2753 
L 1863 2753 
Q 2328 2753 2575 2939 
Q 2822 3125 2822 3475 
Q 2822 3834 2567 4026 
Q 2313 4219 1838 4219 
Q 1578 4219 1281 4162 
Q 984 4106 628 3988 
L 628 4550 
Q 988 4650 1302 4700 
Q 1616 4750 1894 4750 
Q 2613 4750 3031 4423 
Q 3450 4097 3450 3541 
Q 3450 3153 3228 2886 
Q 3006 2619 2597 2516 
z
" transform="scale(0.015625)"/>
       </defs>
       <use xlink:href="#DejaVuSans-33"/>
       <use xlink:href="#DejaVuSans-2e" transform="translate(63.623047 0)"/>
       <use xlink:href="#DejaVuSans-30" transform="translate(95.410156 0)"/>
      </g>
     </g>
    </g>
    <g id="text_7">
     <!-- Frequency [$\mathrm{Hz}$] -->
     <g transform="translate(185.563125 312.188562) scale(0.1 -0.1)">
      <defs>
       <path id="DejaVuSans-46" d="M 628 4666 
L 3309 4666 
L 3309 4134 
L 1259 4134 
L 1259 2759 
L 3109 2759 
L 3109 2228 
L 1259 2228 
L 1259 0 
L 628 0 
L 628 4666 
z
" transform="scale(0.015625)"/>
       <path id="DejaVuSans-72" d="M 2631 2963 
Q 2534 3019 2420 3045 
Q 2306 3072 2169 3072 
Q 1681 3072 1420 2755 
Q 1159 2438 1159 1844 
L 1159 0 
L 581 0 
L 581 3500 
L 1159 3500 
L 1159 2956 
Q 1341 3275 1631 3429 
Q 1922 3584 2338 3584 
Q 2397 3584 2469 3576 
Q 2541 3569 2628 3553 
L 2631 2963 
z
" transform="scale(0.015625)"/>
       <path id="DejaVuSans-65" d="M 3597 1894 
L 3597 1613 
L 953 1613 
Q 991 1019 1311 708 
Q 1631 397 2203 397 
Q 2534 397 2845 478 
Q 3156 559 3463 722 
L 3463 178 
Q 3153 47 2828 -22 
Q 2503 -91 2169 -91 
Q 1331 -91 842 396 
Q 353 884 353 1716 
Q 353 2575 817 3079 
Q 1281 3584 2069 3584 
Q 2775 3584 3186 3129 
Q 3597 2675 3597 1894 
z
M 3022 2063 
Q 3016 2534 2758 2815 
Q 2500 3097 2075 3097 
Q 1594 3097 1305 2825 
Q 1016 2553 972 2059 
L 3022 2063 
z
" transform="scale(0.015625)"/>
       <path id="DejaVuSans-71" d="M 947 1747 
Q 947 1113 1208 752 
Q 1469 391 1925 391 
Q 2381 391 2643 752 
Q 2906 1113 2906 1747 
Q 2906 2381 2643 2742 
Q 2381 3103 1925 3103 
Q 1469 3103 1208 2742 
Q 947 2381 947 1747 
z
M 2906 525 
Q 2725 213 2448 61 
Q 2172 -91 1784 -91 
Q 1150 -91 751 415 
Q 353 922 353 1747 
Q 353 2572 751 3078 
Q 1150 3584 1784 3584 
Q 2172 3584 2448 3432 
Q 2725 3281 2906 2969 
L 2906 3500 
L 3481 3500 
L 3481 -1331 
L 2906 -1331 
L 2906 525 
z
" transform="scale(0.015625)"/>
       <path id="DejaVuSans-75" d="M 544 1381 
L 544 3500 
L 1119 3500 
L 1119 1403 
Q 1119 906 1312 657 
Q 1506 409 1894 409 
Q 2359 409 2629 706 
Q 2900 1003 2900 1516 
L 2900 3500 
L 3475 3500 
L 3475 0 
L 2900 0 
L 2900 538 
Q 2691 219 2414 64 
Q 2138 -91 1772 -91 
Q 1169 -91 856 284 
Q 544 659 544 1381 
z
M 1991 3584 
L 1991 3584 
z
" transform="scale(0.015625)"/>
       <path id="DejaVuSans-6e" d="M 3513 2113 
L 3513 0 
L 2938 0 
L 2938 2094 
Q 2938 2591 2744 2837 
Q 2550 3084 2163 3084 
Q 1697 3084 1428 2787 
Q 1159 2491 1159 1978 
L 1159 0 
L 581 0 
L 581 3500 
L 1159 3500 
L 1159 2956 
Q 1366 3272 1645 3428 
Q 1925 3584 2291 3584 
Q 2894 3584 3203 3211 
Q 3513 2838 3513 2113 
z
" transform="scale(0.015625)"/>
       <path id="DejaVuSans-63" d="M 3122 3366 
L 3122 2828 
Q 2878 2963 2633 3030 
Q 2388 3097 2138 3097 
Q 1578 3097 1268 2742 
Q 959 2388 959 1747 
Q 959 1106 1268 751 
Q 1578 397 2138 397 
Q 2388 397 2633 464 
Q 2878 531 3122 666 
L 3122 134 
Q 2881 22 2623 -34 
Q 2366 -91 2075 -91 
Q 1284 -91 818 406 
Q 353 903 353 1747 
Q 353 2603 823 3093 
Q 1294 3584 2113 3584 
Q 2378 3584 2631 3529 
Q 2884 3475 3122 3366 
z
" transform="scale(0.015625)"/>
       <path id="DejaVuSans-79" d="M 2059 -325 
Q 1816 -950 1584 -1140 
Q 1353 -1331 966 -1331 
L 506 -1331 
L 506 -850 
L 844 -850 
Q 1081 -850 1212 -737 
Q 1344 -625 1503 -206 
L 1606 56 
L 191 3500 
L 800 3500 
L 1894 763 
L 2988 3500 
L 3597 3500 
L 2059 -325 
z
" transform="scale(0.015625)"/>
       <path id="DejaVuSans-20" transform="scale(0.015625)"/>
       <path id="DejaVuSans-5b" d="M 550 4863 
L 1875 4863 
L 1875 4416 
L 1125 4416 
L 1125 -397 
L 1875 -397 
L 1875 -844 
L 550 -844 
L 550 4863 
z
" transform="scale(0.015625)"/>
       <path id="DejaVuSans-48" d="M 628 4666 
L 1259 4666 
L 1259 2753 
L 3553 2753 
L 3553 4666 
L 4184 4666 
L 4184 0 
L 3553 0 
L 3553 2222 
L 1259 2222 
L 1259 0 
L 628 0 
L 628 4666 
z
" transform="scale(0.015625)"/>
       <path id="DejaVuSans-7a" d="M 353 3500 
L 3084 3500 
L 3084 2975 
L 922 459 
L 3084 459 
L 3084 0 
L 275 0 
L 275 525 
L 2438 3041 
L 353 3041 
L 353 3500 
z
" transform="scale(0.015625)"/>
       <path id="DejaVuSans-5d" d="M 1947 4863 
L 1947 -844 
L 622 -844 
L 622 -397 
L 1369 -397 
L 1369 4416 
L 622 4416 
L 622 4863 
L 1947 4863 
z
" transform="scale(0.015625)"/>
      </defs>
      <use xlink:href="#DejaVuSans-46" transform="translate(0 0.015625)"/>
      <use xlink:href="#DejaVuSans-72" transform="translate(57.519531 0.015625)"/>
      <use xlink:href="#DejaVuSans-65" transform="translate(98.632812 0.015625)"/>
      <use xlink:href="#DejaVuSans-71" transform="translate(160.15625 0.015625)"/>
      <use xlink:href="#DejaVuSans-75" transform="translate(223.632812 0.015625)"/>
      <use xlink:href="#DejaVuSans-65" transform="translate(287.011719 0.015625)"/>
      <use xlink:href="#DejaVuSans-6e" transform="translate(348.535156 0.015625)"/>
      <use xlink:href="#DejaVuSans-63" transform="translate(411.914062 0.015625)"/>
      <use xlink:href="#DejaVuSans-79" transform="translate(466.894531 0.015625)"/>
      <use xlink:href="#DejaVuSans-20" transform="translate(526.074219 0.015625)"/>
      <use xlink:href="#DejaVuSans-5b" transform="translate(557.861328 0.015625)"/>
      <use xlink:href="#DejaVuSans-48" transform="translate(596.875 0.015625)"/>
      <use xlink:href="#DejaVuSans-7a" transform="translate(672.070312 0.015625)"/>
      <use xlink:href="#DejaVuSans-5d" transform="translate(724.560547 0.015625)"/>
     </g>
    </g>
    <g id="text_8">
     <!-- 1e15 -->
     <g transform="translate(377.0825 311.187) scale(0.1 -0.1)">
      <use xlink:href="#DejaVuSans-31"/>
      <use xlink:href="#DejaVuSans-65" transform="translate(63.623047 0)"/>
      <use xlink:href="#DejaVuSans-31" transform="translate(125.146484 0)"/>
      <use xlink:href="#DejaVuSans-35" transform="translate(188.769531 0)"/>
     </g>
    </g>
   </g>
   <g id="matplotlib.axis_2">
    <g id="ytick_1">
     <g id="line2d_7">
      <defs>
       <path id="m667cac682d" d="M 0 0 
L -3.5 0 
" style="stroke: #000000; stroke-width: 0.8"/>
      </defs>
      <g>
       <use xlink:href="#m667cac682d" x="45.203125" y="271.814437" style="stroke: #000000; stroke-width: 0.8"/>
      </g>
     </g>
     <g id="text_9">
      <!-- 0.0 -->
      <g transform="translate(22.3 275.613656) scale(0.1 -0.1)">
       <use xlink:href="#DejaVuSans-30"/>
       <use xlink:href="#DejaVuSans-2e" transform="translate(63.623047 0)"/>
       <use xlink:href="#DejaVuSans-30" transform="translate(95.410156 0)"/>
      </g>
     </g>
    </g>
    <g id="ytick_2">
     <g id="line2d_8">
      <g>
       <use xlink:href="#m667cac682d" x="45.203125" y="236.210883" style="stroke: #000000; stroke-width: 0.8"/>
      </g>
     </g>
     <g id="text_10">
      <!-- 0.2 -->
      <g transform="translate(22.3 240.010102) scale(0.1 -0.1)">
       <use xlink:href="#DejaVuSans-30"/>
       <use xlink:href="#DejaVuSans-2e" transform="translate(63.623047 0)"/>
       <use xlink:href="#DejaVuSans-32" transform="translate(95.410156 0)"/>
      </g>
     </g>
    </g>
    <g id="ytick_3">
     <g id="line2d_9">
      <g>
       <use xlink:href="#m667cac682d" x="45.203125" y="200.607329" style="stroke: #000000; stroke-width: 0.8"/>
      </g>
     </g>
     <g id="text_11">
      <!-- 0.4 -->
      <g transform="translate(22.3 204.406547) scale(0.1 -0.1)">
       <defs>
        <path id="DejaVuSans-34" d="M 2419 4116 
L 825 1625 
L 2419 1625 
L 2419 4116 
z
M 2253 4666 
L 3047 4666 
L 3047 1625 
L 3713 1625 
L 3713 1100 
L 3047 1100 
L 3047 0 
L 2419 0 
L 2419 1100 
L 313 1100 
L 313 1709 
L 2253 4666 
z
" transform="scale(0.015625)"/>
       </defs>
       <use xlink:href="#DejaVuSans-30"/>
       <use xlink:href="#DejaVuSans-2e" transform="translate(63.623047 0)"/>
       <use xlink:href="#DejaVuSans-34" transform="translate(95.410156 0)"/>
      </g>
     </g>
    </g>
    <g id="ytick_4">
     <g id="line2d_10">
      <g>
       <use xlink:href="#m667cac682d" x="45.203125" y="165.003774" style="stroke: #000000; stroke-width: 0.8"/>
      </g>
     </g>
     <g id="text_12">
      <!-- 0.6 -->
      <g transform="translate(22.3 168.802993) scale(0.1 -0.1)">
       <defs>
        <path id="DejaVuSans-36" d="M 2113 2584 
Q 1688 2584 1439 2293 
Q 1191 2003 1191 1497 
Q 1191 994 1439 701 
Q 1688 409 2113 409 
Q 2538 409 2786 701 
Q 3034 994 3034 1497 
Q 3034 2003 2786 2293 
Q 2538 2584 2113 2584 
z
M 3366 4563 
L 3366 3988 
Q 3128 4100 2886 4159 
Q 2644 4219 2406 4219 
Q 1781 4219 1451 3797 
Q 1122 3375 1075 2522 
Q 1259 2794 1537 2939 
Q 1816 3084 2150 3084 
Q 2853 3084 3261 2657 
Q 3669 2231 3669 1497 
Q 3669 778 3244 343 
Q 2819 -91 2113 -91 
Q 1303 -91 875 529 
Q 447 1150 447 2328 
Q 447 3434 972 4092 
Q 1497 4750 2381 4750 
Q 2619 4750 2861 4703 
Q 3103 4656 3366 4563 
z
" transform="scale(0.015625)"/>
       </defs>
       <use xlink:href="#DejaVuSans-30"/>
       <use xlink:href="#DejaVuSans-2e" transform="translate(63.623047 0)"/>
       <use xlink:href="#DejaVuSans-36" transform="translate(95.410156 0)"/>
      </g>
     </g>
    </g>
    <g id="ytick_5">
     <g id="line2d_11">
      <g>
       <use xlink:href="#m667cac682d" x="45.203125" y="129.40022" style="stroke: #000000; stroke-width: 0.8"/>
      </g>
     </g>
     <g id="text_13">
      <!-- 0.8 -->
      <g transform="translate(22.3 133.199438) scale(0.1 -0.1)">
       <defs>
        <path id="DejaVuSans-38" d="M 2034 2216 
Q 1584 2216 1326 1975 
Q 1069 1734 1069 1313 
Q 1069 891 1326 650 
Q 1584 409 2034 409 
Q 2484 409 2743 651 
Q 3003 894 3003 1313 
Q 3003 1734 2745 1975 
Q 2488 2216 2034 2216 
z
M 1403 2484 
Q 997 2584 770 2862 
Q 544 3141 544 3541 
Q 544 4100 942 4425 
Q 1341 4750 2034 4750 
Q 2731 4750 3128 4425 
Q 3525 4100 3525 3541 
Q 3525 3141 3298 2862 
Q 3072 2584 2669 2484 
Q 3125 2378 3379 2068 
Q 3634 1759 3634 1313 
Q 3634 634 3220 271 
Q 2806 -91 2034 -91 
Q 1263 -91 848 271 
Q 434 634 434 1313 
Q 434 1759 690 2068 
Q 947 2378 1403 2484 
z
M 1172 3481 
Q 1172 3119 1398 2916 
Q 1625 2713 2034 2713 
Q 2441 2713 2670 2916 
Q 2900 3119 2900 3481 
Q 2900 3844 2670 4047 
Q 2441 4250 2034 4250 
Q 1625 4250 1398 4047 
Q 1172 3844 1172 3481 
z
" transform="scale(0.015625)"/>
       </defs>
       <use xlink:href="#DejaVuSans-30"/>
       <use xlink:href="#DejaVuSans-2e" transform="translate(63.623047 0)"/>
       <use xlink:href="#DejaVuSans-38" transform="translate(95.410156 0)"/>
      </g>
     </g>
    </g>
    <g id="ytick_6">
     <g id="line2d_12">
      <g>
       <use xlink:href="#m667cac682d" x="45.203125" y="93.796665" style="stroke: #000000; stroke-width: 0.8"/>
      </g>
     </g>
     <g id="text_14">
      <!-- 1.0 -->
      <g transform="translate(22.3 97.595884) scale(0.1 -0.1)">
       <use xlink:href="#DejaVuSans-31"/>
       <use xlink:href="#DejaVuSans-2e" transform="translate(63.623047 0)"/>
       <use xlink:href="#DejaVuSans-30" transform="translate(95.410156 0)"/>
      </g>
     </g>
    </g>
    <g id="ytick_7">
     <g id="line2d_13">
      <g>
       <use xlink:href="#m667cac682d" x="45.203125" y="58.193111" style="stroke: #000000; stroke-width: 0.8"/>
      </g>
     </g>
     <g id="text_15">
      <!-- 1.2 -->
      <g transform="translate(22.3 61.99233) scale(0.1 -0.1)">
       <use xlink:href="#DejaVuSans-31"/>
       <use xlink:href="#DejaVuSans-2e" transform="translate(63.623047 0)"/>
       <use xlink:href="#DejaVuSans-32" transform="translate(95.410156 0)"/>
      </g>
     </g>
    </g>
    <g id="ytick_8">
     <g id="line2d_14">
      <g>
       <use xlink:href="#m667cac682d" x="45.203125" y="22.589556" style="stroke: #000000; stroke-width: 0.8"/>
      </g>
     </g>
     <g id="text_16">
      <!-- 1.4 -->
      <g transform="translate(22.3 26.388775) scale(0.1 -0.1)">
       <use xlink:href="#DejaVuSans-31"/>
       <use xlink:href="#DejaVuSans-2e" transform="translate(63.623047 0)"/>
       <use xlink:href="#DejaVuSans-34" transform="translate(95.410156 0)"/>
      </g>
     </g>
    </g>
    <g id="text_17">
     <!-- $L_\nu$ [$\mathrm{erg s^{-1} Hz^{-1}}$] -->
     <g transform="translate(16.2 189.254437) rotate(-90) scale(0.1 -0.1)">
      <defs>
       <path id="DejaVuSans-Oblique-4c" d="M 1075 4666 
L 1709 4666 
L 909 525 
L 3181 525 
L 3078 0 
L 172 0 
L 1075 4666 
z
" transform="scale(0.015625)"/>
       <path id="DejaVuSans-Oblique-3bd" d="M 959 0 
L 572 3500 
L 1191 3500 
L 1522 563 
Q 1972 950 2391 1488 
Q 2706 1891 2788 2241 
Q 2825 2406 2809 2719 
Q 2794 3091 2544 3500 
L 3125 3500 
L 3125 3500 
Q 3288 3222 3353 2834 
Q 3416 2478 3369 2234 
Q 3250 1622 2719 1075 
Q 2025 363 1572 0 
L 959 0 
z
" transform="scale(0.015625)"/>
       <path id="DejaVuSans-67" d="M 2906 1791 
Q 2906 2416 2648 2759 
Q 2391 3103 1925 3103 
Q 1463 3103 1205 2759 
Q 947 2416 947 1791 
Q 947 1169 1205 825 
Q 1463 481 1925 481 
Q 2391 481 2648 825 
Q 2906 1169 2906 1791 
z
M 3481 434 
Q 3481 -459 3084 -895 
Q 2688 -1331 1869 -1331 
Q 1566 -1331 1297 -1286 
Q 1028 -1241 775 -1147 
L 775 -588 
Q 1028 -725 1275 -790 
Q 1522 -856 1778 -856 
Q 2344 -856 2625 -561 
Q 2906 -266 2906 331 
L 2906 616 
Q 2728 306 2450 153 
Q 2172 0 1784 0 
Q 1141 0 747 490 
Q 353 981 353 1791 
Q 353 2603 747 3093 
Q 1141 3584 1784 3584 
Q 2172 3584 2450 3431 
Q 2728 3278 2906 2969 
L 2906 3500 
L 3481 3500 
L 3481 434 
z
" transform="scale(0.015625)"/>
       <path id="DejaVuSans-73" d="M 2834 3397 
L 2834 2853 
Q 2591 2978 2328 3040 
Q 2066 3103 1784 3103 
Q 1356 3103 1142 2972 
Q 928 2841 928 2578 
Q 928 2378 1081 2264 
Q 1234 2150 1697 2047 
L 1894 2003 
Q 2506 1872 2764 1633 
Q 3022 1394 3022 966 
Q 3022 478 2636 193 
Q 2250 -91 1575 -91 
Q 1294 -91 989 -36 
Q 684 19 347 128 
L 347 722 
Q 666 556 975 473 
Q 1284 391 1588 391 
Q 1994 391 2212 530 
Q 2431 669 2431 922 
Q 2431 1156 2273 1281 
Q 2116 1406 1581 1522 
L 1381 1569 
Q 847 1681 609 1914 
Q 372 2147 372 2553 
Q 372 3047 722 3315 
Q 1072 3584 1716 3584 
Q 2034 3584 2315 3537 
Q 2597 3491 2834 3397 
z
" transform="scale(0.015625)"/>
       <path id="DejaVuSans-2212" d="M 678 2272 
L 4684 2272 
L 4684 1741 
L 678 1741 
L 678 2272 
z
" transform="scale(0.015625)"/>
      </defs>
      <use xlink:href="#DejaVuSans-Oblique-4c" transform="translate(0 0.684375)"/>
      <use xlink:href="#DejaVuSans-Oblique-3bd" transform="translate(55.712891 -15.721875) scale(0.7)"/>
      <use xlink:href="#DejaVuSans-20" transform="translate(97.548828 0.684375)"/>
      <use xlink:href="#DejaVuSans-5b" transform="translate(129.335938 0.684375)"/>
      <use xlink:href="#DejaVuSans-65" transform="translate(168.349609 0.684375)"/>
      <use xlink:href="#DejaVuSans-72" transform="translate(229.873047 0.684375)"/>
      <use xlink:href="#DejaVuSans-67" transform="translate(270.986328 0.684375)"/>
      <use xlink:href="#DejaVuSans-73" transform="translate(334.462891 0.684375)"/>
      <use xlink:href="#DejaVuSans-2212" transform="translate(387.519531 38.965625) scale(0.7)"/>
      <use xlink:href="#DejaVuSans-31" transform="translate(446.171875 38.965625) scale(0.7)"/>
      <use xlink:href="#DejaVuSans-48" transform="translate(493.442383 0.684375)"/>
      <use xlink:href="#DejaVuSans-7a" transform="translate(568.637695 0.684375)"/>
      <use xlink:href="#DejaVuSans-2212" transform="translate(622.084961 38.965625) scale(0.7)"/>
      <use xlink:href="#DejaVuSans-31" transform="translate(680.737305 38.965625) scale(0.7)"/>
      <use xlink:href="#DejaVuSans-5d" transform="translate(728.007812 0.684375)"/>
     </g>
    </g>
    <g id="text_18">
     <!-- 1e28 -->
     <g transform="translate(45.203125 14.798437) scale(0.1 -0.1)">
      <use xlink:href="#DejaVuSans-31"/>
      <use xlink:href="#DejaVuSans-65" transform="translate(63.623047 0)"/>
      <use xlink:href="#DejaVuSans-32" transform="translate(125.146484 0)"/>
      <use xlink:href="#DejaVuSans-38" transform="translate(188.769531 0)"/>
     </g>
    </g>
   </g>
   <g id="line2d_15">
    <path d="M 61.435852 244.733008 
L 62.086463 237.95527 
L 62.737073 224.8985 
L 64.038294 237.885958 
L 64.688904 218.416706 
L 65.339514 204.375308 
L 65.990124 177.371304 
L 66.640735 191.273359 
L 67.291345 224.763612 
L 68.592566 170.760384 
L 69.243176 164.15376 
L 69.893786 184.297211 
L 70.544397 224.325332 
L 71.195007 197.877836 
L 71.845617 218.244894 
L 72.496228 190.861373 
L 73.146838 197.847661 
L 73.797448 143.84451 
L 74.448059 136.650924 
L 75.098669 170.68294 
L 75.749279 184.642509 
L 76.399889 203.933702 
L 77.0505 177.310948 
L 77.70111 157.686285 
L 78.35172 130.066607 
L 79.002331 123.020456 
L 79.652941 163.906258 
L 80.303551 170.636183 
L 80.954162 183.919089 
L 81.604772 170.890922 
L 82.255382 177.222617 
L 82.905993 143.910713 
L 83.556603 171.949311 
L 84.207213 129.777703 
L 84.857823 144.21862 
L 85.508434 171.250513 
L 86.159044 102.828021 
L 86.809654 137.83759 
L 87.460265 163.889874 
L 88.110875 157.313699 
L 88.761485 191.246749 
L 89.412096 150.836658 
L 90.062706 137.641897 
L 90.713316 130.896243 
L 91.363927 144.58486 
L 92.014537 137.320817 
L 92.665147 144.616614 
L 93.315758 104.691383 
L 93.966368 117.084763 
L 94.616978 91.58947 
L 95.267588 130.187803 
L 95.918199 150.384701 
L 96.568809 51.383099 
L 97.219419 77.213986 
L 97.87003 150.734318 
L 98.52064 122.967047 
L 99.17125 178.408277 
L 99.821861 211.652597 
L 100.472471 177.765386 
L 101.123081 124.115782 
L 101.773692 157.049779 
L 102.424302 164.378977 
L 103.074912 184.957273 
L 104.376133 29.894437 
L 105.026743 91.643484 
L 105.677353 136.622722 
L 106.327964 143.608016 
L 106.978574 178.637401 
L 107.629184 177.588545 
L 108.279795 198.052132 
L 108.930405 178.754963 
L 109.581015 145.278401 
L 110.231626 138.800725 
L 110.882236 130.74708 
L 111.532846 109.641417 
L 112.183457 158.096752 
L 112.834067 171.599985 
L 113.484677 144.624022 
L 114.135288 192.415386 
L 114.785898 137.556224 
L 115.436508 137.397467 
L 116.087118 123.825396 
L 116.737729 191.989392 
L 117.388339 129.748247 
L 118.038949 151.369035 
L 118.68956 138.008197 
L 119.34017 42.893749 
L 120.641391 171.760043 
L 121.292001 89.5297 
L 121.942611 151.224164 
L 122.593222 145.255999 
L 123.243832 156.615067 
L 123.894442 35.105512 
L 124.545052 143.837889 
L 125.195663 139.115004 
L 126.496883 184.556448 
L 127.147494 177.756825 
L 127.798104 103.879016 
L 128.448714 89.866379 
L 129.749935 179.059667 
L 130.400545 165.452772 
L 131.051156 123.354652 
L 131.701766 97.472257 
L 132.352376 158.040251 
L 133.002987 178.218946 
L 133.653597 171.309744 
L 134.304207 218.695415 
L 134.954817 158.175305 
L 135.605428 178.199184 
L 136.256038 211.749302 
L 136.906648 163.705882 
L 137.557259 49.51639 
L 138.207869 145.142247 
L 138.858479 165.060571 
L 139.50909 150.437047 
L 140.1597 110.67413 
L 140.81031 130.640879 
L 141.460921 129.784065 
L 142.111531 103.356029 
L 142.762141 164.37146 
L 143.412752 129.964885 
L 144.063362 210.764813 
L 144.713972 137.491985 
L 145.364582 143.736395 
L 146.015193 130.19531 
L 146.665803 110.718097 
L 147.316413 177.554567 
L 147.967024 129.59817 
L 148.617634 184.783842 
L 149.268244 157.346416 
L 149.918855 117.693411 
L 150.569465 158.253419 
L 151.220075 137.248213 
L 151.870686 197.617512 
L 152.521296 184.899621 
L 153.822517 170.580274 
L 154.473127 197.374395 
L 155.123737 198.085735 
L 155.774347 164.108159 
L 157.075568 150.403423 
L 157.726178 164.475271 
L 158.376789 183.945226 
L 159.027399 211.834 
L 159.678009 171.830835 
L 160.32862 165.869608 
L 160.97923 177.618836 
L 161.62984 166.501794 
L 162.280451 131.328344 
L 162.931061 232.442496 
L 163.581671 137.770713 
L 164.232281 179.839356 
L 164.882892 173.13813 
L 165.533502 158.430858 
L 166.184112 186.498609 
L 166.834723 164.283873 
L 167.485333 191.346457 
L 168.135943 138.469174 
L 168.786554 177.908311 
L 169.437164 150.046526 
L 170.087774 217.988042 
L 170.738385 231.453874 
L 171.388995 217.735988 
L 172.039605 244.662806 
L 172.690216 232.279402 
L 173.340826 239.090748 
L 173.991436 187.582808 
L 174.642046 217.971875 
L 175.292657 172.383963 
L 175.943267 165.651832 
L 176.593877 206.315239 
L 177.244488 179.991859 
L 177.895098 204.720877 
L 178.545708 158.821126 
L 179.196319 166.236514 
L 179.846929 198.952096 
L 180.497539 152.055013 
L 181.14815 166.282592 
L 181.79876 192.011054 
L 182.44937 232.053563 
L 183.099981 185.195278 
L 183.750591 192.207208 
L 184.401201 245.054149 
L 185.051811 258.412726 
L 185.702422 258.702107 
L 186.353032 245.210878 
L 187.003642 265.215862 
L 187.654253 258.480095 
L 188.304863 245.285929 
L 188.955473 251.529007 
L 189.606084 251.733811 
L 190.256694 258.327264 
L 190.907304 251.877467 
L 191.557915 217.801466 
L 192.208525 237.960248 
L 192.859135 224.132136 
L 193.509746 244.850126 
L 194.160356 217.554388 
L 194.810966 217.875533 
L 195.461576 211.649679 
L 196.112187 231.373732 
L 196.762797 217.879092 
L 197.413407 224.995895 
L 198.064018 217.513192 
L 198.714628 237.876891 
L 199.365238 244.995594 
L 200.015849 231.818878 
L 200.666459 225.157986 
L 201.317069 197.645516 
L 201.96768 231.02539 
L 202.61829 244.985051 
L 203.2689 231.792059 
L 203.91951 197.748 
L 204.570121 224.883395 
L 205.220731 231.473841 
L 205.871341 198.173879 
L 207.172562 237.897899 
L 207.823172 218.057339 
L 208.473783 251.673193 
L 209.124393 225.031639 
L 209.775003 244.621008 
L 210.425614 225.069597 
L 211.076224 224.291497 
L 211.726834 205.625956 
L 212.377445 231.615118 
L 213.028055 238.176111 
L 213.678665 231.467304 
L 214.329275 245.116378 
L 214.979886 238.259282 
L 215.630496 258.886514 
L 216.281106 265.062747 
L 217.582327 238.207417 
L 218.232937 231.340168 
L 218.883548 245.731031 
L 219.534158 238.498819 
L 220.184768 244.651936 
L 220.835379 238.014726 
L 221.485989 244.721357 
L 222.136599 245.213533 
L 222.78721 271.814437 
L 223.43782 210.957447 
L 224.08843 231.233309 
L 224.73904 271.814437 
L 225.389651 238.189229 
L 227.341482 258.197745 
L 227.992092 251.481884 
L 228.642702 271.814437 
L 229.293313 237.957127 
L 229.943923 225.741655 
L 230.594533 245.273142 
L 231.245144 237.815724 
L 231.895754 251.972838 
L 233.196975 252.258051 
L 233.847585 252.423166 
L 235.148805 265.212103 
L 235.799416 245.532502 
L 236.450026 252.103765 
L 237.100636 245.589788 
L 237.751247 251.603799 
L 238.401857 265.135173 
L 239.052467 258.745147 
L 239.703078 258.625295 
L 240.353688 258.306238 
L 241.004298 251.977161 
L 241.654909 265.576512 
L 242.305519 258.84222 
L 242.956129 265.328862 
L 244.25735 238.912082 
L 244.90796 265.207919 
L 246.209181 251.894909 
L 246.859791 258.367915 
L 247.510401 251.725426 
L 248.161012 264.970264 
L 248.811622 264.957864 
L 249.462232 258.242054 
L 250.763453 271.814437 
L 251.414063 258.3818 
L 252.715284 271.814437 
L 253.365894 264.997841 
L 254.016504 251.824313 
L 254.667115 251.656711 
L 255.317725 258.197757 
L 255.968335 271.814437 
L 256.618946 258.421827 
L 257.269556 271.814437 
L 257.920166 237.884871 
L 258.570777 258.663214 
L 259.221387 237.861406 
L 259.871997 258.321017 
L 260.522608 271.814437 
L 261.173218 271.814437 
L 261.823828 252.031473 
L 262.474439 265.428602 
L 263.125049 265.00407 
L 264.426269 252.031909 
L 265.72749 265.237755 
L 266.3781 258.242431 
L 267.028711 258.507811 
L 267.679321 244.958488 
L 268.980542 271.814437 
L 269.631152 265.189451 
L 270.281762 271.814437 
L 270.932373 258.706793 
L 272.233593 271.814437 
L 274.185424 251.896873 
L 274.836034 264.975458 
L 275.486645 265.26523 
L 276.137255 271.814437 
L 277.438476 258.381694 
L 278.089086 258.467245 
L 278.739696 271.814437 
L 283.944579 271.814437 
L 284.595189 265.498195 
L 285.245799 271.814437 
L 285.89641 265.083743 
L 286.54702 265.593025 
L 287.19763 271.814437 
L 287.848241 271.814437 
L 288.498851 258.7518 
L 289.149461 258.762732 
L 289.800072 264.992504 
L 290.450682 265.389493 
L 291.101292 265.205331 
L 291.751903 271.814437 
L 295.004954 271.814437 
L 295.655564 264.962963 
L 296.306175 265.48426 
L 296.956785 271.814437 
L 306.065329 271.814437 
L 307.36655 258.919541 
L 308.01716 271.814437 
L 309.318381 271.814437 
L 309.968991 258.583367 
L 310.619602 271.814437 
L 311.920822 271.814437 
L 312.571433 258.329757 
L 313.222043 271.814437 
L 313.872653 265.057907 
L 314.523263 271.814437 
L 315.173874 265.066741 
L 315.824484 265.06941 
L 316.475094 271.814437 
L 317.125705 271.814437 
L 317.776315 258.762345 
L 318.426925 271.814437 
L 319.728146 271.814437 
L 320.378756 265.039959 
L 321.029367 271.814437 
L 324.933028 271.814437 
L 325.583639 258.423776 
L 326.234249 271.814437 
L 326.884859 271.814437 
L 327.53547 265.297273 
L 328.18608 271.814437 
L 328.83669 271.814437 
L 329.487301 265.308579 
L 330.137911 271.814437 
L 335.342793 271.814437 
L 335.993404 265.062222 
L 336.644014 271.814437 
L 339.897066 271.814437 
L 340.547676 265.158059 
L 341.198286 271.814437 
L 344.451338 271.814437 
L 345.101948 265.359243 
L 345.752558 271.814437 
L 349.00561 271.814437 
L 349.65622 265.457453 
L 350.306831 271.814437 
L 350.957441 271.814437 
L 351.608051 265.422558 
L 352.258662 271.814437 
L 386.090398 271.814437 
L 386.090398 271.814437 
" clip-path="url(#pdf089c6359)" style="fill: none; stroke: #1f77b4; stroke-width: 1.5; stroke-linecap: square"/>
   </g>
   <g id="patch_3">
    <path d="M 45.203125 283.910437 
L 45.203125 17.798437 
" style="fill: none; stroke: #000000; stroke-width: 0.8; stroke-linejoin: miter; stroke-linecap: square"/>
   </g>
   <g id="patch_4">
    <path d="M 402.323125 283.910437 
L 402.323125 17.798437 
" style="fill: none; stroke: #000000; stroke-width: 0.8; stroke-linejoin: miter; stroke-linecap: square"/>
   </g>
   <g id="patch_5">
    <path d="M 45.203125 283.910437 
L 402.323125 283.910437 
" style="fill: none; stroke: #000000; stroke-width: 0.8; stroke-linejoin: miter; stroke-linecap: square"/>
   </g>
   <g id="patch_6">
    <path d="M 45.203125 17.798437 
L 402.323125 17.798437 
" style="fill: none; stroke: #000000; stroke-width: 0.8; stroke-linejoin: miter; stroke-linecap: square"/>
   </g>
  </g>
 </g>
 <defs>
  <clipPath id="pdf089c6359">
   <rect x="45.203125" y="17.798437" width="357.12" height="266.112"/>
  </clipPath>
 </defs>
</svg>
