<?xml version="1.0" encoding="utf-8" standalone="no"?>
<!DOCTYPE svg PUBLIC "-//W3C//DTD SVG 1.1//EN"
  "http://www.w3.org/Graphics/SVG/1.1/DTD/svg11.dtd">
<svg xmlns:xlink="http://www.w3.org/1999/xlink" width="601.1625pt" height="418.236562pt" viewBox="0 0 601.1625 418.236562" xmlns="http://www.w3.org/2000/svg" version="1.1">
 <metadata>
  <rdf:RDF xmlns:dc="http://purl.org/dc/elements/1.1/" xmlns:cc="http://creativecommons.org/ns#" xmlns:rdf="http://www.w3.org/1999/02/22-rdf-syntax-ns#">
   <cc:Work>
    <dc:type rdf:resource="http://purl.org/dc/dcmitype/StillImage"/>
    <dc:date>2025-05-05T12:47:19.501770</dc:date>
    <dc:format>image/svg+xml</dc:format>
    <dc:creator>
     <cc:Agent>
      <dc:title>Matplotlib v3.10.1, https://matplotlib.org/</dc:title>
     </cc:Agent>
    </dc:creator>
   </cc:Work>
  </rdf:RDF>
 </metadata>
 <defs>
  <style type="text/css">*{stroke-linejoin: round; stroke-linecap: butt}</style>
 </defs>
 <g id="figure_1">
  <g id="patch_1">
   <path d="M 0 418.236562 
L 601.1625 418.236562 
L 601.1625 0 
L 0 0 
z
" style="fill: #ffffff"/>
  </g>
  <g id="axes_1">
   <g id="patch_2">
    <path d="M 35.9625 378.158437 
L 593.9625 378.158437 
L 593.9625 17.798437 
L 35.9625 17.798437 
z
" style="fill: #ffffff"/>
   </g>
   <g id="matplotlib.axis_1">
    <g id="xtick_1">
     <g id="line2d_1">
      <defs>
       <path id="m6fea48edf0" d="M 0 0 
L 0 3.5 
" style="stroke: #000000; stroke-width: 0.8"/>
      </defs>
      <g>
       <use xlink:href="#m6fea48edf0" x="48.317843" y="378.158437" style="stroke: #000000; stroke-width: 0.8"/>
      </g>
     </g>
     <g id="text_1">
      <!-- 0 -->
      <g transform="translate(45.136593 392.756875) scale(0.1 -0.1)">
       <defs>
        <path id="DejaVuSans-30" d="M 2034 4250 
Q 1547 4250 1301 3770 
Q 1056 3291 1056 2328 
Q 1056 1369 1301 889 
Q 1547 409 2034 409 
Q 2525 409 2770 889 
Q 3016 1369 3016 2328 
Q 3016 3291 2770 3770 
Q 2525 4250 2034 4250 
z
M 2034 4750 
Q 2819 4750 3233 4129 
Q 3647 3509 3647 2328 
Q 3647 1150 3233 529 
Q 2819 -91 2034 -91 
Q 1250 -91 836 529 
Q 422 1150 422 2328 
Q 422 3509 836 4129 
Q 1250 4750 2034 4750 
z
" transform="scale(0.015625)"/>
       </defs>
       <use xlink:href="#DejaVuSans-30"/>
      </g>
     </g>
    </g>
    <g id="xtick_2">
     <g id="line2d_2">
      <g>
       <use xlink:href="#m6fea48edf0" x="113.35297" y="378.158437" style="stroke: #000000; stroke-width: 0.8"/>
      </g>
     </g>
     <g id="text_2">
      <!-- 2500 -->
      <g transform="translate(100.62797 392.756875) scale(0.1 -0.1)">
       <defs>
        <path id="DejaVuSans-32" d="M 1228 531 
L 3431 531 
L 3431 0 
L 469 0 
L 469 531 
Q 828 903 1448 1529 
Q 2069 2156 2228 2338 
Q 2531 2678 2651 2914 
Q 2772 3150 2772 3378 
Q 2772 3750 2511 3984 
Q 2250 4219 1831 4219 
Q 1534 4219 1204 4116 
Q 875 4013 500 3803 
L 500 4441 
Q 881 4594 1212 4672 
Q 1544 4750 1819 4750 
Q 2544 4750 2975 4387 
Q 3406 4025 3406 3419 
Q 3406 3131 3298 2873 
Q 3191 2616 2906 2266 
Q 2828 2175 2409 1742 
Q 1991 1309 1228 531 
z
" transform="scale(0.015625)"/>
        <path id="DejaVuSans-35" d="M 691 4666 
L 3169 4666 
L 3169 4134 
L 1269 4134 
L 1269 2991 
Q 1406 3038 1543 3061 
Q 1681 3084 1819 3084 
Q 2600 3084 3056 2656 
Q 3513 2228 3513 1497 
Q 3513 744 3044 326 
Q 2575 -91 1722 -91 
Q 1428 -91 1123 -41 
Q 819 9 494 109 
L 494 744 
Q 775 591 1075 516 
Q 1375 441 1709 441 
Q 2250 441 2565 725 
Q 2881 1009 2881 1497 
Q 2881 1984 2565 2268 
Q 2250 2553 1709 2553 
Q 1456 2553 1204 2497 
Q 953 2441 691 2322 
L 691 4666 
z
" transform="scale(0.015625)"/>
       </defs>
       <use xlink:href="#DejaVuSans-32"/>
       <use xlink:href="#DejaVuSans-35" transform="translate(63.623047 0)"/>
       <use xlink:href="#DejaVuSans-30" transform="translate(127.246094 0)"/>
       <use xlink:href="#DejaVuSans-30" transform="translate(190.869141 0)"/>
      </g>
     </g>
    </g>
    <g id="xtick_3">
     <g id="line2d_3">
      <g>
       <use xlink:href="#m6fea48edf0" x="178.388098" y="378.158437" style="stroke: #000000; stroke-width: 0.8"/>
      </g>
     </g>
     <g id="text_3">
      <!-- 5000 -->
      <g transform="translate(165.663098 392.756875) scale(0.1 -0.1)">
       <use xlink:href="#DejaVuSans-35"/>
       <use xlink:href="#DejaVuSans-30" transform="translate(63.623047 0)"/>
       <use xlink:href="#DejaVuSans-30" transform="translate(127.246094 0)"/>
       <use xlink:href="#DejaVuSans-30" transform="translate(190.869141 0)"/>
      </g>
     </g>
    </g>
    <g id="xtick_4">
     <g id="line2d_4">
      <g>
       <use xlink:href="#m6fea48edf0" x="243.423225" y="378.158437" style="stroke: #000000; stroke-width: 0.8"/>
      </g>
     </g>
     <g id="text_4">
      <!-- 7500 -->
      <g transform="translate(230.698225 392.756875) scale(0.1 -0.1)">
       <defs>
        <path id="DejaVuSans-37" d="M 525 4666 
L 3525 4666 
L 3525 4397 
L 1831 0 
L 1172 0 
L 2766 4134 
L 525 4134 
L 525 4666 
z
" transform="scale(0.015625)"/>
       </defs>
       <use xlink:href="#DejaVuSans-37"/>
       <use xlink:href="#DejaVuSans-35" transform="translate(63.623047 0)"/>
       <use xlink:href="#DejaVuSans-30" transform="translate(127.246094 0)"/>
       <use xlink:href="#DejaVuSans-30" transform="translate(190.869141 0)"/>
      </g>
     </g>
    </g>
    <g id="xtick_5">
     <g id="line2d_5">
      <g>
       <use xlink:href="#m6fea48edf0" x="308.458353" y="378.158437" style="stroke: #000000; stroke-width: 0.8"/>
      </g>
     </g>
     <g id="text_5">
      <!-- 10000 -->
      <g transform="translate(292.552103 392.756875) scale(0.1 -0.1)">
       <defs>
        <path id="DejaVuSans-31" d="M 794 531 
L 1825 531 
L 1825 4091 
L 703 3866 
L 703 4441 
L 1819 4666 
L 2450 4666 
L 2450 531 
L 3481 531 
L 3481 0 
L 794 0 
L 794 531 
z
" transform="scale(0.015625)"/>
       </defs>
       <use xlink:href="#DejaVuSans-31"/>
       <use xlink:href="#DejaVuSans-30" transform="translate(63.623047 0)"/>
       <use xlink:href="#DejaVuSans-30" transform="translate(127.246094 0)"/>
       <use xlink:href="#DejaVuSans-30" transform="translate(190.869141 0)"/>
       <use xlink:href="#DejaVuSans-30" transform="translate(254.492188 0)"/>
      </g>
     </g>
    </g>
    <g id="xtick_6">
     <g id="line2d_6">
      <g>
       <use xlink:href="#m6fea48edf0" x="373.493481" y="378.158437" style="stroke: #000000; stroke-width: 0.8"/>
      </g>
     </g>
     <g id="text_6">
      <!-- 12500 -->
      <g transform="translate(357.587231 392.756875) scale(0.1 -0.1)">
       <use xlink:href="#DejaVuSans-31"/>
       <use xlink:href="#DejaVuSans-32" transform="translate(63.623047 0)"/>
       <use xlink:href="#DejaVuSans-35" transform="translate(127.246094 0)"/>
       <use xlink:href="#DejaVuSans-30" transform="translate(190.869141 0)"/>
       <use xlink:href="#DejaVuSans-30" transform="translate(254.492188 0)"/>
      </g>
     </g>
    </g>
    <g id="xtick_7">
     <g id="line2d_7">
      <g>
       <use xlink:href="#m6fea48edf0" x="438.528608" y="378.158437" style="stroke: #000000; stroke-width: 0.8"/>
      </g>
     </g>
     <g id="text_7">
      <!-- 15000 -->
      <g transform="translate(422.622358 392.756875) scale(0.1 -0.1)">
       <use xlink:href="#DejaVuSans-31"/>
       <use xlink:href="#DejaVuSans-35" transform="translate(63.623047 0)"/>
       <use xlink:href="#DejaVuSans-30" transform="translate(127.246094 0)"/>
       <use xlink:href="#DejaVuSans-30" transform="translate(190.869141 0)"/>
       <use xlink:href="#DejaVuSans-30" transform="translate(254.492188 0)"/>
      </g>
     </g>
    </g>
    <g id="xtick_8">
     <g id="line2d_8">
      <g>
       <use xlink:href="#m6fea48edf0" x="503.563736" y="378.158437" style="stroke: #000000; stroke-width: 0.8"/>
      </g>
     </g>
     <g id="text_8">
      <!-- 17500 -->
      <g transform="translate(487.657486 392.756875) scale(0.1 -0.1)">
       <use xlink:href="#DejaVuSans-31"/>
       <use xlink:href="#DejaVuSans-37" transform="translate(63.623047 0)"/>
       <use xlink:href="#DejaVuSans-35" transform="translate(127.246094 0)"/>
       <use xlink:href="#DejaVuSans-30" transform="translate(190.869141 0)"/>
       <use xlink:href="#DejaVuSans-30" transform="translate(254.492188 0)"/>
      </g>
     </g>
    </g>
    <g id="xtick_9">
     <g id="line2d_9">
      <g>
       <use xlink:href="#m6fea48edf0" x="568.598864" y="378.158437" style="stroke: #000000; stroke-width: 0.8"/>
      </g>
     </g>
     <g id="text_9">
      <!-- 20000 -->
      <g transform="translate(552.692614 392.756875) scale(0.1 -0.1)">
       <use xlink:href="#DejaVuSans-32"/>
       <use xlink:href="#DejaVuSans-30" transform="translate(63.623047 0)"/>
       <use xlink:href="#DejaVuSans-30" transform="translate(127.246094 0)"/>
       <use xlink:href="#DejaVuSans-30" transform="translate(190.869141 0)"/>
       <use xlink:href="#DejaVuSans-30" transform="translate(254.492188 0)"/>
      </g>
     </g>
    </g>
    <g id="text_10">
     <!-- Wavelength [$\mathrm{\mathring{A}}$] -->
     <g transform="translate(276.0625 408.936562) scale(0.1 -0.1)">
      <defs>
       <path id="DejaVuSans-57" d="M 213 4666 
L 850 4666 
L 1831 722 
L 2809 4666 
L 3519 4666 
L 4500 722 
L 5478 4666 
L 6119 4666 
L 4947 0 
L 4153 0 
L 3169 4050 
L 2175 0 
L 1381 0 
L 213 4666 
z
" transform="scale(0.015625)"/>
       <path id="DejaVuSans-61" d="M 2194 1759 
Q 1497 1759 1228 1600 
Q 959 1441 959 1056 
Q 959 750 1161 570 
Q 1363 391 1709 391 
Q 2188 391 2477 730 
Q 2766 1069 2766 1631 
L 2766 1759 
L 2194 1759 
z
M 3341 1997 
L 3341 0 
L 2766 0 
L 2766 531 
Q 2569 213 2275 61 
Q 1981 -91 1556 -91 
Q 1019 -91 701 211 
Q 384 513 384 1019 
Q 384 1609 779 1909 
Q 1175 2209 1959 2209 
L 2766 2209 
L 2766 2266 
Q 2766 2663 2505 2880 
Q 2244 3097 1772 3097 
Q 1472 3097 1187 3025 
Q 903 2953 641 2809 
L 641 3341 
Q 956 3463 1253 3523 
Q 1550 3584 1831 3584 
Q 2591 3584 2966 3190 
Q 3341 2797 3341 1997 
z
" transform="scale(0.015625)"/>
       <path id="DejaVuSans-76" d="M 191 3500 
L 800 3500 
L 1894 563 
L 2988 3500 
L 3597 3500 
L 2284 0 
L 1503 0 
L 191 3500 
z
" transform="scale(0.015625)"/>
       <path id="DejaVuSans-65" d="M 3597 1894 
L 3597 1613 
L 953 1613 
Q 991 1019 1311 708 
Q 1631 397 2203 397 
Q 2534 397 2845 478 
Q 3156 559 3463 722 
L 3463 178 
Q 3153 47 2828 -22 
Q 2503 -91 2169 -91 
Q 1331 -91 842 396 
Q 353 884 353 1716 
Q 353 2575 817 3079 
Q 1281 3584 2069 3584 
Q 2775 3584 3186 3129 
Q 3597 2675 3597 1894 
z
M 3022 2063 
Q 3016 2534 2758 2815 
Q 2500 3097 2075 3097 
Q 1594 3097 1305 2825 
Q 1016 2553 972 2059 
L 3022 2063 
z
" transform="scale(0.015625)"/>
       <path id="DejaVuSans-6c" d="M 603 4863 
L 1178 4863 
L 1178 0 
L 603 0 
L 603 4863 
z
" transform="scale(0.015625)"/>
       <path id="DejaVuSans-6e" d="M 3513 2113 
L 3513 0 
L 2938 0 
L 2938 2094 
Q 2938 2591 2744 2837 
Q 2550 3084 2163 3084 
Q 1697 3084 1428 2787 
Q 1159 2491 1159 1978 
L 1159 0 
L 581 0 
L 581 3500 
L 1159 3500 
L 1159 2956 
Q 1366 3272 1645 3428 
Q 1925 3584 2291 3584 
Q 2894 3584 3203 3211 
Q 3513 2838 3513 2113 
z
" transform="scale(0.015625)"/>
       <path id="DejaVuSans-67" d="M 2906 1791 
Q 2906 2416 2648 2759 
Q 2391 3103 1925 3103 
Q 1463 3103 1205 2759 
Q 947 2416 947 1791 
Q 947 1169 1205 825 
Q 1463 481 1925 481 
Q 2391 481 2648 825 
Q 2906 1169 2906 1791 
z
M 3481 434 
Q 3481 -459 3084 -895 
Q 2688 -1331 1869 -1331 
Q 1566 -1331 1297 -1286 
Q 1028 -1241 775 -1147 
L 775 -588 
Q 1028 -725 1275 -790 
Q 1522 -856 1778 -856 
Q 2344 -856 2625 -561 
Q 2906 -266 2906 331 
L 2906 616 
Q 2728 306 2450 153 
Q 2172 0 1784 0 
Q 1141 0 747 490 
Q 353 981 353 1791 
Q 353 2603 747 3093 
Q 1141 3584 1784 3584 
Q 2172 3584 2450 3431 
Q 2728 3278 2906 2969 
L 2906 3500 
L 3481 3500 
L 3481 434 
z
" transform="scale(0.015625)"/>
       <path id="DejaVuSans-74" d="M 1172 4494 
L 1172 3500 
L 2356 3500 
L 2356 3053 
L 1172 3053 
L 1172 1153 
Q 1172 725 1289 603 
Q 1406 481 1766 481 
L 2356 481 
L 2356 0 
L 1766 0 
Q 1100 0 847 248 
Q 594 497 594 1153 
L 594 3053 
L 172 3053 
L 172 3500 
L 594 3500 
L 594 4494 
L 1172 4494 
z
" transform="scale(0.015625)"/>
       <path id="DejaVuSans-68" d="M 3513 2113 
L 3513 0 
L 2938 0 
L 2938 2094 
Q 2938 2591 2744 2837 
Q 2550 3084 2163 3084 
Q 1697 3084 1428 2787 
Q 1159 2491 1159 1978 
L 1159 0 
L 581 0 
L 581 4863 
L 1159 4863 
L 1159 2956 
Q 1366 3272 1645 3428 
Q 1925 3584 2291 3584 
Q 2894 3584 3203 3211 
Q 3513 2838 3513 2113 
z
" transform="scale(0.015625)"/>
       <path id="DejaVuSans-20" transform="scale(0.015625)"/>
       <path id="DejaVuSans-5b" d="M 550 4863 
L 1875 4863 
L 1875 4416 
L 1125 4416 
L 1125 -397 
L 1875 -397 
L 1875 -844 
L 550 -844 
L 550 4863 
z
" transform="scale(0.015625)"/>
       <path id="DejaVuSans-2218" d="M 2003 2603 
Q 1753 2603 1581 2429 
Q 1409 2256 1409 2006 
Q 1409 1759 1581 1589 
Q 1753 1419 2003 1419 
Q 2253 1419 2425 1589 
Q 2597 1759 2597 2006 
Q 2597 2253 2423 2428 
Q 2250 2603 2003 2603 
z
M 2003 3006 
Q 2203 3006 2387 2929 
Q 2572 2853 2706 2709 
Q 2850 2569 2922 2390 
Q 2994 2212 2994 2006 
Q 2994 1594 2705 1308 
Q 2416 1022 1997 1022 
Q 1575 1022 1294 1303 
Q 1013 1584 1013 2006 
Q 1013 2425 1300 2715 
Q 1588 3006 2003 3006 
z
" transform="scale(0.015625)"/>
       <path id="DejaVuSans-41" d="M 2188 4044 
L 1331 1722 
L 3047 1722 
L 2188 4044 
z
M 1831 4666 
L 2547 4666 
L 4325 0 
L 3669 0 
L 3244 1197 
L 1141 1197 
L 716 0 
L 50 0 
L 1831 4666 
z
" transform="scale(0.015625)"/>
       <path id="DejaVuSans-5d" d="M 1947 4863 
L 1947 -844 
L 622 -844 
L 622 -397 
L 1369 -397 
L 1369 4416 
L 622 4416 
L 622 4863 
L 1947 4863 
z
" transform="scale(0.015625)"/>
      </defs>
      <use xlink:href="#DejaVuSans-57" transform="translate(0 0.390625)"/>
      <use xlink:href="#DejaVuSans-61" transform="translate(98.876953 0.390625)"/>
      <use xlink:href="#DejaVuSans-76" transform="translate(160.15625 0.390625)"/>
      <use xlink:href="#DejaVuSans-65" transform="translate(219.335938 0.390625)"/>
      <use xlink:href="#DejaVuSans-6c" transform="translate(280.859375 0.390625)"/>
      <use xlink:href="#DejaVuSans-65" transform="translate(308.642578 0.390625)"/>
      <use xlink:href="#DejaVuSans-6e" transform="translate(370.166016 0.390625)"/>
      <use xlink:href="#DejaVuSans-67" transform="translate(433.544922 0.390625)"/>
      <use xlink:href="#DejaVuSans-74" transform="translate(497.021484 0.390625)"/>
      <use xlink:href="#DejaVuSans-68" transform="translate(536.230469 0.390625)"/>
      <use xlink:href="#DejaVuSans-20" transform="translate(599.609375 0.390625)"/>
      <use xlink:href="#DejaVuSans-5b" transform="translate(631.396484 0.390625)"/>
      <use xlink:href="#DejaVuSans-2218" transform="translate(697.762207 77.96875) scale(0.49)"/>
      <use xlink:href="#DejaVuSans-41" transform="translate(670.410156 0.390625)"/>
      <use xlink:href="#DejaVuSans-5d" transform="translate(738.818359 0.390625)"/>
     </g>
    </g>
   </g>
   <g id="matplotlib.axis_2">
    <g id="ytick_1">
     <g id="line2d_10">
      <defs>
       <path id="m6f02aea2cb" d="M 0 0 
L -3.5 0 
" style="stroke: #000000; stroke-width: 0.8"/>
      </defs>
      <g>
       <use xlink:href="#m6f02aea2cb" x="35.9625" y="361.778461" style="stroke: #000000; stroke-width: 0.8"/>
      </g>
     </g>
     <g id="text_11">
      <!-- 0 -->
      <g transform="translate(22.6 365.57768) scale(0.1 -0.1)">
       <use xlink:href="#DejaVuSans-30"/>
      </g>
     </g>
    </g>
    <g id="ytick_2">
     <g id="line2d_11">
      <g>
       <use xlink:href="#m6f02aea2cb" x="35.9625" y="284.940393" style="stroke: #000000; stroke-width: 0.8"/>
      </g>
     </g>
     <g id="text_12">
      <!-- 1 -->
      <g transform="translate(22.6 288.739612) scale(0.1 -0.1)">
       <use xlink:href="#DejaVuSans-31"/>
      </g>
     </g>
    </g>
    <g id="ytick_3">
     <g id="line2d_12">
      <g>
       <use xlink:href="#m6f02aea2cb" x="35.9625" y="208.102325" style="stroke: #000000; stroke-width: 0.8"/>
      </g>
     </g>
     <g id="text_13">
      <!-- 2 -->
      <g transform="translate(22.6 211.901544) scale(0.1 -0.1)">
       <use xlink:href="#DejaVuSans-32"/>
      </g>
     </g>
    </g>
    <g id="ytick_4">
     <g id="line2d_13">
      <g>
       <use xlink:href="#m6f02aea2cb" x="35.9625" y="131.264258" style="stroke: #000000; stroke-width: 0.8"/>
      </g>
     </g>
     <g id="text_14">
      <!-- 3 -->
      <g transform="translate(22.6 135.063476) scale(0.1 -0.1)">
       <defs>
        <path id="DejaVuSans-33" d="M 2597 2516 
Q 3050 2419 3304 2112 
Q 3559 1806 3559 1356 
Q 3559 666 3084 287 
Q 2609 -91 1734 -91 
Q 1441 -91 1130 -33 
Q 819 25 488 141 
L 488 750 
Q 750 597 1062 519 
Q 1375 441 1716 441 
Q 2309 441 2620 675 
Q 2931 909 2931 1356 
Q 2931 1769 2642 2001 
Q 2353 2234 1838 2234 
L 1294 2234 
L 1294 2753 
L 1863 2753 
Q 2328 2753 2575 2939 
Q 2822 3125 2822 3475 
Q 2822 3834 2567 4026 
Q 2313 4219 1838 4219 
Q 1578 4219 1281 4162 
Q 984 4106 628 3988 
L 628 4550 
Q 988 4650 1302 4700 
Q 1616 4750 1894 4750 
Q 2613 4750 3031 4423 
Q 3450 4097 3450 3541 
Q 3450 3153 3228 2886 
Q 3006 2619 2597 2516 
z
" transform="scale(0.015625)"/>
       </defs>
       <use xlink:href="#DejaVuSans-33"/>
      </g>
     </g>
    </g>
    <g id="ytick_5">
     <g id="line2d_14">
      <g>
       <use xlink:href="#m6f02aea2cb" x="35.9625" y="54.42619" style="stroke: #000000; stroke-width: 0.8"/>
      </g>
     </g>
     <g id="text_15">
      <!-- 4 -->
      <g transform="translate(22.6 58.225409) scale(0.1 -0.1)">
       <defs>
        <path id="DejaVuSans-34" d="M 2419 4116 
L 825 1625 
L 2419 1625 
L 2419 4116 
z
M 2253 4666 
L 3047 4666 
L 3047 1625 
L 3713 1625 
L 3713 1100 
L 3047 1100 
L 3047 0 
L 2419 0 
L 2419 1100 
L 313 1100 
L 313 1709 
L 2253 4666 
z
" transform="scale(0.015625)"/>
       </defs>
       <use xlink:href="#DejaVuSans-34"/>
      </g>
     </g>
    </g>
    <g id="text_16">
     <!-- $L_\lambda$ [$\mathrm{erg s^{-1} \AA^{-1}}$] -->
     <g transform="translate(16.5 233.528437) rotate(-90) scale(0.1 -0.1)">
      <defs>
       <path id="DejaVuSans-Oblique-4c" d="M 1075 4666 
L 1709 4666 
L 909 525 
L 3181 525 
L 3078 0 
L 172 0 
L 1075 4666 
z
" transform="scale(0.015625)"/>
       <path id="DejaVuSans-Oblique-3bb" d="M 2350 4316 
L 3125 0 
L 2516 0 
L 2038 2588 
L 328 0 
L -281 0 
L 1903 3356 
L 1794 3975 
Q 1725 4369 1391 4369 
L 1091 4369 
L 1184 4863 
L 1550 4856 
Q 2253 4847 2350 4316 
z
" transform="scale(0.015625)"/>
       <path id="DejaVuSans-72" d="M 2631 2963 
Q 2534 3019 2420 3045 
Q 2306 3072 2169 3072 
Q 1681 3072 1420 2755 
Q 1159 2438 1159 1844 
L 1159 0 
L 581 0 
L 581 3500 
L 1159 3500 
L 1159 2956 
Q 1341 3275 1631 3429 
Q 1922 3584 2338 3584 
Q 2397 3584 2469 3576 
Q 2541 3569 2628 3553 
L 2631 2963 
z
" transform="scale(0.015625)"/>
       <path id="DejaVuSans-73" d="M 2834 3397 
L 2834 2853 
Q 2591 2978 2328 3040 
Q 2066 3103 1784 3103 
Q 1356 3103 1142 2972 
Q 928 2841 928 2578 
Q 928 2378 1081 2264 
Q 1234 2150 1697 2047 
L 1894 2003 
Q 2506 1872 2764 1633 
Q 3022 1394 3022 966 
Q 3022 478 2636 193 
Q 2250 -91 1575 -91 
Q 1294 -91 989 -36 
Q 684 19 347 128 
L 347 722 
Q 666 556 975 473 
Q 1284 391 1588 391 
Q 1994 391 2212 530 
Q 2431 669 2431 922 
Q 2431 1156 2273 1281 
Q 2116 1406 1581 1522 
L 1381 1569 
Q 847 1681 609 1914 
Q 372 2147 372 2553 
Q 372 3047 722 3315 
Q 1072 3584 1716 3584 
Q 2034 3584 2315 3537 
Q 2597 3491 2834 3397 
z
" transform="scale(0.015625)"/>
       <path id="DejaVuSans-2212" d="M 678 2272 
L 4684 2272 
L 4684 1741 
L 678 1741 
L 678 2272 
z
" transform="scale(0.015625)"/>
       <path id="DejaVuSans-c5" d="M 2663 5081 
Q 2663 5278 2523 5417 
Q 2384 5556 2188 5556 
Q 1988 5556 1852 5420 
Q 1716 5284 1716 5081 
Q 1716 4884 1853 4746 
Q 1991 4609 2188 4609 
Q 2384 4609 2523 4746 
Q 2663 4884 2663 5081 
z
M 2188 4044 
L 1338 1722 
L 3041 1722 
L 2188 4044 
z
M 1716 4366 
Q 1525 4494 1428 4673 
Q 1331 4853 1331 5081 
Q 1331 5441 1579 5691 
Q 1828 5941 2188 5941 
Q 2544 5941 2795 5689 
Q 3047 5438 3047 5081 
Q 3047 4863 2948 4678 
Q 2850 4494 2663 4366 
L 4325 0 
L 3669 0 
L 3244 1197 
L 1141 1197 
L 716 0 
L 50 0 
L 1716 4366 
z
" transform="scale(0.015625)"/>
      </defs>
      <use xlink:href="#DejaVuSans-Oblique-4c" transform="translate(0 0.171875)"/>
      <use xlink:href="#DejaVuSans-Oblique-3bb" transform="translate(55.712891 -16.234375) scale(0.7)"/>
      <use xlink:href="#DejaVuSans-20" transform="translate(99.873047 0.171875)"/>
      <use xlink:href="#DejaVuSans-5b" transform="translate(131.660156 0.171875)"/>
      <use xlink:href="#DejaVuSans-65" transform="translate(170.673828 0.171875)"/>
      <use xlink:href="#DejaVuSans-72" transform="translate(232.197266 0.171875)"/>
      <use xlink:href="#DejaVuSans-67" transform="translate(273.310547 0.171875)"/>
      <use xlink:href="#DejaVuSans-73" transform="translate(336.787109 0.171875)"/>
      <use xlink:href="#DejaVuSans-2212" transform="translate(389.84375 38.453125) scale(0.7)"/>
      <use xlink:href="#DejaVuSans-31" transform="translate(448.496094 38.453125) scale(0.7)"/>
      <use xlink:href="#DejaVuSans-c5" transform="translate(495.766602 0.171875)"/>
      <use xlink:href="#DejaVuSans-2212" transform="translate(565.131836 38.453125) scale(0.7)"/>
      <use xlink:href="#DejaVuSans-31" transform="translate(623.78418 38.453125) scale(0.7)"/>
      <use xlink:href="#DejaVuSans-5d" transform="translate(671.054688 0.171875)"/>
     </g>
    </g>
    <g id="text_17">
     <!-- 1e39 -->
     <g transform="translate(35.9625 14.798437) scale(0.1 -0.1)">
      <defs>
       <path id="DejaVuSans-39" d="M 703 97 
L 703 672 
Q 941 559 1184 500 
Q 1428 441 1663 441 
Q 2288 441 2617 861 
Q 2947 1281 2994 2138 
Q 2813 1869 2534 1725 
Q 2256 1581 1919 1581 
Q 1219 1581 811 2004 
Q 403 2428 403 3163 
Q 403 3881 828 4315 
Q 1253 4750 1959 4750 
Q 2769 4750 3195 4129 
Q 3622 3509 3622 2328 
Q 3622 1225 3098 567 
Q 2575 -91 1691 -91 
Q 1453 -91 1209 -44 
Q 966 3 703 97 
z
M 1959 2075 
Q 2384 2075 2632 2365 
Q 2881 2656 2881 3163 
Q 2881 3666 2632 3958 
Q 2384 4250 1959 4250 
Q 1534 4250 1286 3958 
Q 1038 3666 1038 3163 
Q 1038 2656 1286 2365 
Q 1534 2075 1959 2075 
z
" transform="scale(0.015625)"/>
      </defs>
      <use xlink:href="#DejaVuSans-31"/>
      <use xlink:href="#DejaVuSans-65" transform="translate(63.623047 0)"/>
      <use xlink:href="#DejaVuSans-33" transform="translate(125.146484 0)"/>
      <use xlink:href="#DejaVuSans-39" transform="translate(188.769531 0)"/>
     </g>
    </g>
   </g>
   <g id="line2d_15">
    <path d="M 568.598864 360.296901 
L 550.956255 360.132035 
L 471.276156 358.847875 
L 463.380484 358.534616 
L 414.40356 356.888938 
L 399.930346 356.113003 
L 395.356944 355.864916 
L 391.783 355.676404 
L 354.005869 352.514029 
L 351.918835 352.314065 
L 347.158176 352.053794 
L 341.252374 351.318648 
L 338.701847 350.927217 
L 334.343693 350.495584 
L 330.11442 349.859624 
L 323.148026 348.546718 
L 320.345983 347.943797 
L 306.150749 345.759087 
L 304.172783 345.359153 
L 302.224934 344.939613 
L 300.7834 344.683326 
L 297.948886 344.01516 
L 290.252751 342.544732 
L 288.510364 342.747027 
L 287.219955 343.099093 
L 285.943337 343.67247 
L 284.262254 344.435382 
L 283.016968 343.755443 
L 281.784758 343.543114 
L 280.970448 342.591974 
L 279.358751 340.426018 
L 278.164556 339.200617 
L 277.375261 338.749566 
L 275.812823 338.054449 
L 273.508728 336.97264 
L 270.508234 335.739172 
L 268.673194 335.379946 
L 267.586648 335.417767 
L 266.510764 335.567586 
L 265.445387 335.619646 
L 263.345542 334.889603 
L 262.310777 334.696102 
L 261.285923 333.595049 
L 260.270839 332.908007 
L 258.269427 332.038211 
L 256.956019 331.565074 
L 256.630231 331.431103 
L 255.658942 330.740926 
L 254.377893 329.897725 
L 252.798671 328.886812 
L 250.935266 328.170461 
L 248.502922 327.657416 
L 247.605781 327.441955 
L 245.252254 326.293128 
L 244.961966 326.073739 
L 244.383949 325.325767 
L 243.523268 324.634519 
L 239.879338 322.49716 
L 238.243016 321.847467 
L 233.754996 318.870894 
L 232.729646 318.064666 
L 231.715573 317.248164 
L 229.967525 315.764465 
L 225.386563 312.348295 
L 224.451436 311.752479 
L 222.610503 310.275529 
L 221.479335 309.285995 
L 218.823519 307.576351 
L 217.74082 306.466013 
L 216.884511 305.50543 
L 213.544119 300.699521 
L 213.135855 300.434799 
L 212.729605 300.687031 
L 212.325352 301.26209 
L 211.722686 302.871235 
L 211.124433 305.253665 
L 210.333544 309.460461 
L 208.581834 320.04681 
L 208.006318 322.322445 
L 207.815397 322.111725 
L 207.43492 319.93584 
L 207.056255 316.654949 
L 205.559447 300.109644 
L 205.005396 296.971519 
L 204.272706 294.188002 
L 203.72767 292.826244 
L 203.006854 291.821218 
L 202.648948 291.719608 
L 202.292693 291.812659 
L 201.761385 292.070807 
L 200.883974 292.429382 
L 199.329662 291.923883 
L 198.142476 290.9929 
L 196.97381 285.018429 
L 196.643247 284.291639 
L 196.314151 284.050205 
L 195.986511 284.196808 
L 195.66032 284.62263 
L 195.173725 285.71025 
L 194.52991 287.986534 
L 193.733036 292.00964 
L 192.944801 297.57442 
L 192.165066 303.367519 
L 192.010126 303.598662 
L 191.701247 302.973383 
L 191.24041 300.769246 
L 190.630548 298.449921 
L 190.02587 297.142281 
L 189.725453 295.831954 
L 188.683952 288.533398 
L 188.389192 287.261866 
L 188.095668 286.976835 
L 187.657681 287.317989 
L 187.07795 288.191038 
L 186.789889 288.732581 
L 186.646307 288.866434 
L 186.360034 289.483563 
L 186.074944 289.494039 
L 185.93284 289.572409 
L 185.367344 291.161345 
L 185.086335 291.014161 
L 184.946262 290.91189 
L 184.388828 286.537934 
L 183.6984 278.895634 
L 183.287496 276.469628 
L 183.014943 275.809957 
L 182.879079 275.668975 
L 182.608171 275.836907 
L 182.203849 276.135105 
L 181.801954 274.39232 
L 181.535362 273.635018 
L 181.137464 272.085364 
L 180.873517 271.695881 
L 180.610616 271.616054 
L 180.218215 271.871607 
L 179.957906 272.203214 
L 178.92686 275.101603 
L 178.671617 273.79579 
L 178.164113 270.542242 
L 178.037854 270.243056 
L 177.91184 270.262363 
L 177.660545 270.75637 
L 177.285425 272.750249 
L 176.665037 277.38956 
L 176.173007 280.804539 
L 175.320972 284.129387 
L 175.079616 285.475403 
L 174.959281 285.373041 
L 174.361018 276.189776 
L 173.886463 269.150531 
L 173.29827 262.617348 
L 172.947992 260.165448 
L 172.715562 259.5553 
L 172.483997 259.456239 
L 172.253293 259.788205 
L 172.023445 260.301303 
L 171.794447 260.575098 
L 171.680266 260.579239 
L 170.774364 255.406218 
L 170.438071 254.051903 
L 169.992543 252.280693 
L 169.770997 251.80582 
L 169.220643 249.32367 
L 169.001896 247.813228 
L 168.566767 241.279719 
L 167.919925 233.170536 
L 167.49255 230.111368 
L 167.068218 228.45065 
L 166.857183 227.77987 
L 166.437356 226.508609 
L 166.228556 226.172921 
L 166.124432 226.271421 
L 165.916735 227.259759 
L 165.60656 230.047036 
L 165.093221 237.459936 
L 164.38205 251.529457 
L 163.679488 271.177676 
L 162.690457 298.255908 
L 162.494682 298.832789 
L 162.397046 298.464628 
L 162.202273 296.238937 
L 161.911358 290.200334 
L 161.429789 274.125526 
L 160.573176 243.907794 
L 160.19661 236.019557 
L 159.915839 232.864633 
L 159.72944 232.088899 
L 159.543663 232.136557 
L 158.898293 234.122005 
L 158.532862 236.737033 
L 158.169838 240.007227 
L 157.272655 249.573572 
L 157.094974 250.033986 
L 157.006351 250.169047 
L 156.653297 248.12832 
L 155.954026 243.316054 
L 155.435468 241.149447 
L 154.666933 236.949087 
L 154.076765 233.573815 
L 153.742458 232.524136 
L 153.493112 232.489552 
L 153.244942 232.491776 
L 152.915865 232.147063 
L 152.588845 230.839943 
L 151.780173 220.615827 
L 151.063018 198.873717 
L 150.826171 196.190468 
L 150.590413 195.33599 
L 150.433843 195.391025 
L 150.122136 195.983024 
L 149.889602 197.994264 
L 149.504396 202.942073 
L 148.667144 217.72286 
L 147.547515 239.907111 
L 147.473761 239.909339 
L 147.253155 241.039788 
L 146.814874 246.380504 
L 146.742205 246.281747 
L 146.524838 243.449529 
L 146.236505 239.760619 
L 146.092972 239.26642 
L 145.807166 240.281811 
L 145.523025 243.802207 
L 145.029745 252.889767 
L 144.959685 252.733602 
L 144.889726 252.522931 
L 144.541445 246.490629 
L 144.126811 239.737711 
L 143.784002 236.671999 
L 143.647564 235.329457 
L 143.240581 224.759578 
L 142.304334 195.240668 
L 141.908715 190.088694 
L 141.516413 186.513365 
L 141.127386 183.843628 
L 140.677606 181.002457 
L 140.486175 180.500734 
L 140.295536 180.418779 
L 139.979551 180.453887 
L 138.798351 178.624008 
L 138.43164 177.404658 
L 138.249397 177.052914 
L 137.766999 173.423688 
L 137.349127 171.000293 
L 136.583348 167.557941 
L 135.658745 164.153117 
L 135.090641 161.854163 
L 134.641451 159.95053 
L 134.307599 159.031461 
L 133.866459 158.471436 
L 133.429822 158.14051 
L 133.26723 158.020515 
L 132.783161 158.08616 
L 132.676338 157.956811 
L 131.726955 155.789551 
L 131.622785 155.784723 
L 131.054472 154.634061 
L 130.84973 154.570035 
L 130.443272 154.79968 
L 130.29188 155.182122 
L 129.890885 156.144963 
L 129.543218 156.821293 
L 129.345879 155.680807 
L 129.051661 149.883708 
L 128.325381 136.734964 
L 128.22953 136.907714 
L 128.038514 138.520793 
L 127.943349 139.219569 
L 127.895851 139.052048 
L 127.84841 138.922966 
L 127.659211 141.121696 
L 127.423973 147.381926 
L 127.190126 155.844258 
L 126.818834 178.58929 
L 126.222883 230.226355 
L 125.725639 270.59342 
L 125.546393 273.33529 
L 125.457081 272.413844 
L 125.279075 266.635368 
L 124.969534 244.602025 
L 123.841289 146.029065 
L 123.458441 136.351856 
L 123.247421 135.013072 
L 123.205359 135.111675 
L 123.037582 135.07783 
L 122.995756 135.23141 
L 122.953976 135.179717 
L 122.66282 134.154086 
L 121.883871 125.967352 
L 121.160828 98.092472 
L 121.0417 95.118486 
L 120.765245 88.996755 
L 120.686644 89.18549 
L 120.608212 89.806374 
L 120.412876 93.925635 
L 120.141173 104.012931 
L 119.718323 127.77478 
L 119.224966 168.672993 
L 118.590003 245.438665 
L 118.295115 272.43629 
L 118.075568 278.5493 
L 118.002692 278.926748 
L 117.966311 278.847368 
L 117.857395 277.206564 
L 117.676623 269.703335 
L 117.389336 245.894422 
L 116.892268 181.740964 
L 116.229008 98.534808 
L 115.953564 86.62694 
L 114.642149 38.794913 
L 114.379402 34.962461 
L 114.183703 34.178437 
L 114.118728 34.303748 
L 114.086288 34.222189 
L 113.956849 36.47793 
L 113.603504 48.786136 
L 113.190788 75.238267 
L 112.752121 119.497672 
L 111.680975 235.069664 
L 111.025724 294.283703 
L 110.644861 309.19623 
L 110.412775 311.570233 
L 110.326188 311.762413 
L 110.297379 311.74408 
L 110.153736 310.353049 
L 110.039299 307.956699 
L 109.98224 308.604158 
L 109.896848 308.981719 
L 109.868437 308.942927 
L 109.78336 307.826424 
L 109.642087 299.994995 
L 109.277797 234.342789 
L 108.91781 150.057185 
L 108.780483 150.59411 
L 108.453424 151.482556 
L 107.598318 154.912408 
L 107.545681 154.723141 
L 107.440686 154.568936 
L 107.414495 154.589646 
L 106.259467 156.24247 
L 106.158979 156.431551 
L 106.133911 156.384955 
L 105.983961 156.110747 
L 105.959045 156.141491 
L 105.834787 156.436781 
L 105.538741 157.943391 
L 104.126418 167.414402 
L 104.079763 167.508517 
L 104.033186 167.407457 
L 103.847655 166.992103 
L 103.686325 167.003217 
L 103.503093 167.103755 
L 103.480274 167.081005 
L 103.343756 166.818537 
L 103.185338 166.652959 
L 103.005401 166.4593 
L 102.38481 165.108412 
L 102.341021 165.13285 
L 102.231857 165.302963 
L 102.079767 165.954832 
L 101.863978 168.286507 
L 101.564767 175.559318 
L 100.258684 228.060918 
L 100.177918 225.951815 
L 99.422986 196.070985 
L 99.403416 196.091864 
L 99.266845 195.9968 
L 99.092323 196.846294 
L 98.842336 198.265326 
L 98.823208 198.016077 
L 98.349675 191.393297 
L 98.144121 190.853232 
L 97.94025 190.708726 
L 97.738041 190.890515 
L 97.701452 190.820299 
L 97.320519 189.298287 
L 96.856953 187.045562 
L 96.698525 186.694254 
L 96.645945 186.95985 
L 96.488889 188.817091 
L 96.177819 195.780579 
L 95.769256 210.888229 
L 95.268257 242.469845 
L 95.038061 254.469961 
L 95.021704 254.450963 
L 94.90753 256.27226 
L 94.713097 266.52723 
L 94.092246 306.170622 
L 93.93572 306.92994 
L 93.920127 306.867328 
L 93.826788 306.139893 
L 93.687495 305.177424 
L 93.656656 305.57858 
L 93.564392 307.016891 
L 93.41145 312.035063 
L 93.018597 320.533107 
L 92.899093 321.342324 
L 92.869316 321.28164 
L 92.735814 319.05158 
L 92.573726 311.217714 
L 92.224155 281.833298 
L 91.922779 265.144453 
L 91.695922 262.133163 
L 91.639576 262.057788 
L 91.611458 262.183333 
L 91.194024 269.719783 
L 91.138973 268.015518 
L 90.703607 251.015612 
L 90.462582 249.637138 
L 90.303415 249.639016 
L 90.093054 249.727894 
L 90.079977 249.709379 
L 89.845972 249.545752 
L 89.601796 249.442707 
L 89.134441 247.731472 
L 88.386617 242.108133 
L 87.817157 234.862625 
L 87.700551 235.097992 
L 87.596192 236.647868 
L 87.082587 249.805052 
L 86.803013 275.297695 
L 86.116053 341.380292 
L 86.105346 341.40294 
L 86.073263 341.259971 
L 85.97734 339.292603 
L 85.776428 328.880839 
L 85.391267 292.02302 
L 84.943423 257.100253 
L 84.773277 254.311628 
L 84.753363 254.449892 
L 84.673927 255.857451 
L 84.467046 262.576519 
L 83.813007 293.521608 
L 83.100403 344.504825 
L 83.000932 345.214507 
L 82.955905 344.968426 
L 82.75917 342.356832 
L 82.723639 341.700344 
L 82.626308 341.889808 
L 82.547082 340.671215 
L 82.363637 335.089853 
L 81.977086 319.561669 
L 81.3438 297.359223 
L 81.27038 296.822056 
L 81.213501 297.138601 
L 81.140659 299.278397 
L 80.987935 310.074098 
L 80.468288 344.362779 
L 80.291062 346.501173 
L 80.275744 346.496403 
L 80.130945 345.113773 
L 79.748685 337.508891 
L 79.726485 338.642696 
L 79.513491 344.287316 
L 79.404451 344.504414 
L 79.477059 344.251851 
L 79.375502 344.441495 
L 79.267423 344.343004 
L 79.260245 344.368723 
L 79.253069 344.378349 
L 79.238729 344.26626 
L 79.210088 344.276104 
L 79.032277 342.659624 
L 78.745057 338.594617 
L 78.675816 337.492659 
L 78.593142 338.128048 
L 78.429137 338.701795 
L 78.401976 338.643653 
L 78.341041 338.869793 
L 78.119711 344.367594 
L 77.680234 354.720253 
L 77.609317 355.674201 
L 77.532342 355.475939 
L 77.215922 353.517413 
L 77.16593 354.264737 
L 76.881798 356.004324 
L 76.832954 356.051717 
L 76.796431 355.953154 
L 76.790352 355.954825 
L 76.525459 355.451874 
L 76.34177 355.211124 
L 76.102469 354.575263 
L 76.0909 354.530094 
L 76.03896 354.491629 
L 75.992954 354.436597 
L 75.93566 354.527701 
L 75.889996 354.553302 
L 75.861532 354.477082 
L 75.580096 353.144415 
L 75.574526 353.13953 
L 75.568958 353.151687 
L 75.337147 356.342275 
L 75.277085 356.600682 
L 75.206445 356.529417 
L 75.044836 356.605224 
L 74.879868 357.384884 
L 74.61804 358.436345 
L 74.592141 358.400299 
L 74.53019 358.302117 
L 74.330853 358.138363 
L 74.325782 358.142618 
L 74.260034 358.242202 
L 74.189599 358.382237 
L 74.139522 358.267893 
L 74.119546 358.199846 
L 74.049871 358.379706 
L 73.818689 358.393858 
L 73.707065 358.165988 
L 73.682928 358.353135 
L 73.39211 359.513239 
L 73.284181 359.872706 
L 73.218939 360.022611 
L 73.163288 359.950054 
L 72.979568 359.571425 
L 72.97501 359.583082 
L 72.911371 359.443115 
L 72.902307 359.423563 
L 72.8616 359.592361 
L 72.785075 359.717758 
L 72.735813 359.661372 
L 72.606886 359.509036 
L 72.580381 359.637778 
L 72.518761 359.727802 
L 72.44872 359.699311 
L 71.97795 359.145411 
L 71.911 359.047487 
L 71.81542 358.77859 
L 71.774105 358.997834 
L 71.336988 360.058968 
L 71.309218 360.050663 
L 71.273611 360.143751 
L 71.269662 360.147338 
L 71.155716 360.230786 
L 71.116687 360.169881 
L 70.954208 360.21949 
L 70.904386 360.508811 
L 70.756225 360.879882 
L 70.696002 360.913615 
L 70.673502 360.957542 
L 70.473016 361.024573 
L 70.326811 360.904829 
L 70.286943 360.943737 
L 69.997754 361.170196 
L 69.65789 361.086722 
L 69.461719 360.980313 
L 69.441631 361.017659 
L 69.269122 361.083818 
L 69.167614 361.241417 
L 68.983514 361.544511 
L 68.970717 361.539075 
L 68.777505 361.507525 
L 68.201168 361.445825 
L 67.935099 361.487233 
L 67.681676 361.435915 
L 67.451167 361.463332 
L 67.266368 361.49107 
L 67.058739 361.582832 
L 66.753142 361.651144 
L 66.58152 361.749824 
L 65.85178 361.614763 
L 65.680626 361.567177 
L 65.678367 361.569508 
L 65.448748 361.512936 
L 65.426778 361.598993 
L 65.268089 361.773465 
L 61.326136 361.778437 
L 61.326136 361.778437 
" clip-path="url(#pf0ac3bc9bd)" style="fill: none; stroke: #1f77b4; stroke-width: 1.5; stroke-linecap: square"/>
   </g>
   <g id="patch_3">
    <path d="M 35.9625 378.158437 
L 35.9625 17.798437 
" style="fill: none; stroke: #000000; stroke-width: 0.8; stroke-linejoin: miter; stroke-linecap: square"/>
   </g>
   <g id="patch_4">
    <path d="M 593.9625 378.158437 
L 593.9625 17.798437 
" style="fill: none; stroke: #000000; stroke-width: 0.8; stroke-linejoin: miter; stroke-linecap: square"/>
   </g>
   <g id="patch_5">
    <path d="M 35.9625 378.158437 
L 593.9625 378.158437 
" style="fill: none; stroke: #000000; stroke-width: 0.8; stroke-linejoin: miter; stroke-linecap: square"/>
   </g>
   <g id="patch_6">
    <path d="M 35.9625 17.798437 
L 593.9625 17.798437 
" style="fill: none; stroke: #000000; stroke-width: 0.8; stroke-linejoin: miter; stroke-linecap: square"/>
   </g>
  </g>
 </g>
 <defs>
  <clipPath id="pf0ac3bc9bd">
   <rect x="35.9625" y="17.798437" width="558" height="360.36"/>
  </clipPath>
 </defs>
</svg>
