<?xml version="1.0" encoding="utf-8" standalone="no"?>
<!DOCTYPE svg PUBLIC "-//W3C//DTD SVG 1.1//EN"
  "http://www.w3.org/Graphics/SVG/1.1/DTD/svg11.dtd">
<svg xmlns:xlink="http://www.w3.org/1999/xlink" width="660.65pt" height="308.278125pt" viewBox="0 0 660.65 308.278125" xmlns="http://www.w3.org/2000/svg" version="1.1">
 <metadata>
  <rdf:RDF xmlns:dc="http://purl.org/dc/elements/1.1/" xmlns:cc="http://creativecommons.org/ns#" xmlns:rdf="http://www.w3.org/1999/02/22-rdf-syntax-ns#">
   <cc:Work>
    <dc:type rdf:resource="http://purl.org/dc/dcmitype/StillImage"/>
    <dc:date>2025-05-05T13:42:16.206736</dc:date>
    <dc:format>image/svg+xml</dc:format>
    <dc:creator>
     <cc:Agent>
      <dc:title>Matplotlib v3.10.1, https://matplotlib.org/</dc:title>
     </cc:Agent>
    </dc:creator>
   </cc:Work>
  </rdf:RDF>
 </metadata>
 <defs>
  <style type="text/css">*{stroke-linejoin: round; stroke-linecap: butt}</style>
 </defs>
 <g id="figure_1">
  <g id="patch_1">
   <path d="M 0 308.278125 
L 660.65 308.278125 
L 660.65 0 
L 0 0 
z
" style="fill: #ffffff"/>
  </g>
  <g id="axes_1">
   <g id="patch_2">
    <path d="M 39.65 284.4 
L 653.45 284.4 
L 653.45 7.2 
L 39.65 7.2 
z
" style="fill: #ffffff"/>
   </g>
   <g id="matplotlib.axis_1">
    <g id="xtick_1">
     <g id="line2d_1">
      <defs>
       <path id="md88879af8f" d="M 0 0 
L 0 3.5 
" style="stroke: #000000; stroke-width: 0.8"/>
      </defs>
      <g>
       <use xlink:href="#md88879af8f" x="129.55" y="284.4" style="stroke: #000000; stroke-width: 0.8"/>
      </g>
     </g>
     <g id="text_1">
      <!-- 12000 -->
      <g transform="translate(113.64375 298.998438) scale(0.1 -0.1)">
       <defs>
        <path id="DejaVuSans-31" d="M 794 531 
L 1825 531 
L 1825 4091 
L 703 3866 
L 703 4441 
L 1819 4666 
L 2450 4666 
L 2450 531 
L 3481 531 
L 3481 0 
L 794 0 
L 794 531 
z
" transform="scale(0.015625)"/>
        <path id="DejaVuSans-32" d="M 1228 531 
L 3431 531 
L 3431 0 
L 469 0 
L 469 531 
Q 828 903 1448 1529 
Q 2069 2156 2228 2338 
Q 2531 2678 2651 2914 
Q 2772 3150 2772 3378 
Q 2772 3750 2511 3984 
Q 2250 4219 1831 4219 
Q 1534 4219 1204 4116 
Q 875 4013 500 3803 
L 500 4441 
Q 881 4594 1212 4672 
Q 1544 4750 1819 4750 
Q 2544 4750 2975 4387 
Q 3406 4025 3406 3419 
Q 3406 3131 3298 2873 
Q 3191 2616 2906 2266 
Q 2828 2175 2409 1742 
Q 1991 1309 1228 531 
z
" transform="scale(0.015625)"/>
        <path id="DejaVuSans-30" d="M 2034 4250 
Q 1547 4250 1301 3770 
Q 1056 3291 1056 2328 
Q 1056 1369 1301 889 
Q 1547 409 2034 409 
Q 2525 409 2770 889 
Q 3016 1369 3016 2328 
Q 3016 3291 2770 3770 
Q 2525 4250 2034 4250 
z
M 2034 4750 
Q 2819 4750 3233 4129 
Q 3647 3509 3647 2328 
Q 3647 1150 3233 529 
Q 2819 -91 2034 -91 
Q 1250 -91 836 529 
Q 422 1150 422 2328 
Q 422 3509 836 4129 
Q 1250 4750 2034 4750 
z
" transform="scale(0.015625)"/>
       </defs>
       <use xlink:href="#DejaVuSans-31"/>
       <use xlink:href="#DejaVuSans-32" transform="translate(63.623047 0)"/>
       <use xlink:href="#DejaVuSans-30" transform="translate(127.246094 0)"/>
       <use xlink:href="#DejaVuSans-30" transform="translate(190.869141 0)"/>
       <use xlink:href="#DejaVuSans-30" transform="translate(254.492188 0)"/>
      </g>
     </g>
    </g>
    <g id="xtick_2">
     <g id="line2d_2">
      <g>
       <use xlink:href="#md88879af8f" x="253.55" y="284.4" style="stroke: #000000; stroke-width: 0.8"/>
      </g>
     </g>
     <g id="text_2">
      <!-- 14000 -->
      <g transform="translate(237.64375 298.998438) scale(0.1 -0.1)">
       <defs>
        <path id="DejaVuSans-34" d="M 2419 4116 
L 825 1625 
L 2419 1625 
L 2419 4116 
z
M 2253 4666 
L 3047 4666 
L 3047 1625 
L 3713 1625 
L 3713 1100 
L 3047 1100 
L 3047 0 
L 2419 0 
L 2419 1100 
L 313 1100 
L 313 1709 
L 2253 4666 
z
" transform="scale(0.015625)"/>
       </defs>
       <use xlink:href="#DejaVuSans-31"/>
       <use xlink:href="#DejaVuSans-34" transform="translate(63.623047 0)"/>
       <use xlink:href="#DejaVuSans-30" transform="translate(127.246094 0)"/>
       <use xlink:href="#DejaVuSans-30" transform="translate(190.869141 0)"/>
       <use xlink:href="#DejaVuSans-30" transform="translate(254.492188 0)"/>
      </g>
     </g>
    </g>
    <g id="xtick_3">
     <g id="line2d_3">
      <g>
       <use xlink:href="#md88879af8f" x="377.55" y="284.4" style="stroke: #000000; stroke-width: 0.8"/>
      </g>
     </g>
     <g id="text_3">
      <!-- 16000 -->
      <g transform="translate(361.64375 298.998438) scale(0.1 -0.1)">
       <defs>
        <path id="DejaVuSans-36" d="M 2113 2584 
Q 1688 2584 1439 2293 
Q 1191 2003 1191 1497 
Q 1191 994 1439 701 
Q 1688 409 2113 409 
Q 2538 409 2786 701 
Q 3034 994 3034 1497 
Q 3034 2003 2786 2293 
Q 2538 2584 2113 2584 
z
M 3366 4563 
L 3366 3988 
Q 3128 4100 2886 4159 
Q 2644 4219 2406 4219 
Q 1781 4219 1451 3797 
Q 1122 3375 1075 2522 
Q 1259 2794 1537 2939 
Q 1816 3084 2150 3084 
Q 2853 3084 3261 2657 
Q 3669 2231 3669 1497 
Q 3669 778 3244 343 
Q 2819 -91 2113 -91 
Q 1303 -91 875 529 
Q 447 1150 447 2328 
Q 447 3434 972 4092 
Q 1497 4750 2381 4750 
Q 2619 4750 2861 4703 
Q 3103 4656 3366 4563 
z
" transform="scale(0.015625)"/>
       </defs>
       <use xlink:href="#DejaVuSans-31"/>
       <use xlink:href="#DejaVuSans-36" transform="translate(63.623047 0)"/>
       <use xlink:href="#DejaVuSans-30" transform="translate(127.246094 0)"/>
       <use xlink:href="#DejaVuSans-30" transform="translate(190.869141 0)"/>
       <use xlink:href="#DejaVuSans-30" transform="translate(254.492188 0)"/>
      </g>
     </g>
    </g>
    <g id="xtick_4">
     <g id="line2d_4">
      <g>
       <use xlink:href="#md88879af8f" x="501.55" y="284.4" style="stroke: #000000; stroke-width: 0.8"/>
      </g>
     </g>
     <g id="text_4">
      <!-- 18000 -->
      <g transform="translate(485.64375 298.998438) scale(0.1 -0.1)">
       <defs>
        <path id="DejaVuSans-38" d="M 2034 2216 
Q 1584 2216 1326 1975 
Q 1069 1734 1069 1313 
Q 1069 891 1326 650 
Q 1584 409 2034 409 
Q 2484 409 2743 651 
Q 3003 894 3003 1313 
Q 3003 1734 2745 1975 
Q 2488 2216 2034 2216 
z
M 1403 2484 
Q 997 2584 770 2862 
Q 544 3141 544 3541 
Q 544 4100 942 4425 
Q 1341 4750 2034 4750 
Q 2731 4750 3128 4425 
Q 3525 4100 3525 3541 
Q 3525 3141 3298 2862 
Q 3072 2584 2669 2484 
Q 3125 2378 3379 2068 
Q 3634 1759 3634 1313 
Q 3634 634 3220 271 
Q 2806 -91 2034 -91 
Q 1263 -91 848 271 
Q 434 634 434 1313 
Q 434 1759 690 2068 
Q 947 2378 1403 2484 
z
M 1172 3481 
Q 1172 3119 1398 2916 
Q 1625 2713 2034 2713 
Q 2441 2713 2670 2916 
Q 2900 3119 2900 3481 
Q 2900 3844 2670 4047 
Q 2441 4250 2034 4250 
Q 1625 4250 1398 4047 
Q 1172 3844 1172 3481 
z
" transform="scale(0.015625)"/>
       </defs>
       <use xlink:href="#DejaVuSans-31"/>
       <use xlink:href="#DejaVuSans-38" transform="translate(63.623047 0)"/>
       <use xlink:href="#DejaVuSans-30" transform="translate(127.246094 0)"/>
       <use xlink:href="#DejaVuSans-30" transform="translate(190.869141 0)"/>
       <use xlink:href="#DejaVuSans-30" transform="translate(254.492188 0)"/>
      </g>
     </g>
    </g>
    <g id="xtick_5">
     <g id="line2d_5">
      <g>
       <use xlink:href="#md88879af8f" x="625.55" y="284.4" style="stroke: #000000; stroke-width: 0.8"/>
      </g>
     </g>
     <g id="text_5">
      <!-- 20000 -->
      <g transform="translate(609.64375 298.998438) scale(0.1 -0.1)">
       <use xlink:href="#DejaVuSans-32"/>
       <use xlink:href="#DejaVuSans-30" transform="translate(63.623047 0)"/>
       <use xlink:href="#DejaVuSans-30" transform="translate(127.246094 0)"/>
       <use xlink:href="#DejaVuSans-30" transform="translate(190.869141 0)"/>
       <use xlink:href="#DejaVuSans-30" transform="translate(254.492188 0)"/>
      </g>
     </g>
    </g>
   </g>
   <g id="matplotlib.axis_2">
    <g id="ytick_1">
     <g id="line2d_6">
      <defs>
       <path id="m43afac27ce" d="M 0 0 
L -3.5 0 
" style="stroke: #000000; stroke-width: 0.8"/>
      </defs>
      <g>
       <use xlink:href="#m43afac27ce" x="39.65" y="271.8" style="stroke: #000000; stroke-width: 0.8"/>
      </g>
     </g>
     <g id="text_6">
      <!-- 0 -->
      <g transform="translate(26.2875 275.599219) scale(0.1 -0.1)">
       <use xlink:href="#DejaVuSans-30"/>
      </g>
     </g>
    </g>
    <g id="ytick_2">
     <g id="line2d_7">
      <g>
       <use xlink:href="#m43afac27ce" x="39.65" y="231.926582" style="stroke: #000000; stroke-width: 0.8"/>
      </g>
     </g>
     <g id="text_7">
      <!-- 200 -->
      <g transform="translate(13.5625 235.725801) scale(0.1 -0.1)">
       <use xlink:href="#DejaVuSans-32"/>
       <use xlink:href="#DejaVuSans-30" transform="translate(63.623047 0)"/>
       <use xlink:href="#DejaVuSans-30" transform="translate(127.246094 0)"/>
      </g>
     </g>
    </g>
    <g id="ytick_3">
     <g id="line2d_8">
      <g>
       <use xlink:href="#m43afac27ce" x="39.65" y="192.053165" style="stroke: #000000; stroke-width: 0.8"/>
      </g>
     </g>
     <g id="text_8">
      <!-- 400 -->
      <g transform="translate(13.5625 195.852383) scale(0.1 -0.1)">
       <use xlink:href="#DejaVuSans-34"/>
       <use xlink:href="#DejaVuSans-30" transform="translate(63.623047 0)"/>
       <use xlink:href="#DejaVuSans-30" transform="translate(127.246094 0)"/>
      </g>
     </g>
    </g>
    <g id="ytick_4">
     <g id="line2d_9">
      <g>
       <use xlink:href="#m43afac27ce" x="39.65" y="152.179747" style="stroke: #000000; stroke-width: 0.8"/>
      </g>
     </g>
     <g id="text_9">
      <!-- 600 -->
      <g transform="translate(13.5625 155.978966) scale(0.1 -0.1)">
       <use xlink:href="#DejaVuSans-36"/>
       <use xlink:href="#DejaVuSans-30" transform="translate(63.623047 0)"/>
       <use xlink:href="#DejaVuSans-30" transform="translate(127.246094 0)"/>
      </g>
     </g>
    </g>
    <g id="ytick_5">
     <g id="line2d_10">
      <g>
       <use xlink:href="#m43afac27ce" x="39.65" y="112.306329" style="stroke: #000000; stroke-width: 0.8"/>
      </g>
     </g>
     <g id="text_10">
      <!-- 800 -->
      <g transform="translate(13.5625 116.105548) scale(0.1 -0.1)">
       <use xlink:href="#DejaVuSans-38"/>
       <use xlink:href="#DejaVuSans-30" transform="translate(63.623047 0)"/>
       <use xlink:href="#DejaVuSans-30" transform="translate(127.246094 0)"/>
      </g>
     </g>
    </g>
    <g id="ytick_6">
     <g id="line2d_11">
      <g>
       <use xlink:href="#m43afac27ce" x="39.65" y="72.432911" style="stroke: #000000; stroke-width: 0.8"/>
      </g>
     </g>
     <g id="text_11">
      <!-- 1000 -->
      <g transform="translate(7.2 76.23213) scale(0.1 -0.1)">
       <use xlink:href="#DejaVuSans-31"/>
       <use xlink:href="#DejaVuSans-30" transform="translate(63.623047 0)"/>
       <use xlink:href="#DejaVuSans-30" transform="translate(127.246094 0)"/>
       <use xlink:href="#DejaVuSans-30" transform="translate(190.869141 0)"/>
      </g>
     </g>
    </g>
    <g id="ytick_7">
     <g id="line2d_12">
      <g>
       <use xlink:href="#m43afac27ce" x="39.65" y="32.559494" style="stroke: #000000; stroke-width: 0.8"/>
      </g>
     </g>
     <g id="text_12">
      <!-- 1200 -->
      <g transform="translate(7.2 36.358712) scale(0.1 -0.1)">
       <use xlink:href="#DejaVuSans-31"/>
       <use xlink:href="#DejaVuSans-32" transform="translate(63.623047 0)"/>
       <use xlink:href="#DejaVuSans-30" transform="translate(127.246094 0)"/>
       <use xlink:href="#DejaVuSans-30" transform="translate(190.869141 0)"/>
      </g>
     </g>
    </g>
   </g>
   <g id="line2d_13">
    <path d="M 67.55 268.809494 
L 95.45 268.809494 
L 95.45 268.809494 
L 95.45 268.809494 
L 95.45 269.407595 
L 123.35 269.407595 
L 123.35 269.407595 
L 123.35 269.407595 
L 123.35 269.208228 
L 151.25 269.208228 
L 151.25 269.208228 
L 151.25 269.208228 
L 151.25 270.205063 
L 179.15 270.205063 
L 179.15 270.205063 
L 179.15 270.205063 
L 179.15 270.603797 
L 207.05 270.603797 
L 207.05 270.603797 
L 207.05 270.603797 
L 207.05 270.603797 
L 234.95 270.603797 
L 234.95 270.603797 
L 234.95 270.603797 
L 234.95 270.803165 
L 262.85 270.803165 
L 262.85 270.803165 
L 262.85 270.803165 
L 262.85 271.002532 
L 290.75 271.002532 
L 290.75 271.002532 
L 290.75 271.002532 
L 290.75 271.401266 
L 318.65 271.401266 
L 318.65 271.401266 
L 318.65 271.401266 
L 318.65 271.002532 
L 346.55 271.002532 
L 346.55 271.002532 
L 346.55 271.002532 
L 346.55 269.008861 
L 374.45 269.008861 
L 374.45 269.008861 
L 374.45 269.008861 
L 374.45 268.410759 
L 402.35 268.410759 
L 402.35 268.410759 
L 402.35 268.410759 
L 402.35 268.610127 
L 430.25 268.610127 
L 430.25 268.610127 
L 430.25 268.610127 
L 430.25 267.613291 
L 458.15 267.613291 
L 458.15 267.613291 
L 458.15 267.613291 
L 458.15 263.625949 
L 486.05 263.625949 
L 486.05 263.625949 
L 486.05 263.625949 
L 486.05 263.825316 
L 513.95 263.825316 
L 513.95 263.825316 
L 513.95 263.825316 
L 513.95 264.822152 
L 541.85 264.822152 
L 541.85 264.822152 
L 541.85 264.822152 
L 541.85 266.616456 
L 569.75 266.616456 
L 569.75 266.616456 
L 569.75 266.616456 
L 569.75 264.224051 
L 597.65 264.224051 
L 597.65 264.224051 
L 597.65 264.224051 
L 597.65 262.828481 
L 625.55 262.828481 
L 625.55 262.828481 
" clip-path="url(#p5df79f42ce)" style="fill: none; stroke: #000080; stroke-opacity: 0.75; stroke-width: 2.5; stroke-linecap: square"/>
   </g>
   <g id="line2d_14">
    <path d="M 67.55 221.559494 
L 95.45 221.559494 
L 95.45 221.559494 
L 95.45 221.559494 
L 95.45 239.303165 
L 123.35 239.303165 
L 123.35 239.303165 
L 123.35 239.303165 
L 123.35 245.483544 
L 151.25 245.483544 
L 151.25 245.483544 
L 151.25 245.483544 
L 151.25 248.474051 
L 179.15 248.474051 
L 179.15 248.474051 
L 179.15 248.474051 
L 179.15 247.277848 
L 207.05 247.277848 
L 207.05 247.277848 
L 207.05 247.277848 
L 207.05 249.072152 
L 234.95 249.072152 
L 234.95 249.072152 
L 234.95 249.072152 
L 234.95 250.068987 
L 262.85 250.068987 
L 262.85 250.068987 
L 262.85 250.068987 
L 262.85 252.262025 
L 290.75 252.262025 
L 290.75 252.262025 
L 290.75 252.262025 
L 290.75 251.26519 
L 318.65 251.26519 
L 318.65 251.26519 
L 318.65 251.26519 
L 318.65 253.258861 
L 346.55 253.258861 
L 346.55 253.258861 
L 346.55 253.258861 
L 346.55 253.458228 
L 374.45 253.458228 
L 374.45 253.458228 
L 374.45 253.458228 
L 374.45 256.847468 
L 402.35 256.847468 
L 402.35 256.847468 
L 402.35 256.847468 
L 402.35 256.847468 
L 430.25 256.847468 
L 430.25 256.847468 
L 430.25 256.847468 
L 430.25 258.841139 
L 458.15 258.841139 
L 458.15 258.841139 
L 458.15 258.841139 
L 458.15 261.233544 
L 486.05 261.233544 
L 486.05 261.233544 
L 486.05 261.233544 
L 486.05 261.034177 
L 513.95 261.034177 
L 513.95 261.034177 
L 513.95 261.034177 
L 513.95 262.23038 
L 541.85 262.23038 
L 541.85 262.23038 
L 541.85 262.23038 
L 541.85 264.024684 
L 569.75 264.024684 
L 569.75 264.024684 
L 569.75 264.024684 
L 569.75 265.818987 
L 597.65 265.818987 
L 597.65 265.818987 
L 597.65 265.818987 
L 597.65 264.423418 
L 625.55 264.423418 
L 625.55 264.423418 
" clip-path="url(#p5df79f42ce)" style="fill: none; stroke: #004cff; stroke-opacity: 0.75; stroke-width: 2.5; stroke-linecap: square"/>
   </g>
   <g id="line2d_15">
    <path d="M 67.55 19.8 
L 95.45 19.8 
L 95.45 19.8 
L 95.45 19.8 
L 95.45 40.135443 
L 123.35 40.135443 
L 123.35 40.135443 
L 123.35 40.135443 
L 123.35 52.296835 
L 151.25 52.296835 
L 151.25 52.296835 
L 151.25 52.296835 
L 151.25 100.543671 
L 179.15 100.543671 
L 179.15 100.543671 
L 179.15 100.543671 
L 179.15 118.885443 
L 207.05 118.885443 
L 207.05 118.885443 
L 207.05 118.885443 
L 207.05 134.236709 
L 234.95 134.236709 
L 234.95 134.236709 
L 234.95 134.236709 
L 234.95 147.793671 
L 262.85 147.793671 
L 262.85 147.793671 
L 262.85 147.793671 
L 262.85 162.347468 
L 290.75 162.347468 
L 290.75 162.347468 
L 290.75 162.347468 
L 290.75 173.711392 
L 318.65 173.711392 
L 318.65 173.711392 
L 318.65 173.711392 
L 318.65 190.856962 
L 346.55 190.856962 
L 346.55 190.856962 
L 346.55 190.856962 
L 346.55 201.822152 
L 374.45 201.822152 
L 374.45 201.822152 
L 374.45 201.822152 
L 374.45 207.603797 
L 402.35 207.603797 
L 402.35 207.603797 
L 402.35 207.603797 
L 402.35 218.36962 
L 430.25 218.36962 
L 430.25 218.36962 
L 430.25 218.36962 
L 430.25 225.94557 
L 458.15 225.94557 
L 458.15 225.94557 
L 458.15 225.94557 
L 458.15 230.132278 
L 486.05 230.132278 
L 486.05 230.132278 
L 486.05 230.132278 
L 486.05 242.493038 
L 513.95 242.493038 
L 513.95 242.493038 
L 513.95 242.493038 
L 513.95 243.489873 
L 541.85 243.489873 
L 541.85 243.489873 
L 541.85 243.489873 
L 541.85 245.08481 
L 569.75 245.08481 
L 569.75 245.08481 
L 569.75 245.08481 
L 569.75 248.474051 
L 597.65 248.474051 
L 597.65 248.474051 
L 597.65 248.474051 
L 597.65 246.081646 
L 625.55 246.081646 
L 625.55 246.081646 
" clip-path="url(#p5df79f42ce)" style="fill: none; stroke: #29ffce; stroke-opacity: 0.75; stroke-width: 2.5; stroke-linecap: square"/>
   </g>
   <g id="line2d_16">
    <path d="M 67.55 80.407595 
L 95.45 80.407595 
L 95.45 80.407595 
L 95.45 80.407595 
L 95.45 154.572152 
L 123.35 154.572152 
L 123.35 154.572152 
L 123.35 154.572152 
L 123.35 192.850633 
L 151.25 192.850633 
L 151.25 192.850633 
L 151.25 192.850633 
L 151.25 219.167089 
L 179.15 219.167089 
L 179.15 219.167089 
L 179.15 219.167089 
L 179.15 235.116456 
L 207.05 235.116456 
L 207.05 235.116456 
L 207.05 235.116456 
L 207.05 249.670253 
L 234.95 249.670253 
L 234.95 249.670253 
L 234.95 249.670253 
L 234.95 253.657595 
L 262.85 253.657595 
L 262.85 253.657595 
L 262.85 253.657595 
L 262.85 258.841139 
L 290.75 258.841139 
L 290.75 258.841139 
L 290.75 258.841139 
L 290.75 261.034177 
L 318.65 261.034177 
L 318.65 261.034177 
L 318.65 261.034177 
L 318.65 264.024684 
L 346.55 264.024684 
L 346.55 264.024684 
L 346.55 264.024684 
L 346.55 264.224051 
L 374.45 264.224051 
L 374.45 264.224051 
L 374.45 264.224051 
L 374.45 267.812658 
L 402.35 267.812658 
L 402.35 267.812658 
L 402.35 267.812658 
L 402.35 266.815823 
L 430.25 266.815823 
L 430.25 266.815823 
L 430.25 266.815823 
L 430.25 268.211392 
L 458.15 268.211392 
L 458.15 268.211392 
L 458.15 268.211392 
L 458.15 267.613291 
L 486.05 267.613291 
L 486.05 267.613291 
L 486.05 267.613291 
L 486.05 266.616456 
L 513.95 266.616456 
L 513.95 266.616456 
L 513.95 266.616456 
L 513.95 269.008861 
L 541.85 269.008861 
L 541.85 269.008861 
L 541.85 269.008861 
L 541.85 268.410759 
L 569.75 268.410759 
L 569.75 268.410759 
L 569.75 268.410759 
L 569.75 268.809494 
L 597.65 268.809494 
L 597.65 268.809494 
L 597.65 268.809494 
L 597.65 266.616456 
L 625.55 266.616456 
L 625.55 266.616456 
" clip-path="url(#p5df79f42ce)" style="fill: none; stroke: #ceff29; stroke-opacity: 0.75; stroke-width: 2.5; stroke-linecap: square"/>
   </g>
   <g id="line2d_17">
    <path d="M 67.55 215.179747 
L 95.45 215.179747 
L 95.45 215.179747 
L 95.45 215.179747 
L 95.45 231.328481 
L 123.35 231.328481 
L 123.35 231.328481 
L 123.35 231.328481 
L 123.35 249.072152 
L 151.25 249.072152 
L 151.25 249.072152 
L 151.25 249.072152 
L 151.25 256.648101 
L 179.15 256.648101 
L 179.15 256.648101 
L 179.15 256.648101 
L 179.15 261.233544 
L 207.05 261.233544 
L 207.05 261.233544 
L 207.05 261.233544 
L 207.05 266.018354 
L 234.95 266.018354 
L 234.95 266.018354 
L 234.95 266.018354 
L 234.95 268.211392 
L 262.85 268.211392 
L 262.85 268.211392 
L 262.85 268.211392 
L 262.85 269.208228 
L 290.75 269.208228 
L 290.75 269.208228 
L 290.75 269.208228 
L 290.75 270.205063 
L 318.65 270.205063 
L 318.65 270.205063 
L 318.65 270.205063 
L 318.65 269.806329 
L 346.55 269.806329 
L 346.55 269.806329 
L 346.55 269.806329 
L 346.55 271.8 
L 374.45 271.8 
L 374.45 271.8 
L 374.45 271.8 
L 374.45 271.600633 
L 402.35 271.600633 
L 402.35 271.600633 
L 402.35 271.600633 
L 402.35 271.600633 
L 430.25 271.600633 
L 430.25 271.600633 
L 430.25 271.600633 
L 430.25 271.8 
L 458.15 271.8 
L 458.15 271.8 
L 458.15 271.8 
L 458.15 271.600633 
L 486.05 271.600633 
L 486.05 271.600633 
L 486.05 271.600633 
L 486.05 271.8 
L 513.95 271.8 
L 513.95 271.8 
L 513.95 271.8 
L 513.95 271.8 
L 541.85 271.8 
L 541.85 271.8 
L 541.85 271.8 
L 541.85 271.8 
L 569.75 271.8 
L 569.75 271.8 
L 569.75 271.8 
L 569.75 271.401266 
L 597.65 271.401266 
L 597.65 271.401266 
L 597.65 271.401266 
L 597.65 271.600633 
L 625.55 271.600633 
L 625.55 271.600633 
" clip-path="url(#p5df79f42ce)" style="fill: none; stroke: #ff6800; stroke-opacity: 0.75; stroke-width: 2.5; stroke-linecap: square"/>
   </g>
   <g id="line2d_18">
    <path d="M 67.55 212.787342 
L 95.45 212.787342 
L 95.45 212.787342 
L 95.45 212.787342 
L 95.45 226.144937 
L 123.35 226.144937 
L 123.35 226.144937 
L 123.35 226.144937 
L 123.35 237.110127 
L 151.25 237.110127 
L 151.25 237.110127 
L 151.25 237.110127 
L 151.25 249.271519 
L 179.15 249.271519 
L 179.15 249.271519 
L 179.15 249.271519 
L 179.15 254.65443 
L 207.05 254.65443 
L 207.05 254.65443 
L 207.05 254.65443 
L 207.05 262.031013 
L 234.95 262.031013 
L 234.95 262.031013 
L 234.95 262.031013 
L 234.95 264.622785 
L 262.85 264.622785 
L 262.85 264.622785 
L 262.85 264.622785 
L 262.85 264.822152 
L 290.75 264.822152 
L 290.75 264.822152 
L 290.75 264.822152 
L 290.75 268.410759 
L 318.65 268.410759 
L 318.65 268.410759 
L 318.65 268.410759 
L 318.65 269.606962 
L 346.55 269.606962 
L 346.55 269.606962 
L 346.55 269.606962 
L 346.55 269.008861 
L 374.45 269.008861 
L 374.45 269.008861 
L 374.45 269.008861 
L 374.45 270.40443 
L 402.35 270.40443 
L 402.35 270.40443 
L 402.35 270.40443 
L 402.35 271.002532 
L 430.25 271.002532 
L 430.25 271.002532 
L 430.25 271.002532 
L 430.25 270.803165 
L 458.15 270.803165 
L 458.15 270.803165 
L 458.15 270.803165 
L 458.15 271.8 
L 486.05 271.8 
L 486.05 271.8 
L 486.05 271.8 
L 486.05 271.8 
L 513.95 271.8 
L 513.95 271.8 
L 513.95 271.8 
L 513.95 271.401266 
L 541.85 271.401266 
L 541.85 271.401266 
L 541.85 271.401266 
L 541.85 271.600633 
L 569.75 271.600633 
L 569.75 271.600633 
L 569.75 271.600633 
L 569.75 271.8 
L 597.65 271.8 
L 597.65 271.8 
L 597.65 271.8 
L 597.65 271.8 
L 625.55 271.8 
L 625.55 271.8 
" clip-path="url(#p5df79f42ce)" style="fill: none; stroke: #800000; stroke-opacity: 0.75; stroke-width: 2.5; stroke-linecap: square"/>
   </g>
   <g id="patch_3">
    <path d="M 39.65 284.4 
L 39.65 7.2 
" style="fill: none; stroke: #000000; stroke-width: 0.8; stroke-linejoin: miter; stroke-linecap: square"/>
   </g>
   <g id="patch_4">
    <path d="M 653.45 284.4 
L 653.45 7.2 
" style="fill: none; stroke: #000000; stroke-width: 0.8; stroke-linejoin: miter; stroke-linecap: square"/>
   </g>
   <g id="patch_5">
    <path d="M 39.65 284.4 
L 653.45 284.4 
" style="fill: none; stroke: #000000; stroke-width: 0.8; stroke-linejoin: miter; stroke-linecap: square"/>
   </g>
   <g id="patch_6">
    <path d="M 39.65 7.2 
L 653.45 7.2 
" style="fill: none; stroke: #000000; stroke-width: 0.8; stroke-linejoin: miter; stroke-linecap: square"/>
   </g>
  </g>
 </g>
 <defs>
  <clipPath id="p5df79f42ce">
   <rect x="39.65" y="7.2" width="613.8" height="277.2"/>
  </clipPath>
 </defs>
</svg>
