<?xml version="1.0" encoding="utf-8" standalone="no"?>
<!DOCTYPE svg PUBLIC "-//W3C//DTD SVG 1.1//EN"
  "http://www.w3.org/Graphics/SVG/1.1/DTD/svg11.dtd">
<svg xmlns:xlink="http://www.w3.org/1999/xlink" width="398.560625pt" height="321.466687pt" viewBox="0 0 398.560625 321.466687" xmlns="http://www.w3.org/2000/svg" version="1.1">
 <metadata>
  <rdf:RDF xmlns:dc="http://purl.org/dc/elements/1.1/" xmlns:cc="http://creativecommons.org/ns#" xmlns:rdf="http://www.w3.org/1999/02/22-rdf-syntax-ns#">
   <cc:Work>
    <dc:type rdf:resource="http://purl.org/dc/dcmitype/StillImage"/>
    <dc:date>2025-04-21T13:47:56.244276</dc:date>
    <dc:format>image/svg+xml</dc:format>
    <dc:creator>
     <cc:Agent>
      <dc:title>Matplotlib v3.10.1, https://matplotlib.org/</dc:title>
     </cc:Agent>
    </dc:creator>
   </cc:Work>
  </rdf:RDF>
 </metadata>
 <defs>
  <style type="text/css">*{stroke-linejoin: round; stroke-linecap: butt}</style>
 </defs>
 <g id="figure_1">
  <g id="patch_1">
   <path d="M 0 321.466687 
L 398.560625 321.466687 
L 398.560625 0 
L 0 0 
z
" style="fill: #ffffff"/>
  </g>
  <g id="axes_1">
   <g id="patch_2">
    <path d="M 34.240625 283.910437 
L 391.360625 283.910437 
L 391.360625 17.798437 
L 34.240625 17.798437 
z
" style="fill: #ffffff"/>
   </g>
   <g id="patch_3">
    <path d="M 50.473352 283.910437 
L 52.096625 283.910437 
L 52.096625 282.965941 
L 50.473352 282.965941 
z
" clip-path="url(#p8d62bd8402)" style="fill: #1f77b4"/>
   </g>
   <g id="patch_4">
    <path d="M 52.096625 283.910437 
L 53.719898 283.910437 
L 53.719898 279.187953 
L 52.096625 279.187953 
z
" clip-path="url(#p8d62bd8402)" style="fill: #1f77b4"/>
   </g>
   <g id="patch_5">
    <path d="M 53.719898 283.910437 
L 55.34317 283.910437 
L 55.34317 269.742984 
L 53.719898 269.742984 
z
" clip-path="url(#p8d62bd8402)" style="fill: #1f77b4"/>
   </g>
   <g id="patch_6">
    <path d="M 55.34317 283.910437 
L 56.966443 283.910437 
L 56.966443 269.742984 
L 55.34317 269.742984 
z
" clip-path="url(#p8d62bd8402)" style="fill: #1f77b4"/>
   </g>
   <g id="patch_7">
    <path d="M 56.966443 283.910437 
L 58.589716 283.910437 
L 58.589716 263.446338 
L 56.966443 263.446338 
z
" clip-path="url(#p8d62bd8402)" style="fill: #1f77b4"/>
   </g>
   <g id="patch_8">
    <path d="M 58.589716 283.910437 
L 60.212989 283.910437 
L 60.212989 251.167878 
L 58.589716 251.167878 
z
" clip-path="url(#p8d62bd8402)" style="fill: #1f77b4"/>
   </g>
   <g id="patch_9">
    <path d="M 60.212989 283.910437 
L 61.836261 283.910437 
L 61.836261 239.204251 
L 60.212989 239.204251 
z
" clip-path="url(#p8d62bd8402)" style="fill: #1f77b4"/>
   </g>
   <g id="patch_10">
    <path d="M 61.836261 283.910437 
L 63.459534 283.910437 
L 63.459534 238.889419 
L 61.836261 238.889419 
z
" clip-path="url(#p8d62bd8402)" style="fill: #1f77b4"/>
   </g>
   <g id="patch_11">
    <path d="M 63.459534 283.910437 
L 65.082807 283.910437 
L 65.082807 215.591829 
L 63.459534 215.591829 
z
" clip-path="url(#p8d62bd8402)" style="fill: #1f77b4"/>
   </g>
   <g id="patch_12">
    <path d="M 65.082807 283.910437 
L 66.70608 283.910437 
L 66.70608 208.980351 
L 65.082807 208.980351 
z
" clip-path="url(#p8d62bd8402)" style="fill: #1f77b4"/>
   </g>
   <g id="patch_13">
    <path d="M 66.70608 283.910437 
L 68.329352 283.910437 
L 68.329352 191.979406 
L 66.70608 191.979406 
z
" clip-path="url(#p8d62bd8402)" style="fill: #1f77b4"/>
   </g>
   <g id="patch_14">
    <path d="M 68.329352 283.910437 
L 69.952625 283.910437 
L 69.952625 170.57081 
L 68.329352 170.57081 
z
" clip-path="url(#p8d62bd8402)" style="fill: #1f77b4"/>
   </g>
   <g id="patch_15">
    <path d="M 69.952625 283.910437 
L 71.575898 283.910437 
L 71.575898 169.626313 
L 69.952625 169.626313 
z
" clip-path="url(#p8d62bd8402)" style="fill: #1f77b4"/>
   </g>
   <g id="patch_16">
    <path d="M 71.575898 283.910437 
L 73.19917 283.910437 
L 73.19917 158.922015 
L 71.575898 158.922015 
z
" clip-path="url(#p8d62bd8402)" style="fill: #1f77b4"/>
   </g>
   <g id="patch_17">
    <path d="M 73.19917 283.910437 
L 74.822443 283.910437 
L 74.822443 153.255034 
L 73.19917 153.255034 
z
" clip-path="url(#p8d62bd8402)" style="fill: #1f77b4"/>
   </g>
   <g id="patch_18">
    <path d="M 74.822443 283.910437 
L 76.445716 283.910437 
L 76.445716 144.439729 
L 74.822443 144.439729 
z
" clip-path="url(#p8d62bd8402)" style="fill: #1f77b4"/>
   </g>
   <g id="patch_19">
    <path d="M 76.445716 283.910437 
L 78.068989 283.910437 
L 78.068989 134.050264 
L 76.445716 134.050264 
z
" clip-path="url(#p8d62bd8402)" style="fill: #1f77b4"/>
   </g>
   <g id="patch_20">
    <path d="M 78.068989 283.910437 
L 79.692261 283.910437 
L 79.692261 114.845493 
L 78.068989 114.845493 
z
" clip-path="url(#p8d62bd8402)" style="fill: #1f77b4"/>
   </g>
   <g id="patch_21">
    <path d="M 79.692261 283.910437 
L 81.315534 283.910437 
L 81.315534 104.141195 
L 79.692261 104.141195 
z
" clip-path="url(#p8d62bd8402)" style="fill: #1f77b4"/>
   </g>
   <g id="patch_22">
    <path d="M 81.315534 283.910437 
L 82.938807 283.910437 
L 82.938807 81.47327 
L 81.315534 81.47327 
z
" clip-path="url(#p8d62bd8402)" style="fill: #1f77b4"/>
   </g>
   <g id="patch_23">
    <path d="M 82.938807 283.910437 
L 84.56208 283.910437 
L 84.56208 106.345021 
L 82.938807 106.345021 
z
" clip-path="url(#p8d62bd8402)" style="fill: #1f77b4"/>
   </g>
   <g id="patch_24">
    <path d="M 84.56208 283.910437 
L 86.185352 283.910437 
L 86.185352 81.788102 
L 84.56208 81.788102 
z
" clip-path="url(#p8d62bd8402)" style="fill: #1f77b4"/>
   </g>
   <g id="patch_25">
    <path d="M 86.185352 283.910437 
L 87.808625 283.910437 
L 87.808625 76.121121 
L 86.185352 76.121121 
z
" clip-path="url(#p8d62bd8402)" style="fill: #1f77b4"/>
   </g>
   <g id="patch_26">
    <path d="M 87.808625 283.910437 
L 89.431898 283.910437 
L 89.431898 63.527829 
L 87.808625 63.527829 
z
" clip-path="url(#p8d62bd8402)" style="fill: #1f77b4"/>
   </g>
   <g id="patch_27">
    <path d="M 89.431898 283.910437 
L 91.05517 283.910437 
L 91.05517 37.396748 
L 89.431898 37.396748 
z
" clip-path="url(#p8d62bd8402)" style="fill: #1f77b4"/>
   </g>
   <g id="patch_28">
    <path d="M 91.05517 283.910437 
L 92.678443 283.910437 
L 92.678443 44.952723 
L 91.05517 44.952723 
z
" clip-path="url(#p8d62bd8402)" style="fill: #1f77b4"/>
   </g>
   <g id="patch_29">
    <path d="M 92.678443 283.910437 
L 94.301716 283.910437 
L 94.301716 67.620649 
L 92.678443 67.620649 
z
" clip-path="url(#p8d62bd8402)" style="fill: #1f77b4"/>
   </g>
   <g id="patch_30">
    <path d="M 94.301716 283.910437 
L 95.924989 283.910437 
L 95.924989 65.731655 
L 94.301716 65.731655 
z
" clip-path="url(#p8d62bd8402)" style="fill: #1f77b4"/>
   </g>
   <g id="patch_31">
    <path d="M 95.924989 283.910437 
L 97.548261 283.910437 
L 97.548261 31.100102 
L 95.924989 31.100102 
z
" clip-path="url(#p8d62bd8402)" style="fill: #1f77b4"/>
   </g>
   <g id="patch_32">
    <path d="M 97.548261 283.910437 
L 99.171534 283.910437 
L 99.171534 49.99004 
L 97.548261 49.99004 
z
" clip-path="url(#p8d62bd8402)" style="fill: #1f77b4"/>
   </g>
   <g id="patch_33">
    <path d="M 99.171534 283.910437 
L 100.794807 283.910437 
L 100.794807 53.138363 
L 99.171534 53.138363 
z
" clip-path="url(#p8d62bd8402)" style="fill: #1f77b4"/>
   </g>
   <g id="patch_34">
    <path d="M 100.794807 283.910437 
L 102.41808 283.910437 
L 102.41808 46.841717 
L 100.794807 46.841717 
z
" clip-path="url(#p8d62bd8402)" style="fill: #1f77b4"/>
   </g>
   <g id="patch_35">
    <path d="M 102.41808 283.910437 
L 104.041352 283.910437 
L 104.041352 44.323059 
L 102.41808 44.323059 
z
" clip-path="url(#p8d62bd8402)" style="fill: #1f77b4"/>
   </g>
   <g id="patch_36">
    <path d="M 104.041352 283.910437 
L 105.664625 283.910437 
L 105.664625 39.600574 
L 104.041352 39.600574 
z
" clip-path="url(#p8d62bd8402)" style="fill: #1f77b4"/>
   </g>
   <g id="patch_37">
    <path d="M 105.664625 283.910437 
L 107.287898 283.910437 
L 107.287898 35.822587 
L 105.664625 35.822587 
z
" clip-path="url(#p8d62bd8402)" style="fill: #1f77b4"/>
   </g>
   <g id="patch_38">
    <path d="M 107.287898 283.910437 
L 108.91117 283.910437 
L 108.91117 45.89722 
L 107.287898 45.89722 
z
" clip-path="url(#p8d62bd8402)" style="fill: #1f77b4"/>
   </g>
   <g id="patch_39">
    <path d="M 108.91117 283.910437 
L 110.534443 283.910437 
L 110.534443 48.415878 
L 108.91117 48.415878 
z
" clip-path="url(#p8d62bd8402)" style="fill: #1f77b4"/>
   </g>
   <g id="patch_40">
    <path d="M 110.534443 283.910437 
L 112.157716 283.910437 
L 112.157716 30.470437 
L 110.534443 30.470437 
z
" clip-path="url(#p8d62bd8402)" style="fill: #1f77b4"/>
   </g>
   <g id="patch_41">
    <path d="M 112.157716 283.910437 
L 113.780989 283.910437 
L 113.780989 54.397692 
L 112.157716 54.397692 
z
" clip-path="url(#p8d62bd8402)" style="fill: #1f77b4"/>
   </g>
   <g id="patch_42">
    <path d="M 113.780989 283.910437 
L 115.404261 283.910437 
L 115.404261 58.805344 
L 113.780989 58.805344 
z
" clip-path="url(#p8d62bd8402)" style="fill: #1f77b4"/>
   </g>
   <g id="patch_43">
    <path d="M 115.404261 283.910437 
L 117.027534 283.910437 
L 117.027534 63.212997 
L 115.404261 63.212997 
z
" clip-path="url(#p8d62bd8402)" style="fill: #1f77b4"/>
   </g>
   <g id="patch_44">
    <path d="M 117.027534 283.910437 
L 118.650807 283.910437 
L 118.650807 53.453195 
L 117.027534 53.453195 
z
" clip-path="url(#p8d62bd8402)" style="fill: #1f77b4"/>
   </g>
   <g id="patch_45">
    <path d="M 118.650807 283.910437 
L 120.27408 283.910437 
L 120.27408 52.508698 
L 118.650807 52.508698 
z
" clip-path="url(#p8d62bd8402)" style="fill: #1f77b4"/>
   </g>
   <g id="patch_46">
    <path d="M 120.27408 283.910437 
L 121.897352 283.910437 
L 121.897352 69.509642 
L 120.27408 69.509642 
z
" clip-path="url(#p8d62bd8402)" style="fill: #1f77b4"/>
   </g>
   <g id="patch_47">
    <path d="M 121.897352 283.910437 
L 123.520625 283.910437 
L 123.520625 82.732599 
L 121.897352 82.732599 
z
" clip-path="url(#p8d62bd8402)" style="fill: #1f77b4"/>
   </g>
   <g id="patch_48">
    <path d="M 123.520625 283.910437 
L 125.143898 283.910437 
L 125.143898 81.47327 
L 123.520625 81.47327 
z
" clip-path="url(#p8d62bd8402)" style="fill: #1f77b4"/>
   </g>
   <g id="patch_49">
    <path d="M 125.143898 283.910437 
L 126.76717 283.910437 
L 126.76717 95.011059 
L 125.143898 95.011059 
z
" clip-path="url(#p8d62bd8402)" style="fill: #1f77b4"/>
   </g>
   <g id="patch_50">
    <path d="M 126.76717 283.910437 
L 128.390443 283.910437 
L 128.390443 73.917295 
L 126.76717 73.917295 
z
" clip-path="url(#p8d62bd8402)" style="fill: #1f77b4"/>
   </g>
   <g id="patch_51">
    <path d="M 128.390443 283.910437 
L 130.013716 283.910437 
L 130.013716 92.4924 
L 128.390443 92.4924 
z
" clip-path="url(#p8d62bd8402)" style="fill: #1f77b4"/>
   </g>
   <g id="patch_52">
    <path d="M 130.013716 283.910437 
L 131.636989 283.910437 
L 131.636989 110.437841 
L 130.013716 110.437841 
z
" clip-path="url(#p8d62bd8402)" style="fill: #1f77b4"/>
   </g>
   <g id="patch_53">
    <path d="M 131.636989 283.910437 
L 133.260261 283.910437 
L 133.260261 124.605295 
L 131.636989 124.605295 
z
" clip-path="url(#p8d62bd8402)" style="fill: #1f77b4"/>
   </g>
   <g id="patch_54">
    <path d="M 133.260261 283.910437 
L 134.883534 283.910437 
L 134.883534 105.715357 
L 133.260261 105.715357 
z
" clip-path="url(#p8d62bd8402)" style="fill: #1f77b4"/>
   </g>
   <g id="patch_55">
    <path d="M 134.883534 283.910437 
L 136.506807 283.910437 
L 136.506807 100.67804 
L 134.883534 100.67804 
z
" clip-path="url(#p8d62bd8402)" style="fill: #1f77b4"/>
   </g>
   <g id="patch_56">
    <path d="M 136.506807 283.910437 
L 138.13008 283.910437 
L 138.13008 125.864624 
L 136.506807 125.864624 
z
" clip-path="url(#p8d62bd8402)" style="fill: #1f77b4"/>
   </g>
   <g id="patch_57">
    <path d="M 138.13008 283.910437 
L 139.753352 283.910437 
L 139.753352 138.457916 
L 138.13008 138.457916 
z
" clip-path="url(#p8d62bd8402)" style="fill: #1f77b4"/>
   </g>
   <g id="patch_58">
    <path d="M 139.753352 283.910437 
L 141.376625 283.910437 
L 141.376625 137.828251 
L 139.753352 137.828251 
z
" clip-path="url(#p8d62bd8402)" style="fill: #1f77b4"/>
   </g>
   <g id="patch_59">
    <path d="M 141.376625 283.910437 
L 142.999898 283.910437 
L 142.999898 145.699059 
L 141.376625 145.699059 
z
" clip-path="url(#p8d62bd8402)" style="fill: #1f77b4"/>
   </g>
   <g id="patch_60">
    <path d="M 142.999898 283.910437 
L 144.62317 283.910437 
L 144.62317 133.735431 
L 142.999898 133.735431 
z
" clip-path="url(#p8d62bd8402)" style="fill: #1f77b4"/>
   </g>
   <g id="patch_61">
    <path d="M 144.62317 283.910437 
L 146.246443 283.910437 
L 146.246443 154.829195 
L 144.62317 154.829195 
z
" clip-path="url(#p8d62bd8402)" style="fill: #1f77b4"/>
   </g>
   <g id="patch_62">
    <path d="M 146.246443 283.910437 
L 147.869716 283.910437 
L 147.869716 153.569866 
L 146.246443 153.569866 
z
" clip-path="url(#p8d62bd8402)" style="fill: #1f77b4"/>
   </g>
   <g id="patch_63">
    <path d="M 147.869716 283.910437 
L 149.492989 283.910437 
L 149.492989 157.977518 
L 147.869716 157.977518 
z
" clip-path="url(#p8d62bd8402)" style="fill: #1f77b4"/>
   </g>
   <g id="patch_64">
    <path d="M 149.492989 283.910437 
L 151.116261 283.910437 
L 151.116261 161.125841 
L 149.492989 161.125841 
z
" clip-path="url(#p8d62bd8402)" style="fill: #1f77b4"/>
   </g>
   <g id="patch_65">
    <path d="M 151.116261 283.910437 
L 152.739534 283.910437 
L 152.739534 157.662686 
L 151.116261 157.662686 
z
" clip-path="url(#p8d62bd8402)" style="fill: #1f77b4"/>
   </g>
   <g id="patch_66">
    <path d="M 152.739534 283.910437 
L 154.362807 283.910437 
L 154.362807 179.386115 
L 152.739534 179.386115 
z
" clip-path="url(#p8d62bd8402)" style="fill: #1f77b4"/>
   </g>
   <g id="patch_67">
    <path d="M 154.362807 283.910437 
L 155.98608 283.910437 
L 155.98608 181.904773 
L 154.362807 181.904773 
z
" clip-path="url(#p8d62bd8402)" style="fill: #1f77b4"/>
   </g>
   <g id="patch_68">
    <path d="M 155.98608 283.910437 
L 157.609352 283.910437 
L 157.609352 179.071282 
L 155.98608 179.071282 
z
" clip-path="url(#p8d62bd8402)" style="fill: #1f77b4"/>
   </g>
   <g id="patch_69">
    <path d="M 157.609352 283.910437 
L 159.232625 283.910437 
L 159.232625 186.312425 
L 157.609352 186.312425 
z
" clip-path="url(#p8d62bd8402)" style="fill: #1f77b4"/>
   </g>
   <g id="patch_70">
    <path d="M 159.232625 283.910437 
L 160.855898 283.910437 
L 160.855898 199.535382 
L 159.232625 199.535382 
z
" clip-path="url(#p8d62bd8402)" style="fill: #1f77b4"/>
   </g>
   <g id="patch_71">
    <path d="M 160.855898 283.910437 
L 162.47917 283.910437 
L 162.47917 197.331556 
L 160.855898 197.331556 
z
" clip-path="url(#p8d62bd8402)" style="fill: #1f77b4"/>
   </g>
   <g id="patch_72">
    <path d="M 162.47917 283.910437 
L 164.102443 283.910437 
L 164.102443 197.646388 
L 162.47917 197.646388 
z
" clip-path="url(#p8d62bd8402)" style="fill: #1f77b4"/>
   </g>
   <g id="patch_73">
    <path d="M 164.102443 283.910437 
L 165.725716 283.910437 
L 165.725716 203.943034 
L 164.102443 203.943034 
z
" clip-path="url(#p8d62bd8402)" style="fill: #1f77b4"/>
   </g>
   <g id="patch_74">
    <path d="M 165.725716 283.910437 
L 167.348989 283.910437 
L 167.348989 211.499009 
L 165.725716 211.499009 
z
" clip-path="url(#p8d62bd8402)" style="fill: #1f77b4"/>
   </g>
   <g id="patch_75">
    <path d="M 167.348989 283.910437 
L 168.972261 283.910437 
L 168.972261 211.813841 
L 167.348989 211.813841 
z
" clip-path="url(#p8d62bd8402)" style="fill: #1f77b4"/>
   </g>
   <g id="patch_76">
    <path d="M 168.972261 283.910437 
L 170.595534 283.910437 
L 170.595534 211.813841 
L 168.972261 211.813841 
z
" clip-path="url(#p8d62bd8402)" style="fill: #1f77b4"/>
   </g>
   <g id="patch_77">
    <path d="M 170.595534 283.910437 
L 172.218807 283.910437 
L 172.218807 223.777469 
L 170.595534 223.777469 
z
" clip-path="url(#p8d62bd8402)" style="fill: #1f77b4"/>
   </g>
   <g id="patch_78">
    <path d="M 172.218807 283.910437 
L 173.84208 283.910437 
L 173.84208 209.295183 
L 172.218807 209.295183 
z
" clip-path="url(#p8d62bd8402)" style="fill: #1f77b4"/>
   </g>
   <g id="patch_79">
    <path d="M 173.84208 283.910437 
L 175.465352 283.910437 
L 175.465352 219.999481 
L 173.84208 219.999481 
z
" clip-path="url(#p8d62bd8402)" style="fill: #1f77b4"/>
   </g>
   <g id="patch_80">
    <path d="M 175.465352 283.910437 
L 177.088625 283.910437 
L 177.088625 224.721965 
L 175.465352 224.721965 
z
" clip-path="url(#p8d62bd8402)" style="fill: #1f77b4"/>
   </g>
   <g id="patch_81">
    <path d="M 177.088625 283.910437 
L 178.711898 283.910437 
L 178.711898 226.925792 
L 177.088625 226.925792 
z
" clip-path="url(#p8d62bd8402)" style="fill: #1f77b4"/>
   </g>
   <g id="patch_82">
    <path d="M 178.711898 283.910437 
L 180.33517 283.910437 
L 180.33517 226.610959 
L 178.711898 226.610959 
z
" clip-path="url(#p8d62bd8402)" style="fill: #1f77b4"/>
   </g>
   <g id="patch_83">
    <path d="M 180.33517 283.910437 
L 181.958443 283.910437 
L 181.958443 230.074115 
L 180.33517 230.074115 
z
" clip-path="url(#p8d62bd8402)" style="fill: #1f77b4"/>
   </g>
   <g id="patch_84">
    <path d="M 181.958443 283.910437 
L 183.581716 283.910437 
L 183.581716 228.499953 
L 181.958443 228.499953 
z
" clip-path="url(#p8d62bd8402)" style="fill: #1f77b4"/>
   </g>
   <g id="patch_85">
    <path d="M 183.581716 283.910437 
L 185.204989 283.910437 
L 185.204989 243.611903 
L 183.581716 243.611903 
z
" clip-path="url(#p8d62bd8402)" style="fill: #1f77b4"/>
   </g>
   <g id="patch_86">
    <path d="M 185.204989 283.910437 
L 186.828261 283.910437 
L 186.828261 233.53727 
L 185.204989 233.53727 
z
" clip-path="url(#p8d62bd8402)" style="fill: #1f77b4"/>
   </g>
   <g id="patch_87">
    <path d="M 186.828261 283.910437 
L 188.451534 283.910437 
L 188.451534 238.574587 
L 186.828261 238.574587 
z
" clip-path="url(#p8d62bd8402)" style="fill: #1f77b4"/>
   </g>
   <g id="patch_88">
    <path d="M 188.451534 283.910437 
L 190.074807 283.910437 
L 190.074807 243.297071 
L 188.451534 243.297071 
z
" clip-path="url(#p8d62bd8402)" style="fill: #1f77b4"/>
   </g>
   <g id="patch_89">
    <path d="M 190.074807 283.910437 
L 191.69808 283.910437 
L 191.69808 244.241568 
L 190.074807 244.241568 
z
" clip-path="url(#p8d62bd8402)" style="fill: #1f77b4"/>
   </g>
   <g id="patch_90">
    <path d="M 191.69808 283.910437 
L 193.321352 283.910437 
L 193.321352 251.167878 
L 191.69808 251.167878 
z
" clip-path="url(#p8d62bd8402)" style="fill: #1f77b4"/>
   </g>
   <g id="patch_91">
    <path d="M 193.321352 283.910437 
L 194.944625 283.910437 
L 194.944625 244.871233 
L 193.321352 244.871233 
z
" clip-path="url(#p8d62bd8402)" style="fill: #1f77b4"/>
   </g>
   <g id="patch_92">
    <path d="M 194.944625 283.910437 
L 196.567898 283.910437 
L 196.567898 246.760226 
L 194.944625 246.760226 
z
" clip-path="url(#p8d62bd8402)" style="fill: #1f77b4"/>
   </g>
   <g id="patch_93">
    <path d="M 196.567898 283.910437 
L 198.19117 283.910437 
L 198.19117 252.74204 
L 196.567898 252.74204 
z
" clip-path="url(#p8d62bd8402)" style="fill: #1f77b4"/>
   </g>
   <g id="patch_94">
    <path d="M 198.19117 283.910437 
L 199.814443 283.910437 
L 199.814443 249.278885 
L 198.19117 249.278885 
z
" clip-path="url(#p8d62bd8402)" style="fill: #1f77b4"/>
   </g>
   <g id="patch_95">
    <path d="M 199.814443 283.910437 
L 201.437716 283.910437 
L 201.437716 257.779357 
L 199.814443 257.779357 
z
" clip-path="url(#p8d62bd8402)" style="fill: #1f77b4"/>
   </g>
   <g id="patch_96">
    <path d="M 201.437716 283.910437 
L 203.060989 283.910437 
L 203.060989 258.094189 
L 201.437716 258.094189 
z
" clip-path="url(#p8d62bd8402)" style="fill: #1f77b4"/>
   </g>
   <g id="patch_97">
    <path d="M 203.060989 283.910437 
L 204.684261 283.910437 
L 204.684261 259.038686 
L 203.060989 259.038686 
z
" clip-path="url(#p8d62bd8402)" style="fill: #1f77b4"/>
   </g>
   <g id="patch_98">
    <path d="M 204.684261 283.910437 
L 206.307534 283.910437 
L 206.307534 258.094189 
L 204.684261 258.094189 
z
" clip-path="url(#p8d62bd8402)" style="fill: #1f77b4"/>
   </g>
   <g id="patch_99">
    <path d="M 206.307534 283.910437 
L 207.930807 283.910437 
L 207.930807 260.612847 
L 206.307534 260.612847 
z
" clip-path="url(#p8d62bd8402)" style="fill: #1f77b4"/>
   </g>
   <g id="patch_100">
    <path d="M 207.930807 283.910437 
L 209.55408 283.910437 
L 209.55408 268.483655 
L 207.930807 268.483655 
z
" clip-path="url(#p8d62bd8402)" style="fill: #1f77b4"/>
   </g>
   <g id="patch_101">
    <path d="M 209.55408 283.910437 
L 211.177352 283.910437 
L 211.177352 260.298015 
L 209.55408 260.298015 
z
" clip-path="url(#p8d62bd8402)" style="fill: #1f77b4"/>
   </g>
   <g id="patch_102">
    <path d="M 211.177352 283.910437 
L 212.800625 283.910437 
L 212.800625 264.076003 
L 211.177352 264.076003 
z
" clip-path="url(#p8d62bd8402)" style="fill: #1f77b4"/>
   </g>
   <g id="patch_103">
    <path d="M 212.800625 283.910437 
L 214.423898 283.910437 
L 214.423898 270.372649 
L 212.800625 270.372649 
z
" clip-path="url(#p8d62bd8402)" style="fill: #1f77b4"/>
   </g>
   <g id="patch_104">
    <path d="M 214.423898 283.910437 
L 216.04717 283.910437 
L 216.04717 265.335332 
L 214.423898 265.335332 
z
" clip-path="url(#p8d62bd8402)" style="fill: #1f77b4"/>
   </g>
   <g id="patch_105">
    <path d="M 216.04717 283.910437 
L 217.670443 283.910437 
L 217.670443 270.057816 
L 216.04717 270.057816 
z
" clip-path="url(#p8d62bd8402)" style="fill: #1f77b4"/>
   </g>
   <g id="patch_106">
    <path d="M 217.670443 283.910437 
L 219.293716 283.910437 
L 219.293716 271.317146 
L 217.670443 271.317146 
z
" clip-path="url(#p8d62bd8402)" style="fill: #1f77b4"/>
   </g>
   <g id="patch_107">
    <path d="M 219.293716 283.910437 
L 220.916989 283.910437 
L 220.916989 270.687481 
L 219.293716 270.687481 
z
" clip-path="url(#p8d62bd8402)" style="fill: #1f77b4"/>
   </g>
   <g id="patch_108">
    <path d="M 220.916989 283.910437 
L 222.540261 283.910437 
L 222.540261 267.224326 
L 220.916989 267.224326 
z
" clip-path="url(#p8d62bd8402)" style="fill: #1f77b4"/>
   </g>
   <g id="patch_109">
    <path d="M 222.540261 283.910437 
L 224.163534 283.910437 
L 224.163534 270.057816 
L 222.540261 270.057816 
z
" clip-path="url(#p8d62bd8402)" style="fill: #1f77b4"/>
   </g>
   <g id="patch_110">
    <path d="M 224.163534 283.910437 
L 225.786807 283.910437 
L 225.786807 274.465469 
L 224.163534 274.465469 
z
" clip-path="url(#p8d62bd8402)" style="fill: #1f77b4"/>
   </g>
   <g id="patch_111">
    <path d="M 225.786807 283.910437 
L 227.41008 283.910437 
L 227.41008 274.465469 
L 225.786807 274.465469 
z
" clip-path="url(#p8d62bd8402)" style="fill: #1f77b4"/>
   </g>
   <g id="patch_112">
    <path d="M 227.41008 283.910437 
L 229.033352 283.910437 
L 229.033352 273.835804 
L 227.41008 273.835804 
z
" clip-path="url(#p8d62bd8402)" style="fill: #1f77b4"/>
   </g>
   <g id="patch_113">
    <path d="M 229.033352 283.910437 
L 230.656625 283.910437 
L 230.656625 273.520972 
L 229.033352 273.520972 
z
" clip-path="url(#p8d62bd8402)" style="fill: #1f77b4"/>
   </g>
   <g id="patch_114">
    <path d="M 230.656625 283.910437 
L 232.279898 283.910437 
L 232.279898 276.03963 
L 230.656625 276.03963 
z
" clip-path="url(#p8d62bd8402)" style="fill: #1f77b4"/>
   </g>
   <g id="patch_115">
    <path d="M 232.279898 283.910437 
L 233.90317 283.910437 
L 233.90317 275.409965 
L 232.279898 275.409965 
z
" clip-path="url(#p8d62bd8402)" style="fill: #1f77b4"/>
   </g>
   <g id="patch_116">
    <path d="M 233.90317 283.910437 
L 235.526443 283.910437 
L 235.526443 276.669295 
L 233.90317 276.669295 
z
" clip-path="url(#p8d62bd8402)" style="fill: #1f77b4"/>
   </g>
   <g id="patch_117">
    <path d="M 235.526443 283.910437 
L 237.149716 283.910437 
L 237.149716 276.669295 
L 235.526443 276.669295 
z
" clip-path="url(#p8d62bd8402)" style="fill: #1f77b4"/>
   </g>
   <g id="patch_118">
    <path d="M 237.149716 283.910437 
L 238.772989 283.910437 
L 238.772989 276.354462 
L 237.149716 276.354462 
z
" clip-path="url(#p8d62bd8402)" style="fill: #1f77b4"/>
   </g>
   <g id="patch_119">
    <path d="M 238.772989 283.910437 
L 240.396261 283.910437 
L 240.396261 276.984127 
L 238.772989 276.984127 
z
" clip-path="url(#p8d62bd8402)" style="fill: #1f77b4"/>
   </g>
   <g id="patch_120">
    <path d="M 240.396261 283.910437 
L 242.019534 283.910437 
L 242.019534 278.558288 
L 240.396261 278.558288 
z
" clip-path="url(#p8d62bd8402)" style="fill: #1f77b4"/>
   </g>
   <g id="patch_121">
    <path d="M 242.019534 283.910437 
L 243.642807 283.910437 
L 243.642807 277.928624 
L 242.019534 277.928624 
z
" clip-path="url(#p8d62bd8402)" style="fill: #1f77b4"/>
   </g>
   <g id="patch_122">
    <path d="M 243.642807 283.910437 
L 245.26608 283.910437 
L 245.26608 279.187953 
L 243.642807 279.187953 
z
" clip-path="url(#p8d62bd8402)" style="fill: #1f77b4"/>
   </g>
   <g id="patch_123">
    <path d="M 245.26608 283.910437 
L 246.889352 283.910437 
L 246.889352 276.669295 
L 245.26608 276.669295 
z
" clip-path="url(#p8d62bd8402)" style="fill: #1f77b4"/>
   </g>
   <g id="patch_124">
    <path d="M 246.889352 283.910437 
L 248.512625 283.910437 
L 248.512625 279.187953 
L 246.889352 279.187953 
z
" clip-path="url(#p8d62bd8402)" style="fill: #1f77b4"/>
   </g>
   <g id="patch_125">
    <path d="M 248.512625 283.910437 
L 250.135898 283.910437 
L 250.135898 281.706611 
L 248.512625 281.706611 
z
" clip-path="url(#p8d62bd8402)" style="fill: #1f77b4"/>
   </g>
   <g id="patch_126">
    <path d="M 250.135898 283.910437 
L 251.75917 283.910437 
L 251.75917 281.076947 
L 250.135898 281.076947 
z
" clip-path="url(#p8d62bd8402)" style="fill: #1f77b4"/>
   </g>
   <g id="patch_127">
    <path d="M 251.75917 283.910437 
L 253.382443 283.910437 
L 253.382443 279.817618 
L 251.75917 279.817618 
z
" clip-path="url(#p8d62bd8402)" style="fill: #1f77b4"/>
   </g>
   <g id="patch_128">
    <path d="M 253.382443 283.910437 
L 255.005716 283.910437 
L 255.005716 280.447282 
L 253.382443 280.447282 
z
" clip-path="url(#p8d62bd8402)" style="fill: #1f77b4"/>
   </g>
   <g id="patch_129">
    <path d="M 255.005716 283.910437 
L 256.628989 283.910437 
L 256.628989 282.336276 
L 255.005716 282.336276 
z
" clip-path="url(#p8d62bd8402)" style="fill: #1f77b4"/>
   </g>
   <g id="patch_130">
    <path d="M 256.628989 283.910437 
L 258.252261 283.910437 
L 258.252261 278.873121 
L 256.628989 278.873121 
z
" clip-path="url(#p8d62bd8402)" style="fill: #1f77b4"/>
   </g>
   <g id="patch_131">
    <path d="M 258.252261 283.910437 
L 259.875534 283.910437 
L 259.875534 281.076947 
L 258.252261 281.076947 
z
" clip-path="url(#p8d62bd8402)" style="fill: #1f77b4"/>
   </g>
   <g id="patch_132">
    <path d="M 259.875534 283.910437 
L 261.498807 283.910437 
L 261.498807 281.391779 
L 259.875534 281.391779 
z
" clip-path="url(#p8d62bd8402)" style="fill: #1f77b4"/>
   </g>
   <g id="patch_133">
    <path d="M 261.498807 283.910437 
L 263.12208 283.910437 
L 263.12208 280.762115 
L 261.498807 280.762115 
z
" clip-path="url(#p8d62bd8402)" style="fill: #1f77b4"/>
   </g>
   <g id="patch_134">
    <path d="M 263.12208 283.910437 
L 264.745352 283.910437 
L 264.745352 282.651108 
L 263.12208 282.651108 
z
" clip-path="url(#p8d62bd8402)" style="fill: #1f77b4"/>
   </g>
   <g id="patch_135">
    <path d="M 264.745352 283.910437 
L 266.368625 283.910437 
L 266.368625 280.447282 
L 264.745352 280.447282 
z
" clip-path="url(#p8d62bd8402)" style="fill: #1f77b4"/>
   </g>
   <g id="patch_136">
    <path d="M 266.368625 283.910437 
L 267.991898 283.910437 
L 267.991898 283.280773 
L 266.368625 283.280773 
z
" clip-path="url(#p8d62bd8402)" style="fill: #1f77b4"/>
   </g>
   <g id="patch_137">
    <path d="M 267.991898 283.910437 
L 269.61517 283.910437 
L 269.61517 279.817618 
L 267.991898 279.817618 
z
" clip-path="url(#p8d62bd8402)" style="fill: #1f77b4"/>
   </g>
   <g id="patch_138">
    <path d="M 269.61517 283.910437 
L 271.238443 283.910437 
L 271.238443 282.021444 
L 269.61517 282.021444 
z
" clip-path="url(#p8d62bd8402)" style="fill: #1f77b4"/>
   </g>
   <g id="patch_139">
    <path d="M 271.238443 283.910437 
L 272.861716 283.910437 
L 272.861716 281.706611 
L 271.238443 281.706611 
z
" clip-path="url(#p8d62bd8402)" style="fill: #1f77b4"/>
   </g>
   <g id="patch_140">
    <path d="M 272.861716 283.910437 
L 274.484989 283.910437 
L 274.484989 281.706611 
L 272.861716 281.706611 
z
" clip-path="url(#p8d62bd8402)" style="fill: #1f77b4"/>
   </g>
   <g id="patch_141">
    <path d="M 274.484989 283.910437 
L 276.108261 283.910437 
L 276.108261 282.021444 
L 274.484989 282.021444 
z
" clip-path="url(#p8d62bd8402)" style="fill: #1f77b4"/>
   </g>
   <g id="patch_142">
    <path d="M 276.108261 283.910437 
L 277.731534 283.910437 
L 277.731534 282.651108 
L 276.108261 282.651108 
z
" clip-path="url(#p8d62bd8402)" style="fill: #1f77b4"/>
   </g>
   <g id="patch_143">
    <path d="M 277.731534 283.910437 
L 279.354807 283.910437 
L 279.354807 283.280773 
L 277.731534 283.280773 
z
" clip-path="url(#p8d62bd8402)" style="fill: #1f77b4"/>
   </g>
   <g id="patch_144">
    <path d="M 279.354807 283.910437 
L 280.97808 283.910437 
L 280.97808 282.336276 
L 279.354807 282.336276 
z
" clip-path="url(#p8d62bd8402)" style="fill: #1f77b4"/>
   </g>
   <g id="patch_145">
    <path d="M 280.97808 283.910437 
L 282.601352 283.910437 
L 282.601352 282.021444 
L 280.97808 282.021444 
z
" clip-path="url(#p8d62bd8402)" style="fill: #1f77b4"/>
   </g>
   <g id="patch_146">
    <path d="M 282.601352 283.910437 
L 284.224625 283.910437 
L 284.224625 282.021444 
L 282.601352 282.021444 
z
" clip-path="url(#p8d62bd8402)" style="fill: #1f77b4"/>
   </g>
   <g id="patch_147">
    <path d="M 284.224625 283.910437 
L 285.847898 283.910437 
L 285.847898 282.336276 
L 284.224625 282.336276 
z
" clip-path="url(#p8d62bd8402)" style="fill: #1f77b4"/>
   </g>
   <g id="patch_148">
    <path d="M 285.847898 283.910437 
L 287.47117 283.910437 
L 287.47117 283.280773 
L 285.847898 283.280773 
z
" clip-path="url(#p8d62bd8402)" style="fill: #1f77b4"/>
   </g>
   <g id="patch_149">
    <path d="M 287.47117 283.910437 
L 289.094443 283.910437 
L 289.094443 283.595605 
L 287.47117 283.595605 
z
" clip-path="url(#p8d62bd8402)" style="fill: #1f77b4"/>
   </g>
   <g id="patch_150">
    <path d="M 289.094443 283.910437 
L 290.717716 283.910437 
L 290.717716 283.280773 
L 289.094443 283.280773 
z
" clip-path="url(#p8d62bd8402)" style="fill: #1f77b4"/>
   </g>
   <g id="patch_151">
    <path d="M 290.717716 283.910437 
L 292.340989 283.910437 
L 292.340989 282.651108 
L 290.717716 282.651108 
z
" clip-path="url(#p8d62bd8402)" style="fill: #1f77b4"/>
   </g>
   <g id="patch_152">
    <path d="M 292.340989 283.910437 
L 293.964261 283.910437 
L 293.964261 283.280773 
L 292.340989 283.280773 
z
" clip-path="url(#p8d62bd8402)" style="fill: #1f77b4"/>
   </g>
   <g id="patch_153">
    <path d="M 293.964261 283.910437 
L 295.587534 283.910437 
L 295.587534 283.910437 
L 293.964261 283.910437 
z
" clip-path="url(#p8d62bd8402)" style="fill: #1f77b4"/>
   </g>
   <g id="patch_154">
    <path d="M 295.587534 283.910437 
L 297.210807 283.910437 
L 297.210807 283.595605 
L 295.587534 283.595605 
z
" clip-path="url(#p8d62bd8402)" style="fill: #1f77b4"/>
   </g>
   <g id="patch_155">
    <path d="M 297.210807 283.910437 
L 298.83408 283.910437 
L 298.83408 282.021444 
L 297.210807 282.021444 
z
" clip-path="url(#p8d62bd8402)" style="fill: #1f77b4"/>
   </g>
   <g id="patch_156">
    <path d="M 298.83408 283.910437 
L 300.457352 283.910437 
L 300.457352 283.595605 
L 298.83408 283.595605 
z
" clip-path="url(#p8d62bd8402)" style="fill: #1f77b4"/>
   </g>
   <g id="patch_157">
    <path d="M 300.457352 283.910437 
L 302.080625 283.910437 
L 302.080625 283.280773 
L 300.457352 283.280773 
z
" clip-path="url(#p8d62bd8402)" style="fill: #1f77b4"/>
   </g>
   <g id="patch_158">
    <path d="M 302.080625 283.910437 
L 303.703898 283.910437 
L 303.703898 283.280773 
L 302.080625 283.280773 
z
" clip-path="url(#p8d62bd8402)" style="fill: #1f77b4"/>
   </g>
   <g id="patch_159">
    <path d="M 303.703898 283.910437 
L 305.32717 283.910437 
L 305.32717 283.910437 
L 303.703898 283.910437 
z
" clip-path="url(#p8d62bd8402)" style="fill: #1f77b4"/>
   </g>
   <g id="patch_160">
    <path d="M 305.32717 283.910437 
L 306.950443 283.910437 
L 306.950443 283.910437 
L 305.32717 283.910437 
z
" clip-path="url(#p8d62bd8402)" style="fill: #1f77b4"/>
   </g>
   <g id="patch_161">
    <path d="M 306.950443 283.910437 
L 308.573716 283.910437 
L 308.573716 282.965941 
L 306.950443 282.965941 
z
" clip-path="url(#p8d62bd8402)" style="fill: #1f77b4"/>
   </g>
   <g id="patch_162">
    <path d="M 308.573716 283.910437 
L 310.196989 283.910437 
L 310.196989 282.965941 
L 308.573716 282.965941 
z
" clip-path="url(#p8d62bd8402)" style="fill: #1f77b4"/>
   </g>
   <g id="patch_163">
    <path d="M 310.196989 283.910437 
L 311.820261 283.910437 
L 311.820261 283.595605 
L 310.196989 283.595605 
z
" clip-path="url(#p8d62bd8402)" style="fill: #1f77b4"/>
   </g>
   <g id="patch_164">
    <path d="M 311.820261 283.910437 
L 313.443534 283.910437 
L 313.443534 283.910437 
L 311.820261 283.910437 
z
" clip-path="url(#p8d62bd8402)" style="fill: #1f77b4"/>
   </g>
   <g id="patch_165">
    <path d="M 313.443534 283.910437 
L 315.066807 283.910437 
L 315.066807 283.280773 
L 313.443534 283.280773 
z
" clip-path="url(#p8d62bd8402)" style="fill: #1f77b4"/>
   </g>
   <g id="patch_166">
    <path d="M 315.066807 283.910437 
L 316.69008 283.910437 
L 316.69008 283.280773 
L 315.066807 283.280773 
z
" clip-path="url(#p8d62bd8402)" style="fill: #1f77b4"/>
   </g>
   <g id="patch_167">
    <path d="M 316.69008 283.910437 
L 318.313352 283.910437 
L 318.313352 283.910437 
L 316.69008 283.910437 
z
" clip-path="url(#p8d62bd8402)" style="fill: #1f77b4"/>
   </g>
   <g id="patch_168">
    <path d="M 318.313352 283.910437 
L 319.936625 283.910437 
L 319.936625 283.910437 
L 318.313352 283.910437 
z
" clip-path="url(#p8d62bd8402)" style="fill: #1f77b4"/>
   </g>
   <g id="patch_169">
    <path d="M 319.936625 283.910437 
L 321.559898 283.910437 
L 321.559898 283.910437 
L 319.936625 283.910437 
z
" clip-path="url(#p8d62bd8402)" style="fill: #1f77b4"/>
   </g>
   <g id="patch_170">
    <path d="M 321.559898 283.910437 
L 323.18317 283.910437 
L 323.18317 283.280773 
L 321.559898 283.280773 
z
" clip-path="url(#p8d62bd8402)" style="fill: #1f77b4"/>
   </g>
   <g id="patch_171">
    <path d="M 323.18317 283.910437 
L 324.806443 283.910437 
L 324.806443 283.910437 
L 323.18317 283.910437 
z
" clip-path="url(#p8d62bd8402)" style="fill: #1f77b4"/>
   </g>
   <g id="patch_172">
    <path d="M 324.806443 283.910437 
L 326.429716 283.910437 
L 326.429716 283.910437 
L 324.806443 283.910437 
z
" clip-path="url(#p8d62bd8402)" style="fill: #1f77b4"/>
   </g>
   <g id="patch_173">
    <path d="M 326.429716 283.910437 
L 328.052989 283.910437 
L 328.052989 283.595605 
L 326.429716 283.595605 
z
" clip-path="url(#p8d62bd8402)" style="fill: #1f77b4"/>
   </g>
   <g id="patch_174">
    <path d="M 328.052989 283.910437 
L 329.676261 283.910437 
L 329.676261 283.910437 
L 328.052989 283.910437 
z
" clip-path="url(#p8d62bd8402)" style="fill: #1f77b4"/>
   </g>
   <g id="patch_175">
    <path d="M 329.676261 283.910437 
L 331.299534 283.910437 
L 331.299534 283.910437 
L 329.676261 283.910437 
z
" clip-path="url(#p8d62bd8402)" style="fill: #1f77b4"/>
   </g>
   <g id="patch_176">
    <path d="M 331.299534 283.910437 
L 332.922807 283.910437 
L 332.922807 283.595605 
L 331.299534 283.595605 
z
" clip-path="url(#p8d62bd8402)" style="fill: #1f77b4"/>
   </g>
   <g id="patch_177">
    <path d="M 332.922807 283.910437 
L 334.54608 283.910437 
L 334.54608 283.910437 
L 332.922807 283.910437 
z
" clip-path="url(#p8d62bd8402)" style="fill: #1f77b4"/>
   </g>
   <g id="patch_178">
    <path d="M 334.54608 283.910437 
L 336.169352 283.910437 
L 336.169352 283.910437 
L 334.54608 283.910437 
z
" clip-path="url(#p8d62bd8402)" style="fill: #1f77b4"/>
   </g>
   <g id="patch_179">
    <path d="M 336.169352 283.910437 
L 337.792625 283.910437 
L 337.792625 283.595605 
L 336.169352 283.595605 
z
" clip-path="url(#p8d62bd8402)" style="fill: #1f77b4"/>
   </g>
   <g id="patch_180">
    <path d="M 337.792625 283.910437 
L 339.415898 283.910437 
L 339.415898 283.595605 
L 337.792625 283.595605 
z
" clip-path="url(#p8d62bd8402)" style="fill: #1f77b4"/>
   </g>
   <g id="patch_181">
    <path d="M 339.415898 283.910437 
L 341.03917 283.910437 
L 341.03917 283.595605 
L 339.415898 283.595605 
z
" clip-path="url(#p8d62bd8402)" style="fill: #1f77b4"/>
   </g>
   <g id="patch_182">
    <path d="M 341.03917 283.910437 
L 342.662443 283.910437 
L 342.662443 283.910437 
L 341.03917 283.910437 
z
" clip-path="url(#p8d62bd8402)" style="fill: #1f77b4"/>
   </g>
   <g id="patch_183">
    <path d="M 342.662443 283.910437 
L 344.285716 283.910437 
L 344.285716 283.595605 
L 342.662443 283.595605 
z
" clip-path="url(#p8d62bd8402)" style="fill: #1f77b4"/>
   </g>
   <g id="patch_184">
    <path d="M 344.285716 283.910437 
L 345.908989 283.910437 
L 345.908989 283.595605 
L 344.285716 283.595605 
z
" clip-path="url(#p8d62bd8402)" style="fill: #1f77b4"/>
   </g>
   <g id="patch_185">
    <path d="M 345.908989 283.910437 
L 347.532261 283.910437 
L 347.532261 283.910437 
L 345.908989 283.910437 
z
" clip-path="url(#p8d62bd8402)" style="fill: #1f77b4"/>
   </g>
   <g id="patch_186">
    <path d="M 347.532261 283.910437 
L 349.155534 283.910437 
L 349.155534 283.595605 
L 347.532261 283.595605 
z
" clip-path="url(#p8d62bd8402)" style="fill: #1f77b4"/>
   </g>
   <g id="patch_187">
    <path d="M 349.155534 283.910437 
L 350.778807 283.910437 
L 350.778807 283.910437 
L 349.155534 283.910437 
z
" clip-path="url(#p8d62bd8402)" style="fill: #1f77b4"/>
   </g>
   <g id="patch_188">
    <path d="M 350.778807 283.910437 
L 352.40208 283.910437 
L 352.40208 283.910437 
L 350.778807 283.910437 
z
" clip-path="url(#p8d62bd8402)" style="fill: #1f77b4"/>
   </g>
   <g id="patch_189">
    <path d="M 352.40208 283.910437 
L 354.025352 283.910437 
L 354.025352 283.595605 
L 352.40208 283.595605 
z
" clip-path="url(#p8d62bd8402)" style="fill: #1f77b4"/>
   </g>
   <g id="patch_190">
    <path d="M 354.025352 283.910437 
L 355.648625 283.910437 
L 355.648625 283.910437 
L 354.025352 283.910437 
z
" clip-path="url(#p8d62bd8402)" style="fill: #1f77b4"/>
   </g>
   <g id="patch_191">
    <path d="M 355.648625 283.910437 
L 357.271898 283.910437 
L 357.271898 283.910437 
L 355.648625 283.910437 
z
" clip-path="url(#p8d62bd8402)" style="fill: #1f77b4"/>
   </g>
   <g id="patch_192">
    <path d="M 357.271898 283.910437 
L 358.89517 283.910437 
L 358.89517 283.910437 
L 357.271898 283.910437 
z
" clip-path="url(#p8d62bd8402)" style="fill: #1f77b4"/>
   </g>
   <g id="patch_193">
    <path d="M 358.89517 283.910437 
L 360.518443 283.910437 
L 360.518443 283.910437 
L 358.89517 283.910437 
z
" clip-path="url(#p8d62bd8402)" style="fill: #1f77b4"/>
   </g>
   <g id="patch_194">
    <path d="M 360.518443 283.910437 
L 362.141716 283.910437 
L 362.141716 283.910437 
L 360.518443 283.910437 
z
" clip-path="url(#p8d62bd8402)" style="fill: #1f77b4"/>
   </g>
   <g id="patch_195">
    <path d="M 362.141716 283.910437 
L 363.764989 283.910437 
L 363.764989 283.910437 
L 362.141716 283.910437 
z
" clip-path="url(#p8d62bd8402)" style="fill: #1f77b4"/>
   </g>
   <g id="patch_196">
    <path d="M 363.764989 283.910437 
L 365.388261 283.910437 
L 365.388261 283.910437 
L 363.764989 283.910437 
z
" clip-path="url(#p8d62bd8402)" style="fill: #1f77b4"/>
   </g>
   <g id="patch_197">
    <path d="M 365.388261 283.910437 
L 367.011534 283.910437 
L 367.011534 283.595605 
L 365.388261 283.595605 
z
" clip-path="url(#p8d62bd8402)" style="fill: #1f77b4"/>
   </g>
   <g id="patch_198">
    <path d="M 367.011534 283.910437 
L 368.634807 283.910437 
L 368.634807 283.910437 
L 367.011534 283.910437 
z
" clip-path="url(#p8d62bd8402)" style="fill: #1f77b4"/>
   </g>
   <g id="patch_199">
    <path d="M 368.634807 283.910437 
L 370.25808 283.910437 
L 370.25808 283.910437 
L 368.634807 283.910437 
z
" clip-path="url(#p8d62bd8402)" style="fill: #1f77b4"/>
   </g>
   <g id="patch_200">
    <path d="M 370.25808 283.910437 
L 371.881352 283.910437 
L 371.881352 283.910437 
L 370.25808 283.910437 
z
" clip-path="url(#p8d62bd8402)" style="fill: #1f77b4"/>
   </g>
   <g id="patch_201">
    <path d="M 371.881352 283.910437 
L 373.504625 283.910437 
L 373.504625 283.910437 
L 371.881352 283.910437 
z
" clip-path="url(#p8d62bd8402)" style="fill: #1f77b4"/>
   </g>
   <g id="patch_202">
    <path d="M 373.504625 283.910437 
L 375.127898 283.910437 
L 375.127898 283.595605 
L 373.504625 283.595605 
z
" clip-path="url(#p8d62bd8402)" style="fill: #1f77b4"/>
   </g>
   <g id="matplotlib.axis_1">
    <g id="xtick_1">
     <g id="line2d_1">
      <defs>
       <path id="m08fdc94d70" d="M 0 0 
L 0 3.5 
" style="stroke: #000000; stroke-width: 0.8"/>
      </defs>
      <g>
       <use xlink:href="#m08fdc94d70" x="50.062938" y="283.910437" style="stroke: #000000; stroke-width: 0.8"/>
      </g>
     </g>
     <g id="text_1">
      <!-- 0.0 -->
      <g transform="translate(42.111375 298.508875) scale(0.1 -0.1)">
       <defs>
        <path id="DejaVuSans-30" d="M 2034 4250 
Q 1547 4250 1301 3770 
Q 1056 3291 1056 2328 
Q 1056 1369 1301 889 
Q 1547 409 2034 409 
Q 2525 409 2770 889 
Q 3016 1369 3016 2328 
Q 3016 3291 2770 3770 
Q 2525 4250 2034 4250 
z
M 2034 4750 
Q 2819 4750 3233 4129 
Q 3647 3509 3647 2328 
Q 3647 1150 3233 529 
Q 2819 -91 2034 -91 
Q 1250 -91 836 529 
Q 422 1150 422 2328 
Q 422 3509 836 4129 
Q 1250 4750 2034 4750 
z
" transform="scale(0.015625)"/>
        <path id="DejaVuSans-2e" d="M 684 794 
L 1344 794 
L 1344 0 
L 684 0 
L 684 794 
z
" transform="scale(0.015625)"/>
       </defs>
       <use xlink:href="#DejaVuSans-30"/>
       <use xlink:href="#DejaVuSans-2e" transform="translate(63.623047 0)"/>
       <use xlink:href="#DejaVuSans-30" transform="translate(95.410156 0)"/>
      </g>
     </g>
    </g>
    <g id="xtick_2">
     <g id="line2d_2">
      <g>
       <use xlink:href="#m08fdc94d70" x="94.644537" y="283.910437" style="stroke: #000000; stroke-width: 0.8"/>
      </g>
     </g>
     <g id="text_2">
      <!-- 0.5 -->
      <g transform="translate(86.692975 298.508875) scale(0.1 -0.1)">
       <defs>
        <path id="DejaVuSans-35" d="M 691 4666 
L 3169 4666 
L 3169 4134 
L 1269 4134 
L 1269 2991 
Q 1406 3038 1543 3061 
Q 1681 3084 1819 3084 
Q 2600 3084 3056 2656 
Q 3513 2228 3513 1497 
Q 3513 744 3044 326 
Q 2575 -91 1722 -91 
Q 1428 -91 1123 -41 
Q 819 9 494 109 
L 494 744 
Q 775 591 1075 516 
Q 1375 441 1709 441 
Q 2250 441 2565 725 
Q 2881 1009 2881 1497 
Q 2881 1984 2565 2268 
Q 2250 2553 1709 2553 
Q 1456 2553 1204 2497 
Q 953 2441 691 2322 
L 691 4666 
z
" transform="scale(0.015625)"/>
       </defs>
       <use xlink:href="#DejaVuSans-30"/>
       <use xlink:href="#DejaVuSans-2e" transform="translate(63.623047 0)"/>
       <use xlink:href="#DejaVuSans-35" transform="translate(95.410156 0)"/>
      </g>
     </g>
    </g>
    <g id="xtick_3">
     <g id="line2d_3">
      <g>
       <use xlink:href="#m08fdc94d70" x="139.226137" y="283.910437" style="stroke: #000000; stroke-width: 0.8"/>
      </g>
     </g>
     <g id="text_3">
      <!-- 1.0 -->
      <g transform="translate(131.274575 298.508875) scale(0.1 -0.1)">
       <defs>
        <path id="DejaVuSans-31" d="M 794 531 
L 1825 531 
L 1825 4091 
L 703 3866 
L 703 4441 
L 1819 4666 
L 2450 4666 
L 2450 531 
L 3481 531 
L 3481 0 
L 794 0 
L 794 531 
z
" transform="scale(0.015625)"/>
       </defs>
       <use xlink:href="#DejaVuSans-31"/>
       <use xlink:href="#DejaVuSans-2e" transform="translate(63.623047 0)"/>
       <use xlink:href="#DejaVuSans-30" transform="translate(95.410156 0)"/>
      </g>
     </g>
    </g>
    <g id="xtick_4">
     <g id="line2d_4">
      <g>
       <use xlink:href="#m08fdc94d70" x="183.807737" y="283.910437" style="stroke: #000000; stroke-width: 0.8"/>
      </g>
     </g>
     <g id="text_4">
      <!-- 1.5 -->
      <g transform="translate(175.856174 298.508875) scale(0.1 -0.1)">
       <use xlink:href="#DejaVuSans-31"/>
       <use xlink:href="#DejaVuSans-2e" transform="translate(63.623047 0)"/>
       <use xlink:href="#DejaVuSans-35" transform="translate(95.410156 0)"/>
      </g>
     </g>
    </g>
    <g id="xtick_5">
     <g id="line2d_5">
      <g>
       <use xlink:href="#m08fdc94d70" x="228.389337" y="283.910437" style="stroke: #000000; stroke-width: 0.8"/>
      </g>
     </g>
     <g id="text_5">
      <!-- 2.0 -->
      <g transform="translate(220.437774 298.508875) scale(0.1 -0.1)">
       <defs>
        <path id="DejaVuSans-32" d="M 1228 531 
L 3431 531 
L 3431 0 
L 469 0 
L 469 531 
Q 828 903 1448 1529 
Q 2069 2156 2228 2338 
Q 2531 2678 2651 2914 
Q 2772 3150 2772 3378 
Q 2772 3750 2511 3984 
Q 2250 4219 1831 4219 
Q 1534 4219 1204 4116 
Q 875 4013 500 3803 
L 500 4441 
Q 881 4594 1212 4672 
Q 1544 4750 1819 4750 
Q 2544 4750 2975 4387 
Q 3406 4025 3406 3419 
Q 3406 3131 3298 2873 
Q 3191 2616 2906 2266 
Q 2828 2175 2409 1742 
Q 1991 1309 1228 531 
z
" transform="scale(0.015625)"/>
       </defs>
       <use xlink:href="#DejaVuSans-32"/>
       <use xlink:href="#DejaVuSans-2e" transform="translate(63.623047 0)"/>
       <use xlink:href="#DejaVuSans-30" transform="translate(95.410156 0)"/>
      </g>
     </g>
    </g>
    <g id="xtick_6">
     <g id="line2d_6">
      <g>
       <use xlink:href="#m08fdc94d70" x="272.970936" y="283.910437" style="stroke: #000000; stroke-width: 0.8"/>
      </g>
     </g>
     <g id="text_6">
      <!-- 2.5 -->
      <g transform="translate(265.019374 298.508875) scale(0.1 -0.1)">
       <use xlink:href="#DejaVuSans-32"/>
       <use xlink:href="#DejaVuSans-2e" transform="translate(63.623047 0)"/>
       <use xlink:href="#DejaVuSans-35" transform="translate(95.410156 0)"/>
      </g>
     </g>
    </g>
    <g id="xtick_7">
     <g id="line2d_7">
      <g>
       <use xlink:href="#m08fdc94d70" x="317.552536" y="283.910437" style="stroke: #000000; stroke-width: 0.8"/>
      </g>
     </g>
     <g id="text_7">
      <!-- 3.0 -->
      <g transform="translate(309.600973 298.508875) scale(0.1 -0.1)">
       <defs>
        <path id="DejaVuSans-33" d="M 2597 2516 
Q 3050 2419 3304 2112 
Q 3559 1806 3559 1356 
Q 3559 666 3084 287 
Q 2609 -91 1734 -91 
Q 1441 -91 1130 -33 
Q 819 25 488 141 
L 488 750 
Q 750 597 1062 519 
Q 1375 441 1716 441 
Q 2309 441 2620 675 
Q 2931 909 2931 1356 
Q 2931 1769 2642 2001 
Q 2353 2234 1838 2234 
L 1294 2234 
L 1294 2753 
L 1863 2753 
Q 2328 2753 2575 2939 
Q 2822 3125 2822 3475 
Q 2822 3834 2567 4026 
Q 2313 4219 1838 4219 
Q 1578 4219 1281 4162 
Q 984 4106 628 3988 
L 628 4550 
Q 988 4650 1302 4700 
Q 1616 4750 1894 4750 
Q 2613 4750 3031 4423 
Q 3450 4097 3450 3541 
Q 3450 3153 3228 2886 
Q 3006 2619 2597 2516 
z
" transform="scale(0.015625)"/>
       </defs>
       <use xlink:href="#DejaVuSans-33"/>
       <use xlink:href="#DejaVuSans-2e" transform="translate(63.623047 0)"/>
       <use xlink:href="#DejaVuSans-30" transform="translate(95.410156 0)"/>
      </g>
     </g>
    </g>
    <g id="xtick_8">
     <g id="line2d_8">
      <g>
       <use xlink:href="#m08fdc94d70" x="362.134136" y="283.910437" style="stroke: #000000; stroke-width: 0.8"/>
      </g>
     </g>
     <g id="text_8">
      <!-- 3.5 -->
      <g transform="translate(354.182573 298.508875) scale(0.1 -0.1)">
       <use xlink:href="#DejaVuSans-33"/>
       <use xlink:href="#DejaVuSans-2e" transform="translate(63.623047 0)"/>
       <use xlink:href="#DejaVuSans-35" transform="translate(95.410156 0)"/>
      </g>
     </g>
    </g>
    <g id="text_9">
     <!-- Frequency (Hz) -->
     <g transform="translate(175.095938 312.187) scale(0.1 -0.1)">
      <defs>
       <path id="DejaVuSans-46" d="M 628 4666 
L 3309 4666 
L 3309 4134 
L 1259 4134 
L 1259 2759 
L 3109 2759 
L 3109 2228 
L 1259 2228 
L 1259 0 
L 628 0 
L 628 4666 
z
" transform="scale(0.015625)"/>
       <path id="DejaVuSans-72" d="M 2631 2963 
Q 2534 3019 2420 3045 
Q 2306 3072 2169 3072 
Q 1681 3072 1420 2755 
Q 1159 2438 1159 1844 
L 1159 0 
L 581 0 
L 581 3500 
L 1159 3500 
L 1159 2956 
Q 1341 3275 1631 3429 
Q 1922 3584 2338 3584 
Q 2397 3584 2469 3576 
Q 2541 3569 2628 3553 
L 2631 2963 
z
" transform="scale(0.015625)"/>
       <path id="DejaVuSans-65" d="M 3597 1894 
L 3597 1613 
L 953 1613 
Q 991 1019 1311 708 
Q 1631 397 2203 397 
Q 2534 397 2845 478 
Q 3156 559 3463 722 
L 3463 178 
Q 3153 47 2828 -22 
Q 2503 -91 2169 -91 
Q 1331 -91 842 396 
Q 353 884 353 1716 
Q 353 2575 817 3079 
Q 1281 3584 2069 3584 
Q 2775 3584 3186 3129 
Q 3597 2675 3597 1894 
z
M 3022 2063 
Q 3016 2534 2758 2815 
Q 2500 3097 2075 3097 
Q 1594 3097 1305 2825 
Q 1016 2553 972 2059 
L 3022 2063 
z
" transform="scale(0.015625)"/>
       <path id="DejaVuSans-71" d="M 947 1747 
Q 947 1113 1208 752 
Q 1469 391 1925 391 
Q 2381 391 2643 752 
Q 2906 1113 2906 1747 
Q 2906 2381 2643 2742 
Q 2381 3103 1925 3103 
Q 1469 3103 1208 2742 
Q 947 2381 947 1747 
z
M 2906 525 
Q 2725 213 2448 61 
Q 2172 -91 1784 -91 
Q 1150 -91 751 415 
Q 353 922 353 1747 
Q 353 2572 751 3078 
Q 1150 3584 1784 3584 
Q 2172 3584 2448 3432 
Q 2725 3281 2906 2969 
L 2906 3500 
L 3481 3500 
L 3481 -1331 
L 2906 -1331 
L 2906 525 
z
" transform="scale(0.015625)"/>
       <path id="DejaVuSans-75" d="M 544 1381 
L 544 3500 
L 1119 3500 
L 1119 1403 
Q 1119 906 1312 657 
Q 1506 409 1894 409 
Q 2359 409 2629 706 
Q 2900 1003 2900 1516 
L 2900 3500 
L 3475 3500 
L 3475 0 
L 2900 0 
L 2900 538 
Q 2691 219 2414 64 
Q 2138 -91 1772 -91 
Q 1169 -91 856 284 
Q 544 659 544 1381 
z
M 1991 3584 
L 1991 3584 
z
" transform="scale(0.015625)"/>
       <path id="DejaVuSans-6e" d="M 3513 2113 
L 3513 0 
L 2938 0 
L 2938 2094 
Q 2938 2591 2744 2837 
Q 2550 3084 2163 3084 
Q 1697 3084 1428 2787 
Q 1159 2491 1159 1978 
L 1159 0 
L 581 0 
L 581 3500 
L 1159 3500 
L 1159 2956 
Q 1366 3272 1645 3428 
Q 1925 3584 2291 3584 
Q 2894 3584 3203 3211 
Q 3513 2838 3513 2113 
z
" transform="scale(0.015625)"/>
       <path id="DejaVuSans-63" d="M 3122 3366 
L 3122 2828 
Q 2878 2963 2633 3030 
Q 2388 3097 2138 3097 
Q 1578 3097 1268 2742 
Q 959 2388 959 1747 
Q 959 1106 1268 751 
Q 1578 397 2138 397 
Q 2388 397 2633 464 
Q 2878 531 3122 666 
L 3122 134 
Q 2881 22 2623 -34 
Q 2366 -91 2075 -91 
Q 1284 -91 818 406 
Q 353 903 353 1747 
Q 353 2603 823 3093 
Q 1294 3584 2113 3584 
Q 2378 3584 2631 3529 
Q 2884 3475 3122 3366 
z
" transform="scale(0.015625)"/>
       <path id="DejaVuSans-79" d="M 2059 -325 
Q 1816 -950 1584 -1140 
Q 1353 -1331 966 -1331 
L 506 -1331 
L 506 -850 
L 844 -850 
Q 1081 -850 1212 -737 
Q 1344 -625 1503 -206 
L 1606 56 
L 191 3500 
L 800 3500 
L 1894 763 
L 2988 3500 
L 3597 3500 
L 2059 -325 
z
" transform="scale(0.015625)"/>
       <path id="DejaVuSans-20" transform="scale(0.015625)"/>
       <path id="DejaVuSans-28" d="M 1984 4856 
Q 1566 4138 1362 3434 
Q 1159 2731 1159 2009 
Q 1159 1288 1364 580 
Q 1569 -128 1984 -844 
L 1484 -844 
Q 1016 -109 783 600 
Q 550 1309 550 2009 
Q 550 2706 781 3412 
Q 1013 4119 1484 4856 
L 1984 4856 
z
" transform="scale(0.015625)"/>
       <path id="DejaVuSans-48" d="M 628 4666 
L 1259 4666 
L 1259 2753 
L 3553 2753 
L 3553 4666 
L 4184 4666 
L 4184 0 
L 3553 0 
L 3553 2222 
L 1259 2222 
L 1259 0 
L 628 0 
L 628 4666 
z
" transform="scale(0.015625)"/>
       <path id="DejaVuSans-7a" d="M 353 3500 
L 3084 3500 
L 3084 2975 
L 922 459 
L 3084 459 
L 3084 0 
L 275 0 
L 275 525 
L 2438 3041 
L 353 3041 
L 353 3500 
z
" transform="scale(0.015625)"/>
       <path id="DejaVuSans-29" d="M 513 4856 
L 1013 4856 
Q 1481 4119 1714 3412 
Q 1947 2706 1947 2009 
Q 1947 1309 1714 600 
Q 1481 -109 1013 -844 
L 513 -844 
Q 928 -128 1133 580 
Q 1338 1288 1338 2009 
Q 1338 2731 1133 3434 
Q 928 4138 513 4856 
z
" transform="scale(0.015625)"/>
      </defs>
      <use xlink:href="#DejaVuSans-46"/>
      <use xlink:href="#DejaVuSans-72" transform="translate(50.269531 0)"/>
      <use xlink:href="#DejaVuSans-65" transform="translate(89.132812 0)"/>
      <use xlink:href="#DejaVuSans-71" transform="translate(150.65625 0)"/>
      <use xlink:href="#DejaVuSans-75" transform="translate(214.132812 0)"/>
      <use xlink:href="#DejaVuSans-65" transform="translate(277.511719 0)"/>
      <use xlink:href="#DejaVuSans-6e" transform="translate(339.035156 0)"/>
      <use xlink:href="#DejaVuSans-63" transform="translate(402.414062 0)"/>
      <use xlink:href="#DejaVuSans-79" transform="translate(457.394531 0)"/>
      <use xlink:href="#DejaVuSans-20" transform="translate(516.574219 0)"/>
      <use xlink:href="#DejaVuSans-28" transform="translate(548.361328 0)"/>
      <use xlink:href="#DejaVuSans-48" transform="translate(587.375 0)"/>
      <use xlink:href="#DejaVuSans-7a" transform="translate(662.570312 0)"/>
      <use xlink:href="#DejaVuSans-29" transform="translate(715.060547 0)"/>
     </g>
    </g>
    <g id="text_10">
     <!-- 1e15 -->
     <g transform="translate(366.12 311.187) scale(0.1 -0.1)">
      <use xlink:href="#DejaVuSans-31"/>
      <use xlink:href="#DejaVuSans-65" transform="translate(63.623047 0)"/>
      <use xlink:href="#DejaVuSans-31" transform="translate(125.146484 0)"/>
      <use xlink:href="#DejaVuSans-35" transform="translate(188.769531 0)"/>
     </g>
    </g>
   </g>
   <g id="matplotlib.axis_2">
    <g id="ytick_1">
     <g id="line2d_9">
      <defs>
       <path id="mb9aa350fde" d="M 0 0 
L -3.5 0 
" style="stroke: #000000; stroke-width: 0.8"/>
      </defs>
      <g>
       <use xlink:href="#mb9aa350fde" x="34.240625" y="283.910437" style="stroke: #000000; stroke-width: 0.8"/>
      </g>
     </g>
     <g id="text_11">
      <!-- 0 -->
      <g transform="translate(20.878125 287.709656) scale(0.1 -0.1)">
       <use xlink:href="#DejaVuSans-30"/>
      </g>
     </g>
    </g>
    <g id="ytick_2">
     <g id="line2d_10">
      <g>
       <use xlink:href="#mb9aa350fde" x="34.240625" y="251.573376" style="stroke: #000000; stroke-width: 0.8"/>
      </g>
     </g>
     <g id="text_12">
      <!-- 1 -->
      <g transform="translate(20.878125 255.372595) scale(0.1 -0.1)">
       <use xlink:href="#DejaVuSans-31"/>
      </g>
     </g>
    </g>
    <g id="ytick_3">
     <g id="line2d_11">
      <g>
       <use xlink:href="#mb9aa350fde" x="34.240625" y="219.236315" style="stroke: #000000; stroke-width: 0.8"/>
      </g>
     </g>
     <g id="text_13">
      <!-- 2 -->
      <g transform="translate(20.878125 223.035534) scale(0.1 -0.1)">
       <use xlink:href="#DejaVuSans-32"/>
      </g>
     </g>
    </g>
    <g id="ytick_4">
     <g id="line2d_12">
      <g>
       <use xlink:href="#mb9aa350fde" x="34.240625" y="186.899254" style="stroke: #000000; stroke-width: 0.8"/>
      </g>
     </g>
     <g id="text_14">
      <!-- 3 -->
      <g transform="translate(20.878125 190.698473) scale(0.1 -0.1)">
       <use xlink:href="#DejaVuSans-33"/>
      </g>
     </g>
    </g>
    <g id="ytick_5">
     <g id="line2d_13">
      <g>
       <use xlink:href="#mb9aa350fde" x="34.240625" y="154.562193" style="stroke: #000000; stroke-width: 0.8"/>
      </g>
     </g>
     <g id="text_15">
      <!-- 4 -->
      <g transform="translate(20.878125 158.361412) scale(0.1 -0.1)">
       <defs>
        <path id="DejaVuSans-34" d="M 2419 4116 
L 825 1625 
L 2419 1625 
L 2419 4116 
z
M 2253 4666 
L 3047 4666 
L 3047 1625 
L 3713 1625 
L 3713 1100 
L 3047 1100 
L 3047 0 
L 2419 0 
L 2419 1100 
L 313 1100 
L 313 1709 
L 2253 4666 
z
" transform="scale(0.015625)"/>
       </defs>
       <use xlink:href="#DejaVuSans-34"/>
      </g>
     </g>
    </g>
    <g id="ytick_6">
     <g id="line2d_14">
      <g>
       <use xlink:href="#mb9aa350fde" x="34.240625" y="122.225132" style="stroke: #000000; stroke-width: 0.8"/>
      </g>
     </g>
     <g id="text_16">
      <!-- 5 -->
      <g transform="translate(20.878125 126.024351) scale(0.1 -0.1)">
       <use xlink:href="#DejaVuSans-35"/>
      </g>
     </g>
    </g>
    <g id="ytick_7">
     <g id="line2d_15">
      <g>
       <use xlink:href="#mb9aa350fde" x="34.240625" y="89.888071" style="stroke: #000000; stroke-width: 0.8"/>
      </g>
     </g>
     <g id="text_17">
      <!-- 6 -->
      <g transform="translate(20.878125 93.68729) scale(0.1 -0.1)">
       <defs>
        <path id="DejaVuSans-36" d="M 2113 2584 
Q 1688 2584 1439 2293 
Q 1191 2003 1191 1497 
Q 1191 994 1439 701 
Q 1688 409 2113 409 
Q 2538 409 2786 701 
Q 3034 994 3034 1497 
Q 3034 2003 2786 2293 
Q 2538 2584 2113 2584 
z
M 3366 4563 
L 3366 3988 
Q 3128 4100 2886 4159 
Q 2644 4219 2406 4219 
Q 1781 4219 1451 3797 
Q 1122 3375 1075 2522 
Q 1259 2794 1537 2939 
Q 1816 3084 2150 3084 
Q 2853 3084 3261 2657 
Q 3669 2231 3669 1497 
Q 3669 778 3244 343 
Q 2819 -91 2113 -91 
Q 1303 -91 875 529 
Q 447 1150 447 2328 
Q 447 3434 972 4092 
Q 1497 4750 2381 4750 
Q 2619 4750 2861 4703 
Q 3103 4656 3366 4563 
z
" transform="scale(0.015625)"/>
       </defs>
       <use xlink:href="#DejaVuSans-36"/>
      </g>
     </g>
    </g>
    <g id="ytick_8">
     <g id="line2d_16">
      <g>
       <use xlink:href="#mb9aa350fde" x="34.240625" y="57.55101" style="stroke: #000000; stroke-width: 0.8"/>
      </g>
     </g>
     <g id="text_18">
      <!-- 7 -->
      <g transform="translate(20.878125 61.350229) scale(0.1 -0.1)">
       <defs>
        <path id="DejaVuSans-37" d="M 525 4666 
L 3525 4666 
L 3525 4397 
L 1831 0 
L 1172 0 
L 2766 4134 
L 525 4134 
L 525 4666 
z
" transform="scale(0.015625)"/>
       </defs>
       <use xlink:href="#DejaVuSans-37"/>
      </g>
     </g>
    </g>
    <g id="ytick_9">
     <g id="line2d_17">
      <g>
       <use xlink:href="#mb9aa350fde" x="34.240625" y="25.213949" style="stroke: #000000; stroke-width: 0.8"/>
      </g>
     </g>
     <g id="text_19">
      <!-- 8 -->
      <g transform="translate(20.878125 29.013168) scale(0.1 -0.1)">
       <defs>
        <path id="DejaVuSans-38" d="M 2034 2216 
Q 1584 2216 1326 1975 
Q 1069 1734 1069 1313 
Q 1069 891 1326 650 
Q 1584 409 2034 409 
Q 2484 409 2743 651 
Q 3003 894 3003 1313 
Q 3003 1734 2745 1975 
Q 2488 2216 2034 2216 
z
M 1403 2484 
Q 997 2584 770 2862 
Q 544 3141 544 3541 
Q 544 4100 942 4425 
Q 1341 4750 2034 4750 
Q 2731 4750 3128 4425 
Q 3525 4100 3525 3541 
Q 3525 3141 3298 2862 
Q 3072 2584 2669 2484 
Q 3125 2378 3379 2068 
Q 3634 1759 3634 1313 
Q 3634 634 3220 271 
Q 2806 -91 2034 -91 
Q 1263 -91 848 271 
Q 434 634 434 1313 
Q 434 1759 690 2068 
Q 947 2378 1403 2484 
z
M 1172 3481 
Q 1172 3119 1398 2916 
Q 1625 2713 2034 2713 
Q 2441 2713 2670 2916 
Q 2900 3119 2900 3481 
Q 2900 3844 2670 4047 
Q 2441 4250 2034 4250 
Q 1625 4250 1398 4047 
Q 1172 3844 1172 3481 
z
" transform="scale(0.015625)"/>
       </defs>
       <use xlink:href="#DejaVuSans-38"/>
      </g>
     </g>
    </g>
    <g id="text_20">
     <!-- Luminosity density w.r.t. frequency (erg/s/Hz) -->
     <g transform="translate(14.798438 264.325531) rotate(-90) scale(0.1 -0.1)">
      <defs>
       <path id="DejaVuSans-4c" d="M 628 4666 
L 1259 4666 
L 1259 531 
L 3531 531 
L 3531 0 
L 628 0 
L 628 4666 
z
" transform="scale(0.015625)"/>
       <path id="DejaVuSans-6d" d="M 3328 2828 
Q 3544 3216 3844 3400 
Q 4144 3584 4550 3584 
Q 5097 3584 5394 3201 
Q 5691 2819 5691 2113 
L 5691 0 
L 5113 0 
L 5113 2094 
Q 5113 2597 4934 2840 
Q 4756 3084 4391 3084 
Q 3944 3084 3684 2787 
Q 3425 2491 3425 1978 
L 3425 0 
L 2847 0 
L 2847 2094 
Q 2847 2600 2669 2842 
Q 2491 3084 2119 3084 
Q 1678 3084 1418 2786 
Q 1159 2488 1159 1978 
L 1159 0 
L 581 0 
L 581 3500 
L 1159 3500 
L 1159 2956 
Q 1356 3278 1631 3431 
Q 1906 3584 2284 3584 
Q 2666 3584 2933 3390 
Q 3200 3197 3328 2828 
z
" transform="scale(0.015625)"/>
       <path id="DejaVuSans-69" d="M 603 3500 
L 1178 3500 
L 1178 0 
L 603 0 
L 603 3500 
z
M 603 4863 
L 1178 4863 
L 1178 4134 
L 603 4134 
L 603 4863 
z
" transform="scale(0.015625)"/>
       <path id="DejaVuSans-6f" d="M 1959 3097 
Q 1497 3097 1228 2736 
Q 959 2375 959 1747 
Q 959 1119 1226 758 
Q 1494 397 1959 397 
Q 2419 397 2687 759 
Q 2956 1122 2956 1747 
Q 2956 2369 2687 2733 
Q 2419 3097 1959 3097 
z
M 1959 3584 
Q 2709 3584 3137 3096 
Q 3566 2609 3566 1747 
Q 3566 888 3137 398 
Q 2709 -91 1959 -91 
Q 1206 -91 779 398 
Q 353 888 353 1747 
Q 353 2609 779 3096 
Q 1206 3584 1959 3584 
z
" transform="scale(0.015625)"/>
       <path id="DejaVuSans-73" d="M 2834 3397 
L 2834 2853 
Q 2591 2978 2328 3040 
Q 2066 3103 1784 3103 
Q 1356 3103 1142 2972 
Q 928 2841 928 2578 
Q 928 2378 1081 2264 
Q 1234 2150 1697 2047 
L 1894 2003 
Q 2506 1872 2764 1633 
Q 3022 1394 3022 966 
Q 3022 478 2636 193 
Q 2250 -91 1575 -91 
Q 1294 -91 989 -36 
Q 684 19 347 128 
L 347 722 
Q 666 556 975 473 
Q 1284 391 1588 391 
Q 1994 391 2212 530 
Q 2431 669 2431 922 
Q 2431 1156 2273 1281 
Q 2116 1406 1581 1522 
L 1381 1569 
Q 847 1681 609 1914 
Q 372 2147 372 2553 
Q 372 3047 722 3315 
Q 1072 3584 1716 3584 
Q 2034 3584 2315 3537 
Q 2597 3491 2834 3397 
z
" transform="scale(0.015625)"/>
       <path id="DejaVuSans-74" d="M 1172 4494 
L 1172 3500 
L 2356 3500 
L 2356 3053 
L 1172 3053 
L 1172 1153 
Q 1172 725 1289 603 
Q 1406 481 1766 481 
L 2356 481 
L 2356 0 
L 1766 0 
Q 1100 0 847 248 
Q 594 497 594 1153 
L 594 3053 
L 172 3053 
L 172 3500 
L 594 3500 
L 594 4494 
L 1172 4494 
z
" transform="scale(0.015625)"/>
       <path id="DejaVuSans-64" d="M 2906 2969 
L 2906 4863 
L 3481 4863 
L 3481 0 
L 2906 0 
L 2906 525 
Q 2725 213 2448 61 
Q 2172 -91 1784 -91 
Q 1150 -91 751 415 
Q 353 922 353 1747 
Q 353 2572 751 3078 
Q 1150 3584 1784 3584 
Q 2172 3584 2448 3432 
Q 2725 3281 2906 2969 
z
M 947 1747 
Q 947 1113 1208 752 
Q 1469 391 1925 391 
Q 2381 391 2643 752 
Q 2906 1113 2906 1747 
Q 2906 2381 2643 2742 
Q 2381 3103 1925 3103 
Q 1469 3103 1208 2742 
Q 947 2381 947 1747 
z
" transform="scale(0.015625)"/>
       <path id="DejaVuSans-77" d="M 269 3500 
L 844 3500 
L 1563 769 
L 2278 3500 
L 2956 3500 
L 3675 769 
L 4391 3500 
L 4966 3500 
L 4050 0 
L 3372 0 
L 2619 2869 
L 1863 0 
L 1184 0 
L 269 3500 
z
" transform="scale(0.015625)"/>
       <path id="DejaVuSans-66" d="M 2375 4863 
L 2375 4384 
L 1825 4384 
Q 1516 4384 1395 4259 
Q 1275 4134 1275 3809 
L 1275 3500 
L 2222 3500 
L 2222 3053 
L 1275 3053 
L 1275 0 
L 697 0 
L 697 3053 
L 147 3053 
L 147 3500 
L 697 3500 
L 697 3744 
Q 697 4328 969 4595 
Q 1241 4863 1831 4863 
L 2375 4863 
z
" transform="scale(0.015625)"/>
       <path id="DejaVuSans-67" d="M 2906 1791 
Q 2906 2416 2648 2759 
Q 2391 3103 1925 3103 
Q 1463 3103 1205 2759 
Q 947 2416 947 1791 
Q 947 1169 1205 825 
Q 1463 481 1925 481 
Q 2391 481 2648 825 
Q 2906 1169 2906 1791 
z
M 3481 434 
Q 3481 -459 3084 -895 
Q 2688 -1331 1869 -1331 
Q 1566 -1331 1297 -1286 
Q 1028 -1241 775 -1147 
L 775 -588 
Q 1028 -725 1275 -790 
Q 1522 -856 1778 -856 
Q 2344 -856 2625 -561 
Q 2906 -266 2906 331 
L 2906 616 
Q 2728 306 2450 153 
Q 2172 0 1784 0 
Q 1141 0 747 490 
Q 353 981 353 1791 
Q 353 2603 747 3093 
Q 1141 3584 1784 3584 
Q 2172 3584 2450 3431 
Q 2728 3278 2906 2969 
L 2906 3500 
L 3481 3500 
L 3481 434 
z
" transform="scale(0.015625)"/>
       <path id="DejaVuSans-2f" d="M 1625 4666 
L 2156 4666 
L 531 -594 
L 0 -594 
L 1625 4666 
z
" transform="scale(0.015625)"/>
      </defs>
      <use xlink:href="#DejaVuSans-4c"/>
      <use xlink:href="#DejaVuSans-75" transform="translate(53.962891 0)"/>
      <use xlink:href="#DejaVuSans-6d" transform="translate(117.341797 0)"/>
      <use xlink:href="#DejaVuSans-69" transform="translate(214.753906 0)"/>
      <use xlink:href="#DejaVuSans-6e" transform="translate(242.537109 0)"/>
      <use xlink:href="#DejaVuSans-6f" transform="translate(305.916016 0)"/>
      <use xlink:href="#DejaVuSans-73" transform="translate(367.097656 0)"/>
      <use xlink:href="#DejaVuSans-69" transform="translate(419.197266 0)"/>
      <use xlink:href="#DejaVuSans-74" transform="translate(446.980469 0)"/>
      <use xlink:href="#DejaVuSans-79" transform="translate(486.189453 0)"/>
      <use xlink:href="#DejaVuSans-20" transform="translate(545.369141 0)"/>
      <use xlink:href="#DejaVuSans-64" transform="translate(577.15625 0)"/>
      <use xlink:href="#DejaVuSans-65" transform="translate(640.632812 0)"/>
      <use xlink:href="#DejaVuSans-6e" transform="translate(702.15625 0)"/>
      <use xlink:href="#DejaVuSans-73" transform="translate(765.535156 0)"/>
      <use xlink:href="#DejaVuSans-69" transform="translate(817.634766 0)"/>
      <use xlink:href="#DejaVuSans-74" transform="translate(845.417969 0)"/>
      <use xlink:href="#DejaVuSans-79" transform="translate(884.626953 0)"/>
      <use xlink:href="#DejaVuSans-20" transform="translate(943.806641 0)"/>
      <use xlink:href="#DejaVuSans-77" transform="translate(975.59375 0)"/>
      <use xlink:href="#DejaVuSans-2e" transform="translate(1048.255859 0)"/>
      <use xlink:href="#DejaVuSans-72" transform="translate(1080.042969 0)"/>
      <use xlink:href="#DejaVuSans-2e" transform="translate(1112.03125 0)"/>
      <use xlink:href="#DejaVuSans-74" transform="translate(1143.818359 0)"/>
      <use xlink:href="#DejaVuSans-2e" transform="translate(1183.027344 0)"/>
      <use xlink:href="#DejaVuSans-20" transform="translate(1214.814453 0)"/>
      <use xlink:href="#DejaVuSans-66" transform="translate(1246.601562 0)"/>
      <use xlink:href="#DejaVuSans-72" transform="translate(1281.806641 0)"/>
      <use xlink:href="#DejaVuSans-65" transform="translate(1320.669922 0)"/>
      <use xlink:href="#DejaVuSans-71" transform="translate(1382.193359 0)"/>
      <use xlink:href="#DejaVuSans-75" transform="translate(1445.669922 0)"/>
      <use xlink:href="#DejaVuSans-65" transform="translate(1509.048828 0)"/>
      <use xlink:href="#DejaVuSans-6e" transform="translate(1570.572266 0)"/>
      <use xlink:href="#DejaVuSans-63" transform="translate(1633.951172 0)"/>
      <use xlink:href="#DejaVuSans-79" transform="translate(1688.931641 0)"/>
      <use xlink:href="#DejaVuSans-20" transform="translate(1748.111328 0)"/>
      <use xlink:href="#DejaVuSans-28" transform="translate(1779.898438 0)"/>
      <use xlink:href="#DejaVuSans-65" transform="translate(1818.912109 0)"/>
      <use xlink:href="#DejaVuSans-72" transform="translate(1880.435547 0)"/>
      <use xlink:href="#DejaVuSans-67" transform="translate(1919.798828 0)"/>
      <use xlink:href="#DejaVuSans-2f" transform="translate(1983.275391 0)"/>
      <use xlink:href="#DejaVuSans-73" transform="translate(2016.966797 0)"/>
      <use xlink:href="#DejaVuSans-2f" transform="translate(2069.066406 0)"/>
      <use xlink:href="#DejaVuSans-48" transform="translate(2102.757812 0)"/>
      <use xlink:href="#DejaVuSans-7a" transform="translate(2177.953125 0)"/>
      <use xlink:href="#DejaVuSans-29" transform="translate(2230.443359 0)"/>
     </g>
    </g>
    <g id="text_21">
     <!-- 1e27 -->
     <g transform="translate(34.240625 14.798437) scale(0.1 -0.1)">
      <use xlink:href="#DejaVuSans-31"/>
      <use xlink:href="#DejaVuSans-65" transform="translate(63.623047 0)"/>
      <use xlink:href="#DejaVuSans-32" transform="translate(125.146484 0)"/>
      <use xlink:href="#DejaVuSans-37" transform="translate(188.769531 0)"/>
     </g>
    </g>
   </g>
   <g id="line2d_18">
    <path d="M 50.473352 283.828251 
L 52.104782 281.964529 
L 53.736212 277.890014 
L 55.367642 271.915242 
L 56.999072 264.330708 
L 58.630502 255.407075 
L 60.261932 245.395466 
L 63.524791 223.017289 
L 68.419081 186.489317 
L 73.313371 150.16118 
L 76.57623 127.612694 
L 79.83909 107.165248 
L 81.47052 97.872912 
L 83.10195 89.256384 
L 84.73338 81.344701 
L 86.36481 74.158151 
L 87.996239 67.709044 
L 89.627669 62.002471 
L 91.259099 57.037027 
L 92.890529 52.80552 
L 94.521959 49.295644 
L 96.153389 46.490617 
L 97.784819 44.369793 
L 99.416249 42.909234 
L 101.047678 42.082244 
L 102.679108 41.859875 
L 104.310538 42.211383 
L 105.941968 43.104662 
L 107.573398 44.506629 
L 109.204828 46.38358 
L 110.836258 48.701516 
L 112.467688 51.426421 
L 114.099117 54.524525 
L 115.730547 57.962524 
L 118.993407 65.728482 
L 122.256267 74.474004 
L 125.519127 83.966137 
L 130.413416 99.144709 
L 148.359145 156.215749 
L 153.253435 170.523383 
L 156.516294 179.539911 
L 159.779154 188.100271 
L 163.042014 196.184239 
L 166.304874 203.781255 
L 169.567733 210.888892 
L 172.830593 217.51146 
L 176.093453 223.658739 
L 179.356313 229.344846 
L 182.619172 234.587242 
L 185.882032 239.405867 
L 189.144892 243.822394 
L 192.407752 247.859598 
L 195.670611 251.540827 
L 198.933471 254.889565 
L 202.196331 257.929077 
L 205.459191 260.682128 
L 208.72205 263.170765 
L 211.98491 265.416146 
L 215.24777 267.43843 
L 218.51063 269.256688 
L 221.773489 270.888859 
L 226.667779 273.024609 
L 231.562069 274.830965 
L 236.456358 276.354059 
L 241.350648 277.634631 
L 246.244937 278.708404 
L 252.770657 279.871589 
L 259.296376 280.784416 
L 267.453526 281.65029 
L 275.610675 282.283216 
L 285.399255 282.819051 
L 298.450694 283.274799 
L 314.764992 283.590749 
L 337.605011 283.790584 
L 375.127898 283.887459 
L 375.127898 283.887459 
" clip-path="url(#p8d62bd8402)" style="fill: none; stroke: #ff7f0e; stroke-width: 1.5; stroke-linecap: square"/>
   </g>
   <g id="patch_203">
    <path d="M 34.240625 283.910437 
L 34.240625 17.798437 
" style="fill: none; stroke: #000000; stroke-width: 0.8; stroke-linejoin: miter; stroke-linecap: square"/>
   </g>
   <g id="patch_204">
    <path d="M 391.360625 283.910437 
L 391.360625 17.798437 
" style="fill: none; stroke: #000000; stroke-width: 0.8; stroke-linejoin: miter; stroke-linecap: square"/>
   </g>
   <g id="patch_205">
    <path d="M 34.240625 283.910437 
L 391.360625 283.910437 
" style="fill: none; stroke: #000000; stroke-width: 0.8; stroke-linejoin: miter; stroke-linecap: square"/>
   </g>
   <g id="patch_206">
    <path d="M 34.240625 17.798437 
L 391.360625 17.798437 
" style="fill: none; stroke: #000000; stroke-width: 0.8; stroke-linejoin: miter; stroke-linecap: square"/>
   </g>
  </g>
 </g>
 <defs>
  <clipPath id="p8d62bd8402">
   <rect x="34.240625" y="17.798438" width="357.12" height="266.112"/>
  </clipPath>
 </defs>
</svg>
