<?xml version="1.0" encoding="utf-8" standalone="no"?>
<!DOCTYPE svg PUBLIC "-//W3C//DTD SVG 1.1//EN"
  "http://www.w3.org/Graphics/SVG/1.1/DTD/svg11.dtd">
<svg xmlns:xlink="http://www.w3.org/1999/xlink" width="475.2pt" height="360pt" viewBox="0 0 475.2 360" xmlns="http://www.w3.org/2000/svg" version="1.1">
 <metadata>
  <rdf:RDF xmlns:dc="http://purl.org/dc/elements/1.1/" xmlns:cc="http://creativecommons.org/ns#" xmlns:rdf="http://www.w3.org/1999/02/22-rdf-syntax-ns#">
   <cc:Work>
    <dc:type rdf:resource="http://purl.org/dc/dcmitype/StillImage"/>
    <dc:date>2025-04-28T09:42:37.382159</dc:date>
    <dc:format>image/svg+xml</dc:format>
    <dc:creator>
     <cc:Agent>
      <dc:title>Matplotlib v3.10.1, https://matplotlib.org/</dc:title>
     </cc:Agent>
    </dc:creator>
   </cc:Work>
  </rdf:RDF>
 </metadata>
 <defs>
  <style type="text/css">*{stroke-linejoin: round; stroke-linecap: butt}</style>
 </defs>
 <g id="figure_1">
  <g id="patch_1">
   <path d="M 0 360 
L 475.2 360 
L 475.2 0 
L 0 0 
z
" style="fill: #ffffff"/>
  </g>
  <g id="axes_1">
   <g id="patch_2">
    <path d="M 143.651325 312.65669 
Q 259.400713 293.174968 374.047575 273.878811 
" clip-path="url(#p13b21791c0)" style="fill: none; stroke: #000000; stroke-linecap: round"/>
    <path d="M 369.771105 272.570451 
L 374.047575 273.878811 
L 370.435005 276.514971 
z
" clip-path="url(#p13b21791c0)" style="stroke: #000000; stroke-linecap: round"/>
   </g>
   <g id="patch_3">
    <path d="M 143.773442 314.344395 
Q 205.810882 316.140261 266.730757 317.903776 
" clip-path="url(#p13b21791c0)" style="fill: none; stroke: #000000; stroke-linecap: round"/>
    <path d="M 262.790304 315.78887 
L 266.730757 317.903776 
L 262.67456 319.787195 
z
" clip-path="url(#p13b21791c0)" style="stroke: #000000; stroke-linecap: round"/>
   </g>
   <g id="patch_4">
    <path d="M 55.786696 196.509275 
Q 202.791375 214.100626 348.685939 231.559134 
" clip-path="url(#p13b21791c0)" style="fill: none; stroke: #000000; stroke-linecap: round"/>
    <path d="M 344.95191 229.098032 
L 348.685939 231.559134 
L 344.47664 233.069696 
z
" clip-path="url(#p13b21791c0)" style="stroke: #000000; stroke-linecap: round"/>
   </g>
   <g id="patch_5">
    <path d="M 55.538224 193.190362 
Q 211.597565 150.401971 366.578665 107.909213 
" clip-path="url(#p13b21791c0)" style="fill: none; stroke: #000000; stroke-linecap: round"/>
    <path d="M 362.192193 107.038084 
L 366.578665 107.909213 
L 363.249879 110.895713 
z
" clip-path="url(#p13b21791c0)" style="stroke: #000000; stroke-linecap: round"/>
   </g>
   <g id="patch_6">
    <path d="M 223.294855 293.091169 
Q 237.012065 249.290901 250.395137 206.557569 
" clip-path="url(#p13b21791c0)" style="fill: none; stroke: #000000; stroke-linecap: round"/>
    <path d="M 247.291093 209.777027 
L 250.395137 206.557569 
L 251.108277 210.972479 
z
" clip-path="url(#p13b21791c0)" style="stroke: #000000; stroke-linecap: round"/>
   </g>
   <g id="patch_7">
    <path d="M 207.99443 173.910022 
Q 269.734065 170.696082 330.357177 167.540264 
" clip-path="url(#p13b21791c0)" style="fill: none; stroke: #000000; stroke-linecap: round"/>
    <path d="M 326.258614 165.750912 
L 330.357177 167.540264 
L 326.466558 169.745503 
z
" clip-path="url(#p13b21791c0)" style="stroke: #000000; stroke-linecap: round"/>
   </g>
   <g id="patch_8">
    <path d="M 207.865081 175.904113 
Q 275.906849 188.235583 342.848503 200.367676 
" clip-path="url(#p13b21791c0)" style="fill: none; stroke: #000000; stroke-linecap: round"/>
    <path d="M 339.269277 197.686419 
L 342.848503 200.367676 
L 338.555962 201.622302 
z
" clip-path="url(#p13b21791c0)" style="stroke: #000000; stroke-linecap: round"/>
   </g>
   <g id="patch_9">
    <path d="M 206.317607 169.218537 
Q 272.96465 120.063392 338.711916 71.571873 
" clip-path="url(#p13b21791c0)" style="fill: none; stroke: #000000; stroke-linecap: round"/>
    <path d="M 334.305642 72.336562 
L 338.711916 71.571873 
L 336.679903 75.555705 
z
" clip-path="url(#p13b21791c0)" style="stroke: #000000; stroke-linecap: round"/>
   </g>
   <g id="patch_10">
    <path d="M 200.209327 165.741034 
Q 206.213931 105.775044 212.10714 46.921524 
" clip-path="url(#p13b21791c0)" style="fill: none; stroke: #000000; stroke-linecap: round"/>
    <path d="M 209.718551 50.70235 
L 212.10714 46.921524 
L 213.698647 51.100891 
z
" clip-path="url(#p13b21791c0)" style="stroke: #000000; stroke-linecap: round"/>
   </g>
   <g id="patch_11">
    <path d="M 207.822669 172.594859 
Q 287.549103 155.990488 366.18099 139.614074 
" clip-path="url(#p13b21791c0)" style="fill: none; stroke: #000000; stroke-linecap: round"/>
    <path d="M 361.857233 138.471655 
L 366.18099 139.614074 
L 362.6728 142.387628 
z
" clip-path="url(#p13b21791c0)" style="stroke: #000000; stroke-linecap: round"/>
   </g>
   <g id="patch_12">
    <path d="M 232.565586 61.939054 
Q 225.502873 52.967854 219.131747 44.875122 
" clip-path="url(#p13b21791c0)" style="fill: none; stroke: #000000; stroke-linecap: round"/>
    <path d="M 220.034594 49.255176 
L 219.131747 44.875122 
L 223.177498 46.780877 
z
" clip-path="url(#p13b21791c0)" style="stroke: #000000; stroke-linecap: round"/>
   </g>
   <g id="patch_13">
    <path d="M 61.577141 177.938423 
Q 127.050047 247.227433 191.755078 315.703812 
" clip-path="url(#p13b21791c0)" style="fill: none; stroke: #000000; stroke-linecap: round"/>
    <path d="M 190.461523 311.422841 
L 191.755078 315.703812 
L 187.554168 314.170073 
z
" clip-path="url(#p13b21791c0)" style="stroke: #000000; stroke-linecap: round"/>
   </g>
   <g id="patch_14">
    <path d="M 381.682787 263.832261 
Q 362.040711 181.305522 342.657506 99.866435 
" clip-path="url(#p13b21791c0)" style="fill: none; stroke: #000000; stroke-linecap: round"/>
    <path d="M 341.638019 104.220817 
L 342.657506 99.866435 
L 345.529319 103.294654 
z
" clip-path="url(#p13b21791c0)" style="stroke: #000000; stroke-linecap: round"/>
   </g>
   <g id="patch_15">
    <path d="M 375.330696 274.537266 
Q 291.076466 297.533731 207.900816 320.235806 
" clip-path="url(#p13b21791c0)" style="fill: none; stroke: #000000; stroke-linecap: round"/>
    <path d="M 212.286281 321.11199 
L 207.900816 320.235806 
L 211.233043 317.253145 
z
" clip-path="url(#p13b21791c0)" style="stroke: #000000; stroke-linecap: round"/>
   </g>
   <g id="patch_16">
    <path d="M 332.029728 92.591185 
Q 239.304357 117.404305 147.659019 141.92841 
" clip-path="url(#p13b21791c0)" style="fill: none; stroke: #000000; stroke-linecap: round"/>
    <path d="M 152.040066 142.826421 
L 147.659019 141.92841 
L 151.006056 138.962379 
z
" clip-path="url(#p13b21791c0)" style="stroke: #000000; stroke-linecap: round"/>
   </g>
   <g id="patch_17">
    <path d="M 333.676205 95.814671 
Q 238.446592 173.244659 144.084451 249.969316 
" clip-path="url(#p13b21791c0)" style="fill: none; stroke: #000000; stroke-linecap: round"/>
    <path d="M 148.449749 248.99763 
L 144.084451 249.969316 
L 145.926281 245.894066 
z
" clip-path="url(#p13b21791c0)" style="stroke: #000000; stroke-linecap: round"/>
   </g>
   <g id="patch_18">
    <path d="M 345.656342 97.225843 
Q 378.564396 140.19832 410.792692 182.283143 
" clip-path="url(#p13b21791c0)" style="fill: none; stroke: #000000; stroke-linecap: round"/>
    <path d="M 409.948594 177.89139 
L 410.792692 182.283143 
L 406.77283 180.32337 
z
" clip-path="url(#p13b21791c0)" style="stroke: #000000; stroke-linecap: round"/>
   </g>
   <g id="patch_19">
    <path d="M 331.732765 164.891239 
Q 225.619057 137.817231 120.588679 111.019625 
" clip-path="url(#p13b21791c0)" style="fill: none; stroke: #000000; stroke-linecap: round"/>
    <path d="M 123.970071 113.94643 
L 120.588679 111.019625 
L 124.958958 110.070594 
z
" clip-path="url(#p13b21791c0)" style="stroke: #000000; stroke-linecap: round"/>
   </g>
   <g id="patch_20">
    <path d="M 332.379097 163.154207 
Q 241.657401 117.725259 151.935404 72.796912 
" clip-path="url(#p13b21791c0)" style="fill: none; stroke: #000000; stroke-linecap: round"/>
    <path d="M 154.616538 76.376231 
L 151.935404 72.796912 
L 156.40754 72.799597 
z
" clip-path="url(#p13b21791c0)" style="stroke: #000000; stroke-linecap: round"/>
   </g>
   <g id="patch_21">
    <path d="M 339.312483 175.651331 
Q 333.833482 233.928251 328.459133 291.092047 
" clip-path="url(#p13b21791c0)" style="fill: none; stroke: #000000; stroke-linecap: round"/>
    <path d="M 330.824767 287.296817 
L 328.459133 291.092047 
L 326.842329 286.922401 
z
" clip-path="url(#p13b21791c0)" style="stroke: #000000; stroke-linecap: round"/>
   </g>
   <g id="patch_22">
    <path d="M 332.190529 170.503061 
Q 238.31148 211.584263 145.456689 252.217253 
" clip-path="url(#p13b21791c0)" style="fill: none; stroke: #000000; stroke-linecap: round"/>
    <path d="M 149.922975 252.445928 
L 145.456689 252.217253 
L 148.319401 248.781429 
z
" clip-path="url(#p13b21791c0)" style="stroke: #000000; stroke-linecap: round"/>
   </g>
   <g id="patch_23">
    <path d="M 331.522637 165.984558 
Q 205.475819 150.634492 80.538836 135.419583 
" clip-path="url(#p13b21791c0)" style="fill: none; stroke: #000000; stroke-linecap: round"/>
    <path d="M 84.267726 137.888465 
L 80.538836 135.419583 
L 84.751276 133.917801 
z
" clip-path="url(#p13b21791c0)" style="stroke: #000000; stroke-linecap: round"/>
   </g>
   <g id="patch_24">
    <path d="M 344.39369 198.982374 
Q 231.791658 155.356756 120.232152 112.135045 
" clip-path="url(#p13b21791c0)" style="fill: none; stroke: #000000; stroke-linecap: round"/>
    <path d="M 123.239472 115.445035 
L 120.232152 112.135045 
L 124.684535 111.715183 
z
" clip-path="url(#p13b21791c0)" style="stroke: #000000; stroke-linecap: round"/>
   </g>
   <g id="patch_25">
    <path d="M 345.173296 197.450032 
Q 247.829435 135.264114 151.427764 73.680092 
" clip-path="url(#p13b21791c0)" style="fill: none; stroke: #000000; stroke-linecap: round"/>
    <path d="M 153.721938 77.518941 
L 151.427764 73.680092 
L 155.875348 74.148062 
z
" clip-path="url(#p13b21791c0)" style="stroke: #000000; stroke-linecap: round"/>
   </g>
   <g id="patch_26">
    <path d="M 343.819078 201.685173 
Q 302.892072 199.66857 263.081745 197.70699 
" clip-path="url(#p13b21791c0)" style="fill: none; stroke: #000000; stroke-linecap: round"/>
    <path d="M 266.978472 199.90142 
L 263.081745 197.70699 
L 267.175325 195.906267 
z
" clip-path="url(#p13b21791c0)" style="stroke: #000000; stroke-linecap: round"/>
   </g>
   <g id="patch_27">
    <path d="M 350.350072 210.507445 
Q 340.007317 251.467969 329.93828 291.344482 
" clip-path="url(#p13b21791c0)" style="fill: none; stroke: #000000; stroke-linecap: round"/>
    <path d="M 332.856701 287.955852 
L 329.93828 291.344482 
L 328.978428 286.976567 
z
" clip-path="url(#p13b21791c0)" style="stroke: #000000; stroke-linecap: round"/>
   </g>
   <g id="patch_28">
    <path d="M 396.501727 286.245266 
Q 405.728017 242.383232 414.724167 199.61529 
" clip-path="url(#p13b21791c0)" style="fill: none; stroke: #000000; stroke-linecap: round"/>
    <path d="M 411.943624 203.117943 
L 414.724167 199.61529 
L 415.857964 203.941316 
z
" clip-path="url(#p13b21791c0)" style="stroke: #000000; stroke-linecap: round"/>
   </g>
   <g id="patch_29">
    <path d="M 386.957493 290.874247 
Q 232.774667 214.478147 79.593643 138.578429 
" clip-path="url(#p13b21791c0)" style="fill: none; stroke: #000000; stroke-linecap: round"/>
    <path d="M 82.289837 142.146417 
L 79.593643 138.578429 
L 84.065749 138.562266 
z
" clip-path="url(#p13b21791c0)" style="stroke: #000000; stroke-linecap: round"/>
   </g>
   <g id="patch_30">
    <path d="M 393.867337 286.099316 
Q 385.362758 200.021813 376.968107 115.056926 
" clip-path="url(#p13b21791c0)" style="fill: none; stroke: #000000; stroke-linecap: round"/>
    <path d="M 375.371089 119.23419 
L 376.968107 115.056926 
L 379.351707 118.840899 
z
" clip-path="url(#p13b21791c0)" style="stroke: #000000; stroke-linecap: round"/>
   </g>
   <g id="patch_31">
    <path d="M 146.759102 145.855219 
Q 277.474096 167.250831 407.08574 188.465846 
" clip-path="url(#p13b21791c0)" style="fill: none; stroke: #000000; stroke-linecap: round"/>
    <path d="M 403.461333 185.845984 
L 407.08574 188.465846 
L 402.815206 189.793454 
z
" clip-path="url(#p13b21791c0)" style="stroke: #000000; stroke-linecap: round"/>
   </g>
   <g id="patch_32">
    <path d="M 350.840909 73.31057 
Q 381.660384 127.90721 411.930257 181.530229 
" clip-path="url(#p13b21791c0)" style="fill: none; stroke: #000000; stroke-linecap: round"/>
    <path d="M 411.705603 177.063739 
L 411.930257 181.530229 
L 408.222273 179.030058 
z
" clip-path="url(#p13b21791c0)" style="stroke: #000000; stroke-linecap: round"/>
   </g>
   <g id="patch_33">
    <path d="M 117.589088 114.353822 
Q 219.32919 204.715203 320.23336 294.334143 
" clip-path="url(#p13b21791c0)" style="fill: none; stroke: #000000; stroke-linecap: round"/>
    <path d="M 318.570757 290.182547 
L 320.23336 294.334143 
L 315.914521 293.173268 
z
" clip-path="url(#p13b21791c0)" style="stroke: #000000; stroke-linecap: round"/>
   </g>
   <g id="patch_34">
    <path d="M 148.571736 75.201908 
Q 235.366508 184.621631 321.466473 293.16543 
" clip-path="url(#p13b21791c0)" style="fill: none; stroke: #000000; stroke-linecap: round"/>
    <path d="M 320.547555 288.78872 
L 321.466473 293.16543 
L 317.413754 291.274538 
z
" clip-path="url(#p13b21791c0)" style="stroke: #000000; stroke-linecap: round"/>
   </g>
   <g id="patch_35">
    <path d="M 261.765026 199.144292 
Q 340.666711 217.062888 418.478123 234.733883 
" clip-path="url(#p13b21791c0)" style="fill: none; stroke: #000000; stroke-linecap: round"/>
    <path d="M 415.020369 231.8977 
L 418.478123 234.733883 
L 414.134524 235.798377 
z
" clip-path="url(#p13b21791c0)" style="stroke: #000000; stroke-linecap: round"/>
   </g>
   <g id="patch_36">
    <path d="M 251.206217 188.828005 
Q 233.199751 117.208611 215.465895 46.673506 
" clip-path="url(#p13b21791c0)" style="fill: none; stroke: #000000; stroke-linecap: round"/>
    <path d="M 214.501581 51.040439 
L 215.465895 46.673506 
L 218.380852 50.065117 
z
" clip-path="url(#p13b21791c0)" style="stroke: #000000; stroke-linecap: round"/>
   </g>
   <g id="patch_37">
    <path d="M 322.499266 293.786037 
Q 290.43033 249.02589 259.012547 205.174588 
" clip-path="url(#p13b21791c0)" style="fill: none; stroke: #000000; stroke-linecap: round"/>
    <path d="M 259.716391 209.590989 
L 259.012547 205.174588 
L 262.967975 207.261354 
z
" clip-path="url(#p13b21791c0)" style="stroke: #000000; stroke-linecap: round"/>
   </g>
   <g id="patch_38">
    <path d="M 324.094432 292.882055 
Q 270.313267 169.009797 216.977359 46.163086 
" clip-path="url(#p13b21791c0)" style="fill: none; stroke: #000000; stroke-linecap: round"/>
    <path d="M 216.735808 50.628694 
L 216.977359 46.163086 
L 220.404915 49.035691 
z
" clip-path="url(#p13b21791c0)" style="stroke: #000000; stroke-linecap: round"/>
   </g>
   <g id="patch_39">
    <path d="M 356.077177 224.377888 
Q 349.260267 199.875288 342.743027 176.449813 
" clip-path="url(#p13b21791c0)" style="fill: none; stroke: #000000; stroke-linecap: round"/>
    <path d="M 341.888334 180.839517 
L 342.743027 176.449813 
L 345.741974 179.767389 
z
" clip-path="url(#p13b21791c0)" style="stroke: #000000; stroke-linecap: round"/>
   </g>
   <g id="patch_40">
    <path d="M 356.75208 224.220696 
Q 355.434611 217.418158 354.329725 211.713258 
" clip-path="url(#p13b21791c0)" style="fill: none; stroke: #000000; stroke-linecap: round"/>
    <path d="M 353.126771 216.020566 
L 354.329725 211.713258 
L 357.053799 215.260006 
z
" clip-path="url(#p13b21791c0)" style="stroke: #000000; stroke-linecap: round"/>
   </g>
   <g id="patch_41">
    <path d="M 357.787051 224.082732 
Q 352.490668 149.246528 347.273213 75.525567 
" clip-path="url(#p13b21791c0)" style="fill: none; stroke: #000000; stroke-linecap: round"/>
    <path d="M 345.560589 79.65678 
L 347.273213 75.525567 
L 349.550609 79.374394 
z
" clip-path="url(#p13b21791c0)" style="stroke: #000000; stroke-linecap: round"/>
   </g>
   <g id="patch_42">
    <path d="M 359.953015 224.203256 
Q 367.076239 185.172445 373.998735 147.2415 
" clip-path="url(#p13b21791c0)" style="fill: none; stroke: #000000; stroke-linecap: round"/>
    <path d="M 371.313084 150.817431 
L 373.998735 147.2415 
L 375.248089 151.53558 
z
" clip-path="url(#p13b21791c0)" style="stroke: #000000; stroke-linecap: round"/>
   </g>
   <g id="patch_43">
    <path d="M 142.064838 249.504286 
Q 213.817648 164.00043 284.851761 79.353005 
" clip-path="url(#p13b21791c0)" style="fill: none; stroke: #000000; stroke-linecap: round"/>
    <path d="M 280.748441 81.131423 
L 284.851761 79.353005 
L 283.812503 83.702711 
z
" clip-path="url(#p13b21791c0)" style="stroke: #000000; stroke-linecap: round"/>
   </g>
   <g id="patch_44">
    <path d="M 412.984515 182.240007 
Q 396.371609 147.684501 380.243132 114.13663 
" clip-path="url(#p13b21791c0)" style="fill: none; stroke: #000000; stroke-linecap: round"/>
    <path d="M 380.173772 118.608228 
L 380.243132 114.13663 
L 383.778794 116.875077 
z
" clip-path="url(#p13b21791c0)" style="stroke: #000000; stroke-linecap: round"/>
   </g>
   <g id="patch_45">
    <path d="M 294.786011 79.71558 
Q 342.928052 183.292441 390.598851 285.855434 
" clip-path="url(#p13b21791c0)" style="fill: none; stroke: #000000; stroke-linecap: round"/>
    <path d="M 390.72655 281.385121 
L 390.598851 285.855434 
L 387.09922 283.071087 
z
" clip-path="url(#p13b21791c0)" style="stroke: #000000; stroke-linecap: round"/>
   </g>
   <g id="patch_46">
    <path d="M 282.803213 74.223172 
Q 180.985621 103.050443 80.243778 131.57314 
" clip-path="url(#p13b21791c0)" style="fill: none; stroke: #000000; stroke-linecap: round"/>
    <path d="M 84.637331 132.407824 
L 80.243778 131.57314 
L 83.547657 128.559109 
z
" clip-path="url(#p13b21791c0)" style="stroke: #000000; stroke-linecap: round"/>
   </g>
   <g id="patch_47">
    <path d="M 421.667204 231.002741 
Q 320.546018 137.043408 220.243873 43.845107 
" clip-path="url(#p13b21791c0)" style="fill: none; stroke: #000000; stroke-linecap: round"/>
    <path d="M 221.812787 48.033008 
L 220.243873 43.845107 
L 224.535541 45.102717 
z
" clip-path="url(#p13b21791c0)" style="stroke: #000000; stroke-linecap: round"/>
   </g>
   <g id="patch_48">
    <path d="M 79.016586 137.06234 
Q 162.075265 165.731732 244.077096 194.036331 
" clip-path="url(#p13b21791c0)" style="fill: none; stroke: #000000; stroke-linecap: round"/>
    <path d="M 240.948564 190.840664 
L 244.077096 194.036331 
L 239.643443 194.621757 
z
" clip-path="url(#p13b21791c0)" style="stroke: #000000; stroke-linecap: round"/>
   </g>
   <g id="patch_49">
    <path d="M 78.099173 138.952918 
Q 199.188486 217.532364 319.339935 295.503196 
" clip-path="url(#p13b21791c0)" style="fill: none; stroke: #000000; stroke-linecap: round"/>
    <path d="M 317.073257 291.648047 
L 319.339935 295.503196 
L 314.89581 295.003449 
z
" clip-path="url(#p13b21791c0)" style="stroke: #000000; stroke-linecap: round"/>
   </g>
   <g id="patch_50">
    <path d="M 367.387181 106.140912 
Q 223.420187 119.780896 80.566242 133.315425 
" clip-path="url(#p13b21791c0)" style="fill: none; stroke: #000000; stroke-linecap: round"/>
    <path d="M 84.737052 134.929223 
L 80.566242 133.315425 
L 84.359767 130.947056 
z
" clip-path="url(#p13b21791c0)" style="stroke: #000000; stroke-linecap: round"/>
   </g>
   <g id="PathCollection_1">
    <defs>
     <path id="m1dbf760e3e" d="M 0 8.660254 
C 2.296726 8.660254 4.499694 7.747755 6.123724 6.123724 
C 7.747755 4.499694 8.660254 2.296726 8.660254 0 
C 8.660254 -2.296726 7.747755 -4.499694 6.123724 -6.123724 
C 4.499694 -7.747755 2.296726 -8.660254 0 -8.660254 
C -2.296726 -8.660254 -4.499694 -7.747755 -6.123724 -6.123724 
C -7.747755 -4.499694 -8.660254 -2.296726 -8.660254 0 
C -8.660254 2.296726 -7.747755 4.499694 -6.123724 6.123724 
C -4.499694 7.747755 -2.296726 8.660254 0 8.660254 
z
" style="stroke: #1f78b4"/>
    </defs>
    <g clip-path="url(#p13b21791c0)">
     <use xlink:href="#m1dbf760e3e" x="135.113408" y="314.093703" style="fill: #1f78b4; stroke: #1f78b4"/>
     <use xlink:href="#m1dbf760e3e" x="47.186777" y="195.480164" style="fill: #1f78b4; stroke: #1f78b4"/>
     <use xlink:href="#m1dbf760e3e" x="220.706293" y="301.356678" style="fill: #1f78b4; stroke: #1f78b4"/>
     <use xlink:href="#m1dbf760e3e" x="199.346259" y="174.360214" style="fill: #1f78b4; stroke: #1f78b4"/>
     <use xlink:href="#m1dbf760e3e" x="237.924066" y="68.745503" style="fill: #1f78b4; stroke: #1f78b4"/>
     <use xlink:href="#m1dbf760e3e" x="55.629077" y="171.643674" style="fill: #1f78b4; stroke: #1f78b4"/>
     <use xlink:href="#m1dbf760e3e" x="51.605745" y="272.654791" style="fill: #1f78b4; stroke: #1f78b4"/>
     <use xlink:href="#m1dbf760e3e" x="429.028439" y="135.624196" style="fill: #1f78b4; stroke: #1f78b4"/>
     <use xlink:href="#m1dbf760e3e" x="58.196889" y="239.778557" style="fill: #1f78b4; stroke: #1f78b4"/>
     <use xlink:href="#m1dbf760e3e" x="197.063018" y="96.830902" style="fill: #1f78b4; stroke: #1f78b4"/>
     <use xlink:href="#m1dbf760e3e" x="383.687775" y="272.256274" style="fill: #1f78b4; stroke: #1f78b4"/>
     <use xlink:href="#m1dbf760e3e" x="276.504521" y="318.186708" style="fill: #1f78b4; stroke: #1f78b4"/>
     <use xlink:href="#m1dbf760e3e" x="340.393255" y="90.353122" style="fill: #1f78b4; stroke: #1f78b4"/>
     <use xlink:href="#m1dbf760e3e" x="340.122853" y="167.031898" style="fill: #1f78b4; stroke: #1f78b4"/>
     <use xlink:href="#m1dbf760e3e" x="352.47011" y="202.111436" style="fill: #1f78b4; stroke: #1f78b4"/>
     <use xlink:href="#m1dbf760e3e" x="394.719077" y="294.720036" style="fill: #1f78b4; stroke: #1f78b4"/>
     <use xlink:href="#m1dbf760e3e" x="138.212454" y="144.456291" style="fill: #1f78b4; stroke: #1f78b4"/>
     <use xlink:href="#m1dbf760e3e" x="346.582564" y="65.766921" style="fill: #1f78b4; stroke: #1f78b4"/>
     <use xlink:href="#m1dbf760e3e" x="111.112936" y="108.60197" style="fill: #1f78b4; stroke: #1f78b4"/>
     <use xlink:href="#m1dbf760e3e" x="143.190448" y="68.417869" style="fill: #1f78b4; stroke: #1f78b4"/>
     <use xlink:href="#m1dbf760e3e" x="253.317601" y="197.22588" style="fill: #1f78b4; stroke: #1f78b4"/>
     <use xlink:href="#m1dbf760e3e" x="327.543881" y="300.827047" style="fill: #1f78b4; stroke: #1f78b4"/>
     <use xlink:href="#m1dbf760e3e" x="358.398435" y="232.721383" style="fill: #1f78b4; stroke: #1f78b4"/>
     <use xlink:href="#m1dbf760e3e" x="198.469813" y="322.809917" style="fill: #1f78b4; stroke: #1f78b4"/>
     <use xlink:href="#m1dbf760e3e" x="136.498569" y="256.1373" style="fill: #1f78b4; stroke: #1f78b4"/>
     <use xlink:href="#m1dbf760e3e" x="416.737132" y="190.045599" style="fill: #1f78b4; stroke: #1f78b4"/>
     <use xlink:href="#m1dbf760e3e" x="291.136535" y="71.863787" style="fill: #1f78b4; stroke: #1f78b4"/>
     <use xlink:href="#m1dbf760e3e" x="428.013223" y="236.899307" style="fill: #1f78b4; stroke: #1f78b4"/>
     <use xlink:href="#m1dbf760e3e" x="213.081583" y="37.190083" style="fill: #1f78b4; stroke: #1f78b4"/>
     <use xlink:href="#m1dbf760e3e" x="375.754647" y="137.620199" style="fill: #1f78b4; stroke: #1f78b4"/>
     <use xlink:href="#m1dbf760e3e" x="70.832956" y="134.237594" style="fill: #1f78b4; stroke: #1f78b4"/>
     <use xlink:href="#m1dbf760e3e" x="376.006508" y="105.324284" style="fill: #1f78b4; stroke: #1f78b4"/>
    </g>
   </g>
   <g id="text_1">
    <g clip-path="url(#p13b21791c0)">
     <!-- DilutePlanckianRadField -->
     <g transform="translate(63.258721 317.404953) scale(0.12 -0.12)">
      <defs>
       <path id="DejaVuSans-44" d="M 1259 4147 
L 1259 519 
L 2022 519 
Q 2988 519 3436 956 
Q 3884 1394 3884 2338 
Q 3884 3275 3436 3711 
Q 2988 4147 2022 4147 
L 1259 4147 
z
M 628 4666 
L 1925 4666 
Q 3281 4666 3915 4102 
Q 4550 3538 4550 2338 
Q 4550 1131 3912 565 
Q 3275 0 1925 0 
L 628 0 
L 628 4666 
z
" transform="scale(0.015625)"/>
       <path id="DejaVuSans-69" d="M 603 3500 
L 1178 3500 
L 1178 0 
L 603 0 
L 603 3500 
z
M 603 4863 
L 1178 4863 
L 1178 4134 
L 603 4134 
L 603 4863 
z
" transform="scale(0.015625)"/>
       <path id="DejaVuSans-6c" d="M 603 4863 
L 1178 4863 
L 1178 0 
L 603 0 
L 603 4863 
z
" transform="scale(0.015625)"/>
       <path id="DejaVuSans-75" d="M 544 1381 
L 544 3500 
L 1119 3500 
L 1119 1403 
Q 1119 906 1312 657 
Q 1506 409 1894 409 
Q 2359 409 2629 706 
Q 2900 1003 2900 1516 
L 2900 3500 
L 3475 3500 
L 3475 0 
L 2900 0 
L 2900 538 
Q 2691 219 2414 64 
Q 2138 -91 1772 -91 
Q 1169 -91 856 284 
Q 544 659 544 1381 
z
M 1991 3584 
L 1991 3584 
z
" transform="scale(0.015625)"/>
       <path id="DejaVuSans-74" d="M 1172 4494 
L 1172 3500 
L 2356 3500 
L 2356 3053 
L 1172 3053 
L 1172 1153 
Q 1172 725 1289 603 
Q 1406 481 1766 481 
L 2356 481 
L 2356 0 
L 1766 0 
Q 1100 0 847 248 
Q 594 497 594 1153 
L 594 3053 
L 172 3053 
L 172 3500 
L 594 3500 
L 594 4494 
L 1172 4494 
z
" transform="scale(0.015625)"/>
       <path id="DejaVuSans-65" d="M 3597 1894 
L 3597 1613 
L 953 1613 
Q 991 1019 1311 708 
Q 1631 397 2203 397 
Q 2534 397 2845 478 
Q 3156 559 3463 722 
L 3463 178 
Q 3153 47 2828 -22 
Q 2503 -91 2169 -91 
Q 1331 -91 842 396 
Q 353 884 353 1716 
Q 353 2575 817 3079 
Q 1281 3584 2069 3584 
Q 2775 3584 3186 3129 
Q 3597 2675 3597 1894 
z
M 3022 2063 
Q 3016 2534 2758 2815 
Q 2500 3097 2075 3097 
Q 1594 3097 1305 2825 
Q 1016 2553 972 2059 
L 3022 2063 
z
" transform="scale(0.015625)"/>
       <path id="DejaVuSans-50" d="M 1259 4147 
L 1259 2394 
L 2053 2394 
Q 2494 2394 2734 2622 
Q 2975 2850 2975 3272 
Q 2975 3691 2734 3919 
Q 2494 4147 2053 4147 
L 1259 4147 
z
M 628 4666 
L 2053 4666 
Q 2838 4666 3239 4311 
Q 3641 3956 3641 3272 
Q 3641 2581 3239 2228 
Q 2838 1875 2053 1875 
L 1259 1875 
L 1259 0 
L 628 0 
L 628 4666 
z
" transform="scale(0.015625)"/>
       <path id="DejaVuSans-61" d="M 2194 1759 
Q 1497 1759 1228 1600 
Q 959 1441 959 1056 
Q 959 750 1161 570 
Q 1363 391 1709 391 
Q 2188 391 2477 730 
Q 2766 1069 2766 1631 
L 2766 1759 
L 2194 1759 
z
M 3341 1997 
L 3341 0 
L 2766 0 
L 2766 531 
Q 2569 213 2275 61 
Q 1981 -91 1556 -91 
Q 1019 -91 701 211 
Q 384 513 384 1019 
Q 384 1609 779 1909 
Q 1175 2209 1959 2209 
L 2766 2209 
L 2766 2266 
Q 2766 2663 2505 2880 
Q 2244 3097 1772 3097 
Q 1472 3097 1187 3025 
Q 903 2953 641 2809 
L 641 3341 
Q 956 3463 1253 3523 
Q 1550 3584 1831 3584 
Q 2591 3584 2966 3190 
Q 3341 2797 3341 1997 
z
" transform="scale(0.015625)"/>
       <path id="DejaVuSans-6e" d="M 3513 2113 
L 3513 0 
L 2938 0 
L 2938 2094 
Q 2938 2591 2744 2837 
Q 2550 3084 2163 3084 
Q 1697 3084 1428 2787 
Q 1159 2491 1159 1978 
L 1159 0 
L 581 0 
L 581 3500 
L 1159 3500 
L 1159 2956 
Q 1366 3272 1645 3428 
Q 1925 3584 2291 3584 
Q 2894 3584 3203 3211 
Q 3513 2838 3513 2113 
z
" transform="scale(0.015625)"/>
       <path id="DejaVuSans-63" d="M 3122 3366 
L 3122 2828 
Q 2878 2963 2633 3030 
Q 2388 3097 2138 3097 
Q 1578 3097 1268 2742 
Q 959 2388 959 1747 
Q 959 1106 1268 751 
Q 1578 397 2138 397 
Q 2388 397 2633 464 
Q 2878 531 3122 666 
L 3122 134 
Q 2881 22 2623 -34 
Q 2366 -91 2075 -91 
Q 1284 -91 818 406 
Q 353 903 353 1747 
Q 353 2603 823 3093 
Q 1294 3584 2113 3584 
Q 2378 3584 2631 3529 
Q 2884 3475 3122 3366 
z
" transform="scale(0.015625)"/>
       <path id="DejaVuSans-6b" d="M 581 4863 
L 1159 4863 
L 1159 1991 
L 2875 3500 
L 3609 3500 
L 1753 1863 
L 3688 0 
L 2938 0 
L 1159 1709 
L 1159 0 
L 581 0 
L 581 4863 
z
" transform="scale(0.015625)"/>
       <path id="DejaVuSans-52" d="M 2841 2188 
Q 3044 2119 3236 1894 
Q 3428 1669 3622 1275 
L 4263 0 
L 3584 0 
L 2988 1197 
Q 2756 1666 2539 1819 
Q 2322 1972 1947 1972 
L 1259 1972 
L 1259 0 
L 628 0 
L 628 4666 
L 2053 4666 
Q 2853 4666 3247 4331 
Q 3641 3997 3641 3322 
Q 3641 2881 3436 2590 
Q 3231 2300 2841 2188 
z
M 1259 4147 
L 1259 2491 
L 2053 2491 
Q 2509 2491 2742 2702 
Q 2975 2913 2975 3322 
Q 2975 3731 2742 3939 
Q 2509 4147 2053 4147 
L 1259 4147 
z
" transform="scale(0.015625)"/>
       <path id="DejaVuSans-64" d="M 2906 2969 
L 2906 4863 
L 3481 4863 
L 3481 0 
L 2906 0 
L 2906 525 
Q 2725 213 2448 61 
Q 2172 -91 1784 -91 
Q 1150 -91 751 415 
Q 353 922 353 1747 
Q 353 2572 751 3078 
Q 1150 3584 1784 3584 
Q 2172 3584 2448 3432 
Q 2725 3281 2906 2969 
z
M 947 1747 
Q 947 1113 1208 752 
Q 1469 391 1925 391 
Q 2381 391 2643 752 
Q 2906 1113 2906 1747 
Q 2906 2381 2643 2742 
Q 2381 3103 1925 3103 
Q 1469 3103 1208 2742 
Q 947 2381 947 1747 
z
" transform="scale(0.015625)"/>
       <path id="DejaVuSans-46" d="M 628 4666 
L 3309 4666 
L 3309 4134 
L 1259 4134 
L 1259 2759 
L 3109 2759 
L 3109 2228 
L 1259 2228 
L 1259 0 
L 628 0 
L 628 4666 
z
" transform="scale(0.015625)"/>
      </defs>
      <use xlink:href="#DejaVuSans-44"/>
      <use xlink:href="#DejaVuSans-69" transform="translate(77.001953 0)"/>
      <use xlink:href="#DejaVuSans-6c" transform="translate(104.785156 0)"/>
      <use xlink:href="#DejaVuSans-75" transform="translate(132.568359 0)"/>
      <use xlink:href="#DejaVuSans-74" transform="translate(195.947266 0)"/>
      <use xlink:href="#DejaVuSans-65" transform="translate(235.15625 0)"/>
      <use xlink:href="#DejaVuSans-50" transform="translate(296.679688 0)"/>
      <use xlink:href="#DejaVuSans-6c" transform="translate(356.982422 0)"/>
      <use xlink:href="#DejaVuSans-61" transform="translate(384.765625 0)"/>
      <use xlink:href="#DejaVuSans-6e" transform="translate(446.044922 0)"/>
      <use xlink:href="#DejaVuSans-63" transform="translate(509.423828 0)"/>
      <use xlink:href="#DejaVuSans-6b" transform="translate(564.404297 0)"/>
      <use xlink:href="#DejaVuSans-69" transform="translate(622.314453 0)"/>
      <use xlink:href="#DejaVuSans-61" transform="translate(650.097656 0)"/>
      <use xlink:href="#DejaVuSans-6e" transform="translate(711.376953 0)"/>
      <use xlink:href="#DejaVuSans-52" transform="translate(774.755859 0)"/>
      <use xlink:href="#DejaVuSans-61" transform="translate(841.988281 0)"/>
      <use xlink:href="#DejaVuSans-64" transform="translate(903.267578 0)"/>
      <use xlink:href="#DejaVuSans-46" transform="translate(966.744141 0)"/>
      <use xlink:href="#DejaVuSans-69" transform="translate(1017.013672 0)"/>
      <use xlink:href="#DejaVuSans-65" transform="translate(1044.796875 0)"/>
      <use xlink:href="#DejaVuSans-6c" transform="translate(1106.320312 0)"/>
      <use xlink:href="#DejaVuSans-64" transform="translate(1134.103516 0)"/>
     </g>
    </g>
   </g>
   <g id="text_2">
    <g clip-path="url(#p13b21791c0)">
     <!-- NumberDensity -->
     <g transform="translate(0.273339 198.791414) scale(0.12 -0.12)">
      <defs>
       <path id="DejaVuSans-4e" d="M 628 4666 
L 1478 4666 
L 3547 763 
L 3547 4666 
L 4159 4666 
L 4159 0 
L 3309 0 
L 1241 3903 
L 1241 0 
L 628 0 
L 628 4666 
z
" transform="scale(0.015625)"/>
       <path id="DejaVuSans-6d" d="M 3328 2828 
Q 3544 3216 3844 3400 
Q 4144 3584 4550 3584 
Q 5097 3584 5394 3201 
Q 5691 2819 5691 2113 
L 5691 0 
L 5113 0 
L 5113 2094 
Q 5113 2597 4934 2840 
Q 4756 3084 4391 3084 
Q 3944 3084 3684 2787 
Q 3425 2491 3425 1978 
L 3425 0 
L 2847 0 
L 2847 2094 
Q 2847 2600 2669 2842 
Q 2491 3084 2119 3084 
Q 1678 3084 1418 2786 
Q 1159 2488 1159 1978 
L 1159 0 
L 581 0 
L 581 3500 
L 1159 3500 
L 1159 2956 
Q 1356 3278 1631 3431 
Q 1906 3584 2284 3584 
Q 2666 3584 2933 3390 
Q 3200 3197 3328 2828 
z
" transform="scale(0.015625)"/>
       <path id="DejaVuSans-62" d="M 3116 1747 
Q 3116 2381 2855 2742 
Q 2594 3103 2138 3103 
Q 1681 3103 1420 2742 
Q 1159 2381 1159 1747 
Q 1159 1113 1420 752 
Q 1681 391 2138 391 
Q 2594 391 2855 752 
Q 3116 1113 3116 1747 
z
M 1159 2969 
Q 1341 3281 1617 3432 
Q 1894 3584 2278 3584 
Q 2916 3584 3314 3078 
Q 3713 2572 3713 1747 
Q 3713 922 3314 415 
Q 2916 -91 2278 -91 
Q 1894 -91 1617 61 
Q 1341 213 1159 525 
L 1159 0 
L 581 0 
L 581 4863 
L 1159 4863 
L 1159 2969 
z
" transform="scale(0.015625)"/>
       <path id="DejaVuSans-72" d="M 2631 2963 
Q 2534 3019 2420 3045 
Q 2306 3072 2169 3072 
Q 1681 3072 1420 2755 
Q 1159 2438 1159 1844 
L 1159 0 
L 581 0 
L 581 3500 
L 1159 3500 
L 1159 2956 
Q 1341 3275 1631 3429 
Q 1922 3584 2338 3584 
Q 2397 3584 2469 3576 
Q 2541 3569 2628 3553 
L 2631 2963 
z
" transform="scale(0.015625)"/>
       <path id="DejaVuSans-73" d="M 2834 3397 
L 2834 2853 
Q 2591 2978 2328 3040 
Q 2066 3103 1784 3103 
Q 1356 3103 1142 2972 
Q 928 2841 928 2578 
Q 928 2378 1081 2264 
Q 1234 2150 1697 2047 
L 1894 2003 
Q 2506 1872 2764 1633 
Q 3022 1394 3022 966 
Q 3022 478 2636 193 
Q 2250 -91 1575 -91 
Q 1294 -91 989 -36 
Q 684 19 347 128 
L 347 722 
Q 666 556 975 473 
Q 1284 391 1588 391 
Q 1994 391 2212 530 
Q 2431 669 2431 922 
Q 2431 1156 2273 1281 
Q 2116 1406 1581 1522 
L 1381 1569 
Q 847 1681 609 1914 
Q 372 2147 372 2553 
Q 372 3047 722 3315 
Q 1072 3584 1716 3584 
Q 2034 3584 2315 3537 
Q 2597 3491 2834 3397 
z
" transform="scale(0.015625)"/>
       <path id="DejaVuSans-79" d="M 2059 -325 
Q 1816 -950 1584 -1140 
Q 1353 -1331 966 -1331 
L 506 -1331 
L 506 -850 
L 844 -850 
Q 1081 -850 1212 -737 
Q 1344 -625 1503 -206 
L 1606 56 
L 191 3500 
L 800 3500 
L 1894 763 
L 2988 3500 
L 3597 3500 
L 2059 -325 
z
" transform="scale(0.015625)"/>
      </defs>
      <use xlink:href="#DejaVuSans-4e"/>
      <use xlink:href="#DejaVuSans-75" transform="translate(74.804688 0)"/>
      <use xlink:href="#DejaVuSans-6d" transform="translate(138.183594 0)"/>
      <use xlink:href="#DejaVuSans-62" transform="translate(235.595703 0)"/>
      <use xlink:href="#DejaVuSans-65" transform="translate(299.072266 0)"/>
      <use xlink:href="#DejaVuSans-72" transform="translate(360.595703 0)"/>
      <use xlink:href="#DejaVuSans-44" transform="translate(401.708984 0)"/>
      <use xlink:href="#DejaVuSans-65" transform="translate(478.710938 0)"/>
      <use xlink:href="#DejaVuSans-6e" transform="translate(540.234375 0)"/>
      <use xlink:href="#DejaVuSans-73" transform="translate(603.613281 0)"/>
      <use xlink:href="#DejaVuSans-69" transform="translate(655.712891 0)"/>
      <use xlink:href="#DejaVuSans-74" transform="translate(683.496094 0)"/>
      <use xlink:href="#DejaVuSans-79" transform="translate(722.705078 0)"/>
     </g>
    </g>
   </g>
   <g id="text_3">
    <g clip-path="url(#p13b21791c0)">
     <!-- TimeExplosion -->
     <g transform="translate(177.270043 304.667928) scale(0.12 -0.12)">
      <defs>
       <path id="DejaVuSans-54" d="M -19 4666 
L 3928 4666 
L 3928 4134 
L 2272 4134 
L 2272 0 
L 1638 0 
L 1638 4134 
L -19 4134 
L -19 4666 
z
" transform="scale(0.015625)"/>
       <path id="DejaVuSans-45" d="M 628 4666 
L 3578 4666 
L 3578 4134 
L 1259 4134 
L 1259 2753 
L 3481 2753 
L 3481 2222 
L 1259 2222 
L 1259 531 
L 3634 531 
L 3634 0 
L 628 0 
L 628 4666 
z
" transform="scale(0.015625)"/>
       <path id="DejaVuSans-78" d="M 3513 3500 
L 2247 1797 
L 3578 0 
L 2900 0 
L 1881 1375 
L 863 0 
L 184 0 
L 1544 1831 
L 300 3500 
L 978 3500 
L 1906 2253 
L 2834 3500 
L 3513 3500 
z
" transform="scale(0.015625)"/>
       <path id="DejaVuSans-70" d="M 1159 525 
L 1159 -1331 
L 581 -1331 
L 581 3500 
L 1159 3500 
L 1159 2969 
Q 1341 3281 1617 3432 
Q 1894 3584 2278 3584 
Q 2916 3584 3314 3078 
Q 3713 2572 3713 1747 
Q 3713 922 3314 415 
Q 2916 -91 2278 -91 
Q 1894 -91 1617 61 
Q 1341 213 1159 525 
z
M 3116 1747 
Q 3116 2381 2855 2742 
Q 2594 3103 2138 3103 
Q 1681 3103 1420 2742 
Q 1159 2381 1159 1747 
Q 1159 1113 1420 752 
Q 1681 391 2138 391 
Q 2594 391 2855 752 
Q 3116 1113 3116 1747 
z
" transform="scale(0.015625)"/>
       <path id="DejaVuSans-6f" d="M 1959 3097 
Q 1497 3097 1228 2736 
Q 959 2375 959 1747 
Q 959 1119 1226 758 
Q 1494 397 1959 397 
Q 2419 397 2687 759 
Q 2956 1122 2956 1747 
Q 2956 2369 2687 2733 
Q 2419 3097 1959 3097 
z
M 1959 3584 
Q 2709 3584 3137 3096 
Q 3566 2609 3566 1747 
Q 3566 888 3137 398 
Q 2709 -91 1959 -91 
Q 1206 -91 779 398 
Q 353 888 353 1747 
Q 353 2609 779 3096 
Q 1206 3584 1959 3584 
z
" transform="scale(0.015625)"/>
      </defs>
      <use xlink:href="#DejaVuSans-54"/>
      <use xlink:href="#DejaVuSans-69" transform="translate(57.958984 0)"/>
      <use xlink:href="#DejaVuSans-6d" transform="translate(85.742188 0)"/>
      <use xlink:href="#DejaVuSans-65" transform="translate(183.154297 0)"/>
      <use xlink:href="#DejaVuSans-45" transform="translate(244.677734 0)"/>
      <use xlink:href="#DejaVuSans-78" transform="translate(307.861328 0)"/>
      <use xlink:href="#DejaVuSans-70" transform="translate(367.041016 0)"/>
      <use xlink:href="#DejaVuSans-6c" transform="translate(430.517578 0)"/>
      <use xlink:href="#DejaVuSans-6f" transform="translate(458.300781 0)"/>
      <use xlink:href="#DejaVuSans-73" transform="translate(519.482422 0)"/>
      <use xlink:href="#DejaVuSans-69" transform="translate(571.582031 0)"/>
      <use xlink:href="#DejaVuSans-6f" transform="translate(599.365234 0)"/>
      <use xlink:href="#DejaVuSans-6e" transform="translate(660.546875 0)"/>
     </g>
    </g>
   </g>
   <g id="text_4">
    <g clip-path="url(#p13b21791c0)">
     <!-- AtomicData -->
     <g transform="translate(164.187196 177.671464) scale(0.12 -0.12)">
      <defs>
       <path id="DejaVuSans-41" d="M 2188 4044 
L 1331 1722 
L 3047 1722 
L 2188 4044 
z
M 1831 4666 
L 2547 4666 
L 4325 0 
L 3669 0 
L 3244 1197 
L 1141 1197 
L 716 0 
L 50 0 
L 1831 4666 
z
" transform="scale(0.015625)"/>
      </defs>
      <use xlink:href="#DejaVuSans-41"/>
      <use xlink:href="#DejaVuSans-74" transform="translate(66.658203 0)"/>
      <use xlink:href="#DejaVuSans-6f" transform="translate(105.867188 0)"/>
      <use xlink:href="#DejaVuSans-6d" transform="translate(167.048828 0)"/>
      <use xlink:href="#DejaVuSans-69" transform="translate(264.460938 0)"/>
      <use xlink:href="#DejaVuSans-63" transform="translate(292.244141 0)"/>
      <use xlink:href="#DejaVuSans-44" transform="translate(347.224609 0)"/>
      <use xlink:href="#DejaVuSans-61" transform="translate(424.226562 0)"/>
      <use xlink:href="#DejaVuSans-74" transform="translate(485.505859 0)"/>
      <use xlink:href="#DejaVuSans-61" transform="translate(524.714844 0)"/>
     </g>
    </g>
   </g>
   <g id="text_5">
    <g clip-path="url(#p13b21791c0)">
     <!-- JBlues -->
     <g transform="translate(219.750628 72.056753) scale(0.12 -0.12)">
      <defs>
       <path id="DejaVuSans-4a" d="M 628 4666 
L 1259 4666 
L 1259 325 
Q 1259 -519 939 -900 
Q 619 -1281 -91 -1281 
L -331 -1281 
L -331 -750 
L -134 -750 
Q 284 -750 456 -515 
Q 628 -281 628 325 
L 628 4666 
z
" transform="scale(0.015625)"/>
       <path id="DejaVuSans-42" d="M 1259 2228 
L 1259 519 
L 2272 519 
Q 2781 519 3026 730 
Q 3272 941 3272 1375 
Q 3272 1813 3026 2020 
Q 2781 2228 2272 2228 
L 1259 2228 
z
M 1259 4147 
L 1259 2741 
L 2194 2741 
Q 2656 2741 2882 2914 
Q 3109 3088 3109 3444 
Q 3109 3797 2882 3972 
Q 2656 4147 2194 4147 
L 1259 4147 
z
M 628 4666 
L 2241 4666 
Q 2963 4666 3353 4366 
Q 3744 4066 3744 3513 
Q 3744 3084 3544 2831 
Q 3344 2578 2956 2516 
Q 3422 2416 3680 2098 
Q 3938 1781 3938 1306 
Q 3938 681 3513 340 
Q 3088 0 2303 0 
L 628 0 
L 628 4666 
z
" transform="scale(0.015625)"/>
      </defs>
      <use xlink:href="#DejaVuSans-4a"/>
      <use xlink:href="#DejaVuSans-42" transform="translate(29.492188 0)"/>
      <use xlink:href="#DejaVuSans-6c" transform="translate(98.095703 0)"/>
      <use xlink:href="#DejaVuSans-75" transform="translate(125.878906 0)"/>
      <use xlink:href="#DejaVuSans-65" transform="translate(189.257812 0)"/>
      <use xlink:href="#DejaVuSans-73" transform="translate(250.78125 0)"/>
     </g>
    </g>
   </g>
   <g id="text_6">
    <g clip-path="url(#p13b21791c0)">
     <!-- LinkTRadTElectron -->
     <g transform="translate(-0.113736 174.954924) scale(0.12 -0.12)">
      <defs>
       <path id="DejaVuSans-4c" d="M 628 4666 
L 1259 4666 
L 1259 531 
L 3531 531 
L 3531 0 
L 628 0 
L 628 4666 
z
" transform="scale(0.015625)"/>
      </defs>
      <use xlink:href="#DejaVuSans-4c"/>
      <use xlink:href="#DejaVuSans-69" transform="translate(55.712891 0)"/>
      <use xlink:href="#DejaVuSans-6e" transform="translate(83.496094 0)"/>
      <use xlink:href="#DejaVuSans-6b" transform="translate(146.875 0)"/>
      <use xlink:href="#DejaVuSans-54" transform="translate(204.785156 0)"/>
      <use xlink:href="#DejaVuSans-52" transform="translate(265.869141 0)"/>
      <use xlink:href="#DejaVuSans-61" transform="translate(333.101562 0)"/>
      <use xlink:href="#DejaVuSans-64" transform="translate(394.380859 0)"/>
      <use xlink:href="#DejaVuSans-54" transform="translate(457.857422 0)"/>
      <use xlink:href="#DejaVuSans-45" transform="translate(518.941406 0)"/>
      <use xlink:href="#DejaVuSans-6c" transform="translate(582.125 0)"/>
      <use xlink:href="#DejaVuSans-65" transform="translate(609.908203 0)"/>
      <use xlink:href="#DejaVuSans-63" transform="translate(671.431641 0)"/>
      <use xlink:href="#DejaVuSans-74" transform="translate(726.412109 0)"/>
      <use xlink:href="#DejaVuSans-72" transform="translate(765.621094 0)"/>
      <use xlink:href="#DejaVuSans-6f" transform="translate(804.484375 0)"/>
      <use xlink:href="#DejaVuSans-6e" transform="translate(865.666016 0)"/>
     </g>
    </g>
   </g>
   <g id="text_7">
    <g clip-path="url(#p13b21791c0)">
     <!-- HeliumTreatment -->
     <g transform="translate(-0.102068 275.966041) scale(0.12 -0.12)">
      <defs>
       <path id="DejaVuSans-48" d="M 628 4666 
L 1259 4666 
L 1259 2753 
L 3553 2753 
L 3553 4666 
L 4184 4666 
L 4184 0 
L 3553 0 
L 3553 2222 
L 1259 2222 
L 1259 0 
L 628 0 
L 628 4666 
z
" transform="scale(0.015625)"/>
      </defs>
      <use xlink:href="#DejaVuSans-48"/>
      <use xlink:href="#DejaVuSans-65" transform="translate(75.195312 0)"/>
      <use xlink:href="#DejaVuSans-6c" transform="translate(136.71875 0)"/>
      <use xlink:href="#DejaVuSans-69" transform="translate(164.501953 0)"/>
      <use xlink:href="#DejaVuSans-75" transform="translate(192.285156 0)"/>
      <use xlink:href="#DejaVuSans-6d" transform="translate(255.664062 0)"/>
      <use xlink:href="#DejaVuSans-54" transform="translate(353.076172 0)"/>
      <use xlink:href="#DejaVuSans-72" transform="translate(399.410156 0)"/>
      <use xlink:href="#DejaVuSans-65" transform="translate(438.273438 0)"/>
      <use xlink:href="#DejaVuSans-61" transform="translate(499.796875 0)"/>
      <use xlink:href="#DejaVuSans-74" transform="translate(561.076172 0)"/>
      <use xlink:href="#DejaVuSans-6d" transform="translate(600.285156 0)"/>
      <use xlink:href="#DejaVuSans-65" transform="translate(697.697266 0)"/>
      <use xlink:href="#DejaVuSans-6e" transform="translate(759.220703 0)"/>
      <use xlink:href="#DejaVuSans-74" transform="translate(822.599609 0)"/>
     </g>
    </g>
   </g>
   <g id="text_8">
    <g clip-path="url(#p13b21791c0)">
     <!-- ContinuumInteractionSpecies -->
     <g transform="translate(340.448751 138.935446) scale(0.12 -0.12)">
      <defs>
       <path id="DejaVuSans-43" d="M 4122 4306 
L 4122 3641 
Q 3803 3938 3442 4084 
Q 3081 4231 2675 4231 
Q 1875 4231 1450 3742 
Q 1025 3253 1025 2328 
Q 1025 1406 1450 917 
Q 1875 428 2675 428 
Q 3081 428 3442 575 
Q 3803 722 4122 1019 
L 4122 359 
Q 3791 134 3420 21 
Q 3050 -91 2638 -91 
Q 1578 -91 968 557 
Q 359 1206 359 2328 
Q 359 3453 968 4101 
Q 1578 4750 2638 4750 
Q 3056 4750 3426 4639 
Q 3797 4528 4122 4306 
z
" transform="scale(0.015625)"/>
       <path id="DejaVuSans-49" d="M 628 4666 
L 1259 4666 
L 1259 0 
L 628 0 
L 628 4666 
z
" transform="scale(0.015625)"/>
       <path id="DejaVuSans-53" d="M 3425 4513 
L 3425 3897 
Q 3066 4069 2747 4153 
Q 2428 4238 2131 4238 
Q 1616 4238 1336 4038 
Q 1056 3838 1056 3469 
Q 1056 3159 1242 3001 
Q 1428 2844 1947 2747 
L 2328 2669 
Q 3034 2534 3370 2195 
Q 3706 1856 3706 1288 
Q 3706 609 3251 259 
Q 2797 -91 1919 -91 
Q 1588 -91 1214 -16 
Q 841 59 441 206 
L 441 856 
Q 825 641 1194 531 
Q 1563 422 1919 422 
Q 2459 422 2753 634 
Q 3047 847 3047 1241 
Q 3047 1584 2836 1778 
Q 2625 1972 2144 2069 
L 1759 2144 
Q 1053 2284 737 2584 
Q 422 2884 422 3419 
Q 422 4038 858 4394 
Q 1294 4750 2059 4750 
Q 2388 4750 2728 4690 
Q 3069 4631 3425 4513 
z
" transform="scale(0.015625)"/>
      </defs>
      <use xlink:href="#DejaVuSans-43"/>
      <use xlink:href="#DejaVuSans-6f" transform="translate(69.824219 0)"/>
      <use xlink:href="#DejaVuSans-6e" transform="translate(131.005859 0)"/>
      <use xlink:href="#DejaVuSans-74" transform="translate(194.384766 0)"/>
      <use xlink:href="#DejaVuSans-69" transform="translate(233.59375 0)"/>
      <use xlink:href="#DejaVuSans-6e" transform="translate(261.376953 0)"/>
      <use xlink:href="#DejaVuSans-75" transform="translate(324.755859 0)"/>
      <use xlink:href="#DejaVuSans-75" transform="translate(388.134766 0)"/>
      <use xlink:href="#DejaVuSans-6d" transform="translate(451.513672 0)"/>
      <use xlink:href="#DejaVuSans-49" transform="translate(548.925781 0)"/>
      <use xlink:href="#DejaVuSans-6e" transform="translate(578.417969 0)"/>
      <use xlink:href="#DejaVuSans-74" transform="translate(641.796875 0)"/>
      <use xlink:href="#DejaVuSans-65" transform="translate(681.005859 0)"/>
      <use xlink:href="#DejaVuSans-72" transform="translate(742.529297 0)"/>
      <use xlink:href="#DejaVuSans-61" transform="translate(783.642578 0)"/>
      <use xlink:href="#DejaVuSans-63" transform="translate(844.921875 0)"/>
      <use xlink:href="#DejaVuSans-74" transform="translate(899.902344 0)"/>
      <use xlink:href="#DejaVuSans-69" transform="translate(939.111328 0)"/>
      <use xlink:href="#DejaVuSans-6f" transform="translate(966.894531 0)"/>
      <use xlink:href="#DejaVuSans-6e" transform="translate(1028.076172 0)"/>
      <use xlink:href="#DejaVuSans-53" transform="translate(1091.455078 0)"/>
      <use xlink:href="#DejaVuSans-70" transform="translate(1154.931641 0)"/>
      <use xlink:href="#DejaVuSans-65" transform="translate(1218.408203 0)"/>
      <use xlink:href="#DejaVuSans-63" transform="translate(1279.931641 0)"/>
      <use xlink:href="#DejaVuSans-69" transform="translate(1334.912109 0)"/>
      <use xlink:href="#DejaVuSans-65" transform="translate(1362.695312 0)"/>
      <use xlink:href="#DejaVuSans-73" transform="translate(1424.21875 0)"/>
     </g>
    </g>
   </g>
   <g id="text_9">
    <g clip-path="url(#p13b21791c0)">
     <!-- NLTEIonizationSpecies -->
     <g transform="translate(-8.588736 243.089807) scale(0.12 -0.12)">
      <defs>
       <path id="DejaVuSans-7a" d="M 353 3500 
L 3084 3500 
L 3084 2975 
L 922 459 
L 3084 459 
L 3084 0 
L 275 0 
L 275 525 
L 2438 3041 
L 353 3041 
L 353 3500 
z
" transform="scale(0.015625)"/>
      </defs>
      <use xlink:href="#DejaVuSans-4e"/>
      <use xlink:href="#DejaVuSans-4c" transform="translate(74.804688 0)"/>
      <use xlink:href="#DejaVuSans-54" transform="translate(116.767578 0)"/>
      <use xlink:href="#DejaVuSans-45" transform="translate(177.851562 0)"/>
      <use xlink:href="#DejaVuSans-49" transform="translate(241.035156 0)"/>
      <use xlink:href="#DejaVuSans-6f" transform="translate(270.527344 0)"/>
      <use xlink:href="#DejaVuSans-6e" transform="translate(331.708984 0)"/>
      <use xlink:href="#DejaVuSans-69" transform="translate(395.087891 0)"/>
      <use xlink:href="#DejaVuSans-7a" transform="translate(422.871094 0)"/>
      <use xlink:href="#DejaVuSans-61" transform="translate(475.361328 0)"/>
      <use xlink:href="#DejaVuSans-74" transform="translate(536.640625 0)"/>
      <use xlink:href="#DejaVuSans-69" transform="translate(575.849609 0)"/>
      <use xlink:href="#DejaVuSans-6f" transform="translate(603.632812 0)"/>
      <use xlink:href="#DejaVuSans-6e" transform="translate(664.814453 0)"/>
      <use xlink:href="#DejaVuSans-53" transform="translate(728.193359 0)"/>
      <use xlink:href="#DejaVuSans-70" transform="translate(791.669922 0)"/>
      <use xlink:href="#DejaVuSans-65" transform="translate(855.146484 0)"/>
      <use xlink:href="#DejaVuSans-63" transform="translate(916.669922 0)"/>
      <use xlink:href="#DejaVuSans-69" transform="translate(971.650391 0)"/>
      <use xlink:href="#DejaVuSans-65" transform="translate(999.433594 0)"/>
      <use xlink:href="#DejaVuSans-73" transform="translate(1060.957031 0)"/>
     </g>
    </g>
   </g>
   <g id="text_10">
    <g clip-path="url(#p13b21791c0)">
     <!-- NLTEExcitationSpecies -->
     <g transform="translate(129.781455 100.142152) scale(0.12 -0.12)">
      <use xlink:href="#DejaVuSans-4e"/>
      <use xlink:href="#DejaVuSans-4c" transform="translate(74.804688 0)"/>
      <use xlink:href="#DejaVuSans-54" transform="translate(116.767578 0)"/>
      <use xlink:href="#DejaVuSans-45" transform="translate(177.851562 0)"/>
      <use xlink:href="#DejaVuSans-45" transform="translate(241.035156 0)"/>
      <use xlink:href="#DejaVuSans-78" transform="translate(304.21875 0)"/>
      <use xlink:href="#DejaVuSans-63" transform="translate(361.648438 0)"/>
      <use xlink:href="#DejaVuSans-69" transform="translate(416.628906 0)"/>
      <use xlink:href="#DejaVuSans-74" transform="translate(444.412109 0)"/>
      <use xlink:href="#DejaVuSans-61" transform="translate(483.621094 0)"/>
      <use xlink:href="#DejaVuSans-74" transform="translate(544.900391 0)"/>
      <use xlink:href="#DejaVuSans-69" transform="translate(584.109375 0)"/>
      <use xlink:href="#DejaVuSans-6f" transform="translate(611.892578 0)"/>
      <use xlink:href="#DejaVuSans-6e" transform="translate(673.074219 0)"/>
      <use xlink:href="#DejaVuSans-53" transform="translate(736.453125 0)"/>
      <use xlink:href="#DejaVuSans-70" transform="translate(799.929688 0)"/>
      <use xlink:href="#DejaVuSans-65" transform="translate(863.40625 0)"/>
      <use xlink:href="#DejaVuSans-63" transform="translate(924.929688 0)"/>
      <use xlink:href="#DejaVuSans-69" transform="translate(979.910156 0)"/>
      <use xlink:href="#DejaVuSans-65" transform="translate(1007.693359 0)"/>
      <use xlink:href="#DejaVuSans-73" transform="translate(1069.216797 0)"/>
     </g>
    </g>
   </g>
   <g id="text_11">
    <g clip-path="url(#p13b21791c0)">
     <!-- TRadiative -->
     <g transform="translate(351.89715 275.567524) scale(0.12 -0.12)">
      <defs>
       <path id="DejaVuSans-76" d="M 191 3500 
L 800 3500 
L 1894 563 
L 2988 3500 
L 3597 3500 
L 2284 0 
L 1503 0 
L 191 3500 
z
" transform="scale(0.015625)"/>
      </defs>
      <use xlink:href="#DejaVuSans-54"/>
      <use xlink:href="#DejaVuSans-52" transform="translate(61.083984 0)"/>
      <use xlink:href="#DejaVuSans-61" transform="translate(128.316406 0)"/>
      <use xlink:href="#DejaVuSans-64" transform="translate(189.595703 0)"/>
      <use xlink:href="#DejaVuSans-69" transform="translate(253.072266 0)"/>
      <use xlink:href="#DejaVuSans-61" transform="translate(280.855469 0)"/>
      <use xlink:href="#DejaVuSans-74" transform="translate(342.134766 0)"/>
      <use xlink:href="#DejaVuSans-69" transform="translate(381.34375 0)"/>
      <use xlink:href="#DejaVuSans-76" transform="translate(409.126953 0)"/>
      <use xlink:href="#DejaVuSans-65" transform="translate(468.306641 0)"/>
     </g>
    </g>
   </g>
   <g id="text_12">
    <g clip-path="url(#p13b21791c0)">
     <!-- DilutionFactor -->
     <g transform="translate(234.886084 321.497958) scale(0.12 -0.12)">
      <use xlink:href="#DejaVuSans-44"/>
      <use xlink:href="#DejaVuSans-69" transform="translate(77.001953 0)"/>
      <use xlink:href="#DejaVuSans-6c" transform="translate(104.785156 0)"/>
      <use xlink:href="#DejaVuSans-75" transform="translate(132.568359 0)"/>
      <use xlink:href="#DejaVuSans-74" transform="translate(195.947266 0)"/>
      <use xlink:href="#DejaVuSans-69" transform="translate(235.15625 0)"/>
      <use xlink:href="#DejaVuSans-6f" transform="translate(262.939453 0)"/>
      <use xlink:href="#DejaVuSans-6e" transform="translate(324.121094 0)"/>
      <use xlink:href="#DejaVuSans-46" transform="translate(387.5 0)"/>
      <use xlink:href="#DejaVuSans-61" transform="translate(435.894531 0)"/>
      <use xlink:href="#DejaVuSans-63" transform="translate(497.173828 0)"/>
      <use xlink:href="#DejaVuSans-74" transform="translate(552.154297 0)"/>
      <use xlink:href="#DejaVuSans-6f" transform="translate(591.363281 0)"/>
      <use xlink:href="#DejaVuSans-72" transform="translate(652.544922 0)"/>
     </g>
    </g>
   </g>
   <g id="text_13">
    <g clip-path="url(#p13b21791c0)">
     <!-- BetaRadiation -->
     <g transform="translate(298.199193 93.664372) scale(0.12 -0.12)">
      <use xlink:href="#DejaVuSans-42"/>
      <use xlink:href="#DejaVuSans-65" transform="translate(68.603516 0)"/>
      <use xlink:href="#DejaVuSans-74" transform="translate(130.126953 0)"/>
      <use xlink:href="#DejaVuSans-61" transform="translate(169.335938 0)"/>
      <use xlink:href="#DejaVuSans-52" transform="translate(230.615234 0)"/>
      <use xlink:href="#DejaVuSans-61" transform="translate(297.847656 0)"/>
      <use xlink:href="#DejaVuSans-64" transform="translate(359.126953 0)"/>
      <use xlink:href="#DejaVuSans-69" transform="translate(422.603516 0)"/>
      <use xlink:href="#DejaVuSans-61" transform="translate(450.386719 0)"/>
      <use xlink:href="#DejaVuSans-74" transform="translate(511.666016 0)"/>
      <use xlink:href="#DejaVuSans-69" transform="translate(550.875 0)"/>
      <use xlink:href="#DejaVuSans-6f" transform="translate(578.658203 0)"/>
      <use xlink:href="#DejaVuSans-6e" transform="translate(639.839844 0)"/>
     </g>
    </g>
   </g>
   <g id="text_14">
    <g clip-path="url(#p13b21791c0)">
     <!-- Levels -->
     <g transform="translate(321.157228 170.343148) scale(0.12 -0.12)">
      <use xlink:href="#DejaVuSans-4c"/>
      <use xlink:href="#DejaVuSans-65" transform="translate(53.962891 0)"/>
      <use xlink:href="#DejaVuSans-76" transform="translate(115.486328 0)"/>
      <use xlink:href="#DejaVuSans-65" transform="translate(174.666016 0)"/>
      <use xlink:href="#DejaVuSans-6c" transform="translate(236.189453 0)"/>
      <use xlink:href="#DejaVuSans-73" transform="translate(263.972656 0)"/>
     </g>
    </g>
   </g>
   <g id="text_15">
    <g clip-path="url(#p13b21791c0)">
     <!-- Lines -->
     <g transform="translate(336.84011 205.422686) scale(0.12 -0.12)">
      <use xlink:href="#DejaVuSans-4c"/>
      <use xlink:href="#DejaVuSans-69" transform="translate(55.712891 0)"/>
      <use xlink:href="#DejaVuSans-6e" transform="translate(83.496094 0)"/>
      <use xlink:href="#DejaVuSans-65" transform="translate(146.875 0)"/>
      <use xlink:href="#DejaVuSans-73" transform="translate(208.398438 0)"/>
     </g>
    </g>
   </g>
   <g id="text_16">
    <g clip-path="url(#p13b21791c0)">
     <!-- PartitionFunction -->
     <g transform="translate(344.198139 298.031286) scale(0.12 -0.12)">
      <use xlink:href="#DejaVuSans-50"/>
      <use xlink:href="#DejaVuSans-61" transform="translate(55.802734 0)"/>
      <use xlink:href="#DejaVuSans-72" transform="translate(117.082031 0)"/>
      <use xlink:href="#DejaVuSans-74" transform="translate(158.195312 0)"/>
      <use xlink:href="#DejaVuSans-69" transform="translate(197.404297 0)"/>
      <use xlink:href="#DejaVuSans-74" transform="translate(225.1875 0)"/>
      <use xlink:href="#DejaVuSans-69" transform="translate(264.396484 0)"/>
      <use xlink:href="#DejaVuSans-6f" transform="translate(292.179688 0)"/>
      <use xlink:href="#DejaVuSans-6e" transform="translate(353.361328 0)"/>
      <use xlink:href="#DejaVuSans-46" transform="translate(416.740234 0)"/>
      <use xlink:href="#DejaVuSans-75" transform="translate(468.759766 0)"/>
      <use xlink:href="#DejaVuSans-6e" transform="translate(532.138672 0)"/>
      <use xlink:href="#DejaVuSans-63" transform="translate(595.517578 0)"/>
      <use xlink:href="#DejaVuSans-74" transform="translate(650.498047 0)"/>
      <use xlink:href="#DejaVuSans-69" transform="translate(689.707031 0)"/>
      <use xlink:href="#DejaVuSans-6f" transform="translate(717.490234 0)"/>
      <use xlink:href="#DejaVuSans-6e" transform="translate(778.671875 0)"/>
     </g>
    </g>
   </g>
   <g id="text_17">
    <g clip-path="url(#p13b21791c0)">
     <!-- GElectron -->
     <g transform="translate(108.956829 147.767541) scale(0.12 -0.12)">
      <defs>
       <path id="DejaVuSans-47" d="M 3809 666 
L 3809 1919 
L 2778 1919 
L 2778 2438 
L 4434 2438 
L 4434 434 
Q 4069 175 3628 42 
Q 3188 -91 2688 -91 
Q 1594 -91 976 548 
Q 359 1188 359 2328 
Q 359 3472 976 4111 
Q 1594 4750 2688 4750 
Q 3144 4750 3555 4637 
Q 3966 4525 4313 4306 
L 4313 3634 
Q 3963 3931 3569 4081 
Q 3175 4231 2741 4231 
Q 1884 4231 1454 3753 
Q 1025 3275 1025 2328 
Q 1025 1384 1454 906 
Q 1884 428 2741 428 
Q 3075 428 3337 486 
Q 3600 544 3809 666 
z
" transform="scale(0.015625)"/>
      </defs>
      <use xlink:href="#DejaVuSans-47"/>
      <use xlink:href="#DejaVuSans-45" transform="translate(77.490234 0)"/>
      <use xlink:href="#DejaVuSans-6c" transform="translate(140.673828 0)"/>
      <use xlink:href="#DejaVuSans-65" transform="translate(168.457031 0)"/>
      <use xlink:href="#DejaVuSans-63" transform="translate(229.980469 0)"/>
      <use xlink:href="#DejaVuSans-74" transform="translate(284.960938 0)"/>
      <use xlink:href="#DejaVuSans-72" transform="translate(324.169922 0)"/>
      <use xlink:href="#DejaVuSans-6f" transform="translate(363.033203 0)"/>
      <use xlink:href="#DejaVuSans-6e" transform="translate(424.214844 0)"/>
     </g>
    </g>
   </g>
   <g id="text_18">
    <g clip-path="url(#p13b21791c0)">
     <!-- IonizationData -->
     <g transform="translate(303.027252 69.078171) scale(0.12 -0.12)">
      <use xlink:href="#DejaVuSans-49"/>
      <use xlink:href="#DejaVuSans-6f" transform="translate(29.492188 0)"/>
      <use xlink:href="#DejaVuSans-6e" transform="translate(90.673828 0)"/>
      <use xlink:href="#DejaVuSans-69" transform="translate(154.052734 0)"/>
      <use xlink:href="#DejaVuSans-7a" transform="translate(181.835938 0)"/>
      <use xlink:href="#DejaVuSans-61" transform="translate(234.326172 0)"/>
      <use xlink:href="#DejaVuSans-74" transform="translate(295.605469 0)"/>
      <use xlink:href="#DejaVuSans-69" transform="translate(334.814453 0)"/>
      <use xlink:href="#DejaVuSans-6f" transform="translate(362.597656 0)"/>
      <use xlink:href="#DejaVuSans-6e" transform="translate(423.779297 0)"/>
      <use xlink:href="#DejaVuSans-44" transform="translate(487.158203 0)"/>
      <use xlink:href="#DejaVuSans-61" transform="translate(564.160156 0)"/>
      <use xlink:href="#DejaVuSans-74" transform="translate(625.439453 0)"/>
      <use xlink:href="#DejaVuSans-61" transform="translate(664.648438 0)"/>
     </g>
    </g>
   </g>
   <g id="text_19">
    <g clip-path="url(#p13b21791c0)">
     <!-- LinesLowerLevelIndex -->
     <g transform="translate(45.148561 111.91322) scale(0.12 -0.12)">
      <defs>
       <path id="DejaVuSans-77" d="M 269 3500 
L 844 3500 
L 1563 769 
L 2278 3500 
L 2956 3500 
L 3675 769 
L 4391 3500 
L 4966 3500 
L 4050 0 
L 3372 0 
L 2619 2869 
L 1863 0 
L 1184 0 
L 269 3500 
z
" transform="scale(0.015625)"/>
      </defs>
      <use xlink:href="#DejaVuSans-4c"/>
      <use xlink:href="#DejaVuSans-69" transform="translate(55.712891 0)"/>
      <use xlink:href="#DejaVuSans-6e" transform="translate(83.496094 0)"/>
      <use xlink:href="#DejaVuSans-65" transform="translate(146.875 0)"/>
      <use xlink:href="#DejaVuSans-73" transform="translate(208.398438 0)"/>
      <use xlink:href="#DejaVuSans-4c" transform="translate(260.498047 0)"/>
      <use xlink:href="#DejaVuSans-6f" transform="translate(314.460938 0)"/>
      <use xlink:href="#DejaVuSans-77" transform="translate(375.642578 0)"/>
      <use xlink:href="#DejaVuSans-65" transform="translate(457.429688 0)"/>
      <use xlink:href="#DejaVuSans-72" transform="translate(518.953125 0)"/>
      <use xlink:href="#DejaVuSans-4c" transform="translate(560.066406 0)"/>
      <use xlink:href="#DejaVuSans-65" transform="translate(614.029297 0)"/>
      <use xlink:href="#DejaVuSans-76" transform="translate(675.552734 0)"/>
      <use xlink:href="#DejaVuSans-65" transform="translate(734.732422 0)"/>
      <use xlink:href="#DejaVuSans-6c" transform="translate(796.255859 0)"/>
      <use xlink:href="#DejaVuSans-49" transform="translate(824.039062 0)"/>
      <use xlink:href="#DejaVuSans-6e" transform="translate(853.53125 0)"/>
      <use xlink:href="#DejaVuSans-64" transform="translate(916.910156 0)"/>
      <use xlink:href="#DejaVuSans-65" transform="translate(980.386719 0)"/>
      <use xlink:href="#DejaVuSans-78" transform="translate(1040.160156 0)"/>
     </g>
    </g>
   </g>
   <g id="text_20">
    <g clip-path="url(#p13b21791c0)">
     <!-- LinesUpperLevelIndex -->
     <g transform="translate(77.032948 71.729119) scale(0.12 -0.12)">
      <defs>
       <path id="DejaVuSans-55" d="M 556 4666 
L 1191 4666 
L 1191 1831 
Q 1191 1081 1462 751 
Q 1734 422 2344 422 
Q 2950 422 3222 751 
Q 3494 1081 3494 1831 
L 3494 4666 
L 4128 4666 
L 4128 1753 
Q 4128 841 3676 375 
Q 3225 -91 2344 -91 
Q 1459 -91 1007 375 
Q 556 841 556 1753 
L 556 4666 
z
" transform="scale(0.015625)"/>
      </defs>
      <use xlink:href="#DejaVuSans-4c"/>
      <use xlink:href="#DejaVuSans-69" transform="translate(55.712891 0)"/>
      <use xlink:href="#DejaVuSans-6e" transform="translate(83.496094 0)"/>
      <use xlink:href="#DejaVuSans-65" transform="translate(146.875 0)"/>
      <use xlink:href="#DejaVuSans-73" transform="translate(208.398438 0)"/>
      <use xlink:href="#DejaVuSans-55" transform="translate(260.498047 0)"/>
      <use xlink:href="#DejaVuSans-70" transform="translate(333.691406 0)"/>
      <use xlink:href="#DejaVuSans-70" transform="translate(397.167969 0)"/>
      <use xlink:href="#DejaVuSans-65" transform="translate(460.644531 0)"/>
      <use xlink:href="#DejaVuSans-72" transform="translate(522.167969 0)"/>
      <use xlink:href="#DejaVuSans-4c" transform="translate(563.28125 0)"/>
      <use xlink:href="#DejaVuSans-65" transform="translate(617.244141 0)"/>
      <use xlink:href="#DejaVuSans-76" transform="translate(678.767578 0)"/>
      <use xlink:href="#DejaVuSans-65" transform="translate(737.947266 0)"/>
      <use xlink:href="#DejaVuSans-6c" transform="translate(799.470703 0)"/>
      <use xlink:href="#DejaVuSans-49" transform="translate(827.253906 0)"/>
      <use xlink:href="#DejaVuSans-6e" transform="translate(856.746094 0)"/>
      <use xlink:href="#DejaVuSans-64" transform="translate(920.125 0)"/>
      <use xlink:href="#DejaVuSans-65" transform="translate(983.601562 0)"/>
      <use xlink:href="#DejaVuSans-78" transform="translate(1043.375 0)"/>
     </g>
    </g>
   </g>
   <g id="text_21">
    <g clip-path="url(#p13b21791c0)">
     <!-- TauSobolev -->
     <g transform="translate(219.292914 200.53713) scale(0.12 -0.12)">
      <use xlink:href="#DejaVuSans-54"/>
      <use xlink:href="#DejaVuSans-61" transform="translate(44.583984 0)"/>
      <use xlink:href="#DejaVuSans-75" transform="translate(105.863281 0)"/>
      <use xlink:href="#DejaVuSans-53" transform="translate(169.242188 0)"/>
      <use xlink:href="#DejaVuSans-6f" transform="translate(232.71875 0)"/>
      <use xlink:href="#DejaVuSans-62" transform="translate(293.900391 0)"/>
      <use xlink:href="#DejaVuSans-6f" transform="translate(357.376953 0)"/>
      <use xlink:href="#DejaVuSans-6c" transform="translate(418.558594 0)"/>
      <use xlink:href="#DejaVuSans-65" transform="translate(446.341797 0)"/>
      <use xlink:href="#DejaVuSans-76" transform="translate(507.865234 0)"/>
     </g>
    </g>
   </g>
   <g id="text_22">
    <g clip-path="url(#p13b21791c0)">
     <!-- StimulatedEmissionFactor -->
     <g transform="translate(249.808256 304.138297) scale(0.12 -0.12)">
      <use xlink:href="#DejaVuSans-53"/>
      <use xlink:href="#DejaVuSans-74" transform="translate(63.476562 0)"/>
      <use xlink:href="#DejaVuSans-69" transform="translate(102.685547 0)"/>
      <use xlink:href="#DejaVuSans-6d" transform="translate(130.46875 0)"/>
      <use xlink:href="#DejaVuSans-75" transform="translate(227.880859 0)"/>
      <use xlink:href="#DejaVuSans-6c" transform="translate(291.259766 0)"/>
      <use xlink:href="#DejaVuSans-61" transform="translate(319.042969 0)"/>
      <use xlink:href="#DejaVuSans-74" transform="translate(380.322266 0)"/>
      <use xlink:href="#DejaVuSans-65" transform="translate(419.53125 0)"/>
      <use xlink:href="#DejaVuSans-64" transform="translate(481.054688 0)"/>
      <use xlink:href="#DejaVuSans-45" transform="translate(544.53125 0)"/>
      <use xlink:href="#DejaVuSans-6d" transform="translate(607.714844 0)"/>
      <use xlink:href="#DejaVuSans-69" transform="translate(705.126953 0)"/>
      <use xlink:href="#DejaVuSans-73" transform="translate(732.910156 0)"/>
      <use xlink:href="#DejaVuSans-73" transform="translate(785.009766 0)"/>
      <use xlink:href="#DejaVuSans-69" transform="translate(837.109375 0)"/>
      <use xlink:href="#DejaVuSans-6f" transform="translate(864.892578 0)"/>
      <use xlink:href="#DejaVuSans-6e" transform="translate(926.074219 0)"/>
      <use xlink:href="#DejaVuSans-46" transform="translate(989.453125 0)"/>
      <use xlink:href="#DejaVuSans-61" transform="translate(1037.847656 0)"/>
      <use xlink:href="#DejaVuSans-63" transform="translate(1099.126953 0)"/>
      <use xlink:href="#DejaVuSans-74" transform="translate(1154.107422 0)"/>
      <use xlink:href="#DejaVuSans-6f" transform="translate(1193.316406 0)"/>
      <use xlink:href="#DejaVuSans-72" transform="translate(1254.498047 0)"/>
     </g>
    </g>
   </g>
   <g id="text_23">
    <g clip-path="url(#p13b21791c0)">
     <!-- SelectedAtoms -->
     <g transform="translate(313.393747 236.032633) scale(0.12 -0.12)">
      <use xlink:href="#DejaVuSans-53"/>
      <use xlink:href="#DejaVuSans-65" transform="translate(63.476562 0)"/>
      <use xlink:href="#DejaVuSans-6c" transform="translate(125 0)"/>
      <use xlink:href="#DejaVuSans-65" transform="translate(152.783203 0)"/>
      <use xlink:href="#DejaVuSans-63" transform="translate(214.306641 0)"/>
      <use xlink:href="#DejaVuSans-74" transform="translate(269.287109 0)"/>
      <use xlink:href="#DejaVuSans-65" transform="translate(308.496094 0)"/>
      <use xlink:href="#DejaVuSans-64" transform="translate(370.019531 0)"/>
      <use xlink:href="#DejaVuSans-41" transform="translate(433.496094 0)"/>
      <use xlink:href="#DejaVuSans-74" transform="translate(500.154297 0)"/>
      <use xlink:href="#DejaVuSans-6f" transform="translate(539.363281 0)"/>
      <use xlink:href="#DejaVuSans-6d" transform="translate(600.544922 0)"/>
      <use xlink:href="#DejaVuSans-73" transform="translate(697.957031 0)"/>
     </g>
    </g>
   </g>
   <g id="text_24">
    <g clip-path="url(#p13b21791c0)">
     <!-- ElectronTemperature -->
     <g transform="translate(135.859813 326.121167) scale(0.12 -0.12)">
      <use xlink:href="#DejaVuSans-45"/>
      <use xlink:href="#DejaVuSans-6c" transform="translate(63.183594 0)"/>
      <use xlink:href="#DejaVuSans-65" transform="translate(90.966797 0)"/>
      <use xlink:href="#DejaVuSans-63" transform="translate(152.490234 0)"/>
      <use xlink:href="#DejaVuSans-74" transform="translate(207.470703 0)"/>
      <use xlink:href="#DejaVuSans-72" transform="translate(246.679688 0)"/>
      <use xlink:href="#DejaVuSans-6f" transform="translate(285.542969 0)"/>
      <use xlink:href="#DejaVuSans-6e" transform="translate(346.724609 0)"/>
      <use xlink:href="#DejaVuSans-54" transform="translate(410.103516 0)"/>
      <use xlink:href="#DejaVuSans-65" transform="translate(454.1875 0)"/>
      <use xlink:href="#DejaVuSans-6d" transform="translate(515.710938 0)"/>
      <use xlink:href="#DejaVuSans-70" transform="translate(613.123047 0)"/>
      <use xlink:href="#DejaVuSans-65" transform="translate(676.599609 0)"/>
      <use xlink:href="#DejaVuSans-72" transform="translate(738.123047 0)"/>
      <use xlink:href="#DejaVuSans-61" transform="translate(779.236328 0)"/>
      <use xlink:href="#DejaVuSans-74" transform="translate(840.515625 0)"/>
      <use xlink:href="#DejaVuSans-75" transform="translate(879.724609 0)"/>
      <use xlink:href="#DejaVuSans-72" transform="translate(943.103516 0)"/>
      <use xlink:href="#DejaVuSans-65" transform="translate(981.966797 0)"/>
     </g>
    </g>
   </g>
   <g id="text_25">
    <g clip-path="url(#p13b21791c0)">
     <!-- LevelBoltzmannFactorLTE -->
     <g transform="translate(60.232944 259.44855) scale(0.12 -0.12)">
      <use xlink:href="#DejaVuSans-4c"/>
      <use xlink:href="#DejaVuSans-65" transform="translate(53.962891 0)"/>
      <use xlink:href="#DejaVuSans-76" transform="translate(115.486328 0)"/>
      <use xlink:href="#DejaVuSans-65" transform="translate(174.666016 0)"/>
      <use xlink:href="#DejaVuSans-6c" transform="translate(236.189453 0)"/>
      <use xlink:href="#DejaVuSans-42" transform="translate(263.972656 0)"/>
      <use xlink:href="#DejaVuSans-6f" transform="translate(332.576172 0)"/>
      <use xlink:href="#DejaVuSans-6c" transform="translate(393.757812 0)"/>
      <use xlink:href="#DejaVuSans-74" transform="translate(421.541016 0)"/>
      <use xlink:href="#DejaVuSans-7a" transform="translate(460.75 0)"/>
      <use xlink:href="#DejaVuSans-6d" transform="translate(513.240234 0)"/>
      <use xlink:href="#DejaVuSans-61" transform="translate(610.652344 0)"/>
      <use xlink:href="#DejaVuSans-6e" transform="translate(671.931641 0)"/>
      <use xlink:href="#DejaVuSans-6e" transform="translate(735.310547 0)"/>
      <use xlink:href="#DejaVuSans-46" transform="translate(798.689453 0)"/>
      <use xlink:href="#DejaVuSans-61" transform="translate(847.083984 0)"/>
      <use xlink:href="#DejaVuSans-63" transform="translate(908.363281 0)"/>
      <use xlink:href="#DejaVuSans-74" transform="translate(963.34375 0)"/>
      <use xlink:href="#DejaVuSans-6f" transform="translate(1002.552734 0)"/>
      <use xlink:href="#DejaVuSans-72" transform="translate(1063.734375 0)"/>
      <use xlink:href="#DejaVuSans-4c" transform="translate(1104.847656 0)"/>
      <use xlink:href="#DejaVuSans-54" transform="translate(1146.810547 0)"/>
      <use xlink:href="#DejaVuSans-45" transform="translate(1207.894531 0)"/>
     </g>
    </g>
   </g>
   <g id="text_26">
    <g clip-path="url(#p13b21791c0)">
     <!-- PhiSahaLTE -->
     <g transform="translate(382.71057 193.356849) scale(0.12 -0.12)">
      <defs>
       <path id="DejaVuSans-68" d="M 3513 2113 
L 3513 0 
L 2938 0 
L 2938 2094 
Q 2938 2591 2744 2837 
Q 2550 3084 2163 3084 
Q 1697 3084 1428 2787 
Q 1159 2491 1159 1978 
L 1159 0 
L 581 0 
L 581 4863 
L 1159 4863 
L 1159 2956 
Q 1366 3272 1645 3428 
Q 1925 3584 2291 3584 
Q 2894 3584 3203 3211 
Q 3513 2838 3513 2113 
z
" transform="scale(0.015625)"/>
      </defs>
      <use xlink:href="#DejaVuSans-50"/>
      <use xlink:href="#DejaVuSans-68" transform="translate(60.302734 0)"/>
      <use xlink:href="#DejaVuSans-69" transform="translate(123.681641 0)"/>
      <use xlink:href="#DejaVuSans-53" transform="translate(151.464844 0)"/>
      <use xlink:href="#DejaVuSans-61" transform="translate(214.941406 0)"/>
      <use xlink:href="#DejaVuSans-68" transform="translate(276.220703 0)"/>
      <use xlink:href="#DejaVuSans-61" transform="translate(339.599609 0)"/>
      <use xlink:href="#DejaVuSans-4c" transform="translate(400.878906 0)"/>
      <use xlink:href="#DejaVuSans-54" transform="translate(442.841797 0)"/>
      <use xlink:href="#DejaVuSans-45" transform="translate(503.925781 0)"/>
     </g>
    </g>
   </g>
   <g id="text_27">
    <g clip-path="url(#p13b21791c0)">
     <!-- LevelBoltzmannFactorNoNLTE -->
     <g transform="translate(202.22216 75.175037) scale(0.12 -0.12)">
      <use xlink:href="#DejaVuSans-4c"/>
      <use xlink:href="#DejaVuSans-65" transform="translate(53.962891 0)"/>
      <use xlink:href="#DejaVuSans-76" transform="translate(115.486328 0)"/>
      <use xlink:href="#DejaVuSans-65" transform="translate(174.666016 0)"/>
      <use xlink:href="#DejaVuSans-6c" transform="translate(236.189453 0)"/>
      <use xlink:href="#DejaVuSans-42" transform="translate(263.972656 0)"/>
      <use xlink:href="#DejaVuSans-6f" transform="translate(332.576172 0)"/>
      <use xlink:href="#DejaVuSans-6c" transform="translate(393.757812 0)"/>
      <use xlink:href="#DejaVuSans-74" transform="translate(421.541016 0)"/>
      <use xlink:href="#DejaVuSans-7a" transform="translate(460.75 0)"/>
      <use xlink:href="#DejaVuSans-6d" transform="translate(513.240234 0)"/>
      <use xlink:href="#DejaVuSans-61" transform="translate(610.652344 0)"/>
      <use xlink:href="#DejaVuSans-6e" transform="translate(671.931641 0)"/>
      <use xlink:href="#DejaVuSans-6e" transform="translate(735.310547 0)"/>
      <use xlink:href="#DejaVuSans-46" transform="translate(798.689453 0)"/>
      <use xlink:href="#DejaVuSans-61" transform="translate(847.083984 0)"/>
      <use xlink:href="#DejaVuSans-63" transform="translate(908.363281 0)"/>
      <use xlink:href="#DejaVuSans-74" transform="translate(963.34375 0)"/>
      <use xlink:href="#DejaVuSans-6f" transform="translate(1002.552734 0)"/>
      <use xlink:href="#DejaVuSans-72" transform="translate(1063.734375 0)"/>
      <use xlink:href="#DejaVuSans-4e" transform="translate(1104.847656 0)"/>
      <use xlink:href="#DejaVuSans-6f" transform="translate(1179.652344 0)"/>
      <use xlink:href="#DejaVuSans-4e" transform="translate(1240.833984 0)"/>
      <use xlink:href="#DejaVuSans-4c" transform="translate(1315.638672 0)"/>
      <use xlink:href="#DejaVuSans-54" transform="translate(1357.601562 0)"/>
      <use xlink:href="#DejaVuSans-45" transform="translate(1418.685547 0)"/>
     </g>
    </g>
   </g>
   <g id="text_28">
    <g clip-path="url(#p13b21791c0)">
     <!-- BetaSobolev -->
     <g transform="translate(390.305098 240.210557) scale(0.12 -0.12)">
      <use xlink:href="#DejaVuSans-42"/>
      <use xlink:href="#DejaVuSans-65" transform="translate(68.603516 0)"/>
      <use xlink:href="#DejaVuSans-74" transform="translate(130.126953 0)"/>
      <use xlink:href="#DejaVuSans-61" transform="translate(169.335938 0)"/>
      <use xlink:href="#DejaVuSans-53" transform="translate(230.615234 0)"/>
      <use xlink:href="#DejaVuSans-6f" transform="translate(294.091797 0)"/>
      <use xlink:href="#DejaVuSans-62" transform="translate(355.273438 0)"/>
      <use xlink:href="#DejaVuSans-6f" transform="translate(418.75 0)"/>
      <use xlink:href="#DejaVuSans-6c" transform="translate(479.931641 0)"/>
      <use xlink:href="#DejaVuSans-65" transform="translate(507.714844 0)"/>
      <use xlink:href="#DejaVuSans-76" transform="translate(569.238281 0)"/>
     </g>
    </g>
   </g>
   <g id="text_29">
    <g clip-path="url(#p13b21791c0)">
     <!-- TransitionProbabilities -->
     <g transform="translate(147.422833 40.501333) scale(0.12 -0.12)">
      <use xlink:href="#DejaVuSans-54"/>
      <use xlink:href="#DejaVuSans-72" transform="translate(46.333984 0)"/>
      <use xlink:href="#DejaVuSans-61" transform="translate(87.447266 0)"/>
      <use xlink:href="#DejaVuSans-6e" transform="translate(148.726562 0)"/>
      <use xlink:href="#DejaVuSans-73" transform="translate(212.105469 0)"/>
      <use xlink:href="#DejaVuSans-69" transform="translate(264.205078 0)"/>
      <use xlink:href="#DejaVuSans-74" transform="translate(291.988281 0)"/>
      <use xlink:href="#DejaVuSans-69" transform="translate(331.197266 0)"/>
      <use xlink:href="#DejaVuSans-6f" transform="translate(358.980469 0)"/>
      <use xlink:href="#DejaVuSans-6e" transform="translate(420.162109 0)"/>
      <use xlink:href="#DejaVuSans-50" transform="translate(483.541016 0)"/>
      <use xlink:href="#DejaVuSans-72" transform="translate(542.09375 0)"/>
      <use xlink:href="#DejaVuSans-6f" transform="translate(580.957031 0)"/>
      <use xlink:href="#DejaVuSans-62" transform="translate(642.138672 0)"/>
      <use xlink:href="#DejaVuSans-61" transform="translate(705.615234 0)"/>
      <use xlink:href="#DejaVuSans-62" transform="translate(766.894531 0)"/>
      <use xlink:href="#DejaVuSans-69" transform="translate(830.371094 0)"/>
      <use xlink:href="#DejaVuSans-6c" transform="translate(858.154297 0)"/>
      <use xlink:href="#DejaVuSans-69" transform="translate(885.9375 0)"/>
      <use xlink:href="#DejaVuSans-74" transform="translate(913.720703 0)"/>
      <use xlink:href="#DejaVuSans-69" transform="translate(952.929688 0)"/>
      <use xlink:href="#DejaVuSans-65" transform="translate(980.712891 0)"/>
      <use xlink:href="#DejaVuSans-73" transform="translate(1042.236328 0)"/>
     </g>
    </g>
   </g>
   <g id="text_30">
    <g clip-path="url(#p13b21791c0)">
     <!-- MacroAtomData -->
     <g transform="translate(327.405897 140.931449) scale(0.12 -0.12)">
      <defs>
       <path id="DejaVuSans-4d" d="M 628 4666 
L 1569 4666 
L 2759 1491 
L 3956 4666 
L 4897 4666 
L 4897 0 
L 4281 0 
L 4281 4097 
L 3078 897 
L 2444 897 
L 1241 4097 
L 1241 0 
L 628 0 
L 628 4666 
z
" transform="scale(0.015625)"/>
      </defs>
      <use xlink:href="#DejaVuSans-4d"/>
      <use xlink:href="#DejaVuSans-61" transform="translate(86.279297 0)"/>
      <use xlink:href="#DejaVuSans-63" transform="translate(147.558594 0)"/>
      <use xlink:href="#DejaVuSans-72" transform="translate(202.539062 0)"/>
      <use xlink:href="#DejaVuSans-6f" transform="translate(241.402344 0)"/>
      <use xlink:href="#DejaVuSans-41" transform="translate(302.583984 0)"/>
      <use xlink:href="#DejaVuSans-74" transform="translate(369.242188 0)"/>
      <use xlink:href="#DejaVuSans-6f" transform="translate(408.451172 0)"/>
      <use xlink:href="#DejaVuSans-6d" transform="translate(469.632812 0)"/>
      <use xlink:href="#DejaVuSans-44" transform="translate(567.044922 0)"/>
      <use xlink:href="#DejaVuSans-61" transform="translate(644.046875 0)"/>
      <use xlink:href="#DejaVuSans-74" transform="translate(705.326172 0)"/>
      <use xlink:href="#DejaVuSans-61" transform="translate(744.535156 0)"/>
     </g>
    </g>
   </g>
   <g id="text_31">
    <g clip-path="url(#p13b21791c0)">
     <!-- LevelNumberDensity -->
     <g transform="translate(8.079519 137.548844) scale(0.12 -0.12)">
      <use xlink:href="#DejaVuSans-4c"/>
      <use xlink:href="#DejaVuSans-65" transform="translate(53.962891 0)"/>
      <use xlink:href="#DejaVuSans-76" transform="translate(115.486328 0)"/>
      <use xlink:href="#DejaVuSans-65" transform="translate(174.666016 0)"/>
      <use xlink:href="#DejaVuSans-6c" transform="translate(236.189453 0)"/>
      <use xlink:href="#DejaVuSans-4e" transform="translate(263.972656 0)"/>
      <use xlink:href="#DejaVuSans-75" transform="translate(338.777344 0)"/>
      <use xlink:href="#DejaVuSans-6d" transform="translate(402.15625 0)"/>
      <use xlink:href="#DejaVuSans-62" transform="translate(499.568359 0)"/>
      <use xlink:href="#DejaVuSans-65" transform="translate(563.044922 0)"/>
      <use xlink:href="#DejaVuSans-72" transform="translate(624.568359 0)"/>
      <use xlink:href="#DejaVuSans-44" transform="translate(665.681641 0)"/>
      <use xlink:href="#DejaVuSans-65" transform="translate(742.683594 0)"/>
      <use xlink:href="#DejaVuSans-6e" transform="translate(804.207031 0)"/>
      <use xlink:href="#DejaVuSans-73" transform="translate(867.585938 0)"/>
      <use xlink:href="#DejaVuSans-69" transform="translate(919.685547 0)"/>
      <use xlink:href="#DejaVuSans-74" transform="translate(947.46875 0)"/>
      <use xlink:href="#DejaVuSans-79" transform="translate(986.677734 0)"/>
     </g>
    </g>
   </g>
   <g id="text_32">
    <g clip-path="url(#p13b21791c0)">
     <!-- IonNumberDensity -->
     <g transform="translate(319.849321 108.635534) scale(0.12 -0.12)">
      <use xlink:href="#DejaVuSans-49"/>
      <use xlink:href="#DejaVuSans-6f" transform="translate(29.492188 0)"/>
      <use xlink:href="#DejaVuSans-6e" transform="translate(90.673828 0)"/>
      <use xlink:href="#DejaVuSans-4e" transform="translate(154.052734 0)"/>
      <use xlink:href="#DejaVuSans-75" transform="translate(228.857422 0)"/>
      <use xlink:href="#DejaVuSans-6d" transform="translate(292.236328 0)"/>
      <use xlink:href="#DejaVuSans-62" transform="translate(389.648438 0)"/>
      <use xlink:href="#DejaVuSans-65" transform="translate(453.125 0)"/>
      <use xlink:href="#DejaVuSans-72" transform="translate(514.648438 0)"/>
      <use xlink:href="#DejaVuSans-44" transform="translate(555.761719 0)"/>
      <use xlink:href="#DejaVuSans-65" transform="translate(632.763672 0)"/>
      <use xlink:href="#DejaVuSans-6e" transform="translate(694.287109 0)"/>
      <use xlink:href="#DejaVuSans-73" transform="translate(757.666016 0)"/>
      <use xlink:href="#DejaVuSans-69" transform="translate(809.765625 0)"/>
      <use xlink:href="#DejaVuSans-74" transform="translate(837.548828 0)"/>
      <use xlink:href="#DejaVuSans-79" transform="translate(876.757812 0)"/>
     </g>
    </g>
   </g>
  </g>
 </g>
 <defs>
  <clipPath id="p13b21791c0">
   <rect x="7.2" y="7.2" width="460.8" height="345.6"/>
  </clipPath>
 </defs>
</svg>
