<?xml version="1.0" encoding="utf-8" standalone="no"?>
<!DOCTYPE svg PUBLIC "-//W3C//DTD SVG 1.1//EN"
  "http://www.w3.org/Graphics/SVG/1.1/DTD/svg11.dtd">
<svg xmlns:xlink="http://www.w3.org/1999/xlink" width="408.10125pt" height="310.86825pt" viewBox="0 0 408.10125 310.86825" xmlns="http://www.w3.org/2000/svg" version="1.1">
 <metadata>
  <rdf:RDF xmlns:dc="http://purl.org/dc/elements/1.1/" xmlns:cc="http://creativecommons.org/ns#" xmlns:rdf="http://www.w3.org/1999/02/22-rdf-syntax-ns#">
   <cc:Work>
    <dc:type rdf:resource="http://purl.org/dc/dcmitype/StillImage"/>
    <dc:date>2025-11-16T01:20:31.888831</dc:date>
    <dc:format>image/svg+xml</dc:format>
    <dc:creator>
     <cc:Agent>
      <dc:title>Matplotlib v3.10.3, https://matplotlib.org/</dc:title>
     </cc:Agent>
    </dc:creator>
   </cc:Work>
  </rdf:RDF>
 </metadata>
 <defs>
  <style type="text/css">*{stroke-linejoin: round; stroke-linecap: butt}</style>
 </defs>
 <g id="figure_1">
  <g id="patch_1">
   <path d="M 0 310.86825 
L 408.10125 310.86825 
L 408.10125 0 
L 0 0 
z
" style="fill: #ffffff"/>
  </g>
  <g id="axes_1">
   <g id="patch_2">
    <path d="M 43.78125 273.312 
L 400.90125 273.312 
L 400.90125 7.2 
L 43.78125 7.2 
z
" style="fill: #ffffff"/>
   </g>
   <g id="patch_3">
    <path d="M 60.385208 273.312 
L 61.998848 273.312 
L 61.998848 271.872 
L 60.385208 271.872 
z
" clip-path="url(#p0c376fd929)" style="fill: #1f77b4"/>
   </g>
   <g id="patch_4">
    <path d="M 61.998848 273.312 
L 63.612489 273.312 
L 63.612489 266.832 
L 61.998848 266.832 
z
" clip-path="url(#p0c376fd929)" style="fill: #1f77b4"/>
   </g>
   <g id="patch_5">
    <path d="M 63.612489 273.312 
L 65.22613 273.312 
L 65.22613 263.952 
L 63.612489 263.952 
z
" clip-path="url(#p0c376fd929)" style="fill: #1f77b4"/>
   </g>
   <g id="patch_6">
    <path d="M 65.22613 273.312 
L 66.839771 273.312 
L 66.839771 258.192 
L 65.22613 258.192 
z
" clip-path="url(#p0c376fd929)" style="fill: #1f77b4"/>
   </g>
   <g id="patch_7">
    <path d="M 66.839771 273.312 
L 68.453412 273.312 
L 68.453412 258.192 
L 66.839771 258.192 
z
" clip-path="url(#p0c376fd929)" style="fill: #1f77b4"/>
   </g>
   <g id="patch_8">
    <path d="M 68.453412 273.312 
L 70.067053 273.312 
L 70.067053 252.432 
L 68.453412 252.432 
z
" clip-path="url(#p0c376fd929)" style="fill: #1f77b4"/>
   </g>
   <g id="patch_9">
    <path d="M 70.067053 273.312 
L 71.680694 273.312 
L 71.680694 252.432 
L 70.067053 252.432 
z
" clip-path="url(#p0c376fd929)" style="fill: #1f77b4"/>
   </g>
   <g id="patch_10">
    <path d="M 71.680694 273.312 
L 73.294334 273.312 
L 73.294334 236.592 
L 71.680694 236.592 
z
" clip-path="url(#p0c376fd929)" style="fill: #1f77b4"/>
   </g>
   <g id="patch_11">
    <path d="M 73.294334 273.312 
L 74.907975 273.312 
L 74.907975 240.192 
L 73.294334 240.192 
z
" clip-path="url(#p0c376fd929)" style="fill: #1f77b4"/>
   </g>
   <g id="patch_12">
    <path d="M 74.907975 273.312 
L 76.521616 273.312 
L 76.521616 237.312 
L 74.907975 237.312 
z
" clip-path="url(#p0c376fd929)" style="fill: #1f77b4"/>
   </g>
   <g id="patch_13">
    <path d="M 76.521616 273.312 
L 78.135257 273.312 
L 78.135257 238.032 
L 76.521616 238.032 
z
" clip-path="url(#p0c376fd929)" style="fill: #1f77b4"/>
   </g>
   <g id="patch_14">
    <path d="M 78.135257 273.312 
L 79.748898 273.312 
L 79.748898 239.472 
L 78.135257 239.472 
z
" clip-path="url(#p0c376fd929)" style="fill: #1f77b4"/>
   </g>
   <g id="patch_15">
    <path d="M 79.748898 273.312 
L 81.362539 273.312 
L 81.362539 235.872 
L 79.748898 235.872 
z
" clip-path="url(#p0c376fd929)" style="fill: #1f77b4"/>
   </g>
   <g id="patch_16">
    <path d="M 81.362539 273.312 
L 82.97618 273.312 
L 82.97618 220.752 
L 81.362539 220.752 
z
" clip-path="url(#p0c376fd929)" style="fill: #1f77b4"/>
   </g>
   <g id="patch_17">
    <path d="M 82.97618 273.312 
L 84.589821 273.312 
L 84.589821 232.272 
L 82.97618 232.272 
z
" clip-path="url(#p0c376fd929)" style="fill: #1f77b4"/>
   </g>
   <g id="patch_18">
    <path d="M 84.589821 273.312 
L 86.203461 273.312 
L 86.203461 206.352 
L 84.589821 206.352 
z
" clip-path="url(#p0c376fd929)" style="fill: #1f77b4"/>
   </g>
   <g id="patch_19">
    <path d="M 86.203461 273.312 
L 87.817102 273.312 
L 87.817102 203.472 
L 86.203461 203.472 
z
" clip-path="url(#p0c376fd929)" style="fill: #1f77b4"/>
   </g>
   <g id="patch_20">
    <path d="M 87.817102 273.312 
L 89.430743 273.312 
L 89.430743 215.712 
L 87.817102 215.712 
z
" clip-path="url(#p0c376fd929)" style="fill: #1f77b4"/>
   </g>
   <g id="patch_21">
    <path d="M 89.430743 273.312 
L 91.044384 273.312 
L 91.044384 213.552 
L 89.430743 213.552 
z
" clip-path="url(#p0c376fd929)" style="fill: #1f77b4"/>
   </g>
   <g id="patch_22">
    <path d="M 91.044384 273.312 
L 92.658025 273.312 
L 92.658025 208.512 
L 91.044384 208.512 
z
" clip-path="url(#p0c376fd929)" style="fill: #1f77b4"/>
   </g>
   <g id="patch_23">
    <path d="M 92.658025 273.312 
L 94.271666 273.312 
L 94.271666 194.112 
L 92.658025 194.112 
z
" clip-path="url(#p0c376fd929)" style="fill: #1f77b4"/>
   </g>
   <g id="patch_24">
    <path d="M 94.271666 273.312 
L 95.885307 273.312 
L 95.885307 202.032 
L 94.271666 202.032 
z
" clip-path="url(#p0c376fd929)" style="fill: #1f77b4"/>
   </g>
   <g id="patch_25">
    <path d="M 95.885307 273.312 
L 97.498947 273.312 
L 97.498947 204.192 
L 95.885307 204.192 
z
" clip-path="url(#p0c376fd929)" style="fill: #1f77b4"/>
   </g>
   <g id="patch_26">
    <path d="M 97.498947 273.312 
L 99.112588 273.312 
L 99.112588 194.112 
L 97.498947 194.112 
z
" clip-path="url(#p0c376fd929)" style="fill: #1f77b4"/>
   </g>
   <g id="patch_27">
    <path d="M 99.112588 273.312 
L 100.726229 273.312 
L 100.726229 187.632 
L 99.112588 187.632 
z
" clip-path="url(#p0c376fd929)" style="fill: #1f77b4"/>
   </g>
   <g id="patch_28">
    <path d="M 100.726229 273.312 
L 102.33987 273.312 
L 102.33987 171.792 
L 100.726229 171.792 
z
" clip-path="url(#p0c376fd929)" style="fill: #1f77b4"/>
   </g>
   <g id="patch_29">
    <path d="M 102.33987 273.312 
L 103.953511 273.312 
L 103.953511 188.352 
L 102.33987 188.352 
z
" clip-path="url(#p0c376fd929)" style="fill: #1f77b4"/>
   </g>
   <g id="patch_30">
    <path d="M 103.953511 273.312 
L 105.567152 273.312 
L 105.567152 181.872 
L 103.953511 181.872 
z
" clip-path="url(#p0c376fd929)" style="fill: #1f77b4"/>
   </g>
   <g id="patch_31">
    <path d="M 105.567152 273.312 
L 107.180793 273.312 
L 107.180793 178.272 
L 105.567152 178.272 
z
" clip-path="url(#p0c376fd929)" style="fill: #1f77b4"/>
   </g>
   <g id="patch_32">
    <path d="M 107.180793 273.312 
L 108.794433 273.312 
L 108.794433 166.032 
L 107.180793 166.032 
z
" clip-path="url(#p0c376fd929)" style="fill: #1f77b4"/>
   </g>
   <g id="patch_33">
    <path d="M 108.794433 273.312 
L 110.408074 273.312 
L 110.408074 163.872 
L 108.794433 163.872 
z
" clip-path="url(#p0c376fd929)" style="fill: #1f77b4"/>
   </g>
   <g id="patch_34">
    <path d="M 110.408074 273.312 
L 112.021715 273.312 
L 112.021715 160.272 
L 110.408074 160.272 
z
" clip-path="url(#p0c376fd929)" style="fill: #1f77b4"/>
   </g>
   <g id="patch_35">
    <path d="M 112.021715 273.312 
L 113.635356 273.312 
L 113.635356 161.712 
L 112.021715 161.712 
z
" clip-path="url(#p0c376fd929)" style="fill: #1f77b4"/>
   </g>
   <g id="patch_36">
    <path d="M 113.635356 273.312 
L 115.248997 273.312 
L 115.248997 142.272 
L 113.635356 142.272 
z
" clip-path="url(#p0c376fd929)" style="fill: #1f77b4"/>
   </g>
   <g id="patch_37">
    <path d="M 115.248997 273.312 
L 116.862638 273.312 
L 116.862638 161.712 
L 115.248997 161.712 
z
" clip-path="url(#p0c376fd929)" style="fill: #1f77b4"/>
   </g>
   <g id="patch_38">
    <path d="M 116.862638 273.312 
L 118.476279 273.312 
L 118.476279 155.232 
L 116.862638 155.232 
z
" clip-path="url(#p0c376fd929)" style="fill: #1f77b4"/>
   </g>
   <g id="patch_39">
    <path d="M 118.476279 273.312 
L 120.08992 273.312 
L 120.08992 163.872 
L 118.476279 163.872 
z
" clip-path="url(#p0c376fd929)" style="fill: #1f77b4"/>
   </g>
   <g id="patch_40">
    <path d="M 120.08992 273.312 
L 121.70356 273.312 
L 121.70356 157.392 
L 120.08992 157.392 
z
" clip-path="url(#p0c376fd929)" style="fill: #1f77b4"/>
   </g>
   <g id="patch_41">
    <path d="M 121.70356 273.312 
L 123.317201 273.312 
L 123.317201 124.272 
L 121.70356 124.272 
z
" clip-path="url(#p0c376fd929)" style="fill: #1f77b4"/>
   </g>
   <g id="patch_42">
    <path d="M 123.317201 273.312 
L 124.930842 273.312 
L 124.930842 137.232 
L 123.317201 137.232 
z
" clip-path="url(#p0c376fd929)" style="fill: #1f77b4"/>
   </g>
   <g id="patch_43">
    <path d="M 124.930842 273.312 
L 126.544483 273.312 
L 126.544483 145.152 
L 124.930842 145.152 
z
" clip-path="url(#p0c376fd929)" style="fill: #1f77b4"/>
   </g>
   <g id="patch_44">
    <path d="M 126.544483 273.312 
L 128.158124 273.312 
L 128.158124 130.032 
L 126.544483 130.032 
z
" clip-path="url(#p0c376fd929)" style="fill: #1f77b4"/>
   </g>
   <g id="patch_45">
    <path d="M 128.158124 273.312 
L 129.771765 273.312 
L 129.771765 148.032 
L 128.158124 148.032 
z
" clip-path="url(#p0c376fd929)" style="fill: #1f77b4"/>
   </g>
   <g id="patch_46">
    <path d="M 129.771765 273.312 
L 131.385406 273.312 
L 131.385406 137.232 
L 129.771765 137.232 
z
" clip-path="url(#p0c376fd929)" style="fill: #1f77b4"/>
   </g>
   <g id="patch_47">
    <path d="M 131.385406 273.312 
L 132.999046 273.312 
L 132.999046 123.552 
L 131.385406 123.552 
z
" clip-path="url(#p0c376fd929)" style="fill: #1f77b4"/>
   </g>
   <g id="patch_48">
    <path d="M 132.999046 273.312 
L 134.612687 273.312 
L 134.612687 108.432 
L 132.999046 108.432 
z
" clip-path="url(#p0c376fd929)" style="fill: #1f77b4"/>
   </g>
   <g id="patch_49">
    <path d="M 134.612687 273.312 
L 136.226328 273.312 
L 136.226328 117.072 
L 134.612687 117.072 
z
" clip-path="url(#p0c376fd929)" style="fill: #1f77b4"/>
   </g>
   <g id="patch_50">
    <path d="M 136.226328 273.312 
L 137.839969 273.312 
L 137.839969 114.912 
L 136.226328 114.912 
z
" clip-path="url(#p0c376fd929)" style="fill: #1f77b4"/>
   </g>
   <g id="patch_51">
    <path d="M 137.839969 273.312 
L 139.45361 273.312 
L 139.45361 129.312 
L 137.839969 129.312 
z
" clip-path="url(#p0c376fd929)" style="fill: #1f77b4"/>
   </g>
   <g id="patch_52">
    <path d="M 139.45361 273.312 
L 141.067251 273.312 
L 141.067251 115.632 
L 139.45361 115.632 
z
" clip-path="url(#p0c376fd929)" style="fill: #1f77b4"/>
   </g>
   <g id="patch_53">
    <path d="M 141.067251 273.312 
L 142.680892 273.312 
L 142.680892 133.632 
L 141.067251 133.632 
z
" clip-path="url(#p0c376fd929)" style="fill: #1f77b4"/>
   </g>
   <g id="patch_54">
    <path d="M 142.680892 273.312 
L 144.294533 273.312 
L 144.294533 106.992 
L 142.680892 106.992 
z
" clip-path="url(#p0c376fd929)" style="fill: #1f77b4"/>
   </g>
   <g id="patch_55">
    <path d="M 144.294533 273.312 
L 145.908173 273.312 
L 145.908173 112.032 
L 144.294533 112.032 
z
" clip-path="url(#p0c376fd929)" style="fill: #1f77b4"/>
   </g>
   <g id="patch_56">
    <path d="M 145.908173 273.312 
L 147.521814 273.312 
L 147.521814 97.632 
L 145.908173 97.632 
z
" clip-path="url(#p0c376fd929)" style="fill: #1f77b4"/>
   </g>
   <g id="patch_57">
    <path d="M 147.521814 273.312 
L 149.135455 273.312 
L 149.135455 104.112 
L 147.521814 104.112 
z
" clip-path="url(#p0c376fd929)" style="fill: #1f77b4"/>
   </g>
   <g id="patch_58">
    <path d="M 149.135455 273.312 
L 150.749096 273.312 
L 150.749096 73.152 
L 149.135455 73.152 
z
" clip-path="url(#p0c376fd929)" style="fill: #1f77b4"/>
   </g>
   <g id="patch_59">
    <path d="M 150.749096 273.312 
L 152.362737 273.312 
L 152.362737 101.952 
L 150.749096 101.952 
z
" clip-path="url(#p0c376fd929)" style="fill: #1f77b4"/>
   </g>
   <g id="patch_60">
    <path d="M 152.362737 273.312 
L 153.976378 273.312 
L 153.976378 100.512 
L 152.362737 100.512 
z
" clip-path="url(#p0c376fd929)" style="fill: #1f77b4"/>
   </g>
   <g id="patch_61">
    <path d="M 153.976378 273.312 
L 155.590019 273.312 
L 155.590019 88.272 
L 153.976378 88.272 
z
" clip-path="url(#p0c376fd929)" style="fill: #1f77b4"/>
   </g>
   <g id="patch_62">
    <path d="M 155.590019 273.312 
L 157.203659 273.312 
L 157.203659 101.952 
L 155.590019 101.952 
z
" clip-path="url(#p0c376fd929)" style="fill: #1f77b4"/>
   </g>
   <g id="patch_63">
    <path d="M 157.203659 273.312 
L 158.8173 273.312 
L 158.8173 73.872 
L 157.203659 73.872 
z
" clip-path="url(#p0c376fd929)" style="fill: #1f77b4"/>
   </g>
   <g id="patch_64">
    <path d="M 158.8173 273.312 
L 160.430941 273.312 
L 160.430941 89.712 
L 158.8173 89.712 
z
" clip-path="url(#p0c376fd929)" style="fill: #1f77b4"/>
   </g>
   <g id="patch_65">
    <path d="M 160.430941 273.312 
L 162.044582 273.312 
L 162.044582 88.272 
L 160.430941 88.272 
z
" clip-path="url(#p0c376fd929)" style="fill: #1f77b4"/>
   </g>
   <g id="patch_66">
    <path d="M 162.044582 273.312 
L 163.658223 273.312 
L 163.658223 72.432 
L 162.044582 72.432 
z
" clip-path="url(#p0c376fd929)" style="fill: #1f77b4"/>
   </g>
   <g id="patch_67">
    <path d="M 163.658223 273.312 
L 165.271864 273.312 
L 165.271864 79.632 
L 163.658223 79.632 
z
" clip-path="url(#p0c376fd929)" style="fill: #1f77b4"/>
   </g>
   <g id="patch_68">
    <path d="M 165.271864 273.312 
L 166.885505 273.312 
L 166.885505 79.632 
L 165.271864 79.632 
z
" clip-path="url(#p0c376fd929)" style="fill: #1f77b4"/>
   </g>
   <g id="patch_69">
    <path d="M 166.885505 273.312 
L 168.499145 273.312 
L 168.499145 70.992 
L 166.885505 70.992 
z
" clip-path="url(#p0c376fd929)" style="fill: #1f77b4"/>
   </g>
   <g id="patch_70">
    <path d="M 168.499145 273.312 
L 170.112786 273.312 
L 170.112786 78.912 
L 168.499145 78.912 
z
" clip-path="url(#p0c376fd929)" style="fill: #1f77b4"/>
   </g>
   <g id="patch_71">
    <path d="M 170.112786 273.312 
L 171.726427 273.312 
L 171.726427 63.072 
L 170.112786 63.072 
z
" clip-path="url(#p0c376fd929)" style="fill: #1f77b4"/>
   </g>
   <g id="patch_72">
    <path d="M 171.726427 273.312 
L 173.340068 273.312 
L 173.340068 73.872 
L 171.726427 73.872 
z
" clip-path="url(#p0c376fd929)" style="fill: #1f77b4"/>
   </g>
   <g id="patch_73">
    <path d="M 173.340068 273.312 
L 174.953709 273.312 
L 174.953709 65.232 
L 173.340068 65.232 
z
" clip-path="url(#p0c376fd929)" style="fill: #1f77b4"/>
   </g>
   <g id="patch_74">
    <path d="M 174.953709 273.312 
L 176.56735 273.312 
L 176.56735 98.352 
L 174.953709 98.352 
z
" clip-path="url(#p0c376fd929)" style="fill: #1f77b4"/>
   </g>
   <g id="patch_75">
    <path d="M 176.56735 273.312 
L 178.180991 273.312 
L 178.180991 67.392 
L 176.56735 67.392 
z
" clip-path="url(#p0c376fd929)" style="fill: #1f77b4"/>
   </g>
   <g id="patch_76">
    <path d="M 178.180991 273.312 
L 179.794632 273.312 
L 179.794632 68.112 
L 178.180991 68.112 
z
" clip-path="url(#p0c376fd929)" style="fill: #1f77b4"/>
   </g>
   <g id="patch_77">
    <path d="M 179.794632 273.312 
L 181.408272 273.312 
L 181.408272 76.032 
L 179.794632 76.032 
z
" clip-path="url(#p0c376fd929)" style="fill: #1f77b4"/>
   </g>
   <g id="patch_78">
    <path d="M 181.408272 273.312 
L 183.021913 273.312 
L 183.021913 62.352 
L 181.408272 62.352 
z
" clip-path="url(#p0c376fd929)" style="fill: #1f77b4"/>
   </g>
   <g id="patch_79">
    <path d="M 183.021913 273.312 
L 184.635554 273.312 
L 184.635554 51.552 
L 183.021913 51.552 
z
" clip-path="url(#p0c376fd929)" style="fill: #1f77b4"/>
   </g>
   <g id="patch_80">
    <path d="M 184.635554 273.312 
L 186.249195 273.312 
L 186.249195 72.432 
L 184.635554 72.432 
z
" clip-path="url(#p0c376fd929)" style="fill: #1f77b4"/>
   </g>
   <g id="patch_81">
    <path d="M 186.249195 273.312 
L 187.862836 273.312 
L 187.862836 65.232 
L 186.249195 65.232 
z
" clip-path="url(#p0c376fd929)" style="fill: #1f77b4"/>
   </g>
   <g id="patch_82">
    <path d="M 187.862836 273.312 
L 189.476477 273.312 
L 189.476477 76.032 
L 187.862836 76.032 
z
" clip-path="url(#p0c376fd929)" style="fill: #1f77b4"/>
   </g>
   <g id="patch_83">
    <path d="M 189.476477 273.312 
L 191.090118 273.312 
L 191.090118 73.872 
L 189.476477 73.872 
z
" clip-path="url(#p0c376fd929)" style="fill: #1f77b4"/>
   </g>
   <g id="patch_84">
    <path d="M 191.090118 273.312 
L 192.703758 273.312 
L 192.703758 60.912 
L 191.090118 60.912 
z
" clip-path="url(#p0c376fd929)" style="fill: #1f77b4"/>
   </g>
   <g id="patch_85">
    <path d="M 192.703758 273.312 
L 194.317399 273.312 
L 194.317399 53.712 
L 192.703758 53.712 
z
" clip-path="url(#p0c376fd929)" style="fill: #1f77b4"/>
   </g>
   <g id="patch_86">
    <path d="M 194.317399 273.312 
L 195.93104 273.312 
L 195.93104 67.392 
L 194.317399 67.392 
z
" clip-path="url(#p0c376fd929)" style="fill: #1f77b4"/>
   </g>
   <g id="patch_87">
    <path d="M 195.93104 273.312 
L 197.544681 273.312 
L 197.544681 61.632 
L 195.93104 61.632 
z
" clip-path="url(#p0c376fd929)" style="fill: #1f77b4"/>
   </g>
   <g id="patch_88">
    <path d="M 197.544681 273.312 
L 199.158322 273.312 
L 199.158322 47.952 
L 197.544681 47.952 
z
" clip-path="url(#p0c376fd929)" style="fill: #1f77b4"/>
   </g>
   <g id="patch_89">
    <path d="M 199.158322 273.312 
L 200.771963 273.312 
L 200.771963 55.152 
L 199.158322 55.152 
z
" clip-path="url(#p0c376fd929)" style="fill: #1f77b4"/>
   </g>
   <g id="patch_90">
    <path d="M 200.771963 273.312 
L 202.385604 273.312 
L 202.385604 50.112 
L 200.771963 50.112 
z
" clip-path="url(#p0c376fd929)" style="fill: #1f77b4"/>
   </g>
   <g id="patch_91">
    <path d="M 202.385604 273.312 
L 203.999244 273.312 
L 203.999244 65.952 
L 202.385604 65.952 
z
" clip-path="url(#p0c376fd929)" style="fill: #1f77b4"/>
   </g>
   <g id="patch_92">
    <path d="M 203.999244 273.312 
L 205.612885 273.312 
L 205.612885 72.432 
L 203.999244 72.432 
z
" clip-path="url(#p0c376fd929)" style="fill: #1f77b4"/>
   </g>
   <g id="patch_93">
    <path d="M 205.612885 273.312 
L 207.226526 273.312 
L 207.226526 45.072 
L 205.612885 45.072 
z
" clip-path="url(#p0c376fd929)" style="fill: #1f77b4"/>
   </g>
   <g id="patch_94">
    <path d="M 207.226526 273.312 
L 208.840167 273.312 
L 208.840167 44.352 
L 207.226526 44.352 
z
" clip-path="url(#p0c376fd929)" style="fill: #1f77b4"/>
   </g>
   <g id="patch_95">
    <path d="M 208.840167 273.312 
L 210.453808 273.312 
L 210.453808 47.952 
L 208.840167 47.952 
z
" clip-path="url(#p0c376fd929)" style="fill: #1f77b4"/>
   </g>
   <g id="patch_96">
    <path d="M 210.453808 273.312 
L 212.067449 273.312 
L 212.067449 90.432 
L 210.453808 90.432 
z
" clip-path="url(#p0c376fd929)" style="fill: #1f77b4"/>
   </g>
   <g id="patch_97">
    <path d="M 212.067449 273.312 
L 213.68109 273.312 
L 213.68109 47.952 
L 212.067449 47.952 
z
" clip-path="url(#p0c376fd929)" style="fill: #1f77b4"/>
   </g>
   <g id="patch_98">
    <path d="M 213.68109 273.312 
L 215.294731 273.312 
L 215.294731 79.632 
L 213.68109 79.632 
z
" clip-path="url(#p0c376fd929)" style="fill: #1f77b4"/>
   </g>
   <g id="patch_99">
    <path d="M 215.294731 273.312 
L 216.908371 273.312 
L 216.908371 50.112 
L 215.294731 50.112 
z
" clip-path="url(#p0c376fd929)" style="fill: #1f77b4"/>
   </g>
   <g id="patch_100">
    <path d="M 216.908371 273.312 
L 218.522012 273.312 
L 218.522012 42.192 
L 216.908371 42.192 
z
" clip-path="url(#p0c376fd929)" style="fill: #1f77b4"/>
   </g>
   <g id="patch_101">
    <path d="M 218.522012 273.312 
L 220.135653 273.312 
L 220.135653 40.032 
L 218.522012 40.032 
z
" clip-path="url(#p0c376fd929)" style="fill: #1f77b4"/>
   </g>
   <g id="patch_102">
    <path d="M 220.135653 273.312 
L 221.749294 273.312 
L 221.749294 58.752 
L 220.135653 58.752 
z
" clip-path="url(#p0c376fd929)" style="fill: #1f77b4"/>
   </g>
   <g id="patch_103">
    <path d="M 221.749294 273.312 
L 223.362935 273.312 
L 223.362935 48.672 
L 221.749294 48.672 
z
" clip-path="url(#p0c376fd929)" style="fill: #1f77b4"/>
   </g>
   <g id="patch_104">
    <path d="M 223.362935 273.312 
L 224.976576 273.312 
L 224.976576 19.872 
L 223.362935 19.872 
z
" clip-path="url(#p0c376fd929)" style="fill: #1f77b4"/>
   </g>
   <g id="patch_105">
    <path d="M 224.976576 273.312 
L 226.590217 273.312 
L 226.590217 51.552 
L 224.976576 51.552 
z
" clip-path="url(#p0c376fd929)" style="fill: #1f77b4"/>
   </g>
   <g id="patch_106">
    <path d="M 226.590217 273.312 
L 228.203857 273.312 
L 228.203857 28.512 
L 226.590217 28.512 
z
" clip-path="url(#p0c376fd929)" style="fill: #1f77b4"/>
   </g>
   <g id="patch_107">
    <path d="M 228.203857 273.312 
L 229.817498 273.312 
L 229.817498 37.152 
L 228.203857 37.152 
z
" clip-path="url(#p0c376fd929)" style="fill: #1f77b4"/>
   </g>
   <g id="patch_108">
    <path d="M 229.817498 273.312 
L 231.431139 273.312 
L 231.431139 58.752 
L 229.817498 58.752 
z
" clip-path="url(#p0c376fd929)" style="fill: #1f77b4"/>
   </g>
   <g id="patch_109">
    <path d="M 231.431139 273.312 
L 233.04478 273.312 
L 233.04478 50.832 
L 231.431139 50.832 
z
" clip-path="url(#p0c376fd929)" style="fill: #1f77b4"/>
   </g>
   <g id="patch_110">
    <path d="M 233.04478 273.312 
L 234.658421 273.312 
L 234.658421 66.672 
L 233.04478 66.672 
z
" clip-path="url(#p0c376fd929)" style="fill: #1f77b4"/>
   </g>
   <g id="patch_111">
    <path d="M 234.658421 273.312 
L 236.272062 273.312 
L 236.272062 50.112 
L 234.658421 50.112 
z
" clip-path="url(#p0c376fd929)" style="fill: #1f77b4"/>
   </g>
   <g id="patch_112">
    <path d="M 236.272062 273.312 
L 237.885703 273.312 
L 237.885703 61.632 
L 236.272062 61.632 
z
" clip-path="url(#p0c376fd929)" style="fill: #1f77b4"/>
   </g>
   <g id="patch_113">
    <path d="M 237.885703 273.312 
L 239.499344 273.312 
L 239.499344 41.472 
L 237.885703 41.472 
z
" clip-path="url(#p0c376fd929)" style="fill: #1f77b4"/>
   </g>
   <g id="patch_114">
    <path d="M 239.499344 273.312 
L 241.112984 273.312 
L 241.112984 54.432 
L 239.499344 54.432 
z
" clip-path="url(#p0c376fd929)" style="fill: #1f77b4"/>
   </g>
   <g id="patch_115">
    <path d="M 241.112984 273.312 
L 242.726625 273.312 
L 242.726625 69.552 
L 241.112984 69.552 
z
" clip-path="url(#p0c376fd929)" style="fill: #1f77b4"/>
   </g>
   <g id="patch_116">
    <path d="M 242.726625 273.312 
L 244.340266 273.312 
L 244.340266 58.032 
L 242.726625 58.032 
z
" clip-path="url(#p0c376fd929)" style="fill: #1f77b4"/>
   </g>
   <g id="patch_117">
    <path d="M 244.340266 273.312 
L 245.953907 273.312 
L 245.953907 71.712 
L 244.340266 71.712 
z
" clip-path="url(#p0c376fd929)" style="fill: #1f77b4"/>
   </g>
   <g id="patch_118">
    <path d="M 245.953907 273.312 
L 247.567548 273.312 
L 247.567548 60.192 
L 245.953907 60.192 
z
" clip-path="url(#p0c376fd929)" style="fill: #1f77b4"/>
   </g>
   <g id="patch_119">
    <path d="M 247.567548 273.312 
L 249.181189 273.312 
L 249.181189 61.632 
L 247.567548 61.632 
z
" clip-path="url(#p0c376fd929)" style="fill: #1f77b4"/>
   </g>
   <g id="patch_120">
    <path d="M 249.181189 273.312 
L 250.79483 273.312 
L 250.79483 48.672 
L 249.181189 48.672 
z
" clip-path="url(#p0c376fd929)" style="fill: #1f77b4"/>
   </g>
   <g id="patch_121">
    <path d="M 250.79483 273.312 
L 252.40847 273.312 
L 252.40847 45.072 
L 250.79483 45.072 
z
" clip-path="url(#p0c376fd929)" style="fill: #1f77b4"/>
   </g>
   <g id="patch_122">
    <path d="M 252.40847 273.312 
L 254.022111 273.312 
L 254.022111 59.472 
L 252.40847 59.472 
z
" clip-path="url(#p0c376fd929)" style="fill: #1f77b4"/>
   </g>
   <g id="patch_123">
    <path d="M 254.022111 273.312 
L 255.635752 273.312 
L 255.635752 84.672 
L 254.022111 84.672 
z
" clip-path="url(#p0c376fd929)" style="fill: #1f77b4"/>
   </g>
   <g id="patch_124">
    <path d="M 255.635752 273.312 
L 257.249393 273.312 
L 257.249393 63.072 
L 255.635752 63.072 
z
" clip-path="url(#p0c376fd929)" style="fill: #1f77b4"/>
   </g>
   <g id="patch_125">
    <path d="M 257.249393 273.312 
L 258.863034 273.312 
L 258.863034 59.472 
L 257.249393 59.472 
z
" clip-path="url(#p0c376fd929)" style="fill: #1f77b4"/>
   </g>
   <g id="patch_126">
    <path d="M 258.863034 273.312 
L 260.476675 273.312 
L 260.476675 81.792 
L 258.863034 81.792 
z
" clip-path="url(#p0c376fd929)" style="fill: #1f77b4"/>
   </g>
   <g id="patch_127">
    <path d="M 260.476675 273.312 
L 262.090316 273.312 
L 262.090316 78.912 
L 260.476675 78.912 
z
" clip-path="url(#p0c376fd929)" style="fill: #1f77b4"/>
   </g>
   <g id="patch_128">
    <path d="M 262.090316 273.312 
L 263.703956 273.312 
L 263.703956 83.952 
L 262.090316 83.952 
z
" clip-path="url(#p0c376fd929)" style="fill: #1f77b4"/>
   </g>
   <g id="patch_129">
    <path d="M 263.703956 273.312 
L 265.317597 273.312 
L 265.317597 63.792 
L 263.703956 63.792 
z
" clip-path="url(#p0c376fd929)" style="fill: #1f77b4"/>
   </g>
   <g id="patch_130">
    <path d="M 265.317597 273.312 
L 266.931238 273.312 
L 266.931238 75.312 
L 265.317597 75.312 
z
" clip-path="url(#p0c376fd929)" style="fill: #1f77b4"/>
   </g>
   <g id="patch_131">
    <path d="M 266.931238 273.312 
L 268.544879 273.312 
L 268.544879 64.512 
L 266.931238 64.512 
z
" clip-path="url(#p0c376fd929)" style="fill: #1f77b4"/>
   </g>
   <g id="patch_132">
    <path d="M 268.544879 273.312 
L 270.15852 273.312 
L 270.15852 86.112 
L 268.544879 86.112 
z
" clip-path="url(#p0c376fd929)" style="fill: #1f77b4"/>
   </g>
   <g id="patch_133">
    <path d="M 270.15852 273.312 
L 271.772161 273.312 
L 271.772161 90.432 
L 270.15852 90.432 
z
" clip-path="url(#p0c376fd929)" style="fill: #1f77b4"/>
   </g>
   <g id="patch_134">
    <path d="M 271.772161 273.312 
L 273.385802 273.312 
L 273.385802 99.792 
L 271.772161 99.792 
z
" clip-path="url(#p0c376fd929)" style="fill: #1f77b4"/>
   </g>
   <g id="patch_135">
    <path d="M 273.385802 273.312 
L 274.999443 273.312 
L 274.999443 68.832 
L 273.385802 68.832 
z
" clip-path="url(#p0c376fd929)" style="fill: #1f77b4"/>
   </g>
   <g id="patch_136">
    <path d="M 274.999443 273.312 
L 276.613083 273.312 
L 276.613083 65.952 
L 274.999443 65.952 
z
" clip-path="url(#p0c376fd929)" style="fill: #1f77b4"/>
   </g>
   <g id="patch_137">
    <path d="M 276.613083 273.312 
L 278.226724 273.312 
L 278.226724 67.392 
L 276.613083 67.392 
z
" clip-path="url(#p0c376fd929)" style="fill: #1f77b4"/>
   </g>
   <g id="patch_138">
    <path d="M 278.226724 273.312 
L 279.840365 273.312 
L 279.840365 58.752 
L 278.226724 58.752 
z
" clip-path="url(#p0c376fd929)" style="fill: #1f77b4"/>
   </g>
   <g id="patch_139">
    <path d="M 279.840365 273.312 
L 281.454006 273.312 
L 281.454006 88.992 
L 279.840365 88.992 
z
" clip-path="url(#p0c376fd929)" style="fill: #1f77b4"/>
   </g>
   <g id="patch_140">
    <path d="M 281.454006 273.312 
L 283.067647 273.312 
L 283.067647 83.952 
L 281.454006 83.952 
z
" clip-path="url(#p0c376fd929)" style="fill: #1f77b4"/>
   </g>
   <g id="patch_141">
    <path d="M 283.067647 273.312 
L 284.681288 273.312 
L 284.681288 64.512 
L 283.067647 64.512 
z
" clip-path="url(#p0c376fd929)" style="fill: #1f77b4"/>
   </g>
   <g id="patch_142">
    <path d="M 284.681288 273.312 
L 286.294929 273.312 
L 286.294929 79.632 
L 284.681288 79.632 
z
" clip-path="url(#p0c376fd929)" style="fill: #1f77b4"/>
   </g>
   <g id="patch_143">
    <path d="M 286.294929 273.312 
L 287.908569 273.312 
L 287.908569 88.272 
L 286.294929 88.272 
z
" clip-path="url(#p0c376fd929)" style="fill: #1f77b4"/>
   </g>
   <g id="patch_144">
    <path d="M 287.908569 273.312 
L 289.52221 273.312 
L 289.52221 95.472 
L 287.908569 95.472 
z
" clip-path="url(#p0c376fd929)" style="fill: #1f77b4"/>
   </g>
   <g id="patch_145">
    <path d="M 289.52221 273.312 
L 291.135851 273.312 
L 291.135851 96.192 
L 289.52221 96.192 
z
" clip-path="url(#p0c376fd929)" style="fill: #1f77b4"/>
   </g>
   <g id="patch_146">
    <path d="M 291.135851 273.312 
L 292.749492 273.312 
L 292.749492 89.712 
L 291.135851 89.712 
z
" clip-path="url(#p0c376fd929)" style="fill: #1f77b4"/>
   </g>
   <g id="patch_147">
    <path d="M 292.749492 273.312 
L 294.363133 273.312 
L 294.363133 93.312 
L 292.749492 93.312 
z
" clip-path="url(#p0c376fd929)" style="fill: #1f77b4"/>
   </g>
   <g id="patch_148">
    <path d="M 294.363133 273.312 
L 295.976774 273.312 
L 295.976774 118.512 
L 294.363133 118.512 
z
" clip-path="url(#p0c376fd929)" style="fill: #1f77b4"/>
   </g>
   <g id="patch_149">
    <path d="M 295.976774 273.312 
L 297.590415 273.312 
L 297.590415 97.632 
L 295.976774 97.632 
z
" clip-path="url(#p0c376fd929)" style="fill: #1f77b4"/>
   </g>
   <g id="patch_150">
    <path d="M 297.590415 273.312 
L 299.204055 273.312 
L 299.204055 97.632 
L 297.590415 97.632 
z
" clip-path="url(#p0c376fd929)" style="fill: #1f77b4"/>
   </g>
   <g id="patch_151">
    <path d="M 299.204055 273.312 
L 300.817696 273.312 
L 300.817696 74.592 
L 299.204055 74.592 
z
" clip-path="url(#p0c376fd929)" style="fill: #1f77b4"/>
   </g>
   <g id="patch_152">
    <path d="M 300.817696 273.312 
L 302.431337 273.312 
L 302.431337 101.232 
L 300.817696 101.232 
z
" clip-path="url(#p0c376fd929)" style="fill: #1f77b4"/>
   </g>
   <g id="patch_153">
    <path d="M 302.431337 273.312 
L 304.044978 273.312 
L 304.044978 108.432 
L 302.431337 108.432 
z
" clip-path="url(#p0c376fd929)" style="fill: #1f77b4"/>
   </g>
   <g id="patch_154">
    <path d="M 304.044978 273.312 
L 305.658619 273.312 
L 305.658619 111.312 
L 304.044978 111.312 
z
" clip-path="url(#p0c376fd929)" style="fill: #1f77b4"/>
   </g>
   <g id="patch_155">
    <path d="M 305.658619 273.312 
L 307.27226 273.312 
L 307.27226 128.592 
L 305.658619 128.592 
z
" clip-path="url(#p0c376fd929)" style="fill: #1f77b4"/>
   </g>
   <g id="patch_156">
    <path d="M 307.27226 273.312 
L 308.885901 273.312 
L 308.885901 93.312 
L 307.27226 93.312 
z
" clip-path="url(#p0c376fd929)" style="fill: #1f77b4"/>
   </g>
   <g id="patch_157">
    <path d="M 308.885901 273.312 
L 310.499542 273.312 
L 310.499542 137.232 
L 308.885901 137.232 
z
" clip-path="url(#p0c376fd929)" style="fill: #1f77b4"/>
   </g>
   <g id="patch_158">
    <path d="M 310.499542 273.312 
L 312.113182 273.312 
L 312.113182 119.952 
L 310.499542 119.952 
z
" clip-path="url(#p0c376fd929)" style="fill: #1f77b4"/>
   </g>
   <g id="patch_159">
    <path d="M 312.113182 273.312 
L 313.726823 273.312 
L 313.726823 141.552 
L 312.113182 141.552 
z
" clip-path="url(#p0c376fd929)" style="fill: #1f77b4"/>
   </g>
   <g id="patch_160">
    <path d="M 313.726823 273.312 
L 315.340464 273.312 
L 315.340464 151.632 
L 313.726823 151.632 
z
" clip-path="url(#p0c376fd929)" style="fill: #1f77b4"/>
   </g>
   <g id="patch_161">
    <path d="M 315.340464 273.312 
L 316.954105 273.312 
L 316.954105 132.192 
L 315.340464 132.192 
z
" clip-path="url(#p0c376fd929)" style="fill: #1f77b4"/>
   </g>
   <g id="patch_162">
    <path d="M 316.954105 273.312 
L 318.567746 273.312 
L 318.567746 127.152 
L 316.954105 127.152 
z
" clip-path="url(#p0c376fd929)" style="fill: #1f77b4"/>
   </g>
   <g id="patch_163">
    <path d="M 318.567746 273.312 
L 320.181387 273.312 
L 320.181387 136.512 
L 318.567746 136.512 
z
" clip-path="url(#p0c376fd929)" style="fill: #1f77b4"/>
   </g>
   <g id="patch_164">
    <path d="M 320.181387 273.312 
L 321.795028 273.312 
L 321.795028 138.672 
L 320.181387 138.672 
z
" clip-path="url(#p0c376fd929)" style="fill: #1f77b4"/>
   </g>
   <g id="patch_165">
    <path d="M 321.795028 273.312 
L 323.408668 273.312 
L 323.408668 127.872 
L 321.795028 127.872 
z
" clip-path="url(#p0c376fd929)" style="fill: #1f77b4"/>
   </g>
   <g id="patch_166">
    <path d="M 323.408668 273.312 
L 325.022309 273.312 
L 325.022309 142.992 
L 323.408668 142.992 
z
" clip-path="url(#p0c376fd929)" style="fill: #1f77b4"/>
   </g>
   <g id="patch_167">
    <path d="M 325.022309 273.312 
L 326.63595 273.312 
L 326.63595 143.712 
L 325.022309 143.712 
z
" clip-path="url(#p0c376fd929)" style="fill: #1f77b4"/>
   </g>
   <g id="patch_168">
    <path d="M 326.63595 273.312 
L 328.249591 273.312 
L 328.249591 172.512 
L 326.63595 172.512 
z
" clip-path="url(#p0c376fd929)" style="fill: #1f77b4"/>
   </g>
   <g id="patch_169">
    <path d="M 328.249591 273.312 
L 329.863232 273.312 
L 329.863232 151.632 
L 328.249591 151.632 
z
" clip-path="url(#p0c376fd929)" style="fill: #1f77b4"/>
   </g>
   <g id="patch_170">
    <path d="M 329.863232 273.312 
L 331.476873 273.312 
L 331.476873 164.592 
L 329.863232 164.592 
z
" clip-path="url(#p0c376fd929)" style="fill: #1f77b4"/>
   </g>
   <g id="patch_171">
    <path d="M 331.476873 273.312 
L 333.090514 273.312 
L 333.090514 157.392 
L 331.476873 157.392 
z
" clip-path="url(#p0c376fd929)" style="fill: #1f77b4"/>
   </g>
   <g id="patch_172">
    <path d="M 333.090514 273.312 
L 334.704155 273.312 
L 334.704155 173.952 
L 333.090514 173.952 
z
" clip-path="url(#p0c376fd929)" style="fill: #1f77b4"/>
   </g>
   <g id="patch_173">
    <path d="M 334.704155 273.312 
L 336.317795 273.312 
L 336.317795 161.712 
L 334.704155 161.712 
z
" clip-path="url(#p0c376fd929)" style="fill: #1f77b4"/>
   </g>
   <g id="patch_174">
    <path d="M 336.317795 273.312 
L 337.931436 273.312 
L 337.931436 173.952 
L 336.317795 173.952 
z
" clip-path="url(#p0c376fd929)" style="fill: #1f77b4"/>
   </g>
   <g id="patch_175">
    <path d="M 337.931436 273.312 
L 339.545077 273.312 
L 339.545077 168.912 
L 337.931436 168.912 
z
" clip-path="url(#p0c376fd929)" style="fill: #1f77b4"/>
   </g>
   <g id="patch_176">
    <path d="M 339.545077 273.312 
L 341.158718 273.312 
L 341.158718 175.392 
L 339.545077 175.392 
z
" clip-path="url(#p0c376fd929)" style="fill: #1f77b4"/>
   </g>
   <g id="patch_177">
    <path d="M 341.158718 273.312 
L 342.772359 273.312 
L 342.772359 182.592 
L 341.158718 182.592 
z
" clip-path="url(#p0c376fd929)" style="fill: #1f77b4"/>
   </g>
   <g id="patch_178">
    <path d="M 342.772359 273.312 
L 344.386 273.312 
L 344.386 176.832 
L 342.772359 176.832 
z
" clip-path="url(#p0c376fd929)" style="fill: #1f77b4"/>
   </g>
   <g id="patch_179">
    <path d="M 344.386 273.312 
L 345.999641 273.312 
L 345.999641 191.952 
L 344.386 191.952 
z
" clip-path="url(#p0c376fd929)" style="fill: #1f77b4"/>
   </g>
   <g id="patch_180">
    <path d="M 345.999641 273.312 
L 347.613281 273.312 
L 347.613281 194.832 
L 345.999641 194.832 
z
" clip-path="url(#p0c376fd929)" style="fill: #1f77b4"/>
   </g>
   <g id="patch_181">
    <path d="M 347.613281 273.312 
L 349.226922 273.312 
L 349.226922 196.992 
L 347.613281 196.992 
z
" clip-path="url(#p0c376fd929)" style="fill: #1f77b4"/>
   </g>
   <g id="patch_182">
    <path d="M 349.226922 273.312 
L 350.840563 273.312 
L 350.840563 202.032 
L 349.226922 202.032 
z
" clip-path="url(#p0c376fd929)" style="fill: #1f77b4"/>
   </g>
   <g id="patch_183">
    <path d="M 350.840563 273.312 
L 352.454204 273.312 
L 352.454204 194.832 
L 350.840563 194.832 
z
" clip-path="url(#p0c376fd929)" style="fill: #1f77b4"/>
   </g>
   <g id="patch_184">
    <path d="M 352.454204 273.312 
L 354.067845 273.312 
L 354.067845 212.112 
L 352.454204 212.112 
z
" clip-path="url(#p0c376fd929)" style="fill: #1f77b4"/>
   </g>
   <g id="patch_185">
    <path d="M 354.067845 273.312 
L 355.681486 273.312 
L 355.681486 214.272 
L 354.067845 214.272 
z
" clip-path="url(#p0c376fd929)" style="fill: #1f77b4"/>
   </g>
   <g id="patch_186">
    <path d="M 355.681486 273.312 
L 357.295127 273.312 
L 357.295127 196.992 
L 355.681486 196.992 
z
" clip-path="url(#p0c376fd929)" style="fill: #1f77b4"/>
   </g>
   <g id="patch_187">
    <path d="M 357.295127 273.312 
L 358.908767 273.312 
L 358.908767 212.832 
L 357.295127 212.832 
z
" clip-path="url(#p0c376fd929)" style="fill: #1f77b4"/>
   </g>
   <g id="patch_188">
    <path d="M 358.908767 273.312 
L 360.522408 273.312 
L 360.522408 227.232 
L 358.908767 227.232 
z
" clip-path="url(#p0c376fd929)" style="fill: #1f77b4"/>
   </g>
   <g id="patch_189">
    <path d="M 360.522408 273.312 
L 362.136049 273.312 
L 362.136049 216.432 
L 360.522408 216.432 
z
" clip-path="url(#p0c376fd929)" style="fill: #1f77b4"/>
   </g>
   <g id="patch_190">
    <path d="M 362.136049 273.312 
L 363.74969 273.312 
L 363.74969 233.712 
L 362.136049 233.712 
z
" clip-path="url(#p0c376fd929)" style="fill: #1f77b4"/>
   </g>
   <g id="patch_191">
    <path d="M 363.74969 273.312 
L 365.363331 273.312 
L 365.363331 234.432 
L 363.74969 234.432 
z
" clip-path="url(#p0c376fd929)" style="fill: #1f77b4"/>
   </g>
   <g id="patch_192">
    <path d="M 365.363331 273.312 
L 366.976972 273.312 
L 366.976972 240.192 
L 365.363331 240.192 
z
" clip-path="url(#p0c376fd929)" style="fill: #1f77b4"/>
   </g>
   <g id="patch_193">
    <path d="M 366.976972 273.312 
L 368.590613 273.312 
L 368.590613 234.432 
L 366.976972 234.432 
z
" clip-path="url(#p0c376fd929)" style="fill: #1f77b4"/>
   </g>
   <g id="patch_194">
    <path d="M 368.590613 273.312 
L 370.204254 273.312 
L 370.204254 235.152 
L 368.590613 235.152 
z
" clip-path="url(#p0c376fd929)" style="fill: #1f77b4"/>
   </g>
   <g id="patch_195">
    <path d="M 370.204254 273.312 
L 371.817894 273.312 
L 371.817894 241.632 
L 370.204254 241.632 
z
" clip-path="url(#p0c376fd929)" style="fill: #1f77b4"/>
   </g>
   <g id="patch_196">
    <path d="M 371.817894 273.312 
L 373.431535 273.312 
L 373.431535 246.672 
L 371.817894 246.672 
z
" clip-path="url(#p0c376fd929)" style="fill: #1f77b4"/>
   </g>
   <g id="patch_197">
    <path d="M 373.431535 273.312 
L 375.045176 273.312 
L 375.045176 252.432 
L 373.431535 252.432 
z
" clip-path="url(#p0c376fd929)" style="fill: #1f77b4"/>
   </g>
   <g id="patch_198">
    <path d="M 375.045176 273.312 
L 376.658817 273.312 
L 376.658817 260.352 
L 375.045176 260.352 
z
" clip-path="url(#p0c376fd929)" style="fill: #1f77b4"/>
   </g>
   <g id="patch_199">
    <path d="M 376.658817 273.312 
L 378.272458 273.312 
L 378.272458 258.192 
L 376.658817 258.192 
z
" clip-path="url(#p0c376fd929)" style="fill: #1f77b4"/>
   </g>
   <g id="patch_200">
    <path d="M 378.272458 273.312 
L 379.886099 273.312 
L 379.886099 261.072 
L 378.272458 261.072 
z
" clip-path="url(#p0c376fd929)" style="fill: #1f77b4"/>
   </g>
   <g id="patch_201">
    <path d="M 379.886099 273.312 
L 381.49974 273.312 
L 381.49974 263.952 
L 379.886099 263.952 
z
" clip-path="url(#p0c376fd929)" style="fill: #1f77b4"/>
   </g>
   <g id="patch_202">
    <path d="M 381.49974 273.312 
L 383.11338 273.312 
L 383.11338 266.112 
L 381.49974 266.112 
z
" clip-path="url(#p0c376fd929)" style="fill: #1f77b4"/>
   </g>
   <g id="matplotlib.axis_1">
    <g id="xtick_1">
     <g id="line2d_1">
      <defs>
       <path id="ma80f04b860" d="M 0 0 
L 0 3.5 
" style="stroke: #000000; stroke-width: 0.8"/>
      </defs>
      <g>
       <use xlink:href="#ma80f04b860" x="60.013977" y="273.312" style="stroke: #000000; stroke-width: 0.8"/>
      </g>
     </g>
     <g id="text_1">
      <!-- 0.0 -->
      <g transform="translate(52.062415 287.910437) scale(0.1 -0.1)">
       <defs>
        <path id="DejaVuSans-30" d="M 2034 4250 
Q 1547 4250 1301 3770 
Q 1056 3291 1056 2328 
Q 1056 1369 1301 889 
Q 1547 409 2034 409 
Q 2525 409 2770 889 
Q 3016 1369 3016 2328 
Q 3016 3291 2770 3770 
Q 2525 4250 2034 4250 
z
M 2034 4750 
Q 2819 4750 3233 4129 
Q 3647 3509 3647 2328 
Q 3647 1150 3233 529 
Q 2819 -91 2034 -91 
Q 1250 -91 836 529 
Q 422 1150 422 2328 
Q 422 3509 836 4129 
Q 1250 4750 2034 4750 
z
" transform="scale(0.015625)"/>
        <path id="DejaVuSans-2e" d="M 684 794 
L 1344 794 
L 1344 0 
L 684 0 
L 684 794 
z
" transform="scale(0.015625)"/>
       </defs>
       <use xlink:href="#DejaVuSans-30"/>
       <use xlink:href="#DejaVuSans-2e" transform="translate(63.623047 0)"/>
       <use xlink:href="#DejaVuSans-30" transform="translate(95.410156 0)"/>
      </g>
     </g>
    </g>
    <g id="xtick_2">
     <g id="line2d_2">
      <g>
       <use xlink:href="#ma80f04b860" x="101.350278" y="273.312" style="stroke: #000000; stroke-width: 0.8"/>
      </g>
     </g>
     <g id="text_2">
      <!-- 0.2 -->
      <g transform="translate(93.398715 287.910437) scale(0.1 -0.1)">
       <defs>
        <path id="DejaVuSans-32" d="M 1228 531 
L 3431 531 
L 3431 0 
L 469 0 
L 469 531 
Q 828 903 1448 1529 
Q 2069 2156 2228 2338 
Q 2531 2678 2651 2914 
Q 2772 3150 2772 3378 
Q 2772 3750 2511 3984 
Q 2250 4219 1831 4219 
Q 1534 4219 1204 4116 
Q 875 4013 500 3803 
L 500 4441 
Q 881 4594 1212 4672 
Q 1544 4750 1819 4750 
Q 2544 4750 2975 4387 
Q 3406 4025 3406 3419 
Q 3406 3131 3298 2873 
Q 3191 2616 2906 2266 
Q 2828 2175 2409 1742 
Q 1991 1309 1228 531 
z
" transform="scale(0.015625)"/>
       </defs>
       <use xlink:href="#DejaVuSans-30"/>
       <use xlink:href="#DejaVuSans-2e" transform="translate(63.623047 0)"/>
       <use xlink:href="#DejaVuSans-32" transform="translate(95.410156 0)"/>
      </g>
     </g>
    </g>
    <g id="xtick_3">
     <g id="line2d_3">
      <g>
       <use xlink:href="#ma80f04b860" x="142.686578" y="273.312" style="stroke: #000000; stroke-width: 0.8"/>
      </g>
     </g>
     <g id="text_3">
      <!-- 0.4 -->
      <g transform="translate(134.735016 287.910437) scale(0.1 -0.1)">
       <defs>
        <path id="DejaVuSans-34" d="M 2419 4116 
L 825 1625 
L 2419 1625 
L 2419 4116 
z
M 2253 4666 
L 3047 4666 
L 3047 1625 
L 3713 1625 
L 3713 1100 
L 3047 1100 
L 3047 0 
L 2419 0 
L 2419 1100 
L 313 1100 
L 313 1709 
L 2253 4666 
z
" transform="scale(0.015625)"/>
       </defs>
       <use xlink:href="#DejaVuSans-30"/>
       <use xlink:href="#DejaVuSans-2e" transform="translate(63.623047 0)"/>
       <use xlink:href="#DejaVuSans-34" transform="translate(95.410156 0)"/>
      </g>
     </g>
    </g>
    <g id="xtick_4">
     <g id="line2d_4">
      <g>
       <use xlink:href="#ma80f04b860" x="184.022879" y="273.312" style="stroke: #000000; stroke-width: 0.8"/>
      </g>
     </g>
     <g id="text_4">
      <!-- 0.6 -->
      <g transform="translate(176.071316 287.910437) scale(0.1 -0.1)">
       <defs>
        <path id="DejaVuSans-36" d="M 2113 2584 
Q 1688 2584 1439 2293 
Q 1191 2003 1191 1497 
Q 1191 994 1439 701 
Q 1688 409 2113 409 
Q 2538 409 2786 701 
Q 3034 994 3034 1497 
Q 3034 2003 2786 2293 
Q 2538 2584 2113 2584 
z
M 3366 4563 
L 3366 3988 
Q 3128 4100 2886 4159 
Q 2644 4219 2406 4219 
Q 1781 4219 1451 3797 
Q 1122 3375 1075 2522 
Q 1259 2794 1537 2939 
Q 1816 3084 2150 3084 
Q 2853 3084 3261 2657 
Q 3669 2231 3669 1497 
Q 3669 778 3244 343 
Q 2819 -91 2113 -91 
Q 1303 -91 875 529 
Q 447 1150 447 2328 
Q 447 3434 972 4092 
Q 1497 4750 2381 4750 
Q 2619 4750 2861 4703 
Q 3103 4656 3366 4563 
z
" transform="scale(0.015625)"/>
       </defs>
       <use xlink:href="#DejaVuSans-30"/>
       <use xlink:href="#DejaVuSans-2e" transform="translate(63.623047 0)"/>
       <use xlink:href="#DejaVuSans-36" transform="translate(95.410156 0)"/>
      </g>
     </g>
    </g>
    <g id="xtick_5">
     <g id="line2d_5">
      <g>
       <use xlink:href="#ma80f04b860" x="225.35918" y="273.312" style="stroke: #000000; stroke-width: 0.8"/>
      </g>
     </g>
     <g id="text_5">
      <!-- 0.8 -->
      <g transform="translate(217.407617 287.910437) scale(0.1 -0.1)">
       <defs>
        <path id="DejaVuSans-38" d="M 2034 2216 
Q 1584 2216 1326 1975 
Q 1069 1734 1069 1313 
Q 1069 891 1326 650 
Q 1584 409 2034 409 
Q 2484 409 2743 651 
Q 3003 894 3003 1313 
Q 3003 1734 2745 1975 
Q 2488 2216 2034 2216 
z
M 1403 2484 
Q 997 2584 770 2862 
Q 544 3141 544 3541 
Q 544 4100 942 4425 
Q 1341 4750 2034 4750 
Q 2731 4750 3128 4425 
Q 3525 4100 3525 3541 
Q 3525 3141 3298 2862 
Q 3072 2584 2669 2484 
Q 3125 2378 3379 2068 
Q 3634 1759 3634 1313 
Q 3634 634 3220 271 
Q 2806 -91 2034 -91 
Q 1263 -91 848 271 
Q 434 634 434 1313 
Q 434 1759 690 2068 
Q 947 2378 1403 2484 
z
M 1172 3481 
Q 1172 3119 1398 2916 
Q 1625 2713 2034 2713 
Q 2441 2713 2670 2916 
Q 2900 3119 2900 3481 
Q 2900 3844 2670 4047 
Q 2441 4250 2034 4250 
Q 1625 4250 1398 4047 
Q 1172 3844 1172 3481 
z
" transform="scale(0.015625)"/>
       </defs>
       <use xlink:href="#DejaVuSans-30"/>
       <use xlink:href="#DejaVuSans-2e" transform="translate(63.623047 0)"/>
       <use xlink:href="#DejaVuSans-38" transform="translate(95.410156 0)"/>
      </g>
     </g>
    </g>
    <g id="xtick_6">
     <g id="line2d_6">
      <g>
       <use xlink:href="#ma80f04b860" x="266.69548" y="273.312" style="stroke: #000000; stroke-width: 0.8"/>
      </g>
     </g>
     <g id="text_6">
      <!-- 1.0 -->
      <g transform="translate(258.743918 287.910437) scale(0.1 -0.1)">
       <defs>
        <path id="DejaVuSans-31" d="M 794 531 
L 1825 531 
L 1825 4091 
L 703 3866 
L 703 4441 
L 1819 4666 
L 2450 4666 
L 2450 531 
L 3481 531 
L 3481 0 
L 794 0 
L 794 531 
z
" transform="scale(0.015625)"/>
       </defs>
       <use xlink:href="#DejaVuSans-31"/>
       <use xlink:href="#DejaVuSans-2e" transform="translate(63.623047 0)"/>
       <use xlink:href="#DejaVuSans-30" transform="translate(95.410156 0)"/>
      </g>
     </g>
    </g>
    <g id="xtick_7">
     <g id="line2d_7">
      <g>
       <use xlink:href="#ma80f04b860" x="308.031781" y="273.312" style="stroke: #000000; stroke-width: 0.8"/>
      </g>
     </g>
     <g id="text_7">
      <!-- 1.2 -->
      <g transform="translate(300.080218 287.910437) scale(0.1 -0.1)">
       <use xlink:href="#DejaVuSans-31"/>
       <use xlink:href="#DejaVuSans-2e" transform="translate(63.623047 0)"/>
       <use xlink:href="#DejaVuSans-32" transform="translate(95.410156 0)"/>
      </g>
     </g>
    </g>
    <g id="xtick_8">
     <g id="line2d_8">
      <g>
       <use xlink:href="#ma80f04b860" x="349.368081" y="273.312" style="stroke: #000000; stroke-width: 0.8"/>
      </g>
     </g>
     <g id="text_8">
      <!-- 1.4 -->
      <g transform="translate(341.416519 287.910437) scale(0.1 -0.1)">
       <use xlink:href="#DejaVuSans-31"/>
       <use xlink:href="#DejaVuSans-2e" transform="translate(63.623047 0)"/>
       <use xlink:href="#DejaVuSans-34" transform="translate(95.410156 0)"/>
      </g>
     </g>
    </g>
    <g id="xtick_9">
     <g id="line2d_9">
      <g>
       <use xlink:href="#ma80f04b860" x="390.704382" y="273.312" style="stroke: #000000; stroke-width: 0.8"/>
      </g>
     </g>
     <g id="text_9">
      <!-- 1.6 -->
      <g transform="translate(382.752819 287.910437) scale(0.1 -0.1)">
       <use xlink:href="#DejaVuSans-31"/>
       <use xlink:href="#DejaVuSans-2e" transform="translate(63.623047 0)"/>
       <use xlink:href="#DejaVuSans-36" transform="translate(95.410156 0)"/>
      </g>
     </g>
    </g>
    <g id="text_10">
     <!-- Angle with normal (rad) -->
     <g transform="translate(163.023281 301.588562) scale(0.1 -0.1)">
      <defs>
       <path id="DejaVuSans-41" d="M 2188 4044 
L 1331 1722 
L 3047 1722 
L 2188 4044 
z
M 1831 4666 
L 2547 4666 
L 4325 0 
L 3669 0 
L 3244 1197 
L 1141 1197 
L 716 0 
L 50 0 
L 1831 4666 
z
" transform="scale(0.015625)"/>
       <path id="DejaVuSans-6e" d="M 3513 2113 
L 3513 0 
L 2938 0 
L 2938 2094 
Q 2938 2591 2744 2837 
Q 2550 3084 2163 3084 
Q 1697 3084 1428 2787 
Q 1159 2491 1159 1978 
L 1159 0 
L 581 0 
L 581 3500 
L 1159 3500 
L 1159 2956 
Q 1366 3272 1645 3428 
Q 1925 3584 2291 3584 
Q 2894 3584 3203 3211 
Q 3513 2838 3513 2113 
z
" transform="scale(0.015625)"/>
       <path id="DejaVuSans-67" d="M 2906 1791 
Q 2906 2416 2648 2759 
Q 2391 3103 1925 3103 
Q 1463 3103 1205 2759 
Q 947 2416 947 1791 
Q 947 1169 1205 825 
Q 1463 481 1925 481 
Q 2391 481 2648 825 
Q 2906 1169 2906 1791 
z
M 3481 434 
Q 3481 -459 3084 -895 
Q 2688 -1331 1869 -1331 
Q 1566 -1331 1297 -1286 
Q 1028 -1241 775 -1147 
L 775 -588 
Q 1028 -725 1275 -790 
Q 1522 -856 1778 -856 
Q 2344 -856 2625 -561 
Q 2906 -266 2906 331 
L 2906 616 
Q 2728 306 2450 153 
Q 2172 0 1784 0 
Q 1141 0 747 490 
Q 353 981 353 1791 
Q 353 2603 747 3093 
Q 1141 3584 1784 3584 
Q 2172 3584 2450 3431 
Q 2728 3278 2906 2969 
L 2906 3500 
L 3481 3500 
L 3481 434 
z
" transform="scale(0.015625)"/>
       <path id="DejaVuSans-6c" d="M 603 4863 
L 1178 4863 
L 1178 0 
L 603 0 
L 603 4863 
z
" transform="scale(0.015625)"/>
       <path id="DejaVuSans-65" d="M 3597 1894 
L 3597 1613 
L 953 1613 
Q 991 1019 1311 708 
Q 1631 397 2203 397 
Q 2534 397 2845 478 
Q 3156 559 3463 722 
L 3463 178 
Q 3153 47 2828 -22 
Q 2503 -91 2169 -91 
Q 1331 -91 842 396 
Q 353 884 353 1716 
Q 353 2575 817 3079 
Q 1281 3584 2069 3584 
Q 2775 3584 3186 3129 
Q 3597 2675 3597 1894 
z
M 3022 2063 
Q 3016 2534 2758 2815 
Q 2500 3097 2075 3097 
Q 1594 3097 1305 2825 
Q 1016 2553 972 2059 
L 3022 2063 
z
" transform="scale(0.015625)"/>
       <path id="DejaVuSans-20" transform="scale(0.015625)"/>
       <path id="DejaVuSans-77" d="M 269 3500 
L 844 3500 
L 1563 769 
L 2278 3500 
L 2956 3500 
L 3675 769 
L 4391 3500 
L 4966 3500 
L 4050 0 
L 3372 0 
L 2619 2869 
L 1863 0 
L 1184 0 
L 269 3500 
z
" transform="scale(0.015625)"/>
       <path id="DejaVuSans-69" d="M 603 3500 
L 1178 3500 
L 1178 0 
L 603 0 
L 603 3500 
z
M 603 4863 
L 1178 4863 
L 1178 4134 
L 603 4134 
L 603 4863 
z
" transform="scale(0.015625)"/>
       <path id="DejaVuSans-74" d="M 1172 4494 
L 1172 3500 
L 2356 3500 
L 2356 3053 
L 1172 3053 
L 1172 1153 
Q 1172 725 1289 603 
Q 1406 481 1766 481 
L 2356 481 
L 2356 0 
L 1766 0 
Q 1100 0 847 248 
Q 594 497 594 1153 
L 594 3053 
L 172 3053 
L 172 3500 
L 594 3500 
L 594 4494 
L 1172 4494 
z
" transform="scale(0.015625)"/>
       <path id="DejaVuSans-68" d="M 3513 2113 
L 3513 0 
L 2938 0 
L 2938 2094 
Q 2938 2591 2744 2837 
Q 2550 3084 2163 3084 
Q 1697 3084 1428 2787 
Q 1159 2491 1159 1978 
L 1159 0 
L 581 0 
L 581 4863 
L 1159 4863 
L 1159 2956 
Q 1366 3272 1645 3428 
Q 1925 3584 2291 3584 
Q 2894 3584 3203 3211 
Q 3513 2838 3513 2113 
z
" transform="scale(0.015625)"/>
       <path id="DejaVuSans-6f" d="M 1959 3097 
Q 1497 3097 1228 2736 
Q 959 2375 959 1747 
Q 959 1119 1226 758 
Q 1494 397 1959 397 
Q 2419 397 2687 759 
Q 2956 1122 2956 1747 
Q 2956 2369 2687 2733 
Q 2419 3097 1959 3097 
z
M 1959 3584 
Q 2709 3584 3137 3096 
Q 3566 2609 3566 1747 
Q 3566 888 3137 398 
Q 2709 -91 1959 -91 
Q 1206 -91 779 398 
Q 353 888 353 1747 
Q 353 2609 779 3096 
Q 1206 3584 1959 3584 
z
" transform="scale(0.015625)"/>
       <path id="DejaVuSans-72" d="M 2631 2963 
Q 2534 3019 2420 3045 
Q 2306 3072 2169 3072 
Q 1681 3072 1420 2755 
Q 1159 2438 1159 1844 
L 1159 0 
L 581 0 
L 581 3500 
L 1159 3500 
L 1159 2956 
Q 1341 3275 1631 3429 
Q 1922 3584 2338 3584 
Q 2397 3584 2469 3576 
Q 2541 3569 2628 3553 
L 2631 2963 
z
" transform="scale(0.015625)"/>
       <path id="DejaVuSans-6d" d="M 3328 2828 
Q 3544 3216 3844 3400 
Q 4144 3584 4550 3584 
Q 5097 3584 5394 3201 
Q 5691 2819 5691 2113 
L 5691 0 
L 5113 0 
L 5113 2094 
Q 5113 2597 4934 2840 
Q 4756 3084 4391 3084 
Q 3944 3084 3684 2787 
Q 3425 2491 3425 1978 
L 3425 0 
L 2847 0 
L 2847 2094 
Q 2847 2600 2669 2842 
Q 2491 3084 2119 3084 
Q 1678 3084 1418 2786 
Q 1159 2488 1159 1978 
L 1159 0 
L 581 0 
L 581 3500 
L 1159 3500 
L 1159 2956 
Q 1356 3278 1631 3431 
Q 1906 3584 2284 3584 
Q 2666 3584 2933 3390 
Q 3200 3197 3328 2828 
z
" transform="scale(0.015625)"/>
       <path id="DejaVuSans-61" d="M 2194 1759 
Q 1497 1759 1228 1600 
Q 959 1441 959 1056 
Q 959 750 1161 570 
Q 1363 391 1709 391 
Q 2188 391 2477 730 
Q 2766 1069 2766 1631 
L 2766 1759 
L 2194 1759 
z
M 3341 1997 
L 3341 0 
L 2766 0 
L 2766 531 
Q 2569 213 2275 61 
Q 1981 -91 1556 -91 
Q 1019 -91 701 211 
Q 384 513 384 1019 
Q 384 1609 779 1909 
Q 1175 2209 1959 2209 
L 2766 2209 
L 2766 2266 
Q 2766 2663 2505 2880 
Q 2244 3097 1772 3097 
Q 1472 3097 1187 3025 
Q 903 2953 641 2809 
L 641 3341 
Q 956 3463 1253 3523 
Q 1550 3584 1831 3584 
Q 2591 3584 2966 3190 
Q 3341 2797 3341 1997 
z
" transform="scale(0.015625)"/>
       <path id="DejaVuSans-28" d="M 1984 4856 
Q 1566 4138 1362 3434 
Q 1159 2731 1159 2009 
Q 1159 1288 1364 580 
Q 1569 -128 1984 -844 
L 1484 -844 
Q 1016 -109 783 600 
Q 550 1309 550 2009 
Q 550 2706 781 3412 
Q 1013 4119 1484 4856 
L 1984 4856 
z
" transform="scale(0.015625)"/>
       <path id="DejaVuSans-64" d="M 2906 2969 
L 2906 4863 
L 3481 4863 
L 3481 0 
L 2906 0 
L 2906 525 
Q 2725 213 2448 61 
Q 2172 -91 1784 -91 
Q 1150 -91 751 415 
Q 353 922 353 1747 
Q 353 2572 751 3078 
Q 1150 3584 1784 3584 
Q 2172 3584 2448 3432 
Q 2725 3281 2906 2969 
z
M 947 1747 
Q 947 1113 1208 752 
Q 1469 391 1925 391 
Q 2381 391 2643 752 
Q 2906 1113 2906 1747 
Q 2906 2381 2643 2742 
Q 2381 3103 1925 3103 
Q 1469 3103 1208 2742 
Q 947 2381 947 1747 
z
" transform="scale(0.015625)"/>
       <path id="DejaVuSans-29" d="M 513 4856 
L 1013 4856 
Q 1481 4119 1714 3412 
Q 1947 2706 1947 2009 
Q 1947 1309 1714 600 
Q 1481 -109 1013 -844 
L 513 -844 
Q 928 -128 1133 580 
Q 1338 1288 1338 2009 
Q 1338 2731 1133 3434 
Q 928 4138 513 4856 
z
" transform="scale(0.015625)"/>
      </defs>
      <use xlink:href="#DejaVuSans-41"/>
      <use xlink:href="#DejaVuSans-6e" transform="translate(68.408203 0)"/>
      <use xlink:href="#DejaVuSans-67" transform="translate(131.787109 0)"/>
      <use xlink:href="#DejaVuSans-6c" transform="translate(195.263672 0)"/>
      <use xlink:href="#DejaVuSans-65" transform="translate(223.046875 0)"/>
      <use xlink:href="#DejaVuSans-20" transform="translate(284.570312 0)"/>
      <use xlink:href="#DejaVuSans-77" transform="translate(316.357422 0)"/>
      <use xlink:href="#DejaVuSans-69" transform="translate(398.144531 0)"/>
      <use xlink:href="#DejaVuSans-74" transform="translate(425.927734 0)"/>
      <use xlink:href="#DejaVuSans-68" transform="translate(465.136719 0)"/>
      <use xlink:href="#DejaVuSans-20" transform="translate(528.515625 0)"/>
      <use xlink:href="#DejaVuSans-6e" transform="translate(560.302734 0)"/>
      <use xlink:href="#DejaVuSans-6f" transform="translate(623.681641 0)"/>
      <use xlink:href="#DejaVuSans-72" transform="translate(684.863281 0)"/>
      <use xlink:href="#DejaVuSans-6d" transform="translate(724.226562 0)"/>
      <use xlink:href="#DejaVuSans-61" transform="translate(821.638672 0)"/>
      <use xlink:href="#DejaVuSans-6c" transform="translate(882.917969 0)"/>
      <use xlink:href="#DejaVuSans-20" transform="translate(910.701172 0)"/>
      <use xlink:href="#DejaVuSans-28" transform="translate(942.488281 0)"/>
      <use xlink:href="#DejaVuSans-72" transform="translate(981.501953 0)"/>
      <use xlink:href="#DejaVuSans-61" transform="translate(1022.615234 0)"/>
      <use xlink:href="#DejaVuSans-64" transform="translate(1083.894531 0)"/>
      <use xlink:href="#DejaVuSans-29" transform="translate(1147.371094 0)"/>
     </g>
    </g>
   </g>
   <g id="matplotlib.axis_2">
    <g id="ytick_1">
     <g id="line2d_10">
      <defs>
       <path id="m18b230bb11" d="M 0 0 
L -3.5 0 
" style="stroke: #000000; stroke-width: 0.8"/>
      </defs>
      <g>
       <use xlink:href="#m18b230bb11" x="43.78125" y="273.312" style="stroke: #000000; stroke-width: 0.8"/>
      </g>
     </g>
     <g id="text_11">
      <!-- 0.0 -->
      <g transform="translate(20.878125 277.111219) scale(0.1 -0.1)">
       <use xlink:href="#DejaVuSans-30"/>
       <use xlink:href="#DejaVuSans-2e" transform="translate(63.623047 0)"/>
       <use xlink:href="#DejaVuSans-30" transform="translate(95.410156 0)"/>
      </g>
     </g>
    </g>
    <g id="ytick_2">
     <g id="line2d_11">
      <g>
       <use xlink:href="#m18b230bb11" x="43.78125" y="228.341496" style="stroke: #000000; stroke-width: 0.8"/>
      </g>
     </g>
     <g id="text_12">
      <!-- 0.2 -->
      <g transform="translate(20.878125 232.140715) scale(0.1 -0.1)">
       <use xlink:href="#DejaVuSans-30"/>
       <use xlink:href="#DejaVuSans-2e" transform="translate(63.623047 0)"/>
       <use xlink:href="#DejaVuSans-32" transform="translate(95.410156 0)"/>
      </g>
     </g>
    </g>
    <g id="ytick_3">
     <g id="line2d_12">
      <g>
       <use xlink:href="#m18b230bb11" x="43.78125" y="183.370992" style="stroke: #000000; stroke-width: 0.8"/>
      </g>
     </g>
     <g id="text_13">
      <!-- 0.4 -->
      <g transform="translate(20.878125 187.17021) scale(0.1 -0.1)">
       <use xlink:href="#DejaVuSans-30"/>
       <use xlink:href="#DejaVuSans-2e" transform="translate(63.623047 0)"/>
       <use xlink:href="#DejaVuSans-34" transform="translate(95.410156 0)"/>
      </g>
     </g>
    </g>
    <g id="ytick_4">
     <g id="line2d_13">
      <g>
       <use xlink:href="#m18b230bb11" x="43.78125" y="138.400488" style="stroke: #000000; stroke-width: 0.8"/>
      </g>
     </g>
     <g id="text_14">
      <!-- 0.6 -->
      <g transform="translate(20.878125 142.199706) scale(0.1 -0.1)">
       <use xlink:href="#DejaVuSans-30"/>
       <use xlink:href="#DejaVuSans-2e" transform="translate(63.623047 0)"/>
       <use xlink:href="#DejaVuSans-36" transform="translate(95.410156 0)"/>
      </g>
     </g>
    </g>
    <g id="ytick_5">
     <g id="line2d_14">
      <g>
       <use xlink:href="#m18b230bb11" x="43.78125" y="93.429983" style="stroke: #000000; stroke-width: 0.8"/>
      </g>
     </g>
     <g id="text_15">
      <!-- 0.8 -->
      <g transform="translate(20.878125 97.229202) scale(0.1 -0.1)">
       <use xlink:href="#DejaVuSans-30"/>
       <use xlink:href="#DejaVuSans-2e" transform="translate(63.623047 0)"/>
       <use xlink:href="#DejaVuSans-38" transform="translate(95.410156 0)"/>
      </g>
     </g>
    </g>
    <g id="ytick_6">
     <g id="line2d_15">
      <g>
       <use xlink:href="#m18b230bb11" x="43.78125" y="48.459479" style="stroke: #000000; stroke-width: 0.8"/>
      </g>
     </g>
     <g id="text_16">
      <!-- 1.0 -->
      <g transform="translate(20.878125 52.258698) scale(0.1 -0.1)">
       <use xlink:href="#DejaVuSans-31"/>
       <use xlink:href="#DejaVuSans-2e" transform="translate(63.623047 0)"/>
       <use xlink:href="#DejaVuSans-30" transform="translate(95.410156 0)"/>
      </g>
     </g>
    </g>
    <g id="text_17">
     <!-- Probability density -->
     <g transform="translate(14.798438 186.606781) rotate(-90) scale(0.1 -0.1)">
      <defs>
       <path id="DejaVuSans-50" d="M 1259 4147 
L 1259 2394 
L 2053 2394 
Q 2494 2394 2734 2622 
Q 2975 2850 2975 3272 
Q 2975 3691 2734 3919 
Q 2494 4147 2053 4147 
L 1259 4147 
z
M 628 4666 
L 2053 4666 
Q 2838 4666 3239 4311 
Q 3641 3956 3641 3272 
Q 3641 2581 3239 2228 
Q 2838 1875 2053 1875 
L 1259 1875 
L 1259 0 
L 628 0 
L 628 4666 
z
" transform="scale(0.015625)"/>
       <path id="DejaVuSans-62" d="M 3116 1747 
Q 3116 2381 2855 2742 
Q 2594 3103 2138 3103 
Q 1681 3103 1420 2742 
Q 1159 2381 1159 1747 
Q 1159 1113 1420 752 
Q 1681 391 2138 391 
Q 2594 391 2855 752 
Q 3116 1113 3116 1747 
z
M 1159 2969 
Q 1341 3281 1617 3432 
Q 1894 3584 2278 3584 
Q 2916 3584 3314 3078 
Q 3713 2572 3713 1747 
Q 3713 922 3314 415 
Q 2916 -91 2278 -91 
Q 1894 -91 1617 61 
Q 1341 213 1159 525 
L 1159 0 
L 581 0 
L 581 4863 
L 1159 4863 
L 1159 2969 
z
" transform="scale(0.015625)"/>
       <path id="DejaVuSans-79" d="M 2059 -325 
Q 1816 -950 1584 -1140 
Q 1353 -1331 966 -1331 
L 506 -1331 
L 506 -850 
L 844 -850 
Q 1081 -850 1212 -737 
Q 1344 -625 1503 -206 
L 1606 56 
L 191 3500 
L 800 3500 
L 1894 763 
L 2988 3500 
L 3597 3500 
L 2059 -325 
z
" transform="scale(0.015625)"/>
       <path id="DejaVuSans-73" d="M 2834 3397 
L 2834 2853 
Q 2591 2978 2328 3040 
Q 2066 3103 1784 3103 
Q 1356 3103 1142 2972 
Q 928 2841 928 2578 
Q 928 2378 1081 2264 
Q 1234 2150 1697 2047 
L 1894 2003 
Q 2506 1872 2764 1633 
Q 3022 1394 3022 966 
Q 3022 478 2636 193 
Q 2250 -91 1575 -91 
Q 1294 -91 989 -36 
Q 684 19 347 128 
L 347 722 
Q 666 556 975 473 
Q 1284 391 1588 391 
Q 1994 391 2212 530 
Q 2431 669 2431 922 
Q 2431 1156 2273 1281 
Q 2116 1406 1581 1522 
L 1381 1569 
Q 847 1681 609 1914 
Q 372 2147 372 2553 
Q 372 3047 722 3315 
Q 1072 3584 1716 3584 
Q 2034 3584 2315 3537 
Q 2597 3491 2834 3397 
z
" transform="scale(0.015625)"/>
      </defs>
      <use xlink:href="#DejaVuSans-50"/>
      <use xlink:href="#DejaVuSans-72" transform="translate(58.552734 0)"/>
      <use xlink:href="#DejaVuSans-6f" transform="translate(97.416016 0)"/>
      <use xlink:href="#DejaVuSans-62" transform="translate(158.597656 0)"/>
      <use xlink:href="#DejaVuSans-61" transform="translate(222.074219 0)"/>
      <use xlink:href="#DejaVuSans-62" transform="translate(283.353516 0)"/>
      <use xlink:href="#DejaVuSans-69" transform="translate(346.830078 0)"/>
      <use xlink:href="#DejaVuSans-6c" transform="translate(374.613281 0)"/>
      <use xlink:href="#DejaVuSans-69" transform="translate(402.396484 0)"/>
      <use xlink:href="#DejaVuSans-74" transform="translate(430.179688 0)"/>
      <use xlink:href="#DejaVuSans-79" transform="translate(469.388672 0)"/>
      <use xlink:href="#DejaVuSans-20" transform="translate(528.568359 0)"/>
      <use xlink:href="#DejaVuSans-64" transform="translate(560.355469 0)"/>
      <use xlink:href="#DejaVuSans-65" transform="translate(623.832031 0)"/>
      <use xlink:href="#DejaVuSans-6e" transform="translate(685.355469 0)"/>
      <use xlink:href="#DejaVuSans-73" transform="translate(748.734375 0)"/>
      <use xlink:href="#DejaVuSans-69" transform="translate(800.833984 0)"/>
      <use xlink:href="#DejaVuSans-74" transform="translate(828.617188 0)"/>
      <use xlink:href="#DejaVuSans-79" transform="translate(867.826172 0)"/>
     </g>
    </g>
   </g>
   <g id="line2d_16">
    <path d="M 60.013977 273.312 
L 79.837728 230.442822 
L 90.237073 208.484952 
L 99.01152 190.459379 
L 106.811029 174.933848 
L 113.960578 161.192063 
L 120.460169 149.163358 
L 126.63478 138.190108 
L 132.484411 128.23863 
L 138.009063 119.266192 
L 143.208736 111.223189 
L 148.408408 103.590456 
L 153.283101 96.824573 
L 158.157794 90.45132 
L 162.707507 84.869713 
L 167.257221 79.653308 
L 171.481954 75.145356 
L 175.706688 70.968554 
L 179.606442 67.413011 
L 183.506197 64.150648 
L 187.405951 61.18611 
L 190.980726 58.73386 
L 194.555501 56.538352 
L 198.130275 54.602213 
L 201.70505 52.927759 
L 205.279825 51.516993 
L 208.52962 50.464726 
L 211.779415 49.632823 
L 215.029211 49.022106 
L 218.279006 48.63318 
L 221.528801 48.466428 
L 224.778596 48.522017 
L 228.028392 48.79989 
L 231.278187 49.299773 
L 234.527982 50.021172 
L 237.777777 50.963374 
L 241.027573 52.125446 
L 244.277368 53.50624 
L 247.852143 55.276101 
L 251.426917 57.306841 
L 255.001692 59.59603 
L 258.576467 62.140928 
L 262.476221 65.205232 
L 266.375976 68.565858 
L 270.27573 72.218023 
L 274.500464 76.497487 
L 278.725198 81.105841 
L 282.949931 86.035386 
L 287.499645 91.693867 
L 292.049358 97.704325 
L 296.924051 104.52144 
L 301.798744 111.714063 
L 306.998416 119.782043 
L 312.523068 128.779586 
L 318.3727 138.75596 
L 324.547311 149.753521 
L 331.046901 161.80554 
L 337.871471 174.933848 
L 345.346 189.802441 
L 353.795468 207.13209 
L 363.544854 227.66976 
L 375.894076 254.243174 
L 384.668523 273.312 
L 384.668523 273.312 
" clip-path="url(#p0c376fd929)" style="fill: none; stroke: #ff7f0e; stroke-width: 1.5; stroke-linecap: square"/>
   </g>
   <g id="patch_203">
    <path d="M 43.78125 273.312 
L 43.78125 7.2 
" style="fill: none; stroke: #000000; stroke-width: 0.8; stroke-linejoin: miter; stroke-linecap: square"/>
   </g>
   <g id="patch_204">
    <path d="M 400.90125 273.312 
L 400.90125 7.2 
" style="fill: none; stroke: #000000; stroke-width: 0.8; stroke-linejoin: miter; stroke-linecap: square"/>
   </g>
   <g id="patch_205">
    <path d="M 43.78125 273.312 
L 400.90125 273.312 
" style="fill: none; stroke: #000000; stroke-width: 0.8; stroke-linejoin: miter; stroke-linecap: square"/>
   </g>
   <g id="patch_206">
    <path d="M 43.78125 7.2 
L 400.90125 7.2 
" style="fill: none; stroke: #000000; stroke-width: 0.8; stroke-linejoin: miter; stroke-linecap: square"/>
   </g>
  </g>
 </g>
 <defs>
  <clipPath id="p0c376fd929">
   <rect x="43.78125" y="7.2" width="357.12" height="266.112"/>
  </clipPath>
 </defs>
</svg>
