<?xml version="1.0" encoding="utf-8" standalone="no"?>
<!DOCTYPE svg PUBLIC "-//W3C//DTD SVG 1.1//EN"
  "http://www.w3.org/Graphics/SVG/1.1/DTD/svg11.dtd">
<svg xmlns:xlink="http://www.w3.org/1999/xlink" width="414.46375pt" height="310.86825pt" viewBox="0 0 414.46375 310.86825" xmlns="http://www.w3.org/2000/svg" version="1.1">
 <metadata>
  <rdf:RDF xmlns:dc="http://purl.org/dc/elements/1.1/" xmlns:cc="http://creativecommons.org/ns#" xmlns:rdf="http://www.w3.org/1999/02/22-rdf-syntax-ns#">
   <cc:Work>
    <dc:type rdf:resource="http://purl.org/dc/dcmitype/StillImage"/>
    <dc:date>2025-06-11T11:50:46.989458</dc:date>
    <dc:format>image/svg+xml</dc:format>
    <dc:creator>
     <cc:Agent>
      <dc:title>Matplotlib v3.10.1, https://matplotlib.org/</dc:title>
     </cc:Agent>
    </dc:creator>
   </cc:Work>
  </rdf:RDF>
 </metadata>
 <defs>
  <style type="text/css">*{stroke-linejoin: round; stroke-linecap: butt}</style>
 </defs>
 <g id="figure_1">
  <g id="patch_1">
   <path d="M 0 310.86825 
L 414.46375 310.86825 
L 414.46375 0 
L 0 0 
z
" style="fill: #ffffff"/>
  </g>
  <g id="axes_1">
   <g id="patch_2">
    <path d="M 50.14375 273.312 
L 407.26375 273.312 
L 407.26375 7.2 
L 50.14375 7.2 
z
" style="fill: #ffffff"/>
   </g>
   <g id="patch_3">
    <path d="M 68.819266 273.312 
L 70.430322 273.312 
L 70.430322 268.366829 
L 68.819266 268.366829 
z
" clip-path="url(#p1b6b73ff99)" style="fill: #1f77b4"/>
   </g>
   <g id="patch_4">
    <path d="M 70.430322 273.312 
L 72.041378 273.312 
L 72.041378 270.221268 
L 70.430322 270.221268 
z
" clip-path="url(#p1b6b73ff99)" style="fill: #1f77b4"/>
   </g>
   <g id="patch_5">
    <path d="M 72.041378 273.312 
L 73.652435 273.312 
L 73.652435 268.366829 
L 72.041378 268.366829 
z
" clip-path="url(#p1b6b73ff99)" style="fill: #1f77b4"/>
   </g>
   <g id="patch_6">
    <path d="M 73.652435 273.312 
L 75.263491 273.312 
L 75.263491 267.130537 
L 73.652435 267.130537 
z
" clip-path="url(#p1b6b73ff99)" style="fill: #1f77b4"/>
   </g>
   <g id="patch_7">
    <path d="M 75.263491 273.312 
L 76.874547 273.312 
L 76.874547 265.276098 
L 75.263491 265.276098 
z
" clip-path="url(#p1b6b73ff99)" style="fill: #1f77b4"/>
   </g>
   <g id="patch_8">
    <path d="M 76.874547 273.312 
L 78.485603 273.312 
L 78.485603 265.276098 
L 76.874547 265.276098 
z
" clip-path="url(#p1b6b73ff99)" style="fill: #1f77b4"/>
   </g>
   <g id="patch_9">
    <path d="M 78.485603 273.312 
L 80.096659 273.312 
L 80.096659 265.276098 
L 78.485603 265.276098 
z
" clip-path="url(#p1b6b73ff99)" style="fill: #1f77b4"/>
   </g>
   <g id="patch_10">
    <path d="M 80.096659 273.312 
L 81.707715 273.312 
L 81.707715 265.894244 
L 80.096659 265.894244 
z
" clip-path="url(#p1b6b73ff99)" style="fill: #1f77b4"/>
   </g>
   <g id="patch_11">
    <path d="M 81.707715 273.312 
L 83.318772 273.312 
L 83.318772 262.803512 
L 81.707715 262.803512 
z
" clip-path="url(#p1b6b73ff99)" style="fill: #1f77b4"/>
   </g>
   <g id="patch_12">
    <path d="M 83.318772 273.312 
L 84.929828 273.312 
L 84.929828 257.240195 
L 83.318772 257.240195 
z
" clip-path="url(#p1b6b73ff99)" style="fill: #1f77b4"/>
   </g>
   <g id="patch_13">
    <path d="M 84.929828 273.312 
L 86.540884 273.312 
L 86.540884 261.56722 
L 84.929828 261.56722 
z
" clip-path="url(#p1b6b73ff99)" style="fill: #1f77b4"/>
   </g>
   <g id="patch_14">
    <path d="M 86.540884 273.312 
L 88.15194 273.312 
L 88.15194 257.858341 
L 86.540884 257.858341 
z
" clip-path="url(#p1b6b73ff99)" style="fill: #1f77b4"/>
   </g>
   <g id="patch_15">
    <path d="M 88.15194 273.312 
L 89.762996 273.312 
L 89.762996 254.149463 
L 88.15194 254.149463 
z
" clip-path="url(#p1b6b73ff99)" style="fill: #1f77b4"/>
   </g>
   <g id="patch_16">
    <path d="M 89.762996 273.312 
L 91.374052 273.312 
L 91.374052 249.822439 
L 89.762996 249.822439 
z
" clip-path="url(#p1b6b73ff99)" style="fill: #1f77b4"/>
   </g>
   <g id="patch_17">
    <path d="M 91.374052 273.312 
L 92.985109 273.312 
L 92.985109 249.822439 
L 91.374052 249.822439 
z
" clip-path="url(#p1b6b73ff99)" style="fill: #1f77b4"/>
   </g>
   <g id="patch_18">
    <path d="M 92.985109 273.312 
L 94.596165 273.312 
L 94.596165 258.476488 
L 92.985109 258.476488 
z
" clip-path="url(#p1b6b73ff99)" style="fill: #1f77b4"/>
   </g>
   <g id="patch_19">
    <path d="M 94.596165 273.312 
L 96.207221 273.312 
L 96.207221 254.149463 
L 94.596165 254.149463 
z
" clip-path="url(#p1b6b73ff99)" style="fill: #1f77b4"/>
   </g>
   <g id="patch_20">
    <path d="M 96.207221 273.312 
L 97.818277 273.312 
L 97.818277 251.676878 
L 96.207221 251.676878 
z
" clip-path="url(#p1b6b73ff99)" style="fill: #1f77b4"/>
   </g>
   <g id="patch_21">
    <path d="M 97.818277 273.312 
L 99.429333 273.312 
L 99.429333 252.913171 
L 97.818277 252.913171 
z
" clip-path="url(#p1b6b73ff99)" style="fill: #1f77b4"/>
   </g>
   <g id="patch_22">
    <path d="M 99.429333 273.312 
L 101.040389 273.312 
L 101.040389 249.204293 
L 99.429333 249.204293 
z
" clip-path="url(#p1b6b73ff99)" style="fill: #1f77b4"/>
   </g>
   <g id="patch_23">
    <path d="M 101.040389 273.312 
L 102.651445 273.312 
L 102.651445 251.058732 
L 101.040389 251.058732 
z
" clip-path="url(#p1b6b73ff99)" style="fill: #1f77b4"/>
   </g>
   <g id="patch_24">
    <path d="M 102.651445 273.312 
L 104.262502 273.312 
L 104.262502 238.077659 
L 102.651445 238.077659 
z
" clip-path="url(#p1b6b73ff99)" style="fill: #1f77b4"/>
   </g>
   <g id="patch_25">
    <path d="M 104.262502 273.312 
L 105.873558 273.312 
L 105.873558 250.440585 
L 104.262502 250.440585 
z
" clip-path="url(#p1b6b73ff99)" style="fill: #1f77b4"/>
   </g>
   <g id="patch_26">
    <path d="M 105.873558 273.312 
L 107.484614 273.312 
L 107.484614 242.404683 
L 105.873558 242.404683 
z
" clip-path="url(#p1b6b73ff99)" style="fill: #1f77b4"/>
   </g>
   <g id="patch_27">
    <path d="M 107.484614 273.312 
L 109.09567 273.312 
L 109.09567 238.077659 
L 107.484614 238.077659 
z
" clip-path="url(#p1b6b73ff99)" style="fill: #1f77b4"/>
   </g>
   <g id="patch_28">
    <path d="M 109.09567 273.312 
L 110.706726 273.312 
L 110.706726 235.605073 
L 109.09567 235.605073 
z
" clip-path="url(#p1b6b73ff99)" style="fill: #1f77b4"/>
   </g>
   <g id="patch_29">
    <path d="M 110.706726 273.312 
L 112.317782 273.312 
L 112.317782 234.36878 
L 110.706726 234.36878 
z
" clip-path="url(#p1b6b73ff99)" style="fill: #1f77b4"/>
   </g>
   <g id="patch_30">
    <path d="M 112.317782 273.312 
L 113.928839 273.312 
L 113.928839 239.932098 
L 112.317782 239.932098 
z
" clip-path="url(#p1b6b73ff99)" style="fill: #1f77b4"/>
   </g>
   <g id="patch_31">
    <path d="M 113.928839 273.312 
L 115.539895 273.312 
L 115.539895 239.932098 
L 113.928839 239.932098 
z
" clip-path="url(#p1b6b73ff99)" style="fill: #1f77b4"/>
   </g>
   <g id="patch_32">
    <path d="M 115.539895 273.312 
L 117.150951 273.312 
L 117.150951 238.695805 
L 115.539895 238.695805 
z
" clip-path="url(#p1b6b73ff99)" style="fill: #1f77b4"/>
   </g>
   <g id="patch_33">
    <path d="M 117.150951 273.312 
L 118.762007 273.312 
L 118.762007 228.805463 
L 117.150951 228.805463 
z
" clip-path="url(#p1b6b73ff99)" style="fill: #1f77b4"/>
   </g>
   <g id="patch_34">
    <path d="M 118.762007 273.312 
L 120.373063 273.312 
L 120.373063 232.514341 
L 118.762007 232.514341 
z
" clip-path="url(#p1b6b73ff99)" style="fill: #1f77b4"/>
   </g>
   <g id="patch_35">
    <path d="M 120.373063 273.312 
L 121.984119 273.312 
L 121.984119 231.278049 
L 120.373063 231.278049 
z
" clip-path="url(#p1b6b73ff99)" style="fill: #1f77b4"/>
   </g>
   <g id="patch_36">
    <path d="M 121.984119 273.312 
L 123.595176 273.312 
L 123.595176 228.805463 
L 121.984119 228.805463 
z
" clip-path="url(#p1b6b73ff99)" style="fill: #1f77b4"/>
   </g>
   <g id="patch_37">
    <path d="M 123.595176 273.312 
L 125.206232 273.312 
L 125.206232 236.22322 
L 123.595176 236.22322 
z
" clip-path="url(#p1b6b73ff99)" style="fill: #1f77b4"/>
   </g>
   <g id="patch_38">
    <path d="M 125.206232 273.312 
L 126.817288 273.312 
L 126.817288 227.569171 
L 125.206232 227.569171 
z
" clip-path="url(#p1b6b73ff99)" style="fill: #1f77b4"/>
   </g>
   <g id="patch_39">
    <path d="M 126.817288 273.312 
L 128.428344 273.312 
L 128.428344 226.951024 
L 126.817288 226.951024 
z
" clip-path="url(#p1b6b73ff99)" style="fill: #1f77b4"/>
   </g>
   <g id="patch_40">
    <path d="M 128.428344 273.312 
L 130.0394 273.312 
L 130.0394 222.624 
L 128.428344 222.624 
z
" clip-path="url(#p1b6b73ff99)" style="fill: #1f77b4"/>
   </g>
   <g id="patch_41">
    <path d="M 130.0394 273.312 
L 131.650456 273.312 
L 131.650456 221.387707 
L 130.0394 221.387707 
z
" clip-path="url(#p1b6b73ff99)" style="fill: #1f77b4"/>
   </g>
   <g id="patch_42">
    <path d="M 131.650456 273.312 
L 133.261513 273.312 
L 133.261513 219.533268 
L 131.650456 219.533268 
z
" clip-path="url(#p1b6b73ff99)" style="fill: #1f77b4"/>
   </g>
   <g id="patch_43">
    <path d="M 133.261513 273.312 
L 134.872569 273.312 
L 134.872569 227.569171 
L 133.261513 227.569171 
z
" clip-path="url(#p1b6b73ff99)" style="fill: #1f77b4"/>
   </g>
   <g id="patch_44">
    <path d="M 134.872569 273.312 
L 136.483625 273.312 
L 136.483625 220.151415 
L 134.872569 220.151415 
z
" clip-path="url(#p1b6b73ff99)" style="fill: #1f77b4"/>
   </g>
   <g id="patch_45">
    <path d="M 136.483625 273.312 
L 138.094681 273.312 
L 138.094681 214.588098 
L 136.483625 214.588098 
z
" clip-path="url(#p1b6b73ff99)" style="fill: #1f77b4"/>
   </g>
   <g id="patch_46">
    <path d="M 138.094681 273.312 
L 139.705737 273.312 
L 139.705737 209.642927 
L 138.094681 209.642927 
z
" clip-path="url(#p1b6b73ff99)" style="fill: #1f77b4"/>
   </g>
   <g id="patch_47">
    <path d="M 139.705737 273.312 
L 141.316793 273.312 
L 141.316793 218.296976 
L 139.705737 218.296976 
z
" clip-path="url(#p1b6b73ff99)" style="fill: #1f77b4"/>
   </g>
   <g id="patch_48">
    <path d="M 141.316793 273.312 
L 142.92785 273.312 
L 142.92785 213.351805 
L 141.316793 213.351805 
z
" clip-path="url(#p1b6b73ff99)" style="fill: #1f77b4"/>
   </g>
   <g id="patch_49">
    <path d="M 142.92785 273.312 
L 144.538906 273.312 
L 144.538906 211.497366 
L 142.92785 211.497366 
z
" clip-path="url(#p1b6b73ff99)" style="fill: #1f77b4"/>
   </g>
   <g id="patch_50">
    <path d="M 144.538906 273.312 
L 146.149962 273.312 
L 146.149962 215.82439 
L 144.538906 215.82439 
z
" clip-path="url(#p1b6b73ff99)" style="fill: #1f77b4"/>
   </g>
   <g id="patch_51">
    <path d="M 146.149962 273.312 
L 147.761018 273.312 
L 147.761018 212.733659 
L 146.149962 212.733659 
z
" clip-path="url(#p1b6b73ff99)" style="fill: #1f77b4"/>
   </g>
   <g id="patch_52">
    <path d="M 147.761018 273.312 
L 149.372074 273.312 
L 149.372074 207.170341 
L 147.761018 207.170341 
z
" clip-path="url(#p1b6b73ff99)" style="fill: #1f77b4"/>
   </g>
   <g id="patch_53">
    <path d="M 149.372074 273.312 
L 150.98313 273.312 
L 150.98313 211.497366 
L 149.372074 211.497366 
z
" clip-path="url(#p1b6b73ff99)" style="fill: #1f77b4"/>
   </g>
   <g id="patch_54">
    <path d="M 150.98313 273.312 
L 152.594187 273.312 
L 152.594187 205.315902 
L 150.98313 205.315902 
z
" clip-path="url(#p1b6b73ff99)" style="fill: #1f77b4"/>
   </g>
   <g id="patch_55">
    <path d="M 152.594187 273.312 
L 154.205243 273.312 
L 154.205243 209.02478 
L 152.594187 209.02478 
z
" clip-path="url(#p1b6b73ff99)" style="fill: #1f77b4"/>
   </g>
   <g id="patch_56">
    <path d="M 154.205243 273.312 
L 155.816299 273.312 
L 155.816299 213.351805 
L 154.205243 213.351805 
z
" clip-path="url(#p1b6b73ff99)" style="fill: #1f77b4"/>
   </g>
   <g id="patch_57">
    <path d="M 155.816299 273.312 
L 157.427355 273.312 
L 157.427355 205.934049 
L 155.816299 205.934049 
z
" clip-path="url(#p1b6b73ff99)" style="fill: #1f77b4"/>
   </g>
   <g id="patch_58">
    <path d="M 157.427355 273.312 
L 159.038411 273.312 
L 159.038411 207.170341 
L 157.427355 207.170341 
z
" clip-path="url(#p1b6b73ff99)" style="fill: #1f77b4"/>
   </g>
   <g id="patch_59">
    <path d="M 159.038411 273.312 
L 160.649467 273.312 
L 160.649467 206.552195 
L 159.038411 206.552195 
z
" clip-path="url(#p1b6b73ff99)" style="fill: #1f77b4"/>
   </g>
   <g id="patch_60">
    <path d="M 160.649467 273.312 
L 162.260524 273.312 
L 162.260524 174.408585 
L 160.649467 174.408585 
z
" clip-path="url(#p1b6b73ff99)" style="fill: #1f77b4"/>
   </g>
   <g id="patch_61">
    <path d="M 162.260524 273.312 
L 163.87158 273.312 
L 163.87158 199.134439 
L 162.260524 199.134439 
z
" clip-path="url(#p1b6b73ff99)" style="fill: #1f77b4"/>
   </g>
   <g id="patch_62">
    <path d="M 163.87158 273.312 
L 165.482636 273.312 
L 165.482636 193.571122 
L 163.87158 193.571122 
z
" clip-path="url(#p1b6b73ff99)" style="fill: #1f77b4"/>
   </g>
   <g id="patch_63">
    <path d="M 165.482636 273.312 
L 167.093692 273.312 
L 167.093692 193.571122 
L 165.482636 193.571122 
z
" clip-path="url(#p1b6b73ff99)" style="fill: #1f77b4"/>
   </g>
   <g id="patch_64">
    <path d="M 167.093692 273.312 
L 168.704748 273.312 
L 168.704748 198.516293 
L 167.093692 198.516293 
z
" clip-path="url(#p1b6b73ff99)" style="fill: #1f77b4"/>
   </g>
   <g id="patch_65">
    <path d="M 168.704748 273.312 
L 170.315804 273.312 
L 170.315804 186.153366 
L 168.704748 186.153366 
z
" clip-path="url(#p1b6b73ff99)" style="fill: #1f77b4"/>
   </g>
   <g id="patch_66">
    <path d="M 170.315804 273.312 
L 171.926861 273.312 
L 171.926861 188.625951 
L 170.315804 188.625951 
z
" clip-path="url(#p1b6b73ff99)" style="fill: #1f77b4"/>
   </g>
   <g id="patch_67">
    <path d="M 171.926861 273.312 
L 173.537917 273.312 
L 173.537917 199.134439 
L 171.926861 199.134439 
z
" clip-path="url(#p1b6b73ff99)" style="fill: #1f77b4"/>
   </g>
   <g id="patch_68">
    <path d="M 173.537917 273.312 
L 175.148973 273.312 
L 175.148973 202.843317 
L 173.537917 202.843317 
z
" clip-path="url(#p1b6b73ff99)" style="fill: #1f77b4"/>
   </g>
   <g id="patch_69">
    <path d="M 175.148973 273.312 
L 176.760029 273.312 
L 176.760029 199.134439 
L 175.148973 199.134439 
z
" clip-path="url(#p1b6b73ff99)" style="fill: #1f77b4"/>
   </g>
   <g id="patch_70">
    <path d="M 176.760029 273.312 
L 178.371085 273.312 
L 178.371085 192.952976 
L 176.760029 192.952976 
z
" clip-path="url(#p1b6b73ff99)" style="fill: #1f77b4"/>
   </g>
   <g id="patch_71">
    <path d="M 178.371085 273.312 
L 179.982141 273.312 
L 179.982141 183.68078 
L 178.371085 183.68078 
z
" clip-path="url(#p1b6b73ff99)" style="fill: #1f77b4"/>
   </g>
   <g id="patch_72">
    <path d="M 179.982141 273.312 
L 181.593198 273.312 
L 181.593198 187.389659 
L 179.982141 187.389659 
z
" clip-path="url(#p1b6b73ff99)" style="fill: #1f77b4"/>
   </g>
   <g id="patch_73">
    <path d="M 181.593198 273.312 
L 183.204254 273.312 
L 183.204254 183.062634 
L 181.593198 183.062634 
z
" clip-path="url(#p1b6b73ff99)" style="fill: #1f77b4"/>
   </g>
   <g id="patch_74">
    <path d="M 183.204254 273.312 
L 184.81531 273.312 
L 184.81531 175.026732 
L 183.204254 175.026732 
z
" clip-path="url(#p1b6b73ff99)" style="fill: #1f77b4"/>
   </g>
   <g id="patch_75">
    <path d="M 184.81531 273.312 
L 186.426366 273.312 
L 186.426366 182.444488 
L 184.81531 182.444488 
z
" clip-path="url(#p1b6b73ff99)" style="fill: #1f77b4"/>
   </g>
   <g id="patch_76">
    <path d="M 186.426366 273.312 
L 188.037422 273.312 
L 188.037422 186.771512 
L 186.426366 186.771512 
z
" clip-path="url(#p1b6b73ff99)" style="fill: #1f77b4"/>
   </g>
   <g id="patch_77">
    <path d="M 188.037422 273.312 
L 189.648478 273.312 
L 189.648478 177.499317 
L 188.037422 177.499317 
z
" clip-path="url(#p1b6b73ff99)" style="fill: #1f77b4"/>
   </g>
   <g id="patch_78">
    <path d="M 189.648478 273.312 
L 191.259535 273.312 
L 191.259535 178.117463 
L 189.648478 178.117463 
z
" clip-path="url(#p1b6b73ff99)" style="fill: #1f77b4"/>
   </g>
   <g id="patch_79">
    <path d="M 191.259535 273.312 
L 192.870591 273.312 
L 192.870591 162.663805 
L 191.259535 162.663805 
z
" clip-path="url(#p1b6b73ff99)" style="fill: #1f77b4"/>
   </g>
   <g id="patch_80">
    <path d="M 192.870591 273.312 
L 194.481647 273.312 
L 194.481647 179.971902 
L 192.870591 179.971902 
z
" clip-path="url(#p1b6b73ff99)" style="fill: #1f77b4"/>
   </g>
   <g id="patch_81">
    <path d="M 194.481647 273.312 
L 196.092703 273.312 
L 196.092703 157.718634 
L 194.481647 157.718634 
z
" clip-path="url(#p1b6b73ff99)" style="fill: #1f77b4"/>
   </g>
   <g id="patch_82">
    <path d="M 196.092703 273.312 
L 197.703759 273.312 
L 197.703759 165.13639 
L 196.092703 165.13639 
z
" clip-path="url(#p1b6b73ff99)" style="fill: #1f77b4"/>
   </g>
   <g id="patch_83">
    <path d="M 197.703759 273.312 
L 199.314815 273.312 
L 199.314815 164.518244 
L 197.703759 164.518244 
z
" clip-path="url(#p1b6b73ff99)" style="fill: #1f77b4"/>
   </g>
   <g id="patch_84">
    <path d="M 199.314815 273.312 
L 200.925872 273.312 
L 200.925872 168.845268 
L 199.314815 168.845268 
z
" clip-path="url(#p1b6b73ff99)" style="fill: #1f77b4"/>
   </g>
   <g id="patch_85">
    <path d="M 200.925872 273.312 
L 202.536928 273.312 
L 202.536928 176.881171 
L 200.925872 176.881171 
z
" clip-path="url(#p1b6b73ff99)" style="fill: #1f77b4"/>
   </g>
   <g id="patch_86">
    <path d="M 202.536928 273.312 
L 204.147984 273.312 
L 204.147984 173.790439 
L 202.536928 173.790439 
z
" clip-path="url(#p1b6b73ff99)" style="fill: #1f77b4"/>
   </g>
   <g id="patch_87">
    <path d="M 204.147984 273.312 
L 205.75904 273.312 
L 205.75904 157.100488 
L 204.147984 157.100488 
z
" clip-path="url(#p1b6b73ff99)" style="fill: #1f77b4"/>
   </g>
   <g id="patch_88">
    <path d="M 205.75904 273.312 
L 207.370096 273.312 
L 207.370096 163.900098 
L 205.75904 163.900098 
z
" clip-path="url(#p1b6b73ff99)" style="fill: #1f77b4"/>
   </g>
   <g id="patch_89">
    <path d="M 207.370096 273.312 
L 208.981152 273.312 
L 208.981152 171.936 
L 207.370096 171.936 
z
" clip-path="url(#p1b6b73ff99)" style="fill: #1f77b4"/>
   </g>
   <g id="patch_90">
    <path d="M 208.981152 273.312 
L 210.592209 273.312 
L 210.592209 163.900098 
L 208.981152 163.900098 
z
" clip-path="url(#p1b6b73ff99)" style="fill: #1f77b4"/>
   </g>
   <g id="patch_91">
    <path d="M 210.592209 273.312 
L 212.203265 273.312 
L 212.203265 170.081561 
L 210.592209 170.081561 
z
" clip-path="url(#p1b6b73ff99)" style="fill: #1f77b4"/>
   </g>
   <g id="patch_92">
    <path d="M 212.203265 273.312 
L 213.814321 273.312 
L 213.814321 165.13639 
L 212.203265 165.13639 
z
" clip-path="url(#p1b6b73ff99)" style="fill: #1f77b4"/>
   </g>
   <g id="patch_93">
    <path d="M 213.814321 273.312 
L 215.425377 273.312 
L 215.425377 152.773463 
L 213.814321 152.773463 
z
" clip-path="url(#p1b6b73ff99)" style="fill: #1f77b4"/>
   </g>
   <g id="patch_94">
    <path d="M 215.425377 273.312 
L 217.036433 273.312 
L 217.036433 150.919024 
L 215.425377 150.919024 
z
" clip-path="url(#p1b6b73ff99)" style="fill: #1f77b4"/>
   </g>
   <g id="patch_95">
    <path d="M 217.036433 273.312 
L 218.647489 273.312 
L 218.647489 142.883122 
L 217.036433 142.883122 
z
" clip-path="url(#p1b6b73ff99)" style="fill: #1f77b4"/>
   </g>
   <g id="patch_96">
    <path d="M 218.647489 273.312 
L 220.258546 273.312 
L 220.258546 158.33678 
L 218.647489 158.33678 
z
" clip-path="url(#p1b6b73ff99)" style="fill: #1f77b4"/>
   </g>
   <g id="patch_97">
    <path d="M 220.258546 273.312 
L 221.869602 273.312 
L 221.869602 150.919024 
L 220.258546 150.919024 
z
" clip-path="url(#p1b6b73ff99)" style="fill: #1f77b4"/>
   </g>
   <g id="patch_98">
    <path d="M 221.869602 273.312 
L 223.480658 273.312 
L 223.480658 163.900098 
L 221.869602 163.900098 
z
" clip-path="url(#p1b6b73ff99)" style="fill: #1f77b4"/>
   </g>
   <g id="patch_99">
    <path d="M 223.480658 273.312 
L 225.091714 273.312 
L 225.091714 144.737561 
L 223.480658 144.737561 
z
" clip-path="url(#p1b6b73ff99)" style="fill: #1f77b4"/>
   </g>
   <g id="patch_100">
    <path d="M 225.091714 273.312 
L 226.70277 273.312 
L 226.70277 126.811317 
L 225.091714 126.811317 
z
" clip-path="url(#p1b6b73ff99)" style="fill: #1f77b4"/>
   </g>
   <g id="patch_101">
    <path d="M 226.70277 273.312 
L 228.313826 273.312 
L 228.313826 155.246049 
L 226.70277 155.246049 
z
" clip-path="url(#p1b6b73ff99)" style="fill: #1f77b4"/>
   </g>
   <g id="patch_102">
    <path d="M 228.313826 273.312 
L 229.924883 273.312 
L 229.924883 148.446439 
L 228.313826 148.446439 
z
" clip-path="url(#p1b6b73ff99)" style="fill: #1f77b4"/>
   </g>
   <g id="patch_103">
    <path d="M 229.924883 273.312 
L 231.535939 273.312 
L 231.535939 140.410537 
L 229.924883 140.410537 
z
" clip-path="url(#p1b6b73ff99)" style="fill: #1f77b4"/>
   </g>
   <g id="patch_104">
    <path d="M 231.535939 273.312 
L 233.146995 273.312 
L 233.146995 146.592 
L 231.535939 146.592 
z
" clip-path="url(#p1b6b73ff99)" style="fill: #1f77b4"/>
   </g>
   <g id="patch_105">
    <path d="M 233.146995 273.312 
L 234.758051 273.312 
L 234.758051 164.518244 
L 233.146995 164.518244 
z
" clip-path="url(#p1b6b73ff99)" style="fill: #1f77b4"/>
   </g>
   <g id="patch_106">
    <path d="M 234.758051 273.312 
L 236.369107 273.312 
L 236.369107 147.828293 
L 234.758051 147.828293 
z
" clip-path="url(#p1b6b73ff99)" style="fill: #1f77b4"/>
   </g>
   <g id="patch_107">
    <path d="M 236.369107 273.312 
L 237.980163 273.312 
L 237.980163 156.482341 
L 236.369107 156.482341 
z
" clip-path="url(#p1b6b73ff99)" style="fill: #1f77b4"/>
   </g>
   <g id="patch_108">
    <path d="M 237.980163 273.312 
L 239.59122 273.312 
L 239.59122 162.045659 
L 237.980163 162.045659 
z
" clip-path="url(#p1b6b73ff99)" style="fill: #1f77b4"/>
   </g>
   <g id="patch_109">
    <path d="M 239.59122 273.312 
L 241.202276 273.312 
L 241.202276 136.701659 
L 239.59122 136.701659 
z
" clip-path="url(#p1b6b73ff99)" style="fill: #1f77b4"/>
   </g>
   <g id="patch_110">
    <path d="M 241.202276 273.312 
L 242.813332 273.312 
L 242.813332 139.79239 
L 241.202276 139.79239 
z
" clip-path="url(#p1b6b73ff99)" style="fill: #1f77b4"/>
   </g>
   <g id="patch_111">
    <path d="M 242.813332 273.312 
L 244.424388 273.312 
L 244.424388 136.701659 
L 242.813332 136.701659 
z
" clip-path="url(#p1b6b73ff99)" style="fill: #1f77b4"/>
   </g>
   <g id="patch_112">
    <path d="M 244.424388 273.312 
L 246.035444 273.312 
L 246.035444 141.646829 
L 244.424388 141.646829 
z
" clip-path="url(#p1b6b73ff99)" style="fill: #1f77b4"/>
   </g>
   <g id="patch_113">
    <path d="M 246.035444 273.312 
L 247.6465 273.312 
L 247.6465 147.210146 
L 246.035444 147.210146 
z
" clip-path="url(#p1b6b73ff99)" style="fill: #1f77b4"/>
   </g>
   <g id="patch_114">
    <path d="M 247.6465 273.312 
L 249.257557 273.312 
L 249.257557 141.646829 
L 247.6465 141.646829 
z
" clip-path="url(#p1b6b73ff99)" style="fill: #1f77b4"/>
   </g>
   <g id="patch_115">
    <path d="M 249.257557 273.312 
L 250.868613 273.312 
L 250.868613 142.883122 
L 249.257557 142.883122 
z
" clip-path="url(#p1b6b73ff99)" style="fill: #1f77b4"/>
   </g>
   <g id="patch_116">
    <path d="M 250.868613 273.312 
L 252.479669 273.312 
L 252.479669 148.446439 
L 250.868613 148.446439 
z
" clip-path="url(#p1b6b73ff99)" style="fill: #1f77b4"/>
   </g>
   <g id="patch_117">
    <path d="M 252.479669 273.312 
L 254.090725 273.312 
L 254.090725 129.902049 
L 252.479669 129.902049 
z
" clip-path="url(#p1b6b73ff99)" style="fill: #1f77b4"/>
   </g>
   <g id="patch_118">
    <path d="M 254.090725 273.312 
L 255.701781 273.312 
L 255.701781 134.229073 
L 254.090725 134.229073 
z
" clip-path="url(#p1b6b73ff99)" style="fill: #1f77b4"/>
   </g>
   <g id="patch_119">
    <path d="M 255.701781 273.312 
L 257.312837 273.312 
L 257.312837 136.083512 
L 255.701781 136.083512 
z
" clip-path="url(#p1b6b73ff99)" style="fill: #1f77b4"/>
   </g>
   <g id="patch_120">
    <path d="M 257.312837 273.312 
L 258.923894 273.312 
L 258.923894 144.737561 
L 257.312837 144.737561 
z
" clip-path="url(#p1b6b73ff99)" style="fill: #1f77b4"/>
   </g>
   <g id="patch_121">
    <path d="M 258.923894 273.312 
L 260.53495 273.312 
L 260.53495 124.956878 
L 258.923894 124.956878 
z
" clip-path="url(#p1b6b73ff99)" style="fill: #1f77b4"/>
   </g>
   <g id="patch_122">
    <path d="M 260.53495 273.312 
L 262.146006 273.312 
L 262.146006 119.393561 
L 260.53495 119.393561 
z
" clip-path="url(#p1b6b73ff99)" style="fill: #1f77b4"/>
   </g>
   <g id="patch_123">
    <path d="M 262.146006 273.312 
L 263.757062 273.312 
L 263.757062 116.302829 
L 262.146006 116.302829 
z
" clip-path="url(#p1b6b73ff99)" style="fill: #1f77b4"/>
   </g>
   <g id="patch_124">
    <path d="M 263.757062 273.312 
L 265.368118 273.312 
L 265.368118 120.629854 
L 263.757062 120.629854 
z
" clip-path="url(#p1b6b73ff99)" style="fill: #1f77b4"/>
   </g>
   <g id="patch_125">
    <path d="M 265.368118 273.312 
L 266.979174 273.312 
L 266.979174 137.319805 
L 265.368118 137.319805 
z
" clip-path="url(#p1b6b73ff99)" style="fill: #1f77b4"/>
   </g>
   <g id="patch_126">
    <path d="M 266.979174 273.312 
L 268.59023 273.312 
L 268.59023 124.338732 
L 266.979174 124.338732 
z
" clip-path="url(#p1b6b73ff99)" style="fill: #1f77b4"/>
   </g>
   <g id="patch_127">
    <path d="M 268.59023 273.312 
L 270.201287 273.312 
L 270.201287 127.429463 
L 268.59023 127.429463 
z
" clip-path="url(#p1b6b73ff99)" style="fill: #1f77b4"/>
   </g>
   <g id="patch_128">
    <path d="M 270.201287 273.312 
L 271.812343 273.312 
L 271.812343 122.484293 
L 270.201287 122.484293 
z
" clip-path="url(#p1b6b73ff99)" style="fill: #1f77b4"/>
   </g>
   <g id="patch_129">
    <path d="M 271.812343 273.312 
L 273.423399 273.312 
L 273.423399 117.539122 
L 271.812343 117.539122 
z
" clip-path="url(#p1b6b73ff99)" style="fill: #1f77b4"/>
   </g>
   <g id="patch_130">
    <path d="M 273.423399 273.312 
L 275.034455 273.312 
L 275.034455 129.283902 
L 273.423399 129.283902 
z
" clip-path="url(#p1b6b73ff99)" style="fill: #1f77b4"/>
   </g>
   <g id="patch_131">
    <path d="M 275.034455 273.312 
L 276.645511 273.312 
L 276.645511 116.302829 
L 275.034455 116.302829 
z
" clip-path="url(#p1b6b73ff99)" style="fill: #1f77b4"/>
   </g>
   <g id="patch_132">
    <path d="M 276.645511 273.312 
L 278.256567 273.312 
L 278.256567 103.939902 
L 276.645511 103.939902 
z
" clip-path="url(#p1b6b73ff99)" style="fill: #1f77b4"/>
   </g>
   <g id="patch_133">
    <path d="M 278.256567 273.312 
L 279.867624 273.312 
L 279.867624 130.520195 
L 278.256567 130.520195 
z
" clip-path="url(#p1b6b73ff99)" style="fill: #1f77b4"/>
   </g>
   <g id="patch_134">
    <path d="M 279.867624 273.312 
L 281.47868 273.312 
L 281.47868 106.412488 
L 279.867624 106.412488 
z
" clip-path="url(#p1b6b73ff99)" style="fill: #1f77b4"/>
   </g>
   <g id="patch_135">
    <path d="M 281.47868 273.312 
L 283.089736 273.312 
L 283.089736 120.011707 
L 281.47868 120.011707 
z
" clip-path="url(#p1b6b73ff99)" style="fill: #1f77b4"/>
   </g>
   <g id="patch_136">
    <path d="M 283.089736 273.312 
L 284.700792 273.312 
L 284.700792 117.539122 
L 283.089736 117.539122 
z
" clip-path="url(#p1b6b73ff99)" style="fill: #1f77b4"/>
   </g>
   <g id="patch_137">
    <path d="M 284.700792 273.312 
L 286.311848 273.312 
L 286.311848 106.412488 
L 284.700792 106.412488 
z
" clip-path="url(#p1b6b73ff99)" style="fill: #1f77b4"/>
   </g>
   <g id="patch_138">
    <path d="M 286.311848 273.312 
L 287.922904 273.312 
L 287.922904 121.866146 
L 286.311848 121.866146 
z
" clip-path="url(#p1b6b73ff99)" style="fill: #1f77b4"/>
   </g>
   <g id="patch_139">
    <path d="M 287.922904 273.312 
L 289.533961 273.312 
L 289.533961 87.249951 
L 287.922904 87.249951 
z
" clip-path="url(#p1b6b73ff99)" style="fill: #1f77b4"/>
   </g>
   <g id="patch_140">
    <path d="M 289.533961 273.312 
L 291.145017 273.312 
L 291.145017 83.541073 
L 289.533961 83.541073 
z
" clip-path="url(#p1b6b73ff99)" style="fill: #1f77b4"/>
   </g>
   <g id="patch_141">
    <path d="M 291.145017 273.312 
L 292.756073 273.312 
L 292.756073 109.50322 
L 291.145017 109.50322 
z
" clip-path="url(#p1b6b73ff99)" style="fill: #1f77b4"/>
   </g>
   <g id="patch_142">
    <path d="M 292.756073 273.312 
L 294.367129 273.312 
L 294.367129 77.35961 
L 292.756073 77.35961 
z
" clip-path="url(#p1b6b73ff99)" style="fill: #1f77b4"/>
   </g>
   <g id="patch_143">
    <path d="M 294.367129 273.312 
L 295.978185 273.312 
L 295.978185 110.121366 
L 294.367129 110.121366 
z
" clip-path="url(#p1b6b73ff99)" style="fill: #1f77b4"/>
   </g>
   <g id="patch_144">
    <path d="M 295.978185 273.312 
L 297.589241 273.312 
L 297.589241 94.667707 
L 295.978185 94.667707 
z
" clip-path="url(#p1b6b73ff99)" style="fill: #1f77b4"/>
   </g>
   <g id="patch_145">
    <path d="M 297.589241 273.312 
L 299.200298 273.312 
L 299.200298 98.376585 
L 297.589241 98.376585 
z
" clip-path="url(#p1b6b73ff99)" style="fill: #1f77b4"/>
   </g>
   <g id="patch_146">
    <path d="M 299.200298 273.312 
L 300.811354 273.312 
L 300.811354 86.631805 
L 299.200298 86.631805 
z
" clip-path="url(#p1b6b73ff99)" style="fill: #1f77b4"/>
   </g>
   <g id="patch_147">
    <path d="M 300.811354 273.312 
L 302.42241 273.312 
L 302.42241 97.758439 
L 300.811354 97.758439 
z
" clip-path="url(#p1b6b73ff99)" style="fill: #1f77b4"/>
   </g>
   <g id="patch_148">
    <path d="M 302.42241 273.312 
L 304.033466 273.312 
L 304.033466 90.958829 
L 302.42241 90.958829 
z
" clip-path="url(#p1b6b73ff99)" style="fill: #1f77b4"/>
   </g>
   <g id="patch_149">
    <path d="M 304.033466 273.312 
L 305.644522 273.312 
L 305.644522 113.830244 
L 304.033466 113.830244 
z
" clip-path="url(#p1b6b73ff99)" style="fill: #1f77b4"/>
   </g>
   <g id="patch_150">
    <path d="M 305.644522 273.312 
L 307.255578 273.312 
L 307.255578 103.321756 
L 305.644522 103.321756 
z
" clip-path="url(#p1b6b73ff99)" style="fill: #1f77b4"/>
   </g>
   <g id="patch_151">
    <path d="M 307.255578 273.312 
L 308.866635 273.312 
L 308.866635 120.011707 
L 307.255578 120.011707 
z
" clip-path="url(#p1b6b73ff99)" style="fill: #1f77b4"/>
   </g>
   <g id="patch_152">
    <path d="M 308.866635 273.312 
L 310.477691 273.312 
L 310.477691 85.395512 
L 308.866635 85.395512 
z
" clip-path="url(#p1b6b73ff99)" style="fill: #1f77b4"/>
   </g>
   <g id="patch_153">
    <path d="M 310.477691 273.312 
L 312.088747 273.312 
L 312.088747 84.15922 
L 310.477691 84.15922 
z
" clip-path="url(#p1b6b73ff99)" style="fill: #1f77b4"/>
   </g>
   <g id="patch_154">
    <path d="M 312.088747 273.312 
L 313.699803 273.312 
L 313.699803 78.595902 
L 312.088747 78.595902 
z
" clip-path="url(#p1b6b73ff99)" style="fill: #1f77b4"/>
   </g>
   <g id="patch_155">
    <path d="M 313.699803 273.312 
L 315.310859 273.312 
L 315.310859 108.266927 
L 313.699803 108.266927 
z
" clip-path="url(#p1b6b73ff99)" style="fill: #1f77b4"/>
   </g>
   <g id="patch_156">
    <path d="M 315.310859 273.312 
L 316.921915 273.312 
L 316.921915 92.813268 
L 315.310859 92.813268 
z
" clip-path="url(#p1b6b73ff99)" style="fill: #1f77b4"/>
   </g>
   <g id="patch_157">
    <path d="M 316.921915 273.312 
L 318.532972 273.312 
L 318.532972 78.595902 
L 316.921915 78.595902 
z
" clip-path="url(#p1b6b73ff99)" style="fill: #1f77b4"/>
   </g>
   <g id="patch_158">
    <path d="M 318.532972 273.312 
L 320.144028 273.312 
L 320.144028 88.486244 
L 318.532972 88.486244 
z
" clip-path="url(#p1b6b73ff99)" style="fill: #1f77b4"/>
   </g>
   <g id="patch_159">
    <path d="M 320.144028 273.312 
L 321.755084 273.312 
L 321.755084 74.268878 
L 320.144028 74.268878 
z
" clip-path="url(#p1b6b73ff99)" style="fill: #1f77b4"/>
   </g>
   <g id="patch_160">
    <path d="M 321.755084 273.312 
L 323.36614 273.312 
L 323.36614 84.777366 
L 321.755084 84.777366 
z
" clip-path="url(#p1b6b73ff99)" style="fill: #1f77b4"/>
   </g>
   <g id="patch_161">
    <path d="M 323.36614 273.312 
L 324.977196 273.312 
L 324.977196 89.10439 
L 323.36614 89.10439 
z
" clip-path="url(#p1b6b73ff99)" style="fill: #1f77b4"/>
   </g>
   <g id="patch_162">
    <path d="M 324.977196 273.312 
L 326.588252 273.312 
L 326.588252 77.977756 
L 324.977196 77.977756 
z
" clip-path="url(#p1b6b73ff99)" style="fill: #1f77b4"/>
   </g>
   <g id="patch_163">
    <path d="M 326.588252 273.312 
L 328.199309 273.312 
L 328.199309 76.741463 
L 326.588252 76.741463 
z
" clip-path="url(#p1b6b73ff99)" style="fill: #1f77b4"/>
   </g>
   <g id="patch_164">
    <path d="M 328.199309 273.312 
L 329.810365 273.312 
L 329.810365 86.013659 
L 328.199309 86.013659 
z
" clip-path="url(#p1b6b73ff99)" style="fill: #1f77b4"/>
   </g>
   <g id="patch_165">
    <path d="M 329.810365 273.312 
L 331.421421 273.312 
L 331.421421 86.013659 
L 329.810365 86.013659 
z
" clip-path="url(#p1b6b73ff99)" style="fill: #1f77b4"/>
   </g>
   <g id="patch_166">
    <path d="M 331.421421 273.312 
L 333.032477 273.312 
L 333.032477 86.013659 
L 331.421421 86.013659 
z
" clip-path="url(#p1b6b73ff99)" style="fill: #1f77b4"/>
   </g>
   <g id="patch_167">
    <path d="M 333.032477 273.312 
L 334.643533 273.312 
L 334.643533 66.232976 
L 333.032477 66.232976 
z
" clip-path="url(#p1b6b73ff99)" style="fill: #1f77b4"/>
   </g>
   <g id="patch_168">
    <path d="M 334.643533 273.312 
L 336.254589 273.312 
L 336.254589 61.287805 
L 334.643533 61.287805 
z
" clip-path="url(#p1b6b73ff99)" style="fill: #1f77b4"/>
   </g>
   <g id="patch_169">
    <path d="M 336.254589 273.312 
L 337.865646 273.312 
L 337.865646 73.032585 
L 336.254589 73.032585 
z
" clip-path="url(#p1b6b73ff99)" style="fill: #1f77b4"/>
   </g>
   <g id="patch_170">
    <path d="M 337.865646 273.312 
L 339.476702 273.312 
L 339.476702 72.414439 
L 337.865646 72.414439 
z
" clip-path="url(#p1b6b73ff99)" style="fill: #1f77b4"/>
   </g>
   <g id="patch_171">
    <path d="M 339.476702 273.312 
L 341.087758 273.312 
L 341.087758 62.524098 
L 339.476702 62.524098 
z
" clip-path="url(#p1b6b73ff99)" style="fill: #1f77b4"/>
   </g>
   <g id="patch_172">
    <path d="M 341.087758 273.312 
L 342.698814 273.312 
L 342.698814 87.868098 
L 341.087758 87.868098 
z
" clip-path="url(#p1b6b73ff99)" style="fill: #1f77b4"/>
   </g>
   <g id="patch_173">
    <path d="M 342.698814 273.312 
L 344.30987 273.312 
L 344.30987 79.214049 
L 342.698814 79.214049 
z
" clip-path="url(#p1b6b73ff99)" style="fill: #1f77b4"/>
   </g>
   <g id="patch_174">
    <path d="M 344.30987 273.312 
L 345.920926 273.312 
L 345.920926 31.61678 
L 344.30987 31.61678 
z
" clip-path="url(#p1b6b73ff99)" style="fill: #1f77b4"/>
   </g>
   <g id="patch_175">
    <path d="M 345.920926 273.312 
L 347.531983 273.312 
L 347.531983 59.433366 
L 345.920926 59.433366 
z
" clip-path="url(#p1b6b73ff99)" style="fill: #1f77b4"/>
   </g>
   <g id="patch_176">
    <path d="M 347.531983 273.312 
L 349.143039 273.312 
L 349.143039 50.161171 
L 347.531983 50.161171 
z
" clip-path="url(#p1b6b73ff99)" style="fill: #1f77b4"/>
   </g>
   <g id="patch_177">
    <path d="M 349.143039 273.312 
L 350.754095 273.312 
L 350.754095 56.96078 
L 349.143039 56.96078 
z
" clip-path="url(#p1b6b73ff99)" style="fill: #1f77b4"/>
   </g>
   <g id="patch_178">
    <path d="M 350.754095 273.312 
L 352.365151 273.312 
L 352.365151 48.924878 
L 350.754095 48.924878 
z
" clip-path="url(#p1b6b73ff99)" style="fill: #1f77b4"/>
   </g>
   <g id="patch_179">
    <path d="M 352.365151 273.312 
L 353.976207 273.312 
L 353.976207 52.633756 
L 352.365151 52.633756 
z
" clip-path="url(#p1b6b73ff99)" style="fill: #1f77b4"/>
   </g>
   <g id="patch_180">
    <path d="M 353.976207 273.312 
L 355.587263 273.312 
L 355.587263 50.161171 
L 353.976207 50.161171 
z
" clip-path="url(#p1b6b73ff99)" style="fill: #1f77b4"/>
   </g>
   <g id="patch_181">
    <path d="M 355.587263 273.312 
L 357.19832 273.312 
L 357.19832 59.433366 
L 355.587263 59.433366 
z
" clip-path="url(#p1b6b73ff99)" style="fill: #1f77b4"/>
   </g>
   <g id="patch_182">
    <path d="M 357.19832 273.312 
L 358.809376 273.312 
L 358.809376 58.197073 
L 357.19832 58.197073 
z
" clip-path="url(#p1b6b73ff99)" style="fill: #1f77b4"/>
   </g>
   <g id="patch_183">
    <path d="M 358.809376 273.312 
L 360.420432 273.312 
L 360.420432 45.216 
L 358.809376 45.216 
z
" clip-path="url(#p1b6b73ff99)" style="fill: #1f77b4"/>
   </g>
   <g id="patch_184">
    <path d="M 360.420432 273.312 
L 362.031488 273.312 
L 362.031488 24.817171 
L 360.420432 24.817171 
z
" clip-path="url(#p1b6b73ff99)" style="fill: #1f77b4"/>
   </g>
   <g id="patch_185">
    <path d="M 362.031488 273.312 
L 363.642544 273.312 
L 363.642544 40.270829 
L 362.031488 40.270829 
z
" clip-path="url(#p1b6b73ff99)" style="fill: #1f77b4"/>
   </g>
   <g id="patch_186">
    <path d="M 363.642544 273.312 
L 365.2536 273.312 
L 365.2536 48.924878 
L 363.642544 48.924878 
z
" clip-path="url(#p1b6b73ff99)" style="fill: #1f77b4"/>
   </g>
   <g id="patch_187">
    <path d="M 365.2536 273.312 
L 366.864657 273.312 
L 366.864657 66.232976 
L 365.2536 66.232976 
z
" clip-path="url(#p1b6b73ff99)" style="fill: #1f77b4"/>
   </g>
   <g id="patch_188">
    <path d="M 366.864657 273.312 
L 368.475713 273.312 
L 368.475713 48.924878 
L 366.864657 48.924878 
z
" clip-path="url(#p1b6b73ff99)" style="fill: #1f77b4"/>
   </g>
   <g id="patch_189">
    <path d="M 368.475713 273.312 
L 370.086769 273.312 
L 370.086769 41.507122 
L 368.475713 41.507122 
z
" clip-path="url(#p1b6b73ff99)" style="fill: #1f77b4"/>
   </g>
   <g id="patch_190">
    <path d="M 370.086769 273.312 
L 371.697825 273.312 
L 371.697825 24.817171 
L 370.086769 24.817171 
z
" clip-path="url(#p1b6b73ff99)" style="fill: #1f77b4"/>
   </g>
   <g id="patch_191">
    <path d="M 371.697825 273.312 
L 373.308881 273.312 
L 373.308881 52.01561 
L 371.697825 52.01561 
z
" clip-path="url(#p1b6b73ff99)" style="fill: #1f77b4"/>
   </g>
   <g id="patch_192">
    <path d="M 373.308881 273.312 
L 374.919937 273.312 
L 374.919937 41.507122 
L 373.308881 41.507122 
z
" clip-path="url(#p1b6b73ff99)" style="fill: #1f77b4"/>
   </g>
   <g id="patch_193">
    <path d="M 374.919937 273.312 
L 376.530994 273.312 
L 376.530994 20.490146 
L 374.919937 20.490146 
z
" clip-path="url(#p1b6b73ff99)" style="fill: #1f77b4"/>
   </g>
   <g id="patch_194">
    <path d="M 376.530994 273.312 
L 378.14205 273.312 
L 378.14205 56.342634 
L 376.530994 56.342634 
z
" clip-path="url(#p1b6b73ff99)" style="fill: #1f77b4"/>
   </g>
   <g id="patch_195">
    <path d="M 378.14205 273.312 
L 379.753106 273.312 
L 379.753106 34.089366 
L 378.14205 34.089366 
z
" clip-path="url(#p1b6b73ff99)" style="fill: #1f77b4"/>
   </g>
   <g id="patch_196">
    <path d="M 379.753106 273.312 
L 381.364162 273.312 
L 381.364162 19.872 
L 379.753106 19.872 
z
" clip-path="url(#p1b6b73ff99)" style="fill: #1f77b4"/>
   </g>
   <g id="patch_197">
    <path d="M 381.364162 273.312 
L 382.975218 273.312 
L 382.975218 27.289756 
L 381.364162 27.289756 
z
" clip-path="url(#p1b6b73ff99)" style="fill: #1f77b4"/>
   </g>
   <g id="patch_198">
    <path d="M 382.975218 273.312 
L 384.586274 273.312 
L 384.586274 29.144195 
L 382.975218 29.144195 
z
" clip-path="url(#p1b6b73ff99)" style="fill: #1f77b4"/>
   </g>
   <g id="patch_199">
    <path d="M 384.586274 273.312 
L 386.197331 273.312 
L 386.197331 39.034537 
L 384.586274 39.034537 
z
" clip-path="url(#p1b6b73ff99)" style="fill: #1f77b4"/>
   </g>
   <g id="patch_200">
    <path d="M 386.197331 273.312 
L 387.808387 273.312 
L 387.808387 38.41639 
L 386.197331 38.41639 
z
" clip-path="url(#p1b6b73ff99)" style="fill: #1f77b4"/>
   </g>
   <g id="patch_201">
    <path d="M 387.808387 273.312 
L 389.419443 273.312 
L 389.419443 20.490146 
L 387.808387 20.490146 
z
" clip-path="url(#p1b6b73ff99)" style="fill: #1f77b4"/>
   </g>
   <g id="patch_202">
    <path d="M 389.419443 273.312 
L 391.030499 273.312 
L 391.030499 27.907902 
L 389.419443 27.907902 
z
" clip-path="url(#p1b6b73ff99)" style="fill: #1f77b4"/>
   </g>
   <g id="matplotlib.axis_1">
    <g id="xtick_1">
     <g id="line2d_1">
      <defs>
       <path id="m9dcfad1c1b" d="M 0 0 
L 0 3.5 
" style="stroke: #000000; stroke-width: 0.8"/>
      </defs>
      <g>
       <use xlink:href="#m9dcfad1c1b" x="66.376477" y="273.312" style="stroke: #000000; stroke-width: 0.8"/>
      </g>
     </g>
     <g id="text_1">
      <!-- 0.0 -->
      <g transform="translate(58.424915 287.910437) scale(0.1 -0.1)">
       <defs>
        <path id="DejaVuSans-30" d="M 2034 4250 
Q 1547 4250 1301 3770 
Q 1056 3291 1056 2328 
Q 1056 1369 1301 889 
Q 1547 409 2034 409 
Q 2525 409 2770 889 
Q 3016 1369 3016 2328 
Q 3016 3291 2770 3770 
Q 2525 4250 2034 4250 
z
M 2034 4750 
Q 2819 4750 3233 4129 
Q 3647 3509 3647 2328 
Q 3647 1150 3233 529 
Q 2819 -91 2034 -91 
Q 1250 -91 836 529 
Q 422 1150 422 2328 
Q 422 3509 836 4129 
Q 1250 4750 2034 4750 
z
" transform="scale(0.015625)"/>
        <path id="DejaVuSans-2e" d="M 684 794 
L 1344 794 
L 1344 0 
L 684 0 
L 684 794 
z
" transform="scale(0.015625)"/>
       </defs>
       <use xlink:href="#DejaVuSans-30"/>
       <use xlink:href="#DejaVuSans-2e" transform="translate(63.623047 0)"/>
       <use xlink:href="#DejaVuSans-30" transform="translate(95.410156 0)"/>
      </g>
     </g>
    </g>
    <g id="xtick_2">
     <g id="line2d_2">
      <g>
       <use xlink:href="#m9dcfad1c1b" x="131.307386" y="273.312" style="stroke: #000000; stroke-width: 0.8"/>
      </g>
     </g>
     <g id="text_2">
      <!-- 0.2 -->
      <g transform="translate(123.355824 287.910437) scale(0.1 -0.1)">
       <defs>
        <path id="DejaVuSans-32" d="M 1228 531 
L 3431 531 
L 3431 0 
L 469 0 
L 469 531 
Q 828 903 1448 1529 
Q 2069 2156 2228 2338 
Q 2531 2678 2651 2914 
Q 2772 3150 2772 3378 
Q 2772 3750 2511 3984 
Q 2250 4219 1831 4219 
Q 1534 4219 1204 4116 
Q 875 4013 500 3803 
L 500 4441 
Q 881 4594 1212 4672 
Q 1544 4750 1819 4750 
Q 2544 4750 2975 4387 
Q 3406 4025 3406 3419 
Q 3406 3131 3298 2873 
Q 3191 2616 2906 2266 
Q 2828 2175 2409 1742 
Q 1991 1309 1228 531 
z
" transform="scale(0.015625)"/>
       </defs>
       <use xlink:href="#DejaVuSans-30"/>
       <use xlink:href="#DejaVuSans-2e" transform="translate(63.623047 0)"/>
       <use xlink:href="#DejaVuSans-32" transform="translate(95.410156 0)"/>
      </g>
     </g>
    </g>
    <g id="xtick_3">
     <g id="line2d_3">
      <g>
       <use xlink:href="#m9dcfad1c1b" x="196.238295" y="273.312" style="stroke: #000000; stroke-width: 0.8"/>
      </g>
     </g>
     <g id="text_3">
      <!-- 0.4 -->
      <g transform="translate(188.286733 287.910437) scale(0.1 -0.1)">
       <defs>
        <path id="DejaVuSans-34" d="M 2419 4116 
L 825 1625 
L 2419 1625 
L 2419 4116 
z
M 2253 4666 
L 3047 4666 
L 3047 1625 
L 3713 1625 
L 3713 1100 
L 3047 1100 
L 3047 0 
L 2419 0 
L 2419 1100 
L 313 1100 
L 313 1709 
L 2253 4666 
z
" transform="scale(0.015625)"/>
       </defs>
       <use xlink:href="#DejaVuSans-30"/>
       <use xlink:href="#DejaVuSans-2e" transform="translate(63.623047 0)"/>
       <use xlink:href="#DejaVuSans-34" transform="translate(95.410156 0)"/>
      </g>
     </g>
    </g>
    <g id="xtick_4">
     <g id="line2d_4">
      <g>
       <use xlink:href="#m9dcfad1c1b" x="261.169205" y="273.312" style="stroke: #000000; stroke-width: 0.8"/>
      </g>
     </g>
     <g id="text_4">
      <!-- 0.6 -->
      <g transform="translate(253.217642 287.910437) scale(0.1 -0.1)">
       <defs>
        <path id="DejaVuSans-36" d="M 2113 2584 
Q 1688 2584 1439 2293 
Q 1191 2003 1191 1497 
Q 1191 994 1439 701 
Q 1688 409 2113 409 
Q 2538 409 2786 701 
Q 3034 994 3034 1497 
Q 3034 2003 2786 2293 
Q 2538 2584 2113 2584 
z
M 3366 4563 
L 3366 3988 
Q 3128 4100 2886 4159 
Q 2644 4219 2406 4219 
Q 1781 4219 1451 3797 
Q 1122 3375 1075 2522 
Q 1259 2794 1537 2939 
Q 1816 3084 2150 3084 
Q 2853 3084 3261 2657 
Q 3669 2231 3669 1497 
Q 3669 778 3244 343 
Q 2819 -91 2113 -91 
Q 1303 -91 875 529 
Q 447 1150 447 2328 
Q 447 3434 972 4092 
Q 1497 4750 2381 4750 
Q 2619 4750 2861 4703 
Q 3103 4656 3366 4563 
z
" transform="scale(0.015625)"/>
       </defs>
       <use xlink:href="#DejaVuSans-30"/>
       <use xlink:href="#DejaVuSans-2e" transform="translate(63.623047 0)"/>
       <use xlink:href="#DejaVuSans-36" transform="translate(95.410156 0)"/>
      </g>
     </g>
    </g>
    <g id="xtick_5">
     <g id="line2d_5">
      <g>
       <use xlink:href="#m9dcfad1c1b" x="326.100114" y="273.312" style="stroke: #000000; stroke-width: 0.8"/>
      </g>
     </g>
     <g id="text_5">
      <!-- 0.8 -->
      <g transform="translate(318.148551 287.910437) scale(0.1 -0.1)">
       <defs>
        <path id="DejaVuSans-38" d="M 2034 2216 
Q 1584 2216 1326 1975 
Q 1069 1734 1069 1313 
Q 1069 891 1326 650 
Q 1584 409 2034 409 
Q 2484 409 2743 651 
Q 3003 894 3003 1313 
Q 3003 1734 2745 1975 
Q 2488 2216 2034 2216 
z
M 1403 2484 
Q 997 2584 770 2862 
Q 544 3141 544 3541 
Q 544 4100 942 4425 
Q 1341 4750 2034 4750 
Q 2731 4750 3128 4425 
Q 3525 4100 3525 3541 
Q 3525 3141 3298 2862 
Q 3072 2584 2669 2484 
Q 3125 2378 3379 2068 
Q 3634 1759 3634 1313 
Q 3634 634 3220 271 
Q 2806 -91 2034 -91 
Q 1263 -91 848 271 
Q 434 634 434 1313 
Q 434 1759 690 2068 
Q 947 2378 1403 2484 
z
M 1172 3481 
Q 1172 3119 1398 2916 
Q 1625 2713 2034 2713 
Q 2441 2713 2670 2916 
Q 2900 3119 2900 3481 
Q 2900 3844 2670 4047 
Q 2441 4250 2034 4250 
Q 1625 4250 1398 4047 
Q 1172 3844 1172 3481 
z
" transform="scale(0.015625)"/>
       </defs>
       <use xlink:href="#DejaVuSans-30"/>
       <use xlink:href="#DejaVuSans-2e" transform="translate(63.623047 0)"/>
       <use xlink:href="#DejaVuSans-38" transform="translate(95.410156 0)"/>
      </g>
     </g>
    </g>
    <g id="xtick_6">
     <g id="line2d_6">
      <g>
       <use xlink:href="#m9dcfad1c1b" x="391.031023" y="273.312" style="stroke: #000000; stroke-width: 0.8"/>
      </g>
     </g>
     <g id="text_6">
      <!-- 1.0 -->
      <g transform="translate(383.07946 287.910437) scale(0.1 -0.1)">
       <defs>
        <path id="DejaVuSans-31" d="M 794 531 
L 1825 531 
L 1825 4091 
L 703 3866 
L 703 4441 
L 1819 4666 
L 2450 4666 
L 2450 531 
L 3481 531 
L 3481 0 
L 794 0 
L 794 531 
z
" transform="scale(0.015625)"/>
       </defs>
       <use xlink:href="#DejaVuSans-31"/>
       <use xlink:href="#DejaVuSans-2e" transform="translate(63.623047 0)"/>
       <use xlink:href="#DejaVuSans-30" transform="translate(95.410156 0)"/>
      </g>
     </g>
    </g>
    <g id="text_7">
     <!-- Propagation direction -->
     <g transform="translate(175.221719 301.588562) scale(0.1 -0.1)">
      <defs>
       <path id="DejaVuSans-50" d="M 1259 4147 
L 1259 2394 
L 2053 2394 
Q 2494 2394 2734 2622 
Q 2975 2850 2975 3272 
Q 2975 3691 2734 3919 
Q 2494 4147 2053 4147 
L 1259 4147 
z
M 628 4666 
L 2053 4666 
Q 2838 4666 3239 4311 
Q 3641 3956 3641 3272 
Q 3641 2581 3239 2228 
Q 2838 1875 2053 1875 
L 1259 1875 
L 1259 0 
L 628 0 
L 628 4666 
z
" transform="scale(0.015625)"/>
       <path id="DejaVuSans-72" d="M 2631 2963 
Q 2534 3019 2420 3045 
Q 2306 3072 2169 3072 
Q 1681 3072 1420 2755 
Q 1159 2438 1159 1844 
L 1159 0 
L 581 0 
L 581 3500 
L 1159 3500 
L 1159 2956 
Q 1341 3275 1631 3429 
Q 1922 3584 2338 3584 
Q 2397 3584 2469 3576 
Q 2541 3569 2628 3553 
L 2631 2963 
z
" transform="scale(0.015625)"/>
       <path id="DejaVuSans-6f" d="M 1959 3097 
Q 1497 3097 1228 2736 
Q 959 2375 959 1747 
Q 959 1119 1226 758 
Q 1494 397 1959 397 
Q 2419 397 2687 759 
Q 2956 1122 2956 1747 
Q 2956 2369 2687 2733 
Q 2419 3097 1959 3097 
z
M 1959 3584 
Q 2709 3584 3137 3096 
Q 3566 2609 3566 1747 
Q 3566 888 3137 398 
Q 2709 -91 1959 -91 
Q 1206 -91 779 398 
Q 353 888 353 1747 
Q 353 2609 779 3096 
Q 1206 3584 1959 3584 
z
" transform="scale(0.015625)"/>
       <path id="DejaVuSans-70" d="M 1159 525 
L 1159 -1331 
L 581 -1331 
L 581 3500 
L 1159 3500 
L 1159 2969 
Q 1341 3281 1617 3432 
Q 1894 3584 2278 3584 
Q 2916 3584 3314 3078 
Q 3713 2572 3713 1747 
Q 3713 922 3314 415 
Q 2916 -91 2278 -91 
Q 1894 -91 1617 61 
Q 1341 213 1159 525 
z
M 3116 1747 
Q 3116 2381 2855 2742 
Q 2594 3103 2138 3103 
Q 1681 3103 1420 2742 
Q 1159 2381 1159 1747 
Q 1159 1113 1420 752 
Q 1681 391 2138 391 
Q 2594 391 2855 752 
Q 3116 1113 3116 1747 
z
" transform="scale(0.015625)"/>
       <path id="DejaVuSans-61" d="M 2194 1759 
Q 1497 1759 1228 1600 
Q 959 1441 959 1056 
Q 959 750 1161 570 
Q 1363 391 1709 391 
Q 2188 391 2477 730 
Q 2766 1069 2766 1631 
L 2766 1759 
L 2194 1759 
z
M 3341 1997 
L 3341 0 
L 2766 0 
L 2766 531 
Q 2569 213 2275 61 
Q 1981 -91 1556 -91 
Q 1019 -91 701 211 
Q 384 513 384 1019 
Q 384 1609 779 1909 
Q 1175 2209 1959 2209 
L 2766 2209 
L 2766 2266 
Q 2766 2663 2505 2880 
Q 2244 3097 1772 3097 
Q 1472 3097 1187 3025 
Q 903 2953 641 2809 
L 641 3341 
Q 956 3463 1253 3523 
Q 1550 3584 1831 3584 
Q 2591 3584 2966 3190 
Q 3341 2797 3341 1997 
z
" transform="scale(0.015625)"/>
       <path id="DejaVuSans-67" d="M 2906 1791 
Q 2906 2416 2648 2759 
Q 2391 3103 1925 3103 
Q 1463 3103 1205 2759 
Q 947 2416 947 1791 
Q 947 1169 1205 825 
Q 1463 481 1925 481 
Q 2391 481 2648 825 
Q 2906 1169 2906 1791 
z
M 3481 434 
Q 3481 -459 3084 -895 
Q 2688 -1331 1869 -1331 
Q 1566 -1331 1297 -1286 
Q 1028 -1241 775 -1147 
L 775 -588 
Q 1028 -725 1275 -790 
Q 1522 -856 1778 -856 
Q 2344 -856 2625 -561 
Q 2906 -266 2906 331 
L 2906 616 
Q 2728 306 2450 153 
Q 2172 0 1784 0 
Q 1141 0 747 490 
Q 353 981 353 1791 
Q 353 2603 747 3093 
Q 1141 3584 1784 3584 
Q 2172 3584 2450 3431 
Q 2728 3278 2906 2969 
L 2906 3500 
L 3481 3500 
L 3481 434 
z
" transform="scale(0.015625)"/>
       <path id="DejaVuSans-74" d="M 1172 4494 
L 1172 3500 
L 2356 3500 
L 2356 3053 
L 1172 3053 
L 1172 1153 
Q 1172 725 1289 603 
Q 1406 481 1766 481 
L 2356 481 
L 2356 0 
L 1766 0 
Q 1100 0 847 248 
Q 594 497 594 1153 
L 594 3053 
L 172 3053 
L 172 3500 
L 594 3500 
L 594 4494 
L 1172 4494 
z
" transform="scale(0.015625)"/>
       <path id="DejaVuSans-69" d="M 603 3500 
L 1178 3500 
L 1178 0 
L 603 0 
L 603 3500 
z
M 603 4863 
L 1178 4863 
L 1178 4134 
L 603 4134 
L 603 4863 
z
" transform="scale(0.015625)"/>
       <path id="DejaVuSans-6e" d="M 3513 2113 
L 3513 0 
L 2938 0 
L 2938 2094 
Q 2938 2591 2744 2837 
Q 2550 3084 2163 3084 
Q 1697 3084 1428 2787 
Q 1159 2491 1159 1978 
L 1159 0 
L 581 0 
L 581 3500 
L 1159 3500 
L 1159 2956 
Q 1366 3272 1645 3428 
Q 1925 3584 2291 3584 
Q 2894 3584 3203 3211 
Q 3513 2838 3513 2113 
z
" transform="scale(0.015625)"/>
       <path id="DejaVuSans-20" transform="scale(0.015625)"/>
       <path id="DejaVuSans-64" d="M 2906 2969 
L 2906 4863 
L 3481 4863 
L 3481 0 
L 2906 0 
L 2906 525 
Q 2725 213 2448 61 
Q 2172 -91 1784 -91 
Q 1150 -91 751 415 
Q 353 922 353 1747 
Q 353 2572 751 3078 
Q 1150 3584 1784 3584 
Q 2172 3584 2448 3432 
Q 2725 3281 2906 2969 
z
M 947 1747 
Q 947 1113 1208 752 
Q 1469 391 1925 391 
Q 2381 391 2643 752 
Q 2906 1113 2906 1747 
Q 2906 2381 2643 2742 
Q 2381 3103 1925 3103 
Q 1469 3103 1208 2742 
Q 947 2381 947 1747 
z
" transform="scale(0.015625)"/>
       <path id="DejaVuSans-65" d="M 3597 1894 
L 3597 1613 
L 953 1613 
Q 991 1019 1311 708 
Q 1631 397 2203 397 
Q 2534 397 2845 478 
Q 3156 559 3463 722 
L 3463 178 
Q 3153 47 2828 -22 
Q 2503 -91 2169 -91 
Q 1331 -91 842 396 
Q 353 884 353 1716 
Q 353 2575 817 3079 
Q 1281 3584 2069 3584 
Q 2775 3584 3186 3129 
Q 3597 2675 3597 1894 
z
M 3022 2063 
Q 3016 2534 2758 2815 
Q 2500 3097 2075 3097 
Q 1594 3097 1305 2825 
Q 1016 2553 972 2059 
L 3022 2063 
z
" transform="scale(0.015625)"/>
       <path id="DejaVuSans-63" d="M 3122 3366 
L 3122 2828 
Q 2878 2963 2633 3030 
Q 2388 3097 2138 3097 
Q 1578 3097 1268 2742 
Q 959 2388 959 1747 
Q 959 1106 1268 751 
Q 1578 397 2138 397 
Q 2388 397 2633 464 
Q 2878 531 3122 666 
L 3122 134 
Q 2881 22 2623 -34 
Q 2366 -91 2075 -91 
Q 1284 -91 818 406 
Q 353 903 353 1747 
Q 353 2603 823 3093 
Q 1294 3584 2113 3584 
Q 2378 3584 2631 3529 
Q 2884 3475 3122 3366 
z
" transform="scale(0.015625)"/>
      </defs>
      <use xlink:href="#DejaVuSans-50"/>
      <use xlink:href="#DejaVuSans-72" transform="translate(58.552734 0)"/>
      <use xlink:href="#DejaVuSans-6f" transform="translate(97.416016 0)"/>
      <use xlink:href="#DejaVuSans-70" transform="translate(158.597656 0)"/>
      <use xlink:href="#DejaVuSans-61" transform="translate(222.074219 0)"/>
      <use xlink:href="#DejaVuSans-67" transform="translate(283.353516 0)"/>
      <use xlink:href="#DejaVuSans-61" transform="translate(346.830078 0)"/>
      <use xlink:href="#DejaVuSans-74" transform="translate(408.109375 0)"/>
      <use xlink:href="#DejaVuSans-69" transform="translate(447.318359 0)"/>
      <use xlink:href="#DejaVuSans-6f" transform="translate(475.101562 0)"/>
      <use xlink:href="#DejaVuSans-6e" transform="translate(536.283203 0)"/>
      <use xlink:href="#DejaVuSans-20" transform="translate(599.662109 0)"/>
      <use xlink:href="#DejaVuSans-64" transform="translate(631.449219 0)"/>
      <use xlink:href="#DejaVuSans-69" transform="translate(694.925781 0)"/>
      <use xlink:href="#DejaVuSans-72" transform="translate(722.708984 0)"/>
      <use xlink:href="#DejaVuSans-65" transform="translate(761.572266 0)"/>
      <use xlink:href="#DejaVuSans-63" transform="translate(823.095703 0)"/>
      <use xlink:href="#DejaVuSans-74" transform="translate(878.076172 0)"/>
      <use xlink:href="#DejaVuSans-69" transform="translate(917.285156 0)"/>
      <use xlink:href="#DejaVuSans-6f" transform="translate(945.068359 0)"/>
      <use xlink:href="#DejaVuSans-6e" transform="translate(1006.25 0)"/>
     </g>
    </g>
   </g>
   <g id="matplotlib.axis_2">
    <g id="ytick_1">
     <g id="line2d_7">
      <defs>
       <path id="m9757d2648e" d="M 0 0 
L -3.5 0 
" style="stroke: #000000; stroke-width: 0.8"/>
      </defs>
      <g>
       <use xlink:href="#m9757d2648e" x="50.14375" y="273.312" style="stroke: #000000; stroke-width: 0.8"/>
      </g>
     </g>
     <g id="text_8">
      <!-- 0.00 -->
      <g transform="translate(20.878125 277.111219) scale(0.1 -0.1)">
       <use xlink:href="#DejaVuSans-30"/>
       <use xlink:href="#DejaVuSans-2e" transform="translate(63.623047 0)"/>
       <use xlink:href="#DejaVuSans-30" transform="translate(95.410156 0)"/>
       <use xlink:href="#DejaVuSans-30" transform="translate(159.033203 0)"/>
      </g>
     </g>
    </g>
    <g id="ytick_2">
     <g id="line2d_8">
      <g>
       <use xlink:href="#m9757d2648e" x="50.14375" y="242.637288" style="stroke: #000000; stroke-width: 0.8"/>
      </g>
     </g>
     <g id="text_9">
      <!-- 0.25 -->
      <g transform="translate(20.878125 246.436507) scale(0.1 -0.1)">
       <defs>
        <path id="DejaVuSans-35" d="M 691 4666 
L 3169 4666 
L 3169 4134 
L 1269 4134 
L 1269 2991 
Q 1406 3038 1543 3061 
Q 1681 3084 1819 3084 
Q 2600 3084 3056 2656 
Q 3513 2228 3513 1497 
Q 3513 744 3044 326 
Q 2575 -91 1722 -91 
Q 1428 -91 1123 -41 
Q 819 9 494 109 
L 494 744 
Q 775 591 1075 516 
Q 1375 441 1709 441 
Q 2250 441 2565 725 
Q 2881 1009 2881 1497 
Q 2881 1984 2565 2268 
Q 2250 2553 1709 2553 
Q 1456 2553 1204 2497 
Q 953 2441 691 2322 
L 691 4666 
z
" transform="scale(0.015625)"/>
       </defs>
       <use xlink:href="#DejaVuSans-30"/>
       <use xlink:href="#DejaVuSans-2e" transform="translate(63.623047 0)"/>
       <use xlink:href="#DejaVuSans-32" transform="translate(95.410156 0)"/>
       <use xlink:href="#DejaVuSans-35" transform="translate(159.033203 0)"/>
      </g>
     </g>
    </g>
    <g id="ytick_3">
     <g id="line2d_9">
      <g>
       <use xlink:href="#m9757d2648e" x="50.14375" y="211.962576" style="stroke: #000000; stroke-width: 0.8"/>
      </g>
     </g>
     <g id="text_10">
      <!-- 0.50 -->
      <g transform="translate(20.878125 215.761794) scale(0.1 -0.1)">
       <use xlink:href="#DejaVuSans-30"/>
       <use xlink:href="#DejaVuSans-2e" transform="translate(63.623047 0)"/>
       <use xlink:href="#DejaVuSans-35" transform="translate(95.410156 0)"/>
       <use xlink:href="#DejaVuSans-30" transform="translate(159.033203 0)"/>
      </g>
     </g>
    </g>
    <g id="ytick_4">
     <g id="line2d_10">
      <g>
       <use xlink:href="#m9757d2648e" x="50.14375" y="181.287863" style="stroke: #000000; stroke-width: 0.8"/>
      </g>
     </g>
     <g id="text_11">
      <!-- 0.75 -->
      <g transform="translate(20.878125 185.087082) scale(0.1 -0.1)">
       <defs>
        <path id="DejaVuSans-37" d="M 525 4666 
L 3525 4666 
L 3525 4397 
L 1831 0 
L 1172 0 
L 2766 4134 
L 525 4134 
L 525 4666 
z
" transform="scale(0.015625)"/>
       </defs>
       <use xlink:href="#DejaVuSans-30"/>
       <use xlink:href="#DejaVuSans-2e" transform="translate(63.623047 0)"/>
       <use xlink:href="#DejaVuSans-37" transform="translate(95.410156 0)"/>
       <use xlink:href="#DejaVuSans-35" transform="translate(159.033203 0)"/>
      </g>
     </g>
    </g>
    <g id="ytick_5">
     <g id="line2d_11">
      <g>
       <use xlink:href="#m9757d2648e" x="50.14375" y="150.613151" style="stroke: #000000; stroke-width: 0.8"/>
      </g>
     </g>
     <g id="text_12">
      <!-- 1.00 -->
      <g transform="translate(20.878125 154.41237) scale(0.1 -0.1)">
       <use xlink:href="#DejaVuSans-31"/>
       <use xlink:href="#DejaVuSans-2e" transform="translate(63.623047 0)"/>
       <use xlink:href="#DejaVuSans-30" transform="translate(95.410156 0)"/>
       <use xlink:href="#DejaVuSans-30" transform="translate(159.033203 0)"/>
      </g>
     </g>
    </g>
    <g id="ytick_6">
     <g id="line2d_12">
      <g>
       <use xlink:href="#m9757d2648e" x="50.14375" y="119.938439" style="stroke: #000000; stroke-width: 0.8"/>
      </g>
     </g>
     <g id="text_13">
      <!-- 1.25 -->
      <g transform="translate(20.878125 123.737658) scale(0.1 -0.1)">
       <use xlink:href="#DejaVuSans-31"/>
       <use xlink:href="#DejaVuSans-2e" transform="translate(63.623047 0)"/>
       <use xlink:href="#DejaVuSans-32" transform="translate(95.410156 0)"/>
       <use xlink:href="#DejaVuSans-35" transform="translate(159.033203 0)"/>
      </g>
     </g>
    </g>
    <g id="ytick_7">
     <g id="line2d_13">
      <g>
       <use xlink:href="#m9757d2648e" x="50.14375" y="89.263727" style="stroke: #000000; stroke-width: 0.8"/>
      </g>
     </g>
     <g id="text_14">
      <!-- 1.50 -->
      <g transform="translate(20.878125 93.062946) scale(0.1 -0.1)">
       <use xlink:href="#DejaVuSans-31"/>
       <use xlink:href="#DejaVuSans-2e" transform="translate(63.623047 0)"/>
       <use xlink:href="#DejaVuSans-35" transform="translate(95.410156 0)"/>
       <use xlink:href="#DejaVuSans-30" transform="translate(159.033203 0)"/>
      </g>
     </g>
    </g>
    <g id="ytick_8">
     <g id="line2d_14">
      <g>
       <use xlink:href="#m9757d2648e" x="50.14375" y="58.589015" style="stroke: #000000; stroke-width: 0.8"/>
      </g>
     </g>
     <g id="text_15">
      <!-- 1.75 -->
      <g transform="translate(20.878125 62.388233) scale(0.1 -0.1)">
       <use xlink:href="#DejaVuSans-31"/>
       <use xlink:href="#DejaVuSans-2e" transform="translate(63.623047 0)"/>
       <use xlink:href="#DejaVuSans-37" transform="translate(95.410156 0)"/>
       <use xlink:href="#DejaVuSans-35" transform="translate(159.033203 0)"/>
      </g>
     </g>
    </g>
    <g id="ytick_9">
     <g id="line2d_15">
      <g>
       <use xlink:href="#m9757d2648e" x="50.14375" y="27.914302" style="stroke: #000000; stroke-width: 0.8"/>
      </g>
     </g>
     <g id="text_16">
      <!-- 2.00 -->
      <g transform="translate(20.878125 31.713521) scale(0.1 -0.1)">
       <use xlink:href="#DejaVuSans-32"/>
       <use xlink:href="#DejaVuSans-2e" transform="translate(63.623047 0)"/>
       <use xlink:href="#DejaVuSans-30" transform="translate(95.410156 0)"/>
       <use xlink:href="#DejaVuSans-30" transform="translate(159.033203 0)"/>
      </g>
     </g>
    </g>
    <g id="text_17">
     <!-- Probability density -->
     <g transform="translate(14.798438 186.606781) rotate(-90) scale(0.1 -0.1)">
      <defs>
       <path id="DejaVuSans-62" d="M 3116 1747 
Q 3116 2381 2855 2742 
Q 2594 3103 2138 3103 
Q 1681 3103 1420 2742 
Q 1159 2381 1159 1747 
Q 1159 1113 1420 752 
Q 1681 391 2138 391 
Q 2594 391 2855 752 
Q 3116 1113 3116 1747 
z
M 1159 2969 
Q 1341 3281 1617 3432 
Q 1894 3584 2278 3584 
Q 2916 3584 3314 3078 
Q 3713 2572 3713 1747 
Q 3713 922 3314 415 
Q 2916 -91 2278 -91 
Q 1894 -91 1617 61 
Q 1341 213 1159 525 
L 1159 0 
L 581 0 
L 581 4863 
L 1159 4863 
L 1159 2969 
z
" transform="scale(0.015625)"/>
       <path id="DejaVuSans-6c" d="M 603 4863 
L 1178 4863 
L 1178 0 
L 603 0 
L 603 4863 
z
" transform="scale(0.015625)"/>
       <path id="DejaVuSans-79" d="M 2059 -325 
Q 1816 -950 1584 -1140 
Q 1353 -1331 966 -1331 
L 506 -1331 
L 506 -850 
L 844 -850 
Q 1081 -850 1212 -737 
Q 1344 -625 1503 -206 
L 1606 56 
L 191 3500 
L 800 3500 
L 1894 763 
L 2988 3500 
L 3597 3500 
L 2059 -325 
z
" transform="scale(0.015625)"/>
       <path id="DejaVuSans-73" d="M 2834 3397 
L 2834 2853 
Q 2591 2978 2328 3040 
Q 2066 3103 1784 3103 
Q 1356 3103 1142 2972 
Q 928 2841 928 2578 
Q 928 2378 1081 2264 
Q 1234 2150 1697 2047 
L 1894 2003 
Q 2506 1872 2764 1633 
Q 3022 1394 3022 966 
Q 3022 478 2636 193 
Q 2250 -91 1575 -91 
Q 1294 -91 989 -36 
Q 684 19 347 128 
L 347 722 
Q 666 556 975 473 
Q 1284 391 1588 391 
Q 1994 391 2212 530 
Q 2431 669 2431 922 
Q 2431 1156 2273 1281 
Q 2116 1406 1581 1522 
L 1381 1569 
Q 847 1681 609 1914 
Q 372 2147 372 2553 
Q 372 3047 722 3315 
Q 1072 3584 1716 3584 
Q 2034 3584 2315 3537 
Q 2597 3491 2834 3397 
z
" transform="scale(0.015625)"/>
      </defs>
      <use xlink:href="#DejaVuSans-50"/>
      <use xlink:href="#DejaVuSans-72" transform="translate(58.552734 0)"/>
      <use xlink:href="#DejaVuSans-6f" transform="translate(97.416016 0)"/>
      <use xlink:href="#DejaVuSans-62" transform="translate(158.597656 0)"/>
      <use xlink:href="#DejaVuSans-61" transform="translate(222.074219 0)"/>
      <use xlink:href="#DejaVuSans-62" transform="translate(283.353516 0)"/>
      <use xlink:href="#DejaVuSans-69" transform="translate(346.830078 0)"/>
      <use xlink:href="#DejaVuSans-6c" transform="translate(374.613281 0)"/>
      <use xlink:href="#DejaVuSans-69" transform="translate(402.396484 0)"/>
      <use xlink:href="#DejaVuSans-74" transform="translate(430.179688 0)"/>
      <use xlink:href="#DejaVuSans-79" transform="translate(469.388672 0)"/>
      <use xlink:href="#DejaVuSans-20" transform="translate(528.568359 0)"/>
      <use xlink:href="#DejaVuSans-64" transform="translate(560.355469 0)"/>
      <use xlink:href="#DejaVuSans-65" transform="translate(623.832031 0)"/>
      <use xlink:href="#DejaVuSans-6e" transform="translate(685.355469 0)"/>
      <use xlink:href="#DejaVuSans-73" transform="translate(748.734375 0)"/>
      <use xlink:href="#DejaVuSans-69" transform="translate(800.833984 0)"/>
      <use xlink:href="#DejaVuSans-74" transform="translate(828.617188 0)"/>
      <use xlink:href="#DejaVuSans-79" transform="translate(867.826172 0)"/>
     </g>
    </g>
   </g>
   <g id="line2d_16">
    <path d="M 66.376477 273.312 
L 391.031023 27.914302 
L 391.031023 27.914302 
" clip-path="url(#p1b6b73ff99)" style="fill: none; stroke: #ff7f0e; stroke-width: 1.5; stroke-linecap: square"/>
   </g>
   <g id="patch_203">
    <path d="M 50.14375 273.312 
L 50.14375 7.2 
" style="fill: none; stroke: #000000; stroke-width: 0.8; stroke-linejoin: miter; stroke-linecap: square"/>
   </g>
   <g id="patch_204">
    <path d="M 407.26375 273.312 
L 407.26375 7.2 
" style="fill: none; stroke: #000000; stroke-width: 0.8; stroke-linejoin: miter; stroke-linecap: square"/>
   </g>
   <g id="patch_205">
    <path d="M 50.14375 273.312 
L 407.26375 273.312 
" style="fill: none; stroke: #000000; stroke-width: 0.8; stroke-linejoin: miter; stroke-linecap: square"/>
   </g>
   <g id="patch_206">
    <path d="M 50.14375 7.2 
L 407.26375 7.2 
" style="fill: none; stroke: #000000; stroke-width: 0.8; stroke-linejoin: miter; stroke-linecap: square"/>
   </g>
  </g>
 </g>
 <defs>
  <clipPath id="p1b6b73ff99">
   <rect x="50.14375" y="7.2" width="357.12" height="266.112"/>
  </clipPath>
 </defs>
</svg>
