<?xml version="1.0" encoding="utf-8" standalone="no"?>
<!DOCTYPE svg PUBLIC "-//W3C//DTD SVG 1.1//EN"
  "http://www.w3.org/Graphics/SVG/1.1/DTD/svg11.dtd">
<svg xmlns:xlink="http://www.w3.org/1999/xlink" width="614.6875pt" height="422.75625pt" viewBox="0 0 614.6875 422.75625" xmlns="http://www.w3.org/2000/svg" version="1.1">
 <metadata>
  <rdf:RDF xmlns:dc="http://purl.org/dc/elements/1.1/" xmlns:cc="http://creativecommons.org/ns#" xmlns:rdf="http://www.w3.org/1999/02/22-rdf-syntax-ns#">
   <cc:Work>
    <dc:type rdf:resource="http://purl.org/dc/dcmitype/StillImage"/>
    <dc:date>2025-08-07T18:33:02.286441</dc:date>
    <dc:format>image/svg+xml</dc:format>
    <dc:creator>
     <cc:Agent>
      <dc:title>Matplotlib v3.10.3, https://matplotlib.org/</dc:title>
     </cc:Agent>
    </dc:creator>
   </cc:Work>
  </rdf:RDF>
 </metadata>
 <defs>
  <style type="text/css">*{stroke-linejoin: round; stroke-linecap: butt}</style>
 </defs>
 <g id="figure_1">
  <g id="patch_1">
   <path d="M 0 422.75625 
L 614.6875 422.75625 
L 614.6875 0 
L 0 0 
z
" style="fill: #ffffff"/>
  </g>
  <g id="axes_1">
   <g id="patch_2">
    <path d="M 36.7625 382.678125 
L 594.7625 382.678125 
L 594.7625 22.318125 
L 36.7625 22.318125 
z
" style="fill: #ffffff"/>
   </g>
   <g id="matplotlib.axis_1">
    <g id="xtick_1">
     <g id="line2d_1">
      <defs>
       <path id="m49237c87a1" d="M 0 0 
L 0 3.5 
" style="stroke: #000000; stroke-width: 0.8"/>
      </defs>
      <g>
       <use xlink:href="#m49237c87a1" x="69.586029" y="382.678125" style="stroke: #000000; stroke-width: 0.8"/>
      </g>
     </g>
     <g id="text_1">
      <!-- 1000 -->
      <g transform="translate(56.861029 397.276562) scale(0.1 -0.1)">
       <defs>
        <path id="DejaVuSans-31" d="M 794 531 
L 1825 531 
L 1825 4091 
L 703 3866 
L 703 4441 
L 1819 4666 
L 2450 4666 
L 2450 531 
L 3481 531 
L 3481 0 
L 794 0 
L 794 531 
z
" transform="scale(0.015625)"/>
        <path id="DejaVuSans-30" d="M 2034 4250 
Q 1547 4250 1301 3770 
Q 1056 3291 1056 2328 
Q 1056 1369 1301 889 
Q 1547 409 2034 409 
Q 2525 409 2770 889 
Q 3016 1369 3016 2328 
Q 3016 3291 2770 3770 
Q 2525 4250 2034 4250 
z
M 2034 4750 
Q 2819 4750 3233 4129 
Q 3647 3509 3647 2328 
Q 3647 1150 3233 529 
Q 2819 -91 2034 -91 
Q 1250 -91 836 529 
Q 422 1150 422 2328 
Q 422 3509 836 4129 
Q 1250 4750 2034 4750 
z
" transform="scale(0.015625)"/>
       </defs>
       <use xlink:href="#DejaVuSans-31"/>
       <use xlink:href="#DejaVuSans-30" transform="translate(63.623047 0)"/>
       <use xlink:href="#DejaVuSans-30" transform="translate(127.246094 0)"/>
       <use xlink:href="#DejaVuSans-30" transform="translate(190.869141 0)"/>
      </g>
     </g>
    </g>
    <g id="xtick_2">
     <g id="line2d_2">
      <g>
       <use xlink:href="#m49237c87a1" x="135.233088" y="382.678125" style="stroke: #000000; stroke-width: 0.8"/>
      </g>
     </g>
     <g id="text_2">
      <!-- 2000 -->
      <g transform="translate(122.508088 397.276562) scale(0.1 -0.1)">
       <defs>
        <path id="DejaVuSans-32" d="M 1228 531 
L 3431 531 
L 3431 0 
L 469 0 
L 469 531 
Q 828 903 1448 1529 
Q 2069 2156 2228 2338 
Q 2531 2678 2651 2914 
Q 2772 3150 2772 3378 
Q 2772 3750 2511 3984 
Q 2250 4219 1831 4219 
Q 1534 4219 1204 4116 
Q 875 4013 500 3803 
L 500 4441 
Q 881 4594 1212 4672 
Q 1544 4750 1819 4750 
Q 2544 4750 2975 4387 
Q 3406 4025 3406 3419 
Q 3406 3131 3298 2873 
Q 3191 2616 2906 2266 
Q 2828 2175 2409 1742 
Q 1991 1309 1228 531 
z
" transform="scale(0.015625)"/>
       </defs>
       <use xlink:href="#DejaVuSans-32"/>
       <use xlink:href="#DejaVuSans-30" transform="translate(63.623047 0)"/>
       <use xlink:href="#DejaVuSans-30" transform="translate(127.246094 0)"/>
       <use xlink:href="#DejaVuSans-30" transform="translate(190.869141 0)"/>
      </g>
     </g>
    </g>
    <g id="xtick_3">
     <g id="line2d_3">
      <g>
       <use xlink:href="#m49237c87a1" x="200.880147" y="382.678125" style="stroke: #000000; stroke-width: 0.8"/>
      </g>
     </g>
     <g id="text_3">
      <!-- 3000 -->
      <g transform="translate(188.155147 397.276562) scale(0.1 -0.1)">
       <defs>
        <path id="DejaVuSans-33" d="M 2597 2516 
Q 3050 2419 3304 2112 
Q 3559 1806 3559 1356 
Q 3559 666 3084 287 
Q 2609 -91 1734 -91 
Q 1441 -91 1130 -33 
Q 819 25 488 141 
L 488 750 
Q 750 597 1062 519 
Q 1375 441 1716 441 
Q 2309 441 2620 675 
Q 2931 909 2931 1356 
Q 2931 1769 2642 2001 
Q 2353 2234 1838 2234 
L 1294 2234 
L 1294 2753 
L 1863 2753 
Q 2328 2753 2575 2939 
Q 2822 3125 2822 3475 
Q 2822 3834 2567 4026 
Q 2313 4219 1838 4219 
Q 1578 4219 1281 4162 
Q 984 4106 628 3988 
L 628 4550 
Q 988 4650 1302 4700 
Q 1616 4750 1894 4750 
Q 2613 4750 3031 4423 
Q 3450 4097 3450 3541 
Q 3450 3153 3228 2886 
Q 3006 2619 2597 2516 
z
" transform="scale(0.015625)"/>
       </defs>
       <use xlink:href="#DejaVuSans-33"/>
       <use xlink:href="#DejaVuSans-30" transform="translate(63.623047 0)"/>
       <use xlink:href="#DejaVuSans-30" transform="translate(127.246094 0)"/>
       <use xlink:href="#DejaVuSans-30" transform="translate(190.869141 0)"/>
      </g>
     </g>
    </g>
    <g id="xtick_4">
     <g id="line2d_4">
      <g>
       <use xlink:href="#m49237c87a1" x="266.527206" y="382.678125" style="stroke: #000000; stroke-width: 0.8"/>
      </g>
     </g>
     <g id="text_4">
      <!-- 4000 -->
      <g transform="translate(253.802206 397.276562) scale(0.1 -0.1)">
       <defs>
        <path id="DejaVuSans-34" d="M 2419 4116 
L 825 1625 
L 2419 1625 
L 2419 4116 
z
M 2253 4666 
L 3047 4666 
L 3047 1625 
L 3713 1625 
L 3713 1100 
L 3047 1100 
L 3047 0 
L 2419 0 
L 2419 1100 
L 313 1100 
L 313 1709 
L 2253 4666 
z
" transform="scale(0.015625)"/>
       </defs>
       <use xlink:href="#DejaVuSans-34"/>
       <use xlink:href="#DejaVuSans-30" transform="translate(63.623047 0)"/>
       <use xlink:href="#DejaVuSans-30" transform="translate(127.246094 0)"/>
       <use xlink:href="#DejaVuSans-30" transform="translate(190.869141 0)"/>
      </g>
     </g>
    </g>
    <g id="xtick_5">
     <g id="line2d_5">
      <g>
       <use xlink:href="#m49237c87a1" x="332.174265" y="382.678125" style="stroke: #000000; stroke-width: 0.8"/>
      </g>
     </g>
     <g id="text_5">
      <!-- 5000 -->
      <g transform="translate(319.449265 397.276562) scale(0.1 -0.1)">
       <defs>
        <path id="DejaVuSans-35" d="M 691 4666 
L 3169 4666 
L 3169 4134 
L 1269 4134 
L 1269 2991 
Q 1406 3038 1543 3061 
Q 1681 3084 1819 3084 
Q 2600 3084 3056 2656 
Q 3513 2228 3513 1497 
Q 3513 744 3044 326 
Q 2575 -91 1722 -91 
Q 1428 -91 1123 -41 
Q 819 9 494 109 
L 494 744 
Q 775 591 1075 516 
Q 1375 441 1709 441 
Q 2250 441 2565 725 
Q 2881 1009 2881 1497 
Q 2881 1984 2565 2268 
Q 2250 2553 1709 2553 
Q 1456 2553 1204 2497 
Q 953 2441 691 2322 
L 691 4666 
z
" transform="scale(0.015625)"/>
       </defs>
       <use xlink:href="#DejaVuSans-35"/>
       <use xlink:href="#DejaVuSans-30" transform="translate(63.623047 0)"/>
       <use xlink:href="#DejaVuSans-30" transform="translate(127.246094 0)"/>
       <use xlink:href="#DejaVuSans-30" transform="translate(190.869141 0)"/>
      </g>
     </g>
    </g>
    <g id="xtick_6">
     <g id="line2d_6">
      <g>
       <use xlink:href="#m49237c87a1" x="397.821324" y="382.678125" style="stroke: #000000; stroke-width: 0.8"/>
      </g>
     </g>
     <g id="text_6">
      <!-- 6000 -->
      <g transform="translate(385.096324 397.276562) scale(0.1 -0.1)">
       <defs>
        <path id="DejaVuSans-36" d="M 2113 2584 
Q 1688 2584 1439 2293 
Q 1191 2003 1191 1497 
Q 1191 994 1439 701 
Q 1688 409 2113 409 
Q 2538 409 2786 701 
Q 3034 994 3034 1497 
Q 3034 2003 2786 2293 
Q 2538 2584 2113 2584 
z
M 3366 4563 
L 3366 3988 
Q 3128 4100 2886 4159 
Q 2644 4219 2406 4219 
Q 1781 4219 1451 3797 
Q 1122 3375 1075 2522 
Q 1259 2794 1537 2939 
Q 1816 3084 2150 3084 
Q 2853 3084 3261 2657 
Q 3669 2231 3669 1497 
Q 3669 778 3244 343 
Q 2819 -91 2113 -91 
Q 1303 -91 875 529 
Q 447 1150 447 2328 
Q 447 3434 972 4092 
Q 1497 4750 2381 4750 
Q 2619 4750 2861 4703 
Q 3103 4656 3366 4563 
z
" transform="scale(0.015625)"/>
       </defs>
       <use xlink:href="#DejaVuSans-36"/>
       <use xlink:href="#DejaVuSans-30" transform="translate(63.623047 0)"/>
       <use xlink:href="#DejaVuSans-30" transform="translate(127.246094 0)"/>
       <use xlink:href="#DejaVuSans-30" transform="translate(190.869141 0)"/>
      </g>
     </g>
    </g>
    <g id="xtick_7">
     <g id="line2d_7">
      <g>
       <use xlink:href="#m49237c87a1" x="463.468382" y="382.678125" style="stroke: #000000; stroke-width: 0.8"/>
      </g>
     </g>
     <g id="text_7">
      <!-- 7000 -->
      <g transform="translate(450.743382 397.276562) scale(0.1 -0.1)">
       <defs>
        <path id="DejaVuSans-37" d="M 525 4666 
L 3525 4666 
L 3525 4397 
L 1831 0 
L 1172 0 
L 2766 4134 
L 525 4134 
L 525 4666 
z
" transform="scale(0.015625)"/>
       </defs>
       <use xlink:href="#DejaVuSans-37"/>
       <use xlink:href="#DejaVuSans-30" transform="translate(63.623047 0)"/>
       <use xlink:href="#DejaVuSans-30" transform="translate(127.246094 0)"/>
       <use xlink:href="#DejaVuSans-30" transform="translate(190.869141 0)"/>
      </g>
     </g>
    </g>
    <g id="xtick_8">
     <g id="line2d_8">
      <g>
       <use xlink:href="#m49237c87a1" x="529.115441" y="382.678125" style="stroke: #000000; stroke-width: 0.8"/>
      </g>
     </g>
     <g id="text_8">
      <!-- 8000 -->
      <g transform="translate(516.390441 397.276562) scale(0.1 -0.1)">
       <defs>
        <path id="DejaVuSans-38" d="M 2034 2216 
Q 1584 2216 1326 1975 
Q 1069 1734 1069 1313 
Q 1069 891 1326 650 
Q 1584 409 2034 409 
Q 2484 409 2743 651 
Q 3003 894 3003 1313 
Q 3003 1734 2745 1975 
Q 2488 2216 2034 2216 
z
M 1403 2484 
Q 997 2584 770 2862 
Q 544 3141 544 3541 
Q 544 4100 942 4425 
Q 1341 4750 2034 4750 
Q 2731 4750 3128 4425 
Q 3525 4100 3525 3541 
Q 3525 3141 3298 2862 
Q 3072 2584 2669 2484 
Q 3125 2378 3379 2068 
Q 3634 1759 3634 1313 
Q 3634 634 3220 271 
Q 2806 -91 2034 -91 
Q 1263 -91 848 271 
Q 434 634 434 1313 
Q 434 1759 690 2068 
Q 947 2378 1403 2484 
z
M 1172 3481 
Q 1172 3119 1398 2916 
Q 1625 2713 2034 2713 
Q 2441 2713 2670 2916 
Q 2900 3119 2900 3481 
Q 2900 3844 2670 4047 
Q 2441 4250 2034 4250 
Q 1625 4250 1398 4047 
Q 1172 3844 1172 3481 
z
" transform="scale(0.015625)"/>
       </defs>
       <use xlink:href="#DejaVuSans-38"/>
       <use xlink:href="#DejaVuSans-30" transform="translate(63.623047 0)"/>
       <use xlink:href="#DejaVuSans-30" transform="translate(127.246094 0)"/>
       <use xlink:href="#DejaVuSans-30" transform="translate(190.869141 0)"/>
      </g>
     </g>
    </g>
    <g id="xtick_9">
     <g id="line2d_9">
      <g>
       <use xlink:href="#m49237c87a1" x="594.7625" y="382.678125" style="stroke: #000000; stroke-width: 0.8"/>
      </g>
     </g>
     <g id="text_9">
      <!-- 9000 -->
      <g transform="translate(582.0375 397.276562) scale(0.1 -0.1)">
       <defs>
        <path id="DejaVuSans-39" d="M 703 97 
L 703 672 
Q 941 559 1184 500 
Q 1428 441 1663 441 
Q 2288 441 2617 861 
Q 2947 1281 2994 2138 
Q 2813 1869 2534 1725 
Q 2256 1581 1919 1581 
Q 1219 1581 811 2004 
Q 403 2428 403 3163 
Q 403 3881 828 4315 
Q 1253 4750 1959 4750 
Q 2769 4750 3195 4129 
Q 3622 3509 3622 2328 
Q 3622 1225 3098 567 
Q 2575 -91 1691 -91 
Q 1453 -91 1209 -44 
Q 966 3 703 97 
z
M 1959 2075 
Q 2384 2075 2632 2365 
Q 2881 2656 2881 3163 
Q 2881 3666 2632 3958 
Q 2384 4250 1959 4250 
Q 1534 4250 1286 3958 
Q 1038 3666 1038 3163 
Q 1038 2656 1286 2365 
Q 1534 2075 1959 2075 
z
" transform="scale(0.015625)"/>
       </defs>
       <use xlink:href="#DejaVuSans-39"/>
       <use xlink:href="#DejaVuSans-30" transform="translate(63.623047 0)"/>
       <use xlink:href="#DejaVuSans-30" transform="translate(127.246094 0)"/>
       <use xlink:href="#DejaVuSans-30" transform="translate(190.869141 0)"/>
      </g>
     </g>
    </g>
    <g id="text_10">
     <!-- $\text{Wavelength}\,[\mathrm{\mathring{A}}]$ -->
     <g transform="translate(277.6125 413.45625) scale(0.1 -0.1)">
      <defs>
       <path id="DejaVuSans-57" d="M 213 4666 
L 850 4666 
L 1831 722 
L 2809 4666 
L 3519 4666 
L 4500 722 
L 5478 4666 
L 6119 4666 
L 4947 0 
L 4153 0 
L 3169 4050 
L 2175 0 
L 1381 0 
L 213 4666 
z
" transform="scale(0.015625)"/>
       <path id="DejaVuSans-61" d="M 2194 1759 
Q 1497 1759 1228 1600 
Q 959 1441 959 1056 
Q 959 750 1161 570 
Q 1363 391 1709 391 
Q 2188 391 2477 730 
Q 2766 1069 2766 1631 
L 2766 1759 
L 2194 1759 
z
M 3341 1997 
L 3341 0 
L 2766 0 
L 2766 531 
Q 2569 213 2275 61 
Q 1981 -91 1556 -91 
Q 1019 -91 701 211 
Q 384 513 384 1019 
Q 384 1609 779 1909 
Q 1175 2209 1959 2209 
L 2766 2209 
L 2766 2266 
Q 2766 2663 2505 2880 
Q 2244 3097 1772 3097 
Q 1472 3097 1187 3025 
Q 903 2953 641 2809 
L 641 3341 
Q 956 3463 1253 3523 
Q 1550 3584 1831 3584 
Q 2591 3584 2966 3190 
Q 3341 2797 3341 1997 
z
" transform="scale(0.015625)"/>
       <path id="DejaVuSans-76" d="M 191 3500 
L 800 3500 
L 1894 563 
L 2988 3500 
L 3597 3500 
L 2284 0 
L 1503 0 
L 191 3500 
z
" transform="scale(0.015625)"/>
       <path id="DejaVuSans-65" d="M 3597 1894 
L 3597 1613 
L 953 1613 
Q 991 1019 1311 708 
Q 1631 397 2203 397 
Q 2534 397 2845 478 
Q 3156 559 3463 722 
L 3463 178 
Q 3153 47 2828 -22 
Q 2503 -91 2169 -91 
Q 1331 -91 842 396 
Q 353 884 353 1716 
Q 353 2575 817 3079 
Q 1281 3584 2069 3584 
Q 2775 3584 3186 3129 
Q 3597 2675 3597 1894 
z
M 3022 2063 
Q 3016 2534 2758 2815 
Q 2500 3097 2075 3097 
Q 1594 3097 1305 2825 
Q 1016 2553 972 2059 
L 3022 2063 
z
" transform="scale(0.015625)"/>
       <path id="DejaVuSans-6c" d="M 603 4863 
L 1178 4863 
L 1178 0 
L 603 0 
L 603 4863 
z
" transform="scale(0.015625)"/>
       <path id="DejaVuSans-6e" d="M 3513 2113 
L 3513 0 
L 2938 0 
L 2938 2094 
Q 2938 2591 2744 2837 
Q 2550 3084 2163 3084 
Q 1697 3084 1428 2787 
Q 1159 2491 1159 1978 
L 1159 0 
L 581 0 
L 581 3500 
L 1159 3500 
L 1159 2956 
Q 1366 3272 1645 3428 
Q 1925 3584 2291 3584 
Q 2894 3584 3203 3211 
Q 3513 2838 3513 2113 
z
" transform="scale(0.015625)"/>
       <path id="DejaVuSans-67" d="M 2906 1791 
Q 2906 2416 2648 2759 
Q 2391 3103 1925 3103 
Q 1463 3103 1205 2759 
Q 947 2416 947 1791 
Q 947 1169 1205 825 
Q 1463 481 1925 481 
Q 2391 481 2648 825 
Q 2906 1169 2906 1791 
z
M 3481 434 
Q 3481 -459 3084 -895 
Q 2688 -1331 1869 -1331 
Q 1566 -1331 1297 -1286 
Q 1028 -1241 775 -1147 
L 775 -588 
Q 1028 -725 1275 -790 
Q 1522 -856 1778 -856 
Q 2344 -856 2625 -561 
Q 2906 -266 2906 331 
L 2906 616 
Q 2728 306 2450 153 
Q 2172 0 1784 0 
Q 1141 0 747 490 
Q 353 981 353 1791 
Q 353 2603 747 3093 
Q 1141 3584 1784 3584 
Q 2172 3584 2450 3431 
Q 2728 3278 2906 2969 
L 2906 3500 
L 3481 3500 
L 3481 434 
z
" transform="scale(0.015625)"/>
       <path id="DejaVuSans-74" d="M 1172 4494 
L 1172 3500 
L 2356 3500 
L 2356 3053 
L 1172 3053 
L 1172 1153 
Q 1172 725 1289 603 
Q 1406 481 1766 481 
L 2356 481 
L 2356 0 
L 1766 0 
Q 1100 0 847 248 
Q 594 497 594 1153 
L 594 3053 
L 172 3053 
L 172 3500 
L 594 3500 
L 594 4494 
L 1172 4494 
z
" transform="scale(0.015625)"/>
       <path id="DejaVuSans-68" d="M 3513 2113 
L 3513 0 
L 2938 0 
L 2938 2094 
Q 2938 2591 2744 2837 
Q 2550 3084 2163 3084 
Q 1697 3084 1428 2787 
Q 1159 2491 1159 1978 
L 1159 0 
L 581 0 
L 581 4863 
L 1159 4863 
L 1159 2956 
Q 1366 3272 1645 3428 
Q 1925 3584 2291 3584 
Q 2894 3584 3203 3211 
Q 3513 2838 3513 2113 
z
" transform="scale(0.015625)"/>
       <path id="DejaVuSans-5b" d="M 550 4863 
L 1875 4863 
L 1875 4416 
L 1125 4416 
L 1125 -397 
L 1875 -397 
L 1875 -844 
L 550 -844 
L 550 4863 
z
" transform="scale(0.015625)"/>
       <path id="DejaVuSans-2218" d="M 2003 2603 
Q 1753 2603 1581 2429 
Q 1409 2256 1409 2006 
Q 1409 1759 1581 1589 
Q 1753 1419 2003 1419 
Q 2253 1419 2425 1589 
Q 2597 1759 2597 2006 
Q 2597 2253 2423 2428 
Q 2250 2603 2003 2603 
z
M 2003 3006 
Q 2203 3006 2387 2929 
Q 2572 2853 2706 2709 
Q 2850 2569 2922 2390 
Q 2994 2212 2994 2006 
Q 2994 1594 2705 1308 
Q 2416 1022 1997 1022 
Q 1575 1022 1294 1303 
Q 1013 1584 1013 2006 
Q 1013 2425 1300 2715 
Q 1588 3006 2003 3006 
z
" transform="scale(0.015625)"/>
       <path id="DejaVuSans-41" d="M 2188 4044 
L 1331 1722 
L 3047 1722 
L 2188 4044 
z
M 1831 4666 
L 2547 4666 
L 4325 0 
L 3669 0 
L 3244 1197 
L 1141 1197 
L 716 0 
L 50 0 
L 1831 4666 
z
" transform="scale(0.015625)"/>
       <path id="DejaVuSans-5d" d="M 1947 4863 
L 1947 -844 
L 622 -844 
L 622 -397 
L 1369 -397 
L 1369 4416 
L 622 4416 
L 622 4863 
L 1947 4863 
z
" transform="scale(0.015625)"/>
      </defs>
      <use xlink:href="#DejaVuSans-57" transform="translate(0 0.390625)"/>
      <use xlink:href="#DejaVuSans-61" transform="translate(98.876953 0.390625)"/>
      <use xlink:href="#DejaVuSans-76" transform="translate(160.15625 0.390625)"/>
      <use xlink:href="#DejaVuSans-65" transform="translate(219.335938 0.390625)"/>
      <use xlink:href="#DejaVuSans-6c" transform="translate(280.859375 0.390625)"/>
      <use xlink:href="#DejaVuSans-65" transform="translate(308.642578 0.390625)"/>
      <use xlink:href="#DejaVuSans-6e" transform="translate(370.166016 0.390625)"/>
      <use xlink:href="#DejaVuSans-67" transform="translate(433.544922 0.390625)"/>
      <use xlink:href="#DejaVuSans-74" transform="translate(497.021484 0.390625)"/>
      <use xlink:href="#DejaVuSans-68" transform="translate(536.230469 0.390625)"/>
      <use xlink:href="#DejaVuSans-5b" transform="translate(615.845051 0.390625)"/>
      <use xlink:href="#DejaVuSans-2218" transform="translate(682.210774 77.96875) scale(0.49)"/>
      <use xlink:href="#DejaVuSans-41" transform="translate(654.858723 0.390625)"/>
      <use xlink:href="#DejaVuSans-5d" transform="translate(723.266926 0.390625)"/>
     </g>
    </g>
   </g>
   <g id="matplotlib.axis_2">
    <g id="ytick_1">
     <g id="line2d_10">
      <defs>
       <path id="mbe40dc9b52" d="M 0 0 
L -3.5 0 
" style="stroke: #000000; stroke-width: 0.8"/>
      </defs>
      <g>
       <use xlink:href="#mbe40dc9b52" x="36.7625" y="366.298162" style="stroke: #000000; stroke-width: 0.8"/>
      </g>
     </g>
     <g id="text_11">
      <!-- 0 -->
      <g transform="translate(23.4 370.09738) scale(0.1 -0.1)">
       <use xlink:href="#DejaVuSans-30"/>
      </g>
     </g>
    </g>
    <g id="ytick_2">
     <g id="line2d_11">
      <g>
       <use xlink:href="#mbe40dc9b52" x="36.7625" y="290.880687" style="stroke: #000000; stroke-width: 0.8"/>
      </g>
     </g>
     <g id="text_12">
      <!-- 1 -->
      <g transform="translate(23.4 294.679905) scale(0.1 -0.1)">
       <use xlink:href="#DejaVuSans-31"/>
      </g>
     </g>
    </g>
    <g id="ytick_3">
     <g id="line2d_12">
      <g>
       <use xlink:href="#mbe40dc9b52" x="36.7625" y="215.463212" style="stroke: #000000; stroke-width: 0.8"/>
      </g>
     </g>
     <g id="text_13">
      <!-- 2 -->
      <g transform="translate(23.4 219.26243) scale(0.1 -0.1)">
       <use xlink:href="#DejaVuSans-32"/>
      </g>
     </g>
    </g>
    <g id="ytick_4">
     <g id="line2d_13">
      <g>
       <use xlink:href="#mbe40dc9b52" x="36.7625" y="140.045737" style="stroke: #000000; stroke-width: 0.8"/>
      </g>
     </g>
     <g id="text_14">
      <!-- 3 -->
      <g transform="translate(23.4 143.844955) scale(0.1 -0.1)">
       <use xlink:href="#DejaVuSans-33"/>
      </g>
     </g>
    </g>
    <g id="ytick_5">
     <g id="line2d_14">
      <g>
       <use xlink:href="#mbe40dc9b52" x="36.7625" y="64.628262" style="stroke: #000000; stroke-width: 0.8"/>
      </g>
     </g>
     <g id="text_15">
      <!-- 4 -->
      <g transform="translate(23.4 68.42748) scale(0.1 -0.1)">
       <use xlink:href="#DejaVuSans-34"/>
      </g>
     </g>
    </g>
    <g id="text_16">
     <!-- $\text{Luminosity density}\,[\mathrm{erg\,s^{-1}\,\mathring{A}^{-1}}]$ -->
     <g transform="translate(17.3 281.148125) rotate(-90) scale(0.1 -0.1)">
      <defs>
       <path id="DejaVuSans-4c" d="M 628 4666 
L 1259 4666 
L 1259 531 
L 3531 531 
L 3531 0 
L 628 0 
L 628 4666 
z
" transform="scale(0.015625)"/>
       <path id="DejaVuSans-75" d="M 544 1381 
L 544 3500 
L 1119 3500 
L 1119 1403 
Q 1119 906 1312 657 
Q 1506 409 1894 409 
Q 2359 409 2629 706 
Q 2900 1003 2900 1516 
L 2900 3500 
L 3475 3500 
L 3475 0 
L 2900 0 
L 2900 538 
Q 2691 219 2414 64 
Q 2138 -91 1772 -91 
Q 1169 -91 856 284 
Q 544 659 544 1381 
z
M 1991 3584 
L 1991 3584 
z
" transform="scale(0.015625)"/>
       <path id="DejaVuSans-6d" d="M 3328 2828 
Q 3544 3216 3844 3400 
Q 4144 3584 4550 3584 
Q 5097 3584 5394 3201 
Q 5691 2819 5691 2113 
L 5691 0 
L 5113 0 
L 5113 2094 
Q 5113 2597 4934 2840 
Q 4756 3084 4391 3084 
Q 3944 3084 3684 2787 
Q 3425 2491 3425 1978 
L 3425 0 
L 2847 0 
L 2847 2094 
Q 2847 2600 2669 2842 
Q 2491 3084 2119 3084 
Q 1678 3084 1418 2786 
Q 1159 2488 1159 1978 
L 1159 0 
L 581 0 
L 581 3500 
L 1159 3500 
L 1159 2956 
Q 1356 3278 1631 3431 
Q 1906 3584 2284 3584 
Q 2666 3584 2933 3390 
Q 3200 3197 3328 2828 
z
" transform="scale(0.015625)"/>
       <path id="DejaVuSans-69" d="M 603 3500 
L 1178 3500 
L 1178 0 
L 603 0 
L 603 3500 
z
M 603 4863 
L 1178 4863 
L 1178 4134 
L 603 4134 
L 603 4863 
z
" transform="scale(0.015625)"/>
       <path id="DejaVuSans-6f" d="M 1959 3097 
Q 1497 3097 1228 2736 
Q 959 2375 959 1747 
Q 959 1119 1226 758 
Q 1494 397 1959 397 
Q 2419 397 2687 759 
Q 2956 1122 2956 1747 
Q 2956 2369 2687 2733 
Q 2419 3097 1959 3097 
z
M 1959 3584 
Q 2709 3584 3137 3096 
Q 3566 2609 3566 1747 
Q 3566 888 3137 398 
Q 2709 -91 1959 -91 
Q 1206 -91 779 398 
Q 353 888 353 1747 
Q 353 2609 779 3096 
Q 1206 3584 1959 3584 
z
" transform="scale(0.015625)"/>
       <path id="DejaVuSans-73" d="M 2834 3397 
L 2834 2853 
Q 2591 2978 2328 3040 
Q 2066 3103 1784 3103 
Q 1356 3103 1142 2972 
Q 928 2841 928 2578 
Q 928 2378 1081 2264 
Q 1234 2150 1697 2047 
L 1894 2003 
Q 2506 1872 2764 1633 
Q 3022 1394 3022 966 
Q 3022 478 2636 193 
Q 2250 -91 1575 -91 
Q 1294 -91 989 -36 
Q 684 19 347 128 
L 347 722 
Q 666 556 975 473 
Q 1284 391 1588 391 
Q 1994 391 2212 530 
Q 2431 669 2431 922 
Q 2431 1156 2273 1281 
Q 2116 1406 1581 1522 
L 1381 1569 
Q 847 1681 609 1914 
Q 372 2147 372 2553 
Q 372 3047 722 3315 
Q 1072 3584 1716 3584 
Q 2034 3584 2315 3537 
Q 2597 3491 2834 3397 
z
" transform="scale(0.015625)"/>
       <path id="DejaVuSans-79" d="M 2059 -325 
Q 1816 -950 1584 -1140 
Q 1353 -1331 966 -1331 
L 506 -1331 
L 506 -850 
L 844 -850 
Q 1081 -850 1212 -737 
Q 1344 -625 1503 -206 
L 1606 56 
L 191 3500 
L 800 3500 
L 1894 763 
L 2988 3500 
L 3597 3500 
L 2059 -325 
z
" transform="scale(0.015625)"/>
       <path id="DejaVuSans-20" transform="scale(0.015625)"/>
       <path id="DejaVuSans-64" d="M 2906 2969 
L 2906 4863 
L 3481 4863 
L 3481 0 
L 2906 0 
L 2906 525 
Q 2725 213 2448 61 
Q 2172 -91 1784 -91 
Q 1150 -91 751 415 
Q 353 922 353 1747 
Q 353 2572 751 3078 
Q 1150 3584 1784 3584 
Q 2172 3584 2448 3432 
Q 2725 3281 2906 2969 
z
M 947 1747 
Q 947 1113 1208 752 
Q 1469 391 1925 391 
Q 2381 391 2643 752 
Q 2906 1113 2906 1747 
Q 2906 2381 2643 2742 
Q 2381 3103 1925 3103 
Q 1469 3103 1208 2742 
Q 947 2381 947 1747 
z
" transform="scale(0.015625)"/>
       <path id="DejaVuSans-72" d="M 2631 2963 
Q 2534 3019 2420 3045 
Q 2306 3072 2169 3072 
Q 1681 3072 1420 2755 
Q 1159 2438 1159 1844 
L 1159 0 
L 581 0 
L 581 3500 
L 1159 3500 
L 1159 2956 
Q 1341 3275 1631 3429 
Q 1922 3584 2338 3584 
Q 2397 3584 2469 3576 
Q 2541 3569 2628 3553 
L 2631 2963 
z
" transform="scale(0.015625)"/>
       <path id="DejaVuSans-2212" d="M 678 2272 
L 4684 2272 
L 4684 1741 
L 678 1741 
L 678 2272 
z
" transform="scale(0.015625)"/>
      </defs>
      <use xlink:href="#DejaVuSans-4c" transform="translate(0 0.390625)"/>
      <use xlink:href="#DejaVuSans-75" transform="translate(55.712891 0.390625)"/>
      <use xlink:href="#DejaVuSans-6d" transform="translate(119.091797 0.390625)"/>
      <use xlink:href="#DejaVuSans-69" transform="translate(216.503906 0.390625)"/>
      <use xlink:href="#DejaVuSans-6e" transform="translate(244.287109 0.390625)"/>
      <use xlink:href="#DejaVuSans-6f" transform="translate(307.666016 0.390625)"/>
      <use xlink:href="#DejaVuSans-73" transform="translate(368.847656 0.390625)"/>
      <use xlink:href="#DejaVuSans-69" transform="translate(420.947266 0.390625)"/>
      <use xlink:href="#DejaVuSans-74" transform="translate(448.730469 0.390625)"/>
      <use xlink:href="#DejaVuSans-79" transform="translate(487.939453 0.390625)"/>
      <use xlink:href="#DejaVuSans-20" transform="translate(547.119141 0.390625)"/>
      <use xlink:href="#DejaVuSans-64" transform="translate(578.90625 0.390625)"/>
      <use xlink:href="#DejaVuSans-65" transform="translate(642.382812 0.390625)"/>
      <use xlink:href="#DejaVuSans-6e" transform="translate(703.90625 0.390625)"/>
      <use xlink:href="#DejaVuSans-73" transform="translate(767.285156 0.390625)"/>
      <use xlink:href="#DejaVuSans-69" transform="translate(819.384766 0.390625)"/>
      <use xlink:href="#DejaVuSans-74" transform="translate(847.167969 0.390625)"/>
      <use xlink:href="#DejaVuSans-79" transform="translate(886.376953 0.390625)"/>
      <use xlink:href="#DejaVuSans-5b" transform="translate(961.792317 0.390625)"/>
      <use xlink:href="#DejaVuSans-65" transform="translate(1000.805989 0.390625)"/>
      <use xlink:href="#DejaVuSans-72" transform="translate(1062.329426 0.390625)"/>
      <use xlink:href="#DejaVuSans-67" transform="translate(1103.442708 0.390625)"/>
      <use xlink:href="#DejaVuSans-73" transform="translate(1183.154946 0.390625)"/>
      <use xlink:href="#DejaVuSans-2212" transform="translate(1236.211587 38.671875) scale(0.7)"/>
      <use xlink:href="#DejaVuSans-31" transform="translate(1294.863931 38.671875) scale(0.7)"/>
      <use xlink:href="#DejaVuSans-2218" transform="translate(1385.722166 77.96875) scale(0.49)"/>
      <use xlink:href="#DejaVuSans-41" transform="translate(1358.370115 0.390625)"/>
      <use xlink:href="#DejaVuSans-2212" transform="translate(1427.735349 38.671875) scale(0.7)"/>
      <use xlink:href="#DejaVuSans-31" transform="translate(1486.387693 38.671875) scale(0.7)"/>
      <use xlink:href="#DejaVuSans-5d" transform="translate(1533.658201 0.390625)"/>
     </g>
    </g>
    <g id="text_17">
     <!-- 1e39 -->
     <g transform="translate(36.7625 19.318125) scale(0.1 -0.1)">
      <use xlink:href="#DejaVuSans-31"/>
      <use xlink:href="#DejaVuSans-65" transform="translate(63.623047 0)"/>
      <use xlink:href="#DejaVuSans-33" transform="translate(125.146484 0)"/>
      <use xlink:href="#DejaVuSans-39" transform="translate(188.769531 0)"/>
     </g>
    </g>
   </g>
   <g id="line2d_15">
    <path d="M 615.6875 346.978934 
L 614.467302 346.940621 
L 608.980987 347.077426 
L 604.662422 347.697448 
L 598.298942 348.8868 
L 597.251446 348.524382 
L 596.207636 348.303937 
L 594.130995 348.173824 
L 593.098125 348.16302 
L 592.068865 347.871896 
L 590.021096 346.865528 
L 586.97604 345.207082 
L 583.962463 343.887896 
L 581.970659 343.32568 
L 568.402073 340.912001 
L 565.576981 340.35424 
L 559.093802 339.707129 
L 557.268866 339.710281 
L 554.553849 339.983802 
L 550.975001 340.097609 
L 548.321248 339.596339 
L 543.090242 339.006791 
L 541.368842 338.222877 
L 538.807254 337.466133 
L 533.756644 336.552728 
L 531.266939 336.221913 
L 528.800524 335.812362 
L 526.357074 335.144866 
L 523.134311 334.276614 
L 519.951066 333.431937 
L 515.248721 332.618046 
L 512.161149 332.299872 
L 506.846687 331.980269 
L 503.859458 331.496051 
L 502.379112 331.247694 
L 500.174958 330.692737 
L 499.444566 330.4084 
L 497.990213 329.680456 
L 496.544372 329.177143 
L 492.257183 328.105489 
L 489.440275 327.387975 
L 487.348829 326.95703 
L 483.219534 326.408598 
L 480.505641 325.736827 
L 477.15619 324.92094 
L 471.893911 323.462201 
L 468.023371 322.257474 
L 466.112012 321.607266 
L 462.961163 320.56092 
L 453.761218 317.716631 
L 444.345913 315.079937 
L 441.483936 314.019514 
L 437.539095 312.863352 
L 433.116918 311.696723 
L 428.784032 309.818089 
L 426.120126 308.290801 
L 421.926674 305.966109 
L 418.83585 304.767761 
L 417.815709 304.537117 
L 417.307517 304.795018 
L 416.294868 305.709047 
L 415.790401 306.278484 
L 414.284381 308.908885 
L 412.789335 312.155158 
L 410.321655 318.692793 
L 408.855293 322.398757 
L 407.883584 324.564194 
L 406.916527 326.203816 
L 406.434733 326.899104 
L 405.954089 326.559187 
L 405.474592 325.640177 
L 404.519022 322.854622 
L 403.567989 318.763644 
L 401.679406 309.440368 
L 400.741792 305.924106 
L 399.808589 303.174604 
L 398.879765 301.300948 
L 397.494672 299.139679 
L 396.576662 297.986975 
L 395.662925 297.171022 
L 394.300265 296.336867 
L 392.947052 295.821618 
L 392.498064 295.725033 
L 391.157296 295.898445 
L 389.825749 296.248812 
L 388.943128 296.587345 
L 387.62674 296.582536 
L 385.020785 296.35764 
L 383.731038 296.116046 
L 381.60075 295.445575 
L 378.658183 289.480986 
L 377.411073 288.09656 
L 376.997212 287.698556 
L 376.584268 287.512443 
L 376.172237 287.638353 
L 375.350902 288.261357 
L 373.719057 290.098166 
L 371.699307 293.32563 
L 370.498013 295.614078 
L 369.7015 297.69572 
L 366.549768 307.483664 
L 366.159617 307.78515 
L 365.770304 307.604735 
L 364.994184 306.678326 
L 363.068371 303.313864 
L 362.303787 302.683505 
L 361.54245 302.380272 
L 360.784342 301.267429 
L 360.406492 300.59362 
L 360.029442 299.42639 
L 358.903061 295.011308 
L 358.15609 292.936889 
L 357.412257 291.294204 
L 357.041511 290.786399 
L 356.671542 290.501782 
L 355.933924 290.637395 
L 353.376379 292.851536 
L 352.652465 293.377234 
L 351.931543 293.792282 
L 351.213596 293.437244 
L 350.855732 293.573328 
L 350.142213 294.385553 
L 349.786553 294.924177 
L 349.431623 295.141741 
L 348.723943 295.143976 
L 348.37119 295.214919 
L 346.967364 291.096626 
L 345.574935 284.793988 
L 344.882952 282.742659 
L 344.193765 281.202608 
L 343.165194 279.883733 
L 342.482928 279.339133 
L 341.464659 279.605256 
L 340.78921 278.539097 
L 340.452497 278.135786 
L 340.116458 277.994294 
L 339.781089 277.623962 
L 339.112354 276.665798 
L 338.446277 276.066656 
L 337.782842 275.98829 
L 336.135711 276.401103 
L 335.4814 276.668504 
L 334.504753 277.697887 
L 333.211473 279.202293 
L 332.889733 278.444807 
L 331.609034 274.340478 
L 331.290416 273.776892 
L 330.972417 273.501063 
L 330.655035 273.528411 
L 330.338269 273.696568 
L 329.706575 274.666716 
L 329.077322 276.223252 
L 328.137987 279.146421 
L 326.584432 284.415885 
L 325.967171 285.684551 
L 325.352267 286.467118 
L 324.739708 287.16091 
L 323.825233 288.63067 
L 323.521566 289.277551 
L 323.218475 289.560651 
L 322.31264 284.869265 
L 320.814285 274.879034 
L 319.922022 270.625807 
L 319.03477 267.130207 
L 318.446031 265.287035 
L 317.859489 264.087763 
L 316.983766 263.182733 
L 316.692943 263.094606 
L 315.823707 263.847721 
L 314.95929 264.533784 
L 314.385669 263.175958 
L 313.529194 260.872815 
L 312.960831 259.969141 
L 312.112188 258.912956 
L 310.987889 256.634848 
L 310.428811 255.964787 
L 309.871764 255.402852 
L 309.039981 254.21089 
L 308.212708 252.292153 
L 307.663681 249.46905 
L 306.028423 239.863836 
L 305.217379 236.988378 
L 304.410679 235.019261 
L 303.608287 233.765648 
L 302.545074 232.411005 
L 301.752602 230.888266 
L 301.22662 229.346068 
L 300.964326 228.890778 
L 300.702493 228.764706 
L 300.441122 229.038319 
L 299.919758 230.386511 
L 299.400225 232.487514 
L 298.624336 237.041344 
L 297.340203 246.403483 
L 296.320927 256.11107 
L 295.056748 270.683454 
L 292.560904 300.910552 
L 292.313672 302.322863 
L 292.066862 302.987515 
L 291.820475 303.149066 
L 291.574509 302.929739 
L 291.083835 301.094159 
L 290.594832 297.707451 
L 289.864443 290.016285 
L 288.896361 276.256413 
L 287.217899 251.941984 
L 286.267625 241.542586 
L 285.794876 238.144618 
L 285.323706 235.922661 
L 284.85411 234.994051 
L 284.619898 234.908621 
L 284.386078 235.008424 
L 283.919603 235.792144 
L 283.454677 236.697027 
L 282.991293 237.041953 
L 282.529443 237.91979 
L 282.069119 239.176181 
L 280.697229 243.965418 
L 278.440576 253.180385 
L 277.993654 253.695611 
L 277.548185 253.235546 
L 277.104162 252.089683 
L 275.780698 248.170595 
L 274.905491 246.901491 
L 274.469997 246.270106 
L 273.603195 244.456681 
L 272.95673 242.726535 
L 272.527473 241.431359 
L 272.099583 239.544657 
L 271.460299 238.114273 
L 270.190831 236.484919 
L 269.770349 236.197254 
L 268.516831 236.682711 
L 267.481229 236.343433 
L 266.86375 235.564508 
L 264.826221 226.235932 
L 264.020025 214.98172 
L 263.418639 207.658825 
L 262.820029 202.79781 
L 262.224174 199.742296 
L 261.631056 197.800321 
L 261.433955 197.79633 
L 260.844457 198.443955 
L 259.867934 200.916169 
L 259.285576 202.933589 
L 258.128775 210.575505 
L 257.554296 214.91078 
L 254.53374 241.382039 
L 254.347343 241.580789 
L 254.161222 241.9705 
L 253.78981 242.254975 
L 253.419499 242.993486 
L 252.866086 245.786988 
L 252.315122 249.200982 
L 252.13201 249.230951 
L 251.949167 248.962717 
L 250.67677 242.416285 
L 250.496064 242.182407 
L 250.135445 242.504131 
L 249.59649 243.68049 
L 249.238495 245.546024 
L 248.525628 250.675906 
L 247.816892 256.565159 
L 247.640349 256.791468 
L 247.464062 256.75535 
L 246.936727 253.710197 
L 245.888879 245.825001 
L 245.19532 242.167973 
L 244.677754 240.682522 
L 244.333942 239.904032 
L 243.649256 234.345879 
L 242.968459 225.309277 
L 241.450716 204.306287 
L 240.782332 198.561315 
L 240.283508 195.73809 
L 238.472326 189.157499 
L 237.49606 186.227083 
L 237.010968 184.919179 
L 236.527887 184.159947 
L 236.206945 184.014793 
L 235.408449 184.138138 
L 235.249408 184.21697 
L 234.615425 183.920581 
L 233.357828 183.173208 
L 232.113868 182.672382 
L 231.496933 181.620994 
L 231.036417 181.16529 
L 230.73044 180.952411 
L 230.425287 180.239698 
L 228.761515 175.576219 
L 227.715419 173.600117 
L 225.06963 169.518288 
L 224.345755 168.541517 
L 223.197362 166.331805 
L 222.627642 165.532272 
L 222.060875 164.579991 
L 221.21621 163.21689 
L 220.656726 162.656711 
L 219.822881 162.017025 
L 218.038047 161.707596 
L 216.685054 161.913601 
L 216.148632 161.406219 
L 215.614909 160.683247 
L 215.083864 160.107743 
L 214.819339 159.765981 
L 214.292274 158.881068 
L 213.506597 158.124327 
L 212.986064 157.772327 
L 212.081328 157.517518 
L 211.567843 157.762712 
L 211.184389 157.865022 
L 210.421715 158.157751 
L 208.663784 160.838647 
L 208.167003 160.172851 
L 207.672627 156.902505 
L 206.325353 146.695678 
L 205.477235 140.624677 
L 204.99578 138.79208 
L 204.875775 138.85382 
L 204.755914 139.134064 
L 204.51662 138.388528 
L 204.397186 138.362207 
L 204.158746 138.810794 
L 203.802147 141.405344 
L 203.092745 150.272758 
L 202.622603 158.921831 
L 202.154674 170.234685 
L 201.225398 199.198959 
L 199.847708 251.932676 
L 199.279333 271.154253 
L 198.939888 276.198322 
L 198.714246 277.612247 
L 198.601621 277.871195 
L 198.376761 277.08271 
L 198.040443 273.331879 
L 197.593824 263.84425 
L 197.038433 245.4929 
L 195.937154 197.615021 
L 195.173703 168.081393 
L 194.524132 150.612813 
L 193.986184 142.756523 
L 193.558008 139.209699 
L 193.131757 137.665504 
L 193.025493 137.562166 
L 192.60163 137.94194 
L 191.969386 138.621687 
L 191.65485 138.444468 
L 191.237103 137.939958 
L 190.303935 135.342635 
L 189.584542 132.376094 
L 189.38002 130.924597 
L 188.263157 109.845394 
L 187.759926 105.450109 
L 187.359316 102.710242 
L 186.761665 95.832837 
L 186.266588 92.727393 
L 185.970828 91.673032 
L 185.774186 92.887439 
L 185.57797 94.74965 
L 185.089275 101.875442 
L 184.409504 116.076103 
L 183.447205 143.024388 
L 182.684723 171.010375 
L 181.553069 223.967715 
L 180.528234 272.944116 
L 180.0663 281.541404 
L 179.698489 284.064228 
L 179.606776 284.226793 
L 179.515159 284.145148 
L 179.332211 283.477448 
L 179.058502 280.56388 
L 178.694884 272.981708 
L 178.242479 257.951522 
L 177.613033 229.141806 
L 175.22717 102.009641 
L 174.01568 83.668338 
L 172.483005 60.432609 
L 171.476477 48.648763 
L 170.729435 42.36505 
L 170.152992 38.77131 
L 169.989025 38.707485 
L 169.743681 38.902784 
L 168.850253 42.126205 
L 168.688845 43.878602 
L 168.206512 53.832591 
L 167.567777 71.602763 
L 166.776309 101.735899 
L 165.914491 142.851201 
L 165.061748 182.196524 
L 162.332665 288.387075 
L 161.886781 299.422632 
L 161.222642 310.003687 
L 160.782977 313.077914 
L 160.564065 313.539855 
L 160.345763 313.652891 
L 160.128069 313.244742 
L 159.83875 311.481536 
L 159.694493 310.427916 
L 159.478607 311.333577 
L 159.406778 311.426393 
L 159.263318 311.183753 
L 159.048624 309.912784 
L 158.834524 306.818957 
L 158.692118 302.56984 
L 158.125103 263.826598 
L 157.28233 191.315539 
L 156.864389 153.235817 
L 156.794953 153.343239 
L 155.966619 154.668119 
L 155.692499 154.92077 
L 153.335461 158.474675 
L 153.004705 158.225518 
L 152.741153 158.309076 
L 152.216835 158.649271 
L 151.56661 158.949191 
L 151.179206 159.028338 
L 150.857918 159.164224 
L 150.665818 159.261982 
L 149.775952 160.133285 
L 149.649709 160.034077 
L 149.397876 159.752918 
L 149.084308 159.76617 
L 148.896815 159.911124 
L 148.399193 160.729929 
L 147.904976 162.275914 
L 147.29194 164.369434 
L 146.805257 165.589798 
L 145.068398 170.763384 
L 144.83214 171.030426 
L 144.596671 171.184852 
L 144.479232 171.286118 
L 144.420586 171.202275 
L 144.011429 170.748477 
L 143.48886 170.762963 
L 142.970175 170.838408 
L 142.683679 170.591884 
L 142.398362 170.318209 
L 141.324775 169.769868 
L 140.822023 169.144351 
L 140.599757 169.109599 
L 140.322938 169.210139 
L 139.553776 170.159364 
L 138.685289 172.003464 
L 138.57751 172.239022 
L 138.362467 174.327185 
L 137.774627 182.690696 
L 137.086502 195.348602 
L 135.782877 219.021037 
L 134.859963 231.178805 
L 134.707399 229.584197 
L 134.504532 225.81518 
L 133.549448 205.987475 
L 133.1019 201.226294 
L 132.805248 200.217149 
L 132.608235 200.015197 
L 132.460871 199.996981 
L 132.216012 200.092746 
L 132.069544 200.347766 
L 131.342194 202.102543 
L 131.293997 202.053267 
L 130.337667 195.732958 
L 129.864867 194.739009 
L 129.115701 194.30954 
L 128.744451 194.42711 
L 128.467456 194.441514 
L 127.552952 193.064353 
L 126.786118 191.850158 
L 125.455841 191.085592 
L 125.411994 191.11485 
L 125.236924 192.2031 
L 124.801448 196.671878 
L 123.428698 215.138636 
L 122.502881 238.967285 
L 121.83852 257.021089 
L 121.468079 258.685513 
L 121.181563 262.391384 
L 120.855823 270.809851 
L 119.729848 306.461831 
L 119.372519 309.808876 
L 119.096117 310.612617 
L 118.978064 310.777445 
L 118.938767 310.736066 
L 118.821036 310.653845 
L 118.430336 309.351055 
L 118.23598 309.465374 
L 118.003623 310.689051 
L 117.810712 312.902398 
L 117.007562 322.447476 
L 116.365644 325.804773 
L 116.25312 325.78744 
L 116.140821 325.455832 
L 115.954155 324.122159 
L 115.693863 320.267751 
L 115.324109 310.432344 
L 114.049017 270.702108 
L 113.72584 267.519906 
L 113.618536 266.872104 
L 113.297878 265.459569 
L 113.262366 265.471164 
L 113.120544 265.682303 
L 112.943784 266.500122 
L 112.732426 268.264663 
L 111.999083 273.918535 
L 111.825933 271.120863 
L 111.070617 256.92926 
L 110.730776 254.782431 
L 110.359433 253.767018 
L 110.090984 253.500019 
L 109.491896 253.588441 
L 109.194881 253.586583 
L 108.932267 253.576316 
L 108.573306 253.544975 
L 108.281431 253.447745 
L 107.702538 252.860238 
L 107.256711 252.086411 
L 106.657751 250.987879 
L 106.470046 250.673466 
L 106.158724 250.098362 
L 105.818446 249.318905 
L 104.389694 246.421474 
L 104.150483 245.025899 
L 103.557412 238.436158 
L 103.351492 236.566226 
L 103.322145 236.569912 
L 103.087986 237.395062 
L 102.420884 242.494458 
L 102.392083 242.413939 
L 102.363299 242.55571 
L 102.162282 243.535379 
L 101.791133 249.213688 
L 101.281842 264.757526 
L 100.694328 292.178406 
L 99.976683 333.873088 
L 99.594651 342.6612 
L 99.35066 344.654113 
L 99.215646 345.331715 
L 99.161748 345.272043 
L 99.027268 344.786234 
L 98.839633 342.948396 
L 98.440041 335.247018 
L 98.043801 322.973845 
L 96.161915 260.379535 
L 95.834653 256.74355 
L 95.809575 256.756388 
L 95.659394 257.697363 
L 95.385335 260.741455 
L 95.063551 265.532236 
L 93.511838 294.396497 
L 93.108507 308.883933 
L 92.428792 334.705187 
L 91.989052 344.254462 
L 91.644964 347.437217 
L 91.462547 348.010749 
L 91.326232 348.114198 
L 91.303555 348.017445 
L 91.122554 347.303626 
L 90.8749 346.087573 
L 90.762794 345.166455 
L 90.718033 345.3727 
L 90.539448 346.013846 
L 90.361597 345.664171 
L 89.96409 342.195527 
L 88.537331 318.133035 
L 87.73713 304.595017 
L 87.013379 298.265012 
L 86.829288 298.57083 
L 86.646011 301.003771 
L 86.362518 308.808192 
L 85.208464 342.230986 
L 84.798546 345.631462 
L 84.604796 346.101379 
L 84.566158 346.084835 
L 84.20093 344.432855 
L 84.162677 344.262146 
L 84.105366 344.47796 
L 83.857963 344.023926 
L 83.630943 342.725137 
L 83.255428 338.793881 
L 83.218071 339.532274 
L 82.864927 345.282982 
L 82.551612 347.691654 
L 82.441624 347.52394 
L 82.405029 347.563774 
L 82.313692 347.669759 
L 82.277217 347.585119 
L 81.519002 345.902012 
L 80.93348 343.342764 
L 80.740265 342.385663 
L 80.565455 341.150415 
L 80.530589 341.271115 
L 80.270097 341.914093 
L 80.252794 341.897907 
L 80.235499 341.976257 
L 80.218211 341.937048 
L 80.097418 342.103729 
L 80.080193 342.072541 
L 80.062976 342.195597 
L 80.028565 342.148471 
L 79.891232 342.416978 
L 79.771472 342.265873 
L 79.754394 342.306023 
L 79.720261 342.267626 
L 79.499147 342.654258 
L 78.14998 357.012578 
L 77.856682 359.426856 
L 77.743247 359.357017 
L 77.453149 359.032272 
L 77.197192 358.38017 
L 76.863942 356.958767 
L 76.816582 357.351554 
L 76.549366 358.865212 
L 76.159943 359.879945 
L 76.08256 359.807169 
L 75.621717 359.52635 
L 75.439024 359.361099 
L 75.332882 359.230302 
L 75.091453 358.945499 
L 75.01634 358.948637 
L 74.98634 358.913148 
L 74.806867 358.78552 
L 74.657998 358.638247 
L 74.332677 358.28511 
L 73.90839 357.745926 
L 73.763268 357.708328 
L 73.474822 357.440303 
L 73.374428 357.273385 
L 72.905021 356.451585 
L 72.792179 356.375056 
L 72.70779 356.286495 
L 72.344482 359.003583 
L 71.984992 360.432172 
L 71.80666 360.695939 
L 71.629261 360.617158 
L 71.506988 360.590447 
L 71.398672 360.719433 
L 71.115986 361.24473 
L 70.610436 362.310777 
L 70.557663 362.535341 
L 70.46551 362.487405 
L 70.021513 362.362946 
L 69.879133 362.337055 
L 69.737366 362.313564 
L 69.596206 362.303859 
L 69.493925 362.29528 
L 69.481162 362.279103 
L 69.290315 362.308535 
L 69.151065 362.359697 
L 69.12581 362.325842 
L 69.050164 362.220857 
L 68.999831 362.312815 
L 68.749328 362.48086 
L 68.736853 362.469005 
L 68.389505 362.270437 
L 68.00926 361.889172 
L 67.9727 362.004333 
L 67.657586 362.610855 
L 67.309751 363.110899 
L 66.660389 363.49104 
L 66.27712 363.209821 
L 65.909913 363.062077 
L 65.434468 363.295957 
L 65.199471 363.407877 
L 64.80077 364.135648 
L 64.439827 363.858055 
L 64.061656 363.777201 
L 63.858337 363.719316 
L 63.730632 363.715285 
L 63.225209 363.264177 
L 63.162631 363.396462 
L 62.60532 364.274053 
L 62.118666 364.514601 
L 61.898303 364.495369 
L 61.739086 364.532869 
L 61.492052 364.547811 
L 61.130292 364.458847 
L 60.994594 364.544864 
L 60.496158 365.203367 
L 60.053083 365.230559 
L 59.662977 365.277038 
L 59.479112 365.24402 
L 59.25098 365.395776 
L 59.060793 365.443781 
L 58.791355 365.547798 
L 56.68575 365.496632 
L 55.832033 365.922825 
L 55.521934 365.873567 
L 54.997766 365.76251 
L 54.287599 365.792112 
L 53.936159 365.842581 
L 53.729114 365.953163 
L 53.560319 365.999053 
L 53.305642 365.967441 
L 52.889313 365.956575 
L 52.514967 365.986527 
L 52.022367 365.998041 
L 51.851286 365.994674 
L 51.5262 366.048088 
L 51.225413 366.077261 
L 51.013823 366.11579 
L 50.313479 366.221202 
L 50.122622 366.258714 
L 49.13068 366.151948 
L 48.967477 366.152078 
L 47.845788 366.060905 
L 47.583944 366.04668 
L 47.041903 366.187783 
L 46.855082 366.291565 
L 36.765701 366.298125 
L 36.765701 366.298125 
" clip-path="url(#pa06fe0f7aa)" style="fill: none; stroke: #1f77b4; stroke-width: 1.5; stroke-linecap: square"/>
   </g>
   <g id="patch_3">
    <path d="M 36.7625 382.678125 
L 36.7625 22.318125 
" style="fill: none; stroke: #000000; stroke-width: 0.8; stroke-linejoin: miter; stroke-linecap: square"/>
   </g>
   <g id="patch_4">
    <path d="M 594.7625 382.678125 
L 594.7625 22.318125 
" style="fill: none; stroke: #000000; stroke-width: 0.8; stroke-linejoin: miter; stroke-linecap: square"/>
   </g>
   <g id="patch_5">
    <path d="M 36.7625 382.678125 
L 594.7625 382.678125 
" style="fill: none; stroke: #000000; stroke-width: 0.8; stroke-linejoin: miter; stroke-linecap: square"/>
   </g>
   <g id="patch_6">
    <path d="M 36.7625 22.318125 
L 594.7625 22.318125 
" style="fill: none; stroke: #000000; stroke-width: 0.8; stroke-linejoin: miter; stroke-linecap: square"/>
   </g>
   <g id="text_18">
    <!-- TARDIS example model spectrum -->
    <g transform="translate(215.467812 16.318125) scale(0.12 -0.12)">
     <defs>
      <path id="DejaVuSans-54" d="M -19 4666 
L 3928 4666 
L 3928 4134 
L 2272 4134 
L 2272 0 
L 1638 0 
L 1638 4134 
L -19 4134 
L -19 4666 
z
" transform="scale(0.015625)"/>
      <path id="DejaVuSans-52" d="M 2841 2188 
Q 3044 2119 3236 1894 
Q 3428 1669 3622 1275 
L 4263 0 
L 3584 0 
L 2988 1197 
Q 2756 1666 2539 1819 
Q 2322 1972 1947 1972 
L 1259 1972 
L 1259 0 
L 628 0 
L 628 4666 
L 2053 4666 
Q 2853 4666 3247 4331 
Q 3641 3997 3641 3322 
Q 3641 2881 3436 2590 
Q 3231 2300 2841 2188 
z
M 1259 4147 
L 1259 2491 
L 2053 2491 
Q 2509 2491 2742 2702 
Q 2975 2913 2975 3322 
Q 2975 3731 2742 3939 
Q 2509 4147 2053 4147 
L 1259 4147 
z
" transform="scale(0.015625)"/>
      <path id="DejaVuSans-44" d="M 1259 4147 
L 1259 519 
L 2022 519 
Q 2988 519 3436 956 
Q 3884 1394 3884 2338 
Q 3884 3275 3436 3711 
Q 2988 4147 2022 4147 
L 1259 4147 
z
M 628 4666 
L 1925 4666 
Q 3281 4666 3915 4102 
Q 4550 3538 4550 2338 
Q 4550 1131 3912 565 
Q 3275 0 1925 0 
L 628 0 
L 628 4666 
z
" transform="scale(0.015625)"/>
      <path id="DejaVuSans-49" d="M 628 4666 
L 1259 4666 
L 1259 0 
L 628 0 
L 628 4666 
z
" transform="scale(0.015625)"/>
      <path id="DejaVuSans-53" d="M 3425 4513 
L 3425 3897 
Q 3066 4069 2747 4153 
Q 2428 4238 2131 4238 
Q 1616 4238 1336 4038 
Q 1056 3838 1056 3469 
Q 1056 3159 1242 3001 
Q 1428 2844 1947 2747 
L 2328 2669 
Q 3034 2534 3370 2195 
Q 3706 1856 3706 1288 
Q 3706 609 3251 259 
Q 2797 -91 1919 -91 
Q 1588 -91 1214 -16 
Q 841 59 441 206 
L 441 856 
Q 825 641 1194 531 
Q 1563 422 1919 422 
Q 2459 422 2753 634 
Q 3047 847 3047 1241 
Q 3047 1584 2836 1778 
Q 2625 1972 2144 2069 
L 1759 2144 
Q 1053 2284 737 2584 
Q 422 2884 422 3419 
Q 422 4038 858 4394 
Q 1294 4750 2059 4750 
Q 2388 4750 2728 4690 
Q 3069 4631 3425 4513 
z
" transform="scale(0.015625)"/>
      <path id="DejaVuSans-78" d="M 3513 3500 
L 2247 1797 
L 3578 0 
L 2900 0 
L 1881 1375 
L 863 0 
L 184 0 
L 1544 1831 
L 300 3500 
L 978 3500 
L 1906 2253 
L 2834 3500 
L 3513 3500 
z
" transform="scale(0.015625)"/>
      <path id="DejaVuSans-70" d="M 1159 525 
L 1159 -1331 
L 581 -1331 
L 581 3500 
L 1159 3500 
L 1159 2969 
Q 1341 3281 1617 3432 
Q 1894 3584 2278 3584 
Q 2916 3584 3314 3078 
Q 3713 2572 3713 1747 
Q 3713 922 3314 415 
Q 2916 -91 2278 -91 
Q 1894 -91 1617 61 
Q 1341 213 1159 525 
z
M 3116 1747 
Q 3116 2381 2855 2742 
Q 2594 3103 2138 3103 
Q 1681 3103 1420 2742 
Q 1159 2381 1159 1747 
Q 1159 1113 1420 752 
Q 1681 391 2138 391 
Q 2594 391 2855 752 
Q 3116 1113 3116 1747 
z
" transform="scale(0.015625)"/>
      <path id="DejaVuSans-63" d="M 3122 3366 
L 3122 2828 
Q 2878 2963 2633 3030 
Q 2388 3097 2138 3097 
Q 1578 3097 1268 2742 
Q 959 2388 959 1747 
Q 959 1106 1268 751 
Q 1578 397 2138 397 
Q 2388 397 2633 464 
Q 2878 531 3122 666 
L 3122 134 
Q 2881 22 2623 -34 
Q 2366 -91 2075 -91 
Q 1284 -91 818 406 
Q 353 903 353 1747 
Q 353 2603 823 3093 
Q 1294 3584 2113 3584 
Q 2378 3584 2631 3529 
Q 2884 3475 3122 3366 
z
" transform="scale(0.015625)"/>
     </defs>
     <use xlink:href="#DejaVuSans-54"/>
     <use xlink:href="#DejaVuSans-41" transform="translate(53.333984 0)"/>
     <use xlink:href="#DejaVuSans-52" transform="translate(121.742188 0)"/>
     <use xlink:href="#DejaVuSans-44" transform="translate(191.224609 0)"/>
     <use xlink:href="#DejaVuSans-49" transform="translate(268.226562 0)"/>
     <use xlink:href="#DejaVuSans-53" transform="translate(297.71875 0)"/>
     <use xlink:href="#DejaVuSans-20" transform="translate(361.195312 0)"/>
     <use xlink:href="#DejaVuSans-65" transform="translate(392.982422 0)"/>
     <use xlink:href="#DejaVuSans-78" transform="translate(452.755859 0)"/>
     <use xlink:href="#DejaVuSans-61" transform="translate(511.935547 0)"/>
     <use xlink:href="#DejaVuSans-6d" transform="translate(573.214844 0)"/>
     <use xlink:href="#DejaVuSans-70" transform="translate(670.626953 0)"/>
     <use xlink:href="#DejaVuSans-6c" transform="translate(734.103516 0)"/>
     <use xlink:href="#DejaVuSans-65" transform="translate(761.886719 0)"/>
     <use xlink:href="#DejaVuSans-20" transform="translate(823.410156 0)"/>
     <use xlink:href="#DejaVuSans-6d" transform="translate(855.197266 0)"/>
     <use xlink:href="#DejaVuSans-6f" transform="translate(952.609375 0)"/>
     <use xlink:href="#DejaVuSans-64" transform="translate(1013.791016 0)"/>
     <use xlink:href="#DejaVuSans-65" transform="translate(1077.267578 0)"/>
     <use xlink:href="#DejaVuSans-6c" transform="translate(1138.791016 0)"/>
     <use xlink:href="#DejaVuSans-20" transform="translate(1166.574219 0)"/>
     <use xlink:href="#DejaVuSans-73" transform="translate(1198.361328 0)"/>
     <use xlink:href="#DejaVuSans-70" transform="translate(1250.460938 0)"/>
     <use xlink:href="#DejaVuSans-65" transform="translate(1313.9375 0)"/>
     <use xlink:href="#DejaVuSans-63" transform="translate(1375.460938 0)"/>
     <use xlink:href="#DejaVuSans-74" transform="translate(1430.441406 0)"/>
     <use xlink:href="#DejaVuSans-72" transform="translate(1469.650391 0)"/>
     <use xlink:href="#DejaVuSans-75" transform="translate(1510.763672 0)"/>
     <use xlink:href="#DejaVuSans-6d" transform="translate(1574.142578 0)"/>
    </g>
   </g>
   <g id="legend_1">
    <g id="patch_7">
     <path d="M 479.939062 44.99625 
L 587.7625 44.99625 
Q 589.7625 44.99625 589.7625 42.99625 
L 589.7625 29.318125 
Q 589.7625 27.318125 587.7625 27.318125 
L 479.939062 27.318125 
Q 477.939062 27.318125 477.939062 29.318125 
L 477.939062 42.99625 
Q 477.939062 44.99625 479.939062 44.99625 
z
" style="fill: #ffffff; opacity: 0.8; stroke: #cccccc; stroke-linejoin: miter"/>
    </g>
    <g id="line2d_16">
     <path d="M 481.939062 35.416563 
L 491.939062 35.416563 
L 501.939062 35.416563 
" style="fill: none; stroke: #1f77b4; stroke-width: 1.5; stroke-linecap: square"/>
    </g>
    <g id="text_19">
     <!-- Formal integral -->
     <g transform="translate(509.939062 38.916563) scale(0.1 -0.1)">
      <defs>
       <path id="DejaVuSans-46" d="M 628 4666 
L 3309 4666 
L 3309 4134 
L 1259 4134 
L 1259 2759 
L 3109 2759 
L 3109 2228 
L 1259 2228 
L 1259 0 
L 628 0 
L 628 4666 
z
" transform="scale(0.015625)"/>
      </defs>
      <use xlink:href="#DejaVuSans-46"/>
      <use xlink:href="#DejaVuSans-6f" transform="translate(53.894531 0)"/>
      <use xlink:href="#DejaVuSans-72" transform="translate(115.076172 0)"/>
      <use xlink:href="#DejaVuSans-6d" transform="translate(154.439453 0)"/>
      <use xlink:href="#DejaVuSans-61" transform="translate(251.851562 0)"/>
      <use xlink:href="#DejaVuSans-6c" transform="translate(313.130859 0)"/>
      <use xlink:href="#DejaVuSans-20" transform="translate(340.914062 0)"/>
      <use xlink:href="#DejaVuSans-69" transform="translate(372.701172 0)"/>
      <use xlink:href="#DejaVuSans-6e" transform="translate(400.484375 0)"/>
      <use xlink:href="#DejaVuSans-74" transform="translate(463.863281 0)"/>
      <use xlink:href="#DejaVuSans-65" transform="translate(503.072266 0)"/>
      <use xlink:href="#DejaVuSans-67" transform="translate(564.595703 0)"/>
      <use xlink:href="#DejaVuSans-72" transform="translate(628.072266 0)"/>
      <use xlink:href="#DejaVuSans-61" transform="translate(669.185547 0)"/>
      <use xlink:href="#DejaVuSans-6c" transform="translate(730.464844 0)"/>
     </g>
    </g>
   </g>
  </g>
 </g>
 <defs>
  <clipPath id="pa06fe0f7aa">
   <rect x="36.7625" y="22.318125" width="558" height="360.36"/>
  </clipPath>
 </defs>
</svg>
