<?xml version="1.0" encoding="utf-8" standalone="no"?>
<!DOCTYPE svg PUBLIC "-//W3C//DTD SVG 1.1//EN"
  "http://www.w3.org/Graphics/SVG/1.1/DTD/svg11.dtd">
<svg xmlns:xlink="http://www.w3.org/1999/xlink" width="475.2pt" height="360pt" viewBox="0 0 475.2 360" xmlns="http://www.w3.org/2000/svg" version="1.1">
 <metadata>
  <rdf:RDF xmlns:dc="http://purl.org/dc/elements/1.1/" xmlns:cc="http://creativecommons.org/ns#" xmlns:rdf="http://www.w3.org/1999/02/22-rdf-syntax-ns#">
   <cc:Work>
    <dc:type rdf:resource="http://purl.org/dc/dcmitype/StillImage"/>
    <dc:date>2026-07-22T21:28:13.015536</dc:date>
    <dc:format>image/svg+xml</dc:format>
    <dc:creator>
     <cc:Agent>
      <dc:title>Matplotlib v3.10.9, https://matplotlib.org/</dc:title>
     </cc:Agent>
    </dc:creator>
   </cc:Work>
  </rdf:RDF>
 </metadata>
 <defs>
  <style type="text/css">*{stroke-linejoin: round; stroke-linecap: butt}</style>
 </defs>
 <g id="figure_1">
  <g id="patch_1">
   <path d="M 0 360 
L 475.2 360 
L 475.2 0 
L 0 0 
z
" style="fill: #ffffff"/>
  </g>
  <g id="axes_1">
   <g id="patch_2">
    <path d="M 97.063086 53.291329 
Q 73.186219 147.773266 49.583282 241.171248 
" clip-path="url(#p3b3e5250e8)" style="fill: none; stroke: #000000; stroke-linecap: round"/>
    <path d="M 52.502366 237.783188 
L 49.583282 241.171248 
L 48.624285 236.803145 
z
" clip-path="url(#p3b3e5250e8)" style="stroke: #000000; stroke-linecap: round"/>
   </g>
   <g id="patch_3">
    <path d="M 107.691404 46.539761 
Q 259.649408 75.964579 410.509766 105.176852 
" clip-path="url(#p3b3e5250e8)" style="fill: none; stroke: #000000; stroke-linecap: round"/>
    <path d="M 406.962925 102.452899 
L 410.509766 105.176852 
L 406.202499 106.379953 
z
" clip-path="url(#p3b3e5250e8)" style="stroke: #000000; stroke-linecap: round"/>
   </g>
   <g id="patch_4">
    <path d="M 193.398765 188.300443 
Q 202.160079 148.265776 210.682376 109.323295 
" clip-path="url(#p3b3e5250e8)" style="fill: none; stroke: #000000; stroke-linecap: round"/>
    <path d="M 207.873479 112.803252 
L 210.682376 109.323295 
L 211.781003 113.658387 
z
" clip-path="url(#p3b3e5250e8)" style="stroke: #000000; stroke-linecap: round"/>
   </g>
   <g id="patch_5">
    <path d="M 200.109061 198.058226 
Q 309.77855 214.650007 418.342584 231.074544 
" clip-path="url(#p3b3e5250e8)" style="fill: none; stroke: #000000; stroke-linecap: round"/>
    <path d="M 414.686763 228.498699 
L 418.342584 231.074544 
L 414.088416 232.453694 
z
" clip-path="url(#p3b3e5250e8)" style="stroke: #000000; stroke-linecap: round"/>
   </g>
   <g id="patch_6">
    <path d="M 116.833618 294.018109 
Q 124.302824 221.660621 131.657229 150.415256 
" clip-path="url(#p3b3e5250e8)" style="fill: none; stroke: #000000; stroke-linecap: round"/>
    <path d="M 129.257077 154.188752 
L 131.657229 150.415256 
L 133.235935 154.599475 
z
" clip-path="url(#p3b3e5250e8)" style="stroke: #000000; stroke-linecap: round"/>
   </g>
   <g id="patch_7">
    <path d="M 148.88601 164.51886 
Q 229.718181 141.183721 309.476183 118.158679 
" clip-path="url(#p3b3e5250e8)" style="fill: none; stroke: #000000; stroke-linecap: round"/>
    <path d="M 305.078399 117.346587 
L 309.476183 118.158679 
L 306.187839 121.189651 
z
" clip-path="url(#p3b3e5250e8)" style="stroke: #000000; stroke-linecap: round"/>
   </g>
   <g id="patch_8">
    <path d="M 148.89796 169.259598 
Q 263.529943 201.417021 377.085447 233.272462 
" clip-path="url(#p3b3e5250e8)" style="fill: none; stroke: #000000; stroke-linecap: round"/>
    <path d="M 373.77432 230.266395 
L 377.085447 233.272462 
L 372.693917 234.117723 
z
" clip-path="url(#p3b3e5250e8)" style="stroke: #000000; stroke-linecap: round"/>
   </g>
   <g id="patch_9">
    <path d="M 149.196951 166.247026 
Q 282.656834 155.820828 415.002079 145.481708 
" clip-path="url(#p3b3e5250e8)" style="fill: none; stroke: #000000; stroke-linecap: round"/>
    <path d="M 410.85846 143.799324 
L 415.002079 145.481708 
L 411.17 147.787173 
z
" clip-path="url(#p3b3e5250e8)" style="stroke: #000000; stroke-linecap: round"/>
   </g>
   <g id="patch_10">
    <path d="M 142.162541 175.431806 
Q 150.358227 219.045594 158.347431 261.56058 
" clip-path="url(#p3b3e5250e8)" style="fill: none; stroke: #000000; stroke-linecap: round"/>
    <path d="M 159.574297 257.260022 
L 158.347431 261.56058 
L 155.643104 257.998752 
z
" clip-path="url(#p3b3e5250e8)" style="stroke: #000000; stroke-linecap: round"/>
   </g>
   <g id="patch_11">
    <path d="M 149.224656 167.049898 
Q 278.673599 168.968824 407.004631 170.871177 
" clip-path="url(#p3b3e5250e8)" style="fill: none; stroke: #000000; stroke-linecap: round"/>
    <path d="M 403.034715 168.812108 
L 407.004631 170.871177 
L 402.975426 172.811669 
z
" clip-path="url(#p3b3e5250e8)" style="stroke: #000000; stroke-linecap: round"/>
   </g>
   <g id="patch_12">
    <path d="M 220.415351 296.656894 
Q 194.273205 285.600629 169.160786 274.979864 
" clip-path="url(#p3b3e5250e8)" style="fill: none; stroke: #000000; stroke-linecap: round"/>
    <path d="M 172.065802 278.379994 
L 169.160786 274.979864 
L 173.623899 274.695929 
z
" clip-path="url(#p3b3e5250e8)" style="stroke: #000000; stroke-linecap: round"/>
   </g>
   <g id="patch_13">
    <path d="M 98.55785 211.564478 
Q 134.530949 128.351099 170.060403 46.163964 
" clip-path="url(#p3b3e5250e8)" style="fill: none; stroke: #000000; stroke-linecap: round"/>
    <path d="M 166.637367 49.041954 
L 170.060403 46.163964 
L 170.308973 50.629187 
z
" clip-path="url(#p3b3e5250e8)" style="stroke: #000000; stroke-linecap: round"/>
   </g>
   <g id="patch_14">
    <path d="M 52.855627 244.105793 
Q 70.51062 223.7111 87.433862 204.161711 
" clip-path="url(#p3b3e5250e8)" style="fill: none; stroke: #000000; stroke-linecap: round"/>
    <path d="M 83.303741 205.876968 
L 87.433862 204.161711 
L 86.327995 208.494961 
z
" clip-path="url(#p3b3e5250e8)" style="stroke: #000000; stroke-linecap: round"/>
   </g>
   <g id="patch_15">
    <path d="M 51.610058 243.205105 
Q 110.563941 143.921117 168.946994 45.598458 
" clip-path="url(#p3b3e5250e8)" style="fill: none; stroke: #000000; stroke-linecap: round"/>
    <path d="M 165.185058 48.016687 
L 168.946994 45.598458 
L 168.624415 50.058945 
z
" clip-path="url(#p3b3e5250e8)" style="stroke: #000000; stroke-linecap: round"/>
   </g>
   <g id="patch_16">
    <path d="M 101.915236 193.660363 
Q 240.343935 140.446165 377.729052 87.633137 
" clip-path="url(#p3b3e5250e8)" style="fill: none; stroke: #000000; stroke-linecap: round"/>
    <path d="M 373.277787 87.201589 
L 377.729052 87.633137 
L 374.713054 90.93522 
z
" clip-path="url(#p3b3e5250e8)" style="stroke: #000000; stroke-linecap: round"/>
   </g>
   <g id="patch_17">
    <path d="M 102.368015 195.258472 
Q 228.314096 173.002509 353.159201 150.9411 
" clip-path="url(#p3b3e5250e8)" style="fill: none; stroke: #000000; stroke-linecap: round"/>
    <path d="M 348.8722 149.667671 
L 353.159201 150.9411 
L 349.568257 153.606643 
z
" clip-path="url(#p3b3e5250e8)" style="stroke: #000000; stroke-linecap: round"/>
   </g>
   <g id="patch_18">
    <path d="M 101.715444 200.368316 
Q 217.790624 253.432255 332.848984 306.031353 
" clip-path="url(#p3b3e5250e8)" style="fill: none; stroke: #000000; stroke-linecap: round"/>
    <path d="M 330.04263 302.549345 
L 332.848984 306.031353 
L 328.379565 306.187231 
z
" clip-path="url(#p3b3e5250e8)" style="stroke: #000000; stroke-linecap: round"/>
   </g>
   <g id="patch_19">
    <path d="M 325.42079 121.105233 
Q 366.686321 156.738058 407.105642 191.640179 
" clip-path="url(#p3b3e5250e8)" style="fill: none; stroke: #000000; stroke-linecap: round"/>
    <path d="M 405.385269 187.512187 
L 407.105642 191.640179 
L 402.771024 190.539682 
z
" clip-path="url(#p3b3e5250e8)" style="stroke: #000000; stroke-linecap: round"/>
   </g>
   <g id="patch_20">
    <path d="M 322.403617 123.353031 
Q 358.526563 204.13509 394.193116 283.896509 
" clip-path="url(#p3b3e5250e8)" style="fill: none; stroke: #000000; stroke-linecap: round"/>
    <path d="M 394.386043 279.428536 
L 394.193116 283.896509 
L 390.734494 281.061383 
z
" clip-path="url(#p3b3e5250e8)" style="stroke: #000000; stroke-linecap: round"/>
   </g>
   <g id="patch_21">
    <path d="M 320.349535 106.912013 
Q 325.326187 78.232732 330.111685 50.655022 
" clip-path="url(#p3b3e5250e8)" style="fill: none; stroke: #000000; stroke-linecap: round"/>
    <path d="M 327.457243 54.254179 
L 330.111685 50.655022 
L 331.398346 54.93807 
z
" clip-path="url(#p3b3e5250e8)" style="stroke: #000000; stroke-linecap: round"/>
   </g>
   <g id="patch_22">
    <path d="M 325.734142 120.729274 
Q 340.830668 132.343508 355.041058 143.276009 
" clip-path="url(#p3b3e5250e8)" style="fill: none; stroke: #000000; stroke-linecap: round"/>
    <path d="M 353.090238 139.251794 
L 355.041058 143.276009 
L 350.651194 142.422136 
z
" clip-path="url(#p3b3e5250e8)" style="stroke: #000000; stroke-linecap: round"/>
   </g>
   <g id="patch_23">
    <path d="M 315.621953 107.41941 
Q 306.02697 83.69304 296.851144 61.003157 
" clip-path="url(#p3b3e5250e8)" style="fill: none; stroke: #000000; stroke-linecap: round"/>
    <path d="M 296.496641 65.46122 
L 296.851144 61.003157 
L 300.204893 63.961597 
z
" clip-path="url(#p3b3e5250e8)" style="stroke: #000000; stroke-linecap: round"/>
   </g>
   <g id="patch_24">
    <path d="M 391.644422 228.950847 
Q 400.501003 216.972769 408.692879 205.893671 
" clip-path="url(#p3b3e5250e8)" style="fill: none; stroke: #000000; stroke-linecap: round"/>
    <path d="M 404.70661 207.920901 
L 408.692879 205.893671 
L 407.922901 210.299024 
z
" clip-path="url(#p3b3e5250e8)" style="stroke: #000000; stroke-linecap: round"/>
   </g>
   <g id="patch_25">
    <path d="M 388.239596 244.398357 
Q 392.34067 264.367588 396.216828 283.241642 
" clip-path="url(#p3b3e5250e8)" style="fill: none; stroke: #000000; stroke-linecap: round"/>
    <path d="M 397.371255 278.921076 
L 396.216828 283.241642 
L 393.453031 279.72576 
z
" clip-path="url(#p3b3e5250e8)" style="stroke: #000000; stroke-linecap: round"/>
   </g>
   <g id="patch_26">
    <path d="M 378.390227 232.871495 
Q 259.580863 188.301306 141.818298 144.123813 
" clip-path="url(#p3b3e5250e8)" style="fill: none; stroke: #000000; stroke-linecap: round"/>
    <path d="M 144.860964 147.40134 
L 141.818298 144.123813 
L 146.265919 143.656196 
z
" clip-path="url(#p3b3e5250e8)" style="stroke: #000000; stroke-linecap: round"/>
   </g>
   <g id="patch_27">
    <path d="M 384.15675 227.577162 
Q 359.140225 138.469325 334.425899 50.437905 
" clip-path="url(#p3b3e5250e8)" style="fill: none; stroke: #000000; stroke-linecap: round"/>
    <path d="M 333.581521 54.829605 
L 334.425899 50.437905 
L 337.432632 53.748427 
z
" clip-path="url(#p3b3e5250e8)" style="stroke: #000000; stroke-linecap: round"/>
   </g>
   <g id="patch_28">
    <path d="M 304.951334 314.387335 
Q 319.047231 312.743898 332.032615 311.229934 
" clip-path="url(#p3b3e5250e8)" style="fill: none; stroke: #000000; stroke-linecap: round"/>
    <path d="M 327.827917 309.706612 
L 332.032615 311.229934 
L 328.291138 313.6797 
z
" clip-path="url(#p3b3e5250e8)" style="stroke: #000000; stroke-linecap: round"/>
   </g>
   <g id="patch_29">
    <path d="M 296.244186 306.727339 
Q 294.766592 183.661546 293.30242 61.713707 
" clip-path="url(#p3b3e5250e8)" style="fill: none; stroke: #000000; stroke-linecap: round"/>
    <path d="M 291.350587 65.73743 
L 293.30242 61.713707 
L 295.350298 65.689408 
z
" clip-path="url(#p3b3e5250e8)" style="stroke: #000000; stroke-linecap: round"/>
   </g>
   <g id="patch_30">
    <path d="M 303.681228 310.775922 
Q 362.183818 273.962034 419.740137 237.743604 
" clip-path="url(#p3b3e5250e8)" style="fill: none; stroke: #000000; stroke-linecap: round"/>
    <path d="M 415.289466 238.181243 
L 419.740137 237.743604 
L 417.419846 241.566724 
z
" clip-path="url(#p3b3e5250e8)" style="stroke: #000000; stroke-linecap: round"/>
   </g>
   <g id="patch_31">
    <path d="M 385.159876 92.617474 
Q 364.299543 197.111583 343.658085 300.509291 
" clip-path="url(#p3b3e5250e8)" style="fill: none; stroke: #000000; stroke-linecap: round"/>
    <path d="M 346.402461 296.978228 
L 343.658085 300.509291 
L 342.479861 296.195153 
z
" clip-path="url(#p3b3e5250e8)" style="stroke: #000000; stroke-linecap: round"/>
   </g>
   <g id="patch_32">
    <path d="M 420.864216 152.459726 
Q 383.245986 227.409681 346.129283 301.360401 
" clip-path="url(#p3b3e5250e8)" style="fill: none; stroke: #000000; stroke-linecap: round"/>
    <path d="M 349.711087 298.682589 
L 346.129283 301.360401 
L 346.136115 296.88827 
z
" clip-path="url(#p3b3e5250e8)" style="stroke: #000000; stroke-linecap: round"/>
   </g>
   <g id="patch_33">
    <path d="M 410.468619 190.366947 
Q 373.144679 119.527198 336.341894 49.676587 
" clip-path="url(#p3b3e5250e8)" style="fill: none; stroke: #000000; stroke-linecap: round"/>
    <path d="M 336.437013 54.147712 
L 336.341894 49.676587 
L 339.975865 52.283167 
z
" clip-path="url(#p3b3e5250e8)" style="stroke: #000000; stroke-linecap: round"/>
   </g>
   <g id="patch_34">
    <path d="M 395.976614 284.450209 
Q 364.984193 166.925012 334.27686 50.48089 
" clip-path="url(#p3b3e5250e8)" style="fill: none; stroke: #000000; stroke-linecap: round"/>
    <path d="M 333.362939 54.858646 
L 334.27686 50.48089 
L 337.230712 53.83868 
z
" clip-path="url(#p3b3e5250e8)" style="stroke: #000000; stroke-linecap: round"/>
   </g>
   <g id="patch_35">
    <path d="M 135.694272 148.800399 
Q 166.709043 231.749379 197.332253 313.651134 
" clip-path="url(#p3b3e5250e8)" style="fill: none; stroke: #000000; stroke-linecap: round"/>
    <path d="M 197.804702 309.204023 
L 197.332253 313.651134 
L 194.058034 310.604909 
z
" clip-path="url(#p3b3e5250e8)" style="stroke: #000000; stroke-linecap: round"/>
   </g>
   <g id="patch_36">
    <path d="M 134.447479 149.166289 
Q 146.407234 205.929362 158.136484 261.598422 
" clip-path="url(#p3b3e5250e8)" style="fill: none; stroke: #000000; stroke-linecap: round"/>
    <path d="M 159.268839 257.272017 
L 158.136484 261.598422 
L 155.354774 258.096695 
z
" clip-path="url(#p3b3e5250e8)" style="stroke: #000000; stroke-linecap: round"/>
   </g>
   <g id="patch_37">
    <path d="M 324.03819 44.900289 
Q 232.22335 90.855635 141.408301 136.310564 
" clip-path="url(#p3b3e5250e8)" style="fill: none; stroke: #000000; stroke-linecap: round"/>
    <path d="M 145.880437 136.308696 
L 141.408301 136.310564 
L 144.090089 132.731735 
z
" clip-path="url(#p3b3e5250e8)" style="stroke: #000000; stroke-linecap: round"/>
   </g>
   <g id="patch_38">
    <path d="M 326.60547 47.966604 
Q 245.968744 156.096228 166.000393 263.329596 
" clip-path="url(#p3b3e5250e8)" style="fill: none; stroke: #000000; stroke-linecap: round"/>
    <path d="M 169.994916 261.318679 
L 166.000393 263.329596 
L 166.788373 258.927428 
z
" clip-path="url(#p3b3e5250e8)" style="stroke: #000000; stroke-linecap: round"/>
   </g>
   <g id="patch_39">
    <path d="M 221.342997 101.03842 
Q 265.821417 107.609861 309.193808 114.017893 
" clip-path="url(#p3b3e5250e8)" style="fill: none; stroke: #000000; stroke-linecap: round"/>
    <path d="M 305.529079 111.454739 
L 309.193808 114.017893 
L 304.944448 115.411784 
z
" clip-path="url(#p3b3e5250e8)" style="stroke: #000000; stroke-linecap: round"/>
   </g>
   <g id="patch_40">
    <path d="M 219.587836 105.113023 
Q 299.633429 167.84139 378.799013 229.88013 
" clip-path="url(#p3b3e5250e8)" style="fill: none; stroke: #000000; stroke-linecap: round"/>
    <path d="M 376.884237 225.838641 
L 378.799013 229.88013 
L 374.416956 228.987057 
z
" clip-path="url(#p3b3e5250e8)" style="stroke: #000000; stroke-linecap: round"/>
   </g>
   <g id="patch_41">
    <path d="M 221.243725 101.568437 
Q 318.759129 122.245909 415.180817 142.691466 
" clip-path="url(#p3b3e5250e8)" style="fill: none; stroke: #000000; stroke-linecap: round"/>
    <path d="M 411.682681 139.905242 
L 415.180817 142.691466 
L 410.852956 143.818241 
z
" clip-path="url(#p3b3e5250e8)" style="stroke: #000000; stroke-linecap: round"/>
   </g>
   <g id="patch_42">
    <path d="M 220.950245 102.627988 
Q 314.776703 135.393992 407.547638 167.791388 
" clip-path="url(#p3b3e5250e8)" style="fill: none; stroke: #000000; stroke-linecap: round"/>
    <path d="M 404.430673 164.584438 
L 407.547638 167.791388 
L 403.111899 168.36079 
z
" clip-path="url(#p3b3e5250e8)" style="stroke: #000000; stroke-linecap: round"/>
   </g>
   <g id="patch_43">
    <path d="M 361.391219 157.784008 
Q 353.390843 206.594365 345.571308 254.301409 
" clip-path="url(#p3b3e5250e8)" style="fill: none; stroke: #000000; stroke-linecap: round"/>
    <path d="M 348.191968 250.67758 
L 345.571308 254.301409 
L 344.24464 250.030584 
z
" clip-path="url(#p3b3e5250e8)" style="stroke: #000000; stroke-linecap: round"/>
   </g>
   <g id="patch_44">
    <path d="M 348.186226 304.305777 
Q 384.880383 271.316028 420.743118 239.073766 
" clip-path="url(#p3b3e5250e8)" style="fill: none; stroke: #000000; stroke-linecap: round"/>
    <path d="M 416.431386 240.260764 
L 420.743118 239.073766 
L 419.105677 243.23535 
z
" clip-path="url(#p3b3e5250e8)" style="stroke: #000000; stroke-linecap: round"/>
   </g>
   <g id="patch_45">
    <path d="M 338.107572 270.300043 
Q 320.170463 289.667914 302.993045 308.215497 
" clip-path="url(#p3b3e5250e8)" style="fill: none; stroke: #000000; stroke-linecap: round"/>
    <path d="M 307.178369 306.639724 
L 302.993045 308.215497 
L 304.243621 303.921774 
z
" clip-path="url(#p3b3e5250e8)" style="stroke: #000000; stroke-linecap: round"/>
   </g>
   <g id="patch_46">
    <path d="M 341.972208 255.527504 
Q 318.587705 157.943491 295.463745 61.446731 
" clip-path="url(#p3b3e5250e8)" style="fill: none; stroke: #000000; stroke-linecap: round"/>
    <path d="M 294.450957 65.802676 
L 295.463745 61.446731 
L 298.340828 64.870528 
z
" clip-path="url(#p3b3e5250e8)" style="stroke: #000000; stroke-linecap: round"/>
   </g>
   <g id="patch_47">
    <path d="M 195.406217 316.005114 
Q 180.455333 296.990551 166.195506 278.854875 
" clip-path="url(#p3b3e5250e8)" style="fill: none; stroke: #000000; stroke-linecap: round"/>
    <path d="M 167.095703 283.235474 
L 166.195506 278.854875 
L 170.240103 280.763076 
z
" clip-path="url(#p3b3e5250e8)" style="stroke: #000000; stroke-linecap: round"/>
   </g>
   <g id="patch_48">
    <path d="M 285.604156 56.129013 
Q 212.921514 96.314063 141.217317 135.958146 
" clip-path="url(#p3b3e5250e8)" style="fill: none; stroke: #000000; stroke-linecap: round"/>
    <path d="M 145.68562 135.773022 
L 141.217317 135.958146 
L 143.750199 132.272429 
z
" clip-path="url(#p3b3e5250e8)" style="stroke: #000000; stroke-linecap: round"/>
   </g>
   <g id="patch_49">
    <path d="M 301.519969 49.580911 
Q 312.48624 46.48013 322.376657 43.683553 
" clip-path="url(#p3b3e5250e8)" style="fill: none; stroke: #000000; stroke-linecap: round"/>
    <path d="M 317.983391 42.847362 
L 322.376657 43.683553 
L 319.071745 46.696451 
z
" clip-path="url(#p3b3e5250e8)" style="stroke: #000000; stroke-linecap: round"/>
   </g>
   <g id="patch_50">
    <path d="M 422.830847 225.595904 
Q 360.598448 142.236716 299.034893 59.773433 
" clip-path="url(#p3b3e5250e8)" style="fill: none; stroke: #000000; stroke-linecap: round"/>
    <path d="M 299.82518 64.175188 
L 299.034893 59.773433 
L 303.03047 61.782257 
z
" clip-path="url(#p3b3e5250e8)" style="stroke: #000000; stroke-linecap: round"/>
   </g>
   <g id="PathCollection_1">
    <defs>
     <path id="ma1c608c15f" d="M 0 8.660254 
C 2.296726 8.660254 4.499694 7.747755 6.123724 6.123724 
C 7.747755 4.499694 8.660254 2.296726 8.660254 0 
C 8.660254 -2.296726 7.747755 -4.499694 6.123724 -6.123724 
C 4.499694 -7.747755 2.296726 -8.660254 0 -8.660254 
C -2.296726 -8.660254 -4.499694 -7.747755 -6.123724 -6.123724 
C -7.747755 -4.499694 -8.660254 -2.296726 -8.660254 0 
C -8.660254 2.296726 -7.747755 4.499694 -6.123724 6.123724 
C -4.499694 7.747755 -2.296726 8.660254 0 8.660254 
z
" style="stroke: #1f78b4"/>
    </defs>
    <g clip-path="url(#p3b3e5250e8)">
     <use xlink:href="#ma1c608c15f" x="99.185533" y="44.892702" style="fill: #1f78b4; stroke: #1f78b4"/>
     <use xlink:href="#ma1c608c15f" x="191.546824" y="196.762855" style="fill: #1f78b4; stroke: #1f78b4"/>
     <use xlink:href="#ma1c608c15f" x="115.944413" y="302.632235" style="fill: #1f78b4; stroke: #1f78b4"/>
     <use xlink:href="#ma1c608c15f" x="140.563328" y="166.921504" style="fill: #1f78b4; stroke: #1f78b4"/>
     <use xlink:href="#ma1c608c15f" x="228.391156" y="300.030092" style="fill: #1f78b4; stroke: #1f78b4"/>
     <use xlink:href="#ma1c608c15f" x="95.121831" y="219.512717" style="fill: #1f78b4; stroke: #1f78b4"/>
     <use xlink:href="#ma1c608c15f" x="238.792741" y="47.802887" style="fill: #1f78b4; stroke: #1f78b4"/>
     <use xlink:href="#ma1c608c15f" x="73.81453" y="119.817642" style="fill: #1f78b4; stroke: #1f78b4"/>
     <use xlink:href="#ma1c608c15f" x="47.186777" y="250.654335" style="fill: #1f78b4; stroke: #1f78b4"/>
     <use xlink:href="#ma1c608c15f" x="420.107124" y="107.035264" style="fill: #1f78b4; stroke: #1f78b4"/>
     <use xlink:href="#ma1c608c15f" x="93.835921" y="196.76618" style="fill: #1f78b4; stroke: #1f78b4"/>
     <use xlink:href="#ma1c608c15f" x="318.868431" y="115.447266" style="fill: #1f78b4; stroke: #1f78b4"/>
     <use xlink:href="#ma1c608c15f" x="386.496885" y="235.91263" style="fill: #1f78b4; stroke: #1f78b4"/>
     <use xlink:href="#ma1c608c15f" x="296.348199" y="315.390373" style="fill: #1f78b4; stroke: #1f78b4"/>
     <use xlink:href="#ma1c608c15f" x="386.855268" y="84.124874" style="fill: #1f78b4; stroke: #1f78b4"/>
     <use xlink:href="#ma1c608c15f" x="424.748733" y="144.720277" style="fill: #1f78b4; stroke: #1f78b4"/>
     <use xlink:href="#ma1c608c15f" x="414.506597" y="198.030911" style="fill: #1f78b4; stroke: #1f78b4"/>
     <use xlink:href="#ma1c608c15f" x="398.184389" y="292.822228" style="fill: #1f78b4; stroke: #1f78b4"/>
     <use xlink:href="#ma1c608c15f" x="132.661273" y="140.688644" style="fill: #1f78b4; stroke: #1f78b4"/>
     <use xlink:href="#ma1c608c15f" x="331.782959" y="41.023862" style="fill: #1f78b4; stroke: #1f78b4"/>
     <use xlink:href="#ma1c608c15f" x="212.772571" y="99.772186" style="fill: #1f78b4; stroke: #1f78b4"/>
     <use xlink:href="#ma1c608c15f" x="173.939807" y="37.190083" style="fill: #1f78b4; stroke: #1f78b4"/>
     <use xlink:href="#ma1c608c15f" x="362.791823" y="149.238917" style="fill: #1f78b4; stroke: #1f78b4"/>
     <use xlink:href="#ma1c608c15f" x="341.743937" y="310.097694" style="fill: #1f78b4; stroke: #1f78b4"/>
     <use xlink:href="#ma1c608c15f" x="343.990116" y="263.948275" style="fill: #1f78b4; stroke: #1f78b4"/>
     <use xlink:href="#ma1c608c15f" x="200.756739" y="322.809917" style="fill: #1f78b4; stroke: #1f78b4"/>
     <use xlink:href="#ma1c608c15f" x="160.153244" y="271.170316" style="fill: #1f78b4; stroke: #1f78b4"/>
     <use xlink:href="#ma1c608c15f" x="416.781731" y="171.016111" style="fill: #1f78b4; stroke: #1f78b4"/>
     <use xlink:href="#ma1c608c15f" x="293.185043" y="51.937664" style="fill: #1f78b4; stroke: #1f78b4"/>
     <use xlink:href="#ma1c608c15f" x="428.013223" y="232.537604" style="fill: #1f78b4; stroke: #1f78b4"/>
    </g>
   </g>
   <g id="text_1">
    <g clip-path="url(#p3b3e5250e8)">
     <!-- DilutePlanckianRadField -->
     <g transform="translate(27.330845 48.203952) scale(0.12 -0.12)">
      <defs>
       <path id="DejaVuSans-44" d="M 1259 4147 
L 1259 519 
L 2022 519 
Q 2988 519 3436 956 
Q 3884 1394 3884 2338 
Q 3884 3275 3436 3711 
Q 2988 4147 2022 4147 
L 1259 4147 
z
M 628 4666 
L 1925 4666 
Q 3281 4666 3915 4102 
Q 4550 3538 4550 2338 
Q 4550 1131 3912 565 
Q 3275 0 1925 0 
L 628 0 
L 628 4666 
z
" transform="scale(0.015625)"/>
       <path id="DejaVuSans-69" d="M 603 3500 
L 1178 3500 
L 1178 0 
L 603 0 
L 603 3500 
z
M 603 4863 
L 1178 4863 
L 1178 4134 
L 603 4134 
L 603 4863 
z
" transform="scale(0.015625)"/>
       <path id="DejaVuSans-6c" d="M 603 4863 
L 1178 4863 
L 1178 0 
L 603 0 
L 603 4863 
z
" transform="scale(0.015625)"/>
       <path id="DejaVuSans-75" d="M 544 1381 
L 544 3500 
L 1119 3500 
L 1119 1403 
Q 1119 906 1312 657 
Q 1506 409 1894 409 
Q 2359 409 2629 706 
Q 2900 1003 2900 1516 
L 2900 3500 
L 3475 3500 
L 3475 0 
L 2900 0 
L 2900 538 
Q 2691 219 2414 64 
Q 2138 -91 1772 -91 
Q 1169 -91 856 284 
Q 544 659 544 1381 
z
M 1991 3584 
L 1991 3584 
z
" transform="scale(0.015625)"/>
       <path id="DejaVuSans-74" d="M 1172 4494 
L 1172 3500 
L 2356 3500 
L 2356 3053 
L 1172 3053 
L 1172 1153 
Q 1172 725 1289 603 
Q 1406 481 1766 481 
L 2356 481 
L 2356 0 
L 1766 0 
Q 1100 0 847 248 
Q 594 497 594 1153 
L 594 3053 
L 172 3053 
L 172 3500 
L 594 3500 
L 594 4494 
L 1172 4494 
z
" transform="scale(0.015625)"/>
       <path id="DejaVuSans-65" d="M 3597 1894 
L 3597 1613 
L 953 1613 
Q 991 1019 1311 708 
Q 1631 397 2203 397 
Q 2534 397 2845 478 
Q 3156 559 3463 722 
L 3463 178 
Q 3153 47 2828 -22 
Q 2503 -91 2169 -91 
Q 1331 -91 842 396 
Q 353 884 353 1716 
Q 353 2575 817 3079 
Q 1281 3584 2069 3584 
Q 2775 3584 3186 3129 
Q 3597 2675 3597 1894 
z
M 3022 2063 
Q 3016 2534 2758 2815 
Q 2500 3097 2075 3097 
Q 1594 3097 1305 2825 
Q 1016 2553 972 2059 
L 3022 2063 
z
" transform="scale(0.015625)"/>
       <path id="DejaVuSans-50" d="M 1259 4147 
L 1259 2394 
L 2053 2394 
Q 2494 2394 2734 2622 
Q 2975 2850 2975 3272 
Q 2975 3691 2734 3919 
Q 2494 4147 2053 4147 
L 1259 4147 
z
M 628 4666 
L 2053 4666 
Q 2838 4666 3239 4311 
Q 3641 3956 3641 3272 
Q 3641 2581 3239 2228 
Q 2838 1875 2053 1875 
L 1259 1875 
L 1259 0 
L 628 0 
L 628 4666 
z
" transform="scale(0.015625)"/>
       <path id="DejaVuSans-61" d="M 2194 1759 
Q 1497 1759 1228 1600 
Q 959 1441 959 1056 
Q 959 750 1161 570 
Q 1363 391 1709 391 
Q 2188 391 2477 730 
Q 2766 1069 2766 1631 
L 2766 1759 
L 2194 1759 
z
M 3341 1997 
L 3341 0 
L 2766 0 
L 2766 531 
Q 2569 213 2275 61 
Q 1981 -91 1556 -91 
Q 1019 -91 701 211 
Q 384 513 384 1019 
Q 384 1609 779 1909 
Q 1175 2209 1959 2209 
L 2766 2209 
L 2766 2266 
Q 2766 2663 2505 2880 
Q 2244 3097 1772 3097 
Q 1472 3097 1187 3025 
Q 903 2953 641 2809 
L 641 3341 
Q 956 3463 1253 3523 
Q 1550 3584 1831 3584 
Q 2591 3584 2966 3190 
Q 3341 2797 3341 1997 
z
" transform="scale(0.015625)"/>
       <path id="DejaVuSans-6e" d="M 3513 2113 
L 3513 0 
L 2938 0 
L 2938 2094 
Q 2938 2591 2744 2837 
Q 2550 3084 2163 3084 
Q 1697 3084 1428 2787 
Q 1159 2491 1159 1978 
L 1159 0 
L 581 0 
L 581 3500 
L 1159 3500 
L 1159 2956 
Q 1366 3272 1645 3428 
Q 1925 3584 2291 3584 
Q 2894 3584 3203 3211 
Q 3513 2838 3513 2113 
z
" transform="scale(0.015625)"/>
       <path id="DejaVuSans-63" d="M 3122 3366 
L 3122 2828 
Q 2878 2963 2633 3030 
Q 2388 3097 2138 3097 
Q 1578 3097 1268 2742 
Q 959 2388 959 1747 
Q 959 1106 1268 751 
Q 1578 397 2138 397 
Q 2388 397 2633 464 
Q 2878 531 3122 666 
L 3122 134 
Q 2881 22 2623 -34 
Q 2366 -91 2075 -91 
Q 1284 -91 818 406 
Q 353 903 353 1747 
Q 353 2603 823 3093 
Q 1294 3584 2113 3584 
Q 2378 3584 2631 3529 
Q 2884 3475 3122 3366 
z
" transform="scale(0.015625)"/>
       <path id="DejaVuSans-6b" d="M 581 4863 
L 1159 4863 
L 1159 1991 
L 2875 3500 
L 3609 3500 
L 1753 1863 
L 3688 0 
L 2938 0 
L 1159 1709 
L 1159 0 
L 581 0 
L 581 4863 
z
" transform="scale(0.015625)"/>
       <path id="DejaVuSans-52" d="M 2841 2188 
Q 3044 2119 3236 1894 
Q 3428 1669 3622 1275 
L 4263 0 
L 3584 0 
L 2988 1197 
Q 2756 1666 2539 1819 
Q 2322 1972 1947 1972 
L 1259 1972 
L 1259 0 
L 628 0 
L 628 4666 
L 2053 4666 
Q 2853 4666 3247 4331 
Q 3641 3997 3641 3322 
Q 3641 2881 3436 2590 
Q 3231 2300 2841 2188 
z
M 1259 4147 
L 1259 2491 
L 2053 2491 
Q 2509 2491 2742 2702 
Q 2975 2913 2975 3322 
Q 2975 3731 2742 3939 
Q 2509 4147 2053 4147 
L 1259 4147 
z
" transform="scale(0.015625)"/>
       <path id="DejaVuSans-64" d="M 2906 2969 
L 2906 4863 
L 3481 4863 
L 3481 0 
L 2906 0 
L 2906 525 
Q 2725 213 2448 61 
Q 2172 -91 1784 -91 
Q 1150 -91 751 415 
Q 353 922 353 1747 
Q 353 2572 751 3078 
Q 1150 3584 1784 3584 
Q 2172 3584 2448 3432 
Q 2725 3281 2906 2969 
z
M 947 1747 
Q 947 1113 1208 752 
Q 1469 391 1925 391 
Q 2381 391 2643 752 
Q 2906 1113 2906 1747 
Q 2906 2381 2643 2742 
Q 2381 3103 1925 3103 
Q 1469 3103 1208 2742 
Q 947 2381 947 1747 
z
" transform="scale(0.015625)"/>
       <path id="DejaVuSans-46" d="M 628 4666 
L 3309 4666 
L 3309 4134 
L 1259 4134 
L 1259 2759 
L 3109 2759 
L 3109 2228 
L 1259 2228 
L 1259 0 
L 628 0 
L 628 4666 
z
" transform="scale(0.015625)"/>
      </defs>
      <use xlink:href="#DejaVuSans-44"/>
      <use xlink:href="#DejaVuSans-69" transform="translate(77.001953 0)"/>
      <use xlink:href="#DejaVuSans-6c" transform="translate(104.785156 0)"/>
      <use xlink:href="#DejaVuSans-75" transform="translate(132.568359 0)"/>
      <use xlink:href="#DejaVuSans-74" transform="translate(195.947266 0)"/>
      <use xlink:href="#DejaVuSans-65" transform="translate(235.15625 0)"/>
      <use xlink:href="#DejaVuSans-50" transform="translate(296.679688 0)"/>
      <use xlink:href="#DejaVuSans-6c" transform="translate(356.982422 0)"/>
      <use xlink:href="#DejaVuSans-61" transform="translate(384.765625 0)"/>
      <use xlink:href="#DejaVuSans-6e" transform="translate(446.044922 0)"/>
      <use xlink:href="#DejaVuSans-63" transform="translate(509.423828 0)"/>
      <use xlink:href="#DejaVuSans-6b" transform="translate(564.404297 0)"/>
      <use xlink:href="#DejaVuSans-69" transform="translate(622.314453 0)"/>
      <use xlink:href="#DejaVuSans-61" transform="translate(650.097656 0)"/>
      <use xlink:href="#DejaVuSans-6e" transform="translate(711.376953 0)"/>
      <use xlink:href="#DejaVuSans-52" transform="translate(774.755859 0)"/>
      <use xlink:href="#DejaVuSans-61" transform="translate(841.988281 0)"/>
      <use xlink:href="#DejaVuSans-64" transform="translate(903.267578 0)"/>
      <use xlink:href="#DejaVuSans-46" transform="translate(966.744141 0)"/>
      <use xlink:href="#DejaVuSans-69" transform="translate(1017.013672 0)"/>
      <use xlink:href="#DejaVuSans-65" transform="translate(1044.796875 0)"/>
      <use xlink:href="#DejaVuSans-6c" transform="translate(1106.320312 0)"/>
      <use xlink:href="#DejaVuSans-64" transform="translate(1134.103516 0)"/>
     </g>
    </g>
   </g>
   <g id="text_2">
    <g clip-path="url(#p3b3e5250e8)">
     <!-- NumberDensity -->
     <g transform="translate(144.633386 200.074105) scale(0.12 -0.12)">
      <defs>
       <path id="DejaVuSans-4e" d="M 628 4666 
L 1478 4666 
L 3547 763 
L 3547 4666 
L 4159 4666 
L 4159 0 
L 3309 0 
L 1241 3903 
L 1241 0 
L 628 0 
L 628 4666 
z
" transform="scale(0.015625)"/>
       <path id="DejaVuSans-6d" d="M 3328 2828 
Q 3544 3216 3844 3400 
Q 4144 3584 4550 3584 
Q 5097 3584 5394 3201 
Q 5691 2819 5691 2113 
L 5691 0 
L 5113 0 
L 5113 2094 
Q 5113 2597 4934 2840 
Q 4756 3084 4391 3084 
Q 3944 3084 3684 2787 
Q 3425 2491 3425 1978 
L 3425 0 
L 2847 0 
L 2847 2094 
Q 2847 2600 2669 2842 
Q 2491 3084 2119 3084 
Q 1678 3084 1418 2786 
Q 1159 2488 1159 1978 
L 1159 0 
L 581 0 
L 581 3500 
L 1159 3500 
L 1159 2956 
Q 1356 3278 1631 3431 
Q 1906 3584 2284 3584 
Q 2666 3584 2933 3390 
Q 3200 3197 3328 2828 
z
" transform="scale(0.015625)"/>
       <path id="DejaVuSans-62" d="M 3116 1747 
Q 3116 2381 2855 2742 
Q 2594 3103 2138 3103 
Q 1681 3103 1420 2742 
Q 1159 2381 1159 1747 
Q 1159 1113 1420 752 
Q 1681 391 2138 391 
Q 2594 391 2855 752 
Q 3116 1113 3116 1747 
z
M 1159 2969 
Q 1341 3281 1617 3432 
Q 1894 3584 2278 3584 
Q 2916 3584 3314 3078 
Q 3713 2572 3713 1747 
Q 3713 922 3314 415 
Q 2916 -91 2278 -91 
Q 1894 -91 1617 61 
Q 1341 213 1159 525 
L 1159 0 
L 581 0 
L 581 4863 
L 1159 4863 
L 1159 2969 
z
" transform="scale(0.015625)"/>
       <path id="DejaVuSans-72" d="M 2631 2963 
Q 2534 3019 2420 3045 
Q 2306 3072 2169 3072 
Q 1681 3072 1420 2755 
Q 1159 2438 1159 1844 
L 1159 0 
L 581 0 
L 581 3500 
L 1159 3500 
L 1159 2956 
Q 1341 3275 1631 3429 
Q 1922 3584 2338 3584 
Q 2397 3584 2469 3576 
Q 2541 3569 2628 3553 
L 2631 2963 
z
" transform="scale(0.015625)"/>
       <path id="DejaVuSans-73" d="M 2834 3397 
L 2834 2853 
Q 2591 2978 2328 3040 
Q 2066 3103 1784 3103 
Q 1356 3103 1142 2972 
Q 928 2841 928 2578 
Q 928 2378 1081 2264 
Q 1234 2150 1697 2047 
L 1894 2003 
Q 2506 1872 2764 1633 
Q 3022 1394 3022 966 
Q 3022 478 2636 193 
Q 2250 -91 1575 -91 
Q 1294 -91 989 -36 
Q 684 19 347 128 
L 347 722 
Q 666 556 975 473 
Q 1284 391 1588 391 
Q 1994 391 2212 530 
Q 2431 669 2431 922 
Q 2431 1156 2273 1281 
Q 2116 1406 1581 1522 
L 1381 1569 
Q 847 1681 609 1914 
Q 372 2147 372 2553 
Q 372 3047 722 3315 
Q 1072 3584 1716 3584 
Q 2034 3584 2315 3537 
Q 2597 3491 2834 3397 
z
" transform="scale(0.015625)"/>
       <path id="DejaVuSans-79" d="M 2059 -325 
Q 1816 -950 1584 -1140 
Q 1353 -1331 966 -1331 
L 506 -1331 
L 506 -850 
L 844 -850 
Q 1081 -850 1212 -737 
Q 1344 -625 1503 -206 
L 1606 56 
L 191 3500 
L 800 3500 
L 1894 763 
L 2988 3500 
L 3597 3500 
L 2059 -325 
z
" transform="scale(0.015625)"/>
      </defs>
      <use xlink:href="#DejaVuSans-4e"/>
      <use xlink:href="#DejaVuSans-75" transform="translate(74.804688 0)"/>
      <use xlink:href="#DejaVuSans-6d" transform="translate(138.183594 0)"/>
      <use xlink:href="#DejaVuSans-62" transform="translate(235.595703 0)"/>
      <use xlink:href="#DejaVuSans-65" transform="translate(299.072266 0)"/>
      <use xlink:href="#DejaVuSans-72" transform="translate(360.595703 0)"/>
      <use xlink:href="#DejaVuSans-44" transform="translate(401.708984 0)"/>
      <use xlink:href="#DejaVuSans-65" transform="translate(478.710938 0)"/>
      <use xlink:href="#DejaVuSans-6e" transform="translate(540.234375 0)"/>
      <use xlink:href="#DejaVuSans-73" transform="translate(603.613281 0)"/>
      <use xlink:href="#DejaVuSans-69" transform="translate(655.712891 0)"/>
      <use xlink:href="#DejaVuSans-74" transform="translate(683.496094 0)"/>
      <use xlink:href="#DejaVuSans-79" transform="translate(722.705078 0)"/>
     </g>
    </g>
   </g>
   <g id="text_3">
    <g clip-path="url(#p3b3e5250e8)">
     <!-- TimeExplosion -->
     <g transform="translate(72.508163 305.943485) scale(0.12 -0.12)">
      <defs>
       <path id="DejaVuSans-54" d="M -19 4666 
L 3928 4666 
L 3928 4134 
L 2272 4134 
L 2272 0 
L 1638 0 
L 1638 4134 
L -19 4134 
L -19 4666 
z
" transform="scale(0.015625)"/>
       <path id="DejaVuSans-45" d="M 628 4666 
L 3578 4666 
L 3578 4134 
L 1259 4134 
L 1259 2753 
L 3481 2753 
L 3481 2222 
L 1259 2222 
L 1259 531 
L 3634 531 
L 3634 0 
L 628 0 
L 628 4666 
z
" transform="scale(0.015625)"/>
       <path id="DejaVuSans-78" d="M 3513 3500 
L 2247 1797 
L 3578 0 
L 2900 0 
L 1881 1375 
L 863 0 
L 184 0 
L 1544 1831 
L 300 3500 
L 978 3500 
L 1906 2253 
L 2834 3500 
L 3513 3500 
z
" transform="scale(0.015625)"/>
       <path id="DejaVuSans-70" d="M 1159 525 
L 1159 -1331 
L 581 -1331 
L 581 3500 
L 1159 3500 
L 1159 2969 
Q 1341 3281 1617 3432 
Q 1894 3584 2278 3584 
Q 2916 3584 3314 3078 
Q 3713 2572 3713 1747 
Q 3713 922 3314 415 
Q 2916 -91 2278 -91 
Q 1894 -91 1617 61 
Q 1341 213 1159 525 
z
M 3116 1747 
Q 3116 2381 2855 2742 
Q 2594 3103 2138 3103 
Q 1681 3103 1420 2742 
Q 1159 2381 1159 1747 
Q 1159 1113 1420 752 
Q 1681 391 2138 391 
Q 2594 391 2855 752 
Q 3116 1113 3116 1747 
z
" transform="scale(0.015625)"/>
       <path id="DejaVuSans-6f" d="M 1959 3097 
Q 1497 3097 1228 2736 
Q 959 2375 959 1747 
Q 959 1119 1226 758 
Q 1494 397 1959 397 
Q 2419 397 2687 759 
Q 2956 1122 2956 1747 
Q 2956 2369 2687 2733 
Q 2419 3097 1959 3097 
z
M 1959 3584 
Q 2709 3584 3137 3096 
Q 3566 2609 3566 1747 
Q 3566 888 3137 398 
Q 2709 -91 1959 -91 
Q 1206 -91 779 398 
Q 353 888 353 1747 
Q 353 2609 779 3096 
Q 1206 3584 1959 3584 
z
" transform="scale(0.015625)"/>
      </defs>
      <use xlink:href="#DejaVuSans-54"/>
      <use xlink:href="#DejaVuSans-69" transform="translate(57.958984 0)"/>
      <use xlink:href="#DejaVuSans-6d" transform="translate(85.742188 0)"/>
      <use xlink:href="#DejaVuSans-65" transform="translate(183.154297 0)"/>
      <use xlink:href="#DejaVuSans-45" transform="translate(244.677734 0)"/>
      <use xlink:href="#DejaVuSans-78" transform="translate(307.861328 0)"/>
      <use xlink:href="#DejaVuSans-70" transform="translate(367.041016 0)"/>
      <use xlink:href="#DejaVuSans-6c" transform="translate(430.517578 0)"/>
      <use xlink:href="#DejaVuSans-6f" transform="translate(458.300781 0)"/>
      <use xlink:href="#DejaVuSans-73" transform="translate(519.482422 0)"/>
      <use xlink:href="#DejaVuSans-69" transform="translate(571.582031 0)"/>
      <use xlink:href="#DejaVuSans-6f" transform="translate(599.365234 0)"/>
      <use xlink:href="#DejaVuSans-6e" transform="translate(660.546875 0)"/>
     </g>
    </g>
   </g>
   <g id="text_4">
    <g clip-path="url(#p3b3e5250e8)">
     <!-- AtomicData -->
     <g transform="translate(105.404265 170.232754) scale(0.12 -0.12)">
      <defs>
       <path id="DejaVuSans-41" d="M 2188 4044 
L 1331 1722 
L 3047 1722 
L 2188 4044 
z
M 1831 4666 
L 2547 4666 
L 4325 0 
L 3669 0 
L 3244 1197 
L 1141 1197 
L 716 0 
L 50 0 
L 1831 4666 
z
" transform="scale(0.015625)"/>
      </defs>
      <use xlink:href="#DejaVuSans-41"/>
      <use xlink:href="#DejaVuSans-74" transform="translate(66.658203 0)"/>
      <use xlink:href="#DejaVuSans-6f" transform="translate(105.867188 0)"/>
      <use xlink:href="#DejaVuSans-6d" transform="translate(167.048828 0)"/>
      <use xlink:href="#DejaVuSans-69" transform="translate(264.460938 0)"/>
      <use xlink:href="#DejaVuSans-63" transform="translate(292.244141 0)"/>
      <use xlink:href="#DejaVuSans-44" transform="translate(347.224609 0)"/>
      <use xlink:href="#DejaVuSans-61" transform="translate(424.226562 0)"/>
      <use xlink:href="#DejaVuSans-74" transform="translate(485.505859 0)"/>
      <use xlink:href="#DejaVuSans-61" transform="translate(524.714844 0)"/>
     </g>
    </g>
   </g>
   <g id="text_5">
    <g clip-path="url(#p3b3e5250e8)">
     <!-- JBlues -->
     <g transform="translate(210.217719 303.341342) scale(0.12 -0.12)">
      <defs>
       <path id="DejaVuSans-4a" d="M 628 4666 
L 1259 4666 
L 1259 325 
Q 1259 -519 939 -900 
Q 619 -1281 -91 -1281 
L -331 -1281 
L -331 -750 
L -134 -750 
Q 284 -750 456 -515 
Q 628 -281 628 325 
L 628 4666 
z
" transform="scale(0.015625)"/>
       <path id="DejaVuSans-42" d="M 1259 2228 
L 1259 519 
L 2272 519 
Q 2781 519 3026 730 
Q 3272 941 3272 1375 
Q 3272 1813 3026 2020 
Q 2781 2228 2272 2228 
L 1259 2228 
z
M 1259 4147 
L 1259 2741 
L 2194 2741 
Q 2656 2741 2882 2914 
Q 3109 3088 3109 3444 
Q 3109 3797 2882 3972 
Q 2656 4147 2194 4147 
L 1259 4147 
z
M 628 4666 
L 2241 4666 
Q 2963 4666 3353 4366 
Q 3744 4066 3744 3513 
Q 3744 3084 3544 2831 
Q 3344 2578 2956 2516 
Q 3422 2416 3680 2098 
Q 3938 1781 3938 1306 
Q 3938 681 3513 340 
Q 3088 0 2303 0 
L 628 0 
L 628 4666 
z
" transform="scale(0.015625)"/>
      </defs>
      <use xlink:href="#DejaVuSans-4a"/>
      <use xlink:href="#DejaVuSans-42" transform="translate(29.492188 0)"/>
      <use xlink:href="#DejaVuSans-6c" transform="translate(98.095703 0)"/>
      <use xlink:href="#DejaVuSans-75" transform="translate(125.878906 0)"/>
      <use xlink:href="#DejaVuSans-65" transform="translate(189.257812 0)"/>
      <use xlink:href="#DejaVuSans-73" transform="translate(250.78125 0)"/>
     </g>
    </g>
   </g>
   <g id="text_6">
    <g clip-path="url(#p3b3e5250e8)">
     <!-- LinkTRadTElectron -->
     <g transform="translate(39.379018 222.823967) scale(0.12 -0.12)">
      <defs>
       <path id="DejaVuSans-4c" d="M 628 4666 
L 1259 4666 
L 1259 531 
L 3531 531 
L 3531 0 
L 628 0 
L 628 4666 
z
" transform="scale(0.015625)"/>
      </defs>
      <use xlink:href="#DejaVuSans-4c"/>
      <use xlink:href="#DejaVuSans-69" transform="translate(55.712891 0)"/>
      <use xlink:href="#DejaVuSans-6e" transform="translate(83.496094 0)"/>
      <use xlink:href="#DejaVuSans-6b" transform="translate(146.875 0)"/>
      <use xlink:href="#DejaVuSans-54" transform="translate(204.785156 0)"/>
      <use xlink:href="#DejaVuSans-52" transform="translate(265.869141 0)"/>
      <use xlink:href="#DejaVuSans-61" transform="translate(333.101562 0)"/>
      <use xlink:href="#DejaVuSans-64" transform="translate(394.380859 0)"/>
      <use xlink:href="#DejaVuSans-54" transform="translate(457.857422 0)"/>
      <use xlink:href="#DejaVuSans-45" transform="translate(518.941406 0)"/>
      <use xlink:href="#DejaVuSans-6c" transform="translate(582.125 0)"/>
      <use xlink:href="#DejaVuSans-65" transform="translate(609.908203 0)"/>
      <use xlink:href="#DejaVuSans-63" transform="translate(671.431641 0)"/>
      <use xlink:href="#DejaVuSans-74" transform="translate(726.412109 0)"/>
      <use xlink:href="#DejaVuSans-72" transform="translate(765.621094 0)"/>
      <use xlink:href="#DejaVuSans-6f" transform="translate(804.484375 0)"/>
      <use xlink:href="#DejaVuSans-6e" transform="translate(865.666016 0)"/>
     </g>
    </g>
   </g>
   <g id="text_7">
    <g clip-path="url(#p3b3e5250e8)">
     <!-- HeliumTreatment -->
     <g transform="translate(187.084929 51.114137) scale(0.12 -0.12)">
      <defs>
       <path id="DejaVuSans-48" d="M 628 4666 
L 1259 4666 
L 1259 2753 
L 3553 2753 
L 3553 4666 
L 4184 4666 
L 4184 0 
L 3553 0 
L 3553 2222 
L 1259 2222 
L 1259 0 
L 628 0 
L 628 4666 
z
" transform="scale(0.015625)"/>
      </defs>
      <use xlink:href="#DejaVuSans-48"/>
      <use xlink:href="#DejaVuSans-65" transform="translate(75.195312 0)"/>
      <use xlink:href="#DejaVuSans-6c" transform="translate(136.71875 0)"/>
      <use xlink:href="#DejaVuSans-69" transform="translate(164.501953 0)"/>
      <use xlink:href="#DejaVuSans-75" transform="translate(192.285156 0)"/>
      <use xlink:href="#DejaVuSans-6d" transform="translate(255.664062 0)"/>
      <use xlink:href="#DejaVuSans-54" transform="translate(353.076172 0)"/>
      <use xlink:href="#DejaVuSans-72" transform="translate(399.410156 0)"/>
      <use xlink:href="#DejaVuSans-65" transform="translate(438.273438 0)"/>
      <use xlink:href="#DejaVuSans-61" transform="translate(499.796875 0)"/>
      <use xlink:href="#DejaVuSans-74" transform="translate(561.076172 0)"/>
      <use xlink:href="#DejaVuSans-6d" transform="translate(600.285156 0)"/>
      <use xlink:href="#DejaVuSans-65" transform="translate(697.697266 0)"/>
      <use xlink:href="#DejaVuSans-6e" transform="translate(759.220703 0)"/>
      <use xlink:href="#DejaVuSans-74" transform="translate(822.599609 0)"/>
     </g>
    </g>
   </g>
   <g id="text_8">
    <g clip-path="url(#p3b3e5250e8)">
     <!-- ContinuumInteractionSpecies -->
     <g transform="translate(-14.765158 123.128892) scale(0.12 -0.12)">
      <defs>
       <path id="DejaVuSans-43" d="M 4122 4306 
L 4122 3641 
Q 3803 3938 3442 4084 
Q 3081 4231 2675 4231 
Q 1875 4231 1450 3742 
Q 1025 3253 1025 2328 
Q 1025 1406 1450 917 
Q 1875 428 2675 428 
Q 3081 428 3442 575 
Q 3803 722 4122 1019 
L 4122 359 
Q 3791 134 3420 21 
Q 3050 -91 2638 -91 
Q 1578 -91 968 557 
Q 359 1206 359 2328 
Q 359 3453 968 4101 
Q 1578 4750 2638 4750 
Q 3056 4750 3426 4639 
Q 3797 4528 4122 4306 
z
" transform="scale(0.015625)"/>
       <path id="DejaVuSans-49" d="M 628 4666 
L 1259 4666 
L 1259 0 
L 628 0 
L 628 4666 
z
" transform="scale(0.015625)"/>
       <path id="DejaVuSans-53" d="M 3425 4513 
L 3425 3897 
Q 3066 4069 2747 4153 
Q 2428 4238 2131 4238 
Q 1616 4238 1336 4038 
Q 1056 3838 1056 3469 
Q 1056 3159 1242 3001 
Q 1428 2844 1947 2747 
L 2328 2669 
Q 3034 2534 3370 2195 
Q 3706 1856 3706 1288 
Q 3706 609 3251 259 
Q 2797 -91 1919 -91 
Q 1588 -91 1214 -16 
Q 841 59 441 206 
L 441 856 
Q 825 641 1194 531 
Q 1563 422 1919 422 
Q 2459 422 2753 634 
Q 3047 847 3047 1241 
Q 3047 1584 2836 1778 
Q 2625 1972 2144 2069 
L 1759 2144 
Q 1053 2284 737 2584 
Q 422 2884 422 3419 
Q 422 4038 858 4394 
Q 1294 4750 2059 4750 
Q 2388 4750 2728 4690 
Q 3069 4631 3425 4513 
z
" transform="scale(0.015625)"/>
      </defs>
      <use xlink:href="#DejaVuSans-43"/>
      <use xlink:href="#DejaVuSans-6f" transform="translate(69.824219 0)"/>
      <use xlink:href="#DejaVuSans-6e" transform="translate(131.005859 0)"/>
      <use xlink:href="#DejaVuSans-74" transform="translate(194.384766 0)"/>
      <use xlink:href="#DejaVuSans-69" transform="translate(233.59375 0)"/>
      <use xlink:href="#DejaVuSans-6e" transform="translate(261.376953 0)"/>
      <use xlink:href="#DejaVuSans-75" transform="translate(324.755859 0)"/>
      <use xlink:href="#DejaVuSans-75" transform="translate(388.134766 0)"/>
      <use xlink:href="#DejaVuSans-6d" transform="translate(451.513672 0)"/>
      <use xlink:href="#DejaVuSans-49" transform="translate(548.925781 0)"/>
      <use xlink:href="#DejaVuSans-6e" transform="translate(578.417969 0)"/>
      <use xlink:href="#DejaVuSans-74" transform="translate(641.796875 0)"/>
      <use xlink:href="#DejaVuSans-65" transform="translate(681.005859 0)"/>
      <use xlink:href="#DejaVuSans-72" transform="translate(742.529297 0)"/>
      <use xlink:href="#DejaVuSans-61" transform="translate(783.642578 0)"/>
      <use xlink:href="#DejaVuSans-63" transform="translate(844.921875 0)"/>
      <use xlink:href="#DejaVuSans-74" transform="translate(899.902344 0)"/>
      <use xlink:href="#DejaVuSans-69" transform="translate(939.111328 0)"/>
      <use xlink:href="#DejaVuSans-6f" transform="translate(966.894531 0)"/>
      <use xlink:href="#DejaVuSans-6e" transform="translate(1028.076172 0)"/>
      <use xlink:href="#DejaVuSans-53" transform="translate(1091.455078 0)"/>
      <use xlink:href="#DejaVuSans-70" transform="translate(1154.931641 0)"/>
      <use xlink:href="#DejaVuSans-65" transform="translate(1218.408203 0)"/>
      <use xlink:href="#DejaVuSans-63" transform="translate(1279.931641 0)"/>
      <use xlink:href="#DejaVuSans-69" transform="translate(1334.912109 0)"/>
      <use xlink:href="#DejaVuSans-65" transform="translate(1362.695312 0)"/>
      <use xlink:href="#DejaVuSans-73" transform="translate(1424.21875 0)"/>
     </g>
    </g>
   </g>
   <g id="text_9">
    <g clip-path="url(#p3b3e5250e8)">
     <!-- TRadiative -->
     <g transform="translate(15.396152 253.965585) scale(0.12 -0.12)">
      <defs>
       <path id="DejaVuSans-76" d="M 191 3500 
L 800 3500 
L 1894 563 
L 2988 3500 
L 3597 3500 
L 2284 0 
L 1503 0 
L 191 3500 
z
" transform="scale(0.015625)"/>
      </defs>
      <use xlink:href="#DejaVuSans-54"/>
      <use xlink:href="#DejaVuSans-52" transform="translate(61.083984 0)"/>
      <use xlink:href="#DejaVuSans-61" transform="translate(128.316406 0)"/>
      <use xlink:href="#DejaVuSans-64" transform="translate(189.595703 0)"/>
      <use xlink:href="#DejaVuSans-69" transform="translate(253.072266 0)"/>
      <use xlink:href="#DejaVuSans-61" transform="translate(280.855469 0)"/>
      <use xlink:href="#DejaVuSans-74" transform="translate(342.134766 0)"/>
      <use xlink:href="#DejaVuSans-69" transform="translate(381.34375 0)"/>
      <use xlink:href="#DejaVuSans-76" transform="translate(409.126953 0)"/>
      <use xlink:href="#DejaVuSans-65" transform="translate(468.306641 0)"/>
     </g>
    </g>
   </g>
   <g id="text_10">
    <g clip-path="url(#p3b3e5250e8)">
     <!-- DilutionFactor -->
     <g transform="translate(378.488687 110.346514) scale(0.12 -0.12)">
      <use xlink:href="#DejaVuSans-44"/>
      <use xlink:href="#DejaVuSans-69" transform="translate(77.001953 0)"/>
      <use xlink:href="#DejaVuSans-6c" transform="translate(104.785156 0)"/>
      <use xlink:href="#DejaVuSans-75" transform="translate(132.568359 0)"/>
      <use xlink:href="#DejaVuSans-74" transform="translate(195.947266 0)"/>
      <use xlink:href="#DejaVuSans-69" transform="translate(235.15625 0)"/>
      <use xlink:href="#DejaVuSans-6f" transform="translate(262.939453 0)"/>
      <use xlink:href="#DejaVuSans-6e" transform="translate(324.121094 0)"/>
      <use xlink:href="#DejaVuSans-46" transform="translate(387.5 0)"/>
      <use xlink:href="#DejaVuSans-61" transform="translate(435.894531 0)"/>
      <use xlink:href="#DejaVuSans-63" transform="translate(497.173828 0)"/>
      <use xlink:href="#DejaVuSans-74" transform="translate(552.154297 0)"/>
      <use xlink:href="#DejaVuSans-6f" transform="translate(591.363281 0)"/>
      <use xlink:href="#DejaVuSans-72" transform="translate(652.544922 0)"/>
     </g>
    </g>
   </g>
   <g id="text_11">
    <g clip-path="url(#p3b3e5250e8)">
     <!-- BetaRadiation -->
     <g transform="translate(51.641859 200.07743) scale(0.12 -0.12)">
      <use xlink:href="#DejaVuSans-42"/>
      <use xlink:href="#DejaVuSans-65" transform="translate(68.603516 0)"/>
      <use xlink:href="#DejaVuSans-74" transform="translate(130.126953 0)"/>
      <use xlink:href="#DejaVuSans-61" transform="translate(169.335938 0)"/>
      <use xlink:href="#DejaVuSans-52" transform="translate(230.615234 0)"/>
      <use xlink:href="#DejaVuSans-61" transform="translate(297.847656 0)"/>
      <use xlink:href="#DejaVuSans-64" transform="translate(359.126953 0)"/>
      <use xlink:href="#DejaVuSans-69" transform="translate(422.603516 0)"/>
      <use xlink:href="#DejaVuSans-61" transform="translate(450.386719 0)"/>
      <use xlink:href="#DejaVuSans-74" transform="translate(511.666016 0)"/>
      <use xlink:href="#DejaVuSans-69" transform="translate(550.875 0)"/>
      <use xlink:href="#DejaVuSans-6f" transform="translate(578.658203 0)"/>
      <use xlink:href="#DejaVuSans-6e" transform="translate(639.839844 0)"/>
     </g>
    </g>
   </g>
   <g id="text_12">
    <g clip-path="url(#p3b3e5250e8)">
     <!-- Levels -->
     <g transform="translate(299.902806 118.758516) scale(0.12 -0.12)">
      <use xlink:href="#DejaVuSans-4c"/>
      <use xlink:href="#DejaVuSans-65" transform="translate(53.962891 0)"/>
      <use xlink:href="#DejaVuSans-76" transform="translate(115.486328 0)"/>
      <use xlink:href="#DejaVuSans-65" transform="translate(174.666016 0)"/>
      <use xlink:href="#DejaVuSans-6c" transform="translate(236.189453 0)"/>
      <use xlink:href="#DejaVuSans-73" transform="translate(263.972656 0)"/>
     </g>
    </g>
   </g>
   <g id="text_13">
    <g clip-path="url(#p3b3e5250e8)">
     <!-- Lines -->
     <g transform="translate(370.866885 239.22388) scale(0.12 -0.12)">
      <use xlink:href="#DejaVuSans-4c"/>
      <use xlink:href="#DejaVuSans-69" transform="translate(55.712891 0)"/>
      <use xlink:href="#DejaVuSans-6e" transform="translate(83.496094 0)"/>
      <use xlink:href="#DejaVuSans-65" transform="translate(146.875 0)"/>
      <use xlink:href="#DejaVuSans-73" transform="translate(208.398438 0)"/>
     </g>
    </g>
   </g>
   <g id="text_14">
    <g clip-path="url(#p3b3e5250e8)">
     <!-- PartitionFunction -->
     <g transform="translate(245.827262 318.701623) scale(0.12 -0.12)">
      <use xlink:href="#DejaVuSans-50"/>
      <use xlink:href="#DejaVuSans-61" transform="translate(55.802734 0)"/>
      <use xlink:href="#DejaVuSans-72" transform="translate(117.082031 0)"/>
      <use xlink:href="#DejaVuSans-74" transform="translate(158.195312 0)"/>
      <use xlink:href="#DejaVuSans-69" transform="translate(197.404297 0)"/>
      <use xlink:href="#DejaVuSans-74" transform="translate(225.1875 0)"/>
      <use xlink:href="#DejaVuSans-69" transform="translate(264.396484 0)"/>
      <use xlink:href="#DejaVuSans-6f" transform="translate(292.179688 0)"/>
      <use xlink:href="#DejaVuSans-6e" transform="translate(353.361328 0)"/>
      <use xlink:href="#DejaVuSans-46" transform="translate(416.740234 0)"/>
      <use xlink:href="#DejaVuSans-75" transform="translate(468.759766 0)"/>
      <use xlink:href="#DejaVuSans-6e" transform="translate(532.138672 0)"/>
      <use xlink:href="#DejaVuSans-63" transform="translate(595.517578 0)"/>
      <use xlink:href="#DejaVuSans-74" transform="translate(650.498047 0)"/>
      <use xlink:href="#DejaVuSans-69" transform="translate(689.707031 0)"/>
      <use xlink:href="#DejaVuSans-6f" transform="translate(717.490234 0)"/>
      <use xlink:href="#DejaVuSans-6e" transform="translate(778.671875 0)"/>
     </g>
    </g>
   </g>
   <g id="text_15">
    <g clip-path="url(#p3b3e5250e8)">
     <!-- GElectron -->
     <g transform="translate(357.599643 87.436124) scale(0.12 -0.12)">
      <defs>
       <path id="DejaVuSans-47" d="M 3809 666 
L 3809 1919 
L 2778 1919 
L 2778 2438 
L 4434 2438 
L 4434 434 
Q 4069 175 3628 42 
Q 3188 -91 2688 -91 
Q 1594 -91 976 548 
Q 359 1188 359 2328 
Q 359 3472 976 4111 
Q 1594 4750 2688 4750 
Q 3144 4750 3555 4637 
Q 3966 4525 4313 4306 
L 4313 3634 
Q 3963 3931 3569 4081 
Q 3175 4231 2741 4231 
Q 1884 4231 1454 3753 
Q 1025 3275 1025 2328 
Q 1025 1384 1454 906 
Q 1884 428 2741 428 
Q 3075 428 3337 486 
Q 3600 544 3809 666 
z
" transform="scale(0.015625)"/>
      </defs>
      <use xlink:href="#DejaVuSans-47"/>
      <use xlink:href="#DejaVuSans-45" transform="translate(77.490234 0)"/>
      <use xlink:href="#DejaVuSans-6c" transform="translate(140.673828 0)"/>
      <use xlink:href="#DejaVuSans-65" transform="translate(168.457031 0)"/>
      <use xlink:href="#DejaVuSans-63" transform="translate(229.980469 0)"/>
      <use xlink:href="#DejaVuSans-74" transform="translate(284.960938 0)"/>
      <use xlink:href="#DejaVuSans-72" transform="translate(324.169922 0)"/>
      <use xlink:href="#DejaVuSans-6f" transform="translate(363.033203 0)"/>
      <use xlink:href="#DejaVuSans-6e" transform="translate(424.214844 0)"/>
     </g>
    </g>
   </g>
   <g id="text_16">
    <g clip-path="url(#p3b3e5250e8)">
     <!-- IonizationData -->
     <g transform="translate(381.193421 148.031527) scale(0.12 -0.12)">
      <defs>
       <path id="DejaVuSans-7a" d="M 353 3500 
L 3084 3500 
L 3084 2975 
L 922 459 
L 3084 459 
L 3084 0 
L 275 0 
L 275 525 
L 2438 3041 
L 353 3041 
L 353 3500 
z
" transform="scale(0.015625)"/>
      </defs>
      <use xlink:href="#DejaVuSans-49"/>
      <use xlink:href="#DejaVuSans-6f" transform="translate(29.492188 0)"/>
      <use xlink:href="#DejaVuSans-6e" transform="translate(90.673828 0)"/>
      <use xlink:href="#DejaVuSans-69" transform="translate(154.052734 0)"/>
      <use xlink:href="#DejaVuSans-7a" transform="translate(181.835938 0)"/>
      <use xlink:href="#DejaVuSans-61" transform="translate(234.326172 0)"/>
      <use xlink:href="#DejaVuSans-74" transform="translate(295.605469 0)"/>
      <use xlink:href="#DejaVuSans-69" transform="translate(334.814453 0)"/>
      <use xlink:href="#DejaVuSans-6f" transform="translate(362.597656 0)"/>
      <use xlink:href="#DejaVuSans-6e" transform="translate(423.779297 0)"/>
      <use xlink:href="#DejaVuSans-44" transform="translate(487.158203 0)"/>
      <use xlink:href="#DejaVuSans-61" transform="translate(564.160156 0)"/>
      <use xlink:href="#DejaVuSans-74" transform="translate(625.439453 0)"/>
      <use xlink:href="#DejaVuSans-61" transform="translate(664.648438 0)"/>
     </g>
    </g>
   </g>
   <g id="text_17">
    <g clip-path="url(#p3b3e5250e8)">
     <!-- LinesLowerLevelIndex -->
     <g transform="translate(348.542222 201.342161) scale(0.12 -0.12)">
      <defs>
       <path id="DejaVuSans-77" d="M 269 3500 
L 844 3500 
L 1563 769 
L 2278 3500 
L 2956 3500 
L 3675 769 
L 4391 3500 
L 4966 3500 
L 4050 0 
L 3372 0 
L 2619 2869 
L 1863 0 
L 1184 0 
L 269 3500 
z
" transform="scale(0.015625)"/>
      </defs>
      <use xlink:href="#DejaVuSans-4c"/>
      <use xlink:href="#DejaVuSans-69" transform="translate(55.712891 0)"/>
      <use xlink:href="#DejaVuSans-6e" transform="translate(83.496094 0)"/>
      <use xlink:href="#DejaVuSans-65" transform="translate(146.875 0)"/>
      <use xlink:href="#DejaVuSans-73" transform="translate(208.398438 0)"/>
      <use xlink:href="#DejaVuSans-4c" transform="translate(260.498047 0)"/>
      <use xlink:href="#DejaVuSans-6f" transform="translate(314.460938 0)"/>
      <use xlink:href="#DejaVuSans-77" transform="translate(375.642578 0)"/>
      <use xlink:href="#DejaVuSans-65" transform="translate(457.429688 0)"/>
      <use xlink:href="#DejaVuSans-72" transform="translate(518.953125 0)"/>
      <use xlink:href="#DejaVuSans-4c" transform="translate(560.066406 0)"/>
      <use xlink:href="#DejaVuSans-65" transform="translate(614.029297 0)"/>
      <use xlink:href="#DejaVuSans-76" transform="translate(675.552734 0)"/>
      <use xlink:href="#DejaVuSans-65" transform="translate(734.732422 0)"/>
      <use xlink:href="#DejaVuSans-6c" transform="translate(796.255859 0)"/>
      <use xlink:href="#DejaVuSans-49" transform="translate(824.039062 0)"/>
      <use xlink:href="#DejaVuSans-6e" transform="translate(853.53125 0)"/>
      <use xlink:href="#DejaVuSans-64" transform="translate(916.910156 0)"/>
      <use xlink:href="#DejaVuSans-65" transform="translate(980.386719 0)"/>
      <use xlink:href="#DejaVuSans-78" transform="translate(1040.160156 0)"/>
     </g>
    </g>
   </g>
   <g id="text_18">
    <g clip-path="url(#p3b3e5250e8)">
     <!-- LinesUpperLevelIndex -->
     <g transform="translate(332.026889 296.133478) scale(0.12 -0.12)">
      <defs>
       <path id="DejaVuSans-55" d="M 556 4666 
L 1191 4666 
L 1191 1831 
Q 1191 1081 1462 751 
Q 1734 422 2344 422 
Q 2950 422 3222 751 
Q 3494 1081 3494 1831 
L 3494 4666 
L 4128 4666 
L 4128 1753 
Q 4128 841 3676 375 
Q 3225 -91 2344 -91 
Q 1459 -91 1007 375 
Q 556 841 556 1753 
L 556 4666 
z
" transform="scale(0.015625)"/>
      </defs>
      <use xlink:href="#DejaVuSans-4c"/>
      <use xlink:href="#DejaVuSans-69" transform="translate(55.712891 0)"/>
      <use xlink:href="#DejaVuSans-6e" transform="translate(83.496094 0)"/>
      <use xlink:href="#DejaVuSans-65" transform="translate(146.875 0)"/>
      <use xlink:href="#DejaVuSans-73" transform="translate(208.398438 0)"/>
      <use xlink:href="#DejaVuSans-55" transform="translate(260.498047 0)"/>
      <use xlink:href="#DejaVuSans-70" transform="translate(333.691406 0)"/>
      <use xlink:href="#DejaVuSans-70" transform="translate(397.167969 0)"/>
      <use xlink:href="#DejaVuSans-65" transform="translate(460.644531 0)"/>
      <use xlink:href="#DejaVuSans-72" transform="translate(522.167969 0)"/>
      <use xlink:href="#DejaVuSans-4c" transform="translate(563.28125 0)"/>
      <use xlink:href="#DejaVuSans-65" transform="translate(617.244141 0)"/>
      <use xlink:href="#DejaVuSans-76" transform="translate(678.767578 0)"/>
      <use xlink:href="#DejaVuSans-65" transform="translate(737.947266 0)"/>
      <use xlink:href="#DejaVuSans-6c" transform="translate(799.470703 0)"/>
      <use xlink:href="#DejaVuSans-49" transform="translate(827.253906 0)"/>
      <use xlink:href="#DejaVuSans-6e" transform="translate(856.746094 0)"/>
      <use xlink:href="#DejaVuSans-64" transform="translate(920.125 0)"/>
      <use xlink:href="#DejaVuSans-65" transform="translate(983.601562 0)"/>
      <use xlink:href="#DejaVuSans-78" transform="translate(1043.375 0)"/>
     </g>
    </g>
   </g>
   <g id="text_19">
    <g clip-path="url(#p3b3e5250e8)">
     <!-- TauSobolev -->
     <g transform="translate(98.636585 143.999894) scale(0.12 -0.12)">
      <use xlink:href="#DejaVuSans-54"/>
      <use xlink:href="#DejaVuSans-61" transform="translate(44.583984 0)"/>
      <use xlink:href="#DejaVuSans-75" transform="translate(105.863281 0)"/>
      <use xlink:href="#DejaVuSans-53" transform="translate(169.242188 0)"/>
      <use xlink:href="#DejaVuSans-6f" transform="translate(232.71875 0)"/>
      <use xlink:href="#DejaVuSans-62" transform="translate(293.900391 0)"/>
      <use xlink:href="#DejaVuSans-6f" transform="translate(357.376953 0)"/>
      <use xlink:href="#DejaVuSans-6c" transform="translate(418.558594 0)"/>
      <use xlink:href="#DejaVuSans-65" transform="translate(446.341797 0)"/>
      <use xlink:href="#DejaVuSans-76" transform="translate(507.865234 0)"/>
     </g>
    </g>
   </g>
   <g id="text_20">
    <g clip-path="url(#p3b3e5250e8)">
     <!-- StimulatedEmissionFactor -->
     <g transform="translate(254.047334 44.335112) scale(0.12 -0.12)">
      <use xlink:href="#DejaVuSans-53"/>
      <use xlink:href="#DejaVuSans-74" transform="translate(63.476562 0)"/>
      <use xlink:href="#DejaVuSans-69" transform="translate(102.685547 0)"/>
      <use xlink:href="#DejaVuSans-6d" transform="translate(130.46875 0)"/>
      <use xlink:href="#DejaVuSans-75" transform="translate(227.880859 0)"/>
      <use xlink:href="#DejaVuSans-6c" transform="translate(291.259766 0)"/>
      <use xlink:href="#DejaVuSans-61" transform="translate(319.042969 0)"/>
      <use xlink:href="#DejaVuSans-74" transform="translate(380.322266 0)"/>
      <use xlink:href="#DejaVuSans-65" transform="translate(419.53125 0)"/>
      <use xlink:href="#DejaVuSans-64" transform="translate(481.054688 0)"/>
      <use xlink:href="#DejaVuSans-45" transform="translate(544.53125 0)"/>
      <use xlink:href="#DejaVuSans-6d" transform="translate(607.714844 0)"/>
      <use xlink:href="#DejaVuSans-69" transform="translate(705.126953 0)"/>
      <use xlink:href="#DejaVuSans-73" transform="translate(732.910156 0)"/>
      <use xlink:href="#DejaVuSans-73" transform="translate(785.009766 0)"/>
      <use xlink:href="#DejaVuSans-69" transform="translate(837.109375 0)"/>
      <use xlink:href="#DejaVuSans-6f" transform="translate(864.892578 0)"/>
      <use xlink:href="#DejaVuSans-6e" transform="translate(926.074219 0)"/>
      <use xlink:href="#DejaVuSans-46" transform="translate(989.453125 0)"/>
      <use xlink:href="#DejaVuSans-61" transform="translate(1037.847656 0)"/>
      <use xlink:href="#DejaVuSans-63" transform="translate(1099.126953 0)"/>
      <use xlink:href="#DejaVuSans-74" transform="translate(1154.107422 0)"/>
      <use xlink:href="#DejaVuSans-6f" transform="translate(1193.316406 0)"/>
      <use xlink:href="#DejaVuSans-72" transform="translate(1254.498047 0)"/>
     </g>
    </g>
   </g>
   <g id="text_21">
    <g clip-path="url(#p3b3e5250e8)">
     <!-- SelectedAtoms -->
     <g transform="translate(167.767883 103.083436) scale(0.12 -0.12)">
      <use xlink:href="#DejaVuSans-53"/>
      <use xlink:href="#DejaVuSans-65" transform="translate(63.476562 0)"/>
      <use xlink:href="#DejaVuSans-6c" transform="translate(125 0)"/>
      <use xlink:href="#DejaVuSans-65" transform="translate(152.783203 0)"/>
      <use xlink:href="#DejaVuSans-63" transform="translate(214.306641 0)"/>
      <use xlink:href="#DejaVuSans-74" transform="translate(269.287109 0)"/>
      <use xlink:href="#DejaVuSans-65" transform="translate(308.496094 0)"/>
      <use xlink:href="#DejaVuSans-64" transform="translate(370.019531 0)"/>
      <use xlink:href="#DejaVuSans-41" transform="translate(433.496094 0)"/>
      <use xlink:href="#DejaVuSans-74" transform="translate(500.154297 0)"/>
      <use xlink:href="#DejaVuSans-6f" transform="translate(539.363281 0)"/>
      <use xlink:href="#DejaVuSans-6d" transform="translate(600.544922 0)"/>
      <use xlink:href="#DejaVuSans-73" transform="translate(697.957031 0)"/>
     </g>
    </g>
   </g>
   <g id="text_22">
    <g clip-path="url(#p3b3e5250e8)">
     <!-- ElectronTemperature -->
     <g transform="translate(111.329807 40.501333) scale(0.12 -0.12)">
      <use xlink:href="#DejaVuSans-45"/>
      <use xlink:href="#DejaVuSans-6c" transform="translate(63.183594 0)"/>
      <use xlink:href="#DejaVuSans-65" transform="translate(90.966797 0)"/>
      <use xlink:href="#DejaVuSans-63" transform="translate(152.490234 0)"/>
      <use xlink:href="#DejaVuSans-74" transform="translate(207.470703 0)"/>
      <use xlink:href="#DejaVuSans-72" transform="translate(246.679688 0)"/>
      <use xlink:href="#DejaVuSans-6f" transform="translate(285.542969 0)"/>
      <use xlink:href="#DejaVuSans-6e" transform="translate(346.724609 0)"/>
      <use xlink:href="#DejaVuSans-54" transform="translate(410.103516 0)"/>
      <use xlink:href="#DejaVuSans-65" transform="translate(454.1875 0)"/>
      <use xlink:href="#DejaVuSans-6d" transform="translate(515.710938 0)"/>
      <use xlink:href="#DejaVuSans-70" transform="translate(613.123047 0)"/>
      <use xlink:href="#DejaVuSans-65" transform="translate(676.599609 0)"/>
      <use xlink:href="#DejaVuSans-72" transform="translate(738.123047 0)"/>
      <use xlink:href="#DejaVuSans-61" transform="translate(779.236328 0)"/>
      <use xlink:href="#DejaVuSans-74" transform="translate(840.515625 0)"/>
      <use xlink:href="#DejaVuSans-75" transform="translate(879.724609 0)"/>
      <use xlink:href="#DejaVuSans-72" transform="translate(943.103516 0)"/>
      <use xlink:href="#DejaVuSans-65" transform="translate(981.966797 0)"/>
     </g>
    </g>
   </g>
   <g id="text_23">
    <g clip-path="url(#p3b3e5250e8)">
     <!-- LevelBoltzmannFactorLTE -->
     <g transform="translate(286.526198 152.550167) scale(0.12 -0.12)">
      <use xlink:href="#DejaVuSans-4c"/>
      <use xlink:href="#DejaVuSans-65" transform="translate(53.962891 0)"/>
      <use xlink:href="#DejaVuSans-76" transform="translate(115.486328 0)"/>
      <use xlink:href="#DejaVuSans-65" transform="translate(174.666016 0)"/>
      <use xlink:href="#DejaVuSans-6c" transform="translate(236.189453 0)"/>
      <use xlink:href="#DejaVuSans-42" transform="translate(263.972656 0)"/>
      <use xlink:href="#DejaVuSans-6f" transform="translate(332.576172 0)"/>
      <use xlink:href="#DejaVuSans-6c" transform="translate(393.757812 0)"/>
      <use xlink:href="#DejaVuSans-74" transform="translate(421.541016 0)"/>
      <use xlink:href="#DejaVuSans-7a" transform="translate(460.75 0)"/>
      <use xlink:href="#DejaVuSans-6d" transform="translate(513.240234 0)"/>
      <use xlink:href="#DejaVuSans-61" transform="translate(610.652344 0)"/>
      <use xlink:href="#DejaVuSans-6e" transform="translate(671.931641 0)"/>
      <use xlink:href="#DejaVuSans-6e" transform="translate(735.310547 0)"/>
      <use xlink:href="#DejaVuSans-46" transform="translate(798.689453 0)"/>
      <use xlink:href="#DejaVuSans-61" transform="translate(847.083984 0)"/>
      <use xlink:href="#DejaVuSans-63" transform="translate(908.363281 0)"/>
      <use xlink:href="#DejaVuSans-74" transform="translate(963.34375 0)"/>
      <use xlink:href="#DejaVuSans-6f" transform="translate(1002.552734 0)"/>
      <use xlink:href="#DejaVuSans-72" transform="translate(1063.734375 0)"/>
      <use xlink:href="#DejaVuSans-4c" transform="translate(1104.847656 0)"/>
      <use xlink:href="#DejaVuSans-54" transform="translate(1146.810547 0)"/>
      <use xlink:href="#DejaVuSans-45" transform="translate(1207.894531 0)"/>
     </g>
    </g>
   </g>
   <g id="text_24">
    <g clip-path="url(#p3b3e5250e8)">
     <!-- PhiSahaLTE -->
     <g transform="translate(307.717374 313.408944) scale(0.12 -0.12)">
      <defs>
       <path id="DejaVuSans-68" d="M 3513 2113 
L 3513 0 
L 2938 0 
L 2938 2094 
Q 2938 2591 2744 2837 
Q 2550 3084 2163 3084 
Q 1697 3084 1428 2787 
Q 1159 2491 1159 1978 
L 1159 0 
L 581 0 
L 581 4863 
L 1159 4863 
L 1159 2956 
Q 1366 3272 1645 3428 
Q 1925 3584 2291 3584 
Q 2894 3584 3203 3211 
Q 3513 2838 3513 2113 
z
" transform="scale(0.015625)"/>
      </defs>
      <use xlink:href="#DejaVuSans-50"/>
      <use xlink:href="#DejaVuSans-68" transform="translate(60.302734 0)"/>
      <use xlink:href="#DejaVuSans-69" transform="translate(123.681641 0)"/>
      <use xlink:href="#DejaVuSans-53" transform="translate(151.464844 0)"/>
      <use xlink:href="#DejaVuSans-61" transform="translate(214.941406 0)"/>
      <use xlink:href="#DejaVuSans-68" transform="translate(276.220703 0)"/>
      <use xlink:href="#DejaVuSans-61" transform="translate(339.599609 0)"/>
      <use xlink:href="#DejaVuSans-4c" transform="translate(400.878906 0)"/>
      <use xlink:href="#DejaVuSans-54" transform="translate(442.841797 0)"/>
      <use xlink:href="#DejaVuSans-45" transform="translate(503.925781 0)"/>
     </g>
    </g>
   </g>
   <g id="text_25">
    <g clip-path="url(#p3b3e5250e8)">
     <!-- LevelBoltzmannFactorNoNLTE -->
     <g transform="translate(255.075741 267.259525) scale(0.12 -0.12)">
      <use xlink:href="#DejaVuSans-4c"/>
      <use xlink:href="#DejaVuSans-65" transform="translate(53.962891 0)"/>
      <use xlink:href="#DejaVuSans-76" transform="translate(115.486328 0)"/>
      <use xlink:href="#DejaVuSans-65" transform="translate(174.666016 0)"/>
      <use xlink:href="#DejaVuSans-6c" transform="translate(236.189453 0)"/>
      <use xlink:href="#DejaVuSans-42" transform="translate(263.972656 0)"/>
      <use xlink:href="#DejaVuSans-6f" transform="translate(332.576172 0)"/>
      <use xlink:href="#DejaVuSans-6c" transform="translate(393.757812 0)"/>
      <use xlink:href="#DejaVuSans-74" transform="translate(421.541016 0)"/>
      <use xlink:href="#DejaVuSans-7a" transform="translate(460.75 0)"/>
      <use xlink:href="#DejaVuSans-6d" transform="translate(513.240234 0)"/>
      <use xlink:href="#DejaVuSans-61" transform="translate(610.652344 0)"/>
      <use xlink:href="#DejaVuSans-6e" transform="translate(671.931641 0)"/>
      <use xlink:href="#DejaVuSans-6e" transform="translate(735.310547 0)"/>
      <use xlink:href="#DejaVuSans-46" transform="translate(798.689453 0)"/>
      <use xlink:href="#DejaVuSans-61" transform="translate(847.083984 0)"/>
      <use xlink:href="#DejaVuSans-63" transform="translate(908.363281 0)"/>
      <use xlink:href="#DejaVuSans-74" transform="translate(963.34375 0)"/>
      <use xlink:href="#DejaVuSans-6f" transform="translate(1002.552734 0)"/>
      <use xlink:href="#DejaVuSans-72" transform="translate(1063.734375 0)"/>
      <use xlink:href="#DejaVuSans-4e" transform="translate(1104.847656 0)"/>
      <use xlink:href="#DejaVuSans-6f" transform="translate(1179.652344 0)"/>
      <use xlink:href="#DejaVuSans-4e" transform="translate(1240.833984 0)"/>
      <use xlink:href="#DejaVuSans-4c" transform="translate(1315.638672 0)"/>
      <use xlink:href="#DejaVuSans-54" transform="translate(1357.601562 0)"/>
      <use xlink:href="#DejaVuSans-45" transform="translate(1418.685547 0)"/>
     </g>
    </g>
   </g>
   <g id="text_26">
    <g clip-path="url(#p3b3e5250e8)">
     <!-- BetaSobolev -->
     <g transform="translate(163.048614 326.121167) scale(0.12 -0.12)">
      <use xlink:href="#DejaVuSans-42"/>
      <use xlink:href="#DejaVuSans-65" transform="translate(68.603516 0)"/>
      <use xlink:href="#DejaVuSans-74" transform="translate(130.126953 0)"/>
      <use xlink:href="#DejaVuSans-61" transform="translate(169.335938 0)"/>
      <use xlink:href="#DejaVuSans-53" transform="translate(230.615234 0)"/>
      <use xlink:href="#DejaVuSans-6f" transform="translate(294.091797 0)"/>
      <use xlink:href="#DejaVuSans-62" transform="translate(355.273438 0)"/>
      <use xlink:href="#DejaVuSans-6f" transform="translate(418.75 0)"/>
      <use xlink:href="#DejaVuSans-6c" transform="translate(479.931641 0)"/>
      <use xlink:href="#DejaVuSans-65" transform="translate(507.714844 0)"/>
      <use xlink:href="#DejaVuSans-76" transform="translate(569.238281 0)"/>
     </g>
    </g>
   </g>
   <g id="text_27">
    <g clip-path="url(#p3b3e5250e8)">
     <!-- TransitionProbabilities -->
     <g transform="translate(94.494494 274.481566) scale(0.12 -0.12)">
      <use xlink:href="#DejaVuSans-54"/>
      <use xlink:href="#DejaVuSans-72" transform="translate(46.333984 0)"/>
      <use xlink:href="#DejaVuSans-61" transform="translate(87.447266 0)"/>
      <use xlink:href="#DejaVuSans-6e" transform="translate(148.726562 0)"/>
      <use xlink:href="#DejaVuSans-73" transform="translate(212.105469 0)"/>
      <use xlink:href="#DejaVuSans-69" transform="translate(264.205078 0)"/>
      <use xlink:href="#DejaVuSans-74" transform="translate(291.988281 0)"/>
      <use xlink:href="#DejaVuSans-69" transform="translate(331.197266 0)"/>
      <use xlink:href="#DejaVuSans-6f" transform="translate(358.980469 0)"/>
      <use xlink:href="#DejaVuSans-6e" transform="translate(420.162109 0)"/>
      <use xlink:href="#DejaVuSans-50" transform="translate(483.541016 0)"/>
      <use xlink:href="#DejaVuSans-72" transform="translate(542.09375 0)"/>
      <use xlink:href="#DejaVuSans-6f" transform="translate(580.957031 0)"/>
      <use xlink:href="#DejaVuSans-62" transform="translate(642.138672 0)"/>
      <use xlink:href="#DejaVuSans-61" transform="translate(705.615234 0)"/>
      <use xlink:href="#DejaVuSans-62" transform="translate(766.894531 0)"/>
      <use xlink:href="#DejaVuSans-69" transform="translate(830.371094 0)"/>
      <use xlink:href="#DejaVuSans-6c" transform="translate(858.154297 0)"/>
      <use xlink:href="#DejaVuSans-69" transform="translate(885.9375 0)"/>
      <use xlink:href="#DejaVuSans-74" transform="translate(913.720703 0)"/>
      <use xlink:href="#DejaVuSans-69" transform="translate(952.929688 0)"/>
      <use xlink:href="#DejaVuSans-65" transform="translate(980.712891 0)"/>
      <use xlink:href="#DejaVuSans-73" transform="translate(1042.236328 0)"/>
     </g>
    </g>
   </g>
   <g id="text_28">
    <g clip-path="url(#p3b3e5250e8)">
     <!-- MacroAtomData -->
     <g transform="translate(368.432981 174.327361) scale(0.12 -0.12)">
      <defs>
       <path id="DejaVuSans-4d" d="M 628 4666 
L 1569 4666 
L 2759 1491 
L 3956 4666 
L 4897 4666 
L 4897 0 
L 4281 0 
L 4281 4097 
L 3078 897 
L 2444 897 
L 1241 4097 
L 1241 0 
L 628 0 
L 628 4666 
z
" transform="scale(0.015625)"/>
      </defs>
      <use xlink:href="#DejaVuSans-4d"/>
      <use xlink:href="#DejaVuSans-61" transform="translate(86.279297 0)"/>
      <use xlink:href="#DejaVuSans-63" transform="translate(147.558594 0)"/>
      <use xlink:href="#DejaVuSans-72" transform="translate(202.539062 0)"/>
      <use xlink:href="#DejaVuSans-6f" transform="translate(241.402344 0)"/>
      <use xlink:href="#DejaVuSans-41" transform="translate(302.583984 0)"/>
      <use xlink:href="#DejaVuSans-74" transform="translate(369.242188 0)"/>
      <use xlink:href="#DejaVuSans-6f" transform="translate(408.451172 0)"/>
      <use xlink:href="#DejaVuSans-6d" transform="translate(469.632812 0)"/>
      <use xlink:href="#DejaVuSans-44" transform="translate(567.044922 0)"/>
      <use xlink:href="#DejaVuSans-61" transform="translate(644.046875 0)"/>
      <use xlink:href="#DejaVuSans-74" transform="translate(705.326172 0)"/>
      <use xlink:href="#DejaVuSans-61" transform="translate(744.535156 0)"/>
     </g>
    </g>
   </g>
   <g id="text_29">
    <g clip-path="url(#p3b3e5250e8)">
     <!-- LevelNumberDensity -->
     <g transform="translate(230.431606 55.248914) scale(0.12 -0.12)">
      <use xlink:href="#DejaVuSans-4c"/>
      <use xlink:href="#DejaVuSans-65" transform="translate(53.962891 0)"/>
      <use xlink:href="#DejaVuSans-76" transform="translate(115.486328 0)"/>
      <use xlink:href="#DejaVuSans-65" transform="translate(174.666016 0)"/>
      <use xlink:href="#DejaVuSans-6c" transform="translate(236.189453 0)"/>
      <use xlink:href="#DejaVuSans-4e" transform="translate(263.972656 0)"/>
      <use xlink:href="#DejaVuSans-75" transform="translate(338.777344 0)"/>
      <use xlink:href="#DejaVuSans-6d" transform="translate(402.15625 0)"/>
      <use xlink:href="#DejaVuSans-62" transform="translate(499.568359 0)"/>
      <use xlink:href="#DejaVuSans-65" transform="translate(563.044922 0)"/>
      <use xlink:href="#DejaVuSans-72" transform="translate(624.568359 0)"/>
      <use xlink:href="#DejaVuSans-44" transform="translate(665.681641 0)"/>
      <use xlink:href="#DejaVuSans-65" transform="translate(742.683594 0)"/>
      <use xlink:href="#DejaVuSans-6e" transform="translate(804.207031 0)"/>
      <use xlink:href="#DejaVuSans-73" transform="translate(867.585938 0)"/>
      <use xlink:href="#DejaVuSans-69" transform="translate(919.685547 0)"/>
      <use xlink:href="#DejaVuSans-74" transform="translate(947.46875 0)"/>
      <use xlink:href="#DejaVuSans-79" transform="translate(986.677734 0)"/>
     </g>
    </g>
   </g>
   <g id="text_30">
    <g clip-path="url(#p3b3e5250e8)">
     <!-- IonNumberDensity -->
     <g transform="translate(371.856036 235.848854) scale(0.12 -0.12)">
      <use xlink:href="#DejaVuSans-49"/>
      <use xlink:href="#DejaVuSans-6f" transform="translate(29.492188 0)"/>
      <use xlink:href="#DejaVuSans-6e" transform="translate(90.673828 0)"/>
      <use xlink:href="#DejaVuSans-4e" transform="translate(154.052734 0)"/>
      <use xlink:href="#DejaVuSans-75" transform="translate(228.857422 0)"/>
      <use xlink:href="#DejaVuSans-6d" transform="translate(292.236328 0)"/>
      <use xlink:href="#DejaVuSans-62" transform="translate(389.648438 0)"/>
      <use xlink:href="#DejaVuSans-65" transform="translate(453.125 0)"/>
      <use xlink:href="#DejaVuSans-72" transform="translate(514.648438 0)"/>
      <use xlink:href="#DejaVuSans-44" transform="translate(555.761719 0)"/>
      <use xlink:href="#DejaVuSans-65" transform="translate(632.763672 0)"/>
      <use xlink:href="#DejaVuSans-6e" transform="translate(694.287109 0)"/>
      <use xlink:href="#DejaVuSans-73" transform="translate(757.666016 0)"/>
      <use xlink:href="#DejaVuSans-69" transform="translate(809.765625 0)"/>
      <use xlink:href="#DejaVuSans-74" transform="translate(837.548828 0)"/>
      <use xlink:href="#DejaVuSans-79" transform="translate(876.757812 0)"/>
     </g>
    </g>
   </g>
  </g>
 </g>
 <defs>
  <clipPath id="p3b3e5250e8">
   <rect x="7.2" y="7.2" width="460.8" height="345.6"/>
  </clipPath>
 </defs>
</svg>
