<?xml version="1.0" encoding="utf-8" standalone="no"?>
<!DOCTYPE svg PUBLIC "-//W3C//DTD SVG 1.1//EN"
  "http://www.w3.org/Graphics/SVG/1.1/DTD/svg11.dtd">
<svg xmlns:xlink="http://www.w3.org/1999/xlink" width="475.2pt" height="360pt" viewBox="0 0 475.2 360" xmlns="http://www.w3.org/2000/svg" version="1.1">
 <metadata>
  <rdf:RDF xmlns:dc="http://purl.org/dc/elements/1.1/" xmlns:cc="http://creativecommons.org/ns#" xmlns:rdf="http://www.w3.org/1999/02/22-rdf-syntax-ns#">
   <cc:Work>
    <dc:type rdf:resource="http://purl.org/dc/dcmitype/StillImage"/>
    <dc:date>2026-07-22T21:28:12.588230</dc:date>
    <dc:format>image/svg+xml</dc:format>
    <dc:creator>
     <cc:Agent>
      <dc:title>Matplotlib v3.10.9, https://matplotlib.org/</dc:title>
     </cc:Agent>
    </dc:creator>
   </cc:Work>
  </rdf:RDF>
 </metadata>
 <defs>
  <style type="text/css">*{stroke-linejoin: round; stroke-linecap: butt}</style>
 </defs>
 <g id="figure_1">
  <g id="patch_1">
   <path d="M 0 360 
L 475.2 360 
L 475.2 0 
L 0 0 
z
" style="fill: #ffffff"/>
  </g>
  <g id="axes_1">
   <g id="patch_2">
    <path d="M 329.943288 244.691809 
Q 302.367248 219.043814 275.609878 194.15725 
" clip-path="url(#p9452458503)" style="fill: none; stroke: #000000; stroke-linecap: round"/>
    <path d="M 277.176754 198.345913 
L 275.609878 194.15725 
L 279.900934 195.416947 
z
" clip-path="url(#p9452458503)" style="stroke: #000000; stroke-linecap: round"/>
   </g>
   <g id="patch_3">
    <path d="M 342.618572 256.494018 
Q 370.188824 282.193854 396.941252 307.131348 
" clip-path="url(#p9452458503)" style="fill: none; stroke: #000000; stroke-linecap: round"/>
    <path d="M 395.379034 302.940946 
L 396.941252 307.131348 
L 392.651599 305.866881 
z
" clip-path="url(#p9452458503)" style="stroke: #000000; stroke-linecap: round"/>
   </g>
   <g id="patch_4">
    <path d="M 166.486696 176.921542 
Q 193.01776 174.608005 218.435017 172.391593 
" clip-path="url(#p9452458503)" style="fill: none; stroke: #000000; stroke-linecap: round"/>
    <path d="M 214.276396 170.74664 
L 218.435017 172.391593 
L 214.623882 174.731518 
z
" clip-path="url(#p9452458503)" style="stroke: #000000; stroke-linecap: round"/>
   </g>
   <g id="patch_5">
    <path d="M 149.233183 178.495717 
Q 120.971643 181.188447 93.823097 183.775132 
" clip-path="url(#p9452458503)" style="fill: none; stroke: #000000; stroke-linecap: round"/>
    <path d="M 97.994763 185.386717 
L 93.823097 183.775132 
L 97.615365 181.404751 
z
" clip-path="url(#p9452458503)" style="stroke: #000000; stroke-linecap: round"/>
   </g>
   <g id="patch_6">
    <path d="M 93.569428 220.079351 
Q 86.221704 214.711798 79.776783 210.003748 
" clip-path="url(#p9452458503)" style="fill: none; stroke: #000000; stroke-linecap: round"/>
    <path d="M 81.826998 213.978244 
L 79.776783 210.003748 
L 84.186509 210.748274 
z
" clip-path="url(#p9452458503)" style="stroke: #000000; stroke-linecap: round"/>
   </g>
   <g id="patch_7">
    <path d="M 195.917391 176.773253 
Q 155.168917 188.587102 115.494258 200.089628 
" clip-path="url(#p9452458503)" style="fill: none; stroke: #000000; stroke-linecap: round"/>
    <path d="M 119.892965 200.896708 
L 115.494258 200.089628 
L 118.779146 197.054911 
z
" clip-path="url(#p9452458503)" style="stroke: #000000; stroke-linecap: round"/>
   </g>
   <g id="patch_8">
    <path d="M 196.111602 177.372653 
Q 154.781043 192.691868 114.498824 207.622515 
" clip-path="url(#p9452458503)" style="fill: none; stroke: #000000; stroke-linecap: round"/>
    <path d="M 118.944567 208.107658 
L 114.498824 207.622515 
L 117.554384 204.357006 
z
" clip-path="url(#p9452458503)" style="stroke: #000000; stroke-linecap: round"/>
   </g>
   <g id="patch_9">
    <path d="M 196.182376 171.164861 
Q 168.753863 160.27284 142.364453 149.793453 
" clip-path="url(#p9452458503)" style="fill: none; stroke: #000000; stroke-linecap: round"/>
    <path d="M 145.343917 153.128539 
L 142.364453 149.793453 
L 146.820199 149.410933 
z
" clip-path="url(#p9452458503)" style="stroke: #000000; stroke-linecap: round"/>
   </g>
   <g id="patch_10">
    <path d="M 195.650113 175.499213 
Q 125.711323 184.763907 56.880884 193.881779 
" clip-path="url(#p9452458503)" style="fill: none; stroke: #000000; stroke-linecap: round"/>
    <path d="M 61.108886 195.339173 
L 56.880884 193.881779 
L 60.5836 191.373814 
z
" clip-path="url(#p9452458503)" style="stroke: #000000; stroke-linecap: round"/>
   </g>
   <g id="patch_11">
    <path d="M 212.787411 173.023768 
Q 316.122796 156.854961 418.353587 140.858989 
" clip-path="url(#p9452458503)" style="fill: none; stroke: #000000; stroke-linecap: round"/>
    <path d="M 414.092494 139.501384 
L 418.353587 140.858989 
L 414.710848 143.4533 
z
" clip-path="url(#p9452458503)" style="stroke: #000000; stroke-linecap: round"/>
   </g>
   <g id="patch_12">
    <path d="M 65.008031 184.835168 
Q 59.84461 187.828344 55.648454 190.260807 
" clip-path="url(#p9452458503)" style="fill: none; stroke: #000000; stroke-linecap: round"/>
    <path d="M 60.112079 189.985038 
L 55.648454 190.260807 
L 58.106013 186.524445 
z
" clip-path="url(#p9452458503)" style="stroke: #000000; stroke-linecap: round"/>
   </g>
   <g id="patch_13">
    <path d="M 374.392422 207.065067 
Q 386.615112 209.453042 397.740514 211.626638 
" clip-path="url(#p9452458503)" style="fill: none; stroke: #000000; stroke-linecap: round"/>
    <path d="M 394.198231 208.896761 
L 397.740514 211.626638 
L 393.431242 212.822538 
z
" clip-path="url(#p9452458503)" style="stroke: #000000; stroke-linecap: round"/>
   </g>
   <g id="patch_14">
    <path d="M 259.929368 185.930076 
Q 198.540207 174.633227 138.250618 163.538722 
" clip-path="url(#p9452458503)" style="fill: none; stroke: #000000; stroke-linecap: round"/>
    <path d="M 141.822602 166.229621 
L 138.250618 163.538722 
L 142.546527 162.295675 
z
" clip-path="url(#p9452458503)" style="stroke: #000000; stroke-linecap: round"/>
   </g>
   <g id="patch_15">
    <path d="M 276.965091 189.092303 
Q 337.894855 200.500029 397.72568 211.702004 
" clip-path="url(#p9452458503)" style="fill: none; stroke: #000000; stroke-linecap: round"/>
    <path d="M 394.162057 209.000044 
L 397.72568 211.702004 
L 393.425938 212.931726 
z
" clip-path="url(#p9452458503)" style="stroke: #000000; stroke-linecap: round"/>
   </g>
   <g id="patch_16">
    <path d="M 127.329929 153.211234 
Q 126.886921 150.309956 126.612674 148.513902 
" clip-path="url(#p9452458503)" style="fill: none; stroke: #000000; stroke-linecap: round"/>
    <path d="M 125.239368 152.76996 
L 126.612674 148.513902 
L 129.193537 152.166181 
z
" clip-path="url(#p9452458503)" style="stroke: #000000; stroke-linecap: round"/>
   </g>
   <g id="patch_17">
    <path d="M 132.267641 169.628747 
Q 134.74384 174.988539 136.751136 179.333377 
" clip-path="url(#p9452458503)" style="fill: none; stroke: #000000; stroke-linecap: round"/>
    <path d="M 136.889138 174.863371 
L 136.751136 179.333377 
L 133.257932 176.540972 
z
" clip-path="url(#p9452458503)" style="stroke: #000000; stroke-linecap: round"/>
   </g>
   <g id="patch_18">
    <path d="M 120.032801 162.735169 
Q 116.637062 163.116264 114.352383 163.372667 
" clip-path="url(#p9452458503)" style="fill: none; stroke: #000000; stroke-linecap: round"/>
    <path d="M 118.550482 164.914081 
L 114.352383 163.372667 
L 118.104374 160.939036 
z
" clip-path="url(#p9452458503)" style="stroke: #000000; stroke-linecap: round"/>
   </g>
   <g id="patch_19">
    <path d="M 99.620693 208.562496 
Q 99.392192 208.765216 100.000031 208.225955 
" clip-path="url(#p9452458503)" style="fill: none; stroke: #000000; stroke-linecap: round"/>
    <path d="M 104.319506 207.06745 
L 100.000031 208.225955 
L 101.664912 204.075272 
z
" clip-path="url(#p9452458503)" style="stroke: #000000; stroke-linecap: round"/>
   </g>
   <g id="patch_20">
    <path d="M 99.201428 208.048052 
Q 94.006973 211.989173 89.703204 215.254515 
" clip-path="url(#p9452458503)" style="fill: none; stroke: #000000; stroke-linecap: round"/>
    <path d="M 94.098692 214.430083 
L 89.703204 215.254515 
L 91.680951 211.243465 
z
" clip-path="url(#p9452458503)" style="stroke: #000000; stroke-linecap: round"/>
   </g>
   <g id="patch_21">
    <path d="M 97.734517 200.580075 
Q 92.130914 199.084813 87.607549 197.877801 
" clip-path="url(#p9452458503)" style="fill: none; stroke: #000000; stroke-linecap: round"/>
    <path d="M 90.956686 200.841462 
L 87.607549 197.877801 
L 91.98796 196.976688 
z
" clip-path="url(#p9452458503)" style="stroke: #000000; stroke-linecap: round"/>
   </g>
   <g id="patch_22">
    <path d="M 114.089313 199.456177 
Q 123.480129 195.50998 131.840219 191.996915 
" clip-path="url(#p9452458503)" style="fill: none; stroke: #000000; stroke-linecap: round"/>
    <path d="M 127.37777 191.70271 
L 131.840219 191.996915 
L 128.927386 195.39035 
z
" clip-path="url(#p9452458503)" style="stroke: #000000; stroke-linecap: round"/>
   </g>
   <g id="patch_23">
    <path d="M 97.448509 203.20833 
Q 96.96204 203.230569 97.592438 203.20175 
" clip-path="url(#p9452458503)" style="fill: none; stroke: #000000; stroke-linecap: round"/>
    <path d="M 101.6796 205.016993 
L 97.592438 203.20175 
L 101.496929 201.021167 
z
" clip-path="url(#p9452458503)" style="stroke: #000000; stroke-linecap: round"/>
   </g>
   <g id="patch_24">
    <path d="M 97.018268 213.448438 
Q 94.853046 214.080811 93.761023 214.399746 
" clip-path="url(#p9452458503)" style="fill: none; stroke: #000000; stroke-linecap: round"/>
    <path d="M 98.161313 215.198154 
L 93.761023 214.399746 
L 97.039923 211.35856 
z
" clip-path="url(#p9452458503)" style="stroke: #000000; stroke-linecap: round"/>
   </g>
   <g id="patch_25">
    <path d="M 97.381045 214.4643 
Q 93.621906 216.092683 90.888683 217.27666 
" clip-path="url(#p9452458503)" style="fill: none; stroke: #000000; stroke-linecap: round"/>
    <path d="M 95.354089 217.521918 
L 90.888683 217.27666 
L 93.764134 213.85149 
z
" clip-path="url(#p9452458503)" style="stroke: #000000; stroke-linecap: round"/>
   </g>
   <g id="patch_26">
    <path d="M 96.841788 209.299136 
Q 88.604738 207.628479 81.463412 206.18006 
" clip-path="url(#p9452458503)" style="fill: none; stroke: #000000; stroke-linecap: round"/>
    <path d="M 84.986043 208.93525 
L 81.463412 206.18006 
L 85.781142 205.015069 
z
" clip-path="url(#p9452458503)" style="stroke: #000000; stroke-linecap: round"/>
   </g>
   <g id="patch_27">
    <path d="M 97.8244 206.693633 
Q 91.742561 203.187466 86.629326 200.239696 
" clip-path="url(#p9452458503)" style="fill: none; stroke: #000000; stroke-linecap: round"/>
    <path d="M 89.095814 203.970171 
L 86.629326 200.239696 
L 91.093598 200.50479 
z
" clip-path="url(#p9452458503)" style="stroke: #000000; stroke-linecap: round"/>
   </g>
   <g id="patch_28">
    <path d="M 106.698874 172.882236 
Q 106.698371 172.880181 106.963655 173.964107 
" clip-path="url(#p9452458503)" style="fill: none; stroke: #000000; stroke-linecap: round"/>
    <path d="M 105.9719 178.32489 
L 106.963655 173.964107 
L 109.857228 177.373981 
z
" clip-path="url(#p9452458503)" style="stroke: #000000; stroke-linecap: round"/>
   </g>
   <g id="patch_29">
    <path d="M 102.836282 187.616216 
Q 98.288352 192.47264 94.504648 196.513 
" clip-path="url(#p9452458503)" style="fill: none; stroke: #000000; stroke-linecap: round"/>
    <path d="M 98.698642 194.960449 
L 94.504648 196.513 
L 95.779003 192.226275 
z
" clip-path="url(#p9452458503)" style="stroke: #000000; stroke-linecap: round"/>
   </g>
   <g id="patch_30">
    <path d="M 100.177087 182.479158 
Q 96.419375 182.998452 93.769171 183.364694 
" clip-path="url(#p9452458503)" style="fill: none; stroke: #000000; stroke-linecap: round"/>
    <path d="M 98.0053 184.798293 
L 93.769171 183.364694 
L 97.457728 180.83595 
z
" clip-path="url(#p9452458503)" style="stroke: #000000; stroke-linecap: round"/>
   </g>
   <g id="patch_31">
    <path d="M 119.724635 145.613023 
Q 114.887684 151.656612 110.749347 156.827309 
" clip-path="url(#p9452458503)" style="fill: none; stroke: #000000; stroke-linecap: round"/>
    <path d="M 114.810258 154.954076 
L 110.749347 156.827309 
L 111.687307 152.45464 
z
" clip-path="url(#p9452458503)" style="stroke: #000000; stroke-linecap: round"/>
   </g>
   <g id="patch_32">
    <path d="M 125.971464 150.844771 
Q 118.954587 155.324009 112.880103 159.20167 
" clip-path="url(#p9452458503)" style="fill: none; stroke: #000000; stroke-linecap: round"/>
    <path d="M 117.327845 158.7352 
L 112.880103 159.20167 
L 115.175573 155.363595 
z
" clip-path="url(#p9452458503)" style="stroke: #000000; stroke-linecap: round"/>
   </g>
   <g id="patch_33">
    <path d="M 87.489565 207.787608 
Q 85.424574 205.036446 84.03074 203.179458 
" clip-path="url(#p9452458503)" style="fill: none; stroke: #000000; stroke-linecap: round"/>
    <path d="M 84.832397 207.579156 
L 84.03074 203.179458 
L 88.031493 205.177951 
z
" clip-path="url(#p9452458503)" style="stroke: #000000; stroke-linecap: round"/>
   </g>
   <g id="patch_34">
    <path d="M 80.666754 212.592172 
Q 80.036435 208.260121 79.567097 205.034454 
" clip-path="url(#p9452458503)" style="fill: none; stroke: #000000; stroke-linecap: round"/>
    <path d="M 78.163878 209.280744 
L 79.567097 205.034454 
L 82.122197 208.704803 
z
" clip-path="url(#p9452458503)" style="stroke: #000000; stroke-linecap: round"/>
   </g>
   <g id="patch_35">
    <path d="M 70.106211 212.715312 
Q 70.047501 212.995575 70.218024 212.181556 
" clip-path="url(#p9452458503)" style="fill: none; stroke: #000000; stroke-linecap: round"/>
    <path d="M 72.995668 208.676604 
L 70.218024 212.181556 
L 69.080648 207.85647 
z
" clip-path="url(#p9452458503)" style="stroke: #000000; stroke-linecap: round"/>
   </g>
   <g id="patch_36">
    <path d="M 63.751966 201.250461 
Q 59.53585 199.70185 56.369213 198.538721 
" clip-path="url(#p9452458503)" style="fill: none; stroke: #000000; stroke-linecap: round"/>
    <path d="M 59.43437 201.795223 
L 56.369213 198.538721 
L 60.813509 198.040496 
z
" clip-path="url(#p9452458503)" style="stroke: #000000; stroke-linecap: round"/>
   </g>
   <g id="patch_37">
    <path d="M 73.16186 202.426495 
Q 72.522091 203.331648 72.527638 203.323802 
" clip-path="url(#p9452458503)" style="fill: none; stroke: #000000; stroke-linecap: round"/>
    <path d="M 76.469609 201.211726 
L 72.527638 203.323802 
L 73.20316 198.902979 
z
" clip-path="url(#p9452458503)" style="stroke: #000000; stroke-linecap: round"/>
   </g>
   <g id="patch_38">
    <path d="M 69.497175 195.303239 
Q 62.670879 195.261231 56.962597 195.226103 
" clip-path="url(#p9452458503)" style="fill: none; stroke: #000000; stroke-linecap: round"/>
    <path d="M 60.950213 197.25068 
L 56.962597 195.226103 
L 60.974828 193.250756 
z
" clip-path="url(#p9452458503)" style="stroke: #000000; stroke-linecap: round"/>
   </g>
   <g id="patch_39">
    <path d="M 219.78894 173.690404 
Q 167.141599 187.176642 115.577322 200.38544 
" clip-path="url(#p9452458503)" style="fill: none; stroke: #000000; stroke-linecap: round"/>
    <path d="M 119.948508 201.330286 
L 115.577322 200.38544 
L 118.95591 197.455399 
z
" clip-path="url(#p9452458503)" style="stroke: #000000; stroke-linecap: round"/>
   </g>
   <g id="patch_40">
    <path d="M 219.930902 174.191609 
Q 166.752242 191.281648 114.638 208.029616 
" clip-path="url(#p9452458503)" style="fill: none; stroke: #000000; stroke-linecap: round"/>
    <path d="M 119.058097 208.70987 
L 114.638 208.029616 
L 117.834262 204.901691 
z
" clip-path="url(#p9452458503)" style="stroke: #000000; stroke-linecap: round"/>
   </g>
   <g id="patch_41">
    <path d="M 219.807775 169.306507 
Q 180.725062 158.863086 142.722485 148.708293 
" clip-path="url(#p9452458503)" style="fill: none; stroke: #000000; stroke-linecap: round"/>
    <path d="M 146.070587 151.673122 
L 142.722485 148.708293 
L 147.10321 147.808709 
z
" clip-path="url(#p9452458503)" style="stroke: #000000; stroke-linecap: round"/>
   </g>
   <g id="patch_42">
    <path d="M 236.72193 170.165296 
Q 328.092886 155.445093 418.360041 140.902717 
" clip-path="url(#p9452458503)" style="fill: none; stroke: #000000; stroke-linecap: round"/>
    <path d="M 414.092855 139.564388 
L 418.360041 140.902717 
L 414.729067 143.513468 
z
" clip-path="url(#p9452458503)" style="stroke: #000000; stroke-linecap: round"/>
   </g>
   <g id="patch_43">
    <path d="M 132.408488 190.139951 
Q 128.007618 191.145877 124.696673 191.902675 
" clip-path="url(#p9452458503)" style="fill: none; stroke: #000000; stroke-linecap: round"/>
    <path d="M 129.041759 192.96108 
L 124.696673 191.902675 
L 128.150449 189.061649 
z
" clip-path="url(#p9452458503)" style="stroke: #000000; stroke-linecap: round"/>
   </g>
   <g id="patch_44">
    <path d="M 98.468941 170.538331 
Q 94.362149 174.582639 91.051964 177.842461 
" clip-path="url(#p9452458503)" style="fill: none; stroke: #000000; stroke-linecap: round"/>
    <path d="M 95.30532 176.460811 
L 91.051964 177.842461 
L 92.498657 173.610785 
z
" clip-path="url(#p9452458503)" style="stroke: #000000; stroke-linecap: round"/>
   </g>
   <g id="patch_45">
    <path d="M 111.287789 186.341596 
Q 110.022621 183.817499 109.258441 182.292907 
" clip-path="url(#p9452458503)" style="fill: none; stroke: #000000; stroke-linecap: round"/>
    <path d="M 109.262861 186.765041 
L 109.258441 182.292907 
L 112.8388 184.972652 
z
" clip-path="url(#p9452458503)" style="stroke: #000000; stroke-linecap: round"/>
   </g>
   <g id="patch_46">
    <path d="M 106.992372 196.941109 
Q 101.495549 198.864375 97.054029 200.418403 
" clip-path="url(#p9452458503)" style="fill: none; stroke: #000000; stroke-linecap: round"/>
    <path d="M 101.490106 200.985166 
L 97.054029 200.418403 
L 100.169086 197.209599 
z
" clip-path="url(#p9452458503)" style="stroke: #000000; stroke-linecap: round"/>
   </g>
   <g id="patch_47">
    <path d="M 63.205525 207.88841 
Q 58.588794 204.221693 54.847561 201.250319 
" clip-path="url(#p9452458503)" style="fill: none; stroke: #000000; stroke-linecap: round"/>
    <path d="M 56.735978 205.304191 
L 54.847561 201.250319 
L 59.223709 202.17191 
z
" clip-path="url(#p9452458503)" style="stroke: #000000; stroke-linecap: round"/>
   </g>
   <g id="patch_48">
    <path d="M 79.171385 203.967733 
Q 75.526854 204.102267 72.999596 204.195559 
" clip-path="url(#p9452458503)" style="fill: none; stroke: #000000; stroke-linecap: round"/>
    <path d="M 77.070652 206.046642 
L 72.999596 204.195559 
L 76.923096 202.049364 
z
" clip-path="url(#p9452458503)" style="stroke: #000000; stroke-linecap: round"/>
   </g>
   <g id="patch_49">
    <path d="M 81.251953 198.010498 
Q 79.70545 196.68352 79.007441 196.084593 
" clip-path="url(#p9452458503)" style="fill: none; stroke: #000000; stroke-linecap: round"/>
    <path d="M 80.740728 200.207179 
L 79.007441 196.084593 
L 83.345482 197.171516 
z
" clip-path="url(#p9452458503)" style="stroke: #000000; stroke-linecap: round"/>
   </g>
   <g id="patch_50">
    <path d="M 85.761511 193.199701 
Q 85.953977 194.175438 85.930077 194.054278 
" clip-path="url(#p9452458503)" style="fill: none; stroke: #000000; stroke-linecap: round"/>
    <path d="M 87.118181 189.74285 
L 85.930077 194.054278 
L 83.193797 190.516938 
z
" clip-path="url(#p9452458503)" style="stroke: #000000; stroke-linecap: round"/>
   </g>
   <g id="PathCollection_1">
    <defs>
     <path id="m259da868ec" d="M 0 8.660254 
C 2.296726 8.660254 4.499694 7.747755 6.123724 6.123724 
C 7.747755 4.499694 8.660254 2.296726 8.660254 0 
C 8.660254 -2.296726 7.747755 -4.499694 6.123724 -6.123724 
C 4.499694 -7.747755 2.296726 -8.660254 0 -8.660254 
C -2.296726 -8.660254 -4.499694 -7.747755 -6.123724 -6.123724 
C -7.747755 -4.499694 -8.660254 -2.296726 -8.660254 0 
C -8.660254 2.296726 -7.747755 4.499694 -6.123724 6.123724 
C -4.499694 7.747755 -2.296726 8.660254 0 8.660254 
z
" style="stroke: #1f78b4"/>
    </defs>
    <g clip-path="url(#p9452458503)">
     <use xlink:href="#m259da868ec" x="336.284094" y="250.589282" style="fill: #1f78b4; stroke: #1f78b4"/>
     <use xlink:href="#m259da868ec" x="157.855603" y="177.674182" style="fill: #1f78b4; stroke: #1f78b4"/>
     <use xlink:href="#m259da868ec" x="100.560413" y="225.186303" style="fill: #1f78b4; stroke: #1f78b4"/>
     <use xlink:href="#m259da868ec" x="204.233831" y="174.36214" style="fill: #1f78b4; stroke: #1f78b4"/>
     <use xlink:href="#m259da868ec" x="72.501796" y="180.491119" style="fill: #1f78b4; stroke: #1f78b4"/>
     <use xlink:href="#m259da868ec" x="365.890599" y="205.404046" style="fill: #1f78b4; stroke: #1f78b4"/>
     <use xlink:href="#m259da868ec" x="300.129655" y="22.909091" style="fill: #1f78b4; stroke: #1f78b4"/>
     <use xlink:href="#m259da868ec" x="161.95502" y="337.090909" style="fill: #1f78b4; stroke: #1f78b4"/>
     <use xlink:href="#m259da868ec" x="268.450097" y="187.498062" style="fill: #1f78b4; stroke: #1f78b4"/>
     <use xlink:href="#m259da868ec" x="404.094671" y="313.799467" style="fill: #1f78b4; stroke: #1f78b4"/>
     <use xlink:href="#m259da868ec" x="128.636739" y="161.769574" style="fill: #1f78b4; stroke: #1f78b4"/>
     <use xlink:href="#m259da868ec" x="106.101631" y="202.81275" style="fill: #1f78b4; stroke: #1f78b4"/>
     <use xlink:href="#m259da868ec" x="105.330374" y="211.02081" style="fill: #1f78b4; stroke: #1f78b4"/>
     <use xlink:href="#m259da868ec" x="108.757453" y="181.293402" style="fill: #1f78b4; stroke: #1f78b4"/>
     <use xlink:href="#m259da868ec" x="125.137104" y="138.850346" style="fill: #1f78b4; stroke: #1f78b4"/>
     <use xlink:href="#m259da868ec" x="133.273612" y="146.183428" style="fill: #1f78b4; stroke: #1f78b4"/>
     <use xlink:href="#m259da868ec" x="92.687824" y="214.713184" style="fill: #1f78b4; stroke: #1f78b4"/>
     <use xlink:href="#m259da868ec" x="81.914011" y="221.164307" style="fill: #1f78b4; stroke: #1f78b4"/>
     <use xlink:href="#m259da868ec" x="71.882323" y="204.236802" style="fill: #1f78b4; stroke: #1f78b4"/>
     <use xlink:href="#m259da868ec" x="78.158948" y="195.356542" style="fill: #1f78b4; stroke: #1f78b4"/>
     <use xlink:href="#m259da868ec" x="228.174762" y="171.542277" style="fill: #1f78b4; stroke: #1f78b4"/>
     <use xlink:href="#m259da868ec" x="407.334774" y="213.50109" style="fill: #1f78b4; stroke: #1f78b4"/>
     <use xlink:href="#m259da868ec" x="140.852077" y="188.209963" style="fill: #1f78b4; stroke: #1f78b4"/>
     <use xlink:href="#m259da868ec" x="104.638284" y="164.462853" style="fill: #1f78b4; stroke: #1f78b4"/>
     <use xlink:href="#m259da868ec" x="115.167012" y="194.080911" style="fill: #1f78b4; stroke: #1f78b4"/>
     <use xlink:href="#m259da868ec" x="69.98879" y="213.275838" style="fill: #1f78b4; stroke: #1f78b4"/>
     <use xlink:href="#m259da868ec" x="47.186777" y="195.165944" style="fill: #1f78b4; stroke: #1f78b4"/>
     <use xlink:href="#m259da868ec" x="428.013223" y="139.347553" style="fill: #1f78b4; stroke: #1f78b4"/>
     <use xlink:href="#m259da868ec" x="87.822524" y="203.648384" style="fill: #1f78b4; stroke: #1f78b4"/>
     <use xlink:href="#m259da868ec" x="84.085513" y="184.702918" style="fill: #1f78b4; stroke: #1f78b4"/>
    </g>
   </g>
  </g>
 </g>
 <defs>
  <clipPath id="p9452458503">
   <rect x="7.2" y="7.2" width="460.8" height="345.6"/>
  </clipPath>
 </defs>
</svg>
