<?xml version="1.0" encoding="utf-8" standalone="no"?>
<!DOCTYPE svg PUBLIC "-//W3C//DTD SVG 1.1//EN"
  "http://www.w3.org/Graphics/SVG/1.1/DTD/svg11.dtd">
<svg xmlns:xlink="http://www.w3.org/1999/xlink" width="409.823125pt" height="323.988562pt" viewBox="0 0 409.823125 323.988562" xmlns="http://www.w3.org/2000/svg" version="1.1">
 <metadata>
  <rdf:RDF xmlns:dc="http://purl.org/dc/elements/1.1/" xmlns:cc="http://creativecommons.org/ns#" xmlns:rdf="http://www.w3.org/1999/02/22-rdf-syntax-ns#">
   <cc:Work>
    <dc:type rdf:resource="http://purl.org/dc/dcmitype/StillImage"/>
    <dc:date>2025-11-16T02:05:31.587570</dc:date>
    <dc:format>image/svg+xml</dc:format>
    <dc:creator>
     <cc:Agent>
      <dc:title>Matplotlib v3.10.3, https://matplotlib.org/</dc:title>
     </cc:Agent>
    </dc:creator>
   </cc:Work>
  </rdf:RDF>
 </metadata>
 <defs>
  <style type="text/css">*{stroke-linejoin: round; stroke-linecap: butt}</style>
 </defs>
 <g id="figure_1">
  <g id="patch_1">
   <path d="M 0 323.988562 
L 409.823125 323.988562 
L 409.823125 0 
L 0 0 
z
" style="fill: #ffffff"/>
  </g>
  <g id="axes_1">
   <g id="patch_2">
    <path d="M 45.503125 283.910437 
L 402.623125 283.910437 
L 402.623125 17.798437 
L 45.503125 17.798437 
z
" style="fill: #ffffff"/>
   </g>
   <g id="matplotlib.axis_1">
    <g id="xtick_1">
     <g id="line2d_1">
      <defs>
       <path id="m5b57fcef84" d="M 0 0 
L 0 3.5 
" style="stroke: #000000; stroke-width: 0.8"/>
      </defs>
      <g>
       <use xlink:href="#m5b57fcef84" x="87.366088" y="283.910437" style="stroke: #000000; stroke-width: 0.8"/>
      </g>
     </g>
     <g id="text_1">
      <!-- 2500 -->
      <g transform="translate(74.641088 298.508875) scale(0.1 -0.1)">
       <defs>
        <path id="DejaVuSans-32" d="M 1228 531 
L 3431 531 
L 3431 0 
L 469 0 
L 469 531 
Q 828 903 1448 1529 
Q 2069 2156 2228 2338 
Q 2531 2678 2651 2914 
Q 2772 3150 2772 3378 
Q 2772 3750 2511 3984 
Q 2250 4219 1831 4219 
Q 1534 4219 1204 4116 
Q 875 4013 500 3803 
L 500 4441 
Q 881 4594 1212 4672 
Q 1544 4750 1819 4750 
Q 2544 4750 2975 4387 
Q 3406 4025 3406 3419 
Q 3406 3131 3298 2873 
Q 3191 2616 2906 2266 
Q 2828 2175 2409 1742 
Q 1991 1309 1228 531 
z
" transform="scale(0.015625)"/>
        <path id="DejaVuSans-35" d="M 691 4666 
L 3169 4666 
L 3169 4134 
L 1269 4134 
L 1269 2991 
Q 1406 3038 1543 3061 
Q 1681 3084 1819 3084 
Q 2600 3084 3056 2656 
Q 3513 2228 3513 1497 
Q 3513 744 3044 326 
Q 2575 -91 1722 -91 
Q 1428 -91 1123 -41 
Q 819 9 494 109 
L 494 744 
Q 775 591 1075 516 
Q 1375 441 1709 441 
Q 2250 441 2565 725 
Q 2881 1009 2881 1497 
Q 2881 1984 2565 2268 
Q 2250 2553 1709 2553 
Q 1456 2553 1204 2497 
Q 953 2441 691 2322 
L 691 4666 
z
" transform="scale(0.015625)"/>
        <path id="DejaVuSans-30" d="M 2034 4250 
Q 1547 4250 1301 3770 
Q 1056 3291 1056 2328 
Q 1056 1369 1301 889 
Q 1547 409 2034 409 
Q 2525 409 2770 889 
Q 3016 1369 3016 2328 
Q 3016 3291 2770 3770 
Q 2525 4250 2034 4250 
z
M 2034 4750 
Q 2819 4750 3233 4129 
Q 3647 3509 3647 2328 
Q 3647 1150 3233 529 
Q 2819 -91 2034 -91 
Q 1250 -91 836 529 
Q 422 1150 422 2328 
Q 422 3509 836 4129 
Q 1250 4750 2034 4750 
z
" transform="scale(0.015625)"/>
       </defs>
       <use xlink:href="#DejaVuSans-32"/>
       <use xlink:href="#DejaVuSans-35" transform="translate(63.623047 0)"/>
       <use xlink:href="#DejaVuSans-30" transform="translate(127.246094 0)"/>
       <use xlink:href="#DejaVuSans-30" transform="translate(190.869141 0)"/>
      </g>
     </g>
    </g>
    <g id="xtick_2">
     <g id="line2d_2">
      <g>
       <use xlink:href="#m5b57fcef84" x="130.117647" y="283.910437" style="stroke: #000000; stroke-width: 0.8"/>
      </g>
     </g>
     <g id="text_2">
      <!-- 5000 -->
      <g transform="translate(117.392647 298.508875) scale(0.1 -0.1)">
       <use xlink:href="#DejaVuSans-35"/>
       <use xlink:href="#DejaVuSans-30" transform="translate(63.623047 0)"/>
       <use xlink:href="#DejaVuSans-30" transform="translate(127.246094 0)"/>
       <use xlink:href="#DejaVuSans-30" transform="translate(190.869141 0)"/>
      </g>
     </g>
    </g>
    <g id="xtick_3">
     <g id="line2d_3">
      <g>
       <use xlink:href="#m5b57fcef84" x="172.869207" y="283.910437" style="stroke: #000000; stroke-width: 0.8"/>
      </g>
     </g>
     <g id="text_3">
      <!-- 7500 -->
      <g transform="translate(160.144207 298.508875) scale(0.1 -0.1)">
       <defs>
        <path id="DejaVuSans-37" d="M 525 4666 
L 3525 4666 
L 3525 4397 
L 1831 0 
L 1172 0 
L 2766 4134 
L 525 4134 
L 525 4666 
z
" transform="scale(0.015625)"/>
       </defs>
       <use xlink:href="#DejaVuSans-37"/>
       <use xlink:href="#DejaVuSans-35" transform="translate(63.623047 0)"/>
       <use xlink:href="#DejaVuSans-30" transform="translate(127.246094 0)"/>
       <use xlink:href="#DejaVuSans-30" transform="translate(190.869141 0)"/>
      </g>
     </g>
    </g>
    <g id="xtick_4">
     <g id="line2d_4">
      <g>
       <use xlink:href="#m5b57fcef84" x="215.620766" y="283.910437" style="stroke: #000000; stroke-width: 0.8"/>
      </g>
     </g>
     <g id="text_4">
      <!-- 10000 -->
      <g transform="translate(199.714516 298.508875) scale(0.1 -0.1)">
       <defs>
        <path id="DejaVuSans-31" d="M 794 531 
L 1825 531 
L 1825 4091 
L 703 3866 
L 703 4441 
L 1819 4666 
L 2450 4666 
L 2450 531 
L 3481 531 
L 3481 0 
L 794 0 
L 794 531 
z
" transform="scale(0.015625)"/>
       </defs>
       <use xlink:href="#DejaVuSans-31"/>
       <use xlink:href="#DejaVuSans-30" transform="translate(63.623047 0)"/>
       <use xlink:href="#DejaVuSans-30" transform="translate(127.246094 0)"/>
       <use xlink:href="#DejaVuSans-30" transform="translate(190.869141 0)"/>
       <use xlink:href="#DejaVuSans-30" transform="translate(254.492188 0)"/>
      </g>
     </g>
    </g>
    <g id="xtick_5">
     <g id="line2d_5">
      <g>
       <use xlink:href="#m5b57fcef84" x="258.372326" y="283.910437" style="stroke: #000000; stroke-width: 0.8"/>
      </g>
     </g>
     <g id="text_5">
      <!-- 12500 -->
      <g transform="translate(242.466076 298.508875) scale(0.1 -0.1)">
       <use xlink:href="#DejaVuSans-31"/>
       <use xlink:href="#DejaVuSans-32" transform="translate(63.623047 0)"/>
       <use xlink:href="#DejaVuSans-35" transform="translate(127.246094 0)"/>
       <use xlink:href="#DejaVuSans-30" transform="translate(190.869141 0)"/>
       <use xlink:href="#DejaVuSans-30" transform="translate(254.492188 0)"/>
      </g>
     </g>
    </g>
    <g id="xtick_6">
     <g id="line2d_6">
      <g>
       <use xlink:href="#m5b57fcef84" x="301.123885" y="283.910437" style="stroke: #000000; stroke-width: 0.8"/>
      </g>
     </g>
     <g id="text_6">
      <!-- 15000 -->
      <g transform="translate(285.217635 298.508875) scale(0.1 -0.1)">
       <use xlink:href="#DejaVuSans-31"/>
       <use xlink:href="#DejaVuSans-35" transform="translate(63.623047 0)"/>
       <use xlink:href="#DejaVuSans-30" transform="translate(127.246094 0)"/>
       <use xlink:href="#DejaVuSans-30" transform="translate(190.869141 0)"/>
       <use xlink:href="#DejaVuSans-30" transform="translate(254.492188 0)"/>
      </g>
     </g>
    </g>
    <g id="xtick_7">
     <g id="line2d_7">
      <g>
       <use xlink:href="#m5b57fcef84" x="343.875445" y="283.910437" style="stroke: #000000; stroke-width: 0.8"/>
      </g>
     </g>
     <g id="text_7">
      <!-- 17500 -->
      <g transform="translate(327.969195 298.508875) scale(0.1 -0.1)">
       <use xlink:href="#DejaVuSans-31"/>
       <use xlink:href="#DejaVuSans-37" transform="translate(63.623047 0)"/>
       <use xlink:href="#DejaVuSans-35" transform="translate(127.246094 0)"/>
       <use xlink:href="#DejaVuSans-30" transform="translate(190.869141 0)"/>
       <use xlink:href="#DejaVuSans-30" transform="translate(254.492188 0)"/>
      </g>
     </g>
    </g>
    <g id="xtick_8">
     <g id="line2d_8">
      <g>
       <use xlink:href="#m5b57fcef84" x="386.627004" y="283.910437" style="stroke: #000000; stroke-width: 0.8"/>
      </g>
     </g>
     <g id="text_8">
      <!-- 20000 -->
      <g transform="translate(370.720754 298.508875) scale(0.1 -0.1)">
       <use xlink:href="#DejaVuSans-32"/>
       <use xlink:href="#DejaVuSans-30" transform="translate(63.623047 0)"/>
       <use xlink:href="#DejaVuSans-30" transform="translate(127.246094 0)"/>
       <use xlink:href="#DejaVuSans-30" transform="translate(190.869141 0)"/>
       <use xlink:href="#DejaVuSans-30" transform="translate(254.492188 0)"/>
      </g>
     </g>
    </g>
    <g id="text_9">
     <!-- Wavelength [$\mathrm{\mathring{A}}$] -->
     <g transform="translate(185.163125 314.688562) scale(0.1 -0.1)">
      <defs>
       <path id="DejaVuSans-57" d="M 213 4666 
L 850 4666 
L 1831 722 
L 2809 4666 
L 3519 4666 
L 4500 722 
L 5478 4666 
L 6119 4666 
L 4947 0 
L 4153 0 
L 3169 4050 
L 2175 0 
L 1381 0 
L 213 4666 
z
" transform="scale(0.015625)"/>
       <path id="DejaVuSans-61" d="M 2194 1759 
Q 1497 1759 1228 1600 
Q 959 1441 959 1056 
Q 959 750 1161 570 
Q 1363 391 1709 391 
Q 2188 391 2477 730 
Q 2766 1069 2766 1631 
L 2766 1759 
L 2194 1759 
z
M 3341 1997 
L 3341 0 
L 2766 0 
L 2766 531 
Q 2569 213 2275 61 
Q 1981 -91 1556 -91 
Q 1019 -91 701 211 
Q 384 513 384 1019 
Q 384 1609 779 1909 
Q 1175 2209 1959 2209 
L 2766 2209 
L 2766 2266 
Q 2766 2663 2505 2880 
Q 2244 3097 1772 3097 
Q 1472 3097 1187 3025 
Q 903 2953 641 2809 
L 641 3341 
Q 956 3463 1253 3523 
Q 1550 3584 1831 3584 
Q 2591 3584 2966 3190 
Q 3341 2797 3341 1997 
z
" transform="scale(0.015625)"/>
       <path id="DejaVuSans-76" d="M 191 3500 
L 800 3500 
L 1894 563 
L 2988 3500 
L 3597 3500 
L 2284 0 
L 1503 0 
L 191 3500 
z
" transform="scale(0.015625)"/>
       <path id="DejaVuSans-65" d="M 3597 1894 
L 3597 1613 
L 953 1613 
Q 991 1019 1311 708 
Q 1631 397 2203 397 
Q 2534 397 2845 478 
Q 3156 559 3463 722 
L 3463 178 
Q 3153 47 2828 -22 
Q 2503 -91 2169 -91 
Q 1331 -91 842 396 
Q 353 884 353 1716 
Q 353 2575 817 3079 
Q 1281 3584 2069 3584 
Q 2775 3584 3186 3129 
Q 3597 2675 3597 1894 
z
M 3022 2063 
Q 3016 2534 2758 2815 
Q 2500 3097 2075 3097 
Q 1594 3097 1305 2825 
Q 1016 2553 972 2059 
L 3022 2063 
z
" transform="scale(0.015625)"/>
       <path id="DejaVuSans-6c" d="M 603 4863 
L 1178 4863 
L 1178 0 
L 603 0 
L 603 4863 
z
" transform="scale(0.015625)"/>
       <path id="DejaVuSans-6e" d="M 3513 2113 
L 3513 0 
L 2938 0 
L 2938 2094 
Q 2938 2591 2744 2837 
Q 2550 3084 2163 3084 
Q 1697 3084 1428 2787 
Q 1159 2491 1159 1978 
L 1159 0 
L 581 0 
L 581 3500 
L 1159 3500 
L 1159 2956 
Q 1366 3272 1645 3428 
Q 1925 3584 2291 3584 
Q 2894 3584 3203 3211 
Q 3513 2838 3513 2113 
z
" transform="scale(0.015625)"/>
       <path id="DejaVuSans-67" d="M 2906 1791 
Q 2906 2416 2648 2759 
Q 2391 3103 1925 3103 
Q 1463 3103 1205 2759 
Q 947 2416 947 1791 
Q 947 1169 1205 825 
Q 1463 481 1925 481 
Q 2391 481 2648 825 
Q 2906 1169 2906 1791 
z
M 3481 434 
Q 3481 -459 3084 -895 
Q 2688 -1331 1869 -1331 
Q 1566 -1331 1297 -1286 
Q 1028 -1241 775 -1147 
L 775 -588 
Q 1028 -725 1275 -790 
Q 1522 -856 1778 -856 
Q 2344 -856 2625 -561 
Q 2906 -266 2906 331 
L 2906 616 
Q 2728 306 2450 153 
Q 2172 0 1784 0 
Q 1141 0 747 490 
Q 353 981 353 1791 
Q 353 2603 747 3093 
Q 1141 3584 1784 3584 
Q 2172 3584 2450 3431 
Q 2728 3278 2906 2969 
L 2906 3500 
L 3481 3500 
L 3481 434 
z
" transform="scale(0.015625)"/>
       <path id="DejaVuSans-74" d="M 1172 4494 
L 1172 3500 
L 2356 3500 
L 2356 3053 
L 1172 3053 
L 1172 1153 
Q 1172 725 1289 603 
Q 1406 481 1766 481 
L 2356 481 
L 2356 0 
L 1766 0 
Q 1100 0 847 248 
Q 594 497 594 1153 
L 594 3053 
L 172 3053 
L 172 3500 
L 594 3500 
L 594 4494 
L 1172 4494 
z
" transform="scale(0.015625)"/>
       <path id="DejaVuSans-68" d="M 3513 2113 
L 3513 0 
L 2938 0 
L 2938 2094 
Q 2938 2591 2744 2837 
Q 2550 3084 2163 3084 
Q 1697 3084 1428 2787 
Q 1159 2491 1159 1978 
L 1159 0 
L 581 0 
L 581 4863 
L 1159 4863 
L 1159 2956 
Q 1366 3272 1645 3428 
Q 1925 3584 2291 3584 
Q 2894 3584 3203 3211 
Q 3513 2838 3513 2113 
z
" transform="scale(0.015625)"/>
       <path id="DejaVuSans-20" transform="scale(0.015625)"/>
       <path id="DejaVuSans-5b" d="M 550 4863 
L 1875 4863 
L 1875 4416 
L 1125 4416 
L 1125 -397 
L 1875 -397 
L 1875 -844 
L 550 -844 
L 550 4863 
z
" transform="scale(0.015625)"/>
       <path id="DejaVuSans-2218" d="M 2003 2603 
Q 1753 2603 1581 2429 
Q 1409 2256 1409 2006 
Q 1409 1759 1581 1589 
Q 1753 1419 2003 1419 
Q 2253 1419 2425 1589 
Q 2597 1759 2597 2006 
Q 2597 2253 2423 2428 
Q 2250 2603 2003 2603 
z
M 2003 3006 
Q 2203 3006 2387 2929 
Q 2572 2853 2706 2709 
Q 2850 2569 2922 2390 
Q 2994 2212 2994 2006 
Q 2994 1594 2705 1308 
Q 2416 1022 1997 1022 
Q 1575 1022 1294 1303 
Q 1013 1584 1013 2006 
Q 1013 2425 1300 2715 
Q 1588 3006 2003 3006 
z
" transform="scale(0.015625)"/>
       <path id="DejaVuSans-41" d="M 2188 4044 
L 1331 1722 
L 3047 1722 
L 2188 4044 
z
M 1831 4666 
L 2547 4666 
L 4325 0 
L 3669 0 
L 3244 1197 
L 1141 1197 
L 716 0 
L 50 0 
L 1831 4666 
z
" transform="scale(0.015625)"/>
       <path id="DejaVuSans-5d" d="M 1947 4863 
L 1947 -844 
L 622 -844 
L 622 -397 
L 1369 -397 
L 1369 4416 
L 622 4416 
L 622 4863 
L 1947 4863 
z
" transform="scale(0.015625)"/>
      </defs>
      <use xlink:href="#DejaVuSans-57" transform="translate(0 0.390625)"/>
      <use xlink:href="#DejaVuSans-61" transform="translate(98.876953 0.390625)"/>
      <use xlink:href="#DejaVuSans-76" transform="translate(160.15625 0.390625)"/>
      <use xlink:href="#DejaVuSans-65" transform="translate(219.335938 0.390625)"/>
      <use xlink:href="#DejaVuSans-6c" transform="translate(280.859375 0.390625)"/>
      <use xlink:href="#DejaVuSans-65" transform="translate(308.642578 0.390625)"/>
      <use xlink:href="#DejaVuSans-6e" transform="translate(370.166016 0.390625)"/>
      <use xlink:href="#DejaVuSans-67" transform="translate(433.544922 0.390625)"/>
      <use xlink:href="#DejaVuSans-74" transform="translate(497.021484 0.390625)"/>
      <use xlink:href="#DejaVuSans-68" transform="translate(536.230469 0.390625)"/>
      <use xlink:href="#DejaVuSans-20" transform="translate(599.609375 0.390625)"/>
      <use xlink:href="#DejaVuSans-5b" transform="translate(631.396484 0.390625)"/>
      <use xlink:href="#DejaVuSans-2218" transform="translate(697.762207 77.96875) scale(0.49)"/>
      <use xlink:href="#DejaVuSans-41" transform="translate(670.410156 0.390625)"/>
      <use xlink:href="#DejaVuSans-5d" transform="translate(738.818359 0.390625)"/>
     </g>
    </g>
   </g>
   <g id="matplotlib.axis_2">
    <g id="ytick_1">
     <g id="line2d_9">
      <defs>
       <path id="m390bbc839e" d="M 0 0 
L -3.5 0 
" style="stroke: #000000; stroke-width: 0.8"/>
      </defs>
      <g>
       <use xlink:href="#m390bbc839e" x="45.503125" y="271.814437" style="stroke: #000000; stroke-width: 0.8"/>
      </g>
     </g>
     <g id="text_10">
      <!-- 0.0 -->
      <g transform="translate(22.6 275.613656) scale(0.1 -0.1)">
       <defs>
        <path id="DejaVuSans-2e" d="M 684 794 
L 1344 794 
L 1344 0 
L 684 0 
L 684 794 
z
" transform="scale(0.015625)"/>
       </defs>
       <use xlink:href="#DejaVuSans-30"/>
       <use xlink:href="#DejaVuSans-2e" transform="translate(63.623047 0)"/>
       <use xlink:href="#DejaVuSans-30" transform="translate(95.410156 0)"/>
      </g>
     </g>
    </g>
    <g id="ytick_2">
     <g id="line2d_10">
      <g>
       <use xlink:href="#m390bbc839e" x="45.503125" y="233.947302" style="stroke: #000000; stroke-width: 0.8"/>
      </g>
     </g>
     <g id="text_11">
      <!-- 0.5 -->
      <g transform="translate(22.6 237.746521) scale(0.1 -0.1)">
       <use xlink:href="#DejaVuSans-30"/>
       <use xlink:href="#DejaVuSans-2e" transform="translate(63.623047 0)"/>
       <use xlink:href="#DejaVuSans-35" transform="translate(95.410156 0)"/>
      </g>
     </g>
    </g>
    <g id="ytick_3">
     <g id="line2d_11">
      <g>
       <use xlink:href="#m390bbc839e" x="45.503125" y="196.080167" style="stroke: #000000; stroke-width: 0.8"/>
      </g>
     </g>
     <g id="text_12">
      <!-- 1.0 -->
      <g transform="translate(22.6 199.879385) scale(0.1 -0.1)">
       <use xlink:href="#DejaVuSans-31"/>
       <use xlink:href="#DejaVuSans-2e" transform="translate(63.623047 0)"/>
       <use xlink:href="#DejaVuSans-30" transform="translate(95.410156 0)"/>
      </g>
     </g>
    </g>
    <g id="ytick_4">
     <g id="line2d_12">
      <g>
       <use xlink:href="#m390bbc839e" x="45.503125" y="158.213031" style="stroke: #000000; stroke-width: 0.8"/>
      </g>
     </g>
     <g id="text_13">
      <!-- 1.5 -->
      <g transform="translate(22.6 162.01225) scale(0.1 -0.1)">
       <use xlink:href="#DejaVuSans-31"/>
       <use xlink:href="#DejaVuSans-2e" transform="translate(63.623047 0)"/>
       <use xlink:href="#DejaVuSans-35" transform="translate(95.410156 0)"/>
      </g>
     </g>
    </g>
    <g id="ytick_5">
     <g id="line2d_13">
      <g>
       <use xlink:href="#m390bbc839e" x="45.503125" y="120.345896" style="stroke: #000000; stroke-width: 0.8"/>
      </g>
     </g>
     <g id="text_14">
      <!-- 2.0 -->
      <g transform="translate(22.6 124.145115) scale(0.1 -0.1)">
       <use xlink:href="#DejaVuSans-32"/>
       <use xlink:href="#DejaVuSans-2e" transform="translate(63.623047 0)"/>
       <use xlink:href="#DejaVuSans-30" transform="translate(95.410156 0)"/>
      </g>
     </g>
    </g>
    <g id="ytick_6">
     <g id="line2d_14">
      <g>
       <use xlink:href="#m390bbc839e" x="45.503125" y="82.478761" style="stroke: #000000; stroke-width: 0.8"/>
      </g>
     </g>
     <g id="text_15">
      <!-- 2.5 -->
      <g transform="translate(22.6 86.277979) scale(0.1 -0.1)">
       <use xlink:href="#DejaVuSans-32"/>
       <use xlink:href="#DejaVuSans-2e" transform="translate(63.623047 0)"/>
       <use xlink:href="#DejaVuSans-35" transform="translate(95.410156 0)"/>
      </g>
     </g>
    </g>
    <g id="ytick_7">
     <g id="line2d_15">
      <g>
       <use xlink:href="#m390bbc839e" x="45.503125" y="44.611625" style="stroke: #000000; stroke-width: 0.8"/>
      </g>
     </g>
     <g id="text_16">
      <!-- 3.0 -->
      <g transform="translate(22.6 48.410844) scale(0.1 -0.1)">
       <defs>
        <path id="DejaVuSans-33" d="M 2597 2516 
Q 3050 2419 3304 2112 
Q 3559 1806 3559 1356 
Q 3559 666 3084 287 
Q 2609 -91 1734 -91 
Q 1441 -91 1130 -33 
Q 819 25 488 141 
L 488 750 
Q 750 597 1062 519 
Q 1375 441 1716 441 
Q 2309 441 2620 675 
Q 2931 909 2931 1356 
Q 2931 1769 2642 2001 
Q 2353 2234 1838 2234 
L 1294 2234 
L 1294 2753 
L 1863 2753 
Q 2328 2753 2575 2939 
Q 2822 3125 2822 3475 
Q 2822 3834 2567 4026 
Q 2313 4219 1838 4219 
Q 1578 4219 1281 4162 
Q 984 4106 628 3988 
L 628 4550 
Q 988 4650 1302 4700 
Q 1616 4750 1894 4750 
Q 2613 4750 3031 4423 
Q 3450 4097 3450 3541 
Q 3450 3153 3228 2886 
Q 3006 2619 2597 2516 
z
" transform="scale(0.015625)"/>
       </defs>
       <use xlink:href="#DejaVuSans-33"/>
       <use xlink:href="#DejaVuSans-2e" transform="translate(63.623047 0)"/>
       <use xlink:href="#DejaVuSans-30" transform="translate(95.410156 0)"/>
      </g>
     </g>
    </g>
    <g id="text_17">
     <!-- $L_\lambda$ [$\mathrm{erg s^{-1} \AA^{-1}}$] -->
     <g transform="translate(16.5 186.404437) rotate(-90) scale(0.1 -0.1)">
      <defs>
       <path id="DejaVuSans-Oblique-4c" d="M 1075 4666 
L 1709 4666 
L 909 525 
L 3181 525 
L 3078 0 
L 172 0 
L 1075 4666 
z
" transform="scale(0.015625)"/>
       <path id="DejaVuSans-Oblique-3bb" d="M 2350 4316 
L 3125 0 
L 2516 0 
L 2038 2588 
L 328 0 
L -281 0 
L 1903 3356 
L 1794 3975 
Q 1725 4369 1391 4369 
L 1091 4369 
L 1184 4863 
L 1550 4856 
Q 2253 4847 2350 4316 
z
" transform="scale(0.015625)"/>
       <path id="DejaVuSans-72" d="M 2631 2963 
Q 2534 3019 2420 3045 
Q 2306 3072 2169 3072 
Q 1681 3072 1420 2755 
Q 1159 2438 1159 1844 
L 1159 0 
L 581 0 
L 581 3500 
L 1159 3500 
L 1159 2956 
Q 1341 3275 1631 3429 
Q 1922 3584 2338 3584 
Q 2397 3584 2469 3576 
Q 2541 3569 2628 3553 
L 2631 2963 
z
" transform="scale(0.015625)"/>
       <path id="DejaVuSans-73" d="M 2834 3397 
L 2834 2853 
Q 2591 2978 2328 3040 
Q 2066 3103 1784 3103 
Q 1356 3103 1142 2972 
Q 928 2841 928 2578 
Q 928 2378 1081 2264 
Q 1234 2150 1697 2047 
L 1894 2003 
Q 2506 1872 2764 1633 
Q 3022 1394 3022 966 
Q 3022 478 2636 193 
Q 2250 -91 1575 -91 
Q 1294 -91 989 -36 
Q 684 19 347 128 
L 347 722 
Q 666 556 975 473 
Q 1284 391 1588 391 
Q 1994 391 2212 530 
Q 2431 669 2431 922 
Q 2431 1156 2273 1281 
Q 2116 1406 1581 1522 
L 1381 1569 
Q 847 1681 609 1914 
Q 372 2147 372 2553 
Q 372 3047 722 3315 
Q 1072 3584 1716 3584 
Q 2034 3584 2315 3537 
Q 2597 3491 2834 3397 
z
" transform="scale(0.015625)"/>
       <path id="DejaVuSans-2212" d="M 678 2272 
L 4684 2272 
L 4684 1741 
L 678 1741 
L 678 2272 
z
" transform="scale(0.015625)"/>
       <path id="DejaVuSans-c5" d="M 2663 5081 
Q 2663 5278 2523 5417 
Q 2384 5556 2188 5556 
Q 1988 5556 1852 5420 
Q 1716 5284 1716 5081 
Q 1716 4884 1853 4746 
Q 1991 4609 2188 4609 
Q 2384 4609 2523 4746 
Q 2663 4884 2663 5081 
z
M 2188 4044 
L 1338 1722 
L 3041 1722 
L 2188 4044 
z
M 1716 4366 
Q 1525 4494 1428 4673 
Q 1331 4853 1331 5081 
Q 1331 5441 1579 5691 
Q 1828 5941 2188 5941 
Q 2544 5941 2795 5689 
Q 3047 5438 3047 5081 
Q 3047 4863 2948 4678 
Q 2850 4494 2663 4366 
L 4325 0 
L 3669 0 
L 3244 1197 
L 1141 1197 
L 716 0 
L 50 0 
L 1716 4366 
z
" transform="scale(0.015625)"/>
      </defs>
      <use xlink:href="#DejaVuSans-Oblique-4c" transform="translate(0 0.171875)"/>
      <use xlink:href="#DejaVuSans-Oblique-3bb" transform="translate(55.712891 -16.234375) scale(0.7)"/>
      <use xlink:href="#DejaVuSans-20" transform="translate(99.873047 0.171875)"/>
      <use xlink:href="#DejaVuSans-5b" transform="translate(131.660156 0.171875)"/>
      <use xlink:href="#DejaVuSans-65" transform="translate(170.673828 0.171875)"/>
      <use xlink:href="#DejaVuSans-72" transform="translate(232.197266 0.171875)"/>
      <use xlink:href="#DejaVuSans-67" transform="translate(273.310547 0.171875)"/>
      <use xlink:href="#DejaVuSans-73" transform="translate(336.787109 0.171875)"/>
      <use xlink:href="#DejaVuSans-2212" transform="translate(389.84375 38.453125) scale(0.7)"/>
      <use xlink:href="#DejaVuSans-31" transform="translate(448.496094 38.453125) scale(0.7)"/>
      <use xlink:href="#DejaVuSans-c5" transform="translate(495.766602 0.171875)"/>
      <use xlink:href="#DejaVuSans-2212" transform="translate(565.131836 38.453125) scale(0.7)"/>
      <use xlink:href="#DejaVuSans-31" transform="translate(623.78418 38.453125) scale(0.7)"/>
      <use xlink:href="#DejaVuSans-5d" transform="translate(671.054688 0.171875)"/>
     </g>
    </g>
    <g id="text_18">
     <!-- 1e39 -->
     <g transform="translate(45.503125 14.798437) scale(0.1 -0.1)">
      <defs>
       <path id="DejaVuSans-39" d="M 703 97 
L 703 672 
Q 941 559 1184 500 
Q 1428 441 1663 441 
Q 2288 441 2617 861 
Q 2947 1281 2994 2138 
Q 2813 1869 2534 1725 
Q 2256 1581 1919 1581 
Q 1219 1581 811 2004 
Q 403 2428 403 3163 
Q 403 3881 828 4315 
Q 1253 4750 1959 4750 
Q 2769 4750 3195 4129 
Q 3622 3509 3622 2328 
Q 3622 1225 3098 567 
Q 2575 -91 1691 -91 
Q 1453 -91 1209 -44 
Q 966 3 703 97 
z
M 1959 2075 
Q 2384 2075 2632 2365 
Q 2881 2656 2881 3163 
Q 2881 3666 2632 3958 
Q 2384 4250 1959 4250 
Q 1534 4250 1286 3958 
Q 1038 3666 1038 3163 
Q 1038 2656 1286 2365 
Q 1534 2075 1959 2075 
z
" transform="scale(0.015625)"/>
      </defs>
      <use xlink:href="#DejaVuSans-31"/>
      <use xlink:href="#DejaVuSans-65" transform="translate(63.623047 0)"/>
      <use xlink:href="#DejaVuSans-33" transform="translate(125.146484 0)"/>
      <use xlink:href="#DejaVuSans-39" transform="translate(188.769531 0)"/>
     </g>
    </g>
   </g>
   <g id="line2d_16">
    <path d="M 386.390398 270.949743 
L 373.878372 270.649609 
L 362.250095 270.080091 
L 341.294971 270.376764 
L 322.93364 268.567308 
L 314.57967 266.981305 
L 306.712588 267.441598 
L 299.291033 269.10884 
L 292.278202 267.306206 
L 285.641235 265.326643 
L 279.350702 264.527069 
L 273.38017 265.577295 
L 267.705827 268.255647 
L 262.306165 265.99542 
L 257.161711 267.391804 
L 252.254789 264.811442 
L 247.56932 265.116952 
L 243.090643 259.698274 
L 238.805363 258.446152 
L 234.701219 261.37549 
L 230.766963 262.43206 
L 226.99226 264.202826 
L 223.367598 260.783447 
L 219.884205 257.957958 
L 216.53398 253.927331 
L 213.309429 252.313515 
L 210.203612 257.136513 
L 207.210089 257.540509 
L 204.322878 258.962034 
L 201.536415 256.528256 
L 198.845516 256.982974 
L 196.245349 251.066166 
L 193.7314 255.063698 
L 191.299451 247.193566 
L 188.945554 248.96946 
L 186.666012 253.226793 
L 184.457355 239.585566 
L 182.316329 245.461793 
L 180.239873 249.931164 
L 178.225111 247.892284 
L 176.269332 254.477947 
L 174.369984 245.014854 
L 172.524659 241.228102 
L 170.731085 238.770138 
L 168.987115 241.137469 
L 167.29072 238.482941 
L 165.639978 239.425257 
L 164.033071 228.105875 
L 162.468276 230.265444 
L 160.94396 222.14269 
L 159.45857 231.764514 
L 158.010636 236.593375 
L 156.598758 206.25529 
L 155.221606 212.487531 
L 153.877914 233.987844 
L 152.566477 224.176391 
L 151.286148 241.198227 
L 150.035833 251.624358 
L 148.814488 239.507707 
L 147.621119 219.896168 
L 146.454775 230.543629 
L 145.314549 232.299416 
L 144.199572 239.148802 
L 143.109015 209.984604 
L 142.042085 176.757932 
L 140.998022 199.478662 
L 139.976099 216.367574 
L 138.975619 218.111558 
L 137.995913 231.961351 
L 137.036343 230.671531 
L 136.096292 238.941454 
L 135.175172 229.493499 
L 134.272416 213.104596 
L 133.387481 208.862547 
L 132.519844 203.726536 
L 131.669003 192.002088 
L 130.834475 214.760423 
L 130.015795 220.566614 
L 129.212516 205.530543 
L 128.424207 229.654432 
L 127.650454 199.190048 
L 126.890857 197.755412 
L 126.145031 188.77909 
L 125.412606 226.209611 
L 124.693223 189.185825 
L 123.986537 200.507928 
L 123.292215 191.193674 
L 122.609934 131.461764 
L 121.939386 166.652875 
L 121.280268 208.324164 
L 120.632293 154.163927 
L 119.995179 192.66165 
L 119.368655 187.346001 
L 118.752461 193.643943 
L 118.146342 108.53264 
L 117.550053 182.086876 
L 116.963358 177.260472 
L 115.817834 207.622781 
L 115.258569 201.520709 
L 114.708021 144.328993 
L 114.165987 131.530279 
L 113.106686 198.070173 
L 112.589045 185.959245 
L 112.079169 150.159399 
L 111.576885 126.798843 
L 111.082025 175.764124 
L 110.594426 191.627182 
L 110.113928 184.439799 
L 109.640379 224.959896 
L 109.173627 170.122461 
L 108.713529 186.834227 
L 108.259942 216.509751 
L 107.812729 170.860251 
L 107.371757 61.300031 
L 106.936897 150.177053 
L 106.508021 167.878121 
L 106.085008 152.008517 
L 105.667738 110.57886 
L 105.256095 128.633161 
L 104.849965 125.815132 
L 104.449239 96.321359 
L 104.05381 158.390525 
L 103.663573 120.08288 
L 103.278426 205.651488 
L 102.898271 124.33637 
L 102.523012 129.363933 
L 102.152553 112.268516 
L 101.786805 87.996284 
L 101.425677 162.887976 
L 101.069082 105.386967 
L 100.716936 168.685001 
L 100.369156 134.474759 
L 100.025661 84.599057 
L 99.686373 132.163542 
L 99.351215 104.299802 
L 99.020111 178.32282 
L 98.692989 160.968731 
L 98.050405 139.582941 
L 97.734806 173.422474 
L 97.422914 173.208172 
L 97.114662 126.069358 
L 96.50883 103.666152 
L 96.211127 121.434545 
L 95.91682 147.295076 
L 95.625852 185.843802 
L 95.338166 126.876628 
L 95.053706 116.497984 
L 94.772419 132.169311 
L 94.494252 113.942069 
L 94.219154 58.871774 
L 93.947073 211.476079 
L 93.677961 64.129822 
L 93.411768 127.751138 
L 93.148449 115.573142 
L 92.887956 90.343292 
L 92.630245 133.796198 
L 92.37527 95.996375 
L 92.122989 138.84407 
L 91.87336 49.132326 
L 91.62634 113.342033 
L 91.381889 64.169744 
L 91.139967 179.069962 
L 90.900534 201.55066 
L 90.663554 176.69768 
L 90.428988 223.568085 
L 90.196799 200.846218 
L 89.966953 212.476158 
L 89.739412 117.531924 
L 89.514143 172.20186 
L 89.291113 86.019754 
L 89.070287 71.464496 
L 88.851633 146.979459 
L 88.635119 95.083966 
L 88.420715 141.412623 
L 88.208389 50.05824 
L 87.998112 62.597919 
L 87.789853 126.031869 
L 87.583584 29.894437 
L 87.379277 56.59307 
L 87.176903 107.512269 
L 86.976436 189.176664 
L 86.777848 90.088021 
L 86.581113 103.229434 
L 86.386206 214.613829 
L 86.193101 242.901329 
L 86.001773 243.26349 
L 85.812198 213.353182 
L 85.624352 257.180941 
L 85.438211 241.972916 
L 85.253752 211.904933 
L 85.070952 225.588796 
L 84.88979 225.642914 
L 84.710243 240.52493 
L 84.532289 225.148445 
L 84.355908 144.262847 
L 84.18108 191.159731 
L 84.007782 157.213758 
L 83.835996 206.438889 
L 83.665702 139.109921 
L 83.49688 138.747313 
L 83.329511 122.102052 
L 83.163577 170.314662 
L 82.99906 135.28237 
L 82.835941 152.284108 
L 82.674202 131.999568 
L 82.354797 201.587492 
L 81.885615 72.677632 
L 81.579256 198.581 
L 81.427957 161.669623 
L 81.277891 66.305575 
L 81.129044 140.533157 
L 80.981401 158.050634 
L 80.834947 62.459195 
L 80.545549 173.832482 
L 80.402577 115.271507 
L 80.260739 212.694596 
L 80.120021 133.40401 
L 79.980409 190.724171 
L 79.841891 131.323883 
L 79.704453 127.864289 
L 79.568084 69.757679 
L 79.298501 167.522582 
L 79.165263 145.756033 
L 79.033045 187.758365 
L 78.901835 165.359399 
L 78.642393 250.066562 
L 78.260509 138.466488 
L 78.135112 185.234979 
L 78.010646 160.403044 
L 77.887101 180.303989 
L 77.764467 157.099169 
L 77.642734 179.182205 
L 77.521891 180.195775 
L 77.401929 271.814437 
L 77.282839 59.132405 
L 77.164611 128.960037 
L 77.047236 271.814437 
L 76.930704 151.726671 
L 76.586078 222.13028 
L 76.472831 197.097278 
L 76.360383 271.814437 
L 76.137851 98.890883 
L 76.027752 171.498298 
L 75.918418 142.412862 
L 75.809843 195.769267 
L 75.702019 195.592634 
L 75.488591 195.940532 
L 75.278073 245.624981 
L 75.173887 166.849907 
L 75.070407 192.558307 
L 74.967625 165.650412 
L 74.865535 189.443486 
L 74.764129 244.408843 
L 74.563343 216.970201 
L 74.463949 215.26877 
L 74.365213 188.223 
L 74.267128 245.354529 
L 74.169688 216.425724 
L 74.072886 243.940063 
L 73.881172 128.54458 
L 73.786248 242.859522 
L 73.598235 183.375218 
L 73.505134 211.728843 
L 73.41263 181.469351 
L 73.320716 240.837132 
L 73.229387 240.582595 
L 73.138637 209.597928 
L 72.958853 271.814437 
L 72.869808 209.061256 
L 72.693387 271.814437 
L 72.432847 174.66205 
L 72.261824 271.814437 
L 72.177098 206.06387 
L 72.092891 271.814437 
L 72.009196 103.19022 
L 71.926009 206.056321 
L 71.843326 101.011505 
L 71.598254 271.814437 
L 71.517541 169.870071 
L 71.437309 238.71018 
L 71.357554 236.29851 
L 71.199459 167.418303 
L 71.043222 236.696487 
L 70.81228 125.870468 
L 70.660548 271.814437 
L 70.585339 235.180154 
L 70.510563 271.814437 
L 70.436217 198.493321 
L 70.288797 271.814437 
L 70.070797 157.1786 
L 69.856468 271.814437 
L 69.715576 192.298402 
L 69.645718 192.363205 
L 69.507163 271.814437 
L 69.034067 271.814437 
L 68.967946 232.094124 
L 68.902182 271.814437 
L 68.836773 229.028131 
L 68.771714 232.052273 
L 68.642641 271.814437 
L 68.514939 186.596654 
L 68.388587 229.417314 
L 68.325911 227.971194 
L 68.201545 271.814437 
L 67.956686 271.814437 
L 67.896263 224.670371 
L 67.836153 228.031554 
L 67.716858 271.814437 
L 66.970354 271.814437 
L 66.859768 174.625382 
L 66.695926 271.814437 
L 66.641847 170.108703 
L 66.588032 271.814437 
L 66.481187 271.814437 
L 66.428153 166.118408 
L 66.375376 271.814437 
L 66.218566 217.893257 
L 66.166797 217.655333 
L 66.063999 271.814437 
L 66.012967 165.500638 
L 65.962178 271.814437 
L 65.861319 271.814437 
L 65.811246 215.578705 
L 65.761408 271.814437 
L 65.467235 271.814437 
L 65.419 156.425991 
L 65.370988 271.814437 
L 65.323197 271.814437 
L 65.275625 214.873365 
L 65.228272 271.814437 
L 65.181135 271.814437 
L 65.134213 214.185991 
L 65.087505 271.814437 
L 64.721357 271.814437 
L 64.676507 209.24353 
L 64.631857 271.814437 
L 64.411555 271.814437 
L 64.368075 208.190352 
L 64.324786 271.814437 
L 64.111155 271.814437 
L 64.068984 208.201582 
L 64.026994 271.814437 
L 63.819736 271.814437 
L 63.778814 207.257998 
L 63.738066 271.814437 
L 63.697491 271.814437 
L 63.657088 206.071123 
L 63.616856 271.814437 
L 61.735852 271.814437 
L 61.735852 271.814437 
" clip-path="url(#pcb73516aaf)" style="fill: none; stroke: #1f77b4; stroke-width: 1.5; stroke-linecap: square"/>
   </g>
   <g id="patch_3">
    <path d="M 45.503125 283.910437 
L 45.503125 17.798437 
" style="fill: none; stroke: #000000; stroke-width: 0.8; stroke-linejoin: miter; stroke-linecap: square"/>
   </g>
   <g id="patch_4">
    <path d="M 402.623125 283.910437 
L 402.623125 17.798437 
" style="fill: none; stroke: #000000; stroke-width: 0.8; stroke-linejoin: miter; stroke-linecap: square"/>
   </g>
   <g id="patch_5">
    <path d="M 45.503125 283.910437 
L 402.623125 283.910437 
" style="fill: none; stroke: #000000; stroke-width: 0.8; stroke-linejoin: miter; stroke-linecap: square"/>
   </g>
   <g id="patch_6">
    <path d="M 45.503125 17.798437 
L 402.623125 17.798437 
" style="fill: none; stroke: #000000; stroke-width: 0.8; stroke-linejoin: miter; stroke-linecap: square"/>
   </g>
  </g>
 </g>
 <defs>
  <clipPath id="pcb73516aaf">
   <rect x="45.503125" y="17.798437" width="357.12" height="266.112"/>
  </clipPath>
 </defs>
</svg>
