<?xml version="1.0" encoding="utf-8" standalone="no"?>
<!DOCTYPE svg PUBLIC "-//W3C//DTD SVG 1.1//EN"
  "http://www.w3.org/Graphics/SVG/1.1/DTD/svg11.dtd">
<svg xmlns:xlink="http://www.w3.org/1999/xlink" width="785.066719pt" height="352.465pt" viewBox="0 0 785.066719 352.465" xmlns="http://www.w3.org/2000/svg" version="1.1">
 <metadata>
  <rdf:RDF xmlns:dc="http://purl.org/dc/elements/1.1/" xmlns:cc="http://creativecommons.org/ns#" xmlns:rdf="http://www.w3.org/1999/02/22-rdf-syntax-ns#">
   <cc:Work>
    <dc:type rdf:resource="http://purl.org/dc/dcmitype/StillImage"/>
    <dc:date>2025-08-06T15:47:47.206461</dc:date>
    <dc:format>image/svg+xml</dc:format>
    <dc:creator>
     <cc:Agent>
      <dc:title>Matplotlib v3.10.3, https://matplotlib.org/</dc:title>
     </cc:Agent>
    </dc:creator>
   </cc:Work>
  </rdf:RDF>
 </metadata>
 <defs>
  <style type="text/css">*{stroke-linejoin: round; stroke-linecap: butt}</style>
 </defs>
 <g id="figure_1">
  <g id="patch_1">
   <path d="M -0 352.465 
L 785.066719 352.465 
L 785.066719 0 
L -0 0 
z
" style="fill: #ffffff"/>
  </g>
  <g id="axes_1">
   <g id="patch_2">
    <path d="M 56.571875 306.198437 
L 693.901875 306.198437 
L 693.901875 17.798437 
L 56.571875 17.798437 
z
" style="fill: #ffffff"/>
   </g>
   <g id="matplotlib.axis_1">
    <g id="xtick_1">
     <g id="line2d_1">
      <defs>
       <path id="m49ac3266ba" d="M 0 0 
L 0 3.5 
" style="stroke: #000000; stroke-width: 0.8"/>
      </defs>
      <g>
       <use xlink:href="#m49ac3266ba" x="149.918188" y="306.198437" style="stroke: #000000; stroke-width: 0.8"/>
      </g>
     </g>
     <g id="text_1">
      <!-- 12000 -->
      <g transform="translate(126.058813 324.596094) scale(0.15 -0.15)">
       <defs>
        <path id="DejaVuSans-31" d="M 794 531 
L 1825 531 
L 1825 4091 
L 703 3866 
L 703 4441 
L 1819 4666 
L 2450 4666 
L 2450 531 
L 3481 531 
L 3481 0 
L 794 0 
L 794 531 
z
" transform="scale(0.015625)"/>
        <path id="DejaVuSans-32" d="M 1228 531 
L 3431 531 
L 3431 0 
L 469 0 
L 469 531 
Q 828 903 1448 1529 
Q 2069 2156 2228 2338 
Q 2531 2678 2651 2914 
Q 2772 3150 2772 3378 
Q 2772 3750 2511 3984 
Q 2250 4219 1831 4219 
Q 1534 4219 1204 4116 
Q 875 4013 500 3803 
L 500 4441 
Q 881 4594 1212 4672 
Q 1544 4750 1819 4750 
Q 2544 4750 2975 4387 
Q 3406 4025 3406 3419 
Q 3406 3131 3298 2873 
Q 3191 2616 2906 2266 
Q 2828 2175 2409 1742 
Q 1991 1309 1228 531 
z
" transform="scale(0.015625)"/>
        <path id="DejaVuSans-30" d="M 2034 4250 
Q 1547 4250 1301 3770 
Q 1056 3291 1056 2328 
Q 1056 1369 1301 889 
Q 1547 409 2034 409 
Q 2525 409 2770 889 
Q 3016 1369 3016 2328 
Q 3016 3291 2770 3770 
Q 2525 4250 2034 4250 
z
M 2034 4750 
Q 2819 4750 3233 4129 
Q 3647 3509 3647 2328 
Q 3647 1150 3233 529 
Q 2819 -91 2034 -91 
Q 1250 -91 836 529 
Q 422 1150 422 2328 
Q 422 3509 836 4129 
Q 1250 4750 2034 4750 
z
" transform="scale(0.015625)"/>
       </defs>
       <use xlink:href="#DejaVuSans-31"/>
       <use xlink:href="#DejaVuSans-32" transform="translate(63.623047 0)"/>
       <use xlink:href="#DejaVuSans-30" transform="translate(127.246094 0)"/>
       <use xlink:href="#DejaVuSans-30" transform="translate(190.869141 0)"/>
       <use xlink:href="#DejaVuSans-30" transform="translate(254.492188 0)"/>
      </g>
     </g>
    </g>
    <g id="xtick_2">
     <g id="line2d_2">
      <g>
       <use xlink:href="#m49ac3266ba" x="278.671723" y="306.198437" style="stroke: #000000; stroke-width: 0.8"/>
      </g>
     </g>
     <g id="text_2">
      <!-- 14000 -->
      <g transform="translate(254.812348 324.596094) scale(0.15 -0.15)">
       <defs>
        <path id="DejaVuSans-34" d="M 2419 4116 
L 825 1625 
L 2419 1625 
L 2419 4116 
z
M 2253 4666 
L 3047 4666 
L 3047 1625 
L 3713 1625 
L 3713 1100 
L 3047 1100 
L 3047 0 
L 2419 0 
L 2419 1100 
L 313 1100 
L 313 1709 
L 2253 4666 
z
" transform="scale(0.015625)"/>
       </defs>
       <use xlink:href="#DejaVuSans-31"/>
       <use xlink:href="#DejaVuSans-34" transform="translate(63.623047 0)"/>
       <use xlink:href="#DejaVuSans-30" transform="translate(127.246094 0)"/>
       <use xlink:href="#DejaVuSans-30" transform="translate(190.869141 0)"/>
       <use xlink:href="#DejaVuSans-30" transform="translate(254.492188 0)"/>
      </g>
     </g>
    </g>
    <g id="xtick_3">
     <g id="line2d_3">
      <g>
       <use xlink:href="#m49ac3266ba" x="407.425259" y="306.198437" style="stroke: #000000; stroke-width: 0.8"/>
      </g>
     </g>
     <g id="text_3">
      <!-- 16000 -->
      <g transform="translate(383.565884 324.596094) scale(0.15 -0.15)">
       <defs>
        <path id="DejaVuSans-36" d="M 2113 2584 
Q 1688 2584 1439 2293 
Q 1191 2003 1191 1497 
Q 1191 994 1439 701 
Q 1688 409 2113 409 
Q 2538 409 2786 701 
Q 3034 994 3034 1497 
Q 3034 2003 2786 2293 
Q 2538 2584 2113 2584 
z
M 3366 4563 
L 3366 3988 
Q 3128 4100 2886 4159 
Q 2644 4219 2406 4219 
Q 1781 4219 1451 3797 
Q 1122 3375 1075 2522 
Q 1259 2794 1537 2939 
Q 1816 3084 2150 3084 
Q 2853 3084 3261 2657 
Q 3669 2231 3669 1497 
Q 3669 778 3244 343 
Q 2819 -91 2113 -91 
Q 1303 -91 875 529 
Q 447 1150 447 2328 
Q 447 3434 972 4092 
Q 1497 4750 2381 4750 
Q 2619 4750 2861 4703 
Q 3103 4656 3366 4563 
z
" transform="scale(0.015625)"/>
       </defs>
       <use xlink:href="#DejaVuSans-31"/>
       <use xlink:href="#DejaVuSans-36" transform="translate(63.623047 0)"/>
       <use xlink:href="#DejaVuSans-30" transform="translate(127.246094 0)"/>
       <use xlink:href="#DejaVuSans-30" transform="translate(190.869141 0)"/>
       <use xlink:href="#DejaVuSans-30" transform="translate(254.492188 0)"/>
      </g>
     </g>
    </g>
    <g id="xtick_4">
     <g id="line2d_4">
      <g>
       <use xlink:href="#m49ac3266ba" x="536.178794" y="306.198437" style="stroke: #000000; stroke-width: 0.8"/>
      </g>
     </g>
     <g id="text_4">
      <!-- 18000 -->
      <g transform="translate(512.319419 324.596094) scale(0.15 -0.15)">
       <defs>
        <path id="DejaVuSans-38" d="M 2034 2216 
Q 1584 2216 1326 1975 
Q 1069 1734 1069 1313 
Q 1069 891 1326 650 
Q 1584 409 2034 409 
Q 2484 409 2743 651 
Q 3003 894 3003 1313 
Q 3003 1734 2745 1975 
Q 2488 2216 2034 2216 
z
M 1403 2484 
Q 997 2584 770 2862 
Q 544 3141 544 3541 
Q 544 4100 942 4425 
Q 1341 4750 2034 4750 
Q 2731 4750 3128 4425 
Q 3525 4100 3525 3541 
Q 3525 3141 3298 2862 
Q 3072 2584 2669 2484 
Q 3125 2378 3379 2068 
Q 3634 1759 3634 1313 
Q 3634 634 3220 271 
Q 2806 -91 2034 -91 
Q 1263 -91 848 271 
Q 434 634 434 1313 
Q 434 1759 690 2068 
Q 947 2378 1403 2484 
z
M 1172 3481 
Q 1172 3119 1398 2916 
Q 1625 2713 2034 2713 
Q 2441 2713 2670 2916 
Q 2900 3119 2900 3481 
Q 2900 3844 2670 4047 
Q 2441 4250 2034 4250 
Q 1625 4250 1398 4047 
Q 1172 3844 1172 3481 
z
" transform="scale(0.015625)"/>
       </defs>
       <use xlink:href="#DejaVuSans-31"/>
       <use xlink:href="#DejaVuSans-38" transform="translate(63.623047 0)"/>
       <use xlink:href="#DejaVuSans-30" transform="translate(127.246094 0)"/>
       <use xlink:href="#DejaVuSans-30" transform="translate(190.869141 0)"/>
       <use xlink:href="#DejaVuSans-30" transform="translate(254.492188 0)"/>
      </g>
     </g>
    </g>
    <g id="xtick_5">
     <g id="line2d_5">
      <g>
       <use xlink:href="#m49ac3266ba" x="664.93233" y="306.198437" style="stroke: #000000; stroke-width: 0.8"/>
      </g>
     </g>
     <g id="text_5">
      <!-- 20000 -->
      <g transform="translate(641.072955 324.596094) scale(0.15 -0.15)">
       <use xlink:href="#DejaVuSans-32"/>
       <use xlink:href="#DejaVuSans-30" transform="translate(63.623047 0)"/>
       <use xlink:href="#DejaVuSans-30" transform="translate(127.246094 0)"/>
       <use xlink:href="#DejaVuSans-30" transform="translate(190.869141 0)"/>
       <use xlink:href="#DejaVuSans-30" transform="translate(254.492188 0)"/>
      </g>
     </g>
    </g>
    <g id="text_6">
     <!-- Last Interaction Velocity (km/s) -->
     <g transform="translate(266.204219 342.353437) scale(0.14 -0.14)">
      <defs>
       <path id="DejaVuSans-4c" d="M 628 4666 
L 1259 4666 
L 1259 531 
L 3531 531 
L 3531 0 
L 628 0 
L 628 4666 
z
" transform="scale(0.015625)"/>
       <path id="DejaVuSans-61" d="M 2194 1759 
Q 1497 1759 1228 1600 
Q 959 1441 959 1056 
Q 959 750 1161 570 
Q 1363 391 1709 391 
Q 2188 391 2477 730 
Q 2766 1069 2766 1631 
L 2766 1759 
L 2194 1759 
z
M 3341 1997 
L 3341 0 
L 2766 0 
L 2766 531 
Q 2569 213 2275 61 
Q 1981 -91 1556 -91 
Q 1019 -91 701 211 
Q 384 513 384 1019 
Q 384 1609 779 1909 
Q 1175 2209 1959 2209 
L 2766 2209 
L 2766 2266 
Q 2766 2663 2505 2880 
Q 2244 3097 1772 3097 
Q 1472 3097 1187 3025 
Q 903 2953 641 2809 
L 641 3341 
Q 956 3463 1253 3523 
Q 1550 3584 1831 3584 
Q 2591 3584 2966 3190 
Q 3341 2797 3341 1997 
z
" transform="scale(0.015625)"/>
       <path id="DejaVuSans-73" d="M 2834 3397 
L 2834 2853 
Q 2591 2978 2328 3040 
Q 2066 3103 1784 3103 
Q 1356 3103 1142 2972 
Q 928 2841 928 2578 
Q 928 2378 1081 2264 
Q 1234 2150 1697 2047 
L 1894 2003 
Q 2506 1872 2764 1633 
Q 3022 1394 3022 966 
Q 3022 478 2636 193 
Q 2250 -91 1575 -91 
Q 1294 -91 989 -36 
Q 684 19 347 128 
L 347 722 
Q 666 556 975 473 
Q 1284 391 1588 391 
Q 1994 391 2212 530 
Q 2431 669 2431 922 
Q 2431 1156 2273 1281 
Q 2116 1406 1581 1522 
L 1381 1569 
Q 847 1681 609 1914 
Q 372 2147 372 2553 
Q 372 3047 722 3315 
Q 1072 3584 1716 3584 
Q 2034 3584 2315 3537 
Q 2597 3491 2834 3397 
z
" transform="scale(0.015625)"/>
       <path id="DejaVuSans-74" d="M 1172 4494 
L 1172 3500 
L 2356 3500 
L 2356 3053 
L 1172 3053 
L 1172 1153 
Q 1172 725 1289 603 
Q 1406 481 1766 481 
L 2356 481 
L 2356 0 
L 1766 0 
Q 1100 0 847 248 
Q 594 497 594 1153 
L 594 3053 
L 172 3053 
L 172 3500 
L 594 3500 
L 594 4494 
L 1172 4494 
z
" transform="scale(0.015625)"/>
       <path id="DejaVuSans-20" transform="scale(0.015625)"/>
       <path id="DejaVuSans-49" d="M 628 4666 
L 1259 4666 
L 1259 0 
L 628 0 
L 628 4666 
z
" transform="scale(0.015625)"/>
       <path id="DejaVuSans-6e" d="M 3513 2113 
L 3513 0 
L 2938 0 
L 2938 2094 
Q 2938 2591 2744 2837 
Q 2550 3084 2163 3084 
Q 1697 3084 1428 2787 
Q 1159 2491 1159 1978 
L 1159 0 
L 581 0 
L 581 3500 
L 1159 3500 
L 1159 2956 
Q 1366 3272 1645 3428 
Q 1925 3584 2291 3584 
Q 2894 3584 3203 3211 
Q 3513 2838 3513 2113 
z
" transform="scale(0.015625)"/>
       <path id="DejaVuSans-65" d="M 3597 1894 
L 3597 1613 
L 953 1613 
Q 991 1019 1311 708 
Q 1631 397 2203 397 
Q 2534 397 2845 478 
Q 3156 559 3463 722 
L 3463 178 
Q 3153 47 2828 -22 
Q 2503 -91 2169 -91 
Q 1331 -91 842 396 
Q 353 884 353 1716 
Q 353 2575 817 3079 
Q 1281 3584 2069 3584 
Q 2775 3584 3186 3129 
Q 3597 2675 3597 1894 
z
M 3022 2063 
Q 3016 2534 2758 2815 
Q 2500 3097 2075 3097 
Q 1594 3097 1305 2825 
Q 1016 2553 972 2059 
L 3022 2063 
z
" transform="scale(0.015625)"/>
       <path id="DejaVuSans-72" d="M 2631 2963 
Q 2534 3019 2420 3045 
Q 2306 3072 2169 3072 
Q 1681 3072 1420 2755 
Q 1159 2438 1159 1844 
L 1159 0 
L 581 0 
L 581 3500 
L 1159 3500 
L 1159 2956 
Q 1341 3275 1631 3429 
Q 1922 3584 2338 3584 
Q 2397 3584 2469 3576 
Q 2541 3569 2628 3553 
L 2631 2963 
z
" transform="scale(0.015625)"/>
       <path id="DejaVuSans-63" d="M 3122 3366 
L 3122 2828 
Q 2878 2963 2633 3030 
Q 2388 3097 2138 3097 
Q 1578 3097 1268 2742 
Q 959 2388 959 1747 
Q 959 1106 1268 751 
Q 1578 397 2138 397 
Q 2388 397 2633 464 
Q 2878 531 3122 666 
L 3122 134 
Q 2881 22 2623 -34 
Q 2366 -91 2075 -91 
Q 1284 -91 818 406 
Q 353 903 353 1747 
Q 353 2603 823 3093 
Q 1294 3584 2113 3584 
Q 2378 3584 2631 3529 
Q 2884 3475 3122 3366 
z
" transform="scale(0.015625)"/>
       <path id="DejaVuSans-69" d="M 603 3500 
L 1178 3500 
L 1178 0 
L 603 0 
L 603 3500 
z
M 603 4863 
L 1178 4863 
L 1178 4134 
L 603 4134 
L 603 4863 
z
" transform="scale(0.015625)"/>
       <path id="DejaVuSans-6f" d="M 1959 3097 
Q 1497 3097 1228 2736 
Q 959 2375 959 1747 
Q 959 1119 1226 758 
Q 1494 397 1959 397 
Q 2419 397 2687 759 
Q 2956 1122 2956 1747 
Q 2956 2369 2687 2733 
Q 2419 3097 1959 3097 
z
M 1959 3584 
Q 2709 3584 3137 3096 
Q 3566 2609 3566 1747 
Q 3566 888 3137 398 
Q 2709 -91 1959 -91 
Q 1206 -91 779 398 
Q 353 888 353 1747 
Q 353 2609 779 3096 
Q 1206 3584 1959 3584 
z
" transform="scale(0.015625)"/>
       <path id="DejaVuSans-56" d="M 1831 0 
L 50 4666 
L 709 4666 
L 2188 738 
L 3669 4666 
L 4325 4666 
L 2547 0 
L 1831 0 
z
" transform="scale(0.015625)"/>
       <path id="DejaVuSans-6c" d="M 603 4863 
L 1178 4863 
L 1178 0 
L 603 0 
L 603 4863 
z
" transform="scale(0.015625)"/>
       <path id="DejaVuSans-79" d="M 2059 -325 
Q 1816 -950 1584 -1140 
Q 1353 -1331 966 -1331 
L 506 -1331 
L 506 -850 
L 844 -850 
Q 1081 -850 1212 -737 
Q 1344 -625 1503 -206 
L 1606 56 
L 191 3500 
L 800 3500 
L 1894 763 
L 2988 3500 
L 3597 3500 
L 2059 -325 
z
" transform="scale(0.015625)"/>
       <path id="DejaVuSans-28" d="M 1984 4856 
Q 1566 4138 1362 3434 
Q 1159 2731 1159 2009 
Q 1159 1288 1364 580 
Q 1569 -128 1984 -844 
L 1484 -844 
Q 1016 -109 783 600 
Q 550 1309 550 2009 
Q 550 2706 781 3412 
Q 1013 4119 1484 4856 
L 1984 4856 
z
" transform="scale(0.015625)"/>
       <path id="DejaVuSans-6b" d="M 581 4863 
L 1159 4863 
L 1159 1991 
L 2875 3500 
L 3609 3500 
L 1753 1863 
L 3688 0 
L 2938 0 
L 1159 1709 
L 1159 0 
L 581 0 
L 581 4863 
z
" transform="scale(0.015625)"/>
       <path id="DejaVuSans-6d" d="M 3328 2828 
Q 3544 3216 3844 3400 
Q 4144 3584 4550 3584 
Q 5097 3584 5394 3201 
Q 5691 2819 5691 2113 
L 5691 0 
L 5113 0 
L 5113 2094 
Q 5113 2597 4934 2840 
Q 4756 3084 4391 3084 
Q 3944 3084 3684 2787 
Q 3425 2491 3425 1978 
L 3425 0 
L 2847 0 
L 2847 2094 
Q 2847 2600 2669 2842 
Q 2491 3084 2119 3084 
Q 1678 3084 1418 2786 
Q 1159 2488 1159 1978 
L 1159 0 
L 581 0 
L 581 3500 
L 1159 3500 
L 1159 2956 
Q 1356 3278 1631 3431 
Q 1906 3584 2284 3584 
Q 2666 3584 2933 3390 
Q 3200 3197 3328 2828 
z
" transform="scale(0.015625)"/>
       <path id="DejaVuSans-2f" d="M 1625 4666 
L 2156 4666 
L 531 -594 
L 0 -594 
L 1625 4666 
z
" transform="scale(0.015625)"/>
       <path id="DejaVuSans-29" d="M 513 4856 
L 1013 4856 
Q 1481 4119 1714 3412 
Q 1947 2706 1947 2009 
Q 1947 1309 1714 600 
Q 1481 -109 1013 -844 
L 513 -844 
Q 928 -128 1133 580 
Q 1338 1288 1338 2009 
Q 1338 2731 1133 3434 
Q 928 4138 513 4856 
z
" transform="scale(0.015625)"/>
      </defs>
      <use xlink:href="#DejaVuSans-4c"/>
      <use xlink:href="#DejaVuSans-61" transform="translate(55.712891 0)"/>
      <use xlink:href="#DejaVuSans-73" transform="translate(116.992188 0)"/>
      <use xlink:href="#DejaVuSans-74" transform="translate(169.091797 0)"/>
      <use xlink:href="#DejaVuSans-20" transform="translate(208.300781 0)"/>
      <use xlink:href="#DejaVuSans-49" transform="translate(240.087891 0)"/>
      <use xlink:href="#DejaVuSans-6e" transform="translate(269.580078 0)"/>
      <use xlink:href="#DejaVuSans-74" transform="translate(332.958984 0)"/>
      <use xlink:href="#DejaVuSans-65" transform="translate(372.167969 0)"/>
      <use xlink:href="#DejaVuSans-72" transform="translate(433.691406 0)"/>
      <use xlink:href="#DejaVuSans-61" transform="translate(474.804688 0)"/>
      <use xlink:href="#DejaVuSans-63" transform="translate(536.083984 0)"/>
      <use xlink:href="#DejaVuSans-74" transform="translate(591.064453 0)"/>
      <use xlink:href="#DejaVuSans-69" transform="translate(630.273438 0)"/>
      <use xlink:href="#DejaVuSans-6f" transform="translate(658.056641 0)"/>
      <use xlink:href="#DejaVuSans-6e" transform="translate(719.238281 0)"/>
      <use xlink:href="#DejaVuSans-20" transform="translate(782.617188 0)"/>
      <use xlink:href="#DejaVuSans-56" transform="translate(814.404297 0)"/>
      <use xlink:href="#DejaVuSans-65" transform="translate(875.0625 0)"/>
      <use xlink:href="#DejaVuSans-6c" transform="translate(936.585938 0)"/>
      <use xlink:href="#DejaVuSans-6f" transform="translate(964.369141 0)"/>
      <use xlink:href="#DejaVuSans-63" transform="translate(1025.550781 0)"/>
      <use xlink:href="#DejaVuSans-69" transform="translate(1080.53125 0)"/>
      <use xlink:href="#DejaVuSans-74" transform="translate(1108.314453 0)"/>
      <use xlink:href="#DejaVuSans-79" transform="translate(1147.523438 0)"/>
      <use xlink:href="#DejaVuSans-20" transform="translate(1206.703125 0)"/>
      <use xlink:href="#DejaVuSans-28" transform="translate(1238.490234 0)"/>
      <use xlink:href="#DejaVuSans-6b" transform="translate(1277.503906 0)"/>
      <use xlink:href="#DejaVuSans-6d" transform="translate(1335.414062 0)"/>
      <use xlink:href="#DejaVuSans-2f" transform="translate(1432.826172 0)"/>
      <use xlink:href="#DejaVuSans-73" transform="translate(1466.517578 0)"/>
      <use xlink:href="#DejaVuSans-29" transform="translate(1518.617188 0)"/>
     </g>
    </g>
   </g>
   <g id="matplotlib.axis_2">
    <g id="ytick_1">
     <g id="line2d_6">
      <defs>
       <path id="m131e8fc947" d="M 0 0 
L -3.5 0 
" style="stroke: #000000; stroke-width: 0.8"/>
      </defs>
      <g>
       <use xlink:href="#m131e8fc947" x="56.571875" y="293.089347" style="stroke: #000000; stroke-width: 0.8"/>
      </g>
     </g>
     <g id="text_7">
      <!-- 0.0 -->
      <g transform="translate(25.717188 298.788175) scale(0.15 -0.15)">
       <defs>
        <path id="DejaVuSans-2e" d="M 684 794 
L 1344 794 
L 1344 0 
L 684 0 
L 684 794 
z
" transform="scale(0.015625)"/>
       </defs>
       <use xlink:href="#DejaVuSans-30"/>
       <use xlink:href="#DejaVuSans-2e" transform="translate(63.623047 0)"/>
       <use xlink:href="#DejaVuSans-30" transform="translate(95.410156 0)"/>
      </g>
     </g>
    </g>
    <g id="ytick_2">
     <g id="line2d_7">
      <g>
       <use xlink:href="#m131e8fc947" x="56.571875" y="251.604882" style="stroke: #000000; stroke-width: 0.8"/>
      </g>
     </g>
     <g id="text_8">
      <!-- 0.2 -->
      <g transform="translate(25.717188 257.30371) scale(0.15 -0.15)">
       <use xlink:href="#DejaVuSans-30"/>
       <use xlink:href="#DejaVuSans-2e" transform="translate(63.623047 0)"/>
       <use xlink:href="#DejaVuSans-32" transform="translate(95.410156 0)"/>
      </g>
     </g>
    </g>
    <g id="ytick_3">
     <g id="line2d_8">
      <g>
       <use xlink:href="#m131e8fc947" x="56.571875" y="210.120417" style="stroke: #000000; stroke-width: 0.8"/>
      </g>
     </g>
     <g id="text_9">
      <!-- 0.4 -->
      <g transform="translate(25.717188 215.819245) scale(0.15 -0.15)">
       <use xlink:href="#DejaVuSans-30"/>
       <use xlink:href="#DejaVuSans-2e" transform="translate(63.623047 0)"/>
       <use xlink:href="#DejaVuSans-34" transform="translate(95.410156 0)"/>
      </g>
     </g>
    </g>
    <g id="ytick_4">
     <g id="line2d_9">
      <g>
       <use xlink:href="#m131e8fc947" x="56.571875" y="168.635952" style="stroke: #000000; stroke-width: 0.8"/>
      </g>
     </g>
     <g id="text_10">
      <!-- 0.6 -->
      <g transform="translate(25.717188 174.33478) scale(0.15 -0.15)">
       <use xlink:href="#DejaVuSans-30"/>
       <use xlink:href="#DejaVuSans-2e" transform="translate(63.623047 0)"/>
       <use xlink:href="#DejaVuSans-36" transform="translate(95.410156 0)"/>
      </g>
     </g>
    </g>
    <g id="ytick_5">
     <g id="line2d_10">
      <g>
       <use xlink:href="#m131e8fc947" x="56.571875" y="127.151487" style="stroke: #000000; stroke-width: 0.8"/>
      </g>
     </g>
     <g id="text_11">
      <!-- 0.8 -->
      <g transform="translate(25.717188 132.850315) scale(0.15 -0.15)">
       <use xlink:href="#DejaVuSans-30"/>
       <use xlink:href="#DejaVuSans-2e" transform="translate(63.623047 0)"/>
       <use xlink:href="#DejaVuSans-38" transform="translate(95.410156 0)"/>
      </g>
     </g>
    </g>
    <g id="ytick_6">
     <g id="line2d_11">
      <g>
       <use xlink:href="#m131e8fc947" x="56.571875" y="85.667022" style="stroke: #000000; stroke-width: 0.8"/>
      </g>
     </g>
     <g id="text_12">
      <!-- 1.0 -->
      <g transform="translate(25.717188 91.36585) scale(0.15 -0.15)">
       <use xlink:href="#DejaVuSans-31"/>
       <use xlink:href="#DejaVuSans-2e" transform="translate(63.623047 0)"/>
       <use xlink:href="#DejaVuSans-30" transform="translate(95.410156 0)"/>
      </g>
     </g>
    </g>
    <g id="ytick_7">
     <g id="line2d_12">
      <g>
       <use xlink:href="#m131e8fc947" x="56.571875" y="44.182557" style="stroke: #000000; stroke-width: 0.8"/>
      </g>
     </g>
     <g id="text_13">
      <!-- 1.2 -->
      <g transform="translate(25.717188 49.881385) scale(0.15 -0.15)">
       <use xlink:href="#DejaVuSans-31"/>
       <use xlink:href="#DejaVuSans-2e" transform="translate(63.623047 0)"/>
       <use xlink:href="#DejaVuSans-32" transform="translate(95.410156 0)"/>
      </g>
     </g>
    </g>
    <g id="text_14">
     <!-- Packet Count -->
     <g transform="translate(18.597656 211.185547) rotate(-90) scale(0.15 -0.15)">
      <defs>
       <path id="DejaVuSans-50" d="M 1259 4147 
L 1259 2394 
L 2053 2394 
Q 2494 2394 2734 2622 
Q 2975 2850 2975 3272 
Q 2975 3691 2734 3919 
Q 2494 4147 2053 4147 
L 1259 4147 
z
M 628 4666 
L 2053 4666 
Q 2838 4666 3239 4311 
Q 3641 3956 3641 3272 
Q 3641 2581 3239 2228 
Q 2838 1875 2053 1875 
L 1259 1875 
L 1259 0 
L 628 0 
L 628 4666 
z
" transform="scale(0.015625)"/>
       <path id="DejaVuSans-43" d="M 4122 4306 
L 4122 3641 
Q 3803 3938 3442 4084 
Q 3081 4231 2675 4231 
Q 1875 4231 1450 3742 
Q 1025 3253 1025 2328 
Q 1025 1406 1450 917 
Q 1875 428 2675 428 
Q 3081 428 3442 575 
Q 3803 722 4122 1019 
L 4122 359 
Q 3791 134 3420 21 
Q 3050 -91 2638 -91 
Q 1578 -91 968 557 
Q 359 1206 359 2328 
Q 359 3453 968 4101 
Q 1578 4750 2638 4750 
Q 3056 4750 3426 4639 
Q 3797 4528 4122 4306 
z
" transform="scale(0.015625)"/>
       <path id="DejaVuSans-75" d="M 544 1381 
L 544 3500 
L 1119 3500 
L 1119 1403 
Q 1119 906 1312 657 
Q 1506 409 1894 409 
Q 2359 409 2629 706 
Q 2900 1003 2900 1516 
L 2900 3500 
L 3475 3500 
L 3475 0 
L 2900 0 
L 2900 538 
Q 2691 219 2414 64 
Q 2138 -91 1772 -91 
Q 1169 -91 856 284 
Q 544 659 544 1381 
z
M 1991 3584 
L 1991 3584 
z
" transform="scale(0.015625)"/>
      </defs>
      <use xlink:href="#DejaVuSans-50"/>
      <use xlink:href="#DejaVuSans-61" transform="translate(55.802734 0)"/>
      <use xlink:href="#DejaVuSans-63" transform="translate(117.082031 0)"/>
      <use xlink:href="#DejaVuSans-6b" transform="translate(172.0625 0)"/>
      <use xlink:href="#DejaVuSans-65" transform="translate(226.347656 0)"/>
      <use xlink:href="#DejaVuSans-74" transform="translate(287.871094 0)"/>
      <use xlink:href="#DejaVuSans-20" transform="translate(327.080078 0)"/>
      <use xlink:href="#DejaVuSans-43" transform="translate(358.867188 0)"/>
      <use xlink:href="#DejaVuSans-6f" transform="translate(428.691406 0)"/>
      <use xlink:href="#DejaVuSans-75" transform="translate(489.873047 0)"/>
      <use xlink:href="#DejaVuSans-6e" transform="translate(553.251953 0)"/>
      <use xlink:href="#DejaVuSans-74" transform="translate(616.630859 0)"/>
     </g>
    </g>
    <g id="text_15">
     <!-- 1e3 -->
     <g transform="translate(56.571875 14.798437) scale(0.1 -0.1)">
      <defs>
       <path id="DejaVuSans-33" d="M 2597 2516 
Q 3050 2419 3304 2112 
Q 3559 1806 3559 1356 
Q 3559 666 3084 287 
Q 2609 -91 1734 -91 
Q 1441 -91 1130 -33 
Q 819 25 488 141 
L 488 750 
Q 750 597 1062 519 
Q 1375 441 1716 441 
Q 2309 441 2620 675 
Q 2931 909 2931 1356 
Q 2931 1769 2642 2001 
Q 2353 2234 1838 2234 
L 1294 2234 
L 1294 2753 
L 1863 2753 
Q 2328 2753 2575 2939 
Q 2822 3125 2822 3475 
Q 2822 3834 2567 4026 
Q 2313 4219 1838 4219 
Q 1578 4219 1281 4162 
Q 984 4106 628 3988 
L 628 4550 
Q 988 4650 1302 4700 
Q 1616 4750 1894 4750 
Q 2613 4750 3031 4423 
Q 3450 4097 3450 3541 
Q 3450 3153 3228 2886 
Q 3006 2619 2597 2516 
z
" transform="scale(0.015625)"/>
      </defs>
      <use xlink:href="#DejaVuSans-31"/>
      <use xlink:href="#DejaVuSans-65" transform="translate(63.623047 0)"/>
      <use xlink:href="#DejaVuSans-33" transform="translate(125.146484 0)"/>
     </g>
    </g>
   </g>
   <g id="line2d_13">
    <path d="M 85.54142 289.978012 
L 114.510966 289.978012 
L 114.510966 289.978012 
L 114.510966 289.978012 
L 114.510966 290.600279 
L 143.480511 290.600279 
L 143.480511 290.600279 
L 143.480511 290.600279 
L 143.480511 290.392856 
L 172.450057 290.392856 
L 172.450057 290.392856 
L 172.450057 290.392856 
L 172.450057 291.429968 
L 201.419602 291.429968 
L 201.419602 291.429968 
L 201.419602 291.429968 
L 201.419602 291.844813 
L 230.389148 291.844813 
L 230.389148 291.844813 
L 230.389148 291.844813 
L 230.389148 291.844813 
L 259.358693 291.844813 
L 259.358693 291.844813 
L 259.358693 291.844813 
L 259.358693 292.052235 
L 288.328239 292.052235 
L 288.328239 292.052235 
L 288.328239 292.052235 
L 288.328239 292.259657 
L 317.297784 292.259657 
L 317.297784 292.259657 
L 317.297784 292.259657 
L 317.297784 292.674502 
L 346.26733 292.674502 
L 346.26733 292.674502 
L 346.26733 292.674502 
L 346.26733 292.259657 
L 375.236875 292.259657 
L 375.236875 292.259657 
L 375.236875 292.259657 
L 375.236875 290.185434 
L 404.20642 290.185434 
L 404.20642 290.185434 
L 404.20642 290.185434 
L 404.20642 289.563167 
L 433.175966 289.563167 
L 433.175966 289.563167 
L 433.175966 289.563167 
L 433.175966 289.770589 
L 462.145511 289.770589 
L 462.145511 289.770589 
L 462.145511 289.770589 
L 462.145511 288.733478 
L 491.115057 288.733478 
L 491.115057 288.733478 
L 491.115057 288.733478 
L 491.115057 284.585031 
L 520.084602 284.585031 
L 520.084602 284.585031 
L 520.084602 284.585031 
L 520.084602 284.792454 
L 549.054148 284.792454 
L 549.054148 284.792454 
L 549.054148 284.792454 
L 549.054148 285.829565 
L 578.023693 285.829565 
L 578.023693 285.829565 
L 578.023693 285.829565 
L 578.023693 287.696366 
L 606.993239 287.696366 
L 606.993239 287.696366 
L 606.993239 287.696366 
L 606.993239 285.207298 
L 635.962784 285.207298 
L 635.962784 285.207298 
L 635.962784 285.207298 
L 635.962784 283.755342 
L 664.93233 283.755342 
L 664.93233 283.755342 
" clip-path="url(#pfdd51aa66f)" style="fill: none; stroke: #000080; stroke-opacity: 0.75; stroke-width: 2.5; stroke-linecap: square"/>
   </g>
   <g id="line2d_14">
    <path d="M 85.54142 240.818921 
L 114.510966 240.818921 
L 114.510966 240.818921 
L 114.510966 240.818921 
L 114.510966 259.279508 
L 143.480511 259.279508 
L 143.480511 259.279508 
L 143.480511 259.279508 
L 143.480511 265.7096 
L 172.450057 265.7096 
L 172.450057 265.7096 
L 172.450057 265.7096 
L 172.450057 268.820935 
L 201.419602 268.820935 
L 201.419602 268.820935 
L 201.419602 268.820935 
L 201.419602 267.576401 
L 230.389148 267.576401 
L 230.389148 267.576401 
L 230.389148 267.576401 
L 230.389148 269.443202 
L 259.358693 269.443202 
L 259.358693 269.443202 
L 259.358693 269.443202 
L 259.358693 270.480313 
L 288.328239 270.480313 
L 288.328239 270.480313 
L 288.328239 270.480313 
L 288.328239 272.761959 
L 317.297784 272.761959 
L 317.297784 272.761959 
L 317.297784 272.761959 
L 317.297784 271.724847 
L 346.26733 271.724847 
L 346.26733 271.724847 
L 346.26733 271.724847 
L 346.26733 273.79907 
L 375.236875 273.79907 
L 375.236875 273.79907 
L 375.236875 273.79907 
L 375.236875 274.006493 
L 404.20642 274.006493 
L 404.20642 274.006493 
L 404.20642 274.006493 
L 404.20642 277.532672 
L 433.175966 277.532672 
L 433.175966 277.532672 
L 433.175966 277.532672 
L 433.175966 277.532672 
L 462.145511 277.532672 
L 462.145511 277.532672 
L 462.145511 277.532672 
L 462.145511 279.606895 
L 491.115057 279.606895 
L 491.115057 279.606895 
L 491.115057 279.606895 
L 491.115057 282.095963 
L 520.084602 282.095963 
L 520.084602 282.095963 
L 520.084602 282.095963 
L 520.084602 281.888541 
L 549.054148 281.888541 
L 549.054148 281.888541 
L 549.054148 281.888541 
L 549.054148 283.133075 
L 578.023693 283.133075 
L 578.023693 283.133075 
L 578.023693 283.133075 
L 578.023693 284.999876 
L 606.993239 284.999876 
L 606.993239 284.999876 
L 606.993239 284.999876 
L 606.993239 286.866677 
L 635.962784 286.866677 
L 635.962784 286.866677 
L 635.962784 286.866677 
L 635.962784 285.414721 
L 664.93233 285.414721 
L 664.93233 285.414721 
" clip-path="url(#pfdd51aa66f)" style="fill: none; stroke: #004cff; stroke-opacity: 0.75; stroke-width: 2.5; stroke-linecap: square"/>
   </g>
   <g id="line2d_15">
    <path d="M 85.54142 30.907528 
L 114.510966 30.907528 
L 114.510966 30.907528 
L 114.510966 30.907528 
L 114.510966 52.064606 
L 143.480511 52.064606 
L 143.480511 52.064606 
L 143.480511 52.064606 
L 143.480511 64.717367 
L 172.450057 64.717367 
L 172.450057 64.717367 
L 172.450057 64.717367 
L 172.450057 114.91357 
L 201.419602 114.91357 
L 201.419602 114.91357 
L 201.419602 114.91357 
L 201.419602 133.996424 
L 230.389148 133.996424 
L 230.389148 133.996424 
L 230.389148 133.996424 
L 230.389148 149.967943 
L 259.358693 149.967943 
L 259.358693 149.967943 
L 259.358693 149.967943 
L 259.358693 164.072661 
L 288.328239 164.072661 
L 288.328239 164.072661 
L 288.328239 164.072661 
L 288.328239 179.21449 
L 317.297784 179.21449 
L 317.297784 179.21449 
L 317.297784 179.21449 
L 317.297784 191.037563 
L 346.26733 191.037563 
L 346.26733 191.037563 
L 346.26733 191.037563 
L 346.26733 208.875883 
L 375.236875 208.875883 
L 375.236875 208.875883 
L 375.236875 208.875883 
L 375.236875 220.284111 
L 404.20642 220.284111 
L 404.20642 220.284111 
L 404.20642 220.284111 
L 404.20642 226.299358 
L 433.175966 226.299358 
L 433.175966 226.299358 
L 433.175966 226.299358 
L 433.175966 237.500164 
L 462.145511 237.500164 
L 462.145511 237.500164 
L 462.145511 237.500164 
L 462.145511 245.382212 
L 491.115057 245.382212 
L 491.115057 245.382212 
L 491.115057 245.382212 
L 491.115057 249.738081 
L 520.084602 249.738081 
L 520.084602 249.738081 
L 520.084602 249.738081 
L 520.084602 262.598265 
L 549.054148 262.598265 
L 549.054148 262.598265 
L 549.054148 262.598265 
L 549.054148 263.635377 
L 578.023693 263.635377 
L 578.023693 263.635377 
L 578.023693 263.635377 
L 578.023693 265.294755 
L 606.993239 265.294755 
L 606.993239 265.294755 
L 606.993239 265.294755 
L 606.993239 268.820935 
L 635.962784 268.820935 
L 635.962784 268.820935 
L 635.962784 268.820935 
L 635.962784 266.331867 
L 664.93233 266.331867 
L 664.93233 266.331867 
" clip-path="url(#pfdd51aa66f)" style="fill: none; stroke: #29ffce; stroke-opacity: 0.75; stroke-width: 2.5; stroke-linecap: square"/>
   </g>
   <g id="line2d_16">
    <path d="M 85.54142 93.963915 
L 114.510966 93.963915 
L 114.510966 93.963915 
L 114.510966 93.963915 
L 114.510966 171.12502 
L 143.480511 171.12502 
L 143.480511 171.12502 
L 143.480511 171.12502 
L 143.480511 210.950106 
L 172.450057 210.950106 
L 172.450057 210.950106 
L 172.450057 210.950106 
L 172.450057 238.329853 
L 201.419602 238.329853 
L 201.419602 238.329853 
L 201.419602 238.329853 
L 201.419602 254.923639 
L 230.389148 254.923639 
L 230.389148 254.923639 
L 230.389148 254.923639 
L 230.389148 270.065469 
L 259.358693 270.065469 
L 259.358693 270.065469 
L 259.358693 270.065469 
L 259.358693 274.213915 
L 288.328239 274.213915 
L 288.328239 274.213915 
L 288.328239 274.213915 
L 288.328239 279.606895 
L 317.297784 279.606895 
L 317.297784 279.606895 
L 317.297784 279.606895 
L 317.297784 281.888541 
L 346.26733 281.888541 
L 346.26733 281.888541 
L 346.26733 281.888541 
L 346.26733 284.999876 
L 375.236875 284.999876 
L 375.236875 284.999876 
L 375.236875 284.999876 
L 375.236875 285.207298 
L 404.20642 285.207298 
L 404.20642 285.207298 
L 404.20642 285.207298 
L 404.20642 288.9409 
L 433.175966 288.9409 
L 433.175966 288.9409 
L 433.175966 288.9409 
L 433.175966 287.903788 
L 462.145511 287.903788 
L 462.145511 287.903788 
L 462.145511 287.903788 
L 462.145511 289.355745 
L 491.115057 289.355745 
L 491.115057 289.355745 
L 491.115057 289.355745 
L 491.115057 288.733478 
L 520.084602 288.733478 
L 520.084602 288.733478 
L 520.084602 288.733478 
L 520.084602 287.696366 
L 549.054148 287.696366 
L 549.054148 287.696366 
L 549.054148 287.696366 
L 549.054148 290.185434 
L 578.023693 290.185434 
L 578.023693 290.185434 
L 578.023693 290.185434 
L 578.023693 289.563167 
L 606.993239 289.563167 
L 606.993239 289.563167 
L 606.993239 289.563167 
L 606.993239 289.978012 
L 635.962784 289.978012 
L 635.962784 289.978012 
L 635.962784 289.978012 
L 635.962784 287.696366 
L 664.93233 287.696366 
L 664.93233 287.696366 
" clip-path="url(#pfdd51aa66f)" style="fill: none; stroke: #ceff29; stroke-opacity: 0.75; stroke-width: 2.5; stroke-linecap: square"/>
   </g>
   <g id="line2d_17">
    <path d="M 85.54142 234.181406 
L 114.510966 234.181406 
L 114.510966 234.181406 
L 114.510966 234.181406 
L 114.510966 250.982615 
L 143.480511 250.982615 
L 143.480511 250.982615 
L 143.480511 250.982615 
L 143.480511 269.443202 
L 172.450057 269.443202 
L 172.450057 269.443202 
L 172.450057 269.443202 
L 172.450057 277.32525 
L 201.419602 277.32525 
L 201.419602 277.32525 
L 201.419602 277.32525 
L 201.419602 282.095963 
L 230.389148 282.095963 
L 230.389148 282.095963 
L 230.389148 282.095963 
L 230.389148 287.074099 
L 259.358693 287.074099 
L 259.358693 287.074099 
L 259.358693 287.074099 
L 259.358693 289.355745 
L 288.328239 289.355745 
L 288.328239 289.355745 
L 288.328239 289.355745 
L 288.328239 290.392856 
L 317.297784 290.392856 
L 317.297784 290.392856 
L 317.297784 290.392856 
L 317.297784 291.429968 
L 346.26733 291.429968 
L 346.26733 291.429968 
L 346.26733 291.429968 
L 346.26733 291.015123 
L 375.236875 291.015123 
L 375.236875 291.015123 
L 375.236875 291.015123 
L 375.236875 293.089347 
L 404.20642 293.089347 
L 404.20642 293.089347 
L 404.20642 293.089347 
L 404.20642 292.881924 
L 433.175966 292.881924 
L 433.175966 292.881924 
L 433.175966 292.881924 
L 433.175966 292.881924 
L 462.145511 292.881924 
L 462.145511 292.881924 
L 462.145511 292.881924 
L 462.145511 293.089347 
L 491.115057 293.089347 
L 491.115057 293.089347 
L 491.115057 293.089347 
L 491.115057 292.881924 
L 520.084602 292.881924 
L 520.084602 292.881924 
L 520.084602 292.881924 
L 520.084602 293.089347 
L 549.054148 293.089347 
L 549.054148 293.089347 
L 549.054148 293.089347 
L 549.054148 293.089347 
L 578.023693 293.089347 
L 578.023693 293.089347 
L 578.023693 293.089347 
L 578.023693 293.089347 
L 606.993239 293.089347 
L 606.993239 293.089347 
L 606.993239 293.089347 
L 606.993239 292.674502 
L 635.962784 292.674502 
L 635.962784 292.674502 
L 635.962784 292.674502 
L 635.962784 292.881924 
L 664.93233 292.881924 
L 664.93233 292.881924 
" clip-path="url(#pfdd51aa66f)" style="fill: none; stroke: #ff6800; stroke-opacity: 0.75; stroke-width: 2.5; stroke-linecap: square"/>
   </g>
   <g id="line2d_18">
    <path d="M 85.54142 231.692339 
L 114.510966 231.692339 
L 114.510966 231.692339 
L 114.510966 231.692339 
L 114.510966 245.589634 
L 143.480511 245.589634 
L 143.480511 245.589634 
L 143.480511 245.589634 
L 143.480511 256.997862 
L 172.450057 256.997862 
L 172.450057 256.997862 
L 172.450057 256.997862 
L 172.450057 269.650624 
L 201.419602 269.650624 
L 201.419602 269.650624 
L 201.419602 269.650624 
L 201.419602 275.251027 
L 230.389148 275.251027 
L 230.389148 275.251027 
L 230.389148 275.251027 
L 230.389148 282.925653 
L 259.358693 282.925653 
L 259.358693 282.925653 
L 259.358693 282.925653 
L 259.358693 285.622143 
L 288.328239 285.622143 
L 288.328239 285.622143 
L 288.328239 285.622143 
L 288.328239 285.829565 
L 317.297784 285.829565 
L 317.297784 285.829565 
L 317.297784 285.829565 
L 317.297784 289.563167 
L 346.26733 289.563167 
L 346.26733 289.563167 
L 346.26733 289.563167 
L 346.26733 290.807701 
L 375.236875 290.807701 
L 375.236875 290.807701 
L 375.236875 290.807701 
L 375.236875 290.185434 
L 404.20642 290.185434 
L 404.20642 290.185434 
L 404.20642 290.185434 
L 404.20642 291.63739 
L 433.175966 291.63739 
L 433.175966 291.63739 
L 433.175966 291.63739 
L 433.175966 292.259657 
L 462.145511 292.259657 
L 462.145511 292.259657 
L 462.145511 292.259657 
L 462.145511 292.052235 
L 491.115057 292.052235 
L 491.115057 292.052235 
L 491.115057 292.052235 
L 491.115057 293.089347 
L 520.084602 293.089347 
L 520.084602 293.089347 
L 520.084602 293.089347 
L 520.084602 293.089347 
L 549.054148 293.089347 
L 549.054148 293.089347 
L 549.054148 293.089347 
L 549.054148 292.674502 
L 578.023693 292.674502 
L 578.023693 292.674502 
L 578.023693 292.674502 
L 578.023693 292.881924 
L 606.993239 292.881924 
L 606.993239 292.881924 
L 606.993239 292.881924 
L 606.993239 293.089347 
L 635.962784 293.089347 
L 635.962784 293.089347 
L 635.962784 293.089347 
L 635.962784 293.089347 
L 664.93233 293.089347 
L 664.93233 293.089347 
" clip-path="url(#pfdd51aa66f)" style="fill: none; stroke: #800000; stroke-opacity: 0.75; stroke-width: 2.5; stroke-linecap: square"/>
   </g>
   <g id="patch_3">
    <path d="M 56.571875 306.198437 
L 56.571875 17.798437 
" style="fill: none; stroke: #000000; stroke-width: 0.8; stroke-linejoin: miter; stroke-linecap: square"/>
   </g>
   <g id="patch_4">
    <path d="M 693.901875 306.198437 
L 693.901875 17.798437 
" style="fill: none; stroke: #000000; stroke-width: 0.8; stroke-linejoin: miter; stroke-linecap: square"/>
   </g>
   <g id="patch_5">
    <path d="M 56.571875 306.198437 
L 693.901875 306.198437 
" style="fill: none; stroke: #000000; stroke-width: 0.8; stroke-linejoin: miter; stroke-linecap: square"/>
   </g>
   <g id="patch_6">
    <path d="M 56.571875 17.798437 
L 693.901875 17.798437 
" style="fill: none; stroke: #000000; stroke-width: 0.8; stroke-linejoin: miter; stroke-linecap: square"/>
   </g>
   <g id="legend_1">
    <g id="patch_7">
     <path d="M 704.401875 161.901562 
L 774.866719 161.901562 
Q 777.866719 161.901562 777.866719 158.901562 
L 777.866719 28.298437 
Q 777.866719 25.298437 774.866719 25.298437 
L 704.401875 25.298437 
Q 701.401875 25.298437 701.401875 28.298437 
L 701.401875 158.901562 
Q 701.401875 161.901562 704.401875 161.901562 
z
" style="fill: #ffffff; opacity: 0.8; stroke: #cccccc; stroke-linejoin: miter"/>
    </g>
    <g id="line2d_19">
     <path d="M 707.401875 37.446094 
L 722.401875 37.446094 
L 722.401875 37.446094 
L 737.401875 37.446094 
L 737.401875 37.446094 
" style="fill: none; stroke: #000080; stroke-opacity: 0.75; stroke-width: 2.5; stroke-linecap: square"/>
    </g>
    <g id="text_16">
     <!-- O -->
     <g transform="translate(749.401875 42.696094) scale(0.15 -0.15)">
      <defs>
       <path id="DejaVuSans-4f" d="M 2522 4238 
Q 1834 4238 1429 3725 
Q 1025 3213 1025 2328 
Q 1025 1447 1429 934 
Q 1834 422 2522 422 
Q 3209 422 3611 934 
Q 4013 1447 4013 2328 
Q 4013 3213 3611 3725 
Q 3209 4238 2522 4238 
z
M 2522 4750 
Q 3503 4750 4090 4092 
Q 4678 3434 4678 2328 
Q 4678 1225 4090 567 
Q 3503 -91 2522 -91 
Q 1538 -91 948 565 
Q 359 1222 359 2328 
Q 359 3434 948 4092 
Q 1538 4750 2522 4750 
z
" transform="scale(0.015625)"/>
      </defs>
      <use xlink:href="#DejaVuSans-4f"/>
     </g>
    </g>
    <g id="line2d_20">
     <path d="M 707.401875 59.463281 
L 722.401875 59.463281 
L 722.401875 59.463281 
L 737.401875 59.463281 
L 737.401875 59.463281 
" style="fill: none; stroke: #004cff; stroke-opacity: 0.75; stroke-width: 2.5; stroke-linecap: square"/>
    </g>
    <g id="text_17">
     <!-- Mg -->
     <g transform="translate(749.401875 64.713281) scale(0.15 -0.15)">
      <defs>
       <path id="DejaVuSans-4d" d="M 628 4666 
L 1569 4666 
L 2759 1491 
L 3956 4666 
L 4897 4666 
L 4897 0 
L 4281 0 
L 4281 4097 
L 3078 897 
L 2444 897 
L 1241 4097 
L 1241 0 
L 628 0 
L 628 4666 
z
" transform="scale(0.015625)"/>
       <path id="DejaVuSans-67" d="M 2906 1791 
Q 2906 2416 2648 2759 
Q 2391 3103 1925 3103 
Q 1463 3103 1205 2759 
Q 947 2416 947 1791 
Q 947 1169 1205 825 
Q 1463 481 1925 481 
Q 2391 481 2648 825 
Q 2906 1169 2906 1791 
z
M 3481 434 
Q 3481 -459 3084 -895 
Q 2688 -1331 1869 -1331 
Q 1566 -1331 1297 -1286 
Q 1028 -1241 775 -1147 
L 775 -588 
Q 1028 -725 1275 -790 
Q 1522 -856 1778 -856 
Q 2344 -856 2625 -561 
Q 2906 -266 2906 331 
L 2906 616 
Q 2728 306 2450 153 
Q 2172 0 1784 0 
Q 1141 0 747 490 
Q 353 981 353 1791 
Q 353 2603 747 3093 
Q 1141 3584 1784 3584 
Q 2172 3584 2450 3431 
Q 2728 3278 2906 2969 
L 2906 3500 
L 3481 3500 
L 3481 434 
z
" transform="scale(0.015625)"/>
      </defs>
      <use xlink:href="#DejaVuSans-4d"/>
      <use xlink:href="#DejaVuSans-67" transform="translate(86.279297 0)"/>
     </g>
    </g>
    <g id="line2d_21">
     <path d="M 707.401875 81.480469 
L 722.401875 81.480469 
L 722.401875 81.480469 
L 737.401875 81.480469 
L 737.401875 81.480469 
" style="fill: none; stroke: #29ffce; stroke-opacity: 0.75; stroke-width: 2.5; stroke-linecap: square"/>
    </g>
    <g id="text_18">
     <!-- Si -->
     <g transform="translate(749.401875 86.730469) scale(0.15 -0.15)">
      <defs>
       <path id="DejaVuSans-53" d="M 3425 4513 
L 3425 3897 
Q 3066 4069 2747 4153 
Q 2428 4238 2131 4238 
Q 1616 4238 1336 4038 
Q 1056 3838 1056 3469 
Q 1056 3159 1242 3001 
Q 1428 2844 1947 2747 
L 2328 2669 
Q 3034 2534 3370 2195 
Q 3706 1856 3706 1288 
Q 3706 609 3251 259 
Q 2797 -91 1919 -91 
Q 1588 -91 1214 -16 
Q 841 59 441 206 
L 441 856 
Q 825 641 1194 531 
Q 1563 422 1919 422 
Q 2459 422 2753 634 
Q 3047 847 3047 1241 
Q 3047 1584 2836 1778 
Q 2625 1972 2144 2069 
L 1759 2144 
Q 1053 2284 737 2584 
Q 422 2884 422 3419 
Q 422 4038 858 4394 
Q 1294 4750 2059 4750 
Q 2388 4750 2728 4690 
Q 3069 4631 3425 4513 
z
" transform="scale(0.015625)"/>
      </defs>
      <use xlink:href="#DejaVuSans-53"/>
      <use xlink:href="#DejaVuSans-69" transform="translate(63.476562 0)"/>
     </g>
    </g>
    <g id="line2d_22">
     <path d="M 707.401875 103.497656 
L 722.401875 103.497656 
L 722.401875 103.497656 
L 737.401875 103.497656 
L 737.401875 103.497656 
" style="fill: none; stroke: #ceff29; stroke-opacity: 0.75; stroke-width: 2.5; stroke-linecap: square"/>
    </g>
    <g id="text_19">
     <!-- S -->
     <g transform="translate(749.401875 108.747656) scale(0.15 -0.15)">
      <use xlink:href="#DejaVuSans-53"/>
     </g>
    </g>
    <g id="line2d_23">
     <path d="M 707.401875 125.514844 
L 722.401875 125.514844 
L 722.401875 125.514844 
L 737.401875 125.514844 
L 737.401875 125.514844 
" style="fill: none; stroke: #ff6800; stroke-opacity: 0.75; stroke-width: 2.5; stroke-linecap: square"/>
    </g>
    <g id="text_20">
     <!-- Ar -->
     <g transform="translate(749.401875 130.764844) scale(0.15 -0.15)">
      <defs>
       <path id="DejaVuSans-41" d="M 2188 4044 
L 1331 1722 
L 3047 1722 
L 2188 4044 
z
M 1831 4666 
L 2547 4666 
L 4325 0 
L 3669 0 
L 3244 1197 
L 1141 1197 
L 716 0 
L 50 0 
L 1831 4666 
z
" transform="scale(0.015625)"/>
      </defs>
      <use xlink:href="#DejaVuSans-41"/>
      <use xlink:href="#DejaVuSans-72" transform="translate(68.408203 0)"/>
     </g>
    </g>
    <g id="line2d_24">
     <path d="M 707.401875 147.532031 
L 722.401875 147.532031 
L 722.401875 147.532031 
L 737.401875 147.532031 
L 737.401875 147.532031 
" style="fill: none; stroke: #800000; stroke-opacity: 0.75; stroke-width: 2.5; stroke-linecap: square"/>
    </g>
    <g id="text_21">
     <!-- Ca -->
     <g transform="translate(749.401875 152.782031) scale(0.15 -0.15)">
      <use xlink:href="#DejaVuSans-43"/>
      <use xlink:href="#DejaVuSans-61" transform="translate(69.824219 0)"/>
     </g>
    </g>
   </g>
  </g>
 </g>
 <defs>
  <clipPath id="pfdd51aa66f">
   <rect x="56.571875" y="17.798437" width="637.33" height="288.4"/>
  </clipPath>
 </defs>
</svg>
