<?xml version="1.0" encoding="UTF-8" standalone="no"?>
<!DOCTYPE svg PUBLIC "-//W3C//DTD SVG 1.1//EN"
 "http://www.w3.org/Graphics/SVG/1.1/DTD/svg11.dtd">
<!-- Generated by graphviz version 11.0.0 (20240519.1550)
 -->
<!-- Pages: 1 -->
<svg width="392pt" height="749pt"
 viewBox="0.00 0.00 392.31 748.88" xmlns="http://www.w3.org/2000/svg" xmlns:xlink="http://www.w3.org/1999/xlink">
<g id="graph0" class="graph" transform="scale(1 1) rotate(0) translate(4 744.88)">
<polygon fill="white" stroke="none" points="-4,4 -4,-744.88 388.31,-744.88 388.31,4 -4,4"/>
<g id="clust1" class="cluster">
<title>cluster1</title>
<path fill="none" stroke="black" d="M66.16,-142C66.16,-142 318.16,-142 318.16,-142 324.16,-142 330.16,-148 330.16,-154 330.16,-154 330.16,-422 330.16,-422 330.16,-428 324.16,-434 318.16,-434 318.16,-434 66.16,-434 66.16,-434 60.16,-434 54.16,-428 54.16,-422 54.16,-422 54.16,-154 54.16,-154 54.16,-148 60.16,-142 66.16,-142"/>
<text text-anchor="start" x="107.03" y="-401.5" font-family="Helvetica Neue, Helvetica, Arial, sans-serif" font-style="italic" font-size="10.00">&lt;Simulation object&gt;.run_convergence()</text>
<text text-anchor="start" x="190.66" y="-391.5" font-family="Helvetica Neue, Helvetica, Arial, sans-serif" font-size="10.00"> </text>
</g>
<!-- config -->
<g id="node1" class="node">
<title>config</title>
<ellipse fill="none" stroke="black" cx="192.16" cy="-706.94" rx="192.16" ry="33.94"/>
<text text-anchor="start" x="159.91" y="-718.44" font-family="Helvetica Neue, Helvetica, Arial, sans-serif" font-weight="bold" font-size="10.00">Configuration</text>
<text text-anchor="start" x="77.41" y="-698.44" font-family="Helvetica Neue, Helvetica, Arial, sans-serif" font-size="10.00"> </text>
<text text-anchor="start" x="80.41" y="-698.44" font-family="Helvetica Neue, Helvetica, Arial, sans-serif" font-style="italic" font-size="10.00">&lt;Configuration object&gt;=Configuration.from_yaml(...)</text>
<text text-anchor="start" x="64.28" y="-688.44" font-family="Helvetica Neue, Helvetica, Arial, sans-serif" font-size="10.00"> </text>
<text text-anchor="start" x="67.28" y="-688.44" font-family="Helvetica Neue, Helvetica, Arial, sans-serif" font-style="italic" font-size="10.00">&lt;Configuration object&gt;=Configuration.from_config_dict(...)</text>
</g>
<!-- setup_sim -->
<g id="node2" class="node">
<title>setup_sim</title>
<polygon fill="none" stroke="black" points="307.03,-601 77.28,-601 77.28,-523 307.03,-523 307.03,-601"/>
<text text-anchor="start" x="131.03" y="-588.5" font-family="Helvetica Neue, Helvetica, Arial, sans-serif" font-weight="bold" text-decoration="underline" font-size="10.00">Setting up the Simulation</text>
<text text-anchor="start" x="250.28" y="-588.5" font-family="Helvetica Neue, Helvetica, Arial, sans-serif" font-size="10.00"> </text>
<text text-anchor="start" x="85.28" y="-568.5" font-family="Helvetica Neue, Helvetica, Arial, sans-serif" font-size="10.00"> </text>
<text text-anchor="start" x="88.28" y="-568.5" font-family="Helvetica Neue, Helvetica, Arial, sans-serif" font-style="italic" font-size="10.00">&lt;Simulation object&gt;=Simulation.from_config(...)</text>
<text text-anchor="start" x="296.03" y="-568.5" font-family="Helvetica Neue, Helvetica, Arial, sans-serif" font-size="10.00"> </text>
<text text-anchor="start" x="121.28" y="-548.5" font-family="Helvetica Neue, Helvetica, Arial, sans-serif" font-size="10.00"> &#45; Creates and calculates model </text>
<text text-anchor="start" x="118.66" y="-538.5" font-family="Helvetica Neue, Helvetica, Arial, sans-serif" font-size="10.00"> &#45; Creates and calculates plasma </text>
<text text-anchor="start" x="118.28" y="-528.5" font-family="Helvetica Neue, Helvetica, Arial, sans-serif" font-size="10.00"> &#45; Initializes Monte Carlo transport</text>
</g>
<!-- config&#45;&gt;setup_sim -->
<g id="edge3" class="edge">
<title>config&#45;&gt;setup_sim</title>
<path fill="none" stroke="black" d="M192.16,-672.79C192.16,-654.93 192.16,-632.55 192.16,-612.65"/>
<polygon fill="black" stroke="black" points="195.66,-612.8 192.16,-602.8 188.66,-612.8 195.66,-612.8"/>
</g>
<!-- mc_iteration -->
<g id="node3" class="node">
<title>mc_iteration</title>
<polygon fill="none" stroke="black" points="267.66,-378 116.66,-378 116.66,-300 267.66,-300 267.66,-378"/>
<text text-anchor="start" x="141.53" y="-365.5" font-family="Helvetica Neue, Helvetica, Arial, sans-serif" font-weight="bold" text-decoration="underline" font-size="10.00">Monte Carlo Iteration</text>
<text text-anchor="start" x="239.78" y="-365.5" font-family="Helvetica Neue, Helvetica, Arial, sans-serif" font-size="10.00"> </text>
<text text-anchor="start" x="124.66" y="-345.5" font-family="Helvetica Neue, Helvetica, Arial, sans-serif" font-size="10.00"> </text>
<text text-anchor="start" x="127.66" y="-345.5" font-family="Helvetica Neue, Helvetica, Arial, sans-serif" font-style="italic" font-size="10.00">&lt;Simulation object&gt;.iterate(...)</text>
<text text-anchor="start" x="190.66" y="-335.5" font-family="Helvetica Neue, Helvetica, Arial, sans-serif" font-size="10.00"> </text>
<text text-anchor="start" x="146.78" y="-325.5" font-family="Helvetica Neue, Helvetica, Arial, sans-serif" font-size="10.00"> &#45; Initializes packets </text>
<text text-anchor="start" x="142.66" y="-315.5" font-family="Helvetica Neue, Helvetica, Arial, sans-serif" font-size="10.00"> &#45; Propagates packets </text>
<text text-anchor="start" x="140.03" y="-305.5" font-family="Helvetica Neue, Helvetica, Arial, sans-serif" font-size="10.00"> &#45; Calculates estimators</text>
</g>
<!-- setup_sim&#45;&gt;mc_iteration -->
<g id="edge4" class="edge">
<title>setup_sim&#45;&gt;mc_iteration</title>
<path fill="none" stroke="black" d="M192.16,-522.5C192.16,-500.96 192.16,-472.94 192.16,-445.36"/>
<polygon fill="black" stroke="black" points="195.66,-445.51 192.16,-435.51 188.66,-445.51 195.66,-445.51"/>
</g>
<!-- adv_state -->
<g id="node4" class="node">
<title>adv_state</title>
<polygon fill="none" stroke="black" points="322.03,-228 62.28,-228 62.28,-150 322.03,-150 322.03,-228"/>
<text text-anchor="start" x="108.16" y="-215.5" font-family="Helvetica Neue, Helvetica, Arial, sans-serif" font-weight="bold" text-decoration="underline" font-size="10.00">Updating Plasma and Convergence</text>
<text text-anchor="start" x="273.16" y="-215.5" font-family="Helvetica Neue, Helvetica, Arial, sans-serif" font-size="10.00"> </text>
<text text-anchor="start" x="109.28" y="-195.5" font-family="Helvetica Neue, Helvetica, Arial, sans-serif" font-size="10.00"> </text>
<text text-anchor="start" x="112.28" y="-195.5" font-family="Helvetica Neue, Helvetica, Arial, sans-serif" font-style="italic" font-size="10.00">&lt;Simulation object&gt;.advance_state()</text>
<text text-anchor="start" x="272.03" y="-195.5" font-family="Helvetica Neue, Helvetica, Arial, sans-serif" font-size="10.00"> </text>
<text text-anchor="start" x="70.28" y="-175.5" font-family="Helvetica Neue, Helvetica, Arial, sans-serif" font-size="10.00"> &#45; Estimates and updates t_rad, w, and t_inner in model </text>
<text text-anchor="start" x="150.53" y="-165.5" font-family="Helvetica Neue, Helvetica, Arial, sans-serif" font-size="10.00"> &#45; Updates plasma </text>
<text text-anchor="start" x="134.41" y="-155.5" font-family="Helvetica Neue, Helvetica, Arial, sans-serif" font-size="10.00"> &#45; Checks for convergence</text>
</g>
<!-- mc_iteration&#45;&gt;adv_state -->
<g id="edge1" class="edge">
<title>mc_iteration&#45;&gt;adv_state</title>
<path fill="none" stroke="black" d="M116.46,-318.65C85.62,-298.34 76.87,-265.63 90.18,-238.28"/>
<polygon fill="black" stroke="black" points="93.14,-240.14 95.3,-229.77 87.14,-236.53 93.14,-240.14"/>
</g>
<!-- adv_state&#45;&gt;mc_iteration -->
<g id="edge2" class="edge">
<title>adv_state&#45;&gt;mc_iteration</title>
<path fill="none" stroke="black" d="M288.23,-228.47C307.29,-254.7 303.5,-288.73 276.86,-311.85"/>
<polygon fill="black" stroke="black" points="274.93,-308.92 269.06,-317.74 279.15,-314.5 274.93,-308.92"/>
</g>
<!-- spec_gen -->
<g id="node5" class="node">
<title>spec_gen</title>
<polygon fill="none" stroke="black" points="271.78,-78 112.53,-78 112.53,0 271.78,0 271.78,-78"/>
<text text-anchor="start" x="141.16" y="-65.5" font-family="Helvetica Neue, Helvetica, Arial, sans-serif" font-weight="bold" text-decoration="underline" font-size="10.00">Spectrum Generation</text>
<text text-anchor="start" x="240.16" y="-65.5" font-family="Helvetica Neue, Helvetica, Arial, sans-serif" font-size="10.00"> </text>
<text text-anchor="start" x="120.53" y="-45.5" font-family="Helvetica Neue, Helvetica, Arial, sans-serif" font-size="10.00"> </text>
<text text-anchor="start" x="123.53" y="-45.5" font-family="Helvetica Neue, Helvetica, Arial, sans-serif" font-style="italic" font-size="10.00">From final Monte Carlo iteration</text>
<text text-anchor="start" x="260.78" y="-45.5" font-family="Helvetica Neue, Helvetica, Arial, sans-serif" font-size="10.00"> </text>
<text text-anchor="start" x="128.03" y="-25.5" font-family="Helvetica Neue, Helvetica, Arial, sans-serif" font-size="10.00"> &#45; Basic spectrum generation </text>
<text text-anchor="start" x="153.53" y="-15.5" font-family="Helvetica Neue, Helvetica, Arial, sans-serif" font-size="10.00"> &#45; Virtual packets </text>
<text text-anchor="start" x="155.41" y="-5.5" font-family="Helvetica Neue, Helvetica, Arial, sans-serif" font-size="10.00"> &#45; Formal integral</text>
</g>
<!-- adv_state&#45;&gt;spec_gen -->
<g id="edge5" class="edge">
<title>adv_state&#45;&gt;spec_gen</title>
<path fill="none" stroke="black" d="M192.16,-142C192.16,-125.42 192.16,-106.64 192.16,-89.75"/>
<polygon fill="black" stroke="black" points="195.66,-89.82 192.16,-79.82 188.66,-89.82 195.66,-89.82"/>
</g>
</g>
</svg>
