<?xml version="1.0" encoding="utf-8" standalone="no"?>
<!DOCTYPE svg PUBLIC "-//W3C//DTD SVG 1.1//EN"
  "http://www.w3.org/Graphics/SVG/1.1/DTD/svg11.dtd">
<svg xmlns:xlink="http://www.w3.org/1999/xlink" width="785.066719pt" height="349.487625pt" viewBox="0 0 785.066719 349.487625" xmlns="http://www.w3.org/2000/svg" version="1.1">
 <metadata>
  <rdf:RDF xmlns:dc="http://purl.org/dc/elements/1.1/" xmlns:cc="http://creativecommons.org/ns#" xmlns:rdf="http://www.w3.org/1999/02/22-rdf-syntax-ns#">
   <cc:Work>
    <dc:type rdf:resource="http://purl.org/dc/dcmitype/StillImage"/>
    <dc:date>2025-04-08T14:02:50.800507</dc:date>
    <dc:format>image/svg+xml</dc:format>
    <dc:creator>
     <cc:Agent>
      <dc:title>Matplotlib v3.10.1, https://matplotlib.org/</dc:title>
     </cc:Agent>
    </dc:creator>
   </cc:Work>
  </rdf:RDF>
 </metadata>
 <defs>
  <style type="text/css">*{stroke-linejoin: round; stroke-linecap: butt}</style>
 </defs>
 <g id="figure_1">
  <g id="patch_1">
   <path d="M -0 349.487625 
L 785.066719 349.487625 
L 785.066719 0 
L -0 0 
z
" style="fill: #ffffff"/>
  </g>
  <g id="axes_1">
   <g id="patch_2">
    <path d="M 56.571875 301.230437 
L 693.901875 301.230437 
L 693.901875 17.798437 
L 56.571875 17.798437 
z
" style="fill: #ffffff"/>
   </g>
   <g id="matplotlib.axis_1">
    <g id="xtick_1">
     <g id="line2d_1">
      <defs>
       <path id="m3f219ffb30" d="M 0 0 
L 0 3.5 
" style="stroke: #000000; stroke-width: 0.8"/>
      </defs>
      <g>
       <use xlink:href="#m3f219ffb30" x="149.918188" y="301.230437" style="stroke: #000000; stroke-width: 0.8"/>
      </g>
     </g>
     <g id="text_1">
      <!-- 12000 -->
      <g transform="translate(126.058813 319.628094) scale(0.15 -0.15)">
       <defs>
        <path id="DejaVuSans-31" d="M 794 531 
L 1825 531 
L 1825 4091 
L 703 3866 
L 703 4441 
L 1819 4666 
L 2450 4666 
L 2450 531 
L 3481 531 
L 3481 0 
L 794 0 
L 794 531 
z
" transform="scale(0.015625)"/>
        <path id="DejaVuSans-32" d="M 1228 531 
L 3431 531 
L 3431 0 
L 469 0 
L 469 531 
Q 828 903 1448 1529 
Q 2069 2156 2228 2338 
Q 2531 2678 2651 2914 
Q 2772 3150 2772 3378 
Q 2772 3750 2511 3984 
Q 2250 4219 1831 4219 
Q 1534 4219 1204 4116 
Q 875 4013 500 3803 
L 500 4441 
Q 881 4594 1212 4672 
Q 1544 4750 1819 4750 
Q 2544 4750 2975 4387 
Q 3406 4025 3406 3419 
Q 3406 3131 3298 2873 
Q 3191 2616 2906 2266 
Q 2828 2175 2409 1742 
Q 1991 1309 1228 531 
z
" transform="scale(0.015625)"/>
        <path id="DejaVuSans-30" d="M 2034 4250 
Q 1547 4250 1301 3770 
Q 1056 3291 1056 2328 
Q 1056 1369 1301 889 
Q 1547 409 2034 409 
Q 2525 409 2770 889 
Q 3016 1369 3016 2328 
Q 3016 3291 2770 3770 
Q 2525 4250 2034 4250 
z
M 2034 4750 
Q 2819 4750 3233 4129 
Q 3647 3509 3647 2328 
Q 3647 1150 3233 529 
Q 2819 -91 2034 -91 
Q 1250 -91 836 529 
Q 422 1150 422 2328 
Q 422 3509 836 4129 
Q 1250 4750 2034 4750 
z
" transform="scale(0.015625)"/>
       </defs>
       <use xlink:href="#DejaVuSans-31"/>
       <use xlink:href="#DejaVuSans-32" transform="translate(63.623047 0)"/>
       <use xlink:href="#DejaVuSans-30" transform="translate(127.246094 0)"/>
       <use xlink:href="#DejaVuSans-30" transform="translate(190.869141 0)"/>
       <use xlink:href="#DejaVuSans-30" transform="translate(254.492188 0)"/>
      </g>
     </g>
    </g>
    <g id="xtick_2">
     <g id="line2d_2">
      <g>
       <use xlink:href="#m3f219ffb30" x="278.671723" y="301.230437" style="stroke: #000000; stroke-width: 0.8"/>
      </g>
     </g>
     <g id="text_2">
      <!-- 14000 -->
      <g transform="translate(254.812348 319.628094) scale(0.15 -0.15)">
       <defs>
        <path id="DejaVuSans-34" d="M 2419 4116 
L 825 1625 
L 2419 1625 
L 2419 4116 
z
M 2253 4666 
L 3047 4666 
L 3047 1625 
L 3713 1625 
L 3713 1100 
L 3047 1100 
L 3047 0 
L 2419 0 
L 2419 1100 
L 313 1100 
L 313 1709 
L 2253 4666 
z
" transform="scale(0.015625)"/>
       </defs>
       <use xlink:href="#DejaVuSans-31"/>
       <use xlink:href="#DejaVuSans-34" transform="translate(63.623047 0)"/>
       <use xlink:href="#DejaVuSans-30" transform="translate(127.246094 0)"/>
       <use xlink:href="#DejaVuSans-30" transform="translate(190.869141 0)"/>
       <use xlink:href="#DejaVuSans-30" transform="translate(254.492188 0)"/>
      </g>
     </g>
    </g>
    <g id="xtick_3">
     <g id="line2d_3">
      <g>
       <use xlink:href="#m3f219ffb30" x="407.425259" y="301.230437" style="stroke: #000000; stroke-width: 0.8"/>
      </g>
     </g>
     <g id="text_3">
      <!-- 16000 -->
      <g transform="translate(383.565884 319.628094) scale(0.15 -0.15)">
       <defs>
        <path id="DejaVuSans-36" d="M 2113 2584 
Q 1688 2584 1439 2293 
Q 1191 2003 1191 1497 
Q 1191 994 1439 701 
Q 1688 409 2113 409 
Q 2538 409 2786 701 
Q 3034 994 3034 1497 
Q 3034 2003 2786 2293 
Q 2538 2584 2113 2584 
z
M 3366 4563 
L 3366 3988 
Q 3128 4100 2886 4159 
Q 2644 4219 2406 4219 
Q 1781 4219 1451 3797 
Q 1122 3375 1075 2522 
Q 1259 2794 1537 2939 
Q 1816 3084 2150 3084 
Q 2853 3084 3261 2657 
Q 3669 2231 3669 1497 
Q 3669 778 3244 343 
Q 2819 -91 2113 -91 
Q 1303 -91 875 529 
Q 447 1150 447 2328 
Q 447 3434 972 4092 
Q 1497 4750 2381 4750 
Q 2619 4750 2861 4703 
Q 3103 4656 3366 4563 
z
" transform="scale(0.015625)"/>
       </defs>
       <use xlink:href="#DejaVuSans-31"/>
       <use xlink:href="#DejaVuSans-36" transform="translate(63.623047 0)"/>
       <use xlink:href="#DejaVuSans-30" transform="translate(127.246094 0)"/>
       <use xlink:href="#DejaVuSans-30" transform="translate(190.869141 0)"/>
       <use xlink:href="#DejaVuSans-30" transform="translate(254.492188 0)"/>
      </g>
     </g>
    </g>
    <g id="xtick_4">
     <g id="line2d_4">
      <g>
       <use xlink:href="#m3f219ffb30" x="536.178794" y="301.230437" style="stroke: #000000; stroke-width: 0.8"/>
      </g>
     </g>
     <g id="text_4">
      <!-- 18000 -->
      <g transform="translate(512.319419 319.628094) scale(0.15 -0.15)">
       <defs>
        <path id="DejaVuSans-38" d="M 2034 2216 
Q 1584 2216 1326 1975 
Q 1069 1734 1069 1313 
Q 1069 891 1326 650 
Q 1584 409 2034 409 
Q 2484 409 2743 651 
Q 3003 894 3003 1313 
Q 3003 1734 2745 1975 
Q 2488 2216 2034 2216 
z
M 1403 2484 
Q 997 2584 770 2862 
Q 544 3141 544 3541 
Q 544 4100 942 4425 
Q 1341 4750 2034 4750 
Q 2731 4750 3128 4425 
Q 3525 4100 3525 3541 
Q 3525 3141 3298 2862 
Q 3072 2584 2669 2484 
Q 3125 2378 3379 2068 
Q 3634 1759 3634 1313 
Q 3634 634 3220 271 
Q 2806 -91 2034 -91 
Q 1263 -91 848 271 
Q 434 634 434 1313 
Q 434 1759 690 2068 
Q 947 2378 1403 2484 
z
M 1172 3481 
Q 1172 3119 1398 2916 
Q 1625 2713 2034 2713 
Q 2441 2713 2670 2916 
Q 2900 3119 2900 3481 
Q 2900 3844 2670 4047 
Q 2441 4250 2034 4250 
Q 1625 4250 1398 4047 
Q 1172 3844 1172 3481 
z
" transform="scale(0.015625)"/>
       </defs>
       <use xlink:href="#DejaVuSans-31"/>
       <use xlink:href="#DejaVuSans-38" transform="translate(63.623047 0)"/>
       <use xlink:href="#DejaVuSans-30" transform="translate(127.246094 0)"/>
       <use xlink:href="#DejaVuSans-30" transform="translate(190.869141 0)"/>
       <use xlink:href="#DejaVuSans-30" transform="translate(254.492188 0)"/>
      </g>
     </g>
    </g>
    <g id="xtick_5">
     <g id="line2d_5">
      <g>
       <use xlink:href="#m3f219ffb30" x="664.93233" y="301.230437" style="stroke: #000000; stroke-width: 0.8"/>
      </g>
     </g>
     <g id="text_5">
      <!-- 20000 -->
      <g transform="translate(641.072955 319.628094) scale(0.15 -0.15)">
       <use xlink:href="#DejaVuSans-32"/>
       <use xlink:href="#DejaVuSans-30" transform="translate(63.623047 0)"/>
       <use xlink:href="#DejaVuSans-30" transform="translate(127.246094 0)"/>
       <use xlink:href="#DejaVuSans-30" transform="translate(190.869141 0)"/>
       <use xlink:href="#DejaVuSans-30" transform="translate(254.492188 0)"/>
      </g>
     </g>
    </g>
    <g id="text_6">
     <!-- $\text{Last Interaction Velocity}\,[\mathrm{km\,s^{-1}}]$ -->
     <g transform="translate(260.436875 339.347625) scale(0.14 -0.14)">
      <defs>
       <path id="DejaVuSans-4c" d="M 628 4666 
L 1259 4666 
L 1259 531 
L 3531 531 
L 3531 0 
L 628 0 
L 628 4666 
z
" transform="scale(0.015625)"/>
       <path id="DejaVuSans-61" d="M 2194 1759 
Q 1497 1759 1228 1600 
Q 959 1441 959 1056 
Q 959 750 1161 570 
Q 1363 391 1709 391 
Q 2188 391 2477 730 
Q 2766 1069 2766 1631 
L 2766 1759 
L 2194 1759 
z
M 3341 1997 
L 3341 0 
L 2766 0 
L 2766 531 
Q 2569 213 2275 61 
Q 1981 -91 1556 -91 
Q 1019 -91 701 211 
Q 384 513 384 1019 
Q 384 1609 779 1909 
Q 1175 2209 1959 2209 
L 2766 2209 
L 2766 2266 
Q 2766 2663 2505 2880 
Q 2244 3097 1772 3097 
Q 1472 3097 1187 3025 
Q 903 2953 641 2809 
L 641 3341 
Q 956 3463 1253 3523 
Q 1550 3584 1831 3584 
Q 2591 3584 2966 3190 
Q 3341 2797 3341 1997 
z
" transform="scale(0.015625)"/>
       <path id="DejaVuSans-73" d="M 2834 3397 
L 2834 2853 
Q 2591 2978 2328 3040 
Q 2066 3103 1784 3103 
Q 1356 3103 1142 2972 
Q 928 2841 928 2578 
Q 928 2378 1081 2264 
Q 1234 2150 1697 2047 
L 1894 2003 
Q 2506 1872 2764 1633 
Q 3022 1394 3022 966 
Q 3022 478 2636 193 
Q 2250 -91 1575 -91 
Q 1294 -91 989 -36 
Q 684 19 347 128 
L 347 722 
Q 666 556 975 473 
Q 1284 391 1588 391 
Q 1994 391 2212 530 
Q 2431 669 2431 922 
Q 2431 1156 2273 1281 
Q 2116 1406 1581 1522 
L 1381 1569 
Q 847 1681 609 1914 
Q 372 2147 372 2553 
Q 372 3047 722 3315 
Q 1072 3584 1716 3584 
Q 2034 3584 2315 3537 
Q 2597 3491 2834 3397 
z
" transform="scale(0.015625)"/>
       <path id="DejaVuSans-74" d="M 1172 4494 
L 1172 3500 
L 2356 3500 
L 2356 3053 
L 1172 3053 
L 1172 1153 
Q 1172 725 1289 603 
Q 1406 481 1766 481 
L 2356 481 
L 2356 0 
L 1766 0 
Q 1100 0 847 248 
Q 594 497 594 1153 
L 594 3053 
L 172 3053 
L 172 3500 
L 594 3500 
L 594 4494 
L 1172 4494 
z
" transform="scale(0.015625)"/>
       <path id="DejaVuSans-20" transform="scale(0.015625)"/>
       <path id="DejaVuSans-49" d="M 628 4666 
L 1259 4666 
L 1259 0 
L 628 0 
L 628 4666 
z
" transform="scale(0.015625)"/>
       <path id="DejaVuSans-6e" d="M 3513 2113 
L 3513 0 
L 2938 0 
L 2938 2094 
Q 2938 2591 2744 2837 
Q 2550 3084 2163 3084 
Q 1697 3084 1428 2787 
Q 1159 2491 1159 1978 
L 1159 0 
L 581 0 
L 581 3500 
L 1159 3500 
L 1159 2956 
Q 1366 3272 1645 3428 
Q 1925 3584 2291 3584 
Q 2894 3584 3203 3211 
Q 3513 2838 3513 2113 
z
" transform="scale(0.015625)"/>
       <path id="DejaVuSans-65" d="M 3597 1894 
L 3597 1613 
L 953 1613 
Q 991 1019 1311 708 
Q 1631 397 2203 397 
Q 2534 397 2845 478 
Q 3156 559 3463 722 
L 3463 178 
Q 3153 47 2828 -22 
Q 2503 -91 2169 -91 
Q 1331 -91 842 396 
Q 353 884 353 1716 
Q 353 2575 817 3079 
Q 1281 3584 2069 3584 
Q 2775 3584 3186 3129 
Q 3597 2675 3597 1894 
z
M 3022 2063 
Q 3016 2534 2758 2815 
Q 2500 3097 2075 3097 
Q 1594 3097 1305 2825 
Q 1016 2553 972 2059 
L 3022 2063 
z
" transform="scale(0.015625)"/>
       <path id="DejaVuSans-72" d="M 2631 2963 
Q 2534 3019 2420 3045 
Q 2306 3072 2169 3072 
Q 1681 3072 1420 2755 
Q 1159 2438 1159 1844 
L 1159 0 
L 581 0 
L 581 3500 
L 1159 3500 
L 1159 2956 
Q 1341 3275 1631 3429 
Q 1922 3584 2338 3584 
Q 2397 3584 2469 3576 
Q 2541 3569 2628 3553 
L 2631 2963 
z
" transform="scale(0.015625)"/>
       <path id="DejaVuSans-63" d="M 3122 3366 
L 3122 2828 
Q 2878 2963 2633 3030 
Q 2388 3097 2138 3097 
Q 1578 3097 1268 2742 
Q 959 2388 959 1747 
Q 959 1106 1268 751 
Q 1578 397 2138 397 
Q 2388 397 2633 464 
Q 2878 531 3122 666 
L 3122 134 
Q 2881 22 2623 -34 
Q 2366 -91 2075 -91 
Q 1284 -91 818 406 
Q 353 903 353 1747 
Q 353 2603 823 3093 
Q 1294 3584 2113 3584 
Q 2378 3584 2631 3529 
Q 2884 3475 3122 3366 
z
" transform="scale(0.015625)"/>
       <path id="DejaVuSans-69" d="M 603 3500 
L 1178 3500 
L 1178 0 
L 603 0 
L 603 3500 
z
M 603 4863 
L 1178 4863 
L 1178 4134 
L 603 4134 
L 603 4863 
z
" transform="scale(0.015625)"/>
       <path id="DejaVuSans-6f" d="M 1959 3097 
Q 1497 3097 1228 2736 
Q 959 2375 959 1747 
Q 959 1119 1226 758 
Q 1494 397 1959 397 
Q 2419 397 2687 759 
Q 2956 1122 2956 1747 
Q 2956 2369 2687 2733 
Q 2419 3097 1959 3097 
z
M 1959 3584 
Q 2709 3584 3137 3096 
Q 3566 2609 3566 1747 
Q 3566 888 3137 398 
Q 2709 -91 1959 -91 
Q 1206 -91 779 398 
Q 353 888 353 1747 
Q 353 2609 779 3096 
Q 1206 3584 1959 3584 
z
" transform="scale(0.015625)"/>
       <path id="DejaVuSans-56" d="M 1831 0 
L 50 4666 
L 709 4666 
L 2188 738 
L 3669 4666 
L 4325 4666 
L 2547 0 
L 1831 0 
z
" transform="scale(0.015625)"/>
       <path id="DejaVuSans-6c" d="M 603 4863 
L 1178 4863 
L 1178 0 
L 603 0 
L 603 4863 
z
" transform="scale(0.015625)"/>
       <path id="DejaVuSans-79" d="M 2059 -325 
Q 1816 -950 1584 -1140 
Q 1353 -1331 966 -1331 
L 506 -1331 
L 506 -850 
L 844 -850 
Q 1081 -850 1212 -737 
Q 1344 -625 1503 -206 
L 1606 56 
L 191 3500 
L 800 3500 
L 1894 763 
L 2988 3500 
L 3597 3500 
L 2059 -325 
z
" transform="scale(0.015625)"/>
       <path id="DejaVuSans-5b" d="M 550 4863 
L 1875 4863 
L 1875 4416 
L 1125 4416 
L 1125 -397 
L 1875 -397 
L 1875 -844 
L 550 -844 
L 550 4863 
z
" transform="scale(0.015625)"/>
       <path id="DejaVuSans-6b" d="M 581 4863 
L 1159 4863 
L 1159 1991 
L 2875 3500 
L 3609 3500 
L 1753 1863 
L 3688 0 
L 2938 0 
L 1159 1709 
L 1159 0 
L 581 0 
L 581 4863 
z
" transform="scale(0.015625)"/>
       <path id="DejaVuSans-6d" d="M 3328 2828 
Q 3544 3216 3844 3400 
Q 4144 3584 4550 3584 
Q 5097 3584 5394 3201 
Q 5691 2819 5691 2113 
L 5691 0 
L 5113 0 
L 5113 2094 
Q 5113 2597 4934 2840 
Q 4756 3084 4391 3084 
Q 3944 3084 3684 2787 
Q 3425 2491 3425 1978 
L 3425 0 
L 2847 0 
L 2847 2094 
Q 2847 2600 2669 2842 
Q 2491 3084 2119 3084 
Q 1678 3084 1418 2786 
Q 1159 2488 1159 1978 
L 1159 0 
L 581 0 
L 581 3500 
L 1159 3500 
L 1159 2956 
Q 1356 3278 1631 3431 
Q 1906 3584 2284 3584 
Q 2666 3584 2933 3390 
Q 3200 3197 3328 2828 
z
" transform="scale(0.015625)"/>
       <path id="DejaVuSans-2212" d="M 678 2272 
L 4684 2272 
L 4684 1741 
L 678 1741 
L 678 2272 
z
" transform="scale(0.015625)"/>
       <path id="DejaVuSans-5d" d="M 1947 4863 
L 1947 -844 
L 622 -844 
L 622 -397 
L 1369 -397 
L 1369 4416 
L 622 4416 
L 622 4863 
L 1947 4863 
z
" transform="scale(0.015625)"/>
      </defs>
      <use xlink:href="#DejaVuSans-4c" transform="translate(0 0.684375)"/>
      <use xlink:href="#DejaVuSans-61" transform="translate(55.712891 0.684375)"/>
      <use xlink:href="#DejaVuSans-73" transform="translate(116.992188 0.684375)"/>
      <use xlink:href="#DejaVuSans-74" transform="translate(169.091797 0.684375)"/>
      <use xlink:href="#DejaVuSans-20" transform="translate(208.300781 0.684375)"/>
      <use xlink:href="#DejaVuSans-49" transform="translate(240.087891 0.684375)"/>
      <use xlink:href="#DejaVuSans-6e" transform="translate(269.580078 0.684375)"/>
      <use xlink:href="#DejaVuSans-74" transform="translate(332.958984 0.684375)"/>
      <use xlink:href="#DejaVuSans-65" transform="translate(372.167969 0.684375)"/>
      <use xlink:href="#DejaVuSans-72" transform="translate(433.691406 0.684375)"/>
      <use xlink:href="#DejaVuSans-61" transform="translate(474.804688 0.684375)"/>
      <use xlink:href="#DejaVuSans-63" transform="translate(536.083984 0.684375)"/>
      <use xlink:href="#DejaVuSans-74" transform="translate(591.064453 0.684375)"/>
      <use xlink:href="#DejaVuSans-69" transform="translate(630.273438 0.684375)"/>
      <use xlink:href="#DejaVuSans-6f" transform="translate(658.056641 0.684375)"/>
      <use xlink:href="#DejaVuSans-6e" transform="translate(719.238281 0.684375)"/>
      <use xlink:href="#DejaVuSans-20" transform="translate(782.617188 0.684375)"/>
      <use xlink:href="#DejaVuSans-56" transform="translate(814.404297 0.684375)"/>
      <use xlink:href="#DejaVuSans-65" transform="translate(882.8125 0.684375)"/>
      <use xlink:href="#DejaVuSans-6c" transform="translate(944.335938 0.684375)"/>
      <use xlink:href="#DejaVuSans-6f" transform="translate(972.119141 0.684375)"/>
      <use xlink:href="#DejaVuSans-63" transform="translate(1033.300781 0.684375)"/>
      <use xlink:href="#DejaVuSans-69" transform="translate(1088.28125 0.684375)"/>
      <use xlink:href="#DejaVuSans-74" transform="translate(1116.064453 0.684375)"/>
      <use xlink:href="#DejaVuSans-79" transform="translate(1155.273438 0.684375)"/>
      <use xlink:href="#DejaVuSans-5b" transform="translate(1230.688801 0.684375)"/>
      <use xlink:href="#DejaVuSans-6b" transform="translate(1269.702473 0.684375)"/>
      <use xlink:href="#DejaVuSans-6d" transform="translate(1327.612629 0.684375)"/>
      <use xlink:href="#DejaVuSans-73" transform="translate(1441.260415 0.684375)"/>
      <use xlink:href="#DejaVuSans-2212" transform="translate(1494.317056 38.965625) scale(0.7)"/>
      <use xlink:href="#DejaVuSans-31" transform="translate(1552.969399 38.965625) scale(0.7)"/>
      <use xlink:href="#DejaVuSans-5d" transform="translate(1600.239907 0.684375)"/>
     </g>
    </g>
   </g>
   <g id="matplotlib.axis_2">
    <g id="ytick_1">
     <g id="line2d_6">
      <defs>
       <path id="mea966876a1" d="M 0 0 
L -3.5 0 
" style="stroke: #000000; stroke-width: 0.8"/>
      </defs>
      <g>
       <use xlink:href="#mea966876a1" x="56.571875" y="288.347165" style="stroke: #000000; stroke-width: 0.8"/>
      </g>
     </g>
     <g id="text_7">
      <!-- 0.0 -->
      <g transform="translate(25.717188 294.045993) scale(0.15 -0.15)">
       <defs>
        <path id="DejaVuSans-2e" d="M 684 794 
L 1344 794 
L 1344 0 
L 684 0 
L 684 794 
z
" transform="scale(0.015625)"/>
       </defs>
       <use xlink:href="#DejaVuSans-30"/>
       <use xlink:href="#DejaVuSans-2e" transform="translate(63.623047 0)"/>
       <use xlink:href="#DejaVuSans-30" transform="translate(95.410156 0)"/>
      </g>
     </g>
    </g>
    <g id="ytick_2">
     <g id="line2d_7">
      <g>
       <use xlink:href="#mea966876a1" x="56.571875" y="247.577314" style="stroke: #000000; stroke-width: 0.8"/>
      </g>
     </g>
     <g id="text_8">
      <!-- 0.2 -->
      <g transform="translate(25.717188 253.276142) scale(0.15 -0.15)">
       <use xlink:href="#DejaVuSans-30"/>
       <use xlink:href="#DejaVuSans-2e" transform="translate(63.623047 0)"/>
       <use xlink:href="#DejaVuSans-32" transform="translate(95.410156 0)"/>
      </g>
     </g>
    </g>
    <g id="ytick_3">
     <g id="line2d_8">
      <g>
       <use xlink:href="#mea966876a1" x="56.571875" y="206.807464" style="stroke: #000000; stroke-width: 0.8"/>
      </g>
     </g>
     <g id="text_9">
      <!-- 0.4 -->
      <g transform="translate(25.717188 212.506292) scale(0.15 -0.15)">
       <use xlink:href="#DejaVuSans-30"/>
       <use xlink:href="#DejaVuSans-2e" transform="translate(63.623047 0)"/>
       <use xlink:href="#DejaVuSans-34" transform="translate(95.410156 0)"/>
      </g>
     </g>
    </g>
    <g id="ytick_4">
     <g id="line2d_9">
      <g>
       <use xlink:href="#mea966876a1" x="56.571875" y="166.037614" style="stroke: #000000; stroke-width: 0.8"/>
      </g>
     </g>
     <g id="text_10">
      <!-- 0.6 -->
      <g transform="translate(25.717188 171.736442) scale(0.15 -0.15)">
       <use xlink:href="#DejaVuSans-30"/>
       <use xlink:href="#DejaVuSans-2e" transform="translate(63.623047 0)"/>
       <use xlink:href="#DejaVuSans-36" transform="translate(95.410156 0)"/>
      </g>
     </g>
    </g>
    <g id="ytick_5">
     <g id="line2d_10">
      <g>
       <use xlink:href="#mea966876a1" x="56.571875" y="125.267763" style="stroke: #000000; stroke-width: 0.8"/>
      </g>
     </g>
     <g id="text_11">
      <!-- 0.8 -->
      <g transform="translate(25.717188 130.966591) scale(0.15 -0.15)">
       <use xlink:href="#DejaVuSans-30"/>
       <use xlink:href="#DejaVuSans-2e" transform="translate(63.623047 0)"/>
       <use xlink:href="#DejaVuSans-38" transform="translate(95.410156 0)"/>
      </g>
     </g>
    </g>
    <g id="ytick_6">
     <g id="line2d_11">
      <g>
       <use xlink:href="#mea966876a1" x="56.571875" y="84.497913" style="stroke: #000000; stroke-width: 0.8"/>
      </g>
     </g>
     <g id="text_12">
      <!-- 1.0 -->
      <g transform="translate(25.717188 90.196741) scale(0.15 -0.15)">
       <use xlink:href="#DejaVuSans-31"/>
       <use xlink:href="#DejaVuSans-2e" transform="translate(63.623047 0)"/>
       <use xlink:href="#DejaVuSans-30" transform="translate(95.410156 0)"/>
      </g>
     </g>
    </g>
    <g id="ytick_7">
     <g id="line2d_12">
      <g>
       <use xlink:href="#mea966876a1" x="56.571875" y="43.728062" style="stroke: #000000; stroke-width: 0.8"/>
      </g>
     </g>
     <g id="text_13">
      <!-- 1.2 -->
      <g transform="translate(25.717188 49.42689) scale(0.15 -0.15)">
       <use xlink:href="#DejaVuSans-31"/>
       <use xlink:href="#DejaVuSans-2e" transform="translate(63.623047 0)"/>
       <use xlink:href="#DejaVuSans-32" transform="translate(95.410156 0)"/>
      </g>
     </g>
    </g>
    <g id="text_14">
     <!-- $\text{Packet Count}$ -->
     <g transform="translate(18.597656 209.314437) rotate(-90) scale(0.15 -0.15)">
      <defs>
       <path id="DejaVuSans-50" d="M 1259 4147 
L 1259 2394 
L 2053 2394 
Q 2494 2394 2734 2622 
Q 2975 2850 2975 3272 
Q 2975 3691 2734 3919 
Q 2494 4147 2053 4147 
L 1259 4147 
z
M 628 4666 
L 2053 4666 
Q 2838 4666 3239 4311 
Q 3641 3956 3641 3272 
Q 3641 2581 3239 2228 
Q 2838 1875 2053 1875 
L 1259 1875 
L 1259 0 
L 628 0 
L 628 4666 
z
" transform="scale(0.015625)"/>
       <path id="DejaVuSans-43" d="M 4122 4306 
L 4122 3641 
Q 3803 3938 3442 4084 
Q 3081 4231 2675 4231 
Q 1875 4231 1450 3742 
Q 1025 3253 1025 2328 
Q 1025 1406 1450 917 
Q 1875 428 2675 428 
Q 3081 428 3442 575 
Q 3803 722 4122 1019 
L 4122 359 
Q 3791 134 3420 21 
Q 3050 -91 2638 -91 
Q 1578 -91 968 557 
Q 359 1206 359 2328 
Q 359 3453 968 4101 
Q 1578 4750 2638 4750 
Q 3056 4750 3426 4639 
Q 3797 4528 4122 4306 
z
" transform="scale(0.015625)"/>
       <path id="DejaVuSans-75" d="M 544 1381 
L 544 3500 
L 1119 3500 
L 1119 1403 
Q 1119 906 1312 657 
Q 1506 409 1894 409 
Q 2359 409 2629 706 
Q 2900 1003 2900 1516 
L 2900 3500 
L 3475 3500 
L 3475 0 
L 2900 0 
L 2900 538 
Q 2691 219 2414 64 
Q 2138 -91 1772 -91 
Q 1169 -91 856 284 
Q 544 659 544 1381 
z
M 1991 3584 
L 1991 3584 
z
" transform="scale(0.015625)"/>
      </defs>
      <use xlink:href="#DejaVuSans-50" transform="translate(0 0.015625)"/>
      <use xlink:href="#DejaVuSans-61" transform="translate(60.302734 0.015625)"/>
      <use xlink:href="#DejaVuSans-63" transform="translate(121.582031 0.015625)"/>
      <use xlink:href="#DejaVuSans-6b" transform="translate(176.5625 0.015625)"/>
      <use xlink:href="#DejaVuSans-65" transform="translate(234.472656 0.015625)"/>
      <use xlink:href="#DejaVuSans-74" transform="translate(295.996094 0.015625)"/>
      <use xlink:href="#DejaVuSans-20" transform="translate(335.205078 0.015625)"/>
      <use xlink:href="#DejaVuSans-43" transform="translate(366.992188 0.015625)"/>
      <use xlink:href="#DejaVuSans-6f" transform="translate(436.816406 0.015625)"/>
      <use xlink:href="#DejaVuSans-75" transform="translate(497.998047 0.015625)"/>
      <use xlink:href="#DejaVuSans-6e" transform="translate(561.376953 0.015625)"/>
      <use xlink:href="#DejaVuSans-74" transform="translate(624.755859 0.015625)"/>
     </g>
    </g>
    <g id="text_15">
     <!-- 1e3 -->
     <g transform="translate(56.571875 14.798437) scale(0.1 -0.1)">
      <defs>
       <path id="DejaVuSans-33" d="M 2597 2516 
Q 3050 2419 3304 2112 
Q 3559 1806 3559 1356 
Q 3559 666 3084 287 
Q 2609 -91 1734 -91 
Q 1441 -91 1130 -33 
Q 819 25 488 141 
L 488 750 
Q 750 597 1062 519 
Q 1375 441 1716 441 
Q 2309 441 2620 675 
Q 2931 909 2931 1356 
Q 2931 1769 2642 2001 
Q 2353 2234 1838 2234 
L 1294 2234 
L 1294 2753 
L 1863 2753 
Q 2328 2753 2575 2939 
Q 2822 3125 2822 3475 
Q 2822 3834 2567 4026 
Q 2313 4219 1838 4219 
Q 1578 4219 1281 4162 
Q 984 4106 628 3988 
L 628 4550 
Q 988 4650 1302 4700 
Q 1616 4750 1894 4750 
Q 2613 4750 3031 4423 
Q 3450 4097 3450 3541 
Q 3450 3153 3228 2886 
Q 3006 2619 2597 2516 
z
" transform="scale(0.015625)"/>
      </defs>
      <use xlink:href="#DejaVuSans-31"/>
      <use xlink:href="#DejaVuSans-65" transform="translate(63.623047 0)"/>
      <use xlink:href="#DejaVuSans-33" transform="translate(125.146484 0)"/>
     </g>
    </g>
   </g>
   <g id="line2d_13">
    <path d="M 85.54142 285.289426 
L 114.510966 285.289426 
L 114.510966 285.289426 
L 114.510966 285.289426 
L 114.510966 285.900974 
L 143.480511 285.900974 
L 143.480511 285.900974 
L 143.480511 285.900974 
L 143.480511 285.697124 
L 172.450057 285.697124 
L 172.450057 285.697124 
L 172.450057 285.697124 
L 172.450057 286.716371 
L 201.419602 286.716371 
L 201.419602 286.716371 
L 201.419602 286.716371 
L 201.419602 287.124069 
L 230.389148 287.124069 
L 230.389148 287.124069 
L 230.389148 287.124069 
L 230.389148 287.124069 
L 259.358693 287.124069 
L 259.358693 287.124069 
L 259.358693 287.124069 
L 259.358693 287.327919 
L 288.328239 287.327919 
L 288.328239 287.327919 
L 288.328239 287.327919 
L 288.328239 287.531768 
L 317.297784 287.531768 
L 317.297784 287.531768 
L 317.297784 287.531768 
L 317.297784 287.939466 
L 346.26733 287.939466 
L 346.26733 287.939466 
L 346.26733 287.939466 
L 346.26733 287.531768 
L 375.236875 287.531768 
L 375.236875 287.531768 
L 375.236875 287.531768 
L 375.236875 285.493275 
L 404.20642 285.493275 
L 404.20642 285.493275 
L 404.20642 285.493275 
L 404.20642 284.881727 
L 433.175966 284.881727 
L 433.175966 284.881727 
L 433.175966 284.881727 
L 433.175966 285.085577 
L 462.145511 285.085577 
L 462.145511 285.085577 
L 462.145511 285.085577 
L 462.145511 284.06633 
L 491.115057 284.06633 
L 491.115057 284.06633 
L 491.115057 284.06633 
L 491.115057 279.989345 
L 520.084602 279.989345 
L 520.084602 279.989345 
L 520.084602 279.989345 
L 520.084602 280.193195 
L 549.054148 280.193195 
L 549.054148 280.193195 
L 549.054148 280.193195 
L 549.054148 281.212441 
L 578.023693 281.212441 
L 578.023693 281.212441 
L 578.023693 281.212441 
L 578.023693 283.047084 
L 606.993239 283.047084 
L 606.993239 283.047084 
L 606.993239 283.047084 
L 606.993239 280.600893 
L 635.962784 280.600893 
L 635.962784 280.600893 
L 635.962784 280.600893 
L 635.962784 279.173948 
L 664.93233 279.173948 
L 664.93233 279.173948 
" clip-path="url(#pb32f7bd6c9)" style="fill: none; stroke: #000080; stroke-opacity: 0.75; stroke-width: 2.5; stroke-linecap: square"/>
   </g>
   <g id="line2d_14">
    <path d="M 85.54142 236.977153 
L 114.510966 236.977153 
L 114.510966 236.977153 
L 114.510966 236.977153 
L 114.510966 255.119737 
L 143.480511 255.119737 
L 143.480511 255.119737 
L 143.480511 255.119737 
L 143.480511 261.439064 
L 172.450057 261.439064 
L 172.450057 261.439064 
L 172.450057 261.439064 
L 172.450057 264.496802 
L 201.419602 264.496802 
L 201.419602 264.496802 
L 201.419602 264.496802 
L 201.419602 263.273707 
L 230.389148 263.273707 
L 230.389148 263.273707 
L 230.389148 263.273707 
L 230.389148 265.10835 
L 259.358693 265.10835 
L 259.358693 265.10835 
L 259.358693 265.10835 
L 259.358693 266.127596 
L 288.328239 266.127596 
L 288.328239 266.127596 
L 288.328239 266.127596 
L 288.328239 268.369938 
L 317.297784 268.369938 
L 317.297784 268.369938 
L 317.297784 268.369938 
L 317.297784 267.350692 
L 346.26733 267.350692 
L 346.26733 267.350692 
L 346.26733 267.350692 
L 346.26733 269.389184 
L 375.236875 269.389184 
L 375.236875 269.389184 
L 375.236875 269.389184 
L 375.236875 269.593034 
L 404.20642 269.593034 
L 404.20642 269.593034 
L 404.20642 269.593034 
L 404.20642 273.058471 
L 433.175966 273.058471 
L 433.175966 273.058471 
L 433.175966 273.058471 
L 433.175966 273.058471 
L 462.145511 273.058471 
L 462.145511 273.058471 
L 462.145511 273.058471 
L 462.145511 275.096963 
L 491.115057 275.096963 
L 491.115057 275.096963 
L 491.115057 275.096963 
L 491.115057 277.543154 
L 520.084602 277.543154 
L 520.084602 277.543154 
L 520.084602 277.543154 
L 520.084602 277.339305 
L 549.054148 277.339305 
L 549.054148 277.339305 
L 549.054148 277.339305 
L 549.054148 278.562401 
L 578.023693 278.562401 
L 578.023693 278.562401 
L 578.023693 278.562401 
L 578.023693 280.397044 
L 606.993239 280.397044 
L 606.993239 280.397044 
L 606.993239 280.397044 
L 606.993239 282.231687 
L 635.962784 282.231687 
L 635.962784 282.231687 
L 635.962784 282.231687 
L 635.962784 280.804742 
L 664.93233 280.804742 
L 664.93233 280.804742 
" clip-path="url(#pb32f7bd6c9)" style="fill: none; stroke: #004cff; stroke-opacity: 0.75; stroke-width: 2.5; stroke-linecap: square"/>
   </g>
   <g id="line2d_15">
    <path d="M 85.54142 30.68171 
L 114.510966 30.68171 
L 114.510966 30.68171 
L 114.510966 30.68171 
L 114.510966 51.474334 
L 143.480511 51.474334 
L 143.480511 51.474334 
L 143.480511 51.474334 
L 143.480511 63.909138 
L 172.450057 63.909138 
L 172.450057 63.909138 
L 172.450057 63.909138 
L 172.450057 113.240657 
L 201.419602 113.240657 
L 201.419602 113.240657 
L 201.419602 113.240657 
L 201.419602 131.994788 
L 230.389148 131.994788 
L 230.389148 131.994788 
L 230.389148 131.994788 
L 230.389148 147.691181 
L 259.358693 147.691181 
L 259.358693 147.691181 
L 259.358693 147.691181 
L 259.358693 161.55293 
L 288.328239 161.55293 
L 288.328239 161.55293 
L 288.328239 161.55293 
L 288.328239 176.433925 
L 317.297784 176.433925 
L 317.297784 176.433925 
L 317.297784 176.433925 
L 317.297784 188.053333 
L 346.26733 188.053333 
L 346.26733 188.053333 
L 346.26733 188.053333 
L 346.26733 205.584368 
L 375.236875 205.584368 
L 375.236875 205.584368 
L 375.236875 205.584368 
L 375.236875 216.796077 
L 404.20642 216.796077 
L 404.20642 216.796077 
L 404.20642 216.796077 
L 404.20642 222.707706 
L 433.175966 222.707706 
L 433.175966 222.707706 
L 433.175966 222.707706 
L 433.175966 233.715565 
L 462.145511 233.715565 
L 462.145511 233.715565 
L 462.145511 233.715565 
L 462.145511 241.461837 
L 491.115057 241.461837 
L 491.115057 241.461837 
L 491.115057 241.461837 
L 491.115057 245.742671 
L 520.084602 245.742671 
L 520.084602 245.742671 
L 520.084602 245.742671 
L 520.084602 258.381325 
L 549.054148 258.381325 
L 549.054148 258.381325 
L 549.054148 258.381325 
L 549.054148 259.400571 
L 578.023693 259.400571 
L 578.023693 259.400571 
L 578.023693 259.400571 
L 578.023693 261.031365 
L 606.993239 261.031365 
L 606.993239 261.031365 
L 606.993239 261.031365 
L 606.993239 264.496802 
L 635.962784 264.496802 
L 635.962784 264.496802 
L 635.962784 264.496802 
L 635.962784 262.050611 
L 664.93233 262.050611 
L 664.93233 262.050611 
" clip-path="url(#pb32f7bd6c9)" style="fill: none; stroke: #29ffce; stroke-opacity: 0.75; stroke-width: 2.5; stroke-linecap: square"/>
   </g>
   <g id="line2d_16">
    <path d="M 85.54142 92.651883 
L 114.510966 92.651883 
L 114.510966 92.651883 
L 114.510966 92.651883 
L 114.510966 168.483805 
L 143.480511 168.483805 
L 143.480511 168.483805 
L 143.480511 168.483805 
L 143.480511 207.622861 
L 172.450057 207.622861 
L 172.450057 207.622861 
L 172.450057 207.622861 
L 172.450057 234.530962 
L 201.419602 234.530962 
L 201.419602 234.530962 
L 201.419602 234.530962 
L 201.419602 250.838902 
L 230.389148 250.838902 
L 230.389148 250.838902 
L 230.389148 250.838902 
L 230.389148 265.719898 
L 259.358693 265.719898 
L 259.358693 265.719898 
L 259.358693 265.719898 
L 259.358693 269.796883 
L 288.328239 269.796883 
L 288.328239 269.796883 
L 288.328239 269.796883 
L 288.328239 275.096963 
L 317.297784 275.096963 
L 317.297784 275.096963 
L 317.297784 275.096963 
L 317.297784 277.339305 
L 346.26733 277.339305 
L 346.26733 277.339305 
L 346.26733 277.339305 
L 346.26733 280.397044 
L 375.236875 280.397044 
L 375.236875 280.397044 
L 375.236875 280.397044 
L 375.236875 280.600893 
L 404.20642 280.600893 
L 404.20642 280.600893 
L 404.20642 280.600893 
L 404.20642 284.27018 
L 433.175966 284.27018 
L 433.175966 284.27018 
L 433.175966 284.27018 
L 433.175966 283.250933 
L 462.145511 283.250933 
L 462.145511 283.250933 
L 462.145511 283.250933 
L 462.145511 284.677878 
L 491.115057 284.677878 
L 491.115057 284.677878 
L 491.115057 284.677878 
L 491.115057 284.06633 
L 520.084602 284.06633 
L 520.084602 284.06633 
L 520.084602 284.06633 
L 520.084602 283.047084 
L 549.054148 283.047084 
L 549.054148 283.047084 
L 549.054148 283.047084 
L 549.054148 285.493275 
L 578.023693 285.493275 
L 578.023693 285.493275 
L 578.023693 285.493275 
L 578.023693 284.881727 
L 606.993239 284.881727 
L 606.993239 284.881727 
L 606.993239 284.881727 
L 606.993239 285.289426 
L 635.962784 285.289426 
L 635.962784 285.289426 
L 635.962784 285.289426 
L 635.962784 283.047084 
L 664.93233 283.047084 
L 664.93233 283.047084 
" clip-path="url(#pb32f7bd6c9)" style="fill: none; stroke: #ceff29; stroke-opacity: 0.75; stroke-width: 2.5; stroke-linecap: square"/>
   </g>
   <g id="line2d_17">
    <path d="M 85.54142 230.453977 
L 114.510966 230.453977 
L 114.510966 230.453977 
L 114.510966 230.453977 
L 114.510966 246.965767 
L 143.480511 246.965767 
L 143.480511 246.965767 
L 143.480511 246.965767 
L 143.480511 265.10835 
L 172.450057 265.10835 
L 172.450057 265.10835 
L 172.450057 265.10835 
L 172.450057 272.854622 
L 201.419602 272.854622 
L 201.419602 272.854622 
L 201.419602 272.854622 
L 201.419602 277.543154 
L 230.389148 277.543154 
L 230.389148 277.543154 
L 230.389148 277.543154 
L 230.389148 282.435536 
L 259.358693 282.435536 
L 259.358693 282.435536 
L 259.358693 282.435536 
L 259.358693 284.677878 
L 288.328239 284.677878 
L 288.328239 284.677878 
L 288.328239 284.677878 
L 288.328239 285.697124 
L 317.297784 285.697124 
L 317.297784 285.697124 
L 317.297784 285.697124 
L 317.297784 286.716371 
L 346.26733 286.716371 
L 346.26733 286.716371 
L 346.26733 286.716371 
L 346.26733 286.308672 
L 375.236875 286.308672 
L 375.236875 286.308672 
L 375.236875 286.308672 
L 375.236875 288.347165 
L 404.20642 288.347165 
L 404.20642 288.347165 
L 404.20642 288.347165 
L 404.20642 288.143316 
L 433.175966 288.143316 
L 433.175966 288.143316 
L 433.175966 288.143316 
L 433.175966 288.143316 
L 462.145511 288.143316 
L 462.145511 288.143316 
L 462.145511 288.143316 
L 462.145511 288.347165 
L 491.115057 288.347165 
L 491.115057 288.347165 
L 491.115057 288.347165 
L 491.115057 288.143316 
L 520.084602 288.143316 
L 520.084602 288.143316 
L 520.084602 288.143316 
L 520.084602 288.347165 
L 549.054148 288.347165 
L 549.054148 288.347165 
L 549.054148 288.347165 
L 549.054148 288.347165 
L 578.023693 288.347165 
L 578.023693 288.347165 
L 578.023693 288.347165 
L 578.023693 288.347165 
L 606.993239 288.347165 
L 606.993239 288.347165 
L 606.993239 288.347165 
L 606.993239 287.939466 
L 635.962784 287.939466 
L 635.962784 287.939466 
L 635.962784 287.939466 
L 635.962784 288.143316 
L 664.93233 288.143316 
L 664.93233 288.143316 
" clip-path="url(#pb32f7bd6c9)" style="fill: none; stroke: #ff6800; stroke-opacity: 0.75; stroke-width: 2.5; stroke-linecap: square"/>
   </g>
   <g id="line2d_18">
    <path d="M 85.54142 228.007786 
L 114.510966 228.007786 
L 114.510966 228.007786 
L 114.510966 228.007786 
L 114.510966 241.665686 
L 143.480511 241.665686 
L 143.480511 241.665686 
L 143.480511 241.665686 
L 143.480511 252.877395 
L 172.450057 252.877395 
L 172.450057 252.877395 
L 172.450057 252.877395 
L 172.450057 265.312199 
L 201.419602 265.312199 
L 201.419602 265.312199 
L 201.419602 265.312199 
L 201.419602 270.816129 
L 230.389148 270.816129 
L 230.389148 270.816129 
L 230.389148 270.816129 
L 230.389148 278.358551 
L 259.358693 278.358551 
L 259.358693 278.358551 
L 259.358693 278.358551 
L 259.358693 281.008592 
L 288.328239 281.008592 
L 288.328239 281.008592 
L 288.328239 281.008592 
L 288.328239 281.212441 
L 317.297784 281.212441 
L 317.297784 281.212441 
L 317.297784 281.212441 
L 317.297784 284.881727 
L 346.26733 284.881727 
L 346.26733 284.881727 
L 346.26733 284.881727 
L 346.26733 286.104823 
L 375.236875 286.104823 
L 375.236875 286.104823 
L 375.236875 286.104823 
L 375.236875 285.493275 
L 404.20642 285.493275 
L 404.20642 285.493275 
L 404.20642 285.493275 
L 404.20642 286.92022 
L 433.175966 286.92022 
L 433.175966 286.92022 
L 433.175966 286.92022 
L 433.175966 287.531768 
L 462.145511 287.531768 
L 462.145511 287.531768 
L 462.145511 287.531768 
L 462.145511 287.327919 
L 491.115057 287.327919 
L 491.115057 287.327919 
L 491.115057 287.327919 
L 491.115057 288.347165 
L 520.084602 288.347165 
L 520.084602 288.347165 
L 520.084602 288.347165 
L 520.084602 288.347165 
L 549.054148 288.347165 
L 549.054148 288.347165 
L 549.054148 288.347165 
L 549.054148 287.939466 
L 578.023693 287.939466 
L 578.023693 287.939466 
L 578.023693 287.939466 
L 578.023693 288.143316 
L 606.993239 288.143316 
L 606.993239 288.143316 
L 606.993239 288.143316 
L 606.993239 288.347165 
L 635.962784 288.347165 
L 635.962784 288.347165 
L 635.962784 288.347165 
L 635.962784 288.347165 
L 664.93233 288.347165 
L 664.93233 288.347165 
" clip-path="url(#pb32f7bd6c9)" style="fill: none; stroke: #800000; stroke-opacity: 0.75; stroke-width: 2.5; stroke-linecap: square"/>
   </g>
   <g id="patch_3">
    <path d="M 56.571875 301.230437 
L 56.571875 17.798437 
" style="fill: none; stroke: #000000; stroke-width: 0.8; stroke-linejoin: miter; stroke-linecap: square"/>
   </g>
   <g id="patch_4">
    <path d="M 693.901875 301.230437 
L 693.901875 17.798437 
" style="fill: none; stroke: #000000; stroke-width: 0.8; stroke-linejoin: miter; stroke-linecap: square"/>
   </g>
   <g id="patch_5">
    <path d="M 56.571875 301.230437 
L 693.901875 301.230437 
" style="fill: none; stroke: #000000; stroke-width: 0.8; stroke-linejoin: miter; stroke-linecap: square"/>
   </g>
   <g id="patch_6">
    <path d="M 56.571875 17.798437 
L 693.901875 17.798437 
" style="fill: none; stroke: #000000; stroke-width: 0.8; stroke-linejoin: miter; stroke-linecap: square"/>
   </g>
   <g id="legend_1">
    <g id="patch_7">
     <path d="M 704.401875 161.901563 
L 774.866719 161.901563 
Q 777.866719 161.901563 777.866719 158.901563 
L 777.866719 28.298437 
Q 777.866719 25.298437 774.866719 25.298437 
L 704.401875 25.298437 
Q 701.401875 25.298437 701.401875 28.298437 
L 701.401875 158.901563 
Q 701.401875 161.901563 704.401875 161.901563 
z
" style="fill: #ffffff; opacity: 0.8; stroke: #cccccc; stroke-linejoin: miter"/>
    </g>
    <g id="line2d_19">
     <path d="M 707.401875 37.446094 
L 722.401875 37.446094 
L 722.401875 37.446094 
L 737.401875 37.446094 
L 737.401875 37.446094 
" style="fill: none; stroke: #000080; stroke-opacity: 0.75; stroke-width: 2.5; stroke-linecap: square"/>
    </g>
    <g id="text_16">
     <!-- O -->
     <g transform="translate(749.401875 42.696094) scale(0.15 -0.15)">
      <defs>
       <path id="DejaVuSans-4f" d="M 2522 4238 
Q 1834 4238 1429 3725 
Q 1025 3213 1025 2328 
Q 1025 1447 1429 934 
Q 1834 422 2522 422 
Q 3209 422 3611 934 
Q 4013 1447 4013 2328 
Q 4013 3213 3611 3725 
Q 3209 4238 2522 4238 
z
M 2522 4750 
Q 3503 4750 4090 4092 
Q 4678 3434 4678 2328 
Q 4678 1225 4090 567 
Q 3503 -91 2522 -91 
Q 1538 -91 948 565 
Q 359 1222 359 2328 
Q 359 3434 948 4092 
Q 1538 4750 2522 4750 
z
" transform="scale(0.015625)"/>
      </defs>
      <use xlink:href="#DejaVuSans-4f"/>
     </g>
    </g>
    <g id="line2d_20">
     <path d="M 707.401875 59.463281 
L 722.401875 59.463281 
L 722.401875 59.463281 
L 737.401875 59.463281 
L 737.401875 59.463281 
" style="fill: none; stroke: #004cff; stroke-opacity: 0.75; stroke-width: 2.5; stroke-linecap: square"/>
    </g>
    <g id="text_17">
     <!-- Mg -->
     <g transform="translate(749.401875 64.713281) scale(0.15 -0.15)">
      <defs>
       <path id="DejaVuSans-4d" d="M 628 4666 
L 1569 4666 
L 2759 1491 
L 3956 4666 
L 4897 4666 
L 4897 0 
L 4281 0 
L 4281 4097 
L 3078 897 
L 2444 897 
L 1241 4097 
L 1241 0 
L 628 0 
L 628 4666 
z
" transform="scale(0.015625)"/>
       <path id="DejaVuSans-67" d="M 2906 1791 
Q 2906 2416 2648 2759 
Q 2391 3103 1925 3103 
Q 1463 3103 1205 2759 
Q 947 2416 947 1791 
Q 947 1169 1205 825 
Q 1463 481 1925 481 
Q 2391 481 2648 825 
Q 2906 1169 2906 1791 
z
M 3481 434 
Q 3481 -459 3084 -895 
Q 2688 -1331 1869 -1331 
Q 1566 -1331 1297 -1286 
Q 1028 -1241 775 -1147 
L 775 -588 
Q 1028 -725 1275 -790 
Q 1522 -856 1778 -856 
Q 2344 -856 2625 -561 
Q 2906 -266 2906 331 
L 2906 616 
Q 2728 306 2450 153 
Q 2172 0 1784 0 
Q 1141 0 747 490 
Q 353 981 353 1791 
Q 353 2603 747 3093 
Q 1141 3584 1784 3584 
Q 2172 3584 2450 3431 
Q 2728 3278 2906 2969 
L 2906 3500 
L 3481 3500 
L 3481 434 
z
" transform="scale(0.015625)"/>
      </defs>
      <use xlink:href="#DejaVuSans-4d"/>
      <use xlink:href="#DejaVuSans-67" transform="translate(86.279297 0)"/>
     </g>
    </g>
    <g id="line2d_21">
     <path d="M 707.401875 81.480469 
L 722.401875 81.480469 
L 722.401875 81.480469 
L 737.401875 81.480469 
L 737.401875 81.480469 
" style="fill: none; stroke: #29ffce; stroke-opacity: 0.75; stroke-width: 2.5; stroke-linecap: square"/>
    </g>
    <g id="text_18">
     <!-- Si -->
     <g transform="translate(749.401875 86.730469) scale(0.15 -0.15)">
      <defs>
       <path id="DejaVuSans-53" d="M 3425 4513 
L 3425 3897 
Q 3066 4069 2747 4153 
Q 2428 4238 2131 4238 
Q 1616 4238 1336 4038 
Q 1056 3838 1056 3469 
Q 1056 3159 1242 3001 
Q 1428 2844 1947 2747 
L 2328 2669 
Q 3034 2534 3370 2195 
Q 3706 1856 3706 1288 
Q 3706 609 3251 259 
Q 2797 -91 1919 -91 
Q 1588 -91 1214 -16 
Q 841 59 441 206 
L 441 856 
Q 825 641 1194 531 
Q 1563 422 1919 422 
Q 2459 422 2753 634 
Q 3047 847 3047 1241 
Q 3047 1584 2836 1778 
Q 2625 1972 2144 2069 
L 1759 2144 
Q 1053 2284 737 2584 
Q 422 2884 422 3419 
Q 422 4038 858 4394 
Q 1294 4750 2059 4750 
Q 2388 4750 2728 4690 
Q 3069 4631 3425 4513 
z
" transform="scale(0.015625)"/>
      </defs>
      <use xlink:href="#DejaVuSans-53"/>
      <use xlink:href="#DejaVuSans-69" transform="translate(63.476562 0)"/>
     </g>
    </g>
    <g id="line2d_22">
     <path d="M 707.401875 103.497656 
L 722.401875 103.497656 
L 722.401875 103.497656 
L 737.401875 103.497656 
L 737.401875 103.497656 
" style="fill: none; stroke: #ceff29; stroke-opacity: 0.75; stroke-width: 2.5; stroke-linecap: square"/>
    </g>
    <g id="text_19">
     <!-- S -->
     <g transform="translate(749.401875 108.747656) scale(0.15 -0.15)">
      <use xlink:href="#DejaVuSans-53"/>
     </g>
    </g>
    <g id="line2d_23">
     <path d="M 707.401875 125.514844 
L 722.401875 125.514844 
L 722.401875 125.514844 
L 737.401875 125.514844 
L 737.401875 125.514844 
" style="fill: none; stroke: #ff6800; stroke-opacity: 0.75; stroke-width: 2.5; stroke-linecap: square"/>
    </g>
    <g id="text_20">
     <!-- Ar -->
     <g transform="translate(749.401875 130.764844) scale(0.15 -0.15)">
      <defs>
       <path id="DejaVuSans-41" d="M 2188 4044 
L 1331 1722 
L 3047 1722 
L 2188 4044 
z
M 1831 4666 
L 2547 4666 
L 4325 0 
L 3669 0 
L 3244 1197 
L 1141 1197 
L 716 0 
L 50 0 
L 1831 4666 
z
" transform="scale(0.015625)"/>
      </defs>
      <use xlink:href="#DejaVuSans-41"/>
      <use xlink:href="#DejaVuSans-72" transform="translate(68.408203 0)"/>
     </g>
    </g>
    <g id="line2d_24">
     <path d="M 707.401875 147.532031 
L 722.401875 147.532031 
L 722.401875 147.532031 
L 737.401875 147.532031 
L 737.401875 147.532031 
" style="fill: none; stroke: #800000; stroke-opacity: 0.75; stroke-width: 2.5; stroke-linecap: square"/>
    </g>
    <g id="text_21">
     <!-- Ca -->
     <g transform="translate(749.401875 152.782031) scale(0.15 -0.15)">
      <use xlink:href="#DejaVuSans-43"/>
      <use xlink:href="#DejaVuSans-61" transform="translate(69.824219 0)"/>
     </g>
    </g>
   </g>
  </g>
 </g>
 <defs>
  <clipPath id="pb32f7bd6c9">
   <rect x="56.571875" y="17.798437" width="637.33" height="283.432"/>
  </clipPath>
 </defs>
</svg>
